M48
;Layer_Color=9474304
;FILE_FORMAT=2:4
INCH,TZ
;TYPE=PLATED
T01F00S00C0.0079
T02F00S00C0.0118
T03F00S00C0.0197
T04F00S00C0.0276
T05F00S00C0.0400
T06F00S00C0.0472
;TYPE=NON_PLATED
T07F00S00C0.0354
%
T01
X7244Y13307
Y13780
X6850
X7638
X7244Y14252
X7283Y15669
Y16142
X6890
X7677
X7283Y16614
T02
X6142Y13622
X8425Y13740
Y14134
X13346Y14016
X13819
X14291
X14764
X15236Y14003
X15069Y12717
X14567Y12677
X14055Y12717
X13595Y12705
X13093Y12699
X13091Y11516
X13583
X14075
X14606Y11496
X15069
X15616
Y12717
X16022
X16569Y12734
Y11461
X16022Y11496
X16220Y13937
X16732
X15748Y14016
X16339Y17913
Y18209
Y18661
X15866Y19016
X16299Y19606
X16350Y20315
X17717Y20157
Y20551
X18740Y18976
Y18583
Y18228
X18701Y17795
X20709Y19764
X20588Y20079
X20591Y20394
X21181Y19409
X15906Y21575
X15630Y21850
X15197Y21614
X14843Y21693
X14291Y21654
X13622
X13287Y20256
X13189Y19094
X12008Y17953
Y17520
X8359Y17913
X8131Y18189
X8031Y17677
X8504Y20315
T03
X22638Y10728
Y11220
Y11713
Y12205
Y12697
Y13189
Y13681
Y14173
Y16437
Y16929
Y17421
Y17913
Y18406
Y18898
Y19390
Y19882
T04
X6299Y9449
Y10236
T05
X12343Y8260
X13343
X14343
X15343
Y9260
X14343
X13343
X12343
X16343
X17343
Y8260
X16343
T06
X6496Y7874
X22835
Y21457
X6496
T07
X8780Y7362
X9961
M30
