M48
;Layer_Color=9474304
;FILE_FORMAT=2:4
INCH,TZ
;TYPE=PLATED
T01F00S00C0.0079
T02F00S00C0.0118
T03F00S00C0.0197
T04F00S00C0.0276
T05F00S00C0.0400
T06F00S00C0.0472
;TYPE=NON_PLATED
T07F00S00C0.0354
%
T01
X7244Y13307
Y13780
X6850
X7638
X7244Y14252
X7283Y15669
Y16142
X6890
X7677
X7283Y16614
T02
X8898Y8661
X8071Y10827
X8307Y12913
X8420Y13853
X8878Y14124
X8858Y14567
X8976Y15276
X10827Y15236
X11535
X12441
X13331Y14037
X13828Y14016
X14291
X14764
X15236
X15094Y12847
X14594
X14094
X13598
X12974Y12698
X12047Y12835
X12087Y12008
X11614Y10748
X12402Y10039
X13086
X13588Y9980
X14094Y10354
X14606Y10054
X15095Y11377
X15591Y11496
Y12835
X9646Y11614
X6693Y12205
X6142Y13622
X6024Y14134
X15736Y13976
X16233
X16744Y13980
Y12717
X16094
X16094Y11496
X16591Y11461
X17205Y10630
X17244Y12402
X18110Y12323
X18701Y12677
X17795Y13032
X19829Y12378
X20335Y12380
X21575Y11220
X22047Y11654
X20827Y10012
X19213Y7835
X18490Y8243
X19843Y14921
X20315
X21041Y15507
X21614Y15984
X21575Y17283
Y17992
X20974Y17805
X20846Y18157
X20551Y18674
X20709Y19764
X20588Y20079
X20591Y20394
X21181Y19409
X21457Y21457
X17717Y20551
Y20157
X16102Y20276
X16051Y19646
X15827Y19114
X16142Y18543
X16051Y18209
X15946Y17875
X17717Y17520
X17874Y15827
X17165
X19409Y17795
X19134Y18189
X18898Y18583
X18652Y18996
X20544Y17308
X16161Y21624
X15846Y22087
X15482Y22372
X15197Y21614
X14843Y21693
X14291Y21654
X13622
X13287Y20256
X14291Y19685
X13770Y19124
X12008Y19311
X11998Y18907
X12008Y18327
X12014Y17946
X11890Y17441
X10787Y17638
Y18228
X10669Y18622
X10433Y18976
X10630Y19764
X10039Y19803
X12008Y19764
X11968Y22165
X8327Y21427
X7480Y21457
X8327Y20335
X6496Y20315
X6456Y19607
X6417Y18622
X6378Y18268
X6368Y17884
X6378Y17520
X6063Y16457
X6022Y15983
X8346Y16457
X8800Y16281
X8661Y17205
X9015Y17658
X8622Y17992
X8150Y18228
X8031Y17677
X7402Y18898
X10827Y16732
X13189Y17283
T03
X22638Y10728
Y11220
Y11713
Y12205
Y12697
Y13189
Y13681
Y14173
Y16437
Y16929
Y17421
Y17913
Y18406
Y18898
Y19390
Y19882
T04
X6299Y9636
Y10423
T05
X12343Y8260
X13343
X14343
X15343
Y9260
X14343
X13343
X12343
X16343
X17343
Y8260
X16343
T06
X6496Y7874
X22835
Y21457
X6496
T07
X8780Y7362
X9961
M30
