G04*
G04 #@! TF.GenerationSoftware,Altium Limited,Altium Designer,24.6.1 (21)*
G04*
G04 Layer_Color=65535*
%FSLAX25Y25*%
%MOIN*%
G70*
G04*
G04 #@! TF.SameCoordinates,B39E71B9-853D-4F3F-8AEA-E0825CCAAB9B*
G04*
G04*
G04 #@! TF.FilePolarity,Positive*
G04*
G01*
G75*
%ADD10C,0.00984*%
%ADD11C,0.00300*%
%ADD12C,0.00400*%
%ADD13C,0.00787*%
%ADD14C,0.00512*%
%ADD15R,0.31890X0.09843*%
D10*
X36713Y71358D02*
X35974Y71785D01*
Y70932D01*
X36713Y71358D01*
D11*
X7654Y79331D02*
X35653D01*
X7654D02*
Y93659D01*
X35653Y79331D02*
Y93659D01*
D12*
X101699Y75453D02*
Y80453D01*
Y75453D02*
X110899D01*
Y80453D01*
X101699D02*
X110899D01*
X73747Y77421D02*
Y82421D01*
Y77421D02*
X82946D01*
Y82421D01*
X73747D02*
X82946D01*
X43431Y77421D02*
Y82421D01*
Y77421D02*
X52631D01*
Y82421D01*
X43431D02*
X52631D01*
X10085Y19429D02*
X19285D01*
Y14429D02*
Y19429D01*
X10085Y14429D02*
X19285D01*
X10085D02*
Y19429D01*
X27028Y36739D02*
X32028D01*
Y45939D01*
X27028D02*
X32028D01*
X27028Y36739D02*
Y45939D01*
X19809Y47500D02*
Y52500D01*
Y47500D02*
X29009D01*
Y52500D01*
X19809D02*
X29009D01*
X28222Y60098D02*
Y65098D01*
X19022D02*
X28222D01*
X19022Y60098D02*
Y65098D01*
Y60098D02*
X28222D01*
D13*
X38780Y23524D02*
X42126D01*
X38780D02*
Y26870D01*
X83858Y23524D02*
X87205D01*
Y26870D01*
Y68602D02*
Y71949D01*
X83858D02*
X87205D01*
X38780D02*
X42126D01*
X38780Y68602D02*
Y71949D01*
D14*
X43949Y87388D02*
X43425Y87912D01*
X42375D01*
X41850Y87388D01*
Y86863D01*
X42375Y86338D01*
X43425D01*
X43949Y85813D01*
Y85289D01*
X43425Y84764D01*
X42375D01*
X41850Y85289D01*
X44999Y84764D02*
Y87912D01*
X47098Y84764D01*
Y87912D01*
X48148Y86863D02*
X48672D01*
Y86338D01*
X48148D01*
Y86863D01*
Y85289D02*
X48672D01*
Y84764D01*
X48148D01*
Y85289D01*
X106024Y84370D02*
Y87519D01*
X107598D01*
X108123Y86994D01*
Y85944D01*
X107598Y85420D01*
X106024D01*
X107073D02*
X108123Y84370D01*
X110747D02*
X109697D01*
X109172Y84895D01*
Y85944D01*
X109697Y86469D01*
X110747D01*
X111271Y85944D01*
Y85420D01*
X109172D01*
X112321Y86469D02*
X113370Y84370D01*
X114420Y86469D01*
X115469Y84370D02*
Y84895D01*
X115994D01*
Y84370D01*
X115469D01*
X120192D02*
X118093D01*
X120192Y86469D01*
Y86994D01*
X119667Y87519D01*
X118618D01*
X118093Y86994D01*
X85288Y91718D02*
X84763Y92243D01*
X83714D01*
X83189Y91718D01*
Y89619D01*
X83714Y89095D01*
X84763D01*
X85288Y89619D01*
X86338Y89095D02*
Y91193D01*
X87387Y92243D01*
X88437Y91193D01*
Y89095D01*
Y90669D01*
X86338D01*
X89486Y92243D02*
X91585D01*
X90536D01*
Y89095D01*
X94209Y92243D02*
X93160D01*
X92635Y91718D01*
Y89619D01*
X93160Y89095D01*
X94209D01*
X94734Y89619D01*
Y91718D01*
X94209Y92243D01*
X95783Y89095D02*
Y92243D01*
X97882Y89095D01*
Y92243D01*
X98932Y90669D02*
X101031D01*
X102081Y92243D02*
Y89095D01*
X103655D01*
X104180Y89619D01*
Y91718D01*
X103655Y92243D01*
X102081D01*
X105229Y90669D02*
X107328D01*
X110477Y89619D02*
Y91718D01*
X109952Y92243D01*
X108903D01*
X108378Y91718D01*
Y89619D01*
X108903Y89095D01*
X109952D01*
X109427Y90144D02*
X110477Y89095D01*
X109952D02*
X110477Y89619D01*
X111526Y89095D02*
X112576D01*
X112051D01*
Y92243D01*
X111526Y91718D01*
X114150D02*
X114675Y92243D01*
X115724D01*
X116249Y91718D01*
Y89619D01*
X115724Y89095D01*
X114675D01*
X114150Y89619D01*
Y91718D01*
X117299D02*
X117824Y92243D01*
X118873D01*
X119398Y91718D01*
Y89619D01*
X118873Y89095D01*
X117824D01*
X117299Y89619D01*
Y91718D01*
X90552Y87401D02*
X92126D01*
X91339D01*
Y85040D01*
X92913Y87008D02*
X93307Y87401D01*
X94094D01*
X94488Y87008D01*
Y86614D01*
X94094Y86221D01*
X93700D01*
X94094D01*
X94488Y85827D01*
Y85433D01*
X94094Y85040D01*
X93307D01*
X92913Y85433D01*
X19030Y10236D02*
X21129D01*
X20079D01*
Y7087D01*
X24277D02*
X22178D01*
X24277Y9186D01*
Y9711D01*
X23753Y10236D01*
X22703D01*
X22178Y9711D01*
X112468Y11023D02*
X114567D01*
X113517D01*
Y7875D01*
X115617D02*
X116666D01*
X116141D01*
Y11023D01*
X115617Y10498D01*
X8530Y77165D02*
X7481D01*
X8006D01*
Y74541D01*
X7481Y74016D01*
X6956D01*
X6431Y74541D01*
X9580Y76640D02*
X10105Y77165D01*
X11154D01*
X11679Y76640D01*
Y76115D01*
X11154Y75591D01*
X10629D01*
X11154D01*
X11679Y75066D01*
Y74541D01*
X11154Y74016D01*
X10105D01*
X9580Y74541D01*
X12299Y25024D02*
X11774Y25549D01*
X10725D01*
X10200Y25024D01*
Y22925D01*
X10725Y22400D01*
X11774D01*
X12299Y22925D01*
X15448Y25549D02*
X14398Y25024D01*
X13349Y23974D01*
Y22925D01*
X13873Y22400D01*
X14923D01*
X15448Y22925D01*
Y23449D01*
X14923Y23974D01*
X13349D01*
X105774Y73491D02*
X105250Y74015D01*
X104200D01*
X103675Y73491D01*
Y71391D01*
X104200Y70867D01*
X105250D01*
X105774Y71391D01*
X108923Y74015D02*
X106824D01*
Y72441D01*
X107873Y72966D01*
X108398D01*
X108923Y72441D01*
Y71391D01*
X108398Y70867D01*
X107349D01*
X106824Y71391D01*
X54462Y79396D02*
X53938Y78872D01*
Y77822D01*
X54462Y77297D01*
X56561D01*
X57086Y77822D01*
Y78872D01*
X56561Y79396D01*
X57086Y82020D02*
X53938D01*
X55512Y80446D01*
Y82545D01*
X85171Y79396D02*
X84646Y78872D01*
Y77822D01*
X85171Y77297D01*
X87270D01*
X87795Y77822D01*
Y78872D01*
X87270Y79396D01*
X85171Y80446D02*
X84646Y80971D01*
Y82020D01*
X85171Y82545D01*
X85696D01*
X86221Y82020D01*
Y81496D01*
Y82020D01*
X86745Y82545D01*
X87270D01*
X87795Y82020D01*
Y80971D01*
X87270Y80446D01*
X14240Y48426D02*
Y51574D01*
X15814D01*
X16339Y51050D01*
Y50000D01*
X15814Y49475D01*
X14240D01*
X15289D02*
X16339Y48426D01*
X17388D02*
X18438D01*
X17913D01*
Y51574D01*
X17388Y51050D01*
X110106Y54199D02*
X109581Y54724D01*
X108531D01*
X108007Y54199D01*
Y53674D01*
X108531Y53150D01*
X109581D01*
X110106Y52625D01*
Y52100D01*
X109581Y51575D01*
X108531D01*
X108007Y52100D01*
X111155Y54724D02*
Y51575D01*
X112730D01*
X113254Y52100D01*
Y52625D01*
X112730Y53150D01*
X111155D01*
X112730D01*
X113254Y53674D01*
Y54199D01*
X112730Y54724D01*
X111155D01*
X114304Y54199D02*
X114829Y54724D01*
X115878D01*
X116403Y54199D01*
Y53674D01*
X115878Y53150D01*
X115353D01*
X115878D01*
X116403Y52625D01*
Y52100D01*
X115878Y51575D01*
X114829D01*
X114304Y52100D01*
X67323Y81758D02*
X66799Y82283D01*
X65749D01*
X65224Y81758D01*
Y81233D01*
X65749Y80709D01*
X66799D01*
X67323Y80184D01*
Y79659D01*
X66799Y79134D01*
X65749D01*
X65224Y79659D01*
X68373Y82283D02*
Y79134D01*
X69947D01*
X70472Y79659D01*
Y80184D01*
X69947Y80709D01*
X68373D01*
X69947D01*
X70472Y81233D01*
Y81758D01*
X69947Y82283D01*
X68373D01*
X71522Y79134D02*
X72571D01*
X72046D01*
Y82283D01*
X71522Y81758D01*
X28478Y32448D02*
X27953Y31923D01*
Y30873D01*
X28478Y30349D01*
X30577D01*
X31102Y30873D01*
Y31923D01*
X30577Y32448D01*
X31102Y35596D02*
Y33497D01*
X29003Y35596D01*
X28478D01*
X27953Y35072D01*
Y34022D01*
X28478Y33497D01*
X15092Y62598D02*
X14567Y62074D01*
Y61024D01*
X15092Y60499D01*
X17191D01*
X17716Y61024D01*
Y62074D01*
X17191Y62598D01*
X17716Y63648D02*
Y64697D01*
Y64173D01*
X14567D01*
X15092Y63648D01*
X37665Y78346D02*
Y75722D01*
X38190Y75197D01*
X39239D01*
X39764Y75722D01*
Y78346D01*
X40813Y75197D02*
X41863D01*
X41338D01*
Y78346D01*
X40813Y77821D01*
X93832Y71523D02*
X93308Y70998D01*
Y69949D01*
X93832Y69424D01*
X94357D01*
X94882Y69949D01*
Y70998D01*
X95407Y71523D01*
X95931D01*
X96456Y70998D01*
Y69949D01*
X95931Y69424D01*
X93308Y72572D02*
X96456D01*
Y74147D01*
X95931Y74672D01*
X95407D01*
X94882Y74147D01*
Y72572D01*
Y74147D01*
X94357Y74672D01*
X93832D01*
X93308Y74147D01*
Y72572D01*
X96456Y77820D02*
Y75721D01*
X94357Y77820D01*
X93832D01*
X93308Y77295D01*
Y76246D01*
X93832Y75721D01*
D15*
X65551Y89173D02*
D03*
M02*
