G04*
G04 #@! TF.GenerationSoftware,Altium Limited,Altium Designer,24.6.1 (21)*
G04*
G04 Layer_Physical_Order=5*
G04 Layer_Color=32896*
%FSLAX25Y25*%
%MOIN*%
G70*
G04*
G04 #@! TF.SameCoordinates,968F5DAC-6C38-4F8D-B6AE-AF4369227771*
G04*
G04*
G04 #@! TF.FilePolarity,Positive*
G04*
G01*
G75*
%ADD29C,0.00750*%
%ADD33C,0.03937*%
%ADD34C,0.01968*%
G36*
X119493Y94573D02*
X119890Y94494D01*
X120263Y94340D01*
X120599Y94115D01*
X120885Y93829D01*
X121110Y93494D01*
X121265Y93120D01*
X121344Y92724D01*
X121344Y92522D01*
X121345Y6693D01*
X121344Y6491D01*
X121266Y6094D01*
X121111Y5721D01*
X120887Y5385D01*
X120601Y5099D01*
X120265Y4874D01*
X119892Y4719D01*
X119496Y4640D01*
X119293Y4640D01*
X80277D01*
X80207Y4990D01*
X80258Y5011D01*
X80816Y5569D01*
X81118Y6298D01*
Y7088D01*
X81392Y7340D01*
X81881D01*
X82610Y7643D01*
X83168Y8201D01*
X83214Y8310D01*
X83265Y8318D01*
X83578Y8276D01*
X83845Y7632D01*
X84403Y7073D01*
X85132Y6771D01*
X85922D01*
X86651Y7073D01*
X87209Y7632D01*
X87511Y8361D01*
Y8787D01*
X87861Y8856D01*
X88082Y8325D01*
X88640Y7767D01*
X89369Y7465D01*
X90158D01*
X90888Y7767D01*
X91446Y8325D01*
X91748Y9054D01*
Y9577D01*
X92098Y9722D01*
X92380Y9440D01*
X93109Y9138D01*
X93899D01*
X94628Y9440D01*
X95186Y9998D01*
X95488Y10727D01*
Y11517D01*
X95259Y12070D01*
X95556Y12268D01*
X95726Y12097D01*
X96456Y11795D01*
X97245D01*
X97974Y12097D01*
X98533Y12655D01*
X98835Y13385D01*
X99185Y13544D01*
X99605Y13370D01*
X100395D01*
X101124Y13672D01*
X101682Y14230D01*
X101984Y14960D01*
Y15749D01*
X101682Y16478D01*
X101124Y17037D01*
X100395Y17339D01*
X99605D01*
X98876Y17037D01*
X98318Y16478D01*
X98016Y15749D01*
X97666Y15589D01*
X97245Y15764D01*
X96456D01*
X95726Y15462D01*
X95168Y14904D01*
X94866Y14174D01*
Y13385D01*
X95095Y12832D01*
X94798Y12634D01*
X94628Y12804D01*
X93899Y13106D01*
X93109D01*
X92380Y12804D01*
X91822Y12246D01*
X91520Y11517D01*
Y10994D01*
X91170Y10849D01*
X90888Y11131D01*
X90158Y11433D01*
X89369D01*
X88640Y11131D01*
X88082Y10573D01*
X87779Y9843D01*
Y9418D01*
X87429Y9348D01*
X87209Y9879D01*
X86651Y10438D01*
X85922Y10740D01*
X85132D01*
X84403Y10438D01*
X83845Y9879D01*
X83799Y9770D01*
X83748Y9762D01*
X83435Y9804D01*
X83168Y10449D01*
X82610Y11007D01*
X81881Y11309D01*
X81091D01*
X80362Y11007D01*
X79804Y10449D01*
X79502Y9719D01*
Y8930D01*
X79228Y8677D01*
X78739D01*
X78010Y8375D01*
X77452Y7817D01*
X77150Y7088D01*
Y6298D01*
X77452Y5569D01*
X78010Y5011D01*
X78061Y4990D01*
X77991Y4640D01*
X75610D01*
X75540Y4990D01*
X75829Y5109D01*
X76387Y5667D01*
X76689Y6397D01*
Y7186D01*
X76387Y7915D01*
X75834Y8468D01*
X76284Y8918D01*
X76586Y9647D01*
Y10437D01*
X76284Y11166D01*
X75726Y11724D01*
X74997Y12026D01*
X74207D01*
X73478Y11724D01*
X72920Y11166D01*
X72618Y10437D01*
Y9647D01*
X72920Y8918D01*
X73473Y8365D01*
X73023Y7915D01*
X72758Y7276D01*
X72427Y7235D01*
X72393Y7241D01*
X72155Y7817D01*
X71596Y8375D01*
X70867Y8677D01*
X70078D01*
X69349Y8375D01*
X68790Y7817D01*
X68488Y7088D01*
Y6298D01*
X68790Y5569D01*
X69349Y5011D01*
X69399Y4990D01*
X69330Y4640D01*
X6693Y4640D01*
X6491D01*
X6094Y4719D01*
X5721Y4873D01*
X5385Y5097D01*
X5099Y5383D01*
X4874Y5719D01*
X4719Y6092D01*
X4640Y6489D01*
X4640Y6691D01*
Y25658D01*
X4990Y25767D01*
X5471Y25286D01*
X6200Y24984D01*
X6989D01*
X7718Y25286D01*
X8277Y25844D01*
X8579Y26574D01*
Y27363D01*
X8277Y28093D01*
X7718Y28651D01*
X6989Y28953D01*
X6200D01*
X5471Y28651D01*
X4990Y28170D01*
X4640Y28279D01*
X4640Y92520D01*
Y92722D01*
X4719Y93118D01*
X4873Y93492D01*
X5097Y93828D01*
X5383Y94114D01*
X5719Y94339D01*
X6092Y94494D01*
X6489Y94573D01*
X6691Y94573D01*
X119291Y94573D01*
X119493Y94573D01*
D02*
G37*
%LPC*%
G36*
X87221Y89026D02*
Y87221D01*
X89026D01*
X88987Y87366D01*
X88596Y88043D01*
X88043Y88596D01*
X87366Y88987D01*
X87221Y89026D01*
D02*
G37*
G36*
X85220D02*
X85075Y88987D01*
X84398Y88596D01*
X83845Y88043D01*
X83454Y87366D01*
X83415Y87221D01*
X85220D01*
Y89026D01*
D02*
G37*
G36*
X32678Y87417D02*
X31889D01*
X31159Y87115D01*
X30601Y86557D01*
X30299Y85828D01*
Y85038D01*
X30601Y84309D01*
X31159Y83751D01*
X31889Y83449D01*
X32678D01*
X33408Y83751D01*
X33966Y84309D01*
X34268Y85038D01*
Y85828D01*
X33966Y86557D01*
X33408Y87115D01*
X32678Y87417D01*
D02*
G37*
G36*
X11418D02*
X10629D01*
X9900Y87115D01*
X9341Y86557D01*
X9039Y85828D01*
Y85038D01*
X9341Y84309D01*
X9900Y83751D01*
X10629Y83449D01*
X11418D01*
X12148Y83751D01*
X12706Y84309D01*
X13008Y85038D01*
Y85828D01*
X12706Y86557D01*
X12148Y87115D01*
X11418Y87417D01*
D02*
G37*
G36*
X89026Y85220D02*
X87221D01*
Y83415D01*
X87366Y83454D01*
X88043Y83845D01*
X88596Y84398D01*
X88987Y85075D01*
X89026Y85220D01*
D02*
G37*
G36*
X85220D02*
X83415D01*
X83454Y85075D01*
X83845Y84398D01*
X84398Y83845D01*
X85075Y83454D01*
X85220Y83415D01*
Y85220D01*
D02*
G37*
G36*
X92127Y86433D02*
X91338D01*
X90608Y86131D01*
X90050Y85573D01*
X89748Y84843D01*
Y84054D01*
X90050Y83325D01*
X90608Y82767D01*
X91338Y82465D01*
X92127D01*
X92856Y82767D01*
X93414Y83325D01*
X93717Y84054D01*
Y84843D01*
X93414Y85573D01*
X92856Y86131D01*
X92127Y86433D01*
D02*
G37*
G36*
X118505Y79937D02*
X117716D01*
X116986Y79635D01*
X116428Y79077D01*
X116126Y78347D01*
Y77558D01*
X116428Y76829D01*
X116986Y76271D01*
X117716Y75968D01*
X118505D01*
X119234Y76271D01*
X119792Y76829D01*
X120095Y77558D01*
Y78347D01*
X119792Y79077D01*
X119234Y79635D01*
X118505Y79937D01*
D02*
G37*
G36*
X113780D02*
X112991D01*
X112262Y79635D01*
X111704Y79077D01*
X111402Y78347D01*
Y77558D01*
X111704Y76829D01*
X112262Y76271D01*
X112991Y75968D01*
X113780D01*
X114510Y76271D01*
X115068Y76829D01*
X115370Y77558D01*
Y78347D01*
X115068Y79077D01*
X114510Y79635D01*
X113780Y79937D01*
D02*
G37*
G36*
X100001D02*
X99212D01*
X98482Y79635D01*
X97924Y79077D01*
X97622Y78347D01*
Y77558D01*
X97924Y76829D01*
X98482Y76271D01*
X99212Y75968D01*
X100001D01*
X100730Y76271D01*
X101288Y76829D01*
X101591Y77558D01*
Y78347D01*
X101288Y79077D01*
X100730Y79635D01*
X100001Y79937D01*
D02*
G37*
G36*
X58915Y78658D02*
X58125D01*
X57396Y78355D01*
X56838Y77797D01*
X56536Y77068D01*
Y76279D01*
X56838Y75549D01*
X57396Y74991D01*
X58125Y74689D01*
X58915D01*
X59644Y74991D01*
X60202Y75549D01*
X60504Y76279D01*
Y77068D01*
X60202Y77797D01*
X59644Y78355D01*
X58915Y78658D01*
D02*
G37*
G36*
X75985Y77969D02*
X75196D01*
X74467Y77666D01*
X73908Y77108D01*
X73606Y76379D01*
Y75590D01*
X73908Y74860D01*
X74467Y74302D01*
X75196Y74000D01*
X75985D01*
X76714Y74302D01*
X77273Y74860D01*
X77575Y75590D01*
Y76379D01*
X77273Y77108D01*
X76714Y77666D01*
X75985Y77969D01*
D02*
G37*
G36*
X51280Y77575D02*
X50491D01*
X49762Y77273D01*
X49204Y76714D01*
X48902Y75985D01*
Y75196D01*
X49204Y74467D01*
X49762Y73908D01*
X50491Y73606D01*
X51280D01*
X52010Y73908D01*
X52568Y74467D01*
X52870Y75196D01*
Y75985D01*
X52568Y76714D01*
X52010Y77273D01*
X51280Y77575D01*
D02*
G37*
G36*
X15355Y73638D02*
X14566D01*
X13837Y73336D01*
X13279Y72777D01*
X12976Y72048D01*
Y71259D01*
X13279Y70530D01*
X13837Y69971D01*
X14566Y69669D01*
X15355D01*
X16085Y69971D01*
X16643Y70530D01*
X16945Y71259D01*
Y72048D01*
X16643Y72777D01*
X16085Y73336D01*
X15355Y73638D01*
D02*
G37*
G36*
X95178Y68618D02*
X94389D01*
X93660Y68316D01*
X93101Y67758D01*
X92840Y67127D01*
X92476Y66899D01*
X92127Y67043D01*
X91338D01*
X90608Y66741D01*
X90050Y66183D01*
X89748Y65454D01*
Y64664D01*
X90050Y63935D01*
X90608Y63377D01*
X91338Y63075D01*
X92127D01*
X92372Y62798D01*
X92209Y62403D01*
Y61613D01*
X92511Y60884D01*
X92780Y60615D01*
X92581Y60318D01*
X92028Y60547D01*
X91239D01*
X90510Y60245D01*
X89952Y59687D01*
X89650Y58958D01*
Y58168D01*
X89952Y57439D01*
X90510Y56881D01*
X91239Y56579D01*
X92028D01*
X92758Y56881D01*
X93170Y57293D01*
X93577Y57224D01*
X93692Y56947D01*
X94250Y56389D01*
X94979Y56087D01*
X95769D01*
X96498Y56389D01*
X97056Y56947D01*
X97358Y57676D01*
Y58466D01*
X97056Y59195D01*
X96498Y59753D01*
X95769Y60055D01*
X95509D01*
X95396Y60405D01*
X95875Y60884D01*
X96177Y61613D01*
Y62403D01*
X95875Y63132D01*
X95317Y63690D01*
X94588Y63992D01*
X93803D01*
X93589Y64255D01*
X93679Y64568D01*
X94040Y64794D01*
X94389Y64650D01*
X95178D01*
X95907Y64952D01*
X96466Y65510D01*
X96768Y66239D01*
Y67028D01*
X96466Y67758D01*
X95907Y68316D01*
X95178Y68618D01*
D02*
G37*
G36*
X32678Y72850D02*
X31889D01*
X31159Y72548D01*
X30601Y71990D01*
X30299Y71261D01*
Y70472D01*
X30601Y69742D01*
X31159Y69184D01*
X31541Y69026D01*
Y68647D01*
X31455Y68611D01*
X30897Y68053D01*
X30595Y67324D01*
Y66534D01*
X30897Y65805D01*
X31455Y65247D01*
X32184Y64945D01*
X32973D01*
X33703Y65247D01*
X34261Y65805D01*
X34563Y66534D01*
Y67324D01*
X34261Y68053D01*
X33703Y68611D01*
X33321Y68769D01*
Y69148D01*
X33408Y69184D01*
X33966Y69742D01*
X34268Y70472D01*
Y71261D01*
X33966Y71990D01*
X33408Y72548D01*
X32678Y72850D01*
D02*
G37*
G36*
X8269Y67240D02*
X7479D01*
X6750Y66938D01*
X6192Y66380D01*
X5890Y65651D01*
Y64861D01*
X6192Y64132D01*
X6750Y63574D01*
X7479Y63272D01*
X8269D01*
X8998Y63574D01*
X9556Y64132D01*
X9858Y64861D01*
Y65651D01*
X9556Y66380D01*
X8998Y66938D01*
X8269Y67240D01*
D02*
G37*
G36*
X80710Y67043D02*
X79920D01*
X79191Y66741D01*
X78633Y66183D01*
X78331Y65454D01*
Y64664D01*
X78633Y63935D01*
X79191Y63377D01*
X79920Y63075D01*
X80710D01*
X81439Y63377D01*
X81997Y63935D01*
X82299Y64664D01*
Y65454D01*
X81997Y66183D01*
X81439Y66741D01*
X80710Y67043D01*
D02*
G37*
G36*
X76379D02*
X75590D01*
X74860Y66741D01*
X74302Y66183D01*
X74000Y65454D01*
Y64664D01*
X74302Y63935D01*
X74860Y63377D01*
X75590Y63075D01*
X76379D01*
X77108Y63377D01*
X77666Y63935D01*
X77969Y64664D01*
Y65454D01*
X77666Y66183D01*
X77108Y66741D01*
X76379Y67043D01*
D02*
G37*
G36*
X72048D02*
X71259D01*
X70530Y66741D01*
X69971Y66183D01*
X69669Y65454D01*
Y64664D01*
X69971Y63935D01*
X70530Y63377D01*
X71259Y63075D01*
X72048D01*
X72777Y63377D01*
X73336Y63935D01*
X73638Y64664D01*
Y65454D01*
X73336Y66183D01*
X72777Y66741D01*
X72048Y67043D01*
D02*
G37*
G36*
X67717D02*
X66928D01*
X66199Y66741D01*
X65641Y66183D01*
X65339Y65454D01*
Y64664D01*
X65641Y63935D01*
X66199Y63377D01*
X66928Y63075D01*
X67717D01*
X68447Y63377D01*
X69005Y63935D01*
X69307Y64664D01*
Y65454D01*
X69005Y66183D01*
X68447Y66741D01*
X67717Y67043D01*
D02*
G37*
G36*
X63387D02*
X62597D01*
X61868Y66741D01*
X61310Y66183D01*
X61008Y65454D01*
Y64664D01*
X61310Y63935D01*
X61868Y63377D01*
X62597Y63075D01*
X63387D01*
X64116Y63377D01*
X64674Y63935D01*
X64976Y64664D01*
Y65454D01*
X64674Y66183D01*
X64116Y66741D01*
X63387Y67043D01*
D02*
G37*
G36*
X59056D02*
X58267D01*
X57537Y66741D01*
X56979Y66183D01*
X56677Y65454D01*
Y64664D01*
X56979Y63935D01*
X57537Y63377D01*
X58267Y63075D01*
X59056D01*
X59785Y63377D01*
X60344Y63935D01*
X60646Y64664D01*
Y65454D01*
X60344Y66183D01*
X59785Y66741D01*
X59056Y67043D01*
D02*
G37*
G36*
X54725D02*
X53936D01*
X53207Y66741D01*
X52649Y66183D01*
X52346Y65454D01*
Y64664D01*
X52649Y63935D01*
X53207Y63377D01*
X53936Y63075D01*
X54725D01*
X55455Y63377D01*
X56013Y63935D01*
X56315Y64664D01*
Y65454D01*
X56013Y66183D01*
X55455Y66741D01*
X54725Y67043D01*
D02*
G37*
G36*
X50395D02*
X49605D01*
X48876Y66741D01*
X48318Y66183D01*
X48016Y65454D01*
Y64664D01*
X48318Y63935D01*
X48876Y63377D01*
X49605Y63075D01*
X50395D01*
X51124Y63377D01*
X51682Y63935D01*
X51984Y64664D01*
Y65454D01*
X51682Y66183D01*
X51124Y66741D01*
X50395Y67043D01*
D02*
G37*
G36*
X46064D02*
X45275D01*
X44545Y66741D01*
X43987Y66183D01*
X43685Y65454D01*
Y64664D01*
X43987Y63935D01*
X44545Y63377D01*
X45275Y63075D01*
X46064D01*
X46793Y63377D01*
X47351Y63935D01*
X47653Y64664D01*
Y65454D01*
X47351Y66183D01*
X46793Y66741D01*
X46064Y67043D01*
D02*
G37*
G36*
X80710Y62713D02*
X79920D01*
X79191Y62410D01*
X78633Y61852D01*
X78331Y61123D01*
Y60334D01*
X78633Y59604D01*
X79191Y59046D01*
X79920Y58744D01*
X80710D01*
X81439Y59046D01*
X81997Y59604D01*
X82299Y60334D01*
Y61123D01*
X81997Y61852D01*
X81439Y62410D01*
X80710Y62713D01*
D02*
G37*
G36*
X76379D02*
X75590D01*
X74860Y62410D01*
X74302Y61852D01*
X74000Y61123D01*
Y60334D01*
X74302Y59604D01*
X74860Y59046D01*
X75590Y58744D01*
X76379D01*
X77108Y59046D01*
X77666Y59604D01*
X77969Y60334D01*
Y61123D01*
X77666Y61852D01*
X77108Y62410D01*
X76379Y62713D01*
D02*
G37*
G36*
X72048D02*
X71259D01*
X70530Y62410D01*
X69971Y61852D01*
X69669Y61123D01*
Y60334D01*
X69971Y59604D01*
X70530Y59046D01*
X71259Y58744D01*
X72048D01*
X72777Y59046D01*
X73336Y59604D01*
X73638Y60334D01*
Y61123D01*
X73336Y61852D01*
X72777Y62410D01*
X72048Y62713D01*
D02*
G37*
G36*
X67717D02*
X66928D01*
X66199Y62410D01*
X65641Y61852D01*
X65339Y61123D01*
Y60334D01*
X65641Y59604D01*
X66199Y59046D01*
X66928Y58744D01*
X67717D01*
X68447Y59046D01*
X69005Y59604D01*
X69307Y60334D01*
Y61123D01*
X69005Y61852D01*
X68447Y62410D01*
X67717Y62713D01*
D02*
G37*
G36*
X63387D02*
X62597D01*
X61868Y62410D01*
X61310Y61852D01*
X61008Y61123D01*
Y60334D01*
X61310Y59604D01*
X61868Y59046D01*
X62597Y58744D01*
X63387D01*
X64116Y59046D01*
X64674Y59604D01*
X64976Y60334D01*
Y61123D01*
X64674Y61852D01*
X64116Y62410D01*
X63387Y62713D01*
D02*
G37*
G36*
X59056D02*
X58267D01*
X57537Y62410D01*
X56979Y61852D01*
X56677Y61123D01*
Y60334D01*
X56979Y59604D01*
X57537Y59046D01*
X58267Y58744D01*
X59056D01*
X59785Y59046D01*
X60344Y59604D01*
X60646Y60334D01*
Y61123D01*
X60344Y61852D01*
X59785Y62410D01*
X59056Y62713D01*
D02*
G37*
G36*
X54725D02*
X53936D01*
X53207Y62410D01*
X52649Y61852D01*
X52346Y61123D01*
Y60334D01*
X52649Y59604D01*
X53207Y59046D01*
X53936Y58744D01*
X54725D01*
X55455Y59046D01*
X56013Y59604D01*
X56315Y60334D01*
Y61123D01*
X56013Y61852D01*
X55455Y62410D01*
X54725Y62713D01*
D02*
G37*
G36*
X50395D02*
X49605D01*
X48876Y62410D01*
X48318Y61852D01*
X48016Y61123D01*
Y60334D01*
X48318Y59604D01*
X48876Y59046D01*
X49605Y58744D01*
X50395D01*
X51124Y59046D01*
X51682Y59604D01*
X51984Y60334D01*
Y61123D01*
X51682Y61852D01*
X51124Y62410D01*
X50395Y62713D01*
D02*
G37*
G36*
X46064D02*
X45275D01*
X44545Y62410D01*
X43987Y61852D01*
X43685Y61123D01*
Y60334D01*
X43987Y59604D01*
X44545Y59046D01*
X45275Y58744D01*
X46064D01*
X46793Y59046D01*
X47351Y59604D01*
X47653Y60334D01*
Y61123D01*
X47351Y61852D01*
X46793Y62410D01*
X46064Y62713D01*
D02*
G37*
G36*
X32383Y61039D02*
X31593D01*
X30864Y60737D01*
X30306Y60179D01*
X30004Y59450D01*
Y58660D01*
X30306Y57931D01*
X30864Y57373D01*
X31385Y57157D01*
X31316Y56807D01*
X31101D01*
X30372Y56505D01*
X29814Y55947D01*
X29512Y55217D01*
Y54428D01*
X29814Y53699D01*
X30062Y53451D01*
X29994Y53107D01*
X29880Y53060D01*
X29322Y52502D01*
X29020Y51773D01*
Y50983D01*
X29322Y50254D01*
X29880Y49696D01*
X30437Y49465D01*
X30610Y49326D01*
X30613Y49044D01*
X30398Y48525D01*
Y47735D01*
X30700Y47006D01*
X31258Y46448D01*
X31987Y46146D01*
X32777D01*
X33506Y46448D01*
X34064Y47006D01*
X34366Y47735D01*
Y48525D01*
X34355Y48552D01*
X34589Y48902D01*
X35139D01*
X35868Y49204D01*
X36426Y49762D01*
X36728Y50491D01*
Y51280D01*
X36426Y52010D01*
X35868Y52568D01*
X35139Y52870D01*
X34349D01*
X33620Y52568D01*
X33208Y52156D01*
X32801Y52225D01*
X32686Y52502D01*
X32438Y52750D01*
X32506Y53093D01*
X32620Y53141D01*
X33178Y53699D01*
X33480Y54428D01*
Y55217D01*
X33178Y55947D01*
X32620Y56505D01*
X32099Y56721D01*
X32168Y57071D01*
X32383D01*
X33112Y57373D01*
X33568Y57829D01*
X33930Y57795D01*
X33970Y57774D01*
X34090Y57483D01*
X34649Y56925D01*
X35378Y56623D01*
X36167D01*
X36897Y56925D01*
X37455Y57483D01*
X37757Y58213D01*
Y59002D01*
X37455Y59731D01*
X36897Y60289D01*
X36167Y60592D01*
X35378D01*
X34649Y60289D01*
X34192Y59833D01*
X33831Y59868D01*
X33791Y59889D01*
X33670Y60179D01*
X33112Y60737D01*
X32383Y61039D01*
D02*
G37*
G36*
X23502Y58480D02*
X22713D01*
X21983Y58178D01*
X21425Y57620D01*
X21123Y56891D01*
Y56101D01*
X21425Y55372D01*
X21983Y54814D01*
X22713Y54512D01*
X23502D01*
X24231Y54814D01*
X24789Y55372D01*
X25091Y56101D01*
Y56891D01*
X24789Y57620D01*
X24231Y58178D01*
X23502Y58480D01*
D02*
G37*
G36*
X80710Y58382D02*
X79920D01*
X79191Y58080D01*
X78633Y57522D01*
X78331Y56792D01*
Y56003D01*
X78633Y55274D01*
X79191Y54716D01*
X79920Y54413D01*
X80710D01*
X81439Y54716D01*
X81997Y55274D01*
X82299Y56003D01*
Y56792D01*
X81997Y57522D01*
X81439Y58080D01*
X80710Y58382D01*
D02*
G37*
G36*
X76379D02*
X75590D01*
X74860Y58080D01*
X74302Y57522D01*
X74000Y56792D01*
Y56003D01*
X74302Y55274D01*
X74860Y54716D01*
X75590Y54413D01*
X76379D01*
X77108Y54716D01*
X77666Y55274D01*
X77969Y56003D01*
Y56792D01*
X77666Y57522D01*
X77108Y58080D01*
X76379Y58382D01*
D02*
G37*
G36*
X72048D02*
X71259D01*
X70530Y58080D01*
X69971Y57522D01*
X69669Y56792D01*
Y56003D01*
X69971Y55274D01*
X70530Y54716D01*
X71259Y54413D01*
X72048D01*
X72777Y54716D01*
X73336Y55274D01*
X73638Y56003D01*
Y56792D01*
X73336Y57522D01*
X72777Y58080D01*
X72048Y58382D01*
D02*
G37*
G36*
X67717D02*
X66928D01*
X66199Y58080D01*
X65641Y57522D01*
X65339Y56792D01*
Y56003D01*
X65641Y55274D01*
X66199Y54716D01*
X66928Y54413D01*
X67717D01*
X68447Y54716D01*
X69005Y55274D01*
X69307Y56003D01*
Y56792D01*
X69005Y57522D01*
X68447Y58080D01*
X67717Y58382D01*
D02*
G37*
G36*
X63387D02*
X62597D01*
X61868Y58080D01*
X61310Y57522D01*
X61008Y56792D01*
Y56003D01*
X61310Y55274D01*
X61868Y54716D01*
X62597Y54413D01*
X63387D01*
X64116Y54716D01*
X64674Y55274D01*
X64976Y56003D01*
Y56792D01*
X64674Y57522D01*
X64116Y58080D01*
X63387Y58382D01*
D02*
G37*
G36*
X59056D02*
X58267D01*
X57537Y58080D01*
X56979Y57522D01*
X56677Y56792D01*
Y56003D01*
X56979Y55274D01*
X57537Y54716D01*
X58267Y54413D01*
X59056D01*
X59785Y54716D01*
X60344Y55274D01*
X60646Y56003D01*
Y56792D01*
X60344Y57522D01*
X59785Y58080D01*
X59056Y58382D01*
D02*
G37*
G36*
X54725D02*
X53936D01*
X53207Y58080D01*
X52649Y57522D01*
X52346Y56792D01*
Y56003D01*
X52649Y55274D01*
X53207Y54716D01*
X53936Y54413D01*
X54725D01*
X55455Y54716D01*
X56013Y55274D01*
X56315Y56003D01*
Y56792D01*
X56013Y57522D01*
X55455Y58080D01*
X54725Y58382D01*
D02*
G37*
G36*
X50395D02*
X49605D01*
X48876Y58080D01*
X48318Y57522D01*
X48016Y56792D01*
Y56003D01*
X48318Y55274D01*
X48876Y54716D01*
X49605Y54413D01*
X50395D01*
X51124Y54716D01*
X51682Y55274D01*
X51984Y56003D01*
Y56792D01*
X51682Y57522D01*
X51124Y58080D01*
X50395Y58382D01*
D02*
G37*
G36*
X46064D02*
X45275D01*
X44545Y58080D01*
X43987Y57522D01*
X43685Y56792D01*
Y56003D01*
X43987Y55274D01*
X44545Y54716D01*
X45275Y54413D01*
X46064D01*
X46793Y54716D01*
X47351Y55274D01*
X47653Y56003D01*
Y56792D01*
X47351Y57522D01*
X46793Y58080D01*
X46064Y58382D01*
D02*
G37*
G36*
X91930Y56020D02*
X91141D01*
X90411Y55718D01*
X89853Y55159D01*
X89551Y54430D01*
Y53641D01*
X89853Y52911D01*
X90411Y52353D01*
X91141Y52051D01*
X91930D01*
X92659Y52353D01*
X93218Y52911D01*
X93520Y53641D01*
Y54430D01*
X93218Y55159D01*
X92659Y55718D01*
X91930Y56020D01*
D02*
G37*
G36*
X105228Y55792D02*
X104438D01*
X103709Y55490D01*
X103151Y54932D01*
X102849Y54203D01*
Y53413D01*
X103151Y52684D01*
X103709Y52126D01*
X104438Y51824D01*
X105228D01*
X105957Y52126D01*
X106515Y52684D01*
X106817Y53413D01*
Y54203D01*
X106515Y54932D01*
X105957Y55490D01*
X105228Y55792D01*
D02*
G37*
G36*
X109450Y54347D02*
X108660D01*
X107931Y54044D01*
X107373Y53486D01*
X107071Y52757D01*
Y51968D01*
X107373Y51238D01*
X107931Y50680D01*
X108660Y50378D01*
X109450D01*
X110179Y50680D01*
X110737Y51238D01*
X111039Y51968D01*
Y52757D01*
X110737Y53486D01*
X110179Y54044D01*
X109450Y54347D01*
D02*
G37*
G36*
X80710Y54051D02*
X79920D01*
X79191Y53749D01*
X78633Y53191D01*
X78331Y52462D01*
Y51672D01*
X78633Y50943D01*
X79191Y50385D01*
X79920Y50083D01*
X80710D01*
X81439Y50385D01*
X81997Y50943D01*
X82299Y51672D01*
Y52462D01*
X81997Y53191D01*
X81439Y53749D01*
X80710Y54051D01*
D02*
G37*
G36*
X76379D02*
X75590D01*
X74860Y53749D01*
X74302Y53191D01*
X74000Y52462D01*
Y51672D01*
X74302Y50943D01*
X74860Y50385D01*
X75590Y50083D01*
X76379D01*
X77108Y50385D01*
X77666Y50943D01*
X77969Y51672D01*
Y52462D01*
X77666Y53191D01*
X77108Y53749D01*
X76379Y54051D01*
D02*
G37*
G36*
X72048D02*
X71259D01*
X70530Y53749D01*
X69971Y53191D01*
X69669Y52462D01*
Y51672D01*
X69971Y50943D01*
X70530Y50385D01*
X71259Y50083D01*
X72048D01*
X72777Y50385D01*
X73336Y50943D01*
X73638Y51672D01*
Y52462D01*
X73336Y53191D01*
X72777Y53749D01*
X72048Y54051D01*
D02*
G37*
G36*
X67717D02*
X66928D01*
X66199Y53749D01*
X65641Y53191D01*
X65339Y52462D01*
Y51672D01*
X65641Y50943D01*
X66199Y50385D01*
X66928Y50083D01*
X67717D01*
X68447Y50385D01*
X69005Y50943D01*
X69307Y51672D01*
Y52462D01*
X69005Y53191D01*
X68447Y53749D01*
X67717Y54051D01*
D02*
G37*
G36*
X63387D02*
X62597D01*
X61868Y53749D01*
X61310Y53191D01*
X61008Y52462D01*
Y51672D01*
X61310Y50943D01*
X61868Y50385D01*
X62597Y50083D01*
X63387D01*
X64116Y50385D01*
X64674Y50943D01*
X64976Y51672D01*
Y52462D01*
X64674Y53191D01*
X64116Y53749D01*
X63387Y54051D01*
D02*
G37*
G36*
X59056D02*
X58267D01*
X57537Y53749D01*
X56979Y53191D01*
X56677Y52462D01*
Y51672D01*
X56979Y50943D01*
X57537Y50385D01*
X58267Y50083D01*
X59056D01*
X59785Y50385D01*
X60344Y50943D01*
X60646Y51672D01*
Y52462D01*
X60344Y53191D01*
X59785Y53749D01*
X59056Y54051D01*
D02*
G37*
G36*
X54725D02*
X53936D01*
X53207Y53749D01*
X52649Y53191D01*
X52346Y52462D01*
Y51672D01*
X52649Y50943D01*
X53207Y50385D01*
X53936Y50083D01*
X54725D01*
X55455Y50385D01*
X56013Y50943D01*
X56315Y51672D01*
Y52462D01*
X56013Y53191D01*
X55455Y53749D01*
X54725Y54051D01*
D02*
G37*
G36*
X50395D02*
X49605D01*
X48876Y53749D01*
X48318Y53191D01*
X48016Y52462D01*
Y51672D01*
X48318Y50943D01*
X48876Y50385D01*
X49605Y50083D01*
X50395D01*
X51124Y50385D01*
X51682Y50943D01*
X51984Y51672D01*
Y52462D01*
X51682Y53191D01*
X51124Y53749D01*
X50395Y54051D01*
D02*
G37*
G36*
X46064D02*
X45275D01*
X44545Y53749D01*
X43987Y53191D01*
X43685Y52462D01*
Y51672D01*
X43987Y50943D01*
X44545Y50385D01*
X45275Y50083D01*
X46064D01*
X46793Y50385D01*
X47351Y50943D01*
X47653Y51672D01*
Y52462D01*
X47351Y53191D01*
X46793Y53749D01*
X46064Y54051D01*
D02*
G37*
G36*
X18765Y59664D02*
X17976D01*
X17246Y59362D01*
X16688Y58804D01*
X16386Y58075D01*
Y57285D01*
X16565Y56853D01*
X16534Y56807D01*
X15805Y56505D01*
X15247Y55947D01*
X14945Y55217D01*
Y54428D01*
X15207Y53796D01*
X15111Y53378D01*
X14824Y53259D01*
X14266Y52701D01*
X13964Y51971D01*
Y51182D01*
X14266Y50453D01*
X14824Y49894D01*
X15553Y49592D01*
X16342D01*
X17072Y49894D01*
X17630Y50453D01*
X17932Y51182D01*
Y51971D01*
X17670Y52603D01*
X17766Y53022D01*
X18053Y53141D01*
X18611Y53699D01*
X18913Y54428D01*
Y55217D01*
X18734Y55650D01*
X18765Y55696D01*
X19494Y55998D01*
X20052Y56556D01*
X20354Y57285D01*
Y58075D01*
X20052Y58804D01*
X19494Y59362D01*
X18765Y59664D01*
D02*
G37*
G36*
X9351Y52181D02*
X8562D01*
X7833Y51879D01*
X7275Y51321D01*
X6972Y50591D01*
Y49802D01*
X7275Y49073D01*
X7833Y48515D01*
X8562Y48213D01*
X9351D01*
X10081Y48515D01*
X10639Y49073D01*
X10941Y49802D01*
Y50591D01*
X10639Y51321D01*
X10081Y51879D01*
X9351Y52181D01*
D02*
G37*
G36*
X80710Y49720D02*
X79920D01*
X79191Y49418D01*
X78633Y48860D01*
X78331Y48131D01*
Y47341D01*
X78633Y46612D01*
X79191Y46054D01*
X79920Y45752D01*
X80710D01*
X81439Y46054D01*
X81997Y46612D01*
X82299Y47341D01*
Y48131D01*
X81997Y48860D01*
X81439Y49418D01*
X80710Y49720D01*
D02*
G37*
G36*
X76379D02*
X75590D01*
X74860Y49418D01*
X74302Y48860D01*
X74000Y48131D01*
Y47341D01*
X74302Y46612D01*
X74860Y46054D01*
X75590Y45752D01*
X76379D01*
X77108Y46054D01*
X77666Y46612D01*
X77969Y47341D01*
Y48131D01*
X77666Y48860D01*
X77108Y49418D01*
X76379Y49720D01*
D02*
G37*
G36*
X72048D02*
X71259D01*
X70530Y49418D01*
X69971Y48860D01*
X69669Y48131D01*
Y47341D01*
X69971Y46612D01*
X70530Y46054D01*
X71259Y45752D01*
X72048D01*
X72777Y46054D01*
X73336Y46612D01*
X73638Y47341D01*
Y48131D01*
X73336Y48860D01*
X72777Y49418D01*
X72048Y49720D01*
D02*
G37*
G36*
X67717D02*
X66928D01*
X66199Y49418D01*
X65641Y48860D01*
X65339Y48131D01*
Y47341D01*
X65641Y46612D01*
X66199Y46054D01*
X66928Y45752D01*
X67717D01*
X68447Y46054D01*
X69005Y46612D01*
X69307Y47341D01*
Y48131D01*
X69005Y48860D01*
X68447Y49418D01*
X67717Y49720D01*
D02*
G37*
G36*
X63387D02*
X62597D01*
X61868Y49418D01*
X61310Y48860D01*
X61008Y48131D01*
Y47341D01*
X61310Y46612D01*
X61868Y46054D01*
X62597Y45752D01*
X63387D01*
X64116Y46054D01*
X64674Y46612D01*
X64976Y47341D01*
Y48131D01*
X64674Y48860D01*
X64116Y49418D01*
X63387Y49720D01*
D02*
G37*
G36*
X59056D02*
X58267D01*
X57537Y49418D01*
X56979Y48860D01*
X56677Y48131D01*
Y47341D01*
X56979Y46612D01*
X57537Y46054D01*
X58267Y45752D01*
X59056D01*
X59785Y46054D01*
X60344Y46612D01*
X60646Y47341D01*
Y48131D01*
X60344Y48860D01*
X59785Y49418D01*
X59056Y49720D01*
D02*
G37*
G36*
X54725D02*
X53936D01*
X53207Y49418D01*
X52649Y48860D01*
X52346Y48131D01*
Y47341D01*
X52649Y46612D01*
X53207Y46054D01*
X53936Y45752D01*
X54725D01*
X55455Y46054D01*
X56013Y46612D01*
X56315Y47341D01*
Y48131D01*
X56013Y48860D01*
X55455Y49418D01*
X54725Y49720D01*
D02*
G37*
G36*
X50395D02*
X49605D01*
X48876Y49418D01*
X48318Y48860D01*
X48016Y48131D01*
Y47341D01*
X48318Y46612D01*
X48876Y46054D01*
X49605Y45752D01*
X50395D01*
X51124Y46054D01*
X51682Y46612D01*
X51984Y47341D01*
Y48131D01*
X51682Y48860D01*
X51124Y49418D01*
X50395Y49720D01*
D02*
G37*
G36*
X46064D02*
X45275D01*
X44545Y49418D01*
X43987Y48860D01*
X43685Y48131D01*
Y47341D01*
X43987Y46612D01*
X44545Y46054D01*
X45275Y45752D01*
X46064D01*
X46793Y46054D01*
X47351Y46612D01*
X47653Y47341D01*
Y48131D01*
X47351Y48860D01*
X46793Y49418D01*
X46064Y49720D01*
D02*
G37*
G36*
X118210Y49524D02*
X117420D01*
X116691Y49222D01*
X116133Y48663D01*
X115831Y47934D01*
Y47145D01*
X116133Y46415D01*
X116691Y45857D01*
X117420Y45555D01*
X118210D01*
X118939Y45857D01*
X119497Y46415D01*
X119799Y47145D01*
Y47934D01*
X119497Y48663D01*
X118939Y49222D01*
X118210Y49524D01*
D02*
G37*
G36*
X105392Y46901D02*
X104602D01*
X103873Y46599D01*
X103315Y46041D01*
X103013Y45312D01*
Y44522D01*
X103315Y43793D01*
X103873Y43235D01*
X104602Y42933D01*
X105392D01*
X106121Y43235D01*
X106679Y43793D01*
X106981Y44522D01*
Y45312D01*
X106679Y46041D01*
X106121Y46599D01*
X105392Y46901D01*
D02*
G37*
G36*
X80710Y45390D02*
X79920D01*
X79191Y45088D01*
X78633Y44530D01*
X78331Y43800D01*
Y43011D01*
X78633Y42281D01*
X79191Y41723D01*
X79920Y41421D01*
X80710D01*
X81439Y41723D01*
X81997Y42281D01*
X82299Y43011D01*
Y43800D01*
X81997Y44530D01*
X81439Y45088D01*
X80710Y45390D01*
D02*
G37*
G36*
X76379D02*
X75590D01*
X74860Y45088D01*
X74302Y44530D01*
X74000Y43800D01*
Y43011D01*
X74302Y42281D01*
X74860Y41723D01*
X75590Y41421D01*
X76379D01*
X77108Y41723D01*
X77666Y42281D01*
X77969Y43011D01*
Y43800D01*
X77666Y44530D01*
X77108Y45088D01*
X76379Y45390D01*
D02*
G37*
G36*
X72048D02*
X71259D01*
X70530Y45088D01*
X69971Y44530D01*
X69669Y43800D01*
Y43011D01*
X69971Y42281D01*
X70530Y41723D01*
X71259Y41421D01*
X72048D01*
X72777Y41723D01*
X73336Y42281D01*
X73638Y43011D01*
Y43800D01*
X73336Y44530D01*
X72777Y45088D01*
X72048Y45390D01*
D02*
G37*
G36*
X67717D02*
X66928D01*
X66199Y45088D01*
X65641Y44530D01*
X65339Y43800D01*
Y43011D01*
X65641Y42281D01*
X66199Y41723D01*
X66928Y41421D01*
X67717D01*
X68447Y41723D01*
X69005Y42281D01*
X69307Y43011D01*
Y43800D01*
X69005Y44530D01*
X68447Y45088D01*
X67717Y45390D01*
D02*
G37*
G36*
X63387D02*
X62597D01*
X61868Y45088D01*
X61310Y44530D01*
X61008Y43800D01*
Y43011D01*
X61310Y42281D01*
X61868Y41723D01*
X62597Y41421D01*
X63387D01*
X64116Y41723D01*
X64674Y42281D01*
X64976Y43011D01*
Y43800D01*
X64674Y44530D01*
X64116Y45088D01*
X63387Y45390D01*
D02*
G37*
G36*
X59056D02*
X58267D01*
X57537Y45088D01*
X56979Y44530D01*
X56677Y43800D01*
Y43011D01*
X56979Y42281D01*
X57537Y41723D01*
X58267Y41421D01*
X59056D01*
X59785Y41723D01*
X60344Y42281D01*
X60646Y43011D01*
Y43800D01*
X60344Y44530D01*
X59785Y45088D01*
X59056Y45390D01*
D02*
G37*
G36*
X54725D02*
X53936D01*
X53207Y45088D01*
X52649Y44530D01*
X52346Y43800D01*
Y43011D01*
X52649Y42281D01*
X53207Y41723D01*
X53936Y41421D01*
X54725D01*
X55455Y41723D01*
X56013Y42281D01*
X56315Y43011D01*
Y43800D01*
X56013Y44530D01*
X55455Y45088D01*
X54725Y45390D01*
D02*
G37*
G36*
X50395D02*
X49605D01*
X48876Y45088D01*
X48318Y44530D01*
X48016Y43800D01*
Y43011D01*
X48318Y42281D01*
X48876Y41723D01*
X49605Y41421D01*
X50395D01*
X51124Y41723D01*
X51682Y42281D01*
X51984Y43011D01*
Y43800D01*
X51682Y44530D01*
X51124Y45088D01*
X50395Y45390D01*
D02*
G37*
G36*
X46064D02*
X45275D01*
X44545Y45088D01*
X43987Y44530D01*
X43685Y43800D01*
Y43011D01*
X43987Y42281D01*
X44545Y41723D01*
X45275Y41421D01*
X46064D01*
X46793Y41723D01*
X47351Y42281D01*
X47653Y43011D01*
Y43800D01*
X47351Y44530D01*
X46793Y45088D01*
X46064Y45390D01*
D02*
G37*
G36*
X110040Y49819D02*
X109251D01*
X108522Y49517D01*
X107964Y48959D01*
X107661Y48229D01*
Y47440D01*
X107964Y46711D01*
X108522Y46152D01*
X108728Y46067D01*
Y45717D01*
X108703Y45707D01*
X108145Y45149D01*
X107843Y44419D01*
Y43630D01*
X108023Y43195D01*
X107789Y42845D01*
X107381D01*
X106652Y42543D01*
X106093Y41985D01*
X105791Y41255D01*
Y41104D01*
X105441Y40959D01*
X105225Y41176D01*
X104496Y41478D01*
X103706D01*
X102977Y41176D01*
X102419Y40618D01*
X102117Y39888D01*
Y39099D01*
X102419Y38370D01*
X102977Y37811D01*
X103706Y37510D01*
X104496D01*
X105225Y37811D01*
X105783Y38370D01*
X106085Y39099D01*
Y39250D01*
X106435Y39395D01*
X106652Y39178D01*
X107273Y38921D01*
X107377Y38620D01*
X107376Y38528D01*
X107118Y38271D01*
X106816Y37542D01*
Y36752D01*
X107118Y36023D01*
X107677Y35465D01*
X108406Y35163D01*
X109195D01*
X109924Y35465D01*
X110483Y36023D01*
X110785Y36752D01*
Y37542D01*
X110483Y38271D01*
X109924Y38829D01*
X109303Y39087D01*
X109199Y39388D01*
X109200Y39479D01*
X109458Y39737D01*
X109760Y40466D01*
Y41255D01*
X109580Y41690D01*
X109813Y42040D01*
X110222D01*
X110951Y42342D01*
X111509Y42901D01*
X111811Y43630D01*
Y44419D01*
X111509Y45149D01*
X110951Y45707D01*
X110745Y45792D01*
Y46142D01*
X110770Y46152D01*
X111328Y46711D01*
X111630Y47440D01*
Y48229D01*
X111328Y48959D01*
X110770Y49517D01*
X110040Y49819D01*
D02*
G37*
G36*
X117989Y44157D02*
X117200D01*
X116471Y43854D01*
X115912Y43296D01*
X115610Y42567D01*
Y41778D01*
X115912Y41048D01*
X116471Y40490D01*
X117200Y40188D01*
X117989D01*
X118719Y40490D01*
X119277Y41048D01*
X119579Y41778D01*
Y42567D01*
X119277Y43296D01*
X118719Y43854D01*
X117989Y44157D01*
D02*
G37*
G36*
X91817Y43504D02*
X91027D01*
X90298Y43202D01*
X89740Y42644D01*
X89438Y41915D01*
Y41126D01*
X89740Y40396D01*
X90298Y39838D01*
X91027Y39536D01*
X91817D01*
X92546Y39838D01*
X92842Y40134D01*
X93275Y40072D01*
X93735Y39612D01*
X94465Y39309D01*
X95254D01*
X95983Y39612D01*
X96542Y40170D01*
X96844Y40899D01*
Y41688D01*
X96542Y42418D01*
X95983Y42976D01*
X95254Y43278D01*
X94465D01*
X93735Y42976D01*
X93439Y42680D01*
X93048Y42700D01*
X92546Y43202D01*
X91817Y43504D01*
D02*
G37*
G36*
X9548Y46276D02*
X8759D01*
X8030Y45974D01*
X7471Y45415D01*
X7169Y44686D01*
Y43897D01*
X7471Y43167D01*
X8030Y42609D01*
X8214Y42533D01*
Y42154D01*
X7931Y42037D01*
X7373Y41478D01*
X7071Y40749D01*
Y39960D01*
X7373Y39230D01*
X7931Y38672D01*
X8660Y38370D01*
X9450D01*
X10179Y38672D01*
X10737Y39230D01*
X11039Y39960D01*
Y40749D01*
X10737Y41478D01*
X10179Y42037D01*
X9994Y42113D01*
Y42492D01*
X10278Y42609D01*
X10836Y43167D01*
X11138Y43897D01*
Y44686D01*
X10836Y45415D01*
X10278Y45974D01*
X9548Y46276D01*
D02*
G37*
G36*
X80710Y41059D02*
X79920D01*
X79191Y40757D01*
X78633Y40199D01*
X78331Y39470D01*
Y38680D01*
X78633Y37951D01*
X79191Y37393D01*
X79920Y37091D01*
X80710D01*
X81439Y37393D01*
X81997Y37951D01*
X82299Y38680D01*
Y39470D01*
X81997Y40199D01*
X81439Y40757D01*
X80710Y41059D01*
D02*
G37*
G36*
X76379D02*
X75590D01*
X74860Y40757D01*
X74302Y40199D01*
X74000Y39470D01*
Y38680D01*
X74302Y37951D01*
X74860Y37393D01*
X75590Y37091D01*
X76379D01*
X77108Y37393D01*
X77666Y37951D01*
X77969Y38680D01*
Y39470D01*
X77666Y40199D01*
X77108Y40757D01*
X76379Y41059D01*
D02*
G37*
G36*
X72048D02*
X71259D01*
X70530Y40757D01*
X69971Y40199D01*
X69669Y39470D01*
Y38680D01*
X69971Y37951D01*
X70530Y37393D01*
X71259Y37091D01*
X72048D01*
X72777Y37393D01*
X73336Y37951D01*
X73638Y38680D01*
Y39470D01*
X73336Y40199D01*
X72777Y40757D01*
X72048Y41059D01*
D02*
G37*
G36*
X67717D02*
X66928D01*
X66199Y40757D01*
X65641Y40199D01*
X65339Y39470D01*
Y38680D01*
X65641Y37951D01*
X66199Y37393D01*
X66928Y37091D01*
X67717D01*
X68447Y37393D01*
X69005Y37951D01*
X69307Y38680D01*
Y39470D01*
X69005Y40199D01*
X68447Y40757D01*
X67717Y41059D01*
D02*
G37*
G36*
X63387D02*
X62597D01*
X61868Y40757D01*
X61310Y40199D01*
X61008Y39470D01*
Y38680D01*
X61310Y37951D01*
X61868Y37393D01*
X62597Y37091D01*
X63387D01*
X64116Y37393D01*
X64674Y37951D01*
X64976Y38680D01*
Y39470D01*
X64674Y40199D01*
X64116Y40757D01*
X63387Y41059D01*
D02*
G37*
G36*
X59056D02*
X58267D01*
X57537Y40757D01*
X56979Y40199D01*
X56677Y39470D01*
Y38680D01*
X56979Y37951D01*
X57537Y37393D01*
X58267Y37091D01*
X59056D01*
X59785Y37393D01*
X60344Y37951D01*
X60646Y38680D01*
Y39470D01*
X60344Y40199D01*
X59785Y40757D01*
X59056Y41059D01*
D02*
G37*
G36*
X54725D02*
X53936D01*
X53207Y40757D01*
X52649Y40199D01*
X52346Y39470D01*
Y38680D01*
X52649Y37951D01*
X53207Y37393D01*
X53936Y37091D01*
X54725D01*
X55455Y37393D01*
X56013Y37951D01*
X56315Y38680D01*
Y39470D01*
X56013Y40199D01*
X55455Y40757D01*
X54725Y41059D01*
D02*
G37*
G36*
X50395D02*
X49605D01*
X48876Y40757D01*
X48318Y40199D01*
X48016Y39470D01*
Y38680D01*
X48318Y37951D01*
X48876Y37393D01*
X49605Y37091D01*
X50395D01*
X51124Y37393D01*
X51682Y37951D01*
X51984Y38680D01*
Y39470D01*
X51682Y40199D01*
X51124Y40757D01*
X50395Y41059D01*
D02*
G37*
G36*
X46064D02*
X45275D01*
X44545Y40757D01*
X43987Y40199D01*
X43685Y39470D01*
Y38680D01*
X43987Y37951D01*
X44545Y37393D01*
X45275Y37091D01*
X46064D01*
X46793Y37393D01*
X47351Y37951D01*
X47653Y38680D01*
Y39470D01*
X47351Y40199D01*
X46793Y40757D01*
X46064Y41059D01*
D02*
G37*
G36*
X22199Y48462D02*
X21409D01*
X20680Y48160D01*
X20122Y47602D01*
X19820Y46873D01*
Y46084D01*
X20122Y45354D01*
X20680Y44796D01*
X20742Y44391D01*
X20446Y44095D01*
X20144Y43366D01*
Y42576D01*
X20446Y41847D01*
X21004Y41289D01*
X21030Y41162D01*
X20559Y40691D01*
X20257Y39962D01*
Y39172D01*
X20559Y38443D01*
X21117Y37885D01*
X21164Y37651D01*
X20878Y37365D01*
X20576Y36636D01*
Y35846D01*
X20878Y35117D01*
X21436Y34559D01*
X22165Y34257D01*
X22955D01*
X23684Y34559D01*
X24242Y35117D01*
X24544Y35846D01*
Y36636D01*
X24242Y37365D01*
X23684Y37923D01*
X23638Y38157D01*
X23923Y38443D01*
X24225Y39172D01*
Y39962D01*
X23923Y40691D01*
X23365Y41249D01*
X23340Y41376D01*
X23810Y41847D01*
X24113Y42576D01*
Y43366D01*
X23810Y44095D01*
X23252Y44653D01*
X23190Y45058D01*
X23486Y45354D01*
X23788Y46084D01*
Y46873D01*
X23486Y47602D01*
X22928Y48160D01*
X22199Y48462D01*
D02*
G37*
G36*
X17559Y41097D02*
X16769D01*
X16040Y40795D01*
X15482Y40237D01*
X15180Y39507D01*
Y38718D01*
X15482Y37989D01*
X15999Y37471D01*
X16040Y37419D01*
X16038Y37053D01*
X15641Y36656D01*
X15339Y35926D01*
Y35137D01*
X15641Y34407D01*
X16199Y33849D01*
X16928Y33547D01*
X17718D01*
X18447Y33849D01*
X19005Y34407D01*
X19307Y35137D01*
Y35926D01*
X19005Y36656D01*
X18488Y37173D01*
X18447Y37225D01*
X18449Y37592D01*
X18846Y37989D01*
X19148Y38718D01*
Y39507D01*
X18846Y40237D01*
X18288Y40795D01*
X17559Y41097D01*
D02*
G37*
G36*
X80710Y36728D02*
X79920D01*
X79191Y36426D01*
X78633Y35868D01*
X78331Y35139D01*
Y34349D01*
X78633Y33620D01*
X79191Y33062D01*
X79920Y32760D01*
X80710D01*
X81439Y33062D01*
X81997Y33620D01*
X82299Y34349D01*
Y35139D01*
X81997Y35868D01*
X81439Y36426D01*
X80710Y36728D01*
D02*
G37*
G36*
X76379D02*
X75590D01*
X74860Y36426D01*
X74302Y35868D01*
X74000Y35139D01*
Y34349D01*
X74302Y33620D01*
X74860Y33062D01*
X75590Y32760D01*
X76379D01*
X77108Y33062D01*
X77666Y33620D01*
X77969Y34349D01*
Y35139D01*
X77666Y35868D01*
X77108Y36426D01*
X76379Y36728D01*
D02*
G37*
G36*
X72048D02*
X71259D01*
X70530Y36426D01*
X69971Y35868D01*
X69669Y35139D01*
Y34349D01*
X69971Y33620D01*
X70530Y33062D01*
X71259Y32760D01*
X72048D01*
X72777Y33062D01*
X73336Y33620D01*
X73638Y34349D01*
Y35139D01*
X73336Y35868D01*
X72777Y36426D01*
X72048Y36728D01*
D02*
G37*
G36*
X67717D02*
X66928D01*
X66199Y36426D01*
X65641Y35868D01*
X65339Y35139D01*
Y34349D01*
X65641Y33620D01*
X66199Y33062D01*
X66928Y32760D01*
X67717D01*
X68447Y33062D01*
X69005Y33620D01*
X69307Y34349D01*
Y35139D01*
X69005Y35868D01*
X68447Y36426D01*
X67717Y36728D01*
D02*
G37*
G36*
X63387D02*
X62597D01*
X61868Y36426D01*
X61310Y35868D01*
X61008Y35139D01*
Y34349D01*
X61310Y33620D01*
X61868Y33062D01*
X62597Y32760D01*
X63387D01*
X64116Y33062D01*
X64674Y33620D01*
X64976Y34349D01*
Y35139D01*
X64674Y35868D01*
X64116Y36426D01*
X63387Y36728D01*
D02*
G37*
G36*
X59056D02*
X58267D01*
X57537Y36426D01*
X56979Y35868D01*
X56677Y35139D01*
Y34349D01*
X56979Y33620D01*
X57537Y33062D01*
X58267Y32760D01*
X59056D01*
X59785Y33062D01*
X60344Y33620D01*
X60646Y34349D01*
Y35139D01*
X60344Y35868D01*
X59785Y36426D01*
X59056Y36728D01*
D02*
G37*
G36*
X54725D02*
X53936D01*
X53207Y36426D01*
X52649Y35868D01*
X52346Y35139D01*
Y34349D01*
X52649Y33620D01*
X53207Y33062D01*
X53936Y32760D01*
X54725D01*
X55455Y33062D01*
X56013Y33620D01*
X56315Y34349D01*
Y35139D01*
X56013Y35868D01*
X55455Y36426D01*
X54725Y36728D01*
D02*
G37*
G36*
X50395D02*
X49605D01*
X48876Y36426D01*
X48318Y35868D01*
X48016Y35139D01*
Y34349D01*
X48318Y33620D01*
X48876Y33062D01*
X49605Y32760D01*
X50395D01*
X51124Y33062D01*
X51682Y33620D01*
X51984Y34349D01*
Y35139D01*
X51682Y35868D01*
X51124Y36426D01*
X50395Y36728D01*
D02*
G37*
G36*
X46064D02*
X45275D01*
X44545Y36426D01*
X43987Y35868D01*
X43685Y35139D01*
Y34349D01*
X43987Y33620D01*
X44545Y33062D01*
X45275Y32760D01*
X46064D01*
X46793Y33062D01*
X47351Y33620D01*
X47653Y34349D01*
Y35139D01*
X47351Y35868D01*
X46793Y36426D01*
X46064Y36728D01*
D02*
G37*
G36*
X9548Y35547D02*
X8759D01*
X8030Y35245D01*
X7471Y34687D01*
X7169Y33958D01*
Y33168D01*
X7471Y32439D01*
X8030Y31881D01*
X8759Y31579D01*
X9548D01*
X10278Y31881D01*
X10836Y32439D01*
X11138Y33168D01*
Y33958D01*
X10836Y34687D01*
X10278Y35245D01*
X9548Y35547D01*
D02*
G37*
G36*
X30707Y35466D02*
X29917D01*
X29188Y35164D01*
X28630Y34606D01*
X28328Y33877D01*
Y33087D01*
X28630Y32358D01*
X29188Y31800D01*
X29917Y31498D01*
X30707D01*
X31436Y31800D01*
X31994Y32358D01*
X32296Y33087D01*
Y33877D01*
X31994Y34606D01*
X31436Y35164D01*
X30707Y35466D01*
D02*
G37*
G36*
X35431Y34465D02*
X34642D01*
X33912Y34163D01*
X33354Y33604D01*
X33052Y32875D01*
Y32086D01*
X33354Y31356D01*
X33912Y30798D01*
X34642Y30496D01*
X35431D01*
X36160Y30798D01*
X36719Y31356D01*
X37021Y32086D01*
Y32875D01*
X36719Y33604D01*
X36160Y34163D01*
X35431Y34465D01*
D02*
G37*
G36*
X80710Y32398D02*
X79920D01*
X79191Y32096D01*
X78633Y31537D01*
X78331Y30808D01*
Y30019D01*
X78633Y29289D01*
X79191Y28731D01*
X79920Y28429D01*
X80710D01*
X81439Y28731D01*
X81997Y29289D01*
X82299Y30019D01*
Y30808D01*
X81997Y31537D01*
X81439Y32096D01*
X80710Y32398D01*
D02*
G37*
G36*
X76379D02*
X75590D01*
X74860Y32096D01*
X74302Y31537D01*
X74000Y30808D01*
Y30019D01*
X74302Y29289D01*
X74860Y28731D01*
X75590Y28429D01*
X76379D01*
X77108Y28731D01*
X77666Y29289D01*
X77969Y30019D01*
Y30808D01*
X77666Y31537D01*
X77108Y32096D01*
X76379Y32398D01*
D02*
G37*
G36*
X72048D02*
X71259D01*
X70530Y32096D01*
X69971Y31537D01*
X69669Y30808D01*
Y30019D01*
X69971Y29289D01*
X70530Y28731D01*
X71259Y28429D01*
X72048D01*
X72777Y28731D01*
X73336Y29289D01*
X73638Y30019D01*
Y30808D01*
X73336Y31537D01*
X72777Y32096D01*
X72048Y32398D01*
D02*
G37*
G36*
X67717D02*
X66928D01*
X66199Y32096D01*
X65641Y31537D01*
X65339Y30808D01*
Y30019D01*
X65641Y29289D01*
X66199Y28731D01*
X66928Y28429D01*
X67717D01*
X68447Y28731D01*
X69005Y29289D01*
X69307Y30019D01*
Y30808D01*
X69005Y31537D01*
X68447Y32096D01*
X67717Y32398D01*
D02*
G37*
G36*
X63387D02*
X62597D01*
X61868Y32096D01*
X61310Y31537D01*
X61008Y30808D01*
Y30019D01*
X61310Y29289D01*
X61868Y28731D01*
X62597Y28429D01*
X63387D01*
X64116Y28731D01*
X64674Y29289D01*
X64976Y30019D01*
Y30808D01*
X64674Y31537D01*
X64116Y32096D01*
X63387Y32398D01*
D02*
G37*
G36*
X59056D02*
X58267D01*
X57537Y32096D01*
X56979Y31537D01*
X56677Y30808D01*
Y30019D01*
X56979Y29289D01*
X57537Y28731D01*
X58267Y28429D01*
X59056D01*
X59785Y28731D01*
X60344Y29289D01*
X60646Y30019D01*
Y30808D01*
X60344Y31537D01*
X59785Y32096D01*
X59056Y32398D01*
D02*
G37*
G36*
X54725D02*
X53936D01*
X53207Y32096D01*
X52649Y31537D01*
X52346Y30808D01*
Y30019D01*
X52649Y29289D01*
X53207Y28731D01*
X53936Y28429D01*
X54725D01*
X55455Y28731D01*
X56013Y29289D01*
X56315Y30019D01*
Y30808D01*
X56013Y31537D01*
X55455Y32096D01*
X54725Y32398D01*
D02*
G37*
G36*
X50395D02*
X49605D01*
X48876Y32096D01*
X48318Y31537D01*
X48016Y30808D01*
Y30019D01*
X48318Y29289D01*
X48876Y28731D01*
X49605Y28429D01*
X50395D01*
X51124Y28731D01*
X51682Y29289D01*
X51984Y30019D01*
Y30808D01*
X51682Y31537D01*
X51124Y32096D01*
X50395Y32398D01*
D02*
G37*
G36*
X46064D02*
X45275D01*
X44545Y32096D01*
X43987Y31537D01*
X43685Y30808D01*
Y30019D01*
X43987Y29289D01*
X44545Y28731D01*
X45275Y28429D01*
X46064D01*
X46793Y28731D01*
X47351Y29289D01*
X47653Y30019D01*
Y30808D01*
X47351Y31537D01*
X46793Y32096D01*
X46064Y32398D01*
D02*
G37*
G36*
X104477Y31438D02*
X103687D01*
X102958Y31136D01*
X102400Y30578D01*
X102098Y29848D01*
Y29059D01*
X102400Y28330D01*
X102958Y27772D01*
X103687Y27470D01*
X104477D01*
X105206Y27772D01*
X105764Y28330D01*
X106066Y29059D01*
Y29848D01*
X105764Y30578D01*
X105206Y31136D01*
X104477Y31438D01*
D02*
G37*
G36*
X92127Y36630D02*
X91338D01*
X90608Y36328D01*
X90050Y35770D01*
X89748Y35040D01*
Y34251D01*
X90050Y33522D01*
X90608Y32963D01*
X90638Y32814D01*
X90444Y32620D01*
X90142Y31891D01*
Y31101D01*
X90306Y30705D01*
X90061Y30428D01*
X89272D01*
X88543Y30126D01*
X87985Y29567D01*
X87682Y28838D01*
Y28049D01*
X87985Y27319D01*
X88543Y26761D01*
X89272Y26459D01*
X90061D01*
X90791Y26761D01*
X91349Y27319D01*
X91651Y28049D01*
Y28838D01*
X91487Y29234D01*
X91731Y29512D01*
X92521D01*
X93250Y29814D01*
X93808Y30372D01*
X94110Y31101D01*
Y31891D01*
X93808Y32620D01*
X93250Y33178D01*
X93220Y33327D01*
X93414Y33522D01*
X93717Y34251D01*
Y35040D01*
X93414Y35770D01*
X92856Y36328D01*
X92127Y36630D01*
D02*
G37*
G36*
X97239Y26762D02*
X96450D01*
X95720Y26460D01*
X95162Y25902D01*
X94959Y25412D01*
X94851Y25174D01*
X94537Y25237D01*
X94095Y25419D01*
X93306D01*
X92577Y25117D01*
X92019Y24559D01*
X91716Y23830D01*
Y23041D01*
X91866Y22680D01*
X91598Y22412D01*
X91238Y22562D01*
X90448D01*
X89719Y22260D01*
X89161Y21701D01*
X88859Y20972D01*
Y20183D01*
X89161Y19453D01*
X89719Y18895D01*
X90448Y18593D01*
X91238D01*
X91967Y18895D01*
X92525Y19453D01*
X92827Y20183D01*
Y20972D01*
X92678Y21332D01*
X92946Y21600D01*
X93306Y21451D01*
X94095D01*
X94825Y21753D01*
X95383Y22311D01*
X95586Y22802D01*
X95694Y23039D01*
X96008Y22976D01*
X96450Y22794D01*
X97239D01*
X97969Y23096D01*
X98527Y23654D01*
X98829Y24383D01*
Y25173D01*
X98527Y25902D01*
X97969Y26460D01*
X97239Y26762D01*
D02*
G37*
G36*
X31657Y25508D02*
X30867D01*
X30138Y25206D01*
X29580Y24648D01*
X29278Y23918D01*
Y23129D01*
X29580Y22400D01*
X30138Y21842D01*
X30867Y21539D01*
X31657D01*
X32386Y21842D01*
X32944Y22400D01*
X33246Y23129D01*
Y23918D01*
X32944Y24648D01*
X32386Y25206D01*
X31657Y25508D01*
D02*
G37*
G36*
X23307Y25024D02*
X22518D01*
X21788Y24722D01*
X21230Y24164D01*
X20928Y23434D01*
Y22645D01*
X21230Y21916D01*
X21788Y21358D01*
X22518Y21056D01*
X23307D01*
X24036Y21358D01*
X24595Y21916D01*
X24897Y22645D01*
Y23434D01*
X24595Y24164D01*
X24036Y24722D01*
X23307Y25024D01*
D02*
G37*
G36*
X49148Y18050D02*
X48358D01*
X47629Y17748D01*
X47071Y17190D01*
X46769Y16461D01*
Y15671D01*
X47071Y14942D01*
X47629Y14384D01*
X48358Y14082D01*
X49148D01*
X49877Y14384D01*
X50435Y14942D01*
X50737Y15671D01*
Y16461D01*
X50435Y17190D01*
X49877Y17748D01*
X49148Y18050D01*
D02*
G37*
G36*
X87550Y15785D02*
X86760D01*
X86031Y15483D01*
X85473Y14925D01*
X85171Y14195D01*
Y13406D01*
X85473Y12677D01*
X86031Y12118D01*
X86760Y11816D01*
X87550D01*
X88279Y12118D01*
X88837Y12677D01*
X89139Y13406D01*
Y14195D01*
X88837Y14925D01*
X88279Y15483D01*
X87550Y15785D01*
D02*
G37*
G36*
X18111Y14583D02*
X17322D01*
X16592Y14281D01*
X16034Y13722D01*
X15732Y12993D01*
Y12204D01*
X15941Y11700D01*
X15793Y11523D01*
X15670Y11439D01*
X14958Y11630D01*
X14176D01*
X13906Y11558D01*
X13649Y11851D01*
X13795Y12204D01*
Y12993D01*
X13493Y13722D01*
X12935Y14281D01*
X12206Y14583D01*
X11416D01*
X10687Y14281D01*
X10129Y13722D01*
X9827Y12993D01*
Y12204D01*
X10129Y11474D01*
X10687Y10916D01*
X11416Y10614D01*
X11863D01*
X12065Y10264D01*
X11801Y9807D01*
X11598Y9052D01*
Y8271D01*
X11801Y7516D01*
X12191Y6839D01*
X12744Y6286D01*
X13421Y5895D01*
X14176Y5693D01*
X14958D01*
X15713Y5895D01*
X16390Y6286D01*
X16942Y6839D01*
X17333Y7516D01*
X17535Y8271D01*
Y9052D01*
X17333Y9807D01*
X17012Y10364D01*
X17255Y10642D01*
X17322Y10614D01*
X18111D01*
X18841Y10916D01*
X19399Y11474D01*
X19701Y12204D01*
Y12993D01*
X19399Y13722D01*
X18841Y14281D01*
X18111Y14583D01*
D02*
G37*
G36*
X31497Y20291D02*
X30708D01*
X29978Y19989D01*
X29420Y19431D01*
X29118Y18702D01*
Y17912D01*
X29420Y17183D01*
X29978Y16625D01*
X30708Y16323D01*
X31183D01*
X31417Y15973D01*
X31284Y15651D01*
Y14861D01*
X31586Y14132D01*
X32144Y13574D01*
X32873Y13272D01*
X33662D01*
X33666Y13273D01*
X33941Y13008D01*
Y12302D01*
X34243Y11573D01*
X34801Y11015D01*
X35530Y10713D01*
X36320D01*
X37049Y11015D01*
X37607Y11573D01*
X37909Y12302D01*
Y13092D01*
X37607Y13821D01*
X37049Y14379D01*
X36320Y14681D01*
X35530D01*
X35527Y14680D01*
X35252Y14945D01*
Y15651D01*
X34950Y16380D01*
X34392Y16938D01*
X33662Y17240D01*
X33187D01*
X32953Y17590D01*
X33087Y17912D01*
Y18702D01*
X32785Y19431D01*
X32226Y19989D01*
X31497Y20291D01*
D02*
G37*
G36*
X104135Y13500D02*
X103346D01*
X102616Y13198D01*
X102058Y12640D01*
X101756Y11910D01*
Y11121D01*
X102058Y10392D01*
X102616Y9834D01*
X103346Y9532D01*
X104135D01*
X104864Y9834D01*
X105422Y10392D01*
X105724Y11121D01*
Y11910D01*
X105422Y12640D01*
X104864Y13198D01*
X104135Y13500D01*
D02*
G37*
G36*
X40946Y14583D02*
X40156D01*
X39427Y14281D01*
X38869Y13722D01*
X38567Y12993D01*
Y12204D01*
X38869Y11474D01*
X39427Y10916D01*
X40156Y10614D01*
X40946D01*
X41675Y10916D01*
X42233Y11474D01*
X42351Y11758D01*
X42701Y11688D01*
Y11318D01*
X43003Y10589D01*
X43561Y10030D01*
X44290Y9728D01*
X45080D01*
X45558Y9927D01*
X45677Y9858D01*
X45864Y9674D01*
Y8961D01*
X46166Y8232D01*
X46725Y7674D01*
X47454Y7372D01*
X48243D01*
X48972Y7674D01*
X49531Y8232D01*
X49543Y8263D01*
X49887Y8331D01*
X50158Y8059D01*
X50888Y7757D01*
X51677D01*
X52200Y7974D01*
X52616Y7812D01*
X52649Y7734D01*
X53207Y7176D01*
X53936Y6874D01*
X54725D01*
X55455Y7176D01*
X56013Y7734D01*
X56315Y8464D01*
Y8915D01*
X56665Y9149D01*
X56692Y9138D01*
X57481D01*
X58211Y9440D01*
X58492Y9722D01*
X58842Y9577D01*
Y9448D01*
X59145Y8719D01*
X59703Y8160D01*
X60432Y7858D01*
X61221D01*
X61504Y7975D01*
X61795Y7781D01*
Y7514D01*
X62097Y6785D01*
X62656Y6226D01*
X63385Y5924D01*
X64174D01*
X64903Y6226D01*
X65462Y6785D01*
X65764Y7514D01*
Y7843D01*
X66114Y8034D01*
X66699Y7792D01*
X67488D01*
X68218Y8094D01*
X68776Y8652D01*
X69078Y9381D01*
Y10171D01*
X68776Y10900D01*
X68218Y11458D01*
X67488Y11761D01*
X66699D01*
X65970Y11458D01*
X65412Y10900D01*
X65110Y10171D01*
Y9842D01*
X64760Y9650D01*
X64174Y9893D01*
X63385D01*
X63102Y9776D01*
X62811Y9970D01*
Y10237D01*
X62509Y10966D01*
X61951Y11525D01*
X61221Y11827D01*
X60432D01*
X59703Y11525D01*
X59421Y11243D01*
X59071Y11388D01*
Y11517D01*
X58769Y12246D01*
X58211Y12804D01*
X57481Y13106D01*
X56692D01*
X55963Y12804D01*
X55404Y12246D01*
X55102Y11517D01*
Y11065D01*
X54752Y10831D01*
X54725Y10842D01*
X53936D01*
X53207Y10540D01*
X53089Y10564D01*
X52965Y10865D01*
X52406Y11423D01*
X51677Y11725D01*
X50888D01*
X50158Y11423D01*
X49600Y10865D01*
X49588Y10835D01*
X49244Y10766D01*
X48972Y11038D01*
X48243Y11340D01*
X47454D01*
X46975Y11142D01*
X46856Y11211D01*
X46669Y11394D01*
Y12107D01*
X46367Y12837D01*
X45809Y13395D01*
X45080Y13697D01*
X44290D01*
X43561Y13395D01*
X43003Y12837D01*
X42885Y12553D01*
X42535Y12623D01*
Y12993D01*
X42233Y13722D01*
X41675Y14281D01*
X40946Y14583D01*
D02*
G37*
G36*
X109840Y12417D02*
X109058D01*
X108303Y12215D01*
X107626Y11824D01*
X107073Y11271D01*
X106683Y10595D01*
X106480Y9840D01*
Y9058D01*
X106683Y8303D01*
X107073Y7626D01*
X107626Y7073D01*
X108303Y6683D01*
X109058Y6480D01*
X109840D01*
X110595Y6683D01*
X111272Y7073D01*
X111824Y7626D01*
X112215Y8303D01*
X112417Y9058D01*
Y9840D01*
X112215Y10595D01*
X111824Y11271D01*
X111272Y11824D01*
X110595Y12215D01*
X109840Y12417D01*
D02*
G37*
%LPD*%
D29*
X104724Y45190D02*
X104997Y44917D01*
D33*
X109449Y9449D02*
D03*
X14567Y8661D02*
D03*
X86221Y86221D02*
D03*
D34*
X14961Y71653D02*
D03*
X32283Y70866D02*
D03*
X118110Y77953D02*
D03*
X11024Y85433D02*
D03*
X32283D02*
D03*
X35036Y32480D02*
D03*
X81486Y9325D02*
D03*
X85527Y8755D02*
D03*
X89764Y9449D02*
D03*
X87155Y13801D02*
D03*
X74602Y10042D02*
D03*
X96850Y13780D02*
D03*
X90843Y20577D02*
D03*
X91616Y37864D02*
D03*
X90748Y47733D02*
D03*
X91422Y41520D02*
D03*
X94859Y41294D02*
D03*
X92126Y31496D02*
D03*
X89667Y28443D02*
D03*
X93701Y23435D02*
D03*
X91732Y34646D02*
D03*
X103740Y11516D02*
D03*
X96845Y24778D02*
D03*
X109055Y52362D02*
D03*
X80315Y30413D02*
D03*
X75984D02*
D03*
X71653D02*
D03*
X67323D02*
D03*
X62992D02*
D03*
X58661D02*
D03*
X54331D02*
D03*
X50000D02*
D03*
X45669D02*
D03*
X80315Y34744D02*
D03*
X75984D02*
D03*
X71653D02*
D03*
X67323D02*
D03*
X62992D02*
D03*
X58661D02*
D03*
X54331D02*
D03*
X50000D02*
D03*
X45669D02*
D03*
X80315Y39075D02*
D03*
X75984D02*
D03*
X71653D02*
D03*
X67323D02*
D03*
X62992D02*
D03*
X58661D02*
D03*
X54331D02*
D03*
X50000D02*
D03*
X45669D02*
D03*
X80315Y43406D02*
D03*
X75984D02*
D03*
X71653D02*
D03*
X67323D02*
D03*
X62992D02*
D03*
X58661D02*
D03*
X54331D02*
D03*
X50000D02*
D03*
X45669D02*
D03*
X80315Y47736D02*
D03*
X75984D02*
D03*
X71653D02*
D03*
X67323D02*
D03*
X62992D02*
D03*
X58661D02*
D03*
X54331D02*
D03*
X50000D02*
D03*
X45669D02*
D03*
X80315Y52067D02*
D03*
X75984D02*
D03*
X71653D02*
D03*
X67323D02*
D03*
X62992D02*
D03*
X58661D02*
D03*
X54331D02*
D03*
X50000D02*
D03*
X45669D02*
D03*
X80315Y56398D02*
D03*
X75984D02*
D03*
X71653D02*
D03*
X67323D02*
D03*
X62992D02*
D03*
X58661D02*
D03*
X54331D02*
D03*
X50000D02*
D03*
X45669D02*
D03*
X80315Y60728D02*
D03*
X75984D02*
D03*
X71653D02*
D03*
X67323D02*
D03*
X62992D02*
D03*
X58661D02*
D03*
X54331D02*
D03*
X50000D02*
D03*
X45669D02*
D03*
X80315Y65059D02*
D03*
X75984D02*
D03*
X71653D02*
D03*
X67323D02*
D03*
X62992D02*
D03*
X58661D02*
D03*
X54331D02*
D03*
X50000D02*
D03*
X45669D02*
D03*
X95374Y58071D02*
D03*
X104833Y53808D02*
D03*
X11811Y12598D02*
D03*
X17717D02*
D03*
X99606Y77953D02*
D03*
X113386D02*
D03*
X81496Y75984D02*
D03*
X75590D02*
D03*
X50886Y75590D02*
D03*
X18370Y57680D02*
D03*
X23107Y56496D02*
D03*
X44882Y75590D02*
D03*
X48753Y16066D02*
D03*
X16929Y54823D02*
D03*
X91634Y58563D02*
D03*
X70472Y6693D02*
D03*
X60416Y13023D02*
D03*
X57087Y11122D02*
D03*
X6594Y26969D02*
D03*
X9055Y40354D02*
D03*
X9154Y33563D02*
D03*
X54331Y8858D02*
D03*
X47848Y9356D02*
D03*
X51282Y9741D02*
D03*
X21804Y46478D02*
D03*
X104082Y29454D02*
D03*
Y34154D02*
D03*
X104101Y39494D02*
D03*
X108800Y37147D02*
D03*
X107776Y40861D02*
D03*
X63779Y7908D02*
D03*
X67094Y9776D02*
D03*
X35925Y12697D02*
D03*
X33268Y15256D02*
D03*
X31102Y18307D02*
D03*
X7874Y65256D02*
D03*
X8071Y61811D02*
D03*
X117815Y47539D02*
D03*
X30312Y33482D02*
D03*
X32579Y66929D02*
D03*
X9154Y44291D02*
D03*
X117595Y42172D02*
D03*
X94784Y66634D02*
D03*
X35773Y58607D02*
D03*
X34646Y61910D02*
D03*
X17323Y35531D02*
D03*
X17164Y39113D02*
D03*
X15948Y51577D02*
D03*
X22128Y42971D02*
D03*
X104997Y44917D02*
D03*
X91732Y84449D02*
D03*
X91535Y54035D02*
D03*
X93504Y11122D02*
D03*
X79134Y6693D02*
D03*
X74705Y6791D02*
D03*
X60827Y9843D02*
D03*
X44685Y11713D02*
D03*
X40551Y12598D02*
D03*
X22241Y39567D02*
D03*
X22560Y36241D02*
D03*
X31262Y23524D02*
D03*
X22912Y23040D02*
D03*
X34449Y36614D02*
D03*
X8957Y50197D02*
D03*
X38484Y20087D02*
D03*
X31496Y54823D02*
D03*
X31004Y51378D02*
D03*
X32382Y48130D02*
D03*
X34744Y50886D02*
D03*
X31988Y59055D02*
D03*
X109827Y44025D02*
D03*
X109646Y47835D02*
D03*
X100000Y15354D02*
D03*
X58520Y76673D02*
D03*
X91732Y65059D02*
D03*
X94193Y62008D02*
D03*
M02*
