G04*
G04 #@! TF.GenerationSoftware,Altium Limited,Altium Designer,24.6.1 (21)*
G04*
G04 Layer_Physical_Order=3*
G04 Layer_Color=16737945*
%FSLAX25Y25*%
%MOIN*%
G70*
G04*
G04 #@! TF.SameCoordinates,968F5DAC-6C38-4F8D-B6AE-AF4369227771*
G04*
G04*
G04 #@! TF.FilePolarity,Positive*
G04*
G01*
G75*
%ADD29C,0.00750*%
%ADD33C,0.03937*%
%ADD34C,0.01968*%
G36*
X119493Y94573D02*
X119890Y94494D01*
X120263Y94340D01*
X120599Y94115D01*
X120885Y93829D01*
X121110Y93494D01*
X121265Y93120D01*
X121344Y92724D01*
X121344Y92522D01*
X121345Y6693D01*
X121344Y6491D01*
X121266Y6094D01*
X121111Y5721D01*
X120887Y5385D01*
X120601Y5099D01*
X120265Y4874D01*
X119892Y4719D01*
X119496Y4640D01*
X119293Y4640D01*
X80277D01*
X80207Y4990D01*
X80258Y5011D01*
X80816Y5569D01*
X81118Y6298D01*
Y7088D01*
X81392Y7340D01*
X81881D01*
X82610Y7643D01*
X83168Y8201D01*
X83470Y8930D01*
Y9719D01*
X83168Y10449D01*
X82610Y11007D01*
X81881Y11309D01*
X81091D01*
X80362Y11007D01*
X79804Y10449D01*
X79502Y9719D01*
Y8930D01*
X79228Y8677D01*
X78739D01*
X78010Y8375D01*
X77452Y7817D01*
X77150Y7088D01*
Y6298D01*
X77452Y5569D01*
X78010Y5011D01*
X78061Y4990D01*
X77991Y4640D01*
X75610D01*
X75540Y4990D01*
X75829Y5109D01*
X76387Y5667D01*
X76689Y6397D01*
Y7186D01*
X76387Y7915D01*
X75834Y8468D01*
X76284Y8918D01*
X76586Y9647D01*
Y10437D01*
X76284Y11166D01*
X75726Y11724D01*
X74997Y12026D01*
X74207D01*
X73478Y11724D01*
X72920Y11166D01*
X72618Y10437D01*
Y9647D01*
X72920Y8918D01*
X73473Y8365D01*
X73023Y7915D01*
X72758Y7276D01*
X72427Y7235D01*
X72393Y7241D01*
X72155Y7817D01*
X71596Y8375D01*
X70867Y8677D01*
X70078D01*
X69349Y8375D01*
X68790Y7817D01*
X68488Y7088D01*
Y6298D01*
X68790Y5569D01*
X69349Y5011D01*
X69399Y4990D01*
X69330Y4640D01*
X6693Y4640D01*
X6491D01*
X6094Y4719D01*
X5721Y4873D01*
X5385Y5097D01*
X5099Y5383D01*
X4874Y5719D01*
X4719Y6092D01*
X4640Y6489D01*
X4640Y6691D01*
Y25658D01*
X4990Y25767D01*
X5471Y25286D01*
X6200Y24984D01*
X6989D01*
X7718Y25286D01*
X8277Y25844D01*
X8579Y26574D01*
Y27363D01*
X8277Y28093D01*
X7718Y28651D01*
X6989Y28953D01*
X6200D01*
X5471Y28651D01*
X4990Y28170D01*
X4640Y28279D01*
X4640Y92520D01*
Y92722D01*
X4719Y93118D01*
X4873Y93492D01*
X5097Y93828D01*
X5383Y94114D01*
X5719Y94339D01*
X6092Y94494D01*
X6489Y94573D01*
X6691Y94573D01*
X119291Y94573D01*
X119493Y94573D01*
D02*
G37*
%LPC*%
G36*
X86611Y89189D02*
X85830D01*
X85075Y88987D01*
X84398Y88596D01*
X83845Y88043D01*
X83454Y87366D01*
X83252Y86611D01*
Y85830D01*
X83454Y85075D01*
X83845Y84398D01*
X84398Y83845D01*
X85075Y83454D01*
X85830Y83252D01*
X86611D01*
X87366Y83454D01*
X88043Y83845D01*
X88596Y84398D01*
X88987Y85075D01*
X89189Y85830D01*
Y86611D01*
X88987Y87366D01*
X88596Y88043D01*
X88043Y88596D01*
X87366Y88987D01*
X86611Y89189D01*
D02*
G37*
G36*
X113780Y79937D02*
X112991D01*
X112262Y79635D01*
X111704Y79077D01*
X111402Y78347D01*
Y77558D01*
X111704Y76829D01*
X112262Y76271D01*
X112991Y75968D01*
X113780D01*
X114510Y76271D01*
X115068Y76829D01*
X115370Y77558D01*
Y78347D01*
X115068Y79077D01*
X114510Y79635D01*
X113780Y79937D01*
D02*
G37*
G36*
X58915Y78658D02*
X58125D01*
X57396Y78355D01*
X56838Y77797D01*
X56536Y77068D01*
Y76279D01*
X56838Y75549D01*
X57396Y74991D01*
X58125Y74689D01*
X58915D01*
X59644Y74991D01*
X60202Y75549D01*
X60504Y76279D01*
Y77068D01*
X60202Y77797D01*
X59644Y78355D01*
X58915Y78658D01*
D02*
G37*
G36*
X81891Y77969D02*
X81101D01*
X80372Y77666D01*
X79814Y77108D01*
X79512Y76379D01*
Y75590D01*
X79814Y74860D01*
X80372Y74302D01*
X81101Y74000D01*
X81891D01*
X82620Y74302D01*
X83178Y74860D01*
X83480Y75590D01*
Y76379D01*
X83178Y77108D01*
X82620Y77666D01*
X81891Y77969D01*
D02*
G37*
G36*
X45277Y77575D02*
X44487D01*
X43758Y77273D01*
X43200Y76714D01*
X42898Y75985D01*
Y75196D01*
X43200Y74467D01*
X43758Y73908D01*
X44487Y73606D01*
X45277D01*
X46006Y73908D01*
X46564Y74467D01*
X46866Y75196D01*
Y75985D01*
X46564Y76714D01*
X46006Y77273D01*
X45277Y77575D01*
D02*
G37*
G36*
X35040Y63894D02*
X34251D01*
X33522Y63592D01*
X32963Y63033D01*
X32661Y62304D01*
Y61515D01*
X32782Y61224D01*
X32534Y60977D01*
X32383Y61039D01*
X31593D01*
X30864Y60737D01*
X30306Y60179D01*
X30004Y59450D01*
Y58660D01*
X30306Y57931D01*
X30864Y57373D01*
X31385Y57157D01*
X31316Y56807D01*
X31101D01*
X30372Y56505D01*
X29814Y55947D01*
X29512Y55217D01*
Y54428D01*
X29814Y53699D01*
X30062Y53451D01*
X29994Y53107D01*
X29880Y53060D01*
X29322Y52502D01*
X29020Y51773D01*
Y50983D01*
X29322Y50254D01*
X29880Y49696D01*
X30609Y49394D01*
X31399D01*
X32128Y49696D01*
X32686Y50254D01*
X32988Y50983D01*
Y51773D01*
X32686Y52502D01*
X32438Y52750D01*
X32506Y53093D01*
X32620Y53141D01*
X33178Y53699D01*
X33480Y54428D01*
Y55217D01*
X33178Y55947D01*
X32620Y56505D01*
X32099Y56721D01*
X32168Y57071D01*
X32383D01*
X33112Y57373D01*
X33670Y57931D01*
X33972Y58660D01*
Y59450D01*
X33852Y59740D01*
X34100Y59988D01*
X34251Y59925D01*
X35040D01*
X35770Y60227D01*
X36328Y60786D01*
X36630Y61515D01*
Y62304D01*
X36328Y63033D01*
X35770Y63592D01*
X35040Y63894D01*
D02*
G37*
G36*
X92127Y67043D02*
X91338D01*
X90608Y66741D01*
X90050Y66183D01*
X89748Y65454D01*
Y64664D01*
X90050Y63935D01*
X90608Y63377D01*
X91338Y63075D01*
X92127D01*
X92372Y62798D01*
X92209Y62403D01*
Y61613D01*
X92511Y60884D01*
X92780Y60615D01*
X92581Y60318D01*
X92028Y60547D01*
X91239D01*
X90510Y60245D01*
X89952Y59687D01*
X89650Y58958D01*
Y58168D01*
X89952Y57439D01*
X90510Y56881D01*
X91239Y56579D01*
X92028D01*
X92758Y56881D01*
X93316Y57439D01*
X93618Y58168D01*
Y58958D01*
X93316Y59687D01*
X93047Y59956D01*
X93245Y60253D01*
X93798Y60024D01*
X94588D01*
X95317Y60326D01*
X95875Y60884D01*
X96177Y61613D01*
Y62403D01*
X95875Y63132D01*
X95317Y63690D01*
X94588Y63992D01*
X93798D01*
X93553Y64269D01*
X93717Y64664D01*
Y65454D01*
X93414Y66183D01*
X92856Y66741D01*
X92127Y67043D01*
D02*
G37*
G36*
X8466Y63795D02*
X7676D01*
X6947Y63493D01*
X6389Y62935D01*
X6087Y62206D01*
Y61416D01*
X6389Y60687D01*
X6947Y60129D01*
X7676Y59827D01*
X8466D01*
X9195Y60129D01*
X9753Y60687D01*
X10055Y61416D01*
Y62206D01*
X9753Y62935D01*
X9195Y63493D01*
X8466Y63795D01*
D02*
G37*
G36*
X9351Y52181D02*
X8562D01*
X7833Y51879D01*
X7275Y51321D01*
X6972Y50591D01*
Y49802D01*
X7275Y49073D01*
X7833Y48515D01*
X8562Y48213D01*
X9351D01*
X10081Y48515D01*
X10639Y49073D01*
X10941Y49802D01*
Y50591D01*
X10639Y51321D01*
X10081Y51879D01*
X9351Y52181D01*
D02*
G37*
G36*
X91143Y49718D02*
X90353D01*
X89624Y49415D01*
X89066Y48857D01*
X88764Y48128D01*
Y47339D01*
X89066Y46609D01*
X89624Y46051D01*
X90353Y45749D01*
X91143D01*
X91872Y46051D01*
X92430Y46609D01*
X92732Y47339D01*
Y48128D01*
X92430Y48857D01*
X91872Y49415D01*
X91143Y49718D01*
D02*
G37*
G36*
X91817Y43504D02*
X91027D01*
X90298Y43202D01*
X89740Y42644D01*
X89438Y41915D01*
Y41126D01*
X89740Y40396D01*
X90298Y39838D01*
X90324Y39827D01*
X90373Y39428D01*
X89934Y38988D01*
X89632Y38259D01*
Y37470D01*
X89934Y36740D01*
X90492Y36182D01*
X91221Y35880D01*
X92010D01*
X92740Y36182D01*
X93298Y36740D01*
X93600Y37470D01*
Y38259D01*
X93298Y38988D01*
X92749Y39537D01*
X92704Y39860D01*
X92701Y39881D01*
X92944Y40120D01*
X93275Y40072D01*
X93735Y39612D01*
X94465Y39309D01*
X95254D01*
X95983Y39612D01*
X96542Y40170D01*
X96844Y40899D01*
Y41688D01*
X96542Y42418D01*
X95983Y42976D01*
X95254Y43278D01*
X94465D01*
X93735Y42976D01*
X93439Y42680D01*
X93048Y42700D01*
X92546Y43202D01*
X91817Y43504D01*
D02*
G37*
G36*
X109450Y54347D02*
X108660D01*
X107931Y54044D01*
X107373Y53486D01*
X107071Y52757D01*
Y52361D01*
X97977Y43266D01*
X97673Y42812D01*
X97566Y42275D01*
Y38919D01*
X92128Y33480D01*
X91731D01*
X91002Y33178D01*
X90444Y32620D01*
X90142Y31891D01*
Y31101D01*
X90306Y30705D01*
X90061Y30428D01*
X89272D01*
X88543Y30126D01*
X87985Y29567D01*
X87682Y28838D01*
Y28049D01*
X87985Y27319D01*
X88543Y26761D01*
X89272Y26459D01*
X90061D01*
X90791Y26761D01*
X91071Y27042D01*
X96209D01*
X96279Y26691D01*
X95720Y26460D01*
X95162Y25902D01*
X94959Y25412D01*
X94851Y25174D01*
X94537Y25237D01*
X94095Y25419D01*
X93306D01*
X92577Y25117D01*
X92019Y24559D01*
X91716Y23830D01*
Y23041D01*
X91866Y22680D01*
X91598Y22412D01*
X91238Y22562D01*
X90448D01*
X89719Y22260D01*
X89161Y21701D01*
X88859Y20972D01*
Y20183D01*
X89161Y19453D01*
X89719Y18895D01*
X90448Y18593D01*
X91238D01*
X91967Y18895D01*
X92525Y19453D01*
X92827Y20183D01*
Y20972D01*
X92678Y21332D01*
X92946Y21600D01*
X93306Y21451D01*
X94095D01*
X94825Y21753D01*
X95383Y22311D01*
X95586Y22802D01*
X95694Y23039D01*
X96008Y22976D01*
X96450Y22794D01*
X97239D01*
X97969Y23096D01*
X98527Y23654D01*
X98829Y24383D01*
Y25072D01*
X99148Y25248D01*
X108047Y16348D01*
Y12067D01*
X107626Y11824D01*
X107073Y11271D01*
X106683Y10595D01*
X106480Y9840D01*
Y9058D01*
X106683Y8303D01*
X107073Y7626D01*
X107626Y7073D01*
X108303Y6683D01*
X109058Y6480D01*
X109840D01*
X110595Y6683D01*
X111272Y7073D01*
X111824Y7626D01*
X112215Y8303D01*
X112417Y9058D01*
Y9840D01*
X112215Y10595D01*
X111824Y11271D01*
X111272Y11824D01*
X110851Y12067D01*
Y16929D01*
X110744Y17466D01*
X110440Y17920D01*
X98926Y29435D01*
X98471Y29739D01*
X97935Y29845D01*
X93739D01*
X93605Y30169D01*
X93808Y30372D01*
X94110Y31101D01*
Y31498D01*
X99959Y37347D01*
X100263Y37802D01*
X100370Y38338D01*
Y41695D01*
X107550Y48874D01*
X107846Y48676D01*
X107661Y48229D01*
Y47440D01*
X107964Y46711D01*
X108522Y46152D01*
X108728Y46067D01*
Y45717D01*
X108703Y45707D01*
X108145Y45149D01*
X107843Y44419D01*
Y43630D01*
X108023Y43195D01*
X107789Y42845D01*
X107381D01*
X106652Y42543D01*
X106093Y41985D01*
X105791Y41255D01*
Y40466D01*
X106093Y39737D01*
X106652Y39178D01*
X107381Y38876D01*
X108170D01*
X108900Y39178D01*
X109458Y39737D01*
X109760Y40466D01*
Y41255D01*
X109580Y41690D01*
X109813Y42040D01*
X110222D01*
X110951Y42342D01*
X111509Y42901D01*
X111811Y43630D01*
Y44419D01*
X111509Y45149D01*
X110951Y45707D01*
X110745Y45792D01*
Y46142D01*
X110770Y46152D01*
X111328Y46711D01*
X111630Y47440D01*
Y48229D01*
X111328Y48959D01*
X110770Y49517D01*
X110040Y49819D01*
X109251D01*
X108805Y49634D01*
X108606Y49931D01*
X109054Y50378D01*
X109450D01*
X110179Y50680D01*
X110737Y51238D01*
X111039Y51968D01*
Y52757D01*
X110737Y53486D01*
X110179Y54044D01*
X109450Y54347D01*
D02*
G37*
G36*
X18765Y59664D02*
X17976D01*
X17246Y59362D01*
X16688Y58804D01*
X16386Y58075D01*
Y57285D01*
X16565Y56853D01*
X16534Y56807D01*
X15805Y56505D01*
X15247Y55947D01*
X14945Y55217D01*
Y54428D01*
X15247Y53699D01*
X15805Y53141D01*
X16534Y52839D01*
X17324D01*
X17422Y52879D01*
X17511Y52807D01*
X17693Y52613D01*
Y41630D01*
X17799Y41093D01*
X18103Y40639D01*
X18382Y40360D01*
Y37556D01*
X18090Y37361D01*
X17718Y37516D01*
X16928D01*
X16199Y37214D01*
X15641Y36656D01*
X15339Y35926D01*
Y35137D01*
X15641Y34407D01*
X16199Y33849D01*
X16928Y33547D01*
X17718D01*
X18090Y33702D01*
X18382Y33507D01*
Y22441D01*
X18488Y21904D01*
X18792Y21450D01*
X34343Y5898D01*
X34798Y5595D01*
X35335Y5488D01*
X52256D01*
X52792Y5595D01*
X53247Y5898D01*
X54223Y6874D01*
X54725D01*
X55455Y7176D01*
X56013Y7734D01*
X56315Y8464D01*
Y8915D01*
X56665Y9149D01*
X56692Y9138D01*
X57481D01*
X58211Y9440D01*
X58492Y9722D01*
X58842Y9577D01*
Y9448D01*
X59145Y8719D01*
X59703Y8160D01*
X60432Y7858D01*
X61221D01*
X61504Y7975D01*
X61795Y7781D01*
Y7514D01*
X62097Y6785D01*
X62656Y6226D01*
X63385Y5924D01*
X64174D01*
X64903Y6226D01*
X65462Y6785D01*
X65764Y7514D01*
Y7843D01*
X66114Y8034D01*
X66699Y7792D01*
X67488D01*
X68218Y8094D01*
X68776Y8652D01*
X69078Y9381D01*
Y10171D01*
X68776Y10900D01*
X68218Y11458D01*
X67488Y11761D01*
X66699D01*
X66126Y11523D01*
X65776Y11722D01*
Y12401D01*
X65669Y12938D01*
X65365Y13393D01*
X57983Y20775D01*
X57528Y21079D01*
X56992Y21185D01*
X49338D01*
X40103Y30420D01*
X39648Y30724D01*
X39112Y30831D01*
X31531D01*
X31041Y31321D01*
X31109Y31664D01*
X31436Y31800D01*
X31994Y32358D01*
X32296Y33087D01*
Y33877D01*
X31994Y34606D01*
X31436Y35164D01*
X30707Y35466D01*
X29917D01*
X29188Y35164D01*
X28630Y34606D01*
X28574Y34470D01*
X28171Y34378D01*
X28017Y34510D01*
Y41821D01*
X27910Y42358D01*
X27606Y42812D01*
X23788Y46630D01*
Y46873D01*
X23486Y47602D01*
X22928Y48160D01*
X22199Y48462D01*
X21409D01*
X20846Y48229D01*
X20496Y48434D01*
Y52077D01*
X20676Y52257D01*
X20980Y52711D01*
X21087Y53248D01*
Y56135D01*
X21044Y56349D01*
X21019Y56565D01*
X20991Y56615D01*
X20980Y56671D01*
X20859Y56853D01*
X20753Y57043D01*
X20354Y57511D01*
Y58075D01*
X20052Y58804D01*
X19494Y59362D01*
X18765Y59664D01*
D02*
G37*
G36*
X34844Y38598D02*
X34054D01*
X33325Y38296D01*
X32767Y37738D01*
X32465Y37009D01*
Y36219D01*
X32767Y35490D01*
X33325Y34932D01*
X34054Y34630D01*
X34844D01*
X35573Y34932D01*
X36131Y35490D01*
X36433Y36219D01*
Y37009D01*
X36131Y37738D01*
X35573Y38296D01*
X34844Y38598D01*
D02*
G37*
G36*
X104477Y36138D02*
X103687D01*
X102958Y35836D01*
X102400Y35278D01*
X102098Y34548D01*
Y33759D01*
X102400Y33030D01*
X102958Y32471D01*
X103687Y32169D01*
X104477D01*
X105206Y32471D01*
X105764Y33030D01*
X106066Y33759D01*
Y34548D01*
X105764Y35278D01*
X105206Y35836D01*
X104477Y36138D01*
D02*
G37*
G36*
X9548Y35547D02*
X8759D01*
X8030Y35245D01*
X7471Y34687D01*
X7169Y33958D01*
Y33168D01*
X7471Y32439D01*
X8030Y31881D01*
X8759Y31579D01*
X9548D01*
X10278Y31881D01*
X10836Y32439D01*
X11138Y33168D01*
Y33958D01*
X10836Y34687D01*
X10278Y35245D01*
X9548Y35547D01*
D02*
G37*
G36*
X100395Y17339D02*
X99605D01*
X98876Y17037D01*
X98318Y16478D01*
X98016Y15749D01*
X97666Y15589D01*
X97245Y15764D01*
X96456D01*
X95726Y15462D01*
X95168Y14904D01*
X94866Y14174D01*
Y13385D01*
X95095Y12832D01*
X94798Y12634D01*
X94628Y12804D01*
X93899Y13106D01*
X93109D01*
X92380Y12804D01*
X91822Y12246D01*
X91520Y11517D01*
Y10994D01*
X91170Y10849D01*
X90888Y11131D01*
X90158Y11433D01*
X89369D01*
X88640Y11131D01*
X88082Y10573D01*
X87779Y9843D01*
Y9054D01*
X88082Y8325D01*
X88640Y7767D01*
X89369Y7465D01*
X90158D01*
X90888Y7767D01*
X91446Y8325D01*
X91748Y9054D01*
Y9577D01*
X92098Y9722D01*
X92380Y9440D01*
X93109Y9138D01*
X93899D01*
X94628Y9440D01*
X95186Y9998D01*
X95488Y10727D01*
Y11517D01*
X95259Y12070D01*
X95556Y12268D01*
X95726Y12097D01*
X96456Y11795D01*
X97245D01*
X97974Y12097D01*
X98533Y12655D01*
X98835Y13385D01*
X99185Y13544D01*
X99605Y13370D01*
X100395D01*
X101124Y13672D01*
X101682Y14230D01*
X101984Y14960D01*
Y15749D01*
X101682Y16478D01*
X101124Y17037D01*
X100395Y17339D01*
D02*
G37*
G36*
X87550Y15785D02*
X86760D01*
X86031Y15483D01*
X85473Y14925D01*
X85171Y14195D01*
Y13406D01*
X85473Y12677D01*
X86031Y12118D01*
X86760Y11816D01*
X87550D01*
X88279Y12118D01*
X88837Y12677D01*
X89139Y13406D01*
Y14195D01*
X88837Y14925D01*
X88279Y15483D01*
X87550Y15785D01*
D02*
G37*
G36*
X18111Y14583D02*
X17322D01*
X16592Y14281D01*
X16034Y13722D01*
X15732Y12993D01*
Y12204D01*
X15941Y11700D01*
X15793Y11523D01*
X15670Y11439D01*
X14958Y11630D01*
X14176D01*
X13421Y11428D01*
X12744Y11037D01*
X12191Y10484D01*
X11801Y9807D01*
X11598Y9052D01*
Y8271D01*
X11801Y7516D01*
X12191Y6839D01*
X12744Y6286D01*
X13421Y5895D01*
X14176Y5693D01*
X14958D01*
X15713Y5895D01*
X16390Y6286D01*
X16942Y6839D01*
X17333Y7516D01*
X17535Y8271D01*
Y9052D01*
X17333Y9807D01*
X17012Y10364D01*
X17255Y10642D01*
X17322Y10614D01*
X18111D01*
X18841Y10916D01*
X19399Y11474D01*
X19701Y12204D01*
Y12993D01*
X19399Y13722D01*
X18841Y14281D01*
X18111Y14583D01*
D02*
G37*
G36*
X104135Y13500D02*
X103346D01*
X102616Y13198D01*
X102058Y12640D01*
X101756Y11910D01*
Y11121D01*
X102058Y10392D01*
X102616Y9834D01*
X103346Y9532D01*
X104135D01*
X104864Y9834D01*
X105422Y10392D01*
X105724Y11121D01*
Y11910D01*
X105422Y12640D01*
X104864Y13198D01*
X104135Y13500D01*
D02*
G37*
%LPD*%
G36*
X29231Y18973D02*
X29118Y18702D01*
Y17912D01*
X29420Y17183D01*
X29978Y16625D01*
X30708Y16323D01*
X31497D01*
X32226Y16625D01*
X32507Y16905D01*
X33921D01*
X35577Y15249D01*
X35903Y15031D01*
X35797Y14681D01*
X35530D01*
X34801Y14379D01*
X34243Y13821D01*
X33941Y13092D01*
Y12302D01*
X34243Y11573D01*
X34801Y11015D01*
X35530Y10713D01*
X36320D01*
X37049Y11015D01*
X37607Y11573D01*
X37909Y12302D01*
Y12763D01*
X38259Y12908D01*
X38567Y12600D01*
Y12204D01*
X38869Y11474D01*
X39427Y10916D01*
X40156Y10614D01*
X40946D01*
X41675Y10916D01*
X42233Y11474D01*
X42351Y11758D01*
X42701Y11688D01*
Y11318D01*
X43003Y10589D01*
X43561Y10030D01*
X44290Y9728D01*
X45080D01*
X45558Y9927D01*
X45677Y9858D01*
X45864Y9674D01*
Y8961D01*
X46021Y8583D01*
X45827Y8292D01*
X35915D01*
X25293Y18914D01*
X25438Y19264D01*
X29036D01*
X29231Y18973D01*
D02*
G37*
D29*
X97935Y28443D02*
X109449Y16929D01*
X89667Y28443D02*
X97935D01*
X36909Y16240D02*
X40551Y12598D01*
X36568Y16240D02*
X36909D01*
X92126Y31496D02*
X98968Y38338D01*
Y42275D01*
X109449Y9449D02*
Y16929D01*
X98968Y42275D02*
X109055Y52362D01*
X18370Y57680D02*
X19685Y56135D01*
X41295Y23524D02*
X48753Y16066D01*
X19685Y53248D02*
Y56135D01*
X19094Y52658D02*
X19685Y53248D01*
X19094Y41630D02*
Y52658D01*
X31262Y23524D02*
X41295D01*
X54940Y13564D02*
X57087Y11417D01*
Y11122D02*
Y11417D01*
X54224Y8858D02*
X54331D01*
X52256Y6890D02*
X54224Y8858D01*
X35335Y6890D02*
X52256D01*
X19783Y22441D02*
Y40941D01*
Y22441D02*
X35335Y6890D01*
X19094Y41630D02*
X19783Y40941D01*
X21958Y46478D02*
X26615Y41821D01*
X21804Y46478D02*
X21958D01*
X48757Y19783D02*
X56992D01*
X64374Y10494D02*
Y12401D01*
X56992Y19783D02*
X64374Y12401D01*
X64013Y10133D02*
X64374Y10494D01*
X64013Y8142D02*
Y10133D01*
X63779Y7908D02*
X64013Y8142D01*
X47918Y13564D02*
X54940D01*
X43806Y17676D02*
X47918Y13564D01*
X31102Y18307D02*
X34501D01*
X25286Y20666D02*
X34038D01*
X34501Y18307D02*
X36568Y16240D01*
X34038Y20666D02*
X37028Y17676D01*
X43806D01*
X22912Y23040D02*
X25286Y20666D01*
X30950Y29429D02*
X39112D01*
X26615Y33765D02*
Y41821D01*
Y33765D02*
X30950Y29429D01*
X39112D02*
X48757Y19783D01*
D33*
X109449Y9449D02*
D03*
X14567Y8661D02*
D03*
X86221Y86221D02*
D03*
D34*
X14961Y71653D02*
D03*
X32283Y70866D02*
D03*
X118110Y77953D02*
D03*
X11024Y85433D02*
D03*
X32283D02*
D03*
X35036Y32480D02*
D03*
X81486Y9325D02*
D03*
X85527Y8755D02*
D03*
X89764Y9449D02*
D03*
X87155Y13801D02*
D03*
X74602Y10042D02*
D03*
X96850Y13780D02*
D03*
X90843Y20577D02*
D03*
X91616Y37864D02*
D03*
X90748Y47733D02*
D03*
X91422Y41520D02*
D03*
X94859Y41294D02*
D03*
X92126Y31496D02*
D03*
X89667Y28443D02*
D03*
X93701Y23435D02*
D03*
X91732Y34646D02*
D03*
X103740Y11516D02*
D03*
X96845Y24778D02*
D03*
X109055Y52362D02*
D03*
X80315Y30413D02*
D03*
X75984D02*
D03*
X71653D02*
D03*
X67323D02*
D03*
X62992D02*
D03*
X58661D02*
D03*
X54331D02*
D03*
X50000D02*
D03*
X45669D02*
D03*
X80315Y34744D02*
D03*
X75984D02*
D03*
X71653D02*
D03*
X67323D02*
D03*
X62992D02*
D03*
X58661D02*
D03*
X54331D02*
D03*
X50000D02*
D03*
X45669D02*
D03*
X80315Y39075D02*
D03*
X75984D02*
D03*
X71653D02*
D03*
X67323D02*
D03*
X62992D02*
D03*
X58661D02*
D03*
X54331D02*
D03*
X50000D02*
D03*
X45669D02*
D03*
X80315Y43406D02*
D03*
X75984D02*
D03*
X71653D02*
D03*
X67323D02*
D03*
X62992D02*
D03*
X58661D02*
D03*
X54331D02*
D03*
X50000D02*
D03*
X45669D02*
D03*
X80315Y47736D02*
D03*
X75984D02*
D03*
X71653D02*
D03*
X67323D02*
D03*
X62992D02*
D03*
X58661D02*
D03*
X54331D02*
D03*
X50000D02*
D03*
X45669D02*
D03*
X80315Y52067D02*
D03*
X75984D02*
D03*
X71653D02*
D03*
X67323D02*
D03*
X62992D02*
D03*
X58661D02*
D03*
X54331D02*
D03*
X50000D02*
D03*
X45669D02*
D03*
X80315Y56398D02*
D03*
X75984D02*
D03*
X71653D02*
D03*
X67323D02*
D03*
X62992D02*
D03*
X58661D02*
D03*
X54331D02*
D03*
X50000D02*
D03*
X45669D02*
D03*
X80315Y60728D02*
D03*
X75984D02*
D03*
X71653D02*
D03*
X67323D02*
D03*
X62992D02*
D03*
X58661D02*
D03*
X54331D02*
D03*
X50000D02*
D03*
X45669D02*
D03*
X80315Y65059D02*
D03*
X75984D02*
D03*
X71653D02*
D03*
X67323D02*
D03*
X62992D02*
D03*
X58661D02*
D03*
X54331D02*
D03*
X50000D02*
D03*
X45669D02*
D03*
X95374Y58071D02*
D03*
X104833Y53808D02*
D03*
X11811Y12598D02*
D03*
X17717D02*
D03*
X99606Y77953D02*
D03*
X113386D02*
D03*
X81496Y75984D02*
D03*
X75590D02*
D03*
X50886Y75590D02*
D03*
X18370Y57680D02*
D03*
X23107Y56496D02*
D03*
X44882Y75590D02*
D03*
X48753Y16066D02*
D03*
X16929Y54823D02*
D03*
X91634Y58563D02*
D03*
X70472Y6693D02*
D03*
X60416Y13023D02*
D03*
X57087Y11122D02*
D03*
X6594Y26969D02*
D03*
X9055Y40354D02*
D03*
X9154Y33563D02*
D03*
X54331Y8858D02*
D03*
X47848Y9356D02*
D03*
X51282Y9741D02*
D03*
X21804Y46478D02*
D03*
X104082Y29454D02*
D03*
Y34154D02*
D03*
X104101Y39494D02*
D03*
X108800Y37147D02*
D03*
X107776Y40861D02*
D03*
X63779Y7908D02*
D03*
X67094Y9776D02*
D03*
X35925Y12697D02*
D03*
X33268Y15256D02*
D03*
X31102Y18307D02*
D03*
X7874Y65256D02*
D03*
X8071Y61811D02*
D03*
X117815Y47539D02*
D03*
X30312Y33482D02*
D03*
X32579Y66929D02*
D03*
X9154Y44291D02*
D03*
X117595Y42172D02*
D03*
X94784Y66634D02*
D03*
X35773Y58607D02*
D03*
X34646Y61910D02*
D03*
X17323Y35531D02*
D03*
X17164Y39113D02*
D03*
X15948Y51577D02*
D03*
X22128Y42971D02*
D03*
X104997Y44917D02*
D03*
X91732Y84449D02*
D03*
X91535Y54035D02*
D03*
X93504Y11122D02*
D03*
X79134Y6693D02*
D03*
X74705Y6791D02*
D03*
X60827Y9843D02*
D03*
X44685Y11713D02*
D03*
X40551Y12598D02*
D03*
X22241Y39567D02*
D03*
X22560Y36241D02*
D03*
X31262Y23524D02*
D03*
X22912Y23040D02*
D03*
X34449Y36614D02*
D03*
X8957Y50197D02*
D03*
X38484Y20087D02*
D03*
X31496Y54823D02*
D03*
X31004Y51378D02*
D03*
X32382Y48130D02*
D03*
X34744Y50886D02*
D03*
X31988Y59055D02*
D03*
X109827Y44025D02*
D03*
X109646Y47835D02*
D03*
X100000Y15354D02*
D03*
X58520Y76673D02*
D03*
X91732Y65059D02*
D03*
X94193Y62008D02*
D03*
M02*
