G04*
G04 #@! TF.GenerationSoftware,Altium Limited,Altium Designer,24.6.1 (21)*
G04*
G04 Layer_Color=8421504*
%FSLAX25Y25*%
%MOIN*%
G70*
G04*
G04 #@! TF.SameCoordinates,FCA5704B-31CB-4EDA-9B93-1EE264664BD2*
G04*
G04*
G04 #@! TF.FilePolarity,Positive*
G04*
G01*
G75*
%ADD14R,0.06890X0.03347*%
%ADD15R,0.03543X0.02165*%
%ADD16R,0.02165X0.03543*%
%ADD17O,0.03347X0.00787*%
%ADD18O,0.00787X0.03347*%
%ADD19R,0.39764X0.39764*%
D14*
X13780Y9252D02*
D03*
Y22244D02*
D03*
D15*
X29528Y38465D02*
D03*
Y44213D02*
D03*
X13780Y37402D02*
D03*
Y31653D02*
D03*
D16*
X19961Y50000D02*
D03*
X25709D02*
D03*
X19410Y43307D02*
D03*
X13661D02*
D03*
D17*
X39764Y66634D02*
D03*
Y65059D02*
D03*
Y63484D02*
D03*
Y61910D02*
D03*
Y60335D02*
D03*
Y58760D02*
D03*
Y57185D02*
D03*
Y55610D02*
D03*
Y54035D02*
D03*
Y52461D02*
D03*
Y50886D02*
D03*
Y49311D02*
D03*
Y47736D02*
D03*
Y46161D02*
D03*
Y44587D02*
D03*
Y43012D02*
D03*
Y41437D02*
D03*
Y39862D02*
D03*
Y38287D02*
D03*
Y36713D02*
D03*
Y35138D02*
D03*
Y33563D02*
D03*
Y31988D02*
D03*
Y30413D02*
D03*
Y28839D02*
D03*
X86221D02*
D03*
Y30413D02*
D03*
Y31988D02*
D03*
Y33563D02*
D03*
Y35138D02*
D03*
Y36713D02*
D03*
Y38287D02*
D03*
Y39862D02*
D03*
Y41437D02*
D03*
Y43012D02*
D03*
Y44587D02*
D03*
Y46161D02*
D03*
Y47736D02*
D03*
Y49311D02*
D03*
Y50886D02*
D03*
Y52461D02*
D03*
Y54035D02*
D03*
Y55610D02*
D03*
Y57185D02*
D03*
Y58760D02*
D03*
Y60335D02*
D03*
Y61910D02*
D03*
Y63484D02*
D03*
Y65059D02*
D03*
Y66634D02*
D03*
D18*
X44094Y24508D02*
D03*
X45669D02*
D03*
X47244D02*
D03*
X48819D02*
D03*
X50394D02*
D03*
X51968D02*
D03*
X53543D02*
D03*
X55118D02*
D03*
X56693D02*
D03*
X58268D02*
D03*
X59842D02*
D03*
X61417D02*
D03*
X62992D02*
D03*
X64567D02*
D03*
X66142D02*
D03*
X67716D02*
D03*
X69291D02*
D03*
X70866D02*
D03*
X72441D02*
D03*
X74016D02*
D03*
X75590D02*
D03*
X77165D02*
D03*
X78740D02*
D03*
X80315D02*
D03*
X81890D02*
D03*
Y70965D02*
D03*
X80315D02*
D03*
X78740D02*
D03*
X77165D02*
D03*
X75590D02*
D03*
X74016D02*
D03*
X72441D02*
D03*
X70866D02*
D03*
X69291D02*
D03*
X67716D02*
D03*
X66142D02*
D03*
X64567D02*
D03*
X62992D02*
D03*
X61417D02*
D03*
X59842D02*
D03*
X58268D02*
D03*
X56693D02*
D03*
X55118D02*
D03*
X53543D02*
D03*
X51968D02*
D03*
X50394D02*
D03*
X48819D02*
D03*
X47244D02*
D03*
X45669D02*
D03*
X44094D02*
D03*
D19*
X62992Y47736D02*
D03*
M02*
