G04*
G04 #@! TF.GenerationSoftware,Altium Limited,Altium Designer,24.6.1 (21)*
G04*
G04 Layer_Physical_Order=3*
G04 Layer_Color=16737945*
%FSLAX25Y25*%
%MOIN*%
G70*
G04*
G04 #@! TF.SameCoordinates,067462B6-B514-4C86-AA71-8EC8C8ED5DA5*
G04*
G04*
G04 #@! TF.FilePolarity,Positive*
G04*
G01*
G75*
%ADD29C,0.00750*%
%ADD33C,0.03937*%
%ADD34C,0.01968*%
G36*
X119493Y94573D02*
X119890Y94494D01*
X120263Y94340D01*
X120599Y94115D01*
X120885Y93829D01*
X121110Y93494D01*
X121265Y93120D01*
X121344Y92724D01*
X121344Y92522D01*
X121345Y6693D01*
X121344Y6491D01*
X121266Y6094D01*
X121111Y5721D01*
X120887Y5385D01*
X120601Y5099D01*
X120265Y4874D01*
X119892Y4719D01*
X119496Y4640D01*
X119293Y4640D01*
X6693Y4640D01*
X6491D01*
X6094Y4719D01*
X5721Y4873D01*
X5385Y5097D01*
X5099Y5383D01*
X4874Y5719D01*
X4719Y6092D01*
X4640Y6489D01*
X4640Y6691D01*
X4640Y92520D01*
Y92722D01*
X4719Y93118D01*
X4873Y93492D01*
X5097Y93828D01*
X5383Y94114D01*
X5719Y94339D01*
X6092Y94494D01*
X6489Y94573D01*
X6691Y94573D01*
X119291Y94573D01*
X119493Y94573D01*
D02*
G37*
%LPC*%
G36*
X86612Y88189D02*
X85829D01*
X85105Y87889D01*
X84552Y87335D01*
X84252Y86612D01*
Y85829D01*
X84552Y85105D01*
X85105Y84552D01*
X85829Y84252D01*
X86612D01*
X87335Y84552D01*
X87889Y85105D01*
X88189Y85829D01*
Y86612D01*
X87889Y87335D01*
X87335Y87889D01*
X86612Y88189D01*
D02*
G37*
G36*
X113702Y79543D02*
X113069D01*
X112485Y79301D01*
X112037Y78854D01*
X111795Y78269D01*
Y77636D01*
X112037Y77052D01*
X112485Y76604D01*
X113069Y76362D01*
X113702D01*
X114287Y76604D01*
X114734Y77052D01*
X114976Y77636D01*
Y78269D01*
X114734Y78854D01*
X114287Y79301D01*
X113702Y79543D01*
D02*
G37*
G36*
X58836Y78264D02*
X58204D01*
X57619Y78022D01*
X57172Y77574D01*
X56929Y76990D01*
Y76357D01*
X57172Y75772D01*
X57619Y75325D01*
X58204Y75083D01*
X58836D01*
X59421Y75325D01*
X59869Y75772D01*
X60111Y76357D01*
Y76990D01*
X59869Y77574D01*
X59421Y78022D01*
X58836Y78264D01*
D02*
G37*
G36*
X81812Y77575D02*
X81180D01*
X80595Y77333D01*
X80148Y76885D01*
X79905Y76301D01*
Y75668D01*
X80148Y75083D01*
X80595Y74636D01*
X81180Y74394D01*
X81812D01*
X82397Y74636D01*
X82845Y75083D01*
X83087Y75668D01*
Y76301D01*
X82845Y76885D01*
X82397Y77333D01*
X81812Y77575D01*
D02*
G37*
G36*
X45198Y77181D02*
X44565D01*
X43981Y76939D01*
X43534Y76491D01*
X43291Y75907D01*
Y75274D01*
X43534Y74690D01*
X43981Y74242D01*
X44565Y74000D01*
X45198D01*
X45783Y74242D01*
X46230Y74690D01*
X46472Y75274D01*
Y75907D01*
X46230Y76491D01*
X45783Y76939D01*
X45198Y77181D01*
D02*
G37*
G36*
X92049Y66650D02*
X91416D01*
X90831Y66408D01*
X90384Y65960D01*
X90142Y65375D01*
Y64743D01*
X90384Y64158D01*
X90831Y63711D01*
X91416Y63468D01*
X92049D01*
X92633Y63711D01*
X93081Y64158D01*
X93323Y64743D01*
Y65375D01*
X93081Y65960D01*
X92633Y66408D01*
X92049Y66650D01*
D02*
G37*
G36*
X94509Y63598D02*
X93876D01*
X93292Y63356D01*
X92844Y62909D01*
X92602Y62324D01*
Y61691D01*
X92844Y61107D01*
X93292Y60659D01*
X93876Y60417D01*
X94509D01*
X95094Y60659D01*
X95541Y61107D01*
X95784Y61691D01*
Y62324D01*
X95541Y62909D01*
X95094Y63356D01*
X94509Y63598D01*
D02*
G37*
G36*
X34962Y63500D02*
X34329D01*
X33745Y63258D01*
X33297Y62810D01*
X33055Y62226D01*
Y61593D01*
X33297Y61009D01*
X33745Y60561D01*
X34329Y60319D01*
X34962D01*
X35547Y60561D01*
X35994Y61009D01*
X36236Y61593D01*
Y62226D01*
X35994Y62810D01*
X35547Y63258D01*
X34962Y63500D01*
D02*
G37*
G36*
X8387Y63402D02*
X7755D01*
X7170Y63159D01*
X6723Y62712D01*
X6480Y62127D01*
Y61495D01*
X6723Y60910D01*
X7170Y60463D01*
X7755Y60220D01*
X8387D01*
X8972Y60463D01*
X9419Y60910D01*
X9661Y61495D01*
Y62127D01*
X9419Y62712D01*
X8972Y63159D01*
X8387Y63402D01*
D02*
G37*
G36*
X32305Y60646D02*
X31672D01*
X31087Y60404D01*
X30640Y59956D01*
X30398Y59372D01*
Y58739D01*
X30640Y58154D01*
X31087Y57707D01*
X31672Y57465D01*
X32305D01*
X32889Y57707D01*
X33337Y58154D01*
X33579Y58739D01*
Y59372D01*
X33337Y59956D01*
X32889Y60404D01*
X32305Y60646D01*
D02*
G37*
G36*
X91950Y60154D02*
X91317D01*
X90733Y59911D01*
X90285Y59464D01*
X90043Y58879D01*
Y58247D01*
X90285Y57662D01*
X90733Y57215D01*
X91317Y56972D01*
X91950D01*
X92535Y57215D01*
X92982Y57662D01*
X93224Y58247D01*
Y58879D01*
X92982Y59464D01*
X92535Y59911D01*
X91950Y60154D01*
D02*
G37*
G36*
X31812Y56413D02*
X31180D01*
X30595Y56171D01*
X30148Y55724D01*
X29906Y55139D01*
Y54506D01*
X30148Y53922D01*
X30595Y53474D01*
X30972Y53319D01*
X30902Y52969D01*
X30688D01*
X30103Y52726D01*
X29656Y52279D01*
X29413Y51694D01*
Y51062D01*
X29656Y50477D01*
X30103Y50030D01*
X30688Y49787D01*
X31320D01*
X31905Y50030D01*
X32352Y50477D01*
X32594Y51062D01*
Y51694D01*
X32352Y52279D01*
X31905Y52726D01*
X31528Y52882D01*
X31598Y53232D01*
X31812D01*
X32397Y53474D01*
X32844Y53922D01*
X33087Y54506D01*
Y55139D01*
X32844Y55724D01*
X32397Y56171D01*
X31812Y56413D01*
D02*
G37*
G36*
X9273Y51787D02*
X8640D01*
X8056Y51545D01*
X7608Y51098D01*
X7366Y50513D01*
Y49880D01*
X7608Y49296D01*
X8056Y48849D01*
X8640Y48606D01*
X9273D01*
X9858Y48849D01*
X10305Y49296D01*
X10547Y49880D01*
Y50513D01*
X10305Y51098D01*
X9858Y51545D01*
X9273Y51787D01*
D02*
G37*
G36*
X109962Y49425D02*
X109329D01*
X108745Y49183D01*
X108297Y48736D01*
X108055Y48151D01*
Y47518D01*
X108297Y46934D01*
X108745Y46486D01*
X109329Y46244D01*
X109962D01*
X110547Y46486D01*
X110994Y46934D01*
X111236Y47518D01*
Y48151D01*
X110994Y48736D01*
X110547Y49183D01*
X109962Y49425D01*
D02*
G37*
G36*
X91064Y49324D02*
X90432D01*
X89847Y49082D01*
X89400Y48634D01*
X89157Y48050D01*
Y47417D01*
X89400Y46832D01*
X89847Y46385D01*
X90432Y46143D01*
X91064D01*
X91649Y46385D01*
X92096Y46832D01*
X92339Y47417D01*
Y48050D01*
X92096Y48634D01*
X91649Y49082D01*
X91064Y49324D01*
D02*
G37*
G36*
X110143Y45615D02*
X109510D01*
X108926Y45373D01*
X108478Y44926D01*
X108236Y44341D01*
Y43708D01*
X108478Y43124D01*
X108926Y42676D01*
X109510Y42434D01*
X110143D01*
X110728Y42676D01*
X111175Y43124D01*
X111417Y43708D01*
Y44341D01*
X111175Y44926D01*
X110728Y45373D01*
X110143Y45615D01*
D02*
G37*
G36*
X91738Y43111D02*
X91105D01*
X90521Y42869D01*
X90073Y42421D01*
X89831Y41837D01*
Y41204D01*
X90073Y40619D01*
X90521Y40172D01*
X91105Y39930D01*
X91738D01*
X92323Y40172D01*
X92770Y40619D01*
X92919Y40978D01*
X93166Y40977D01*
X93283Y40943D01*
X93511Y40393D01*
X93958Y39945D01*
X94543Y39703D01*
X95176D01*
X95760Y39945D01*
X96208Y40393D01*
X96450Y40977D01*
Y41610D01*
X96208Y42195D01*
X95760Y42642D01*
X95176Y42884D01*
X94543D01*
X93958Y42642D01*
X93511Y42195D01*
X93362Y41836D01*
X93116Y41836D01*
X92998Y41871D01*
X92770Y42421D01*
X92323Y42869D01*
X91738Y43111D01*
D02*
G37*
G36*
X108092Y42451D02*
X107459D01*
X106875Y42209D01*
X106427Y41761D01*
X106185Y41177D01*
Y40544D01*
X106427Y39960D01*
X106875Y39512D01*
X107459Y39270D01*
X108092D01*
X108677Y39512D01*
X109124Y39960D01*
X109366Y40544D01*
Y41177D01*
X109124Y41761D01*
X108677Y42209D01*
X108092Y42451D01*
D02*
G37*
G36*
X18765Y59664D02*
X17976D01*
X17246Y59362D01*
X16688Y58804D01*
X16386Y58075D01*
Y57285D01*
X16604Y56760D01*
X16611Y56491D01*
X16429Y56337D01*
X16028Y56171D01*
X15581Y55724D01*
X15339Y55139D01*
Y54506D01*
X15581Y53922D01*
X16028Y53474D01*
X16613Y53232D01*
X17245D01*
X17498Y53337D01*
X17527Y53323D01*
X17775Y53073D01*
X17693Y52658D01*
Y41630D01*
X17799Y41093D01*
X18103Y40639D01*
X18382Y40360D01*
Y37179D01*
X18032Y36960D01*
X17639Y37122D01*
X17007D01*
X16422Y36880D01*
X15974Y36432D01*
X15732Y35848D01*
Y35215D01*
X15974Y34631D01*
X16422Y34183D01*
X17007Y33941D01*
X17639D01*
X18032Y34103D01*
X18382Y33884D01*
Y22441D01*
X18488Y21904D01*
X18792Y21450D01*
X34343Y5898D01*
X34798Y5595D01*
X35335Y5488D01*
X52256D01*
X52792Y5595D01*
X53247Y5898D01*
X54223Y6874D01*
X54725D01*
X55455Y7176D01*
X56013Y7734D01*
X56315Y8464D01*
Y8915D01*
X56665Y9149D01*
X56692Y9138D01*
X57481D01*
X58211Y9440D01*
X58769Y9998D01*
X59071Y10727D01*
Y11517D01*
X58995Y11699D01*
X59292Y11897D01*
X59515Y11675D01*
X59847Y11537D01*
X59881Y11388D01*
X59879Y11145D01*
X59478Y10744D01*
X59236Y10159D01*
Y9526D01*
X59478Y8941D01*
X59926Y8494D01*
X60510Y8252D01*
X61143D01*
X61472Y8388D01*
X61495Y8382D01*
X61795Y8143D01*
Y7514D01*
X62097Y6785D01*
X62656Y6226D01*
X63385Y5924D01*
X64174D01*
X64903Y6226D01*
X65462Y6785D01*
X65764Y7514D01*
Y8303D01*
X65722Y8404D01*
X66019Y8602D01*
X66193Y8428D01*
X66777Y8186D01*
X67410D01*
X67995Y8428D01*
X68442Y8875D01*
X68684Y9460D01*
Y10093D01*
X68442Y10677D01*
X67995Y11125D01*
X67410Y11367D01*
X66777D01*
X66193Y11125D01*
X66099Y11031D01*
X65776Y11165D01*
Y12401D01*
X65669Y12938D01*
X65365Y13393D01*
X57983Y20775D01*
X57528Y21079D01*
X56992Y21185D01*
X49338D01*
X40103Y30420D01*
X39648Y30724D01*
X39112Y30831D01*
X31531D01*
X30785Y31577D01*
X30867Y31990D01*
X31213Y32134D01*
X31660Y32581D01*
X31903Y33166D01*
Y33798D01*
X31660Y34383D01*
X31213Y34830D01*
X30628Y35073D01*
X29996D01*
X29411Y34830D01*
X28964Y34383D01*
X28820Y34037D01*
X28407Y33955D01*
X28017Y34345D01*
Y41821D01*
X27910Y42358D01*
X27606Y42812D01*
X23788Y46630D01*
Y46873D01*
X23486Y47602D01*
X22928Y48160D01*
X22199Y48462D01*
X21409D01*
X20846Y48229D01*
X20496Y48434D01*
Y52077D01*
X20676Y52257D01*
X20980Y52711D01*
X21087Y53248D01*
Y56135D01*
X21044Y56349D01*
X21019Y56565D01*
X20991Y56615D01*
X20980Y56671D01*
X20859Y56853D01*
X20753Y57043D01*
X20354Y57511D01*
Y58075D01*
X20052Y58804D01*
X19494Y59362D01*
X18765Y59664D01*
D02*
G37*
G36*
X91932Y39455D02*
X91299D01*
X90715Y39213D01*
X90267Y38765D01*
X90025Y38181D01*
Y37548D01*
X90267Y36963D01*
X90715Y36516D01*
X91299Y36274D01*
X91932D01*
X92517Y36516D01*
X92964Y36963D01*
X93206Y37548D01*
Y38181D01*
X92964Y38765D01*
X92517Y39213D01*
X91932Y39455D01*
D02*
G37*
G36*
X34765Y38205D02*
X34132D01*
X33548Y37963D01*
X33100Y37515D01*
X32858Y36931D01*
Y36298D01*
X33100Y35713D01*
X33548Y35266D01*
X34132Y35024D01*
X34765D01*
X35350Y35266D01*
X35797Y35713D01*
X36039Y36298D01*
Y36931D01*
X35797Y37515D01*
X35350Y37963D01*
X34765Y38205D01*
D02*
G37*
G36*
X104398Y35744D02*
X103766D01*
X103181Y35502D01*
X102734Y35054D01*
X102491Y34470D01*
Y33837D01*
X102734Y33253D01*
X103181Y32805D01*
X103766Y32563D01*
X104398D01*
X104983Y32805D01*
X105430Y33253D01*
X105673Y33837D01*
Y34470D01*
X105430Y35054D01*
X104983Y35502D01*
X104398Y35744D01*
D02*
G37*
G36*
X9470Y35153D02*
X8837D01*
X8253Y34911D01*
X7805Y34464D01*
X7563Y33879D01*
Y33247D01*
X7805Y32662D01*
X8253Y32215D01*
X8837Y31972D01*
X9470D01*
X10054Y32215D01*
X10502Y32662D01*
X10744Y33247D01*
Y33879D01*
X10502Y34464D01*
X10054Y34911D01*
X9470Y35153D01*
D02*
G37*
G36*
X6911Y28559D02*
X6278D01*
X5694Y28317D01*
X5246Y27869D01*
X5004Y27285D01*
Y26652D01*
X5246Y26068D01*
X5694Y25620D01*
X6278Y25378D01*
X6911D01*
X7496Y25620D01*
X7943Y26068D01*
X8185Y26652D01*
Y27285D01*
X7943Y27869D01*
X7496Y28317D01*
X6911Y28559D01*
D02*
G37*
G36*
X97161Y26368D02*
X96528D01*
X95943Y26126D01*
X95496Y25679D01*
X95254Y25094D01*
Y24626D01*
X94904Y24481D01*
X94602Y24784D01*
X94017Y25026D01*
X93384D01*
X92800Y24784D01*
X92352Y24336D01*
X92110Y23752D01*
Y23119D01*
X92352Y22534D01*
X92800Y22087D01*
X93384Y21845D01*
X94017D01*
X94602Y22087D01*
X95049Y22534D01*
X95291Y23119D01*
Y23587D01*
X95641Y23732D01*
X95943Y23430D01*
X96528Y23187D01*
X97161D01*
X97746Y23430D01*
X98193Y23877D01*
X98435Y24462D01*
Y25094D01*
X98193Y25679D01*
X97746Y26126D01*
X97161Y26368D01*
D02*
G37*
G36*
X91159Y22168D02*
X90527D01*
X89942Y21926D01*
X89495Y21478D01*
X89252Y20894D01*
Y20261D01*
X89495Y19676D01*
X89942Y19229D01*
X90527Y18987D01*
X91159D01*
X91744Y19229D01*
X92191Y19676D01*
X92434Y20261D01*
Y20894D01*
X92191Y21478D01*
X91744Y21926D01*
X91159Y22168D01*
D02*
G37*
G36*
X100316Y16945D02*
X99684D01*
X99099Y16703D01*
X98652Y16255D01*
X98409Y15671D01*
Y15038D01*
X98488Y14849D01*
X98199Y14681D01*
X97751Y15128D01*
X97167Y15370D01*
X96534D01*
X95949Y15128D01*
X95502Y14681D01*
X95260Y14096D01*
Y13463D01*
X95502Y12879D01*
X95949Y12431D01*
X96534Y12189D01*
X97167D01*
X97751Y12431D01*
X98199Y12879D01*
X98441Y13463D01*
Y14096D01*
X98363Y14285D01*
X98652Y14453D01*
X99099Y14006D01*
X99684Y13764D01*
X100316D01*
X100901Y14006D01*
X101348Y14453D01*
X101591Y15038D01*
Y15671D01*
X101348Y16255D01*
X100901Y16703D01*
X100316Y16945D01*
D02*
G37*
G36*
X87471Y15391D02*
X86839D01*
X86254Y15149D01*
X85807Y14702D01*
X85565Y14117D01*
Y13484D01*
X85807Y12900D01*
X86254Y12452D01*
X86839Y12210D01*
X87471D01*
X88056Y12452D01*
X88503Y12900D01*
X88746Y13484D01*
Y14117D01*
X88503Y14702D01*
X88056Y15149D01*
X87471Y15391D01*
D02*
G37*
G36*
X18033Y14189D02*
X17400D01*
X16816Y13947D01*
X16368Y13499D01*
X16126Y12915D01*
Y12282D01*
X16368Y11698D01*
X16816Y11250D01*
X17400Y11008D01*
X18033D01*
X18618Y11250D01*
X19065Y11698D01*
X19307Y12282D01*
Y12915D01*
X19065Y13499D01*
X18618Y13947D01*
X18033Y14189D01*
D02*
G37*
G36*
X104057Y13106D02*
X103424D01*
X102839Y12864D01*
X102392Y12417D01*
X102150Y11832D01*
Y11199D01*
X102392Y10615D01*
X102839Y10167D01*
X103424Y9925D01*
X104057D01*
X104641Y10167D01*
X105089Y10615D01*
X105331Y11199D01*
Y11832D01*
X105089Y12417D01*
X104641Y12864D01*
X104057Y13106D01*
D02*
G37*
G36*
X93820Y12713D02*
X93188D01*
X92603Y12470D01*
X92155Y12023D01*
X91913Y11438D01*
Y10806D01*
X92155Y10221D01*
X92603Y9774D01*
X93188Y9532D01*
X93820D01*
X94405Y9774D01*
X94852Y10221D01*
X95095Y10806D01*
Y11438D01*
X94852Y12023D01*
X94405Y12470D01*
X93820Y12713D01*
D02*
G37*
G36*
X81802Y10915D02*
X81170D01*
X80585Y10673D01*
X80138Y10226D01*
X79896Y9641D01*
Y9008D01*
X80138Y8424D01*
X80266Y8296D01*
X80035Y8041D01*
X79450Y8283D01*
X78817D01*
X78233Y8041D01*
X77785Y7594D01*
X77543Y7009D01*
Y6376D01*
X77785Y5792D01*
X78233Y5345D01*
X78817Y5102D01*
X79450D01*
X80035Y5345D01*
X80482Y5792D01*
X80724Y6376D01*
Y7009D01*
X80482Y7594D01*
X80354Y7722D01*
X80585Y7976D01*
X81170Y7734D01*
X81802D01*
X82387Y7976D01*
X82835Y8424D01*
X83077Y9008D01*
Y9641D01*
X82835Y10226D01*
X82387Y10673D01*
X81802Y10915D01*
D02*
G37*
G36*
X90080Y11039D02*
X89447D01*
X88863Y10797D01*
X88415Y10350D01*
X88173Y9765D01*
Y9132D01*
X88415Y8548D01*
X88863Y8100D01*
X89447Y7858D01*
X90080D01*
X90665Y8100D01*
X91112Y8548D01*
X91354Y9132D01*
Y9765D01*
X91112Y10350D01*
X90665Y10797D01*
X90080Y11039D01*
D02*
G37*
G36*
X14958Y10630D02*
X14175D01*
X13452Y10330D01*
X12898Y9776D01*
X12598Y9053D01*
Y8270D01*
X12898Y7546D01*
X13452Y6993D01*
X14175Y6693D01*
X14958D01*
X15682Y6993D01*
X16236Y7546D01*
X16535Y8270D01*
Y9053D01*
X16236Y9776D01*
X15682Y10330D01*
X14958Y10630D01*
D02*
G37*
G36*
X109450Y54347D02*
X108660D01*
X107931Y54044D01*
X107373Y53486D01*
X107071Y52757D01*
Y52361D01*
X97977Y43266D01*
X97673Y42812D01*
X97566Y42275D01*
Y38919D01*
X92128Y33480D01*
X91731D01*
X91002Y33178D01*
X90444Y32620D01*
X90142Y31891D01*
Y31101D01*
X90306Y30705D01*
X90061Y30428D01*
X89272D01*
X88543Y30126D01*
X87985Y29567D01*
X87682Y28838D01*
Y28049D01*
X87985Y27319D01*
X88543Y26761D01*
X89272Y26459D01*
X90061D01*
X90791Y26761D01*
X91071Y27042D01*
X97354D01*
X108047Y16348D01*
Y12067D01*
X107626Y11824D01*
X107073Y11271D01*
X106683Y10595D01*
X106480Y9840D01*
Y9058D01*
X106683Y8303D01*
X107073Y7626D01*
X107626Y7073D01*
X108303Y6683D01*
X109058Y6480D01*
X109840D01*
X110595Y6683D01*
X111272Y7073D01*
X111824Y7626D01*
X112215Y8303D01*
X112417Y9058D01*
Y9840D01*
X112215Y10595D01*
X111824Y11271D01*
X111272Y11824D01*
X110851Y12067D01*
Y16929D01*
X110744Y17466D01*
X110440Y17920D01*
X98926Y29435D01*
X98471Y29739D01*
X97935Y29845D01*
X93739D01*
X93605Y30169D01*
X93808Y30372D01*
X94110Y31101D01*
Y31498D01*
X99959Y37347D01*
X100263Y37802D01*
X100370Y38338D01*
Y41695D01*
X109054Y50378D01*
X109450D01*
X110179Y50680D01*
X110737Y51238D01*
X111039Y51968D01*
Y52757D01*
X110737Y53486D01*
X110179Y54044D01*
X109450Y54347D01*
D02*
G37*
G36*
X74918Y11633D02*
X74286D01*
X73701Y11391D01*
X73254Y10943D01*
X73011Y10358D01*
Y9726D01*
X73254Y9141D01*
X73701Y8694D01*
X73964Y8585D01*
Y8206D01*
X73804Y8140D01*
X73356Y7692D01*
X73114Y7108D01*
Y6475D01*
X73356Y5890D01*
X73804Y5443D01*
X74388Y5201D01*
X75021D01*
X75606Y5443D01*
X76053Y5890D01*
X76295Y6475D01*
Y7108D01*
X76053Y7692D01*
X75606Y8140D01*
X75343Y8249D01*
Y8627D01*
X75503Y8694D01*
X75950Y9141D01*
X76193Y9726D01*
Y10358D01*
X75950Y10943D01*
X75503Y11391D01*
X74918Y11633D01*
D02*
G37*
G36*
X70789Y8283D02*
X70156D01*
X69572Y8041D01*
X69124Y7594D01*
X68882Y7009D01*
Y6376D01*
X69124Y5792D01*
X69572Y5345D01*
X70156Y5102D01*
X70789D01*
X71373Y5345D01*
X71821Y5792D01*
X72063Y6376D01*
Y7009D01*
X71821Y7594D01*
X71373Y8041D01*
X70789Y8283D01*
D02*
G37*
%LPD*%
G36*
X29231Y18973D02*
X29118Y18702D01*
Y17912D01*
X29420Y17183D01*
X29978Y16625D01*
X30708Y16323D01*
X31497D01*
X32226Y16625D01*
X32507Y16905D01*
X33921D01*
X35577Y15249D01*
X36032Y14945D01*
X36269Y14898D01*
X36684Y14483D01*
X36486Y14186D01*
X36242Y14287D01*
X35609D01*
X35024Y14045D01*
X34577Y13598D01*
X34335Y13013D01*
Y12381D01*
X34577Y11796D01*
X35024Y11348D01*
X35609Y11106D01*
X36242D01*
X36826Y11348D01*
X37274Y11796D01*
X37516Y12381D01*
Y13013D01*
X37415Y13257D01*
X37711Y13456D01*
X38567Y12600D01*
Y12204D01*
X38869Y11474D01*
X39427Y10916D01*
X40156Y10614D01*
X40946D01*
X41675Y10916D01*
X42233Y11474D01*
X42535Y12204D01*
Y12993D01*
X42233Y13722D01*
X41675Y14281D01*
X40946Y14583D01*
X40550D01*
X39181Y15951D01*
X39315Y16274D01*
X43225D01*
X46927Y12573D01*
X47382Y12269D01*
X47918Y12162D01*
X54359D01*
X55102Y11419D01*
Y11065D01*
X54752Y10831D01*
X54725Y10842D01*
X53936D01*
X53207Y10540D01*
X53052Y10386D01*
X52709Y10454D01*
X52631Y10642D01*
X52183Y11090D01*
X51599Y11332D01*
X50966D01*
X50381Y11090D01*
X49934Y10642D01*
X49692Y10058D01*
Y9977D01*
X49342Y9907D01*
X49197Y10257D01*
X48749Y10704D01*
X48165Y10947D01*
X47532D01*
X46948Y10704D01*
X46500Y10257D01*
X46258Y9672D01*
Y9040D01*
X46423Y8642D01*
X46206Y8292D01*
X35915D01*
X25293Y18914D01*
X25438Y19264D01*
X29036D01*
X29231Y18973D01*
D02*
G37*
%LPC*%
G36*
X45001Y13303D02*
X44369D01*
X43784Y13061D01*
X43337Y12614D01*
X43095Y12029D01*
Y11396D01*
X43337Y10812D01*
X43784Y10364D01*
X44369Y10122D01*
X45001D01*
X45586Y10364D01*
X46033Y10812D01*
X46276Y11396D01*
Y12029D01*
X46033Y12614D01*
X45586Y13061D01*
X45001Y13303D01*
D02*
G37*
%LPD*%
D29*
X97935Y28443D02*
X109449Y16929D01*
X89667Y28443D02*
X97935D01*
X36909Y16240D02*
X40551Y12598D01*
X36568Y16240D02*
X36909D01*
X92126Y31496D02*
X98968Y38338D01*
Y42275D01*
X109449Y9449D02*
Y16929D01*
X98968Y42275D02*
X109055Y52362D01*
X18370Y57680D02*
X19685Y56135D01*
X41295Y23524D02*
X48753Y16066D01*
X19685Y53248D02*
Y56135D01*
X19094Y52658D02*
X19685Y53248D01*
X19094Y41630D02*
Y52658D01*
X31262Y23524D02*
X41295D01*
X54940Y13564D02*
X57087Y11417D01*
Y11122D02*
Y11417D01*
X54224Y8858D02*
X54331D01*
X52256Y6890D02*
X54224Y8858D01*
X35335Y6890D02*
X52256D01*
X19783Y22441D02*
Y40941D01*
Y22441D02*
X35335Y6890D01*
X19094Y41630D02*
X19783Y40941D01*
X21958Y46478D02*
X26615Y41821D01*
X21804Y46478D02*
X21958D01*
X48757Y19783D02*
X56992D01*
X64374Y10494D02*
Y12401D01*
X56992Y19783D02*
X64374Y12401D01*
X64013Y10133D02*
X64374Y10494D01*
X64013Y8142D02*
Y10133D01*
X63779Y7908D02*
X64013Y8142D01*
X47918Y13564D02*
X54940D01*
X43806Y17676D02*
X47918Y13564D01*
X31102Y18307D02*
X34501D01*
X25286Y20666D02*
X34038D01*
X34501Y18307D02*
X36568Y16240D01*
X34038Y20666D02*
X37028Y17676D01*
X43806D01*
X22912Y23040D02*
X25286Y20666D01*
X30950Y29429D02*
X39112D01*
X26615Y33765D02*
Y41821D01*
Y33765D02*
X30950Y29429D01*
X39112D02*
X48757Y19783D01*
D33*
X109449Y9449D02*
D03*
D34*
X32283Y87795D02*
D03*
X11024D02*
D03*
X14961Y71653D02*
D03*
X32283Y70866D02*
D03*
X118110Y77953D02*
D03*
X35036Y32480D02*
D03*
X85527Y8755D02*
D03*
X92126Y31496D02*
D03*
X89667Y28443D02*
D03*
X91732Y34646D02*
D03*
X109055Y52362D02*
D03*
X80315Y30413D02*
D03*
X75984D02*
D03*
X71653D02*
D03*
X67323D02*
D03*
X62992D02*
D03*
X58661D02*
D03*
X54331D02*
D03*
X50000D02*
D03*
X45669D02*
D03*
X80315Y34744D02*
D03*
X75984D02*
D03*
X71653D02*
D03*
X67323D02*
D03*
X62992D02*
D03*
X58661D02*
D03*
X54331D02*
D03*
X50000D02*
D03*
X45669D02*
D03*
X80315Y39075D02*
D03*
X75984D02*
D03*
X71653D02*
D03*
X67323D02*
D03*
X62992D02*
D03*
X58661D02*
D03*
X54331D02*
D03*
X50000D02*
D03*
X45669D02*
D03*
X80315Y43406D02*
D03*
X75984D02*
D03*
X71653D02*
D03*
X67323D02*
D03*
X62992D02*
D03*
X58661D02*
D03*
X54331D02*
D03*
X50000D02*
D03*
X45669D02*
D03*
X80315Y47736D02*
D03*
X75984D02*
D03*
X71653D02*
D03*
X67323D02*
D03*
X62992D02*
D03*
X58661D02*
D03*
X54331D02*
D03*
X50000D02*
D03*
X45669D02*
D03*
X80315Y52067D02*
D03*
X75984D02*
D03*
X71653D02*
D03*
X67323D02*
D03*
X62992D02*
D03*
X58661D02*
D03*
X54331D02*
D03*
X50000D02*
D03*
X45669D02*
D03*
X80315Y56398D02*
D03*
X75984D02*
D03*
X71653D02*
D03*
X67323D02*
D03*
X62992D02*
D03*
X58661D02*
D03*
X54331D02*
D03*
X50000D02*
D03*
X45669D02*
D03*
X80315Y60728D02*
D03*
X75984D02*
D03*
X71653D02*
D03*
X67323D02*
D03*
X62992D02*
D03*
X58661D02*
D03*
X54331D02*
D03*
X50000D02*
D03*
X45669D02*
D03*
X80315Y65059D02*
D03*
X75984D02*
D03*
X71653D02*
D03*
X67323D02*
D03*
X62992D02*
D03*
X58661D02*
D03*
X54331D02*
D03*
X50000D02*
D03*
X45669D02*
D03*
X95374Y58071D02*
D03*
X104833Y53808D02*
D03*
X11811Y12598D02*
D03*
X99606Y77953D02*
D03*
X75590Y75984D02*
D03*
X50886Y75590D02*
D03*
X18370Y57680D02*
D03*
X23107Y56496D02*
D03*
X48753Y16066D02*
D03*
X57087Y11122D02*
D03*
X9055Y40354D02*
D03*
X54331Y8858D02*
D03*
X21804Y46478D02*
D03*
X104082Y29454D02*
D03*
X104101Y39494D02*
D03*
X108800Y37147D02*
D03*
X63779Y7908D02*
D03*
X33268Y15256D02*
D03*
X31102Y18307D02*
D03*
X7874Y65256D02*
D03*
X117815Y47539D02*
D03*
X32579Y66929D02*
D03*
X9154Y44291D02*
D03*
X117595Y42172D02*
D03*
X94784Y66634D02*
D03*
X35773Y58607D02*
D03*
X17164Y39113D02*
D03*
X15948Y51577D02*
D03*
X104997Y44917D02*
D03*
X91732Y84449D02*
D03*
X91535Y54035D02*
D03*
X40551Y12598D02*
D03*
X31262Y23524D02*
D03*
X22912Y23040D02*
D03*
X32382Y48130D02*
D03*
X34744Y50886D02*
D03*
M02*
