G04*
G04 #@! TF.GenerationSoftware,Altium Limited,Altium Designer,24.6.1 (21)*
G04*
G04 Layer_Color=128*
%FSLAX25Y25*%
%MOIN*%
G70*
G04*
G04 #@! TF.SameCoordinates,067462B6-B514-4C86-AA71-8EC8C8ED5DA5*
G04*
G04*
G04 #@! TF.FilePolarity,Positive*
G04*
G01*
G75*
%ADD35R,0.03937X0.01181*%
D35*
X12598Y28543D02*
D03*
X26772D02*
D03*
X12598Y30512D02*
D03*
X26772D02*
D03*
X12598Y32480D02*
D03*
X26772D02*
D03*
X12598Y34449D02*
D03*
X26772D02*
D03*
X12598Y36417D02*
D03*
X26772D02*
D03*
X12598Y38386D02*
D03*
X26772D02*
D03*
X12598Y40354D02*
D03*
X26772D02*
D03*
X12598Y42323D02*
D03*
X26772D02*
D03*
X12598Y44291D02*
D03*
X26772D02*
D03*
X12598Y46260D02*
D03*
X26772D02*
D03*
X12598Y48228D02*
D03*
X26772D02*
D03*
X12598Y50197D02*
D03*
X26772D02*
D03*
X12598Y52165D02*
D03*
X26772D02*
D03*
X12598Y54134D02*
D03*
X26772D02*
D03*
X12598Y56102D02*
D03*
X26772D02*
D03*
X12598Y58071D02*
D03*
X26772D02*
D03*
X12598Y60039D02*
D03*
X26772D02*
D03*
X12598Y62008D02*
D03*
X26772D02*
D03*
X12598Y63976D02*
D03*
X26772D02*
D03*
X12598Y65945D02*
D03*
X26772D02*
D03*
X99213Y28543D02*
D03*
X113386D02*
D03*
X99213Y30512D02*
D03*
X113386D02*
D03*
X99213Y32480D02*
D03*
X113386D02*
D03*
X99213Y34449D02*
D03*
X113386D02*
D03*
X99213Y36417D02*
D03*
X113386D02*
D03*
X99213Y38386D02*
D03*
X113386D02*
D03*
X99213Y40354D02*
D03*
X113386D02*
D03*
X99213Y42323D02*
D03*
X113386D02*
D03*
X99213Y44291D02*
D03*
X113386D02*
D03*
X99213Y46260D02*
D03*
X113386D02*
D03*
X99213Y48228D02*
D03*
X113386D02*
D03*
X99213Y50197D02*
D03*
X113386D02*
D03*
X99213Y52165D02*
D03*
X113386D02*
D03*
X99213Y54134D02*
D03*
X113386D02*
D03*
X99213Y56102D02*
D03*
X113386D02*
D03*
X99213Y58071D02*
D03*
X113386D02*
D03*
X99213Y60039D02*
D03*
X113386D02*
D03*
X99213Y62008D02*
D03*
X113386D02*
D03*
X99213Y63976D02*
D03*
X113386D02*
D03*
X99213Y65945D02*
D03*
X113386D02*
D03*
M02*
