G04*
G04 #@! TF.GenerationSoftware,Altium Limited,Altium Designer,24.6.1 (21)*
G04*
G04 Layer_Physical_Order=6*
G04 Layer_Color=16711680*
%FSLAX25Y25*%
%MOIN*%
G70*
G04*
G04 #@! TF.SameCoordinates,FCA5704B-31CB-4EDA-9B93-1EE264664BD2*
G04*
G04*
G04 #@! TF.FilePolarity,Positive*
G04*
G01*
G75*
%ADD26C,0.00750*%
%ADD30C,0.01968*%
%ADD31R,0.03937X0.01181*%
%ADD32C,0.01000*%
G36*
X120843Y45660D02*
X120381Y45468D01*
X119992Y45857D01*
X119496Y46189D01*
X119191Y46249D01*
X118966Y46787D01*
X119110Y47003D01*
X119217Y47539D01*
Y47724D01*
X119110Y48260D01*
X118806Y48715D01*
X116549Y50973D01*
X116354Y51103D01*
Y53756D01*
X110417D01*
Y50204D01*
X110040Y49819D01*
X109251D01*
X108522Y49517D01*
X107964Y48959D01*
X107852Y48689D01*
X107262Y48572D01*
X106614Y49220D01*
X106159Y49524D01*
X105623Y49630D01*
X103621D01*
X103429Y50092D01*
X105824Y52487D01*
X106128Y52942D01*
X106235Y53478D01*
Y53808D01*
X106128Y54345D01*
X105824Y54799D01*
X105661Y54962D01*
X105207Y55266D01*
X104670Y55373D01*
X102181D01*
Y58637D01*
X110417D01*
Y54512D01*
Y54512D01*
X116354D01*
Y56480D01*
Y57693D01*
X113386D01*
Y58449D01*
X116354D01*
Y60417D01*
Y63599D01*
X113386D01*
Y64945D01*
X110417D01*
Y63410D01*
X102181D01*
Y64945D01*
X99213D01*
Y65945D01*
X98213D01*
Y67535D01*
X96244D01*
Y67535D01*
X95779Y67621D01*
X95775Y67625D01*
X95320Y67929D01*
X94784Y68036D01*
X94247Y67929D01*
X93792Y67625D01*
X93488Y67170D01*
X93429Y66875D01*
X92897Y66700D01*
X92856Y66741D01*
X92127Y67043D01*
X91338D01*
X90608Y66741D01*
X90050Y66183D01*
X89748Y65454D01*
Y64664D01*
X90050Y63935D01*
X90281Y63704D01*
Y60016D01*
X89952Y59687D01*
X89650Y58958D01*
Y58168D01*
X89952Y57439D01*
X90510Y56881D01*
X91239Y56579D01*
X92028D01*
X92758Y56881D01*
X93316Y57439D01*
X93500Y57882D01*
X94020Y57831D01*
X94079Y57534D01*
X94383Y57079D01*
X94837Y56776D01*
X95173Y56709D01*
X95368Y56197D01*
X93103Y53932D01*
X92799Y53477D01*
X92693Y52940D01*
Y49302D01*
X92193Y49095D01*
X91872Y49415D01*
X91143Y49718D01*
X90353D01*
X89624Y49415D01*
X89066Y48857D01*
X88764Y48128D01*
Y47339D01*
X89066Y46609D01*
X89624Y46051D01*
X90353Y45749D01*
X91143D01*
X91872Y46051D01*
X92193Y46372D01*
X92693Y46165D01*
Y44446D01*
X91751Y43504D01*
X91027D01*
X90298Y43202D01*
X89740Y42644D01*
X89438Y41915D01*
Y41126D01*
X89740Y40396D01*
X90298Y39838D01*
X91027Y39536D01*
X91817D01*
X92546Y39838D01*
X92736Y40028D01*
X93381Y39966D01*
X93735Y39612D01*
X93885Y39549D01*
X93983Y39059D01*
X93202Y38278D01*
X93015Y37998D01*
X92593Y37839D01*
X92393Y37849D01*
X91772Y38106D01*
X90983D01*
X90253Y37804D01*
X89695Y37246D01*
X89393Y36517D01*
Y35727D01*
X89695Y34998D01*
X90253Y34440D01*
X90983Y34138D01*
X91772D01*
X92291Y34353D01*
X92791Y34076D01*
Y32776D01*
X73844Y13829D01*
X73540Y13374D01*
X73433Y12837D01*
Y11680D01*
X72920Y11166D01*
X72618Y10437D01*
Y9647D01*
X72920Y8918D01*
X73473Y8365D01*
X73023Y7915D01*
X72839Y7472D01*
X72298D01*
X72155Y7817D01*
X71596Y8375D01*
X70867Y8677D01*
X70078D01*
X69349Y8375D01*
X68790Y7817D01*
X68488Y7088D01*
Y6298D01*
X68760Y5641D01*
X68565Y5141D01*
X59145D01*
X58938Y5641D01*
X61155Y7858D01*
X61221D01*
X61379Y7924D01*
X61795Y7646D01*
Y7514D01*
X62097Y6785D01*
X62656Y6226D01*
X63385Y5924D01*
X64174D01*
X64903Y6226D01*
X65462Y6785D01*
X65764Y7514D01*
Y7647D01*
X66264Y7972D01*
X66699Y7792D01*
X67488D01*
X68218Y8094D01*
X68776Y8652D01*
X69078Y9381D01*
Y10171D01*
X68776Y10900D01*
X68496Y11180D01*
Y11646D01*
X68389Y12183D01*
X68085Y12638D01*
X53255Y27468D01*
X52800Y27772D01*
X52264Y27878D01*
X32964D01*
X32772Y28340D01*
X35707Y31274D01*
X36028Y31489D01*
X36332Y31944D01*
X36438Y32480D01*
X36332Y33017D01*
X36028Y33472D01*
X35836Y33599D01*
X35200Y34236D01*
X35317Y34826D01*
X35573Y34932D01*
X36131Y35490D01*
X36433Y36219D01*
Y37009D01*
X36131Y37738D01*
X35573Y38296D01*
X34844Y38598D01*
X34054D01*
X33325Y38296D01*
X32767Y37738D01*
X32661Y37482D01*
X32071Y37365D01*
X32027Y37409D01*
X31572Y37712D01*
X31036Y37819D01*
X29740D01*
Y38952D01*
X31516D01*
X32053Y39059D01*
X32508Y39363D01*
X33368Y40224D01*
X33672Y40679D01*
X33779Y41215D01*
Y45271D01*
Y48105D01*
X33784Y48130D01*
X33677Y48666D01*
X33373Y49121D01*
X33324Y49170D01*
X32869Y49474D01*
X32656Y49517D01*
X32491Y50059D01*
X32686Y50254D01*
X32988Y50983D01*
Y51773D01*
X32686Y52502D01*
X32525Y52663D01*
X32620Y53141D01*
X33178Y53699D01*
X33480Y54428D01*
Y55217D01*
X33178Y55947D01*
X32620Y56505D01*
X32422Y56587D01*
X32406Y56787D01*
X32472Y57108D01*
X33112Y57373D01*
X33670Y57931D01*
X33972Y58660D01*
Y59450D01*
X33927Y59559D01*
X34317Y59925D01*
X35040D01*
X35770Y60227D01*
X36328Y60786D01*
X36630Y61515D01*
Y62304D01*
X36328Y63033D01*
X35770Y63592D01*
X35040Y63894D01*
X34251D01*
X33522Y63592D01*
X33291Y63361D01*
X31646D01*
X31455Y63823D01*
X33570Y65938D01*
X33874Y66393D01*
X33981Y66929D01*
X33874Y67466D01*
X33570Y67921D01*
X33115Y68224D01*
X32579Y68331D01*
X32042Y68224D01*
X31587Y67921D01*
X31014Y67347D01*
X29740D01*
Y67535D01*
X27772D01*
Y65945D01*
X26772D01*
Y64945D01*
X23803D01*
Y63311D01*
X15567D01*
Y64945D01*
X12598D01*
Y65945D01*
X11598D01*
Y67535D01*
X9630D01*
Y67209D01*
X8755D01*
X8218Y67102D01*
X7764Y66798D01*
X7561Y66596D01*
X7338Y66551D01*
X6883Y66247D01*
X6579Y65792D01*
X6472Y65256D01*
X6579Y64719D01*
X6883Y64265D01*
X7129Y64018D01*
X7031Y63528D01*
X6947Y63493D01*
X6389Y62935D01*
X6087Y62206D01*
Y61416D01*
X6389Y60687D01*
X6947Y60129D01*
X7676Y59827D01*
X8402D01*
X8965Y59264D01*
X9420Y58960D01*
X9630Y58918D01*
Y56480D01*
Y56480D01*
X12598D01*
Y55725D01*
X9630D01*
Y52607D01*
X9351Y52181D01*
X8562D01*
X7833Y51879D01*
X7275Y51321D01*
X6972Y50591D01*
Y49802D01*
X7275Y49073D01*
X7833Y48515D01*
X8562Y48213D01*
X9351D01*
X9630Y48026D01*
Y45693D01*
X9154D01*
X8617Y45586D01*
X8162Y45283D01*
X7858Y44828D01*
X7752Y44291D01*
X7858Y43755D01*
X8162Y43300D01*
X8617Y42996D01*
X9154Y42889D01*
X9630D01*
Y41756D01*
X9055D01*
X8519Y41649D01*
X8064Y41346D01*
X5803Y39085D01*
X5641Y38843D01*
X5141Y38994D01*
Y89347D01*
X120843D01*
Y45660D01*
D02*
G37*
G36*
X110417Y30890D02*
Y30890D01*
X113386D01*
Y29512D01*
Y27543D01*
X110417D01*
Y26953D01*
X113080D01*
X113272Y26491D01*
X109802Y23021D01*
X100375D01*
X99790Y22905D01*
X99294Y22573D01*
X98569Y21848D01*
X98069Y22056D01*
Y23374D01*
X98349Y23654D01*
X98651Y24383D01*
Y25173D01*
X98349Y25902D01*
X97798Y26453D01*
X97799Y26495D01*
X97908Y26953D01*
X98213D01*
Y28543D01*
X99213D01*
Y29512D01*
Y30890D01*
X102181D01*
Y32541D01*
X102681Y32748D01*
X102958Y32471D01*
X103687Y32169D01*
X104477D01*
X105206Y32471D01*
X105634Y32899D01*
X110417D01*
Y30890D01*
D02*
G37*
G36*
X16199Y33849D02*
X16928Y33547D01*
X17718D01*
X17969Y33651D01*
X18384Y33373D01*
Y31604D01*
X18491Y31067D01*
X18795Y30613D01*
X23923Y25485D01*
X24377Y25181D01*
X24914Y25074D01*
X29353D01*
X29549Y24574D01*
X29278Y23918D01*
Y23129D01*
X29580Y22400D01*
X30138Y21842D01*
X30867Y21539D01*
X31657D01*
X32386Y21842D01*
X32944Y22400D01*
X33246Y23129D01*
Y23918D01*
X32974Y24574D01*
X33170Y25074D01*
X51683D01*
X61491Y15266D01*
X61208Y14842D01*
X60810Y15007D01*
X60021D01*
X59292Y14705D01*
X58733Y14147D01*
X58431Y13418D01*
Y13237D01*
X57931Y12920D01*
X57481Y13106D01*
X56692D01*
X55963Y12804D01*
X55404Y12246D01*
X55102Y11517D01*
Y11228D01*
X54725Y10842D01*
X53936D01*
X53207Y10540D01*
X52978Y10834D01*
X52965Y10865D01*
X52406Y11423D01*
X51677Y11725D01*
X50888D01*
X50158Y11423D01*
X49663Y10928D01*
X49114Y10897D01*
X48972Y11038D01*
X48243Y11340D01*
X47454D01*
X47131Y11207D01*
X47110Y11212D01*
X46669Y11557D01*
Y12107D01*
X46367Y12837D01*
X45809Y13395D01*
X45080Y13697D01*
X44290D01*
X43561Y13395D01*
X43035Y12869D01*
X42856Y12886D01*
X42708Y12935D01*
X42531Y13004D01*
X42233Y13722D01*
X41675Y14281D01*
X40946Y14583D01*
X40156D01*
X39427Y14281D01*
X38869Y13722D01*
X38567Y12993D01*
Y12204D01*
X38869Y11474D01*
X39427Y10916D01*
X40156Y10614D01*
X40946D01*
X41675Y10916D01*
X42201Y11442D01*
X42380Y11425D01*
X42528Y11376D01*
X42705Y11307D01*
X43003Y10589D01*
X43561Y10030D01*
X44290Y9728D01*
X45080D01*
X45402Y9862D01*
X45424Y9857D01*
X45864Y9512D01*
Y8961D01*
X46166Y8232D01*
X46232Y8166D01*
X46041Y7704D01*
X36798D01*
X23724Y20778D01*
X23822Y21269D01*
X24036Y21358D01*
X24595Y21916D01*
X24897Y22645D01*
Y23434D01*
X24595Y24164D01*
X24036Y24722D01*
X23307Y25024D01*
X22518D01*
X21788Y24722D01*
X21230Y24164D01*
X21141Y23949D01*
X20651Y23851D01*
X16543Y27960D01*
X16088Y28264D01*
X15567Y28367D01*
Y29512D01*
X12598D01*
Y30890D01*
X15567D01*
Y33774D01*
X16067Y33981D01*
X16199Y33849D01*
D02*
G37*
G36*
X91529Y24945D02*
Y24423D01*
X91831Y23694D01*
X92299Y23226D01*
Y21250D01*
X87010Y15961D01*
X86911D01*
X86182Y15658D01*
X85624Y15100D01*
X85322Y14371D01*
Y13582D01*
X85624Y12852D01*
X86182Y12294D01*
X86911Y11992D01*
X87701D01*
X87848Y12053D01*
X88263Y11775D01*
Y9869D01*
X87983Y9589D01*
X87681Y8859D01*
Y8070D01*
X87742Y7923D01*
X87464Y7507D01*
X85104D01*
X83426Y9185D01*
Y9764D01*
X83124Y10493D01*
X82565Y11051D01*
X81836Y11354D01*
X81566D01*
X81359Y11853D01*
X89470Y19965D01*
X89866D01*
X90596Y20267D01*
X91154Y20825D01*
X91456Y21554D01*
Y22343D01*
X91154Y23073D01*
X90596Y23631D01*
X90326Y23743D01*
X90209Y24332D01*
X91029Y25152D01*
X91529Y24945D01*
D02*
G37*
%LPC*%
G36*
X58915Y78658D02*
X58125D01*
X57396Y78355D01*
X56838Y77797D01*
X56536Y77068D01*
Y76279D01*
X56838Y75549D01*
X57396Y74991D01*
X58125Y74689D01*
X58915D01*
X59644Y74991D01*
X60202Y75549D01*
X60504Y76279D01*
Y77068D01*
X60202Y77797D01*
X59644Y78355D01*
X58915Y78658D01*
D02*
G37*
G36*
X15567Y67535D02*
X13598D01*
Y66945D01*
X15567D01*
Y67535D01*
D02*
G37*
G36*
X116354D02*
X114386D01*
Y66945D01*
X116354D01*
Y67535D01*
D02*
G37*
G36*
X112386D02*
X110417D01*
Y66945D01*
X112386D01*
Y67535D01*
D02*
G37*
G36*
X102181D02*
X100213D01*
Y66945D01*
X102181D01*
Y67535D01*
D02*
G37*
G36*
X25772D02*
X23803D01*
Y66945D01*
X25772D01*
Y67535D01*
D02*
G37*
G36*
X102181Y27543D02*
X100213D01*
Y26953D01*
X102181D01*
Y27543D01*
D02*
G37*
G36*
X38879Y22071D02*
X38090D01*
X37360Y21769D01*
X36802Y21211D01*
X36500Y20481D01*
Y19692D01*
X36802Y18963D01*
X37360Y18405D01*
X38090Y18102D01*
X38879D01*
X39608Y18405D01*
X40166Y18963D01*
X40468Y19692D01*
Y20481D01*
X40166Y21211D01*
X39608Y21769D01*
X38879Y22071D01*
D02*
G37*
G36*
X31497Y20291D02*
X30708D01*
X29978Y19989D01*
X29420Y19431D01*
X29118Y18702D01*
Y17912D01*
X29420Y17183D01*
X29978Y16625D01*
X30708Y16323D01*
X31497D01*
X32226Y16625D01*
X32785Y17183D01*
X33087Y17912D01*
Y18702D01*
X32785Y19431D01*
X32226Y19989D01*
X31497Y20291D01*
D02*
G37*
G36*
X49148Y18050D02*
X48358D01*
X47629Y17748D01*
X47071Y17190D01*
X46769Y16461D01*
Y15671D01*
X47071Y14942D01*
X47629Y14384D01*
X48358Y14082D01*
X49148D01*
X49877Y14384D01*
X50435Y14942D01*
X50737Y15671D01*
Y16461D01*
X50435Y17190D01*
X49877Y17748D01*
X49148Y18050D01*
D02*
G37*
G36*
X36320Y14681D02*
X35530D01*
X34801Y14379D01*
X34243Y13821D01*
X33941Y13092D01*
Y12302D01*
X34243Y11573D01*
X34801Y11015D01*
X35530Y10713D01*
X36320D01*
X37049Y11015D01*
X37607Y11573D01*
X37909Y12302D01*
Y13092D01*
X37607Y13821D01*
X37049Y14379D01*
X36320Y14681D01*
D02*
G37*
%LPD*%
D26*
X99269Y44235D02*
X102343D01*
X99213Y44291D02*
X99269Y44235D01*
X102343D02*
X104020Y42558D01*
X96667Y21371D02*
Y24778D01*
X89665Y8465D02*
Y14370D01*
X96667Y21371D01*
X87306Y14275D02*
X93701Y20669D01*
X87306Y13976D02*
Y14275D01*
X93701Y20669D02*
Y24630D01*
X12598Y54134D02*
X16240D01*
X16929Y54823D01*
X22933Y56102D02*
X26772D01*
X22539Y56496D02*
X22933Y56102D01*
X91683Y65010D02*
X91732Y65059D01*
X91634Y58563D02*
X91683Y58612D01*
Y65010D01*
X91422Y41520D02*
X91750D01*
X94095Y43865D01*
X94859Y41294D02*
X95077Y41511D01*
X36217Y6302D02*
X57616D01*
X15551Y26969D02*
X36217Y6302D01*
X6594Y26969D02*
X15551D01*
X7677Y30512D02*
X9430Y28759D01*
X7677Y30512D02*
X12598D01*
X6794Y31395D02*
X7677Y30512D01*
X6794Y31395D02*
Y38094D01*
X9055Y40354D01*
X9430Y28759D02*
X12383D01*
X12598Y28543D01*
X9288Y37771D02*
Y40121D01*
X9055Y40354D02*
X9288Y40121D01*
X9055Y40354D02*
X12598D01*
X9154Y33563D02*
X10021Y32696D01*
X9824Y34233D02*
X12383D01*
X9154Y33563D02*
X9824Y34233D01*
X57616Y6302D02*
X60827Y9513D01*
X12708Y46369D02*
X21695D01*
X21804Y46478D01*
X24914Y26476D02*
X52264D01*
X67094Y11646D01*
Y9776D02*
Y11646D01*
X104082Y34301D02*
X113238D01*
X103934D02*
X104082Y34154D01*
X99360Y34301D02*
X103934D01*
X104101Y39494D02*
Y39600D01*
X101593Y42107D02*
X104101Y39600D01*
X110153Y38170D02*
X113170D01*
X109130Y37147D02*
X110153Y38170D01*
X108800Y37147D02*
X109130D01*
X107776Y40861D02*
Y41078D01*
X113170Y38170D02*
X113386Y38386D01*
X99213D02*
X103002D01*
X104093Y39477D01*
X104670Y53971D02*
X104833Y53808D01*
X99375Y53971D02*
X104670D01*
X99213Y54134D02*
X99375Y53971D01*
X8204Y65256D02*
X8755Y65807D01*
X12461D02*
X12598Y65945D01*
X8755Y65807D02*
X12461D01*
X7874Y65256D02*
X8204D01*
X7874D02*
X9154Y63976D01*
X12598D01*
X31594Y65945D02*
X32579Y66929D01*
X29842Y64192D02*
X31594Y65945D01*
X26772Y63976D02*
X26987Y64192D01*
X29842D01*
X12598Y60039D02*
X26772D01*
X12697Y61909D02*
X24393D01*
Y61811D02*
X26772D01*
X8071Y61614D02*
X8597D01*
X9957Y60255D01*
X12383D02*
X12598Y60039D01*
X9957Y60255D02*
X12383D01*
X8071Y61614D02*
Y61811D01*
X95374Y58071D02*
X95374Y58071D01*
X99213D01*
X97619Y64192D02*
X97835Y63976D01*
X97225Y64192D02*
X97619D01*
X95472Y65945D02*
X97225Y64192D01*
X97835Y63976D02*
X99213D01*
X94784Y66634D02*
X95472Y65945D01*
X117815Y47539D02*
Y47724D01*
X113386Y50197D02*
X113601Y49981D01*
X115557D01*
X117815Y47724D01*
X116751Y46475D02*
X117815Y47539D01*
X113601Y46475D02*
X116751D01*
X113386Y46260D02*
X113601Y46475D01*
X12383Y36633D02*
X12598Y36417D01*
X10427Y36633D02*
X12383D01*
X9288Y37771D02*
X10427Y36633D01*
X30993Y28543D02*
X32961Y30512D01*
X26772Y28543D02*
X30993D01*
X34973Y32480D02*
X35036D01*
X34930D02*
X34973D01*
X26772Y30512D02*
X32961D01*
X34930Y32480D01*
X26772Y36417D02*
X31036D01*
X34973Y32480D01*
X29448Y32696D02*
X30234Y33482D01*
X30312D01*
X16278Y51577D02*
X16866Y52165D01*
X26772D01*
X15948Y51577D02*
X16278D01*
X26772Y65945D02*
X31594D01*
X9154Y44291D02*
X12598D01*
X15289Y48444D02*
X15948Y49103D01*
X12814Y48444D02*
X15289D01*
X15948Y49103D02*
Y51577D01*
X12598Y48228D02*
X12814Y48444D01*
X31516Y40354D02*
X32377Y41215D01*
Y45271D01*
X26772Y40354D02*
X31516D01*
X26772Y44291D02*
X31398D01*
X32377Y45271D01*
Y48125D01*
X32382Y48130D01*
X26821Y48179D02*
X32333D01*
X32382Y48130D01*
X26772Y48228D02*
X26821Y48179D01*
X117519Y42248D02*
X117595Y42172D01*
X113386Y42323D02*
X113461Y42248D01*
X117519D01*
X95472Y65945D02*
X99213D01*
X26919Y61959D02*
X34596D01*
X34646Y61910D01*
X14770Y38170D02*
X17323Y35618D01*
Y35531D02*
Y35618D01*
X17316Y42323D02*
X19786Y39852D01*
Y31604D02*
Y39852D01*
Y31604D02*
X24914Y26476D01*
X15846Y40354D02*
X17088Y39113D01*
X17164D01*
X12814Y38170D02*
X14770D01*
X12598Y40354D02*
X15846D01*
X12598Y38386D02*
X12814Y38170D01*
X15245Y51950D02*
X15618Y51577D01*
X15948D01*
X12814Y51950D02*
X15245D01*
X12598Y52165D02*
X12814Y51950D01*
X23797Y44310D02*
X23838D01*
X22458Y42971D02*
X23797Y44310D01*
X22128Y42971D02*
X22458D01*
X99213Y34449D02*
X99360Y34301D01*
X99428Y42107D02*
X101593D01*
X99213Y42323D02*
X99428Y42107D01*
X106296Y42558D02*
X107776Y41078D01*
X104020Y42558D02*
X106296D01*
X95077Y41511D02*
Y42952D01*
X104701Y45213D02*
X104724Y45235D01*
X104701Y45213D02*
X104997Y44917D01*
X104724Y45235D02*
Y45632D01*
X104096Y46260D02*
X104724Y45632D01*
X99213Y46260D02*
X104096D01*
X101767Y50412D02*
X104833Y53478D01*
X99428Y50412D02*
X101767D01*
X104833Y53478D02*
Y53808D01*
X99213Y50197D02*
X99428Y50412D01*
X94095Y43865D02*
Y52940D01*
X74835Y12837D02*
X94193Y32195D01*
X76961Y9065D02*
Y13068D01*
X95534Y31640D02*
Y34694D01*
X76961Y13068D02*
X95534Y31640D01*
X74835Y10275D02*
Y12837D01*
X74602Y10042D02*
X74835Y10275D01*
X95534Y34694D02*
X97041Y36202D01*
X94193Y32195D02*
Y37286D01*
X84523Y6105D02*
X98330D01*
X103740Y11516D01*
X81441Y9187D02*
X84523Y6105D01*
X78949Y6877D02*
Y11427D01*
Y6877D02*
X79134Y6693D01*
X78949Y11427D02*
X89472Y21949D01*
X81441Y9187D02*
Y9369D01*
X74705Y6808D02*
X76961Y9065D01*
X74705Y6791D02*
Y6808D01*
X60827Y9513D02*
Y9843D01*
X99213Y60039D02*
X113386D01*
X99213Y62008D02*
X113386D01*
X94523D02*
X99213D01*
X96276Y60255D02*
X98997D01*
X94523Y62008D02*
X96276Y60255D01*
X98997D02*
X99213Y60039D01*
X94193Y62008D02*
X94523D01*
X22241Y39747D02*
X23838Y41344D01*
X22241Y39567D02*
Y39747D01*
X12598Y42323D02*
X17316D01*
X23838Y41344D02*
Y41345D01*
X24489Y38170D02*
X26556D01*
X22560Y36241D02*
X24489Y38170D01*
X26987Y32696D02*
X29448D01*
X29448Y34233D02*
X30217Y33465D01*
X26987Y34233D02*
X29448D01*
X26556Y38170D02*
X26772Y38386D01*
X24601Y42107D02*
X26556D01*
X26772Y42323D01*
X24404Y41910D02*
X24601Y42107D01*
X24403Y41910D02*
X24404D01*
X23838Y41345D02*
X24403Y41910D01*
X23838Y45282D02*
X24600Y46044D01*
X26556D02*
X26772Y46260D01*
X23838Y44310D02*
Y45282D01*
X12598Y46260D02*
X12708Y46369D01*
X24600Y46044D02*
X26556D01*
X12598Y58071D02*
X18469D01*
Y57680D02*
Y58071D01*
X26772Y32480D02*
X26987Y32696D01*
X10021D02*
X12383D01*
Y34233D02*
X12598Y34449D01*
X12383Y32696D02*
X12598Y32480D01*
X26772Y34449D02*
X26987Y34233D01*
X8957Y50197D02*
X12598D01*
X30038Y50412D02*
X31004Y51378D01*
X26987Y50412D02*
X30038D01*
X30807Y54134D02*
X31496Y54823D01*
X26772Y54134D02*
X30807D01*
X26772Y50197D02*
X26987Y50412D01*
X31004Y58071D02*
X31988Y59055D01*
X26772Y58071D02*
X31004D01*
X94193Y37286D02*
X96279Y39372D01*
X97041Y36202D02*
X98997D01*
X96279Y39376D02*
X97041Y40139D01*
X96279Y39372D02*
Y39376D01*
X97041Y40139D02*
X98997D01*
Y36202D02*
X99213Y36417D01*
X93513Y24818D02*
X93701Y24630D01*
X95077Y42952D02*
X95435Y43310D01*
Y50344D01*
X97041Y51950D01*
X94095Y52940D02*
X97041Y55887D01*
X98997Y40139D02*
X99213Y40354D01*
X105623Y48228D02*
X109827Y44025D01*
X99213Y48228D02*
X105623D01*
X109843Y48031D02*
X113189D01*
X109646Y47835D02*
X109843Y48031D01*
X113189D02*
X113386Y48228D01*
X97041Y51950D02*
X98997D01*
X99213Y52165D01*
X97041Y55887D02*
X98997D01*
X99213Y56102D01*
X113238Y34301D02*
X113386Y34449D01*
Y32480D02*
Y34449D01*
X99213Y32480D02*
Y34449D01*
X26772Y61811D02*
X26919Y61959D01*
X12598Y62008D02*
X12697Y61909D01*
D30*
X87306Y13976D02*
D03*
X48753Y16066D02*
D03*
X16929Y54823D02*
D03*
X22539Y56496D02*
D03*
X91634Y58563D02*
D03*
X91422Y41520D02*
D03*
X94859Y41294D02*
D03*
X70472Y6693D02*
D03*
X60416Y13023D02*
D03*
X57087Y11122D02*
D03*
X6594Y26969D02*
D03*
X9055Y40354D02*
D03*
X9154Y33563D02*
D03*
X54331Y8858D02*
D03*
X47848Y9356D02*
D03*
X51282Y9741D02*
D03*
X21804Y46478D02*
D03*
X90748Y47733D02*
D03*
X91377Y36122D02*
D03*
X104082Y29454D02*
D03*
Y34154D02*
D03*
X104101Y39494D02*
D03*
X108800Y37147D02*
D03*
X107776Y40861D02*
D03*
X63779Y7908D02*
D03*
X67094Y9776D02*
D03*
X35925Y12697D02*
D03*
X33268Y15256D02*
D03*
X31102Y18307D02*
D03*
X104833Y53808D02*
D03*
X7874Y65256D02*
D03*
X8071Y61811D02*
D03*
X95374Y58071D02*
D03*
X117815Y47539D02*
D03*
X35036Y32480D02*
D03*
X30312Y33482D02*
D03*
X32579Y66929D02*
D03*
X9154Y44291D02*
D03*
X117595Y42172D02*
D03*
X94784Y66634D02*
D03*
X35773Y58607D02*
D03*
X34646Y61910D02*
D03*
X17323Y35531D02*
D03*
X17164Y39113D02*
D03*
X15948Y51577D02*
D03*
X22128Y42971D02*
D03*
X104997Y44917D02*
D03*
X91732Y84449D02*
D03*
X91535Y54035D02*
D03*
X90748Y32087D02*
D03*
X93504Y11122D02*
D03*
X96850Y13780D02*
D03*
X89665Y8465D02*
D03*
X85827Y9055D02*
D03*
X79134Y6693D02*
D03*
X81441Y9369D02*
D03*
X74705Y6791D02*
D03*
X60827Y9843D02*
D03*
X44685Y11713D02*
D03*
X40551Y12598D02*
D03*
X22241Y39567D02*
D03*
X22560Y36241D02*
D03*
X31262Y23524D02*
D03*
X22912Y23040D02*
D03*
X34449Y36614D02*
D03*
X18469Y57680D02*
D03*
X8957Y50197D02*
D03*
X38484Y20087D02*
D03*
X74602Y10042D02*
D03*
X31496Y54823D02*
D03*
X31004Y51378D02*
D03*
X32382Y48130D02*
D03*
X34744Y50886D02*
D03*
X31988Y59055D02*
D03*
X93513Y24818D02*
D03*
X96667Y24778D02*
D03*
X89472Y21949D02*
D03*
X109827Y44025D02*
D03*
X103740Y11516D02*
D03*
X109646Y47835D02*
D03*
X100000Y15354D02*
D03*
X58520Y76673D02*
D03*
X91732Y65059D02*
D03*
X94193Y62008D02*
D03*
X45669Y65059D02*
D03*
X50000D02*
D03*
X54331D02*
D03*
X58661D02*
D03*
X62992D02*
D03*
X67323D02*
D03*
X71653D02*
D03*
X75984D02*
D03*
X80315D02*
D03*
X45669Y60728D02*
D03*
X50000D02*
D03*
X54331D02*
D03*
X58661D02*
D03*
X62992D02*
D03*
X67323D02*
D03*
X71653D02*
D03*
X75984D02*
D03*
X80315D02*
D03*
X45669Y56398D02*
D03*
X50000D02*
D03*
X54331D02*
D03*
X58661D02*
D03*
X62992D02*
D03*
X67323D02*
D03*
X71653D02*
D03*
X75984D02*
D03*
X80315D02*
D03*
X45669Y52067D02*
D03*
X50000D02*
D03*
X54331D02*
D03*
X58661D02*
D03*
X62992D02*
D03*
X67323D02*
D03*
X71653D02*
D03*
X75984D02*
D03*
X80315D02*
D03*
X45669Y47736D02*
D03*
X50000D02*
D03*
X54331D02*
D03*
X58661D02*
D03*
X62992D02*
D03*
X67323D02*
D03*
X71653D02*
D03*
X75984D02*
D03*
X80315D02*
D03*
X45669Y43406D02*
D03*
X50000D02*
D03*
X54331D02*
D03*
X58661D02*
D03*
X62992D02*
D03*
X67323D02*
D03*
X71653D02*
D03*
X75984D02*
D03*
X80315D02*
D03*
X45669Y39075D02*
D03*
X50000D02*
D03*
X54331D02*
D03*
X58661D02*
D03*
X62992D02*
D03*
X67323D02*
D03*
X71653D02*
D03*
X75984D02*
D03*
X80315D02*
D03*
X45669Y34744D02*
D03*
X50000D02*
D03*
X54331D02*
D03*
X58661D02*
D03*
X62992D02*
D03*
X67323D02*
D03*
X71653D02*
D03*
X75984D02*
D03*
X80315D02*
D03*
X45669Y30413D02*
D03*
X50000D02*
D03*
X54331D02*
D03*
X58661D02*
D03*
X62992D02*
D03*
X67323D02*
D03*
X71653D02*
D03*
X75984D02*
D03*
X80315D02*
D03*
D31*
X12598Y28543D02*
D03*
X26772D02*
D03*
X12598Y30512D02*
D03*
X26772D02*
D03*
X12598Y32480D02*
D03*
X26772D02*
D03*
X12598Y34449D02*
D03*
X26772D02*
D03*
X12598Y36417D02*
D03*
X26772D02*
D03*
X12598Y38386D02*
D03*
X26772D02*
D03*
X12598Y40354D02*
D03*
X26772D02*
D03*
X12598Y42323D02*
D03*
X26772D02*
D03*
X12598Y44291D02*
D03*
X26772D02*
D03*
X12598Y46260D02*
D03*
X26772D02*
D03*
X12598Y48228D02*
D03*
X26772D02*
D03*
X12598Y50197D02*
D03*
X26772D02*
D03*
X12598Y52165D02*
D03*
X26772D02*
D03*
X12598Y54134D02*
D03*
X26772D02*
D03*
X12598Y56102D02*
D03*
X26772D02*
D03*
X12598Y58071D02*
D03*
X26772D02*
D03*
X12598Y60039D02*
D03*
X26772D02*
D03*
X12598Y62008D02*
D03*
X26772D02*
D03*
X12598Y63976D02*
D03*
X26772D02*
D03*
X12598Y65945D02*
D03*
X26772D02*
D03*
X99213Y28543D02*
D03*
X113386D02*
D03*
X99213Y30512D02*
D03*
X113386D02*
D03*
X99213Y32480D02*
D03*
X113386D02*
D03*
X99213Y34449D02*
D03*
X113386D02*
D03*
X99213Y36417D02*
D03*
X113386D02*
D03*
X99213Y38386D02*
D03*
X113386D02*
D03*
X99213Y40354D02*
D03*
X113386D02*
D03*
X99213Y42323D02*
D03*
X113386D02*
D03*
X99213Y44291D02*
D03*
X113386D02*
D03*
X99213Y46260D02*
D03*
X113386D02*
D03*
X99213Y48228D02*
D03*
X113386D02*
D03*
X99213Y50197D02*
D03*
X113386D02*
D03*
X99213Y52165D02*
D03*
X113386D02*
D03*
X99213Y54134D02*
D03*
X113386D02*
D03*
X99213Y56102D02*
D03*
X113386D02*
D03*
X99213Y58071D02*
D03*
X113386D02*
D03*
X99213Y60039D02*
D03*
X113386D02*
D03*
X99213Y62008D02*
D03*
X113386D02*
D03*
X99213Y63976D02*
D03*
X113386D02*
D03*
X99213Y65945D02*
D03*
X113386D02*
D03*
D32*
X94366Y15483D02*
Y15483D01*
X93689Y11307D02*
Y14806D01*
X94366Y15483D01*
Y15483D02*
X100375Y21492D01*
X110436D01*
X116459Y44382D02*
X116853Y44776D01*
X118911D02*
X120079Y43608D01*
Y24311D02*
Y43608D01*
X116853Y44776D02*
X118911D01*
X113476Y44382D02*
X116459D01*
X113386Y44291D02*
X113476Y44382D01*
X115609Y40264D02*
X118405Y37468D01*
X113476Y40264D02*
X115609D01*
X93504Y11122D02*
X93689Y11307D01*
X96850Y13780D02*
X97036Y13965D01*
Y15903D02*
X101034Y19902D01*
X97036Y13965D02*
Y15903D01*
X100000Y15354D02*
X111122D01*
X101034Y19902D02*
X111095D01*
X116732Y27788D02*
Y35204D01*
X110436Y21492D02*
X116732Y27788D01*
X113476Y36327D02*
X115609D01*
X116732Y35204D01*
X118405Y27212D02*
Y37468D01*
X111095Y19902D02*
X118405Y27212D01*
X111122Y15354D02*
X120079Y24311D01*
X113386Y40354D02*
X113476Y40264D01*
X113386Y36417D02*
X113476Y36327D01*
M02*
