G04*
G04 #@! TF.GenerationSoftware,Altium Limited,Altium Designer,24.6.1 (21)*
G04*
G04 Layer_Physical_Order=5*
G04 Layer_Color=32896*
%FSLAX25Y25*%
%MOIN*%
G70*
G04*
G04 #@! TF.SameCoordinates,B39E71B9-853D-4F3F-8AEA-E0825CCAAB9B*
G04*
G04*
G04 #@! TF.FilePolarity,Positive*
G04*
G01*
G75*
%ADD29C,0.00750*%
%ADD33C,0.03937*%
%ADD34C,0.01968*%
G36*
X119493Y94573D02*
X119890Y94494D01*
X120263Y94340D01*
X120599Y94115D01*
X120885Y93829D01*
X121110Y93494D01*
X121265Y93120D01*
X121344Y92724D01*
X121344Y92522D01*
X121345Y6693D01*
X121344Y6491D01*
X121266Y6094D01*
X121111Y5721D01*
X120887Y5385D01*
X120601Y5099D01*
X120265Y4874D01*
X119892Y4719D01*
X119496Y4640D01*
X119293Y4640D01*
X6693Y4640D01*
X6491D01*
X6094Y4719D01*
X5721Y4873D01*
X5385Y5097D01*
X5099Y5383D01*
X4874Y5719D01*
X4719Y6092D01*
X4640Y6489D01*
X4640Y6691D01*
X4640Y92520D01*
Y92722D01*
X4719Y93118D01*
X4873Y93492D01*
X5097Y93828D01*
X5383Y94114D01*
X5719Y94339D01*
X6092Y94494D01*
X6489Y94573D01*
X6691Y94573D01*
X119291Y94573D01*
X119493Y94573D01*
D02*
G37*
%LPC*%
G36*
X87221Y89026D02*
Y87221D01*
X89026D01*
X88987Y87366D01*
X88596Y88043D01*
X88043Y88596D01*
X87366Y88987D01*
X87221Y89026D01*
D02*
G37*
G36*
X85220D02*
X85075Y88987D01*
X84398Y88596D01*
X83845Y88043D01*
X83454Y87366D01*
X83415Y87221D01*
X85220D01*
Y89026D01*
D02*
G37*
G36*
X32600Y89386D02*
X31967D01*
X31383Y89144D01*
X30935Y88696D01*
X30693Y88112D01*
Y87479D01*
X30935Y86894D01*
X31383Y86447D01*
X31967Y86205D01*
X32600D01*
X33184Y86447D01*
X33632Y86894D01*
X33874Y87479D01*
Y88112D01*
X33632Y88696D01*
X33184Y89144D01*
X32600Y89386D01*
D02*
G37*
G36*
X11340D02*
X10707D01*
X10123Y89144D01*
X9675Y88696D01*
X9433Y88112D01*
Y87479D01*
X9675Y86894D01*
X10123Y86447D01*
X10707Y86205D01*
X11340D01*
X11925Y86447D01*
X12372Y86894D01*
X12614Y87479D01*
Y88112D01*
X12372Y88696D01*
X11925Y89144D01*
X11340Y89386D01*
D02*
G37*
G36*
X89026Y85220D02*
X87221D01*
Y83415D01*
X87366Y83454D01*
X88043Y83845D01*
X88596Y84398D01*
X88987Y85075D01*
X89026Y85220D01*
D02*
G37*
G36*
X85220D02*
X83415D01*
X83454Y85075D01*
X83845Y84398D01*
X84398Y83845D01*
X85075Y83454D01*
X85220Y83415D01*
Y85220D01*
D02*
G37*
G36*
X92049Y86039D02*
X91416D01*
X90831Y85797D01*
X90384Y85350D01*
X90142Y84765D01*
Y84132D01*
X90384Y83548D01*
X90831Y83100D01*
X91416Y82858D01*
X92049D01*
X92633Y83100D01*
X93081Y83548D01*
X93323Y84132D01*
Y84765D01*
X93081Y85350D01*
X92633Y85797D01*
X92049Y86039D01*
D02*
G37*
G36*
X118427Y79543D02*
X117794D01*
X117209Y79301D01*
X116762Y78854D01*
X116520Y78269D01*
Y77636D01*
X116762Y77052D01*
X117209Y76604D01*
X117794Y76362D01*
X118427D01*
X119011Y76604D01*
X119459Y77052D01*
X119701Y77636D01*
Y78269D01*
X119459Y78854D01*
X119011Y79301D01*
X118427Y79543D01*
D02*
G37*
G36*
X113702D02*
X113069D01*
X112485Y79301D01*
X112037Y78854D01*
X111795Y78269D01*
Y77636D01*
X112037Y77052D01*
X112485Y76604D01*
X113069Y76362D01*
X113702D01*
X114287Y76604D01*
X114734Y77052D01*
X114976Y77636D01*
Y78269D01*
X114734Y78854D01*
X114287Y79301D01*
X113702Y79543D01*
D02*
G37*
G36*
X99923D02*
X99290D01*
X98705Y79301D01*
X98258Y78854D01*
X98016Y78269D01*
Y77636D01*
X98258Y77052D01*
X98705Y76604D01*
X99290Y76362D01*
X99923D01*
X100507Y76604D01*
X100955Y77052D01*
X101197Y77636D01*
Y78269D01*
X100955Y78854D01*
X100507Y79301D01*
X99923Y79543D01*
D02*
G37*
G36*
X58836Y78264D02*
X58204D01*
X57619Y78022D01*
X57172Y77574D01*
X56929Y76990D01*
Y76357D01*
X57172Y75772D01*
X57619Y75325D01*
X58204Y75083D01*
X58836D01*
X59421Y75325D01*
X59869Y75772D01*
X60111Y76357D01*
Y76990D01*
X59869Y77574D01*
X59421Y78022D01*
X58836Y78264D01*
D02*
G37*
G36*
X75907Y77575D02*
X75274D01*
X74690Y77333D01*
X74242Y76885D01*
X74000Y76301D01*
Y75668D01*
X74242Y75083D01*
X74690Y74636D01*
X75274Y74394D01*
X75907D01*
X76491Y74636D01*
X76939Y75083D01*
X77181Y75668D01*
Y76301D01*
X76939Y76885D01*
X76491Y77333D01*
X75907Y77575D01*
D02*
G37*
G36*
X51202Y77181D02*
X50569D01*
X49985Y76939D01*
X49537Y76491D01*
X49295Y75907D01*
Y75274D01*
X49537Y74690D01*
X49985Y74242D01*
X50569Y74000D01*
X51202D01*
X51787Y74242D01*
X52234Y74690D01*
X52476Y75274D01*
Y75907D01*
X52234Y76491D01*
X51787Y76939D01*
X51202Y77181D01*
D02*
G37*
G36*
X15277Y73244D02*
X14644D01*
X14060Y73002D01*
X13612Y72554D01*
X13370Y71970D01*
Y71337D01*
X13612Y70753D01*
X14060Y70305D01*
X14644Y70063D01*
X15277D01*
X15862Y70305D01*
X16309Y70753D01*
X16551Y71337D01*
Y71970D01*
X16309Y72554D01*
X15862Y73002D01*
X15277Y73244D01*
D02*
G37*
G36*
X32600Y72457D02*
X31967D01*
X31383Y72215D01*
X30935Y71767D01*
X30693Y71183D01*
Y70550D01*
X30935Y69965D01*
X31383Y69518D01*
X31967Y69276D01*
X32600D01*
X33184Y69518D01*
X33632Y69965D01*
X33874Y70550D01*
Y71183D01*
X33632Y71767D01*
X33184Y72215D01*
X32600Y72457D01*
D02*
G37*
G36*
X95100Y68224D02*
X94467D01*
X93883Y67982D01*
X93435Y67535D01*
X93193Y66950D01*
Y66343D01*
X93125Y66284D01*
X92878Y66162D01*
X92633Y66408D01*
X92049Y66650D01*
X91416D01*
X90831Y66408D01*
X90384Y65960D01*
X90142Y65375D01*
Y64743D01*
X90384Y64158D01*
X90831Y63711D01*
X91416Y63468D01*
X92049D01*
X92633Y63711D01*
X93081Y64158D01*
X93323Y64743D01*
Y65350D01*
X93391Y65409D01*
X93637Y65531D01*
X93883Y65285D01*
X94467Y65043D01*
X95100D01*
X95684Y65285D01*
X96132Y65733D01*
X96374Y66317D01*
Y66950D01*
X96132Y67535D01*
X95684Y67982D01*
X95100Y68224D01*
D02*
G37*
G36*
X32895Y68520D02*
X32262D01*
X31678Y68278D01*
X31230Y67830D01*
X30988Y67246D01*
Y66613D01*
X31230Y66028D01*
X31678Y65581D01*
X32262Y65339D01*
X32895D01*
X33480Y65581D01*
X33927Y66028D01*
X34169Y66613D01*
Y67246D01*
X33927Y67830D01*
X33480Y68278D01*
X32895Y68520D01*
D02*
G37*
G36*
X80592Y66453D02*
X80038D01*
X79526Y66241D01*
X79133Y65848D01*
X78921Y65336D01*
Y64782D01*
X79133Y64270D01*
X79526Y63877D01*
X80038Y63665D01*
X80592D01*
X81104Y63877D01*
X81497Y64270D01*
X81709Y64782D01*
Y65336D01*
X81497Y65848D01*
X81104Y66241D01*
X80592Y66453D01*
D02*
G37*
G36*
X76262D02*
X75707D01*
X75195Y66241D01*
X74803Y65848D01*
X74590Y65336D01*
Y64782D01*
X74803Y64270D01*
X75195Y63877D01*
X75707Y63665D01*
X76262D01*
X76774Y63877D01*
X77166Y64270D01*
X77378Y64782D01*
Y65336D01*
X77166Y65848D01*
X76774Y66241D01*
X76262Y66453D01*
D02*
G37*
G36*
X71931D02*
X71376D01*
X70864Y66241D01*
X70472Y65848D01*
X70260Y65336D01*
Y64782D01*
X70472Y64270D01*
X70864Y63877D01*
X71376Y63665D01*
X71931D01*
X72443Y63877D01*
X72835Y64270D01*
X73047Y64782D01*
Y65336D01*
X72835Y65848D01*
X72443Y66241D01*
X71931Y66453D01*
D02*
G37*
G36*
X67600D02*
X67046D01*
X66533Y66241D01*
X66141Y65848D01*
X65929Y65336D01*
Y64782D01*
X66141Y64270D01*
X66533Y63877D01*
X67046Y63665D01*
X67600D01*
X68112Y63877D01*
X68504Y64270D01*
X68717Y64782D01*
Y65336D01*
X68504Y65848D01*
X68112Y66241D01*
X67600Y66453D01*
D02*
G37*
G36*
X63269D02*
X62715D01*
X62203Y66241D01*
X61811Y65848D01*
X61598Y65336D01*
Y64782D01*
X61811Y64270D01*
X62203Y63877D01*
X62715Y63665D01*
X63269D01*
X63782Y63877D01*
X64174Y64270D01*
X64386Y64782D01*
Y65336D01*
X64174Y65848D01*
X63782Y66241D01*
X63269Y66453D01*
D02*
G37*
G36*
X58939D02*
X58384D01*
X57872Y66241D01*
X57480Y65848D01*
X57268Y65336D01*
Y64782D01*
X57480Y64270D01*
X57872Y63877D01*
X58384Y63665D01*
X58939D01*
X59451Y63877D01*
X59843Y64270D01*
X60055Y64782D01*
Y65336D01*
X59843Y65848D01*
X59451Y66241D01*
X58939Y66453D01*
D02*
G37*
G36*
X54608D02*
X54053D01*
X53541Y66241D01*
X53149Y65848D01*
X52937Y65336D01*
Y64782D01*
X53149Y64270D01*
X53541Y63877D01*
X54053Y63665D01*
X54608D01*
X55120Y63877D01*
X55512Y64270D01*
X55724Y64782D01*
Y65336D01*
X55512Y65848D01*
X55120Y66241D01*
X54608Y66453D01*
D02*
G37*
G36*
X50277D02*
X49723D01*
X49211Y66241D01*
X48818Y65848D01*
X48606Y65336D01*
Y64782D01*
X48818Y64270D01*
X49211Y63877D01*
X49723Y63665D01*
X50277D01*
X50789Y63877D01*
X51182Y64270D01*
X51394Y64782D01*
Y65336D01*
X51182Y65848D01*
X50789Y66241D01*
X50277Y66453D01*
D02*
G37*
G36*
X45946D02*
X45392D01*
X44880Y66241D01*
X44488Y65848D01*
X44276Y65336D01*
Y64782D01*
X44488Y64270D01*
X44880Y63877D01*
X45392Y63665D01*
X45946D01*
X46459Y63877D01*
X46851Y64270D01*
X47063Y64782D01*
Y65336D01*
X46851Y65848D01*
X46459Y66241D01*
X45946Y66453D01*
D02*
G37*
G36*
X8190Y66847D02*
X7558D01*
X6973Y66604D01*
X6526Y66157D01*
X6284Y65572D01*
Y64939D01*
X6526Y64355D01*
X6973Y63907D01*
X7558Y63665D01*
X8190D01*
X8775Y63907D01*
X9222Y64355D01*
X9465Y64939D01*
Y65572D01*
X9222Y66157D01*
X8775Y66604D01*
X8190Y66847D01*
D02*
G37*
G36*
X94509Y63598D02*
X93876D01*
X93292Y63356D01*
X92844Y62909D01*
X92602Y62324D01*
Y61691D01*
X92844Y61107D01*
X93292Y60659D01*
X93876Y60417D01*
X94509D01*
X95094Y60659D01*
X95541Y61107D01*
X95784Y61691D01*
Y62324D01*
X95541Y62909D01*
X95094Y63356D01*
X94509Y63598D01*
D02*
G37*
G36*
X80592Y62122D02*
X80038D01*
X79526Y61910D01*
X79133Y61518D01*
X78921Y61006D01*
Y60451D01*
X79133Y59939D01*
X79526Y59547D01*
X80038Y59335D01*
X80592D01*
X81104Y59547D01*
X81497Y59939D01*
X81709Y60451D01*
Y61006D01*
X81497Y61518D01*
X81104Y61910D01*
X80592Y62122D01*
D02*
G37*
G36*
X76262D02*
X75707D01*
X75195Y61910D01*
X74803Y61518D01*
X74590Y61006D01*
Y60451D01*
X74803Y59939D01*
X75195Y59547D01*
X75707Y59335D01*
X76262D01*
X76774Y59547D01*
X77166Y59939D01*
X77378Y60451D01*
Y61006D01*
X77166Y61518D01*
X76774Y61910D01*
X76262Y62122D01*
D02*
G37*
G36*
X71931D02*
X71376D01*
X70864Y61910D01*
X70472Y61518D01*
X70260Y61006D01*
Y60451D01*
X70472Y59939D01*
X70864Y59547D01*
X71376Y59335D01*
X71931D01*
X72443Y59547D01*
X72835Y59939D01*
X73047Y60451D01*
Y61006D01*
X72835Y61518D01*
X72443Y61910D01*
X71931Y62122D01*
D02*
G37*
G36*
X67600D02*
X67046D01*
X66533Y61910D01*
X66141Y61518D01*
X65929Y61006D01*
Y60451D01*
X66141Y59939D01*
X66533Y59547D01*
X67046Y59335D01*
X67600D01*
X68112Y59547D01*
X68504Y59939D01*
X68717Y60451D01*
Y61006D01*
X68504Y61518D01*
X68112Y61910D01*
X67600Y62122D01*
D02*
G37*
G36*
X63269D02*
X62715D01*
X62203Y61910D01*
X61811Y61518D01*
X61598Y61006D01*
Y60451D01*
X61811Y59939D01*
X62203Y59547D01*
X62715Y59335D01*
X63269D01*
X63782Y59547D01*
X64174Y59939D01*
X64386Y60451D01*
Y61006D01*
X64174Y61518D01*
X63782Y61910D01*
X63269Y62122D01*
D02*
G37*
G36*
X58939D02*
X58384D01*
X57872Y61910D01*
X57480Y61518D01*
X57268Y61006D01*
Y60451D01*
X57480Y59939D01*
X57872Y59547D01*
X58384Y59335D01*
X58939D01*
X59451Y59547D01*
X59843Y59939D01*
X60055Y60451D01*
Y61006D01*
X59843Y61518D01*
X59451Y61910D01*
X58939Y62122D01*
D02*
G37*
G36*
X54608D02*
X54053D01*
X53541Y61910D01*
X53149Y61518D01*
X52937Y61006D01*
Y60451D01*
X53149Y59939D01*
X53541Y59547D01*
X54053Y59335D01*
X54608D01*
X55120Y59547D01*
X55512Y59939D01*
X55724Y60451D01*
Y61006D01*
X55512Y61518D01*
X55120Y61910D01*
X54608Y62122D01*
D02*
G37*
G36*
X50277D02*
X49723D01*
X49211Y61910D01*
X48818Y61518D01*
X48606Y61006D01*
Y60451D01*
X48818Y59939D01*
X49211Y59547D01*
X49723Y59335D01*
X50277D01*
X50789Y59547D01*
X51182Y59939D01*
X51394Y60451D01*
Y61006D01*
X51182Y61518D01*
X50789Y61910D01*
X50277Y62122D01*
D02*
G37*
G36*
X45946D02*
X45392D01*
X44880Y61910D01*
X44488Y61518D01*
X44276Y61006D01*
Y60451D01*
X44488Y59939D01*
X44880Y59547D01*
X45392Y59335D01*
X45946D01*
X46459Y59547D01*
X46851Y59939D01*
X47063Y60451D01*
Y61006D01*
X46851Y61518D01*
X46459Y61910D01*
X45946Y62122D01*
D02*
G37*
G36*
X32305Y60646D02*
X31672D01*
X31087Y60404D01*
X30640Y59956D01*
X30398Y59372D01*
Y58739D01*
X30640Y58154D01*
X31087Y57707D01*
X31672Y57465D01*
X32305D01*
X32889Y57707D01*
X33337Y58154D01*
X33579Y58739D01*
Y59372D01*
X33337Y59956D01*
X32889Y60404D01*
X32305Y60646D01*
D02*
G37*
G36*
X36089Y60198D02*
X35456D01*
X34872Y59956D01*
X34424Y59508D01*
X34182Y58924D01*
Y58291D01*
X34424Y57706D01*
X34872Y57259D01*
X35456Y57017D01*
X36089D01*
X36674Y57259D01*
X37121Y57706D01*
X37363Y58291D01*
Y58924D01*
X37121Y59508D01*
X36674Y59956D01*
X36089Y60198D01*
D02*
G37*
G36*
X91950Y60154D02*
X91317D01*
X90733Y59911D01*
X90285Y59464D01*
X90043Y58879D01*
Y58247D01*
X90285Y57662D01*
X90733Y57215D01*
X91317Y56972D01*
X91950D01*
X92535Y57215D01*
X92982Y57662D01*
X93224Y58247D01*
Y58879D01*
X92982Y59464D01*
X92535Y59911D01*
X91950Y60154D01*
D02*
G37*
G36*
X95690Y59661D02*
X95058D01*
X94473Y59419D01*
X94026Y58972D01*
X93783Y58387D01*
Y57754D01*
X94026Y57170D01*
X94473Y56722D01*
X95058Y56480D01*
X95690D01*
X96275Y56722D01*
X96722Y57170D01*
X96965Y57754D01*
Y58387D01*
X96722Y58972D01*
X96275Y59419D01*
X95690Y59661D01*
D02*
G37*
G36*
X80592Y57791D02*
X80038D01*
X79526Y57579D01*
X79133Y57187D01*
X78921Y56675D01*
Y56120D01*
X79133Y55608D01*
X79526Y55216D01*
X80038Y55004D01*
X80592D01*
X81104Y55216D01*
X81497Y55608D01*
X81709Y56120D01*
Y56675D01*
X81497Y57187D01*
X81104Y57579D01*
X80592Y57791D01*
D02*
G37*
G36*
X76262D02*
X75707D01*
X75195Y57579D01*
X74803Y57187D01*
X74590Y56675D01*
Y56120D01*
X74803Y55608D01*
X75195Y55216D01*
X75707Y55004D01*
X76262D01*
X76774Y55216D01*
X77166Y55608D01*
X77378Y56120D01*
Y56675D01*
X77166Y57187D01*
X76774Y57579D01*
X76262Y57791D01*
D02*
G37*
G36*
X71931D02*
X71376D01*
X70864Y57579D01*
X70472Y57187D01*
X70260Y56675D01*
Y56120D01*
X70472Y55608D01*
X70864Y55216D01*
X71376Y55004D01*
X71931D01*
X72443Y55216D01*
X72835Y55608D01*
X73047Y56120D01*
Y56675D01*
X72835Y57187D01*
X72443Y57579D01*
X71931Y57791D01*
D02*
G37*
G36*
X67600D02*
X67046D01*
X66533Y57579D01*
X66141Y57187D01*
X65929Y56675D01*
Y56120D01*
X66141Y55608D01*
X66533Y55216D01*
X67046Y55004D01*
X67600D01*
X68112Y55216D01*
X68504Y55608D01*
X68717Y56120D01*
Y56675D01*
X68504Y57187D01*
X68112Y57579D01*
X67600Y57791D01*
D02*
G37*
G36*
X63269D02*
X62715D01*
X62203Y57579D01*
X61811Y57187D01*
X61598Y56675D01*
Y56120D01*
X61811Y55608D01*
X62203Y55216D01*
X62715Y55004D01*
X63269D01*
X63782Y55216D01*
X64174Y55608D01*
X64386Y56120D01*
Y56675D01*
X64174Y57187D01*
X63782Y57579D01*
X63269Y57791D01*
D02*
G37*
G36*
X58939D02*
X58384D01*
X57872Y57579D01*
X57480Y57187D01*
X57268Y56675D01*
Y56120D01*
X57480Y55608D01*
X57872Y55216D01*
X58384Y55004D01*
X58939D01*
X59451Y55216D01*
X59843Y55608D01*
X60055Y56120D01*
Y56675D01*
X59843Y57187D01*
X59451Y57579D01*
X58939Y57791D01*
D02*
G37*
G36*
X54608D02*
X54053D01*
X53541Y57579D01*
X53149Y57187D01*
X52937Y56675D01*
Y56120D01*
X53149Y55608D01*
X53541Y55216D01*
X54053Y55004D01*
X54608D01*
X55120Y55216D01*
X55512Y55608D01*
X55724Y56120D01*
Y56675D01*
X55512Y57187D01*
X55120Y57579D01*
X54608Y57791D01*
D02*
G37*
G36*
X50277D02*
X49723D01*
X49211Y57579D01*
X48818Y57187D01*
X48606Y56675D01*
Y56120D01*
X48818Y55608D01*
X49211Y55216D01*
X49723Y55004D01*
X50277D01*
X50789Y55216D01*
X51182Y55608D01*
X51394Y56120D01*
Y56675D01*
X51182Y57187D01*
X50789Y57579D01*
X50277Y57791D01*
D02*
G37*
G36*
X45946D02*
X45392D01*
X44880Y57579D01*
X44488Y57187D01*
X44276Y56675D01*
Y56120D01*
X44488Y55608D01*
X44880Y55216D01*
X45392Y55004D01*
X45946D01*
X46459Y55216D01*
X46851Y55608D01*
X47063Y56120D01*
Y56675D01*
X46851Y57187D01*
X46459Y57579D01*
X45946Y57791D01*
D02*
G37*
G36*
X23424Y58087D02*
X22791D01*
X22206Y57845D01*
X21759Y57397D01*
X21517Y56812D01*
Y56180D01*
X21759Y55595D01*
X22206Y55148D01*
X22791Y54905D01*
X23424D01*
X24008Y55148D01*
X24456Y55595D01*
X24698Y56180D01*
Y56812D01*
X24456Y57397D01*
X24008Y57845D01*
X23424Y58087D01*
D02*
G37*
G36*
X91852Y55626D02*
X91219D01*
X90635Y55384D01*
X90187Y54936D01*
X89945Y54352D01*
Y53719D01*
X90187Y53135D01*
X90635Y52687D01*
X91219Y52445D01*
X91852D01*
X92436Y52687D01*
X92884Y53135D01*
X93126Y53719D01*
Y54352D01*
X92884Y54936D01*
X92436Y55384D01*
X91852Y55626D01*
D02*
G37*
G36*
X105149Y55399D02*
X104516D01*
X103932Y55157D01*
X103484Y54709D01*
X103242Y54124D01*
Y53492D01*
X103484Y52907D01*
X103932Y52460D01*
X104516Y52218D01*
X105149D01*
X105734Y52460D01*
X106181Y52907D01*
X106423Y53492D01*
Y54124D01*
X106181Y54709D01*
X105734Y55157D01*
X105149Y55399D01*
D02*
G37*
G36*
X109371Y53953D02*
X108739D01*
X108154Y53711D01*
X107707Y53263D01*
X107465Y52679D01*
Y52046D01*
X107707Y51461D01*
X108154Y51014D01*
X108739Y50772D01*
X109371D01*
X109956Y51014D01*
X110404Y51461D01*
X110646Y52046D01*
Y52679D01*
X110404Y53263D01*
X109956Y53711D01*
X109371Y53953D01*
D02*
G37*
G36*
X80592Y53461D02*
X80038D01*
X79526Y53249D01*
X79133Y52856D01*
X78921Y52344D01*
Y51790D01*
X79133Y51278D01*
X79526Y50885D01*
X80038Y50673D01*
X80592D01*
X81104Y50885D01*
X81497Y51278D01*
X81709Y51790D01*
Y52344D01*
X81497Y52856D01*
X81104Y53249D01*
X80592Y53461D01*
D02*
G37*
G36*
X76262D02*
X75707D01*
X75195Y53249D01*
X74803Y52856D01*
X74590Y52344D01*
Y51790D01*
X74803Y51278D01*
X75195Y50885D01*
X75707Y50673D01*
X76262D01*
X76774Y50885D01*
X77166Y51278D01*
X77378Y51790D01*
Y52344D01*
X77166Y52856D01*
X76774Y53249D01*
X76262Y53461D01*
D02*
G37*
G36*
X71931D02*
X71376D01*
X70864Y53249D01*
X70472Y52856D01*
X70260Y52344D01*
Y51790D01*
X70472Y51278D01*
X70864Y50885D01*
X71376Y50673D01*
X71931D01*
X72443Y50885D01*
X72835Y51278D01*
X73047Y51790D01*
Y52344D01*
X72835Y52856D01*
X72443Y53249D01*
X71931Y53461D01*
D02*
G37*
G36*
X67600D02*
X67046D01*
X66533Y53249D01*
X66141Y52856D01*
X65929Y52344D01*
Y51790D01*
X66141Y51278D01*
X66533Y50885D01*
X67046Y50673D01*
X67600D01*
X68112Y50885D01*
X68504Y51278D01*
X68717Y51790D01*
Y52344D01*
X68504Y52856D01*
X68112Y53249D01*
X67600Y53461D01*
D02*
G37*
G36*
X63269D02*
X62715D01*
X62203Y53249D01*
X61811Y52856D01*
X61598Y52344D01*
Y51790D01*
X61811Y51278D01*
X62203Y50885D01*
X62715Y50673D01*
X63269D01*
X63782Y50885D01*
X64174Y51278D01*
X64386Y51790D01*
Y52344D01*
X64174Y52856D01*
X63782Y53249D01*
X63269Y53461D01*
D02*
G37*
G36*
X58939D02*
X58384D01*
X57872Y53249D01*
X57480Y52856D01*
X57268Y52344D01*
Y51790D01*
X57480Y51278D01*
X57872Y50885D01*
X58384Y50673D01*
X58939D01*
X59451Y50885D01*
X59843Y51278D01*
X60055Y51790D01*
Y52344D01*
X59843Y52856D01*
X59451Y53249D01*
X58939Y53461D01*
D02*
G37*
G36*
X54608D02*
X54053D01*
X53541Y53249D01*
X53149Y52856D01*
X52937Y52344D01*
Y51790D01*
X53149Y51278D01*
X53541Y50885D01*
X54053Y50673D01*
X54608D01*
X55120Y50885D01*
X55512Y51278D01*
X55724Y51790D01*
Y52344D01*
X55512Y52856D01*
X55120Y53249D01*
X54608Y53461D01*
D02*
G37*
G36*
X50277D02*
X49723D01*
X49211Y53249D01*
X48818Y52856D01*
X48606Y52344D01*
Y51790D01*
X48818Y51278D01*
X49211Y50885D01*
X49723Y50673D01*
X50277D01*
X50789Y50885D01*
X51182Y51278D01*
X51394Y51790D01*
Y52344D01*
X51182Y52856D01*
X50789Y53249D01*
X50277Y53461D01*
D02*
G37*
G36*
X45946D02*
X45392D01*
X44880Y53249D01*
X44488Y52856D01*
X44276Y52344D01*
Y51790D01*
X44488Y51278D01*
X44880Y50885D01*
X45392Y50673D01*
X45946D01*
X46459Y50885D01*
X46851Y51278D01*
X47063Y51790D01*
Y52344D01*
X46851Y52856D01*
X46459Y53249D01*
X45946Y53461D01*
D02*
G37*
G36*
X18687Y59271D02*
X18054D01*
X17469Y59029D01*
X17022Y58581D01*
X16780Y57996D01*
Y57364D01*
X17022Y56779D01*
X17038Y56763D01*
X16893Y56413D01*
X16613D01*
X16028Y56171D01*
X15581Y55724D01*
X15339Y55139D01*
Y54506D01*
X15581Y53922D01*
X15985Y53517D01*
X15950Y53315D01*
X15878Y53167D01*
X15631D01*
X15047Y52925D01*
X14599Y52478D01*
X14357Y51893D01*
Y51260D01*
X14599Y50676D01*
X15047Y50228D01*
X15631Y49986D01*
X16264D01*
X16849Y50228D01*
X17296Y50676D01*
X17538Y51260D01*
Y51893D01*
X17296Y52478D01*
X16892Y52882D01*
X16927Y53084D01*
X16999Y53232D01*
X17245D01*
X17830Y53474D01*
X18278Y53922D01*
X18520Y54506D01*
Y55139D01*
X18278Y55724D01*
X18262Y55740D01*
X18407Y56090D01*
X18687D01*
X19271Y56332D01*
X19719Y56779D01*
X19961Y57364D01*
Y57996D01*
X19719Y58581D01*
X19271Y59029D01*
X18687Y59271D01*
D02*
G37*
G36*
X35061Y52476D02*
X34428D01*
X33843Y52234D01*
X33396Y51787D01*
X33154Y51202D01*
Y50569D01*
X33396Y49985D01*
X33843Y49537D01*
X34428Y49295D01*
X35061D01*
X35645Y49537D01*
X36092Y49985D01*
X36335Y50569D01*
Y51202D01*
X36092Y51787D01*
X35645Y52234D01*
X35061Y52476D01*
D02*
G37*
G36*
X9273Y51787D02*
X8640D01*
X8056Y51545D01*
X7608Y51098D01*
X7366Y50513D01*
Y49880D01*
X7608Y49296D01*
X8056Y48849D01*
X8640Y48606D01*
X9273D01*
X9858Y48849D01*
X10305Y49296D01*
X10547Y49880D01*
Y50513D01*
X10305Y51098D01*
X9858Y51545D01*
X9273Y51787D01*
D02*
G37*
G36*
X31812Y56413D02*
X31180D01*
X30595Y56171D01*
X30148Y55724D01*
X29906Y55139D01*
Y54506D01*
X30148Y53922D01*
X30595Y53474D01*
X30972Y53319D01*
X30902Y52969D01*
X30688D01*
X30103Y52726D01*
X29656Y52279D01*
X29413Y51694D01*
Y51062D01*
X29656Y50477D01*
X30103Y50030D01*
X30688Y49787D01*
X31320D01*
X31341Y49796D01*
X31481Y49478D01*
X31034Y49031D01*
X30791Y48446D01*
Y47813D01*
X31034Y47229D01*
X31481Y46782D01*
X32065Y46539D01*
X32698D01*
X33283Y46782D01*
X33730Y47229D01*
X33972Y47813D01*
Y48446D01*
X33730Y49031D01*
X33283Y49478D01*
X32698Y49720D01*
X32065D01*
X32044Y49712D01*
X31905Y50030D01*
X32352Y50477D01*
X32594Y51062D01*
Y51694D01*
X32352Y52279D01*
X31905Y52726D01*
X31528Y52882D01*
X31598Y53232D01*
X31812D01*
X32397Y53474D01*
X32844Y53922D01*
X33087Y54506D01*
Y55139D01*
X32844Y55724D01*
X32397Y56171D01*
X31812Y56413D01*
D02*
G37*
G36*
X80592Y49130D02*
X80038D01*
X79526Y48918D01*
X79133Y48526D01*
X78921Y48013D01*
Y47459D01*
X79133Y46947D01*
X79526Y46555D01*
X80038Y46343D01*
X80592D01*
X81104Y46555D01*
X81497Y46947D01*
X81709Y47459D01*
Y48013D01*
X81497Y48526D01*
X81104Y48918D01*
X80592Y49130D01*
D02*
G37*
G36*
X76262D02*
X75707D01*
X75195Y48918D01*
X74803Y48526D01*
X74590Y48013D01*
Y47459D01*
X74803Y46947D01*
X75195Y46555D01*
X75707Y46343D01*
X76262D01*
X76774Y46555D01*
X77166Y46947D01*
X77378Y47459D01*
Y48013D01*
X77166Y48526D01*
X76774Y48918D01*
X76262Y49130D01*
D02*
G37*
G36*
X71931D02*
X71376D01*
X70864Y48918D01*
X70472Y48526D01*
X70260Y48013D01*
Y47459D01*
X70472Y46947D01*
X70864Y46555D01*
X71376Y46343D01*
X71931D01*
X72443Y46555D01*
X72835Y46947D01*
X73047Y47459D01*
Y48013D01*
X72835Y48526D01*
X72443Y48918D01*
X71931Y49130D01*
D02*
G37*
G36*
X67600D02*
X67046D01*
X66533Y48918D01*
X66141Y48526D01*
X65929Y48013D01*
Y47459D01*
X66141Y46947D01*
X66533Y46555D01*
X67046Y46343D01*
X67600D01*
X68112Y46555D01*
X68504Y46947D01*
X68717Y47459D01*
Y48013D01*
X68504Y48526D01*
X68112Y48918D01*
X67600Y49130D01*
D02*
G37*
G36*
X63269D02*
X62715D01*
X62203Y48918D01*
X61811Y48526D01*
X61598Y48013D01*
Y47459D01*
X61811Y46947D01*
X62203Y46555D01*
X62715Y46343D01*
X63269D01*
X63782Y46555D01*
X64174Y46947D01*
X64386Y47459D01*
Y48013D01*
X64174Y48526D01*
X63782Y48918D01*
X63269Y49130D01*
D02*
G37*
G36*
X58939D02*
X58384D01*
X57872Y48918D01*
X57480Y48526D01*
X57268Y48013D01*
Y47459D01*
X57480Y46947D01*
X57872Y46555D01*
X58384Y46343D01*
X58939D01*
X59451Y46555D01*
X59843Y46947D01*
X60055Y47459D01*
Y48013D01*
X59843Y48526D01*
X59451Y48918D01*
X58939Y49130D01*
D02*
G37*
G36*
X54608D02*
X54053D01*
X53541Y48918D01*
X53149Y48526D01*
X52937Y48013D01*
Y47459D01*
X53149Y46947D01*
X53541Y46555D01*
X54053Y46343D01*
X54608D01*
X55120Y46555D01*
X55512Y46947D01*
X55724Y47459D01*
Y48013D01*
X55512Y48526D01*
X55120Y48918D01*
X54608Y49130D01*
D02*
G37*
G36*
X50277D02*
X49723D01*
X49211Y48918D01*
X48818Y48526D01*
X48606Y48013D01*
Y47459D01*
X48818Y46947D01*
X49211Y46555D01*
X49723Y46343D01*
X50277D01*
X50789Y46555D01*
X51182Y46947D01*
X51394Y47459D01*
Y48013D01*
X51182Y48526D01*
X50789Y48918D01*
X50277Y49130D01*
D02*
G37*
G36*
X45946D02*
X45392D01*
X44880Y48918D01*
X44488Y48526D01*
X44276Y48013D01*
Y47459D01*
X44488Y46947D01*
X44880Y46555D01*
X45392Y46343D01*
X45946D01*
X46459Y46555D01*
X46851Y46947D01*
X47063Y47459D01*
Y48013D01*
X46851Y48526D01*
X46459Y48918D01*
X45946Y49130D01*
D02*
G37*
G36*
X109962Y49425D02*
X109329D01*
X108745Y49183D01*
X108297Y48736D01*
X108055Y48151D01*
Y47518D01*
X108297Y46934D01*
X108745Y46486D01*
X109329Y46244D01*
X109962D01*
X110547Y46486D01*
X110994Y46934D01*
X111236Y47518D01*
Y48151D01*
X110994Y48736D01*
X110547Y49183D01*
X109962Y49425D01*
D02*
G37*
G36*
X118131Y49130D02*
X117499D01*
X116914Y48888D01*
X116467Y48440D01*
X116224Y47856D01*
Y47223D01*
X116467Y46638D01*
X116914Y46191D01*
X117499Y45949D01*
X118131D01*
X118716Y46191D01*
X119163Y46638D01*
X119405Y47223D01*
Y47856D01*
X119163Y48440D01*
X118716Y48888D01*
X118131Y49130D01*
D02*
G37*
G36*
X105392Y46901D02*
X104602D01*
X103873Y46599D01*
X103315Y46041D01*
X103013Y45312D01*
Y44522D01*
X103315Y43793D01*
X103873Y43235D01*
X104602Y42933D01*
X105392D01*
X106121Y43235D01*
X106679Y43793D01*
X106981Y44522D01*
Y45312D01*
X106679Y46041D01*
X106121Y46599D01*
X105392Y46901D01*
D02*
G37*
G36*
X9470Y45882D02*
X8837D01*
X8253Y45640D01*
X7805Y45192D01*
X7563Y44608D01*
Y43975D01*
X7805Y43390D01*
X8253Y42943D01*
X8837Y42701D01*
X9470D01*
X10054Y42943D01*
X10502Y43390D01*
X10744Y43975D01*
Y44608D01*
X10502Y45192D01*
X10054Y45640D01*
X9470Y45882D01*
D02*
G37*
G36*
X110143Y45615D02*
X109510D01*
X108926Y45373D01*
X108478Y44926D01*
X108236Y44341D01*
Y43708D01*
X108478Y43124D01*
X108926Y42676D01*
X109510Y42434D01*
X110143D01*
X110728Y42676D01*
X111175Y43124D01*
X111417Y43708D01*
Y44341D01*
X111175Y44926D01*
X110728Y45373D01*
X110143Y45615D01*
D02*
G37*
G36*
X80592Y44799D02*
X80038D01*
X79526Y44587D01*
X79133Y44195D01*
X78921Y43683D01*
Y43128D01*
X79133Y42616D01*
X79526Y42224D01*
X80038Y42012D01*
X80592D01*
X81104Y42224D01*
X81497Y42616D01*
X81709Y43128D01*
Y43683D01*
X81497Y44195D01*
X81104Y44587D01*
X80592Y44799D01*
D02*
G37*
G36*
X76262D02*
X75707D01*
X75195Y44587D01*
X74803Y44195D01*
X74590Y43683D01*
Y43128D01*
X74803Y42616D01*
X75195Y42224D01*
X75707Y42012D01*
X76262D01*
X76774Y42224D01*
X77166Y42616D01*
X77378Y43128D01*
Y43683D01*
X77166Y44195D01*
X76774Y44587D01*
X76262Y44799D01*
D02*
G37*
G36*
X71931D02*
X71376D01*
X70864Y44587D01*
X70472Y44195D01*
X70260Y43683D01*
Y43128D01*
X70472Y42616D01*
X70864Y42224D01*
X71376Y42012D01*
X71931D01*
X72443Y42224D01*
X72835Y42616D01*
X73047Y43128D01*
Y43683D01*
X72835Y44195D01*
X72443Y44587D01*
X71931Y44799D01*
D02*
G37*
G36*
X67600D02*
X67046D01*
X66533Y44587D01*
X66141Y44195D01*
X65929Y43683D01*
Y43128D01*
X66141Y42616D01*
X66533Y42224D01*
X67046Y42012D01*
X67600D01*
X68112Y42224D01*
X68504Y42616D01*
X68717Y43128D01*
Y43683D01*
X68504Y44195D01*
X68112Y44587D01*
X67600Y44799D01*
D02*
G37*
G36*
X63269D02*
X62715D01*
X62203Y44587D01*
X61811Y44195D01*
X61598Y43683D01*
Y43128D01*
X61811Y42616D01*
X62203Y42224D01*
X62715Y42012D01*
X63269D01*
X63782Y42224D01*
X64174Y42616D01*
X64386Y43128D01*
Y43683D01*
X64174Y44195D01*
X63782Y44587D01*
X63269Y44799D01*
D02*
G37*
G36*
X58939D02*
X58384D01*
X57872Y44587D01*
X57480Y44195D01*
X57268Y43683D01*
Y43128D01*
X57480Y42616D01*
X57872Y42224D01*
X58384Y42012D01*
X58939D01*
X59451Y42224D01*
X59843Y42616D01*
X60055Y43128D01*
Y43683D01*
X59843Y44195D01*
X59451Y44587D01*
X58939Y44799D01*
D02*
G37*
G36*
X54608D02*
X54053D01*
X53541Y44587D01*
X53149Y44195D01*
X52937Y43683D01*
Y43128D01*
X53149Y42616D01*
X53541Y42224D01*
X54053Y42012D01*
X54608D01*
X55120Y42224D01*
X55512Y42616D01*
X55724Y43128D01*
Y43683D01*
X55512Y44195D01*
X55120Y44587D01*
X54608Y44799D01*
D02*
G37*
G36*
X50277D02*
X49723D01*
X49211Y44587D01*
X48818Y44195D01*
X48606Y43683D01*
Y43128D01*
X48818Y42616D01*
X49211Y42224D01*
X49723Y42012D01*
X50277D01*
X50789Y42224D01*
X51182Y42616D01*
X51394Y43128D01*
Y43683D01*
X51182Y44195D01*
X50789Y44587D01*
X50277Y44799D01*
D02*
G37*
G36*
X45946D02*
X45392D01*
X44880Y44587D01*
X44488Y44195D01*
X44276Y43683D01*
Y43128D01*
X44488Y42616D01*
X44880Y42224D01*
X45392Y42012D01*
X45946D01*
X46459Y42224D01*
X46851Y42616D01*
X47063Y43128D01*
Y43683D01*
X46851Y44195D01*
X46459Y44587D01*
X45946Y44799D01*
D02*
G37*
G36*
X117911Y43763D02*
X117278D01*
X116693Y43521D01*
X116246Y43073D01*
X116004Y42489D01*
Y41856D01*
X116246Y41271D01*
X116693Y40824D01*
X117278Y40582D01*
X117911D01*
X118496Y40824D01*
X118943Y41271D01*
X119185Y41856D01*
Y42489D01*
X118943Y43073D01*
X118496Y43521D01*
X117911Y43763D01*
D02*
G37*
G36*
X91738Y43111D02*
X91105D01*
X90521Y42869D01*
X90073Y42421D01*
X89831Y41837D01*
Y41204D01*
X90073Y40619D01*
X90521Y40172D01*
X91105Y39930D01*
X91738D01*
X92323Y40172D01*
X92770Y40619D01*
X92919Y40978D01*
X93166Y40977D01*
X93283Y40943D01*
X93511Y40393D01*
X93958Y39945D01*
X94543Y39703D01*
X95176D01*
X95760Y39945D01*
X96208Y40393D01*
X96450Y40977D01*
Y41610D01*
X96208Y42195D01*
X95760Y42642D01*
X95176Y42884D01*
X94543D01*
X93958Y42642D01*
X93511Y42195D01*
X93362Y41836D01*
X93116Y41836D01*
X92998Y41871D01*
X92770Y42421D01*
X92323Y42869D01*
X91738Y43111D01*
D02*
G37*
G36*
X108092Y42451D02*
X107459D01*
X106875Y42209D01*
X106427Y41761D01*
X106185Y41177D01*
Y40544D01*
X106427Y39960D01*
X106875Y39512D01*
X107459Y39270D01*
X108092D01*
X108677Y39512D01*
X109124Y39960D01*
X109366Y40544D01*
Y41177D01*
X109124Y41761D01*
X108677Y42209D01*
X108092Y42451D01*
D02*
G37*
G36*
X9371Y41945D02*
X8739D01*
X8154Y41703D01*
X7707Y41255D01*
X7465Y40671D01*
Y40038D01*
X7707Y39453D01*
X8154Y39006D01*
X8739Y38764D01*
X9371D01*
X9956Y39006D01*
X10403Y39453D01*
X10646Y40038D01*
Y40671D01*
X10403Y41255D01*
X9956Y41703D01*
X9371Y41945D01*
D02*
G37*
G36*
X104417Y41084D02*
X103785D01*
X103200Y40842D01*
X102752Y40395D01*
X102510Y39810D01*
Y39177D01*
X102752Y38593D01*
X103200Y38145D01*
X103785Y37903D01*
X104417D01*
X105002Y38145D01*
X105449Y38593D01*
X105691Y39177D01*
Y39810D01*
X105449Y40395D01*
X105002Y40842D01*
X104417Y41084D01*
D02*
G37*
G36*
X80592Y40468D02*
X80038D01*
X79526Y40256D01*
X79133Y39864D01*
X78921Y39352D01*
Y38798D01*
X79133Y38285D01*
X79526Y37893D01*
X80038Y37681D01*
X80592D01*
X81104Y37893D01*
X81497Y38285D01*
X81709Y38798D01*
Y39352D01*
X81497Y39864D01*
X81104Y40256D01*
X80592Y40468D01*
D02*
G37*
G36*
X76262D02*
X75707D01*
X75195Y40256D01*
X74803Y39864D01*
X74590Y39352D01*
Y38798D01*
X74803Y38285D01*
X75195Y37893D01*
X75707Y37681D01*
X76262D01*
X76774Y37893D01*
X77166Y38285D01*
X77378Y38798D01*
Y39352D01*
X77166Y39864D01*
X76774Y40256D01*
X76262Y40468D01*
D02*
G37*
G36*
X71931D02*
X71376D01*
X70864Y40256D01*
X70472Y39864D01*
X70260Y39352D01*
Y38798D01*
X70472Y38285D01*
X70864Y37893D01*
X71376Y37681D01*
X71931D01*
X72443Y37893D01*
X72835Y38285D01*
X73047Y38798D01*
Y39352D01*
X72835Y39864D01*
X72443Y40256D01*
X71931Y40468D01*
D02*
G37*
G36*
X67600D02*
X67046D01*
X66533Y40256D01*
X66141Y39864D01*
X65929Y39352D01*
Y38798D01*
X66141Y38285D01*
X66533Y37893D01*
X67046Y37681D01*
X67600D01*
X68112Y37893D01*
X68504Y38285D01*
X68717Y38798D01*
Y39352D01*
X68504Y39864D01*
X68112Y40256D01*
X67600Y40468D01*
D02*
G37*
G36*
X63269D02*
X62715D01*
X62203Y40256D01*
X61811Y39864D01*
X61598Y39352D01*
Y38798D01*
X61811Y38285D01*
X62203Y37893D01*
X62715Y37681D01*
X63269D01*
X63782Y37893D01*
X64174Y38285D01*
X64386Y38798D01*
Y39352D01*
X64174Y39864D01*
X63782Y40256D01*
X63269Y40468D01*
D02*
G37*
G36*
X58939D02*
X58384D01*
X57872Y40256D01*
X57480Y39864D01*
X57268Y39352D01*
Y38798D01*
X57480Y38285D01*
X57872Y37893D01*
X58384Y37681D01*
X58939D01*
X59451Y37893D01*
X59843Y38285D01*
X60055Y38798D01*
Y39352D01*
X59843Y39864D01*
X59451Y40256D01*
X58939Y40468D01*
D02*
G37*
G36*
X54608D02*
X54053D01*
X53541Y40256D01*
X53149Y39864D01*
X52937Y39352D01*
Y38798D01*
X53149Y38285D01*
X53541Y37893D01*
X54053Y37681D01*
X54608D01*
X55120Y37893D01*
X55512Y38285D01*
X55724Y38798D01*
Y39352D01*
X55512Y39864D01*
X55120Y40256D01*
X54608Y40468D01*
D02*
G37*
G36*
X50277D02*
X49723D01*
X49211Y40256D01*
X48818Y39864D01*
X48606Y39352D01*
Y38798D01*
X48818Y38285D01*
X49211Y37893D01*
X49723Y37681D01*
X50277D01*
X50789Y37893D01*
X51182Y38285D01*
X51394Y38798D01*
Y39352D01*
X51182Y39864D01*
X50789Y40256D01*
X50277Y40468D01*
D02*
G37*
G36*
X45946D02*
X45392D01*
X44880Y40256D01*
X44488Y39864D01*
X44276Y39352D01*
Y38798D01*
X44488Y38285D01*
X44880Y37893D01*
X45392Y37681D01*
X45946D01*
X46459Y37893D01*
X46851Y38285D01*
X47063Y38798D01*
Y39352D01*
X46851Y39864D01*
X46459Y40256D01*
X45946Y40468D01*
D02*
G37*
G36*
X17480Y40703D02*
X16848D01*
X16263Y40461D01*
X15816Y40014D01*
X15573Y39429D01*
Y38796D01*
X15816Y38212D01*
X16263Y37764D01*
X16848Y37522D01*
X17480D01*
X18065Y37764D01*
X18512Y38212D01*
X18755Y38796D01*
Y39429D01*
X18512Y40014D01*
X18065Y40461D01*
X17480Y40703D01*
D02*
G37*
G36*
X109117Y38738D02*
X108484D01*
X107900Y38495D01*
X107452Y38048D01*
X107210Y37463D01*
Y36831D01*
X107452Y36246D01*
X107900Y35799D01*
X108484Y35557D01*
X109117D01*
X109702Y35799D01*
X110149Y36246D01*
X110391Y36831D01*
Y37463D01*
X110149Y38048D01*
X109702Y38495D01*
X109117Y38738D01*
D02*
G37*
G36*
X22120Y48069D02*
X21488D01*
X20903Y47826D01*
X20456Y47379D01*
X20214Y46795D01*
Y46162D01*
X20456Y45577D01*
X20903Y45130D01*
X21488Y44888D01*
X21754D01*
X21812Y44562D01*
X21227Y44319D01*
X20780Y43872D01*
X20538Y43287D01*
Y42655D01*
X20780Y42070D01*
X21227Y41623D01*
X21680Y41435D01*
X21682Y41057D01*
X21340Y40915D01*
X20893Y40468D01*
X20651Y39883D01*
Y39250D01*
X20893Y38666D01*
X21340Y38219D01*
X21802Y38027D01*
X21812Y37653D01*
X21659Y37590D01*
X21212Y37142D01*
X20970Y36558D01*
Y35925D01*
X21212Y35340D01*
X21659Y34893D01*
X22244Y34651D01*
X22876D01*
X23461Y34893D01*
X23909Y35340D01*
X24151Y35925D01*
Y36558D01*
X23909Y37142D01*
X23461Y37590D01*
X23000Y37781D01*
X22989Y38155D01*
X23142Y38219D01*
X23589Y38666D01*
X23832Y39250D01*
Y39883D01*
X23589Y40468D01*
X23142Y40915D01*
X22689Y41103D01*
X22687Y41481D01*
X23029Y41623D01*
X23477Y42070D01*
X23719Y42655D01*
Y43287D01*
X23477Y43872D01*
X23029Y44319D01*
X22445Y44562D01*
X22178D01*
X22120Y44888D01*
X22705Y45130D01*
X23153Y45577D01*
X23395Y46162D01*
Y46795D01*
X23153Y47379D01*
X22705Y47826D01*
X22120Y48069D01*
D02*
G37*
G36*
X17639Y37122D02*
X17007D01*
X16422Y36880D01*
X15974Y36432D01*
X15732Y35848D01*
Y35215D01*
X15974Y34631D01*
X16422Y34183D01*
X17007Y33941D01*
X17639D01*
X18224Y34183D01*
X18671Y34631D01*
X18913Y35215D01*
Y35848D01*
X18671Y36432D01*
X18224Y36880D01*
X17639Y37122D01*
D02*
G37*
G36*
X80592Y36138D02*
X80038D01*
X79526Y35926D01*
X79133Y35534D01*
X78921Y35021D01*
Y34467D01*
X79133Y33955D01*
X79526Y33563D01*
X80038Y33350D01*
X80592D01*
X81104Y33563D01*
X81497Y33955D01*
X81709Y34467D01*
Y35021D01*
X81497Y35534D01*
X81104Y35926D01*
X80592Y36138D01*
D02*
G37*
G36*
X76262D02*
X75707D01*
X75195Y35926D01*
X74803Y35534D01*
X74590Y35021D01*
Y34467D01*
X74803Y33955D01*
X75195Y33563D01*
X75707Y33350D01*
X76262D01*
X76774Y33563D01*
X77166Y33955D01*
X77378Y34467D01*
Y35021D01*
X77166Y35534D01*
X76774Y35926D01*
X76262Y36138D01*
D02*
G37*
G36*
X71931D02*
X71376D01*
X70864Y35926D01*
X70472Y35534D01*
X70260Y35021D01*
Y34467D01*
X70472Y33955D01*
X70864Y33563D01*
X71376Y33350D01*
X71931D01*
X72443Y33563D01*
X72835Y33955D01*
X73047Y34467D01*
Y35021D01*
X72835Y35534D01*
X72443Y35926D01*
X71931Y36138D01*
D02*
G37*
G36*
X67600D02*
X67046D01*
X66533Y35926D01*
X66141Y35534D01*
X65929Y35021D01*
Y34467D01*
X66141Y33955D01*
X66533Y33563D01*
X67046Y33350D01*
X67600D01*
X68112Y33563D01*
X68504Y33955D01*
X68717Y34467D01*
Y35021D01*
X68504Y35534D01*
X68112Y35926D01*
X67600Y36138D01*
D02*
G37*
G36*
X63269D02*
X62715D01*
X62203Y35926D01*
X61811Y35534D01*
X61598Y35021D01*
Y34467D01*
X61811Y33955D01*
X62203Y33563D01*
X62715Y33350D01*
X63269D01*
X63782Y33563D01*
X64174Y33955D01*
X64386Y34467D01*
Y35021D01*
X64174Y35534D01*
X63782Y35926D01*
X63269Y36138D01*
D02*
G37*
G36*
X58939D02*
X58384D01*
X57872Y35926D01*
X57480Y35534D01*
X57268Y35021D01*
Y34467D01*
X57480Y33955D01*
X57872Y33563D01*
X58384Y33350D01*
X58939D01*
X59451Y33563D01*
X59843Y33955D01*
X60055Y34467D01*
Y35021D01*
X59843Y35534D01*
X59451Y35926D01*
X58939Y36138D01*
D02*
G37*
G36*
X54608D02*
X54053D01*
X53541Y35926D01*
X53149Y35534D01*
X52937Y35021D01*
Y34467D01*
X53149Y33955D01*
X53541Y33563D01*
X54053Y33350D01*
X54608D01*
X55120Y33563D01*
X55512Y33955D01*
X55724Y34467D01*
Y35021D01*
X55512Y35534D01*
X55120Y35926D01*
X54608Y36138D01*
D02*
G37*
G36*
X50277D02*
X49723D01*
X49211Y35926D01*
X48818Y35534D01*
X48606Y35021D01*
Y34467D01*
X48818Y33955D01*
X49211Y33563D01*
X49723Y33350D01*
X50277D01*
X50789Y33563D01*
X51182Y33955D01*
X51394Y34467D01*
Y35021D01*
X51182Y35534D01*
X50789Y35926D01*
X50277Y36138D01*
D02*
G37*
G36*
X45946D02*
X45392D01*
X44880Y35926D01*
X44488Y35534D01*
X44276Y35021D01*
Y34467D01*
X44488Y33955D01*
X44880Y33563D01*
X45392Y33350D01*
X45946D01*
X46459Y33563D01*
X46851Y33955D01*
X47063Y34467D01*
Y35021D01*
X46851Y35534D01*
X46459Y35926D01*
X45946Y36138D01*
D02*
G37*
G36*
X9470Y35153D02*
X8837D01*
X8253Y34911D01*
X7805Y34464D01*
X7563Y33879D01*
Y33247D01*
X7805Y32662D01*
X8253Y32215D01*
X8837Y31972D01*
X9470D01*
X10054Y32215D01*
X10502Y32662D01*
X10744Y33247D01*
Y33879D01*
X10502Y34464D01*
X10054Y34911D01*
X9470Y35153D01*
D02*
G37*
G36*
X30628Y35073D02*
X29996D01*
X29411Y34830D01*
X28964Y34383D01*
X28721Y33798D01*
Y33166D01*
X28964Y32581D01*
X29411Y32134D01*
X29996Y31892D01*
X30628D01*
X31213Y32134D01*
X31660Y32581D01*
X31903Y33166D01*
Y33798D01*
X31660Y34383D01*
X31213Y34830D01*
X30628Y35073D01*
D02*
G37*
G36*
X35353Y34071D02*
X34720D01*
X34135Y33829D01*
X33688Y33381D01*
X33446Y32797D01*
Y32164D01*
X33688Y31579D01*
X34135Y31132D01*
X34720Y30890D01*
X35353D01*
X35937Y31132D01*
X36385Y31579D01*
X36627Y32164D01*
Y32797D01*
X36385Y33381D01*
X35937Y33829D01*
X35353Y34071D01*
D02*
G37*
G36*
X92049Y36236D02*
X91416D01*
X90831Y35994D01*
X90384Y35547D01*
X90142Y34962D01*
Y34329D01*
X90384Y33745D01*
X90831Y33297D01*
X91117Y33179D01*
X91155Y33062D01*
X91162Y32781D01*
X90778Y32397D01*
X90535Y31812D01*
Y31180D01*
X90778Y30595D01*
X91225Y30148D01*
X91810Y29906D01*
X92442D01*
X93027Y30148D01*
X93474Y30595D01*
X93717Y31180D01*
Y31812D01*
X93474Y32397D01*
X93027Y32844D01*
X92741Y32963D01*
X92703Y33079D01*
X92696Y33360D01*
X93081Y33745D01*
X93323Y34329D01*
Y34962D01*
X93081Y35547D01*
X92633Y35994D01*
X92049Y36236D01*
D02*
G37*
G36*
X80592Y31807D02*
X80038D01*
X79526Y31595D01*
X79133Y31203D01*
X78921Y30691D01*
Y30136D01*
X79133Y29624D01*
X79526Y29232D01*
X80038Y29020D01*
X80592D01*
X81104Y29232D01*
X81497Y29624D01*
X81709Y30136D01*
Y30691D01*
X81497Y31203D01*
X81104Y31595D01*
X80592Y31807D01*
D02*
G37*
G36*
X76262D02*
X75707D01*
X75195Y31595D01*
X74803Y31203D01*
X74590Y30691D01*
Y30136D01*
X74803Y29624D01*
X75195Y29232D01*
X75707Y29020D01*
X76262D01*
X76774Y29232D01*
X77166Y29624D01*
X77378Y30136D01*
Y30691D01*
X77166Y31203D01*
X76774Y31595D01*
X76262Y31807D01*
D02*
G37*
G36*
X71931D02*
X71376D01*
X70864Y31595D01*
X70472Y31203D01*
X70260Y30691D01*
Y30136D01*
X70472Y29624D01*
X70864Y29232D01*
X71376Y29020D01*
X71931D01*
X72443Y29232D01*
X72835Y29624D01*
X73047Y30136D01*
Y30691D01*
X72835Y31203D01*
X72443Y31595D01*
X71931Y31807D01*
D02*
G37*
G36*
X67600D02*
X67046D01*
X66533Y31595D01*
X66141Y31203D01*
X65929Y30691D01*
Y30136D01*
X66141Y29624D01*
X66533Y29232D01*
X67046Y29020D01*
X67600D01*
X68112Y29232D01*
X68504Y29624D01*
X68717Y30136D01*
Y30691D01*
X68504Y31203D01*
X68112Y31595D01*
X67600Y31807D01*
D02*
G37*
G36*
X63269D02*
X62715D01*
X62203Y31595D01*
X61811Y31203D01*
X61598Y30691D01*
Y30136D01*
X61811Y29624D01*
X62203Y29232D01*
X62715Y29020D01*
X63269D01*
X63782Y29232D01*
X64174Y29624D01*
X64386Y30136D01*
Y30691D01*
X64174Y31203D01*
X63782Y31595D01*
X63269Y31807D01*
D02*
G37*
G36*
X58939D02*
X58384D01*
X57872Y31595D01*
X57480Y31203D01*
X57268Y30691D01*
Y30136D01*
X57480Y29624D01*
X57872Y29232D01*
X58384Y29020D01*
X58939D01*
X59451Y29232D01*
X59843Y29624D01*
X60055Y30136D01*
Y30691D01*
X59843Y31203D01*
X59451Y31595D01*
X58939Y31807D01*
D02*
G37*
G36*
X54608D02*
X54053D01*
X53541Y31595D01*
X53149Y31203D01*
X52937Y30691D01*
Y30136D01*
X53149Y29624D01*
X53541Y29232D01*
X54053Y29020D01*
X54608D01*
X55120Y29232D01*
X55512Y29624D01*
X55724Y30136D01*
Y30691D01*
X55512Y31203D01*
X55120Y31595D01*
X54608Y31807D01*
D02*
G37*
G36*
X50277D02*
X49723D01*
X49211Y31595D01*
X48818Y31203D01*
X48606Y30691D01*
Y30136D01*
X48818Y29624D01*
X49211Y29232D01*
X49723Y29020D01*
X50277D01*
X50789Y29232D01*
X51182Y29624D01*
X51394Y30136D01*
Y30691D01*
X51182Y31203D01*
X50789Y31595D01*
X50277Y31807D01*
D02*
G37*
G36*
X45946D02*
X45392D01*
X44880Y31595D01*
X44488Y31203D01*
X44276Y30691D01*
Y30136D01*
X44488Y29624D01*
X44880Y29232D01*
X45392Y29020D01*
X45946D01*
X46459Y29232D01*
X46851Y29624D01*
X47063Y30136D01*
Y30691D01*
X46851Y31203D01*
X46459Y31595D01*
X45946Y31807D01*
D02*
G37*
G36*
X104398Y31044D02*
X103766D01*
X103181Y30802D01*
X102734Y30355D01*
X102491Y29770D01*
Y29137D01*
X102734Y28553D01*
X103181Y28105D01*
X103766Y27863D01*
X104398D01*
X104983Y28105D01*
X105430Y28553D01*
X105673Y29137D01*
Y29770D01*
X105430Y30355D01*
X104983Y30802D01*
X104398Y31044D01*
D02*
G37*
G36*
X89983Y30034D02*
X89350D01*
X88766Y29792D01*
X88318Y29344D01*
X88076Y28760D01*
Y28127D01*
X88318Y27542D01*
X88766Y27095D01*
X89350Y26853D01*
X89983D01*
X90568Y27095D01*
X91015Y27542D01*
X91257Y28127D01*
Y28760D01*
X91015Y29344D01*
X90568Y29792D01*
X89983Y30034D01*
D02*
G37*
G36*
X6911Y28559D02*
X6278D01*
X5694Y28317D01*
X5246Y27869D01*
X5004Y27285D01*
Y26652D01*
X5246Y26068D01*
X5694Y25620D01*
X6278Y25378D01*
X6911D01*
X7496Y25620D01*
X7943Y26068D01*
X8185Y26652D01*
Y27285D01*
X7943Y27869D01*
X7496Y28317D01*
X6911Y28559D01*
D02*
G37*
G36*
X97161Y26368D02*
X96528D01*
X95943Y26126D01*
X95496Y25679D01*
X95254Y25094D01*
Y24626D01*
X94904Y24481D01*
X94602Y24784D01*
X94017Y25026D01*
X93384D01*
X92800Y24784D01*
X92352Y24336D01*
X92110Y23752D01*
Y23119D01*
X92352Y22534D01*
X92800Y22087D01*
X93384Y21845D01*
X94017D01*
X94602Y22087D01*
X95049Y22534D01*
X95291Y23119D01*
Y23587D01*
X95641Y23732D01*
X95943Y23430D01*
X96528Y23187D01*
X97161D01*
X97746Y23430D01*
X98193Y23877D01*
X98435Y24462D01*
Y25094D01*
X98193Y25679D01*
X97746Y26126D01*
X97161Y26368D01*
D02*
G37*
G36*
X31578Y25114D02*
X30945D01*
X30361Y24872D01*
X29913Y24425D01*
X29671Y23840D01*
Y23207D01*
X29913Y22623D01*
X30361Y22175D01*
X30945Y21933D01*
X31578D01*
X32163Y22175D01*
X32610Y22623D01*
X32852Y23207D01*
Y23840D01*
X32610Y24425D01*
X32163Y24872D01*
X31578Y25114D01*
D02*
G37*
G36*
X23229Y24630D02*
X22596D01*
X22011Y24388D01*
X21564Y23941D01*
X21322Y23356D01*
Y22723D01*
X21564Y22139D01*
X22011Y21691D01*
X22596Y21449D01*
X23229D01*
X23813Y21691D01*
X24261Y22139D01*
X24503Y22723D01*
Y23356D01*
X24261Y23941D01*
X23813Y24388D01*
X23229Y24630D01*
D02*
G37*
G36*
X91159Y22168D02*
X90527D01*
X89942Y21926D01*
X89495Y21478D01*
X89252Y20894D01*
Y20261D01*
X89495Y19676D01*
X89942Y19229D01*
X90527Y18987D01*
X91159D01*
X91744Y19229D01*
X92191Y19676D01*
X92434Y20261D01*
Y20894D01*
X92191Y21478D01*
X91744Y21926D01*
X91159Y22168D01*
D02*
G37*
G36*
X31419Y19898D02*
X30786D01*
X30201Y19656D01*
X29754Y19208D01*
X29512Y18623D01*
Y17991D01*
X29754Y17406D01*
X30201Y16959D01*
X30786Y16716D01*
X31419D01*
X32003Y16959D01*
X32451Y17406D01*
X32693Y17991D01*
Y18623D01*
X32451Y19208D01*
X32003Y19656D01*
X31419Y19898D01*
D02*
G37*
G36*
X100316Y16945D02*
X99684D01*
X99099Y16703D01*
X98652Y16255D01*
X98409Y15671D01*
Y15038D01*
X98488Y14849D01*
X98199Y14681D01*
X97751Y15128D01*
X97167Y15370D01*
X96534D01*
X95949Y15128D01*
X95502Y14681D01*
X95260Y14096D01*
Y13463D01*
X95502Y12879D01*
X95949Y12431D01*
X96534Y12189D01*
X97167D01*
X97751Y12431D01*
X98199Y12879D01*
X98441Y13463D01*
Y14096D01*
X98363Y14285D01*
X98652Y14453D01*
X99099Y14006D01*
X99684Y13764D01*
X100316D01*
X100901Y14006D01*
X101348Y14453D01*
X101591Y15038D01*
Y15671D01*
X101348Y16255D01*
X100901Y16703D01*
X100316Y16945D01*
D02*
G37*
G36*
X49069Y17656D02*
X48436D01*
X47852Y17414D01*
X47405Y16967D01*
X47162Y16382D01*
Y15749D01*
X47405Y15165D01*
X47852Y14717D01*
X48436Y14475D01*
X49069D01*
X49654Y14717D01*
X50101Y15165D01*
X50344Y15749D01*
Y16382D01*
X50101Y16967D01*
X49654Y17414D01*
X49069Y17656D01*
D02*
G37*
G36*
X33584Y16847D02*
X32951D01*
X32367Y16604D01*
X31919Y16157D01*
X31677Y15572D01*
Y14940D01*
X31919Y14355D01*
X32367Y13907D01*
X32951Y13665D01*
X33584D01*
X34169Y13907D01*
X34616Y14355D01*
X34858Y14940D01*
Y15572D01*
X34616Y16157D01*
X34169Y16604D01*
X33584Y16847D01*
D02*
G37*
G36*
X87471Y15391D02*
X86839D01*
X86254Y15149D01*
X85807Y14702D01*
X85565Y14117D01*
Y13484D01*
X85807Y12900D01*
X86254Y12452D01*
X86839Y12210D01*
X87471D01*
X88056Y12452D01*
X88503Y12900D01*
X88746Y13484D01*
Y14117D01*
X88503Y14702D01*
X88056Y15149D01*
X87471Y15391D01*
D02*
G37*
G36*
X36242Y14287D02*
X35609D01*
X35024Y14045D01*
X34577Y13598D01*
X34335Y13013D01*
Y12381D01*
X34577Y11796D01*
X35024Y11348D01*
X35609Y11106D01*
X36242D01*
X36826Y11348D01*
X37274Y11796D01*
X37516Y12381D01*
Y13013D01*
X37274Y13598D01*
X36826Y14045D01*
X36242Y14287D01*
D02*
G37*
G36*
X40868Y14189D02*
X40235D01*
X39650Y13947D01*
X39203Y13499D01*
X38961Y12915D01*
Y12282D01*
X39203Y11698D01*
X39650Y11250D01*
X40235Y11008D01*
X40868D01*
X41452Y11250D01*
X41900Y11698D01*
X42142Y12282D01*
Y12915D01*
X41900Y13499D01*
X41452Y13947D01*
X40868Y14189D01*
D02*
G37*
G36*
X18033D02*
X17400D01*
X16816Y13947D01*
X16368Y13499D01*
X16126Y12915D01*
Y12282D01*
X16368Y11698D01*
X16816Y11250D01*
X17400Y11008D01*
X18033D01*
X18618Y11250D01*
X19065Y11698D01*
X19307Y12282D01*
Y12915D01*
X19065Y13499D01*
X18618Y13947D01*
X18033Y14189D01*
D02*
G37*
G36*
X12127D02*
X11495D01*
X10910Y13947D01*
X10463Y13499D01*
X10221Y12915D01*
Y12282D01*
X10463Y11698D01*
X10910Y11250D01*
X11495Y11008D01*
X12127D01*
X12712Y11250D01*
X13159Y11698D01*
X13402Y12282D01*
Y12915D01*
X13159Y13499D01*
X12712Y13947D01*
X12127Y14189D01*
D02*
G37*
G36*
X45001Y13303D02*
X44369D01*
X43784Y13061D01*
X43337Y12614D01*
X43095Y12029D01*
Y11396D01*
X43337Y10812D01*
X43784Y10364D01*
X44369Y10122D01*
X45001D01*
X45586Y10364D01*
X46033Y10812D01*
X46276Y11396D01*
Y12029D01*
X46033Y12614D01*
X45586Y13061D01*
X45001Y13303D01*
D02*
G37*
G36*
X104057Y13106D02*
X103424D01*
X102839Y12864D01*
X102392Y12417D01*
X102150Y11832D01*
Y11199D01*
X102392Y10615D01*
X102839Y10167D01*
X103424Y9925D01*
X104057D01*
X104641Y10167D01*
X105089Y10615D01*
X105331Y11199D01*
Y11832D01*
X105089Y12417D01*
X104641Y12864D01*
X104057Y13106D01*
D02*
G37*
G36*
X51599Y11332D02*
X50966D01*
X50381Y11090D01*
X49934Y10642D01*
X49692Y10058D01*
Y9977D01*
X49342Y9907D01*
X49197Y10257D01*
X48749Y10704D01*
X48165Y10947D01*
X47532D01*
X46948Y10704D01*
X46500Y10257D01*
X46258Y9672D01*
Y9040D01*
X46500Y8455D01*
X46948Y8008D01*
X47532Y7766D01*
X48165D01*
X48749Y8008D01*
X49197Y8455D01*
X49439Y9040D01*
Y9121D01*
X49789Y9190D01*
X49934Y8840D01*
X50381Y8393D01*
X50966Y8151D01*
X51599D01*
X52183Y8393D01*
X52390Y8600D01*
X52539Y8575D01*
X52766Y8480D01*
X52982Y7957D01*
X53430Y7510D01*
X54014Y7268D01*
X54647D01*
X55232Y7510D01*
X55679Y7957D01*
X55921Y8542D01*
Y9175D01*
X55679Y9759D01*
X55232Y10207D01*
X54647Y10449D01*
X54014D01*
X53430Y10207D01*
X53223Y10000D01*
X53074Y10024D01*
X52847Y10119D01*
X52631Y10642D01*
X52183Y11090D01*
X51599Y11332D01*
D02*
G37*
G36*
X93820Y12713D02*
X93188D01*
X92603Y12470D01*
X92155Y12023D01*
X91913Y11438D01*
Y10806D01*
X92155Y10221D01*
X92603Y9774D01*
X93188Y9532D01*
X93820D01*
X94405Y9774D01*
X94852Y10221D01*
X95095Y10806D01*
Y11438D01*
X94852Y12023D01*
X94405Y12470D01*
X93820Y12713D01*
D02*
G37*
G36*
X57403D02*
X56770D01*
X56186Y12470D01*
X55738Y12023D01*
X55496Y11438D01*
Y10806D01*
X55738Y10221D01*
X56186Y9774D01*
X56770Y9532D01*
X57403D01*
X57988Y9774D01*
X58435Y10221D01*
X58677Y10806D01*
Y11438D01*
X58435Y12023D01*
X57988Y12470D01*
X57403Y12713D01*
D02*
G37*
G36*
X67410Y11367D02*
X66777D01*
X66193Y11125D01*
X65746Y10677D01*
X65503Y10093D01*
Y9460D01*
X65746Y8875D01*
X66193Y8428D01*
X66777Y8186D01*
X67410D01*
X67995Y8428D01*
X68442Y8875D01*
X68684Y9460D01*
Y10093D01*
X68442Y10677D01*
X67995Y11125D01*
X67410Y11367D01*
D02*
G37*
G36*
X81802Y10915D02*
X81170D01*
X80585Y10673D01*
X80138Y10226D01*
X79896Y9641D01*
Y9008D01*
X80138Y8424D01*
X80266Y8296D01*
X80035Y8041D01*
X79450Y8283D01*
X78817D01*
X78233Y8041D01*
X77785Y7594D01*
X77543Y7009D01*
Y6376D01*
X77785Y5792D01*
X78233Y5345D01*
X78817Y5102D01*
X79450D01*
X80035Y5345D01*
X80482Y5792D01*
X80724Y6376D01*
Y7009D01*
X80482Y7594D01*
X80354Y7722D01*
X80585Y7976D01*
X81170Y7734D01*
X81802D01*
X82387Y7976D01*
X82835Y8424D01*
X83077Y9008D01*
Y9641D01*
X82835Y10226D01*
X82387Y10673D01*
X81802Y10915D01*
D02*
G37*
G36*
X90080Y11039D02*
X89447D01*
X88863Y10797D01*
X88415Y10350D01*
X88173Y9765D01*
Y9132D01*
X88415Y8548D01*
X88863Y8100D01*
X89447Y7858D01*
X90080D01*
X90665Y8100D01*
X91112Y8548D01*
X91354Y9132D01*
Y9765D01*
X91112Y10350D01*
X90665Y10797D01*
X90080Y11039D01*
D02*
G37*
G36*
X109840Y11417D02*
X109057D01*
X108334Y11118D01*
X107780Y10564D01*
X107480Y9840D01*
Y9057D01*
X107780Y8334D01*
X108334Y7780D01*
X109057Y7480D01*
X109840D01*
X110564Y7780D01*
X111118Y8334D01*
X111417Y9057D01*
Y9840D01*
X111118Y10564D01*
X110564Y11118D01*
X109840Y11417D01*
D02*
G37*
G36*
X85844Y10346D02*
X85211D01*
X84626Y10104D01*
X84179Y9657D01*
X83937Y9072D01*
Y8439D01*
X84179Y7855D01*
X84626Y7407D01*
X85211Y7165D01*
X85844D01*
X86428Y7407D01*
X86876Y7855D01*
X87118Y8439D01*
Y9072D01*
X86876Y9657D01*
X86428Y10104D01*
X85844Y10346D01*
D02*
G37*
G36*
X14958Y10630D02*
X14175D01*
X13452Y10330D01*
X12898Y9776D01*
X12598Y9053D01*
Y8270D01*
X12898Y7546D01*
X13452Y6993D01*
X14175Y6693D01*
X14958D01*
X15682Y6993D01*
X16236Y7546D01*
X16535Y8270D01*
Y9053D01*
X16236Y9776D01*
X15682Y10330D01*
X14958Y10630D01*
D02*
G37*
G36*
X61143Y11433D02*
X60510D01*
X59926Y11191D01*
X59478Y10744D01*
X59236Y10159D01*
Y9526D01*
X59478Y8941D01*
X59926Y8494D01*
X60510Y8252D01*
X61143D01*
X61728Y8494D01*
X62059Y8825D01*
X62356Y8627D01*
X62189Y8225D01*
Y7592D01*
X62431Y7007D01*
X62879Y6560D01*
X63463Y6318D01*
X64096D01*
X64680Y6560D01*
X65128Y7007D01*
X65370Y7592D01*
Y8225D01*
X65128Y8809D01*
X64680Y9257D01*
X64096Y9499D01*
X63463D01*
X62879Y9257D01*
X62547Y8926D01*
X62251Y9124D01*
X62417Y9526D01*
Y10159D01*
X62175Y10744D01*
X61728Y11191D01*
X61143Y11433D01*
D02*
G37*
G36*
X74918Y11633D02*
X74286D01*
X73701Y11391D01*
X73254Y10943D01*
X73011Y10358D01*
Y9726D01*
X73254Y9141D01*
X73701Y8694D01*
X73964Y8585D01*
Y8206D01*
X73804Y8140D01*
X73356Y7692D01*
X73114Y7108D01*
Y6475D01*
X73356Y5890D01*
X73804Y5443D01*
X74388Y5201D01*
X75021D01*
X75606Y5443D01*
X76053Y5890D01*
X76295Y6475D01*
Y7108D01*
X76053Y7692D01*
X75606Y8140D01*
X75343Y8249D01*
Y8627D01*
X75503Y8694D01*
X75950Y9141D01*
X76193Y9726D01*
Y10358D01*
X75950Y10943D01*
X75503Y11391D01*
X74918Y11633D01*
D02*
G37*
G36*
X70789Y8283D02*
X70156D01*
X69572Y8041D01*
X69124Y7594D01*
X68882Y7009D01*
Y6376D01*
X69124Y5792D01*
X69572Y5345D01*
X70156Y5102D01*
X70789D01*
X71373Y5345D01*
X71821Y5792D01*
X72063Y6376D01*
Y7009D01*
X71821Y7594D01*
X71373Y8041D01*
X70789Y8283D01*
D02*
G37*
%LPD*%
D29*
X104724Y45190D02*
X104997Y44917D01*
D33*
X86221Y86221D02*
D03*
D34*
X91616Y37864D02*
D03*
X90748Y47733D02*
D03*
X81496Y75984D02*
D03*
X44882Y75590D02*
D03*
X60416Y13023D02*
D03*
X104082Y34154D02*
D03*
X8071Y61811D02*
D03*
X34646Y61910D02*
D03*
X104997Y44917D02*
D03*
X34449Y36614D02*
D03*
X38484Y20087D02*
D03*
M02*
