G04*
G04 #@! TF.GenerationSoftware,Altium Limited,Altium Designer,24.6.1 (21)*
G04*
G04 Layer_Color=8388736*
%FSLAX25Y25*%
%MOIN*%
G70*
G04*
G04 #@! TF.SameCoordinates,968F5DAC-6C38-4F8D-B6AE-AF4369227771*
G04*
G04*
G04 #@! TF.FilePolarity,Negative*
G04*
G01*
G75*
%ADD16R,0.02165X0.03543*%
%ADD20R,0.03543X0.02165*%
%ADD21C,0.02400*%
%ADD22R,0.02402X0.03543*%
%ADD23R,0.05512X0.19685*%
%ADD24R,0.40064X0.40064*%
%ADD25O,0.01087X0.03647*%
%ADD26O,0.03647X0.01087*%
%ADD27C,0.01087*%
%ADD28C,0.04237*%
D16*
X103425Y77953D02*
D03*
X109173D02*
D03*
X75472Y79921D02*
D03*
X81221D02*
D03*
X50906D02*
D03*
X45158D02*
D03*
X17559Y16929D02*
D03*
X11811D02*
D03*
X21535Y50000D02*
D03*
X27283D02*
D03*
X26496Y62598D02*
D03*
X20748D02*
D03*
D20*
X29528Y38465D02*
D03*
Y44213D02*
D03*
D21*
X62234Y80709D02*
X61819Y81569D01*
X60889Y81781D01*
X60143Y81186D01*
Y80231D01*
X60889Y79636D01*
X61819Y79849D01*
X62234Y80709D01*
X62014D02*
X61599Y81569D01*
X60669Y81781D01*
X59923Y81186D01*
Y80231D01*
X60669Y79636D01*
X61599Y79849D01*
X62014Y80709D01*
X92832Y80699D02*
X92418Y81559D01*
X91487Y81771D01*
X90741Y81176D01*
Y80221D01*
X91487Y79626D01*
X92418Y79839D01*
X92832Y80699D01*
X106021Y49398D02*
X105607Y50258D01*
X104676Y50470D01*
X103930Y49875D01*
Y48921D01*
X104676Y48325D01*
X105607Y48538D01*
X106021Y49398D01*
Y49618D02*
X105607Y50478D01*
X104676Y50690D01*
X103930Y50095D01*
Y49141D01*
X104676Y48545D01*
X105607Y48758D01*
X106021Y49618D01*
D22*
X21654Y93504D02*
D03*
D23*
X32283Y85433D02*
D03*
X11024D02*
D03*
D24*
X62992Y47736D02*
D03*
D25*
X44094Y70965D02*
D03*
X45669D02*
D03*
X47244D02*
D03*
X48819D02*
D03*
X50394D02*
D03*
X51968D02*
D03*
X53543D02*
D03*
X55118D02*
D03*
X56693D02*
D03*
X58268D02*
D03*
X59842D02*
D03*
X61417D02*
D03*
X62992D02*
D03*
X64567D02*
D03*
X66142D02*
D03*
X67716D02*
D03*
X69291D02*
D03*
X70866D02*
D03*
X72441D02*
D03*
X74016D02*
D03*
X75590D02*
D03*
X77165D02*
D03*
X78740D02*
D03*
X80315D02*
D03*
X81890D02*
D03*
Y24508D02*
D03*
X80315D02*
D03*
X78740D02*
D03*
X77165D02*
D03*
X75590D02*
D03*
X74016D02*
D03*
X72441D02*
D03*
X70866D02*
D03*
X69291D02*
D03*
X67716D02*
D03*
X66142D02*
D03*
X64567D02*
D03*
X62992D02*
D03*
X61417D02*
D03*
X59842D02*
D03*
X58268D02*
D03*
X56693D02*
D03*
X55118D02*
D03*
X53543D02*
D03*
X51968D02*
D03*
X50394D02*
D03*
X48819D02*
D03*
X47244D02*
D03*
X45669D02*
D03*
X44094D02*
D03*
D26*
X86221Y66634D02*
D03*
Y65059D02*
D03*
Y63484D02*
D03*
Y61910D02*
D03*
Y60335D02*
D03*
Y58760D02*
D03*
Y57185D02*
D03*
Y55610D02*
D03*
Y54035D02*
D03*
Y52461D02*
D03*
Y50886D02*
D03*
Y49311D02*
D03*
Y47736D02*
D03*
Y46161D02*
D03*
Y44587D02*
D03*
Y43012D02*
D03*
Y41437D02*
D03*
Y39862D02*
D03*
Y38287D02*
D03*
Y36713D02*
D03*
Y35138D02*
D03*
Y33563D02*
D03*
Y31988D02*
D03*
Y30413D02*
D03*
Y28839D02*
D03*
X39764D02*
D03*
Y30413D02*
D03*
Y31988D02*
D03*
Y33563D02*
D03*
Y35138D02*
D03*
Y36713D02*
D03*
Y38287D02*
D03*
Y39862D02*
D03*
Y41437D02*
D03*
Y43012D02*
D03*
Y44587D02*
D03*
Y46161D02*
D03*
Y47736D02*
D03*
Y49311D02*
D03*
Y50886D02*
D03*
Y52461D02*
D03*
Y54035D02*
D03*
Y55610D02*
D03*
Y57185D02*
D03*
Y58760D02*
D03*
Y60335D02*
D03*
Y61910D02*
D03*
Y63484D02*
D03*
Y65059D02*
D03*
Y66634D02*
D03*
D27*
X62354Y80709D02*
D03*
X59694D02*
D03*
X91732Y79479D02*
D03*
Y81939D02*
D03*
X104921Y48178D02*
D03*
Y50838D02*
D03*
D28*
X109449Y9449D02*
D03*
X14567Y8661D02*
D03*
X86221Y86221D02*
D03*
M02*
