G04*
G04 #@! TF.GenerationSoftware,Altium Limited,Altium Designer,24.6.1 (21)*
G04*
G04 Layer_Physical_Order=4*
G04 Layer_Color=16776960*
%FSLAX25Y25*%
%MOIN*%
G70*
G04*
G04 #@! TF.SameCoordinates,FCA5704B-31CB-4EDA-9B93-1EE264664BD2*
G04*
G04*
G04 #@! TF.FilePolarity,Positive*
G04*
G01*
G75*
%ADD26C,0.00750*%
%ADD30C,0.01968*%
D26*
X67843Y6460D02*
X70239D01*
X70472Y6693D01*
X66932Y5549D02*
X67843Y6460D01*
X33153Y5549D02*
X66932D01*
X6594Y26969D02*
Y47835D01*
X8957Y50197D01*
X20553Y18149D02*
Y24526D01*
X17323Y27756D02*
Y35531D01*
Y27756D02*
X20553Y24526D01*
X46433Y8271D02*
X47519Y9356D01*
X47848D01*
X34223Y8271D02*
X46433D01*
X51049Y8379D02*
Y9508D01*
X51282Y9741D01*
X49560Y6890D02*
X51049Y8379D01*
X33708Y6890D02*
X49560D01*
X36255Y12697D02*
X38714Y15156D01*
X35925Y12697D02*
X36255D01*
X38714Y15156D02*
X39783D01*
X34151Y10239D02*
X42882D01*
X44355Y11713D01*
X27953Y16437D02*
X34151Y10239D01*
X33875Y21080D02*
X34564D01*
X31102Y18307D02*
X33875Y21080D01*
X34564D02*
X37103Y23619D01*
Y31211D01*
Y33750D02*
Y51863D01*
X37396Y31503D02*
Y33457D01*
X37103Y31211D02*
X37396Y31503D01*
X37103Y33750D02*
X37396Y33457D01*
X30023Y37399D02*
X32677Y34744D01*
Y26280D02*
Y34744D01*
X31488Y25091D02*
X32677Y26280D01*
X31488Y23750D02*
Y25091D01*
X31262Y23524D02*
X31488Y23750D01*
X31988Y59055D02*
X40843Y50200D01*
Y16217D02*
Y50200D01*
X31708Y54611D02*
X34355D01*
X31496Y54823D02*
X31708Y54611D01*
X34355D02*
X37103Y51863D01*
X19882Y28210D02*
X22679Y25412D01*
X19882Y28210D02*
Y41881D01*
X18307Y43456D02*
Y53445D01*
Y43456D02*
X19882Y41881D01*
X16929Y54823D02*
X18307Y53445D01*
X22128Y42971D02*
X22174D01*
X27953Y37192D01*
X44355Y11713D02*
X44685D01*
X39783Y15156D02*
X40843Y16217D01*
X22241Y39567D02*
X22571D01*
X27953Y16437D02*
Y37192D01*
X22571Y39567D02*
X26612Y35526D01*
Y15882D02*
Y35526D01*
X22638Y28753D02*
Y36163D01*
X22560Y36241D02*
X22638Y36163D01*
X32220Y10274D02*
X34223Y8271D01*
X26612Y15882D02*
X32220Y10274D01*
X29755Y8947D02*
X33153Y5549D01*
X20553Y18149D02*
X29755Y8947D01*
X25272Y15326D02*
Y26119D01*
X29755Y8947D02*
X29755D01*
X31665Y8933D02*
X33708Y6890D01*
X22638Y28753D02*
X25272Y26119D01*
Y15326D02*
X31665Y8933D01*
X22679Y23273D02*
Y25412D01*
Y23273D02*
X22912Y23040D01*
X30023Y37399D02*
Y50067D01*
X31004Y51048D02*
Y51378D01*
X30023Y50067D02*
X31004Y51048D01*
D30*
X87306Y13976D02*
D03*
X48753Y16066D02*
D03*
X16929Y54823D02*
D03*
X22539Y56496D02*
D03*
X91634Y58563D02*
D03*
X91422Y41520D02*
D03*
X94859Y41294D02*
D03*
X70472Y6693D02*
D03*
X60416Y13023D02*
D03*
X57087Y11122D02*
D03*
X6594Y26969D02*
D03*
X9055Y40354D02*
D03*
X9154Y33563D02*
D03*
X54331Y8858D02*
D03*
X47848Y9356D02*
D03*
X51282Y9741D02*
D03*
X21804Y46478D02*
D03*
X90748Y47733D02*
D03*
X91377Y36122D02*
D03*
X104082Y29454D02*
D03*
Y34154D02*
D03*
X104101Y39494D02*
D03*
X108800Y37147D02*
D03*
X107776Y40861D02*
D03*
X63779Y7908D02*
D03*
X67094Y9776D02*
D03*
X35925Y12697D02*
D03*
X33268Y15256D02*
D03*
X31102Y18307D02*
D03*
X104833Y53808D02*
D03*
X7874Y65256D02*
D03*
X8071Y61811D02*
D03*
X95374Y58071D02*
D03*
X117815Y47539D02*
D03*
X35036Y32480D02*
D03*
X30312Y33482D02*
D03*
X32579Y66929D02*
D03*
X9154Y44291D02*
D03*
X117595Y42172D02*
D03*
X94784Y66634D02*
D03*
X35773Y58607D02*
D03*
X34646Y61910D02*
D03*
X17323Y35531D02*
D03*
X17164Y39113D02*
D03*
X15948Y51577D02*
D03*
X22128Y42971D02*
D03*
X104997Y44917D02*
D03*
X91732Y84449D02*
D03*
X91535Y54035D02*
D03*
X90748Y32087D02*
D03*
X93504Y11122D02*
D03*
X96850Y13780D02*
D03*
X89665Y8465D02*
D03*
X85827Y9055D02*
D03*
X79134Y6693D02*
D03*
X81441Y9369D02*
D03*
X74705Y6791D02*
D03*
X60827Y9843D02*
D03*
X44685Y11713D02*
D03*
X40551Y12598D02*
D03*
X22241Y39567D02*
D03*
X22560Y36241D02*
D03*
X31262Y23524D02*
D03*
X22912Y23040D02*
D03*
X34449Y36614D02*
D03*
X18469Y57680D02*
D03*
X8957Y50197D02*
D03*
X38484Y20087D02*
D03*
X74602Y10042D02*
D03*
X31496Y54823D02*
D03*
X31004Y51378D02*
D03*
X32382Y48130D02*
D03*
X34744Y50886D02*
D03*
X31988Y59055D02*
D03*
X93513Y24818D02*
D03*
X96667Y24778D02*
D03*
X89472Y21949D02*
D03*
X109827Y44025D02*
D03*
X103740Y11516D02*
D03*
X109646Y47835D02*
D03*
X100000Y15354D02*
D03*
X58520Y76673D02*
D03*
X91732Y65059D02*
D03*
X94193Y62008D02*
D03*
X45669Y65059D02*
D03*
X50000D02*
D03*
X54331D02*
D03*
X58661D02*
D03*
X62992D02*
D03*
X67323D02*
D03*
X71653D02*
D03*
X75984D02*
D03*
X80315D02*
D03*
X45669Y60728D02*
D03*
X50000D02*
D03*
X54331D02*
D03*
X58661D02*
D03*
X62992D02*
D03*
X67323D02*
D03*
X71653D02*
D03*
X75984D02*
D03*
X80315D02*
D03*
X45669Y56398D02*
D03*
X50000D02*
D03*
X54331D02*
D03*
X58661D02*
D03*
X62992D02*
D03*
X67323D02*
D03*
X71653D02*
D03*
X75984D02*
D03*
X80315D02*
D03*
X45669Y52067D02*
D03*
X50000D02*
D03*
X54331D02*
D03*
X58661D02*
D03*
X62992D02*
D03*
X67323D02*
D03*
X71653D02*
D03*
X75984D02*
D03*
X80315D02*
D03*
X45669Y47736D02*
D03*
X50000D02*
D03*
X54331D02*
D03*
X58661D02*
D03*
X62992D02*
D03*
X67323D02*
D03*
X71653D02*
D03*
X75984D02*
D03*
X80315D02*
D03*
X45669Y43406D02*
D03*
X50000D02*
D03*
X54331D02*
D03*
X58661D02*
D03*
X62992D02*
D03*
X67323D02*
D03*
X71653D02*
D03*
X75984D02*
D03*
X80315D02*
D03*
X45669Y39075D02*
D03*
X50000D02*
D03*
X54331D02*
D03*
X58661D02*
D03*
X62992D02*
D03*
X67323D02*
D03*
X71653D02*
D03*
X75984D02*
D03*
X80315D02*
D03*
X45669Y34744D02*
D03*
X50000D02*
D03*
X54331D02*
D03*
X58661D02*
D03*
X62992D02*
D03*
X67323D02*
D03*
X71653D02*
D03*
X75984D02*
D03*
X80315D02*
D03*
X45669Y30413D02*
D03*
X50000D02*
D03*
X54331D02*
D03*
X58661D02*
D03*
X62992D02*
D03*
X67323D02*
D03*
X71653D02*
D03*
X75984D02*
D03*
X80315D02*
D03*
M02*
