G04*
G04 #@! TF.GenerationSoftware,Altium Limited,Altium Designer,24.6.1 (21)*
G04*
G04 Layer_Color=16711935*
%FSLAX25Y25*%
%MOIN*%
G70*
G04*
G04 #@! TF.SameCoordinates,968F5DAC-6C38-4F8D-B6AE-AF4369227771*
G04*
G04*
G04 #@! TF.FilePolarity,Negative*
G04*
G01*
G75*
%ADD23R,0.05512X0.19685*%
%ADD28C,0.04237*%
%ADD37R,0.04237X0.01481*%
D23*
X32283Y85433D02*
D03*
X11024D02*
D03*
D28*
X109449Y9449D02*
D03*
X14567Y8661D02*
D03*
X86221Y86221D02*
D03*
D37*
X12598Y28543D02*
D03*
X26772D02*
D03*
X12598Y30512D02*
D03*
X26772D02*
D03*
X12598Y32480D02*
D03*
X26772D02*
D03*
X12598Y34449D02*
D03*
X26772D02*
D03*
X12598Y36417D02*
D03*
X26772D02*
D03*
X12598Y38386D02*
D03*
X26772D02*
D03*
X12598Y40354D02*
D03*
X26772D02*
D03*
X12598Y42323D02*
D03*
X26772D02*
D03*
X12598Y44291D02*
D03*
X26772D02*
D03*
X12598Y46260D02*
D03*
X26772D02*
D03*
X12598Y48228D02*
D03*
X26772D02*
D03*
X12598Y50197D02*
D03*
X26772D02*
D03*
X12598Y52165D02*
D03*
X26772D02*
D03*
X12598Y54134D02*
D03*
X26772D02*
D03*
X12598Y56102D02*
D03*
X26772D02*
D03*
X12598Y58071D02*
D03*
X26772D02*
D03*
X12598Y60039D02*
D03*
X26772D02*
D03*
X12598Y62008D02*
D03*
X26772D02*
D03*
X12598Y63976D02*
D03*
X26772D02*
D03*
X12598Y65945D02*
D03*
X26772D02*
D03*
X99213Y28543D02*
D03*
X113386D02*
D03*
X99213Y30512D02*
D03*
X113386D02*
D03*
X99213Y32480D02*
D03*
X113386D02*
D03*
X99213Y34449D02*
D03*
X113386D02*
D03*
X99213Y36417D02*
D03*
X113386D02*
D03*
X99213Y38386D02*
D03*
X113386D02*
D03*
X99213Y40354D02*
D03*
X113386D02*
D03*
X99213Y42323D02*
D03*
X113386D02*
D03*
X99213Y44291D02*
D03*
X113386D02*
D03*
X99213Y46260D02*
D03*
X113386D02*
D03*
X99213Y48228D02*
D03*
X113386D02*
D03*
X99213Y50197D02*
D03*
X113386D02*
D03*
X99213Y52165D02*
D03*
X113386D02*
D03*
X99213Y54134D02*
D03*
X113386D02*
D03*
X99213Y56102D02*
D03*
X113386D02*
D03*
X99213Y58071D02*
D03*
X113386D02*
D03*
X99213Y60039D02*
D03*
X113386D02*
D03*
X99213Y62008D02*
D03*
X113386D02*
D03*
X99213Y63976D02*
D03*
X113386D02*
D03*
X99213Y65945D02*
D03*
X113386D02*
D03*
M02*
