G04*
G04 #@! TF.GenerationSoftware,Altium Limited,Altium Designer,24.6.1 (21)*
G04*
G04 Layer_Physical_Order=4*
G04 Layer_Color=6736896*
%FSLAX25Y25*%
%MOIN*%
G70*
G04*
G04 #@! TF.SameCoordinates,3DD0ABC2-3CA6-46D2-8A5F-DA2E5A85CC7D*
G04*
G04*
G04 #@! TF.FilePolarity,Positive*
G04*
G01*
G75*
%ADD55R,0.06500X0.06500*%
%ADD56C,0.06500*%
%ADD60C,0.01000*%
%ADD61C,0.01500*%
%ADD65C,0.09449*%
%ADD66R,0.04724X0.04724*%
%ADD67C,0.04724*%
%ADD68C,0.01772*%
%ADD69C,0.03347*%
%ADD70R,0.03347X0.03347*%
%ADD71C,0.01968*%
G36*
X232835Y224842D02*
X234407Y224191D01*
X235822Y223245D01*
X237025Y222042D01*
X237970Y220627D01*
X238621Y219055D01*
X238953Y217386D01*
Y216535D01*
X238953Y76772D01*
X238953Y75921D01*
X238621Y74252D01*
X237970Y72680D01*
X237025Y71265D01*
X235822Y70062D01*
X234407Y69116D01*
X232835Y68465D01*
X231166Y68133D01*
X62141D01*
X60472Y68465D01*
X58900Y69116D01*
X57486Y70062D01*
X56282Y71265D01*
X55337Y72680D01*
X54686Y74252D01*
X54354Y75921D01*
Y76772D01*
X54354Y216535D01*
Y217386D01*
X54686Y219055D01*
X55337Y220627D01*
X56282Y222042D01*
X57486Y223245D01*
X58900Y224191D01*
X60472Y224842D01*
X62141Y225174D01*
X62992Y225174D01*
X152817D01*
X153070Y224674D01*
X152839Y224115D01*
Y223326D01*
X153141Y222597D01*
X153699Y222038D01*
X154428Y221736D01*
X155218D01*
X155947Y222038D01*
X156505Y222597D01*
X156807Y223326D01*
Y224115D01*
X156576Y224674D01*
X156829Y225174D01*
X231166D01*
X232835Y224842D01*
D02*
G37*
%LPC*%
G36*
X158859Y222850D02*
X158070D01*
X157341Y222548D01*
X156782Y221990D01*
X156480Y221261D01*
Y220472D01*
X156782Y219742D01*
X157341Y219184D01*
X158070Y218882D01*
X158859D01*
X159589Y219184D01*
X160147Y219742D01*
X160449Y220472D01*
Y221261D01*
X160147Y221990D01*
X159589Y222548D01*
X158859Y222850D01*
D02*
G37*
G36*
X229346Y220225D02*
Y215567D01*
X234005D01*
X233681Y216776D01*
X232927Y218082D01*
X231861Y219148D01*
X230556Y219901D01*
X229346Y220225D01*
D02*
G37*
G36*
X227346D02*
X226137Y219901D01*
X224832Y219148D01*
X223766Y218082D01*
X223012Y216776D01*
X222688Y215567D01*
X227346D01*
Y220225D01*
D02*
G37*
G36*
X65961D02*
Y215567D01*
X70619D01*
X70295Y216776D01*
X69541Y218082D01*
X68476Y219148D01*
X67170Y219901D01*
X65961Y220225D01*
D02*
G37*
G36*
X63961D02*
X62751Y219901D01*
X61446Y219148D01*
X60380Y218082D01*
X59626Y216776D01*
X59302Y215567D01*
X63961D01*
Y220225D01*
D02*
G37*
G36*
X143308Y218520D02*
X142519D01*
X141789Y218218D01*
X141231Y217659D01*
X140929Y216930D01*
Y216141D01*
X141231Y215411D01*
X141789Y214853D01*
X142519Y214551D01*
X143308D01*
X144037Y214853D01*
X144596Y215411D01*
X144898Y216141D01*
Y216930D01*
X144596Y217659D01*
X144037Y218218D01*
X143308Y218520D01*
D02*
G37*
G36*
X136615D02*
X135826D01*
X135097Y218218D01*
X134538Y217659D01*
X134236Y216930D01*
Y216141D01*
X134538Y215411D01*
X135097Y214853D01*
X135826Y214551D01*
X136615D01*
X137345Y214853D01*
X137903Y215411D01*
X138205Y216141D01*
Y216930D01*
X137903Y217659D01*
X137345Y218218D01*
X136615Y218520D01*
D02*
G37*
G36*
X162009Y218224D02*
X161220D01*
X160490Y217922D01*
X159932Y217364D01*
X159630Y216635D01*
Y215845D01*
X159932Y215116D01*
X160490Y214558D01*
X161220Y214256D01*
X162009D01*
X162738Y214558D01*
X163296Y215116D01*
X163598Y215845D01*
Y216635D01*
X163296Y217364D01*
X162738Y217922D01*
X162009Y218224D01*
D02*
G37*
G36*
X148820Y218913D02*
X148030D01*
X147301Y218611D01*
X146743Y218053D01*
X146441Y217324D01*
Y216534D01*
X146743Y215805D01*
X147301Y215247D01*
X148030Y214945D01*
X148820D01*
X149549Y215247D01*
X149685Y215383D01*
X150175Y215285D01*
X150286Y215018D01*
X150845Y214460D01*
X151574Y214158D01*
X152363D01*
X153093Y214460D01*
X153651Y215018D01*
X153953Y215747D01*
Y216536D01*
X153651Y217266D01*
X153093Y217824D01*
X152363Y218126D01*
X151574D01*
X150845Y217824D01*
X150709Y217688D01*
X150218Y217786D01*
X150107Y218053D01*
X149549Y218611D01*
X148820Y218913D01*
D02*
G37*
G36*
X83662Y216256D02*
X82873D01*
X82144Y215954D01*
X81586Y215396D01*
X81283Y214666D01*
Y213877D01*
X81586Y213148D01*
X82144Y212590D01*
X82873Y212287D01*
X83662D01*
X84392Y212590D01*
X84950Y213148D01*
X85252Y213877D01*
Y214666D01*
X84950Y215396D01*
X84392Y215954D01*
X83662Y216256D01*
D02*
G37*
G36*
X234005Y213567D02*
X229346D01*
Y208909D01*
X230556Y209233D01*
X231861Y209986D01*
X232927Y211052D01*
X233681Y212357D01*
X234005Y213567D01*
D02*
G37*
G36*
X227346D02*
X222688D01*
X223012Y212357D01*
X223766Y211052D01*
X224832Y209986D01*
X226137Y209233D01*
X227346Y208909D01*
Y213567D01*
D02*
G37*
G36*
X70619D02*
X65961D01*
Y208909D01*
X67170Y209233D01*
X68476Y209986D01*
X69541Y211052D01*
X70295Y212357D01*
X70619Y213567D01*
D02*
G37*
G36*
X63961D02*
X59302D01*
X59626Y212357D01*
X60380Y211052D01*
X61446Y209986D01*
X62751Y209233D01*
X63961Y208909D01*
Y213567D01*
D02*
G37*
G36*
X133269Y204543D02*
X132479D01*
X131997Y204343D01*
X97835D01*
X97835Y204343D01*
X97152Y204207D01*
X96573Y203821D01*
X91618Y198866D01*
X91232Y198287D01*
X91096Y197605D01*
Y178784D01*
X90680Y178507D01*
X90540Y178564D01*
X89751D01*
X89022Y178262D01*
X88464Y177704D01*
X88162Y176975D01*
Y176185D01*
X88464Y175456D01*
X89022Y174898D01*
X89751Y174596D01*
X90540D01*
X90680Y174654D01*
X91096Y174376D01*
Y162123D01*
X88502Y159529D01*
X88115Y158950D01*
X87980Y158268D01*
Y154540D01*
X73180D01*
X62512Y165208D01*
X62312Y165691D01*
X61754Y166249D01*
X61025Y166551D01*
X60235D01*
X59506Y166249D01*
X58948Y165691D01*
X58646Y164962D01*
Y164172D01*
X58948Y163443D01*
X59506Y162885D01*
X59989Y162685D01*
X60361Y162312D01*
X60154Y161812D01*
X59827D01*
X59098Y161510D01*
X58539Y160952D01*
X58237Y160223D01*
Y159433D01*
X58539Y158704D01*
X59098Y158146D01*
X59827Y157844D01*
X60616D01*
X61346Y158146D01*
X61904Y158704D01*
X62206Y159433D01*
Y159760D01*
X62706Y159968D01*
X71179Y151494D01*
X71179Y151494D01*
X71758Y151107D01*
X72441Y150972D01*
X88886D01*
X89369Y150772D01*
X90158D01*
X90888Y151074D01*
X91446Y151632D01*
X91748Y152361D01*
Y153151D01*
X91548Y153633D01*
Y157529D01*
X94142Y160122D01*
X94142Y160122D01*
X94529Y160701D01*
X94664Y161384D01*
X94664Y161384D01*
Y196865D01*
X98574Y200775D01*
X131997D01*
X132479Y200575D01*
X133269D01*
X133998Y200877D01*
X134556Y201435D01*
X134858Y202164D01*
Y202954D01*
X134556Y203683D01*
X133998Y204241D01*
X133269Y204543D01*
D02*
G37*
G36*
X83662Y205331D02*
X82873D01*
X82144Y205029D01*
X81586Y204470D01*
X81283Y203741D01*
Y202952D01*
X81586Y202222D01*
X82144Y201664D01*
X82873Y201362D01*
X83662D01*
X84392Y201664D01*
X84950Y202222D01*
X85252Y202952D01*
Y203741D01*
X84950Y204470D01*
X84392Y205029D01*
X83662Y205331D01*
D02*
G37*
G36*
X65355Y205134D02*
X64566D01*
X63837Y204832D01*
X63279Y204274D01*
X62976Y203544D01*
Y202755D01*
X63279Y202026D01*
X63837Y201467D01*
X64566Y201165D01*
X65355D01*
X66085Y201467D01*
X66643Y202026D01*
X66945Y202755D01*
Y203544D01*
X66643Y204274D01*
X66085Y204832D01*
X65355Y205134D01*
D02*
G37*
G36*
X161418Y204740D02*
X160629D01*
X159900Y204438D01*
X159342Y203880D01*
X159039Y203151D01*
Y202361D01*
X159342Y201632D01*
X159900Y201074D01*
X160629Y200772D01*
X161418D01*
X162148Y201074D01*
X162706Y201632D01*
X163008Y202361D01*
Y203151D01*
X162706Y203880D01*
X162148Y204438D01*
X161418Y204740D01*
D02*
G37*
G36*
X227378Y201319D02*
Y199819D01*
X228877D01*
X228869Y199851D01*
X228517Y200460D01*
X228019Y200958D01*
X227410Y201310D01*
X227378Y201319D01*
D02*
G37*
G36*
X225378D02*
X225346Y201310D01*
X224736Y200958D01*
X224239Y200460D01*
X223887Y199851D01*
X223878Y199819D01*
X225378D01*
Y201319D01*
D02*
G37*
G36*
X177560Y207496D02*
X176771D01*
X176041Y207194D01*
X175483Y206636D01*
X175181Y205907D01*
Y205117D01*
X175483Y204388D01*
X176041Y203830D01*
X176129Y203793D01*
Y203293D01*
X176041Y203257D01*
X175483Y202699D01*
X175181Y201970D01*
Y201180D01*
X175483Y200451D01*
X176041Y199893D01*
X176771Y199591D01*
X177560D01*
X178289Y199893D01*
X178848Y200451D01*
X179150Y201180D01*
Y201970D01*
X178848Y202699D01*
X178289Y203257D01*
X178202Y203293D01*
Y203793D01*
X178289Y203830D01*
X178848Y204388D01*
X179150Y205117D01*
Y205907D01*
X178848Y206636D01*
X178289Y207194D01*
X177560Y207496D01*
D02*
G37*
G36*
X206300Y205921D02*
X205511D01*
X204782Y205619D01*
X204223Y205061D01*
X203921Y204332D01*
Y203542D01*
X204223Y202813D01*
X204659Y202377D01*
X204194Y201911D01*
X203892Y201182D01*
Y200393D01*
X204194Y199663D01*
X204752Y199105D01*
X204994Y199005D01*
X205239Y198362D01*
X205102Y198032D01*
Y197243D01*
X205404Y196514D01*
X205963Y195956D01*
X206692Y195653D01*
X207481D01*
X208211Y195956D01*
X208769Y196514D01*
X209071Y197243D01*
Y198032D01*
X208769Y198762D01*
X208211Y199320D01*
X207968Y199420D01*
X207724Y200063D01*
X207860Y200393D01*
Y201182D01*
X207558Y201911D01*
X207122Y202347D01*
X207588Y202813D01*
X207890Y203542D01*
Y204332D01*
X207588Y205061D01*
X207030Y205619D01*
X206300Y205921D01*
D02*
G37*
G36*
X160903Y198441D02*
X160113D01*
X159384Y198139D01*
X158826Y197581D01*
X158524Y196851D01*
Y196062D01*
X158826Y195333D01*
X159384Y194774D01*
X160113Y194472D01*
X160903D01*
X161632Y194774D01*
X162190Y195333D01*
X162492Y196062D01*
Y196851D01*
X162190Y197581D01*
X161632Y198139D01*
X160903Y198441D01*
D02*
G37*
G36*
X64956Y198052D02*
X64167D01*
X63438Y197750D01*
X62880Y197192D01*
X62577Y196463D01*
Y195674D01*
X62880Y194944D01*
X63438Y194386D01*
X64167Y194084D01*
X64956D01*
X65686Y194386D01*
X66244Y194944D01*
X66546Y195674D01*
Y196463D01*
X66244Y197192D01*
X65686Y197750D01*
X64956Y198052D01*
D02*
G37*
G36*
X212206Y196079D02*
X211416D01*
X210687Y195777D01*
X210129Y195219D01*
X209827Y194489D01*
Y193700D01*
X210129Y192971D01*
X210687Y192412D01*
X211416Y192110D01*
X212206D01*
X212935Y192412D01*
X213493Y192971D01*
X213795Y193700D01*
Y194489D01*
X213493Y195219D01*
X212935Y195777D01*
X212206Y196079D01*
D02*
G37*
G36*
X138092Y193224D02*
X137302D01*
X136573Y192922D01*
X136015Y192364D01*
X135713Y191635D01*
Y190846D01*
X136015Y190116D01*
X136573Y189558D01*
X137302Y189256D01*
X138092D01*
X138821Y189558D01*
X139379Y190116D01*
X139681Y190846D01*
Y191635D01*
X139379Y192364D01*
X138821Y192922D01*
X138092Y193224D01*
D02*
G37*
G36*
X158662Y193126D02*
X157873D01*
X157144Y192824D01*
X156586Y192266D01*
X156283Y191536D01*
Y190747D01*
X156586Y190018D01*
X157144Y189460D01*
X157873Y189157D01*
X158662D01*
X159392Y189460D01*
X159950Y190018D01*
X160252Y190747D01*
Y191536D01*
X159950Y192266D01*
X159392Y192824D01*
X158662Y193126D01*
D02*
G37*
G36*
X186910Y191945D02*
X186121D01*
X185392Y191643D01*
X184834Y191085D01*
X184531Y190355D01*
Y189566D01*
X184834Y188837D01*
X185392Y188278D01*
X186121Y187976D01*
X186910D01*
X187640Y188278D01*
X188198Y188837D01*
X188500Y189566D01*
Y190355D01*
X188198Y191085D01*
X187640Y191643D01*
X186910Y191945D01*
D02*
G37*
G36*
X120473Y195095D02*
X119684D01*
X118955Y194792D01*
X118397Y194234D01*
X118095Y193505D01*
Y192716D01*
X118397Y191986D01*
X118955Y191428D01*
X119062Y191384D01*
Y190842D01*
X118856Y190757D01*
X118298Y190199D01*
X117996Y189470D01*
Y188680D01*
X118298Y187951D01*
X118856Y187393D01*
X119586Y187091D01*
X120375D01*
X121104Y187393D01*
X121662Y187951D01*
X121965Y188680D01*
Y189470D01*
X121662Y190199D01*
X121104Y190757D01*
X120997Y190802D01*
Y191343D01*
X121203Y191428D01*
X121761Y191986D01*
X122063Y192716D01*
Y193505D01*
X121761Y194234D01*
X121203Y194792D01*
X120473Y195095D01*
D02*
G37*
G36*
X189371Y187811D02*
X188582D01*
X187852Y187509D01*
X187294Y186951D01*
X186992Y186222D01*
Y185432D01*
X187294Y184703D01*
X187852Y184145D01*
X188582Y183843D01*
X189371D01*
X190100Y184145D01*
X190658Y184703D01*
X190961Y185432D01*
Y186222D01*
X190658Y186951D01*
X190100Y187509D01*
X189371Y187811D01*
D02*
G37*
G36*
X81891Y184268D02*
X81101D01*
X80372Y183966D01*
X79814Y183407D01*
X79512Y182678D01*
Y181889D01*
X79814Y181159D01*
X80372Y180601D01*
X81101Y180299D01*
X81891D01*
X82620Y180601D01*
X83178Y181159D01*
X83480Y181889D01*
Y182678D01*
X83178Y183407D01*
X82620Y183966D01*
X81891Y184268D01*
D02*
G37*
G36*
X191733Y183874D02*
X190944D01*
X190215Y183572D01*
X189656Y183014D01*
X189354Y182284D01*
Y181495D01*
X189656Y180766D01*
X190215Y180208D01*
X190944Y179905D01*
X191733D01*
X192463Y180208D01*
X193021Y180766D01*
X193323Y181495D01*
Y182284D01*
X193021Y183014D01*
X192463Y183572D01*
X191733Y183874D01*
D02*
G37*
G36*
X86615Y181905D02*
X85826D01*
X85097Y181603D01*
X84538Y181045D01*
X84236Y180316D01*
Y179527D01*
X84538Y178797D01*
X85097Y178239D01*
X85826Y177937D01*
X86615D01*
X87344Y178239D01*
X87903Y178797D01*
X88205Y179527D01*
Y180316D01*
X87903Y181045D01*
X87344Y181603D01*
X86615Y181905D01*
D02*
G37*
G36*
X120473Y185252D02*
X119684D01*
X118955Y184950D01*
X118397Y184392D01*
X118095Y183662D01*
Y182873D01*
X118397Y182144D01*
X118901Y181639D01*
X118947Y181444D01*
X118927Y181056D01*
X118460Y180588D01*
X118158Y179859D01*
Y179070D01*
X118460Y178340D01*
X119018Y177782D01*
X119747Y177480D01*
X120537D01*
X121266Y177782D01*
X121824Y178340D01*
X122126Y179070D01*
Y179859D01*
X121824Y180588D01*
X121320Y181093D01*
X121273Y181288D01*
X121293Y181676D01*
X121761Y182144D01*
X122063Y182873D01*
Y183662D01*
X121761Y184392D01*
X121203Y184950D01*
X120473Y185252D01*
D02*
G37*
G36*
X161812Y187417D02*
X161023D01*
X160293Y187115D01*
X159735Y186557D01*
X159433Y185828D01*
Y185038D01*
X159735Y184309D01*
X159650Y183879D01*
X159384Y183769D01*
X158826Y183211D01*
X158524Y182481D01*
Y181692D01*
X158826Y180963D01*
X158755Y180607D01*
X158337Y180434D01*
X157779Y179876D01*
X157476Y179147D01*
Y178357D01*
X157779Y177628D01*
X158337Y177070D01*
X159066Y176768D01*
X159855D01*
X160585Y177070D01*
X161143Y177628D01*
X161445Y178357D01*
Y179147D01*
X161143Y179876D01*
X161214Y180231D01*
X161632Y180404D01*
X162190Y180963D01*
X162492Y181692D01*
Y182481D01*
X162190Y183211D01*
X162276Y183641D01*
X162541Y183751D01*
X163100Y184309D01*
X163402Y185038D01*
Y185828D01*
X163100Y186557D01*
X162541Y187115D01*
X161812Y187417D01*
D02*
G37*
G36*
X194489Y179937D02*
X193700D01*
X192971Y179635D01*
X192412Y179077D01*
X192110Y178348D01*
Y177558D01*
X192412Y176829D01*
X192971Y176271D01*
X193700Y175969D01*
X194489D01*
X195219Y176271D01*
X195777Y176829D01*
X196079Y177558D01*
Y178348D01*
X195777Y179077D01*
X195219Y179635D01*
X194489Y179937D01*
D02*
G37*
G36*
X80710Y178756D02*
X79920D01*
X79191Y178454D01*
X78633Y177896D01*
X78331Y177166D01*
Y176377D01*
X78633Y175648D01*
X79191Y175090D01*
X79920Y174787D01*
X80710D01*
X81439Y175090D01*
X81997Y175648D01*
X82299Y176377D01*
Y177166D01*
X81997Y177896D01*
X81439Y178454D01*
X80710Y178756D01*
D02*
G37*
G36*
X177560Y177181D02*
X176771D01*
X176041Y176879D01*
X175483Y176321D01*
X175181Y175592D01*
Y174802D01*
X175483Y174073D01*
X176041Y173515D01*
X176771Y173213D01*
X177560D01*
X178289Y173515D01*
X178848Y174073D01*
X179150Y174802D01*
Y175592D01*
X178848Y176321D01*
X178289Y176879D01*
X177560Y177181D01*
D02*
G37*
G36*
X64568Y188205D02*
X63779D01*
X63049Y187903D01*
X62491Y187345D01*
X62189Y186615D01*
Y185826D01*
X62491Y185097D01*
X62678Y184910D01*
X62656Y184359D01*
X62615Y184319D01*
X62097Y183801D01*
X61795Y183072D01*
Y182282D01*
X62097Y181553D01*
X62579Y181071D01*
X62575Y180528D01*
X62557Y180521D01*
X61999Y179963D01*
X61697Y179233D01*
Y178444D01*
X61999Y177715D01*
X62418Y177295D01*
X62539Y177083D01*
X62440Y176664D01*
X62097Y176321D01*
X61795Y175592D01*
Y174802D01*
X62097Y174073D01*
X62656Y173515D01*
X63385Y173213D01*
X64174D01*
X64903Y173515D01*
X65462Y174073D01*
X65764Y174802D01*
Y175592D01*
X65462Y176321D01*
X65042Y176740D01*
X64921Y176953D01*
X65020Y177372D01*
X65363Y177715D01*
X65665Y178444D01*
Y179233D01*
X65363Y179963D01*
X64881Y180445D01*
X64885Y180988D01*
X64903Y180995D01*
X65462Y181553D01*
X65764Y182282D01*
Y183072D01*
X65462Y183801D01*
X65275Y183988D01*
X65297Y184538D01*
X65338Y184579D01*
X65855Y185097D01*
X66158Y185826D01*
Y186615D01*
X65855Y187345D01*
X65297Y187903D01*
X64568Y188205D01*
D02*
G37*
G36*
X132284Y174819D02*
X131495D01*
X130766Y174517D01*
X130208Y173959D01*
X129905Y173229D01*
Y172440D01*
X130208Y171711D01*
X130766Y171152D01*
X131495Y170850D01*
X132284D01*
X133014Y171152D01*
X133572Y171711D01*
X133874Y172440D01*
Y173229D01*
X133572Y173959D01*
X133014Y174517D01*
X132284Y174819D01*
D02*
G37*
G36*
X83859Y166551D02*
X83070D01*
X82341Y166249D01*
X81782Y165691D01*
X81480Y164962D01*
Y164172D01*
X81782Y163443D01*
X82341Y162885D01*
X83070Y162583D01*
X83859D01*
X84589Y162885D01*
X85147Y163443D01*
X85449Y164172D01*
Y164962D01*
X85147Y165691D01*
X84589Y166249D01*
X83859Y166551D01*
D02*
G37*
G36*
X228877Y197819D02*
X226378D01*
X223878D01*
X223887Y197787D01*
X224239Y197178D01*
X224736Y196680D01*
X224860Y196608D01*
Y196108D01*
X224736Y196037D01*
X224239Y195539D01*
X223887Y194930D01*
X223705Y194250D01*
Y193546D01*
X223887Y192866D01*
X224239Y192256D01*
X224736Y191759D01*
X224860Y191687D01*
Y191187D01*
X224736Y191115D01*
X224239Y190618D01*
X223887Y190008D01*
X223705Y189328D01*
Y188624D01*
X223887Y187945D01*
X224239Y187335D01*
X224736Y186837D01*
X224860Y186766D01*
Y186266D01*
X224736Y186194D01*
X224239Y185696D01*
X223887Y185087D01*
X223705Y184407D01*
Y183703D01*
X223887Y183023D01*
X224239Y182414D01*
X224736Y181916D01*
X224860Y181844D01*
Y181344D01*
X224736Y181273D01*
X224239Y180775D01*
X223887Y180166D01*
X223705Y179486D01*
Y178782D01*
X223887Y178102D01*
X224239Y177492D01*
X224736Y176995D01*
X224860Y176923D01*
Y176423D01*
X224736Y176352D01*
X224239Y175854D01*
X223887Y175244D01*
X223705Y174565D01*
Y173861D01*
X223887Y173181D01*
X224239Y172571D01*
X224736Y172073D01*
X224860Y172002D01*
Y171502D01*
X224736Y171431D01*
X224239Y170933D01*
X223887Y170323D01*
X223705Y169643D01*
Y168939D01*
X223887Y168260D01*
X224239Y167650D01*
X224345Y167543D01*
X224138Y167043D01*
X223705D01*
Y161697D01*
X229051D01*
Y167043D01*
X228618D01*
X228410Y167543D01*
X228517Y167650D01*
X228869Y168260D01*
X229051Y168939D01*
Y169643D01*
X228869Y170323D01*
X228517Y170933D01*
X228019Y171431D01*
X227895Y171502D01*
Y172002D01*
X228019Y172073D01*
X228517Y172571D01*
X228869Y173181D01*
X229051Y173861D01*
Y174565D01*
X228869Y175244D01*
X228517Y175854D01*
X228019Y176352D01*
X227895Y176423D01*
Y176923D01*
X228019Y176995D01*
X228517Y177492D01*
X228869Y178102D01*
X229051Y178782D01*
Y179486D01*
X228869Y180166D01*
X228517Y180775D01*
X228019Y181273D01*
X227895Y181344D01*
Y181844D01*
X228019Y181916D01*
X228517Y182414D01*
X228869Y183023D01*
X229051Y183703D01*
Y184407D01*
X228869Y185087D01*
X228517Y185696D01*
X228019Y186194D01*
X227895Y186266D01*
Y186766D01*
X228019Y186837D01*
X228517Y187335D01*
X228869Y187945D01*
X229051Y188624D01*
Y189328D01*
X228869Y190008D01*
X228517Y190618D01*
X228019Y191115D01*
X227895Y191187D01*
Y191687D01*
X228019Y191759D01*
X228517Y192256D01*
X228869Y192866D01*
X229051Y193546D01*
Y194250D01*
X228869Y194930D01*
X228517Y195539D01*
X228019Y196037D01*
X227895Y196108D01*
Y196608D01*
X228019Y196680D01*
X228517Y197178D01*
X228869Y197787D01*
X228877Y197819D01*
D02*
G37*
G36*
X88398Y164791D02*
X87609D01*
X86880Y164489D01*
X86322Y163931D01*
X86019Y163201D01*
Y162412D01*
X86322Y161683D01*
X86880Y161125D01*
X87609Y160823D01*
X88398D01*
X89128Y161125D01*
X89686Y161683D01*
X89988Y162412D01*
Y163201D01*
X89686Y163931D01*
X89128Y164489D01*
X88398Y164791D01*
D02*
G37*
G36*
X60631Y143323D02*
X59842D01*
X59112Y143021D01*
X58554Y142463D01*
X58252Y141733D01*
Y140944D01*
X58554Y140215D01*
X59112Y139656D01*
X59842Y139354D01*
X60631D01*
X61360Y139656D01*
X61918Y140215D01*
X62221Y140944D01*
Y141733D01*
X61918Y142463D01*
X61360Y143021D01*
X60631Y143323D01*
D02*
G37*
G36*
X89174Y143224D02*
X88385D01*
X87656Y142922D01*
X87097Y142364D01*
X86795Y141635D01*
Y140846D01*
X87097Y140116D01*
X87656Y139558D01*
X88385Y139256D01*
X89174D01*
X89903Y139558D01*
X90462Y140116D01*
X90764Y140846D01*
Y141635D01*
X90462Y142364D01*
X89903Y142922D01*
X89174Y143224D01*
D02*
G37*
G36*
X133705Y142353D02*
X132915D01*
X132186Y142051D01*
X131628Y141493D01*
X131326Y140764D01*
Y139974D01*
X131628Y139245D01*
X132186Y138687D01*
X132915Y138385D01*
X133705D01*
X134434Y138687D01*
X134992Y139245D01*
X135294Y139974D01*
Y140764D01*
X134992Y141493D01*
X134434Y142051D01*
X133705Y142353D01*
D02*
G37*
G36*
X152757Y142142D02*
X151968D01*
X151238Y141840D01*
X150680Y141281D01*
X150378Y140552D01*
Y139763D01*
X150680Y139033D01*
X151238Y138475D01*
X151968Y138173D01*
X152757D01*
X153486Y138475D01*
X154044Y139033D01*
X154347Y139763D01*
Y140552D01*
X154044Y141281D01*
X153486Y141840D01*
X152757Y142142D01*
D02*
G37*
G36*
X148032D02*
X147243D01*
X146514Y141840D01*
X145956Y141281D01*
X145653Y140552D01*
Y139763D01*
X145956Y139033D01*
X146514Y138475D01*
X147243Y138173D01*
X148032D01*
X148762Y138475D01*
X149320Y139033D01*
X149622Y139763D01*
Y140552D01*
X149320Y141281D01*
X148762Y141840D01*
X148032Y142142D01*
D02*
G37*
G36*
X143308D02*
X142519D01*
X141789Y141840D01*
X141231Y141281D01*
X140929Y140552D01*
Y139763D01*
X141231Y139033D01*
X141789Y138475D01*
X142519Y138173D01*
X143308D01*
X144037Y138475D01*
X144596Y139033D01*
X144898Y139763D01*
Y140552D01*
X144596Y141281D01*
X144037Y141840D01*
X143308Y142142D01*
D02*
G37*
G36*
X138673D02*
X137884D01*
X137155Y141840D01*
X136597Y141281D01*
X136294Y140552D01*
Y139763D01*
X136597Y139033D01*
X137155Y138475D01*
X137884Y138173D01*
X138673D01*
X139403Y138475D01*
X139961Y139033D01*
X140263Y139763D01*
Y140552D01*
X139961Y141281D01*
X139403Y141840D01*
X138673Y142142D01*
D02*
G37*
G36*
X167840Y141779D02*
X167050D01*
X166321Y141477D01*
X165763Y140919D01*
X165461Y140190D01*
Y139401D01*
X165763Y138671D01*
X166321Y138113D01*
X167050Y137811D01*
X167840D01*
X168569Y138113D01*
X169127Y138671D01*
X169429Y139401D01*
Y140190D01*
X169127Y140919D01*
X168569Y141477D01*
X167840Y141779D01*
D02*
G37*
G36*
X162722Y141748D02*
X161932D01*
X161203Y141446D01*
X160645Y140888D01*
X160343Y140158D01*
Y139369D01*
X160645Y138640D01*
X161203Y138082D01*
X161932Y137779D01*
X162722D01*
X163451Y138082D01*
X164009Y138640D01*
X164311Y139369D01*
Y140158D01*
X164009Y140888D01*
X163451Y141446D01*
X162722Y141748D01*
D02*
G37*
G36*
X157753D02*
X156964D01*
X156234Y141446D01*
X155676Y140888D01*
X155374Y140158D01*
Y139369D01*
X155676Y138640D01*
X156234Y138082D01*
X156964Y137779D01*
X157753D01*
X158482Y138082D01*
X159040Y138640D01*
X159343Y139369D01*
Y140158D01*
X159040Y140888D01*
X158482Y141446D01*
X157753Y141748D01*
D02*
G37*
G36*
X84598Y140519D02*
X83809D01*
X83080Y140217D01*
X82521Y139658D01*
X82219Y138929D01*
Y138140D01*
X82521Y137410D01*
X83080Y136852D01*
X83809Y136550D01*
X84598D01*
X85328Y136852D01*
X85886Y137410D01*
X86188Y138140D01*
Y138929D01*
X85886Y139658D01*
X85328Y140217D01*
X84598Y140519D01*
D02*
G37*
G36*
X61812Y138205D02*
X61023D01*
X60293Y137903D01*
X59735Y137345D01*
X59433Y136615D01*
Y135826D01*
X59735Y135097D01*
X60293Y134538D01*
X61023Y134236D01*
X61812D01*
X62541Y134538D01*
X63099Y135097D01*
X63402Y135826D01*
Y136615D01*
X63099Y137345D01*
X62541Y137903D01*
X61812Y138205D01*
D02*
G37*
G36*
X178348Y132299D02*
X177558D01*
X176829Y131997D01*
X176271Y131439D01*
X175969Y130710D01*
Y129920D01*
X176271Y129191D01*
X176829Y128633D01*
X177558Y128331D01*
X178348D01*
X179077Y128633D01*
X179635Y129191D01*
X179937Y129920D01*
Y130710D01*
X179635Y131439D01*
X179077Y131997D01*
X178348Y132299D01*
D02*
G37*
G36*
X146336Y130453D02*
X145546D01*
X144817Y130151D01*
X144259Y129593D01*
X143957Y128863D01*
Y128074D01*
X144259Y127345D01*
X144817Y126786D01*
X145546Y126484D01*
X146336D01*
X147065Y126786D01*
X147623Y127345D01*
X147925Y128074D01*
Y128863D01*
X147623Y129593D01*
X147065Y130151D01*
X146336Y130453D01*
D02*
G37*
G36*
X141340D02*
X140550D01*
X139821Y130151D01*
X139263Y129593D01*
X138961Y128863D01*
Y128074D01*
X139263Y127345D01*
X139821Y126786D01*
X140550Y126484D01*
X141340D01*
X142069Y126786D01*
X142627Y127345D01*
X142929Y128074D01*
Y128863D01*
X142627Y129593D01*
X142069Y130151D01*
X141340Y130453D01*
D02*
G37*
G36*
X203741Y125783D02*
X202952D01*
X202222Y125481D01*
X201664Y124923D01*
X201362Y124194D01*
Y123405D01*
X201664Y122675D01*
X202222Y122117D01*
X202952Y121815D01*
X203741D01*
X204470Y122117D01*
X205029Y122675D01*
X205331Y123405D01*
Y124194D01*
X205029Y124923D01*
X204470Y125481D01*
X203741Y125783D01*
D02*
G37*
G36*
X198682Y125764D02*
X197893D01*
X197163Y125462D01*
X196605Y124904D01*
X196303Y124174D01*
Y123385D01*
X196605Y122655D01*
X197163Y122097D01*
X197893Y121795D01*
X198682D01*
X199411Y122097D01*
X199970Y122655D01*
X200272Y123385D01*
Y124174D01*
X199970Y124904D01*
X199411Y125462D01*
X198682Y125764D01*
D02*
G37*
G36*
X66354Y107595D02*
X59630D01*
Y100870D01*
X66354D01*
Y107595D01*
D02*
G37*
G36*
X100788Y200016D02*
X99999D01*
X99270Y199714D01*
X98712Y199155D01*
X98409Y198426D01*
Y198299D01*
X96950Y196839D01*
X96618Y196343D01*
X96502Y195758D01*
Y130709D01*
X96618Y130123D01*
X96950Y129627D01*
X117832Y108745D01*
X118328Y108414D01*
X118913Y108297D01*
X128725D01*
X134994Y102028D01*
X134896Y101538D01*
X134752Y101478D01*
X134194Y100919D01*
X133892Y100190D01*
Y99401D01*
X133459Y99140D01*
X133235Y99121D01*
X132700Y99655D01*
X132843Y99999D01*
Y100788D01*
X132540Y101518D01*
X131982Y102076D01*
X131253Y102378D01*
X130464D01*
X129734Y102076D01*
X129176Y101518D01*
X128874Y100788D01*
Y99999D01*
X129176Y99270D01*
X129627Y98819D01*
X129689Y98505D01*
X130021Y98009D01*
X131295Y96735D01*
X131230Y96239D01*
X130816Y96000D01*
X130024Y95209D01*
X129465Y94240D01*
X129175Y93159D01*
Y92040D01*
X129465Y90959D01*
X130024Y89990D01*
X130816Y89199D01*
X131785Y88639D01*
X132866Y88349D01*
X133985D01*
X135066Y88639D01*
X136035Y89199D01*
X136700Y89864D01*
X137172Y89885D01*
X137317Y89840D01*
X137344Y89801D01*
X140376Y86768D01*
X140734Y86529D01*
X140796Y86128D01*
X140796Y86083D01*
X140767Y85951D01*
X140024Y85208D01*
X139465Y84239D01*
X139175Y83158D01*
Y82039D01*
X139465Y80958D01*
X140024Y79989D01*
X140816Y79198D01*
X141785Y78638D01*
X142866Y78348D01*
X143985D01*
X145066Y78638D01*
X146035Y79198D01*
X146826Y79989D01*
X147386Y80958D01*
X147675Y82039D01*
Y83158D01*
X147386Y84239D01*
X146826Y85208D01*
X146214Y85820D01*
X146421Y86320D01*
X150430D01*
X150637Y85820D01*
X150025Y85208D01*
X149466Y84239D01*
X149176Y83158D01*
Y82039D01*
X149466Y80958D01*
X150025Y79989D01*
X150817Y79198D01*
X151786Y78638D01*
X152867Y78348D01*
X153986D01*
X155067Y78638D01*
X156036Y79198D01*
X156827Y79989D01*
X157387Y80958D01*
X157676Y82039D01*
Y83158D01*
X157387Y84239D01*
X156827Y85208D01*
X156215Y85820D01*
X156422Y86320D01*
X160430D01*
X160637Y85820D01*
X160025Y85208D01*
X159466Y84239D01*
X159176Y83158D01*
Y82039D01*
X159466Y80958D01*
X160025Y79989D01*
X160817Y79198D01*
X161786Y78638D01*
X162867Y78348D01*
X163986D01*
X165067Y78638D01*
X166036Y79198D01*
X166827Y79989D01*
X167387Y80958D01*
X167676Y82039D01*
Y83158D01*
X167387Y84239D01*
X166827Y85208D01*
X166215Y85820D01*
X166422Y86320D01*
X170430D01*
X170637Y85820D01*
X170025Y85208D01*
X169466Y84239D01*
X169294Y83598D01*
X177558D01*
X177387Y84239D01*
X176827Y85208D01*
X176215Y85820D01*
X176422Y86320D01*
X220133D01*
X220718Y86436D01*
X221214Y86768D01*
X237302Y102856D01*
X237633Y103352D01*
X237750Y103937D01*
Y122047D01*
X237633Y122633D01*
X237302Y123129D01*
X229018Y131413D01*
X229051Y131538D01*
Y132242D01*
X228869Y132922D01*
X228517Y133531D01*
X228019Y134029D01*
X227895Y134100D01*
Y134600D01*
X228019Y134672D01*
X228517Y135170D01*
X228869Y135779D01*
X229051Y136459D01*
Y137163D01*
X228869Y137843D01*
X228517Y138452D01*
X228019Y138950D01*
X227895Y139022D01*
Y139522D01*
X228019Y139593D01*
X228517Y140091D01*
X228869Y140700D01*
X229051Y141380D01*
Y142084D01*
X228869Y142764D01*
X228517Y143374D01*
X228019Y143871D01*
X227410Y144223D01*
X226730Y144405D01*
X226026D01*
X225346Y144223D01*
X224736Y143871D01*
X224239Y143374D01*
X223887Y142764D01*
X223705Y142084D01*
Y141380D01*
X223887Y140700D01*
X224239Y140091D01*
X224736Y139593D01*
X224860Y139522D01*
Y139022D01*
X224736Y138950D01*
X224239Y138452D01*
X223887Y137843D01*
X223762Y137376D01*
X223234Y137196D01*
X220427Y140004D01*
Y181496D01*
X220311Y182081D01*
X219979Y182578D01*
X214739Y187818D01*
X214243Y188149D01*
X213657Y188266D01*
X206789D01*
X206636Y188418D01*
X205907Y188721D01*
X205117D01*
X204388Y188418D01*
X203830Y187860D01*
X203528Y187131D01*
Y186342D01*
X203830Y185612D01*
X204388Y185054D01*
X205117Y184752D01*
X205907D01*
X206636Y185054D01*
X206789Y185207D01*
X213024D01*
X217368Y180863D01*
Y139370D01*
X217485Y138785D01*
X217592Y138625D01*
X217203Y138306D01*
X214424Y141086D01*
Y178838D01*
X214307Y179423D01*
X213976Y179919D01*
X211428Y182467D01*
X210932Y182799D01*
X210347Y182915D01*
X209927D01*
X209589Y183253D01*
X208859Y183555D01*
X208070D01*
X207341Y183253D01*
X206782Y182695D01*
X206480Y181966D01*
Y181176D01*
X206782Y180447D01*
X207341Y179889D01*
X207855Y179675D01*
X208041Y179225D01*
X208032Y179102D01*
X207760Y178446D01*
Y178230D01*
X206844Y177314D01*
X206513Y176818D01*
X206397Y176233D01*
Y175285D01*
X205981Y175007D01*
X205836Y175067D01*
X205047D01*
X204318Y174765D01*
X203760Y174207D01*
X203457Y173477D01*
Y172688D01*
X203760Y171959D01*
X204318Y171400D01*
X205047Y171098D01*
X205836D01*
X205981Y171158D01*
X206397Y170880D01*
Y138137D01*
X206513Y137552D01*
X206844Y137056D01*
X222934Y120966D01*
X223430Y120634D01*
X224016Y120518D01*
X224174D01*
X224239Y120406D01*
X224736Y119908D01*
X224860Y119837D01*
Y119337D01*
X224736Y119265D01*
X224239Y118767D01*
X223887Y118158D01*
X223862Y118065D01*
X221749D01*
X221596Y118218D01*
X220867Y118520D01*
X220078D01*
X219349Y118218D01*
X218790Y117659D01*
X218488Y116930D01*
Y116141D01*
X218790Y115411D01*
X219349Y114853D01*
X220078Y114551D01*
X220867D01*
X221596Y114853D01*
X221749Y115006D01*
X224717D01*
X224736Y114987D01*
X224860Y114915D01*
Y114415D01*
X224736Y114344D01*
X224239Y113846D01*
X224174Y113734D01*
X217025D01*
X216872Y113887D01*
X216143Y114189D01*
X215353D01*
X214624Y113887D01*
X214066Y113329D01*
X213764Y112599D01*
Y111810D01*
X214066Y111081D01*
X214624Y110523D01*
X215353Y110221D01*
X216143D01*
X216872Y110523D01*
X217025Y110675D01*
X223911D01*
X224063Y110457D01*
X223802Y109957D01*
X223705D01*
Y109010D01*
X193971D01*
X181984Y120996D01*
X182082Y121486D01*
X182226Y121546D01*
X182784Y122104D01*
X183087Y122834D01*
Y123623D01*
X182784Y124352D01*
X182226Y124910D01*
X181497Y125213D01*
X180708D01*
X179978Y124910D01*
X179420Y124352D01*
X179360Y124208D01*
X178870Y124110D01*
X168041Y134940D01*
X167544Y135271D01*
X166959Y135388D01*
X133704D01*
X120427Y148665D01*
Y173133D01*
X120580Y173285D01*
X120882Y174015D01*
Y174804D01*
X120580Y175533D01*
X120022Y176092D01*
X119292Y176394D01*
X118503D01*
X117774Y176092D01*
X117216Y175533D01*
X116913Y174804D01*
Y174015D01*
X117216Y173285D01*
X117368Y173133D01*
Y148031D01*
X117485Y147446D01*
X117816Y146950D01*
X131989Y132777D01*
X132486Y132445D01*
X133071Y132329D01*
X166326D01*
X171974Y126681D01*
X171813Y126299D01*
X171737Y126210D01*
X169647D01*
X169369Y126626D01*
X169429Y126771D01*
Y127560D01*
X169127Y128289D01*
X168569Y128848D01*
X167840Y129150D01*
X167050D01*
X166321Y128848D01*
X165763Y128289D01*
X165461Y127560D01*
Y126771D01*
X165521Y126626D01*
X165243Y126210D01*
X163138D01*
X162861Y126626D01*
X162920Y126771D01*
Y127560D01*
X162618Y128289D01*
X162060Y128848D01*
X161331Y129150D01*
X160542D01*
X159812Y128848D01*
X159254Y128289D01*
X158952Y127560D01*
Y126771D01*
X159012Y126626D01*
X158734Y126210D01*
X157234D01*
X157109Y126495D01*
X157081Y126710D01*
X157593Y127223D01*
X157895Y127952D01*
Y128741D01*
X157593Y129471D01*
X157034Y130029D01*
X156305Y130331D01*
X155516D01*
X154787Y130029D01*
X154228Y129471D01*
X154168Y129326D01*
X153678Y129228D01*
X153542Y129365D01*
X153046Y129696D01*
X152461Y129813D01*
X152404D01*
X152066Y130151D01*
X151337Y130453D01*
X150547D01*
X149818Y130151D01*
X149260Y129593D01*
X148958Y128863D01*
Y128074D01*
X149260Y127345D01*
X149818Y126786D01*
X150547Y126484D01*
X151337D01*
X151874Y126707D01*
X153749Y124832D01*
X153558Y124370D01*
X138029D01*
X136377Y126022D01*
X136548Y126558D01*
X137100Y126786D01*
X137659Y127345D01*
X137961Y128074D01*
Y128863D01*
X137659Y129593D01*
X137100Y130151D01*
X136371Y130453D01*
X135582D01*
X134852Y130151D01*
X134294Y129593D01*
X134066Y129041D01*
X133530Y128869D01*
X112947Y149452D01*
Y178740D01*
X112830Y179325D01*
X112499Y179822D01*
X109858Y182462D01*
Y182678D01*
X109556Y183407D01*
X108998Y183966D01*
X108269Y184268D01*
X108253D01*
X108046Y184768D01*
X108375Y185097D01*
X108677Y185826D01*
Y186615D01*
X108375Y187345D01*
X107817Y187903D01*
X107088Y188205D01*
X106298D01*
X106275Y188195D01*
X105992Y188619D01*
X106013Y188640D01*
X106315Y189369D01*
Y190158D01*
X106013Y190888D01*
X105455Y191446D01*
X104725Y191748D01*
X103936D01*
X103207Y191446D01*
X103111Y191350D01*
X102573Y191519D01*
X102537Y191713D01*
X106478Y195653D01*
X106694D01*
X107423Y195956D01*
X107981Y196514D01*
X108283Y197243D01*
Y198032D01*
X107981Y198762D01*
X107423Y199320D01*
X106694Y199622D01*
X105904D01*
X105175Y199320D01*
X104617Y198762D01*
X104315Y198032D01*
Y197816D01*
X100061Y193562D01*
X99561Y193770D01*
Y195124D01*
X100484Y196047D01*
X100788D01*
X101518Y196349D01*
X102076Y196907D01*
X102378Y197637D01*
Y198426D01*
X102076Y199155D01*
X101518Y199714D01*
X100788Y200016D01*
D02*
G37*
G36*
X63992Y99571D02*
Y97358D01*
X66205D01*
X66125Y97656D01*
X65683Y98423D01*
X65057Y99049D01*
X64290Y99491D01*
X63992Y99571D01*
D02*
G37*
G36*
X61992Y99571D02*
X61694Y99491D01*
X60928Y99049D01*
X60302Y98423D01*
X59859Y97656D01*
X59779Y97358D01*
X61992D01*
Y99571D01*
D02*
G37*
G36*
X124425Y96731D02*
Y93599D01*
X127557D01*
X127386Y94240D01*
X126826Y95209D01*
X126035Y96000D01*
X125066Y96560D01*
X124425Y96731D01*
D02*
G37*
G36*
X122425D02*
X121785Y96560D01*
X120816Y96000D01*
X120024Y95209D01*
X119465Y94240D01*
X119293Y93599D01*
X122425D01*
Y96731D01*
D02*
G37*
G36*
X66205Y95358D02*
X63992D01*
Y93145D01*
X64290Y93225D01*
X65057Y93668D01*
X65683Y94294D01*
X66125Y95060D01*
X66205Y95358D01*
D02*
G37*
G36*
X61992D02*
X59779D01*
X59859Y95060D01*
X60302Y94294D01*
X60928Y93668D01*
X61694Y93225D01*
X61992Y93145D01*
Y95358D01*
D02*
G37*
G36*
X127557Y91599D02*
X124425D01*
Y88468D01*
X125066Y88639D01*
X126035Y89199D01*
X126826Y89990D01*
X127386Y90959D01*
X127557Y91599D01*
D02*
G37*
G36*
X122425D02*
X119293D01*
X119465Y90959D01*
X120024Y89990D01*
X120816Y89199D01*
X121785Y88639D01*
X122425Y88468D01*
Y91599D01*
D02*
G37*
G36*
X89371Y88598D02*
X88582D01*
X87852Y88296D01*
X87294Y87738D01*
X86992Y87009D01*
Y86220D01*
X87294Y85490D01*
X87852Y84932D01*
X88582Y84630D01*
X89371D01*
X90100Y84932D01*
X90658Y85490D01*
X90961Y86220D01*
Y87009D01*
X90658Y87738D01*
X90100Y88296D01*
X89371Y88598D01*
D02*
G37*
G36*
X185292Y84409D02*
X184503D01*
X183774Y84107D01*
X183216Y83549D01*
X182913Y82820D01*
Y82030D01*
X183216Y81301D01*
X183774Y80743D01*
X184503Y80441D01*
X185292D01*
X186022Y80743D01*
X186580Y81301D01*
X186882Y82030D01*
Y82820D01*
X186580Y83549D01*
X186022Y84107D01*
X185292Y84409D01*
D02*
G37*
G36*
X229346Y84399D02*
Y79740D01*
X234005D01*
X233681Y80950D01*
X232927Y82255D01*
X231861Y83321D01*
X230556Y84074D01*
X229346Y84399D01*
D02*
G37*
G36*
X227346D02*
X226137Y84074D01*
X224832Y83321D01*
X223766Y82255D01*
X223012Y80950D01*
X222688Y79740D01*
X227346D01*
Y84399D01*
D02*
G37*
G36*
X65961D02*
Y79740D01*
X70619D01*
X70295Y80950D01*
X69541Y82255D01*
X68476Y83321D01*
X67170Y84074D01*
X65961Y84399D01*
D02*
G37*
G36*
X63961D02*
X62751Y84074D01*
X61446Y83321D01*
X60380Y82255D01*
X59626Y80950D01*
X59302Y79740D01*
X63961D01*
Y84399D01*
D02*
G37*
G36*
X177558Y81598D02*
X174426D01*
Y78466D01*
X175067Y78638D01*
X176036Y79198D01*
X176827Y79989D01*
X177387Y80958D01*
X177558Y81598D01*
D02*
G37*
G36*
X172426D02*
X169294D01*
X169466Y80958D01*
X170025Y79989D01*
X170817Y79198D01*
X171786Y78638D01*
X172426Y78466D01*
Y81598D01*
D02*
G37*
G36*
X133985Y86848D02*
X132866D01*
X131785Y86559D01*
X130816Y85999D01*
X130024Y85208D01*
X129465Y84239D01*
X129175Y83158D01*
Y82039D01*
X129465Y80958D01*
X130024Y79989D01*
X130816Y79198D01*
X131785Y78638D01*
X132866Y78348D01*
X133985D01*
X135066Y78638D01*
X136035Y79198D01*
X136826Y79989D01*
X137386Y80958D01*
X137675Y82039D01*
Y83158D01*
X137386Y84239D01*
X136826Y85208D01*
X136035Y85999D01*
X135066Y86559D01*
X133985Y86848D01*
D02*
G37*
G36*
X127675D02*
X119175D01*
Y78348D01*
X127675D01*
Y86848D01*
D02*
G37*
G36*
X192521Y80331D02*
X191731D01*
X191002Y80029D01*
X190444Y79470D01*
X190142Y78741D01*
Y77952D01*
X190444Y77223D01*
X191002Y76664D01*
X191731Y76362D01*
X192521D01*
X193250Y76664D01*
X193808Y77223D01*
X194110Y77952D01*
Y78741D01*
X193808Y79470D01*
X193250Y80029D01*
X192521Y80331D01*
D02*
G37*
G36*
X234005Y77740D02*
X229346D01*
Y73082D01*
X230556Y73406D01*
X231861Y74159D01*
X232927Y75225D01*
X233681Y76531D01*
X234005Y77740D01*
D02*
G37*
G36*
X227346D02*
X222688D01*
X223012Y76531D01*
X223766Y75225D01*
X224832Y74159D01*
X226137Y73406D01*
X227346Y73082D01*
Y77740D01*
D02*
G37*
G36*
X70619D02*
X65961D01*
Y73082D01*
X67170Y73406D01*
X68476Y74159D01*
X69541Y75225D01*
X70295Y76531D01*
X70619Y77740D01*
D02*
G37*
G36*
X63961D02*
X59302D01*
X59626Y76531D01*
X60380Y75225D01*
X61446Y74159D01*
X62751Y73406D01*
X63961Y73082D01*
Y77740D01*
D02*
G37*
G36*
X99943Y76181D02*
X99269D01*
X98619Y76007D01*
X98035Y75670D01*
X97559Y75193D01*
X97222Y74610D01*
X97047Y73959D01*
Y73285D01*
X97222Y72634D01*
X97559Y72051D01*
X98035Y71574D01*
X98619Y71237D01*
X99269Y71063D01*
X99943D01*
X100594Y71237D01*
X101178Y71574D01*
X101654Y72051D01*
X101991Y72634D01*
X102165Y73285D01*
Y73959D01*
X101991Y74610D01*
X101654Y75193D01*
X101178Y75670D01*
X100594Y76007D01*
X99943Y76181D01*
D02*
G37*
G36*
X88132D02*
X87458D01*
X86808Y76007D01*
X86224Y75670D01*
X85747Y75193D01*
X85411Y74610D01*
X85236Y73959D01*
Y73285D01*
X85411Y72634D01*
X85747Y72051D01*
X86224Y71574D01*
X86808Y71237D01*
X87458Y71063D01*
X88132D01*
X88783Y71237D01*
X89367Y71574D01*
X89843Y72051D01*
X90180Y72634D01*
X90354Y73285D01*
Y73959D01*
X90180Y74610D01*
X89843Y75193D01*
X89367Y75670D01*
X88783Y76007D01*
X88132Y76181D01*
D02*
G37*
%LPD*%
G36*
X109888Y174879D02*
Y154201D01*
X109426Y154010D01*
X109392Y154044D01*
X108662Y154347D01*
X107873D01*
X107419Y154158D01*
X106919Y154473D01*
Y174176D01*
X107335Y174453D01*
X107479Y174394D01*
X108269D01*
X108998Y174696D01*
X109388Y175086D01*
X109888Y174879D01*
D02*
G37*
G36*
X211365Y176213D02*
Y140452D01*
X211481Y139867D01*
X211813Y139371D01*
X223738Y127445D01*
X223705Y127320D01*
Y126617D01*
X223887Y125937D01*
X224239Y125327D01*
X224736Y124829D01*
X224860Y124758D01*
Y124258D01*
X224736Y124186D01*
X224388Y123838D01*
X209455Y138771D01*
Y175600D01*
X209923Y176067D01*
X210139D01*
X210868Y176369D01*
X210903Y176404D01*
X211365Y176213D01*
D02*
G37*
G36*
X192256Y106399D02*
X192752Y106067D01*
X193337Y105951D01*
X223705D01*
Y104610D01*
X223227Y104557D01*
X186031D01*
X185963Y104625D01*
X185467Y104956D01*
X184882Y105073D01*
X142222D01*
X142069Y105226D01*
X141340Y105528D01*
X140550D01*
X139821Y105226D01*
X139263Y104667D01*
X138961Y103938D01*
Y103149D01*
X138999Y103056D01*
X138575Y102772D01*
X131922Y109426D01*
X132113Y109888D01*
X148377D01*
X148962Y110004D01*
X149458Y110336D01*
X150912Y111790D01*
X151342D01*
X152071Y112092D01*
X152629Y112650D01*
X152931Y113380D01*
Y114169D01*
X152792Y114506D01*
X153126Y115006D01*
X153702D01*
X153926Y114782D01*
Y114566D01*
X154228Y113837D01*
X154787Y113278D01*
X155516Y112976D01*
X156305D01*
X157034Y113278D01*
X157593Y113837D01*
X157895Y114566D01*
Y115127D01*
X158395Y115334D01*
X158958Y114771D01*
Y114566D01*
X159260Y113837D01*
X159818Y113278D01*
X160547Y112976D01*
X161337D01*
X162066Y113278D01*
X162624Y113837D01*
X162926Y114566D01*
Y115355D01*
X162624Y116085D01*
X162066Y116643D01*
X161337Y116945D01*
X161109D01*
X157205Y120849D01*
X157396Y121311D01*
X161172D01*
X164196Y118287D01*
Y115653D01*
X163926Y115003D01*
Y114213D01*
X164228Y113484D01*
X164787Y112926D01*
X165516Y112624D01*
X166305D01*
X167034Y112926D01*
X167593Y113484D01*
X167895Y114213D01*
Y115003D01*
X167593Y115732D01*
X167254Y116070D01*
Y118921D01*
X167138Y119506D01*
X166807Y120002D01*
X164119Y122690D01*
X164310Y123152D01*
X170651D01*
X170759Y122892D01*
X171317Y122334D01*
X172046Y122031D01*
X172836D01*
X173565Y122334D01*
X174123Y122892D01*
X174396Y123551D01*
X174887Y123767D01*
X192256Y106399D01*
D02*
G37*
G36*
X131656Y119391D02*
X132152Y119060D01*
X132737Y118943D01*
X154785D01*
X155749Y117979D01*
X155417Y117617D01*
X154921Y117948D01*
X154336Y118065D01*
X128980D01*
X104679Y142366D01*
Y145714D01*
X105141Y145906D01*
X131656Y119391D01*
D02*
G37*
G36*
X127265Y115454D02*
X127761Y115122D01*
X128347Y115006D01*
X148768D01*
X149102Y114506D01*
X148963Y114169D01*
Y114166D01*
X147743Y112947D01*
X124649D01*
X102317Y135279D01*
Y139749D01*
X102779Y139940D01*
X127265Y115454D01*
D02*
G37*
G36*
X184316Y101946D02*
X184813Y101615D01*
X185398Y101498D01*
X227028D01*
X227220Y101036D01*
X225351Y99167D01*
X148146D01*
X147848Y99667D01*
X148047Y100149D01*
Y100938D01*
X147809Y101514D01*
X148052Y102014D01*
X184249D01*
X184316Y101946D01*
D02*
G37*
G36*
X225729Y95608D02*
X219499Y89379D01*
X176869D01*
X176678Y89841D01*
X176827Y89990D01*
X177387Y90959D01*
X177558Y91599D01*
X173426D01*
Y93599D01*
X177558D01*
X177387Y94240D01*
X176827Y95209D01*
X176428Y95608D01*
X176635Y96108D01*
X225522D01*
X225729Y95608D01*
D02*
G37*
D55*
X123425Y82598D02*
D03*
D56*
X133425D02*
D03*
X143425D02*
D03*
X153426D02*
D03*
X163426D02*
D03*
X173426D02*
D03*
X123425Y92599D02*
D03*
X133425D02*
D03*
X143425D02*
D03*
X153426D02*
D03*
X163426D02*
D03*
X173426D02*
D03*
D60*
X140945Y103543D02*
X184882D01*
X185398Y103028D01*
X135876Y99796D02*
X138034Y97638D01*
X131102Y99090D02*
Y99888D01*
X130858Y100132D02*
Y100394D01*
Y100132D02*
X131102Y99888D01*
Y99090D02*
X132843Y97349D01*
X98032Y130709D02*
X118913Y109827D01*
X185398Y103028D02*
X228354D01*
X129358Y109827D02*
X138642Y100543D01*
X225984Y97638D02*
X233071Y104724D01*
X138425Y90882D02*
Y94317D01*
X138034Y97638D02*
X225984D01*
X132843Y97349D02*
X135393D01*
X138642Y100543D02*
X146063D01*
X118913Y109827D02*
X129358D01*
X135393Y97349D02*
X138425Y94317D01*
X228354Y103028D02*
X230315Y104989D01*
X205512Y186736D02*
X213657D01*
X218898Y181496D01*
X210347Y181386D02*
X212894Y178838D01*
X208650Y181386D02*
X210347D01*
X208465Y181571D02*
X208650Y181386D01*
X207926Y176233D02*
X209744Y178051D01*
X207926Y138137D02*
Y176233D01*
X212894Y140452D02*
X226378Y126969D01*
X212894Y140452D02*
Y178838D01*
X224016Y122047D02*
X226378D01*
X207926Y138137D02*
X224016Y122047D01*
X226378D02*
X230315Y118110D01*
X141458Y87849D02*
X220133D01*
X236221Y103937D01*
X138425Y90882D02*
X141458Y87849D01*
X230315Y104989D02*
Y118110D01*
X233071Y104724D02*
Y120276D01*
X226378Y131890D02*
X236221Y122047D01*
Y103937D02*
Y122047D01*
X150733Y113774D02*
X150947D01*
X148377Y111417D02*
X150733Y113774D01*
X152461Y128283D02*
X156063Y124681D01*
X151127Y128283D02*
X152461D01*
X150942Y128469D02*
X151127Y128283D01*
X103150Y141732D02*
Y188385D01*
X128347Y116535D02*
X154336D01*
X103150Y141732D02*
X128347Y116535D01*
X100787Y134646D02*
Y192126D01*
Y134646D02*
X124016Y111417D01*
X148377D01*
X98032Y130709D02*
Y195758D01*
X118898Y148031D02*
Y174409D01*
Y148031D02*
X133071Y133858D01*
X166959D01*
X218898Y139370D02*
Y181496D01*
Y139370D02*
X226378Y131890D01*
X156063Y124681D02*
X171776D01*
X172441Y124016D01*
X137396Y122841D02*
X161805D01*
X111417Y148819D02*
X137396Y122841D01*
X166959Y133858D02*
X193337Y107480D01*
X105390Y147820D02*
X132737Y120472D01*
X155419D01*
X160931Y114961D01*
X165725Y114793D02*
X165910Y114608D01*
X161805Y122841D02*
X165725Y118921D01*
Y114793D02*
Y118921D01*
X154336Y116535D02*
X155910Y114961D01*
X160931D02*
X160942D01*
X193337Y107480D02*
X226181D01*
X100305Y198031D02*
X100394D01*
X98032Y195758D02*
X100305Y198031D01*
X111417Y148819D02*
Y178740D01*
X107874Y182283D02*
X111417Y178740D01*
X105390Y147820D02*
Y184655D01*
X226378Y126969D02*
X233071Y120276D01*
X106693Y185958D02*
Y186221D01*
X105390Y184655D02*
X106693Y185958D01*
X220472Y116535D02*
X225787D01*
X226378Y117126D01*
X215748Y112205D02*
X226378D01*
X226181Y107480D02*
X226378Y107283D01*
X100787Y192126D02*
X106299Y197638D01*
X103150Y188385D02*
X104331Y189566D01*
Y189764D01*
D61*
X92880Y197605D02*
X97835Y202559D01*
X92880Y161384D02*
Y197605D01*
X89764Y158268D02*
X92880Y161384D01*
X97835Y202559D02*
X132874D01*
X89764Y152756D02*
Y158268D01*
X60630Y164567D02*
X72441Y152756D01*
X89764D01*
D65*
X228346Y214567D02*
D03*
X64961Y78740D02*
D03*
Y214567D02*
D03*
X228346Y78740D02*
D03*
D66*
X62992Y104232D02*
D03*
D67*
Y96358D02*
D03*
D68*
X99606Y73622D02*
D03*
X87795D02*
D03*
D69*
X226378Y198819D02*
D03*
Y193898D02*
D03*
Y188976D02*
D03*
Y184055D02*
D03*
Y179134D02*
D03*
Y174213D02*
D03*
Y169291D02*
D03*
Y141732D02*
D03*
Y136811D02*
D03*
Y131890D02*
D03*
Y126969D02*
D03*
Y122047D02*
D03*
Y117126D02*
D03*
Y112205D02*
D03*
D70*
Y164370D02*
D03*
Y107283D02*
D03*
D71*
X83465Y164567D02*
D03*
X140945Y103543D02*
D03*
X135876Y99796D02*
D03*
X130858Y100394D02*
D03*
X146063Y100543D02*
D03*
X205512Y186736D02*
D03*
X84204Y138534D02*
D03*
X88779Y141240D02*
D03*
X208465Y181571D02*
D03*
X205442Y173083D02*
D03*
X209744Y178051D02*
D03*
X161417Y185433D02*
D03*
X159461Y178752D02*
D03*
X160508Y196457D02*
D03*
X161024Y202756D02*
D03*
X137697Y191240D02*
D03*
X158268Y191142D02*
D03*
X131890Y172835D02*
D03*
X108268Y152362D02*
D03*
X120142Y179464D02*
D03*
X63681Y178839D02*
D03*
X63779Y182677D02*
D03*
X83268Y203346D02*
D03*
X60222Y159828D02*
D03*
X88004Y162807D02*
D03*
X61417Y136221D02*
D03*
X86221Y179921D02*
D03*
X81496Y182283D02*
D03*
X64173Y186221D02*
D03*
X63779Y175197D02*
D03*
X162327Y139764D02*
D03*
X157358D02*
D03*
X152362Y140157D02*
D03*
X208268Y100122D02*
D03*
X83071Y129134D02*
D03*
X90146Y176580D02*
D03*
X86614Y172047D02*
D03*
X145941Y128469D02*
D03*
X150947Y113774D02*
D03*
X150942Y128469D02*
D03*
X120472Y128347D02*
D03*
X120866Y120079D02*
D03*
X187008Y126772D02*
D03*
X116142Y107480D02*
D03*
X119685Y221654D02*
D03*
X88583Y145669D02*
D03*
X171653Y158268D02*
D03*
X108268Y167323D02*
D03*
X178740Y158268D02*
D03*
X214567Y214567D02*
D03*
X96457Y116142D02*
D03*
X124016Y100394D02*
D03*
X74803Y214567D02*
D03*
X80709Y108268D02*
D03*
X66929Y122047D02*
D03*
X120079Y197638D02*
D03*
X124409Y152362D02*
D03*
X142913Y196850D02*
D03*
X74016Y188976D02*
D03*
X115354Y152362D02*
D03*
X147638Y140157D02*
D03*
X142913D02*
D03*
X138279D02*
D03*
X133310Y140369D02*
D03*
X215748Y179921D02*
D03*
Y172835D02*
D03*
X172047Y106299D02*
D03*
X216142Y159843D02*
D03*
X210410Y155073D02*
D03*
X192126Y78347D02*
D03*
X167445Y139795D02*
D03*
Y127165D02*
D03*
X172441Y124016D02*
D03*
X177953Y130315D02*
D03*
X160936Y127165D02*
D03*
X160508Y182087D02*
D03*
X155910Y128347D02*
D03*
X140945Y128469D02*
D03*
X135976D02*
D03*
X181102Y123228D02*
D03*
X177165Y175197D02*
D03*
X100394Y198031D02*
D03*
X119980Y189075D02*
D03*
X118898Y174409D02*
D03*
X198425Y149213D02*
D03*
X203150D02*
D03*
X129739Y126983D02*
D03*
X160942Y114961D02*
D03*
X184898Y82425D02*
D03*
X165910Y114608D02*
D03*
X186516Y189961D02*
D03*
X188976Y185827D02*
D03*
X88976Y86614D02*
D03*
X89764Y152756D02*
D03*
X154823Y223721D02*
D03*
X177165Y201575D02*
D03*
X161614Y216240D02*
D03*
X203346Y123799D02*
D03*
X198287Y123779D02*
D03*
X158465Y220866D02*
D03*
X132874Y202559D02*
D03*
X136221Y216535D02*
D03*
X64562Y196068D02*
D03*
X64961Y203150D02*
D03*
X60630Y164567D02*
D03*
X60236Y141339D02*
D03*
X155910Y114961D02*
D03*
X107874Y182283D02*
D03*
X220472Y116535D02*
D03*
X215748Y112205D02*
D03*
X104331Y189764D02*
D03*
X107874Y176378D02*
D03*
X83268Y214272D02*
D03*
X194095Y177953D02*
D03*
X191339Y181890D02*
D03*
X120079Y183268D02*
D03*
X120079Y193110D02*
D03*
X106299Y197638D02*
D03*
X106693Y186221D02*
D03*
X80315Y176772D02*
D03*
X211811Y194095D02*
D03*
X207087Y197638D02*
D03*
X177165Y205512D02*
D03*
X205876Y200787D02*
D03*
X205906Y203937D02*
D03*
X142913Y216535D02*
D03*
X148425Y216929D02*
D03*
X151969Y216142D02*
D03*
X72835Y166142D02*
D03*
X68898Y161417D02*
D03*
X72835D02*
D03*
X76772D02*
D03*
X72835Y156693D02*
D03*
X72441Y142520D02*
D03*
X68504Y137795D02*
D03*
X72441D02*
D03*
X76378D02*
D03*
X72441Y133071D02*
D03*
M02*
