G04*
G04 #@! TF.GenerationSoftware,Altium Limited,Altium Designer,24.6.1 (21)*
G04*
G04 Layer_Color=32896*
%FSLAX25Y25*%
%MOIN*%
G70*
G04*
G04 #@! TF.SameCoordinates,71A63A80-48C0-4A26-A8B6-F104E5BC9168*
G04*
G04*
G04 #@! TF.FilePolarity,Positive*
G04*
G01*
G75*
%ADD14C,0.00300*%
%ADD15C,0.00400*%
%ADD17C,0.00591*%
D14*
X60111Y198575D02*
Y204575D01*
X63511D01*
Y198575D02*
Y204575D01*
X60111Y198575D02*
X63511D01*
X84795Y201843D02*
X90795D01*
X84795D02*
Y205243D01*
X90795D01*
Y201843D02*
Y205243D01*
X84795Y206568D02*
X90795D01*
X84795D02*
Y209968D01*
X90795D01*
Y206568D02*
Y209968D01*
X92788Y135976D02*
Y141976D01*
X96188D01*
Y135976D02*
Y141976D01*
X92788Y135976D02*
X96188D01*
X88064Y161268D02*
X91464D01*
X88064Y155268D02*
Y161268D01*
Y155268D02*
X91464D01*
Y161268D01*
X87920Y182827D02*
Y188827D01*
X84521Y182827D02*
X87920D01*
X84521D02*
Y188827D01*
X87920D01*
X130288Y181957D02*
X133688D01*
X130288Y175957D02*
Y181957D01*
Y175957D02*
X133688D01*
Y181957D01*
X92788Y149850D02*
X96188D01*
X92788Y143850D02*
Y149850D01*
Y143850D02*
X96188D01*
Y149850D01*
X139495Y175937D02*
Y181937D01*
X136095Y175937D02*
X139495D01*
X136095D02*
Y181937D01*
X139495D01*
X79796Y182827D02*
Y188827D01*
X83196D01*
Y182827D02*
Y188827D01*
X79796Y182827D02*
X83196D01*
X58536Y155756D02*
X61936D01*
X58536Y149756D02*
Y155756D01*
Y149756D02*
X61936D01*
Y155756D01*
X58536Y142276D02*
Y148276D01*
X61936D01*
Y142276D02*
Y148276D01*
X58536Y142276D02*
X61936D01*
X87276Y137252D02*
X90676D01*
X87276Y131252D02*
Y137252D01*
Y131252D02*
X90676D01*
Y137252D01*
X82552Y131252D02*
X85952D01*
Y137252D01*
X82552D02*
X85952D01*
X82552Y131252D02*
Y137252D01*
Y142669D02*
Y148669D01*
X85952D01*
Y142669D02*
Y148669D01*
X82552Y142669D02*
X85952D01*
X84914Y164835D02*
Y170835D01*
X88314D01*
Y164835D02*
Y170835D01*
X84914Y164835D02*
X88314D01*
X82552Y155268D02*
X85952D01*
Y161268D01*
X82552D02*
X85952D01*
X82552Y155268D02*
Y161268D01*
X58930Y167079D02*
Y173079D01*
X62330D01*
Y167079D02*
Y173079D01*
X58930Y167079D02*
X62330D01*
X85165Y172197D02*
Y178197D01*
X81765Y172197D02*
X85165D01*
X81765D02*
Y178197D01*
X85165D01*
X58536Y177709D02*
Y183709D01*
X61936D01*
Y177709D02*
Y183709D01*
X58536Y177709D02*
X61936D01*
X159024Y201056D02*
Y204456D01*
X153024D02*
X159024D01*
X153024Y201056D02*
Y204456D01*
Y201056D02*
X159024D01*
X161292Y187433D02*
X164692D01*
Y193433D01*
X161292D02*
X164692D01*
X161292Y187433D02*
Y193433D01*
X156469Y189319D02*
X159869D01*
X156469Y183319D02*
Y189319D01*
Y183319D02*
X159869D01*
Y189319D01*
X158832Y177213D02*
X162232D01*
X158832Y171213D02*
Y177213D01*
Y171213D02*
X162232D01*
Y177213D01*
X130190Y190008D02*
X133590D01*
X130190Y184008D02*
Y190008D01*
Y184008D02*
X133590D01*
Y190008D01*
X136095D02*
X139495D01*
X136095Y184008D02*
Y190008D01*
Y184008D02*
X139495D01*
Y190008D01*
X153320Y177213D02*
X156720D01*
X153320Y171213D02*
Y177213D01*
Y171213D02*
X156720D01*
Y177213D01*
X135189Y201056D02*
Y204456D01*
Y201056D02*
X141189D01*
Y204456D01*
X135189D02*
X141189D01*
D15*
X152831Y199457D02*
X155831D01*
X152831Y193457D02*
X155831D01*
D17*
X84646Y190028D02*
X88582D01*
Y191996D01*
X87926Y192652D01*
X86614D01*
X85958Y191996D01*
Y190028D01*
Y191340D02*
X84646Y192652D01*
X87926Y193964D02*
X88582Y194620D01*
Y195931D01*
X87926Y196588D01*
X87270D01*
X86614Y195931D01*
Y195276D01*
Y195931D01*
X85958Y196588D01*
X85302D01*
X84646Y195931D01*
Y194620D01*
X85302Y193964D01*
X87926Y197899D02*
X88582Y198555D01*
Y199867D01*
X87926Y200523D01*
X87270D01*
X86614Y199867D01*
Y199211D01*
Y199867D01*
X85958Y200523D01*
X85302D01*
X84646Y199867D01*
Y198555D01*
X85302Y197899D01*
X102885Y206694D02*
Y210629D01*
X100918D01*
X100262Y209973D01*
Y208661D01*
X100918Y208005D01*
X102885D01*
X101574D02*
X100262Y206694D01*
X98950Y209973D02*
X98294Y210629D01*
X96982D01*
X96326Y209973D01*
Y209317D01*
X96982Y208661D01*
X97638D01*
X96982D01*
X96326Y208005D01*
Y207349D01*
X96982Y206694D01*
X98294D01*
X98950Y207349D01*
X92390Y206694D02*
X95014D01*
X92390Y209317D01*
Y209973D01*
X93046Y210629D01*
X94358D01*
X95014Y209973D01*
X139501Y166667D02*
X140157Y166012D01*
Y164700D01*
X139501Y164044D01*
X136877D01*
X136221Y164700D01*
Y166012D01*
X136877Y166667D01*
X136221Y169947D02*
X140157D01*
X138189Y167979D01*
Y170603D01*
X139501Y171915D02*
X140157Y172571D01*
Y173883D01*
X139501Y174539D01*
X138845D01*
X138189Y173883D01*
Y173227D01*
Y173883D01*
X137533Y174539D01*
X136877D01*
X136221Y173883D01*
Y172571D01*
X136877Y171915D01*
X100262Y204855D02*
X100918Y205511D01*
X102229D01*
X102885Y204855D01*
Y202231D01*
X102229Y201575D01*
X100918D01*
X100262Y202231D01*
X96326Y205511D02*
X98950D01*
Y203543D01*
X97638Y204199D01*
X96982D01*
X96326Y203543D01*
Y202231D01*
X96982Y201575D01*
X98294D01*
X98950Y202231D01*
X92390Y205511D02*
X93702Y204855D01*
X95014Y203543D01*
Y202231D01*
X94358Y201575D01*
X93046D01*
X92390Y202231D01*
Y202887D01*
X93046Y203543D01*
X95014D01*
X63123Y208793D02*
X63779Y208137D01*
Y206826D01*
X63123Y206170D01*
X60499D01*
X59843Y206826D01*
Y208137D01*
X60499Y208793D01*
X63779Y212729D02*
Y210105D01*
X61811D01*
X62467Y211417D01*
Y212073D01*
X61811Y212729D01*
X60499D01*
X59843Y212073D01*
Y210761D01*
X60499Y210105D01*
X63779Y216665D02*
Y214041D01*
X61811D01*
X62467Y215353D01*
Y216009D01*
X61811Y216665D01*
X60499D01*
X59843Y216009D01*
Y214697D01*
X60499Y214041D01*
X93438Y167455D02*
X94094Y166799D01*
Y165487D01*
X93438Y164831D01*
X90814D01*
X90158Y165487D01*
Y166799D01*
X90814Y167455D01*
X93438Y168767D02*
X94094Y169423D01*
Y170735D01*
X93438Y171391D01*
X92782D01*
X92126Y170735D01*
Y170079D01*
Y170735D01*
X91470Y171391D01*
X90814D01*
X90158Y170735D01*
Y169423D01*
X90814Y168767D01*
Y172703D02*
X90158Y173359D01*
Y174670D01*
X90814Y175326D01*
X93438D01*
X94094Y174670D01*
Y173359D01*
X93438Y172703D01*
X92782D01*
X92126Y173359D01*
Y175326D01*
X80446Y140683D02*
X81102Y140027D01*
Y138715D01*
X80446Y138059D01*
X77822D01*
X77166Y138715D01*
Y140027D01*
X77822Y140683D01*
X80446Y141995D02*
X81102Y142651D01*
Y143963D01*
X80446Y144619D01*
X79790D01*
X79134Y143963D01*
Y143307D01*
Y143963D01*
X78478Y144619D01*
X77822D01*
X77166Y143963D01*
Y142651D01*
X77822Y141995D01*
X81102Y148555D02*
Y145931D01*
X79134D01*
X79790Y147243D01*
Y147899D01*
X79134Y148555D01*
X77822D01*
X77166Y147899D01*
Y146587D01*
X77822Y145931D01*
X154462Y183597D02*
X155117Y182941D01*
Y181629D01*
X154462Y180973D01*
X151838D01*
X151182Y181629D01*
Y182941D01*
X151838Y183597D01*
X155117Y187532D02*
Y184909D01*
X153150D01*
X153806Y186221D01*
Y186876D01*
X153150Y187532D01*
X151838D01*
X151182Y186876D01*
Y185564D01*
X151838Y184909D01*
X151182Y190812D02*
X155117D01*
X153150Y188844D01*
Y191468D01*
X92520Y124280D02*
X96456D01*
Y126248D01*
X95800Y126904D01*
X94488D01*
X93832Y126248D01*
Y124280D01*
Y125592D02*
X92520Y126904D01*
Y130840D02*
Y128216D01*
X95144Y130840D01*
X95800D01*
X96456Y130183D01*
Y128872D01*
X95800Y128216D01*
X92520Y134119D02*
X96456D01*
X94488Y132151D01*
Y134775D01*
X77166Y151051D02*
X81102D01*
Y153019D01*
X80446Y153675D01*
X79134D01*
X78478Y153019D01*
Y151051D01*
Y152364D02*
X77166Y153675D01*
Y157611D02*
Y154987D01*
X79790Y157611D01*
X80446D01*
X81102Y156955D01*
Y155643D01*
X80446Y154987D01*
Y158923D02*
X81102Y159579D01*
Y160891D01*
X80446Y161547D01*
X79790D01*
X79134Y160891D01*
Y160235D01*
Y160891D01*
X78478Y161547D01*
X77822D01*
X77166Y160891D01*
Y159579D01*
X77822Y158923D01*
X63780Y148296D02*
X67716D01*
Y150264D01*
X67060Y150919D01*
X65748D01*
X65092Y150264D01*
Y148296D01*
Y149608D02*
X63780Y150919D01*
Y154855D02*
Y152231D01*
X66404Y154855D01*
X67060D01*
X67716Y154199D01*
Y152887D01*
X67060Y152231D01*
X67716Y156167D02*
Y158791D01*
X67060D01*
X64436Y156167D01*
X63780D01*
X81890Y119162D02*
X85826D01*
Y121130D01*
X85170Y121786D01*
X83858D01*
X83202Y121130D01*
Y119162D01*
Y120474D02*
X81890Y121786D01*
Y125721D02*
Y123098D01*
X84514Y125721D01*
X85170D01*
X85826Y125065D01*
Y123753D01*
X85170Y123098D01*
X85826Y129657D02*
X85170Y128345D01*
X83858Y127033D01*
X82546D01*
X81890Y127689D01*
Y129001D01*
X82546Y129657D01*
X83202D01*
X83858Y129001D01*
Y127033D01*
X92914Y152626D02*
X96850D01*
Y154594D01*
X96194Y155250D01*
X94882D01*
X94226Y154594D01*
Y152626D01*
Y153938D02*
X92914Y155250D01*
Y159186D02*
Y156562D01*
X95538Y159186D01*
X96194D01*
X96850Y158530D01*
Y157218D01*
X96194Y156562D01*
X92914Y163122D02*
Y160498D01*
X95538Y163122D01*
X96194D01*
X96850Y162466D01*
Y161154D01*
X96194Y160498D01*
X87402Y119162D02*
X91338D01*
Y121130D01*
X90682Y121786D01*
X89370D01*
X88714Y121130D01*
Y119162D01*
Y120474D02*
X87402Y121786D01*
Y125721D02*
Y123098D01*
X90026Y125721D01*
X90682D01*
X91338Y125065D01*
Y123753D01*
X90682Y123098D01*
X91338Y129657D02*
Y127033D01*
X89370D01*
X90026Y128345D01*
Y129001D01*
X89370Y129657D01*
X88058D01*
X87402Y129001D01*
Y127689D01*
X88058Y127033D01*
X148936Y204068D02*
X149592Y204724D01*
X150904D01*
X151560Y204068D01*
Y201444D01*
X150904Y200788D01*
X149592D01*
X148936Y201444D01*
X145001Y204724D02*
X147625D01*
Y202756D01*
X146313Y203412D01*
X145657D01*
X145001Y202756D01*
Y201444D01*
X145657Y200788D01*
X146968D01*
X147625Y201444D01*
X143689Y200788D02*
X142377D01*
X143033D01*
Y204724D01*
X143689Y204068D01*
X61548Y133859D02*
X62204Y133203D01*
Y131891D01*
X61548Y131235D01*
X58924D01*
X58268Y131891D01*
Y133203D01*
X58924Y133859D01*
X58268Y137139D02*
X62204D01*
X60236Y135171D01*
Y137795D01*
X58268Y139107D02*
Y140419D01*
Y139762D01*
X62204D01*
X61548Y139107D01*
X169553Y198556D02*
X170209Y199212D01*
X171521D01*
X172177Y198556D01*
Y195932D01*
X171521Y195276D01*
X170209D01*
X169553Y195932D01*
X165617Y199212D02*
X168241D01*
Y197244D01*
X166929Y197900D01*
X166273D01*
X165617Y197244D01*
Y195932D01*
X166273Y195276D01*
X167585D01*
X168241Y195932D01*
X164305Y198556D02*
X163649Y199212D01*
X162337D01*
X161681Y198556D01*
Y195932D01*
X162337Y195276D01*
X163649D01*
X164305Y195932D01*
Y198556D01*
X144619Y184384D02*
X145275Y183728D01*
Y182416D01*
X144619Y181760D01*
X141995D01*
X141339Y182416D01*
Y183728D01*
X141995Y184384D01*
X145275Y188320D02*
Y185696D01*
X143307D01*
X143963Y187008D01*
Y187664D01*
X143307Y188320D01*
X141995D01*
X141339Y187664D01*
Y186352D01*
X141995Y185696D01*
X144619Y189632D02*
X145275Y190288D01*
Y191600D01*
X144619Y192255D01*
X143963D01*
X143307Y191600D01*
Y190944D01*
Y191600D01*
X142651Y192255D01*
X141995D01*
X141339Y191600D01*
Y190288D01*
X141995Y189632D01*
X133202Y194227D02*
X133858Y193571D01*
Y192259D01*
X133202Y191603D01*
X130578D01*
X129922Y192259D01*
Y193571D01*
X130578Y194227D01*
X133858Y198162D02*
Y195538D01*
X131890D01*
X132546Y196850D01*
Y197506D01*
X131890Y198162D01*
X130578D01*
X129922Y197506D01*
Y196194D01*
X130578Y195538D01*
X129922Y202098D02*
Y199474D01*
X132546Y202098D01*
X133202D01*
X133858Y201442D01*
Y200130D01*
X133202Y199474D01*
X169422Y185171D02*
X170078Y184516D01*
Y183204D01*
X169422Y182548D01*
X166798D01*
X166142Y183204D01*
Y184516D01*
X166798Y185171D01*
X166142Y188451D02*
X170078D01*
X168110Y186483D01*
Y189107D01*
X166798Y190419D02*
X166142Y191075D01*
Y192387D01*
X166798Y193043D01*
X169422D01*
X170078Y192387D01*
Y191075D01*
X169422Y190419D01*
X168766D01*
X168110Y191075D01*
Y193043D01*
X162336Y161549D02*
X162991Y160893D01*
Y159581D01*
X162336Y158926D01*
X159712D01*
X159056Y159581D01*
Y160893D01*
X159712Y161549D01*
X159056Y164829D02*
X162991D01*
X161024Y162861D01*
Y165485D01*
X162991Y169421D02*
Y166797D01*
X161024D01*
X161680Y168109D01*
Y168765D01*
X161024Y169421D01*
X159712D01*
X159056Y168765D01*
Y167453D01*
X159712Y166797D01*
X140813Y209186D02*
X141469Y209842D01*
X142781D01*
X143437Y209186D01*
Y206562D01*
X142781Y205906D01*
X141469D01*
X140813Y206562D01*
X137533Y205906D02*
Y209842D01*
X139501Y207874D01*
X136877D01*
X132941Y209842D02*
X134253Y209186D01*
X135565Y207874D01*
Y206562D01*
X134909Y205906D01*
X133597D01*
X132941Y206562D01*
Y207218D01*
X133597Y207874D01*
X135565D01*
X67060Y167455D02*
X67716Y166799D01*
Y165487D01*
X67060Y164831D01*
X64436D01*
X63780Y165487D01*
Y166799D01*
X64436Y167455D01*
X63780Y170735D02*
X67716D01*
X65748Y168767D01*
Y171391D01*
X67716Y172703D02*
Y175326D01*
X67060D01*
X64436Y172703D01*
X63780D01*
X155643Y161943D02*
X156299Y161287D01*
Y159975D01*
X155643Y159319D01*
X153019D01*
X152363Y159975D01*
Y161287D01*
X153019Y161943D01*
X152363Y165223D02*
X156299D01*
X154331Y163255D01*
Y165879D01*
X152363Y169159D02*
X156299D01*
X154331Y167191D01*
Y169815D01*
X132808Y166667D02*
X133464Y166012D01*
Y164700D01*
X132808Y164044D01*
X130184D01*
X129528Y164700D01*
Y166012D01*
X130184Y166667D01*
X129528Y169947D02*
X133464D01*
X131496Y167979D01*
Y170603D01*
X129528Y174539D02*
Y171915D01*
X132152Y174539D01*
X132808D01*
X133464Y173883D01*
Y172571D01*
X132808Y171915D01*
X79658Y170211D02*
X80314Y169555D01*
Y168243D01*
X79658Y167587D01*
X77035D01*
X76379Y168243D01*
Y169555D01*
X77035Y170211D01*
X76379Y173491D02*
X80314D01*
X78347Y171523D01*
Y174147D01*
X79658Y175459D02*
X80314Y176114D01*
Y177426D01*
X79658Y178082D01*
X77035D01*
X76379Y177426D01*
Y176114D01*
X77035Y175459D01*
X79658D01*
X61548Y187927D02*
X62204Y187271D01*
Y185959D01*
X61548Y185303D01*
X58924D01*
X58268Y185959D01*
Y187271D01*
X58924Y187927D01*
X61548Y189239D02*
X62204Y189895D01*
Y191207D01*
X61548Y191863D01*
X60892D01*
X60236Y191207D01*
Y190551D01*
Y191207D01*
X59580Y191863D01*
X58924D01*
X58268Y191207D01*
Y189895D01*
X58924Y189239D01*
X61548Y193175D02*
X62204Y193831D01*
Y195143D01*
X61548Y195799D01*
X60892D01*
X60236Y195143D01*
X59580Y195799D01*
X58924D01*
X58268Y195143D01*
Y193831D01*
X58924Y193175D01*
X59580D01*
X60236Y193831D01*
X60892Y193175D01*
X61548D01*
X60236Y193831D02*
Y195143D01*
X100918Y141864D02*
X101574Y141208D01*
Y139897D01*
X100918Y139241D01*
X98294D01*
X97638Y139897D01*
Y141208D01*
X98294Y141864D01*
X100918Y143176D02*
X101574Y143832D01*
Y145144D01*
X100918Y145800D01*
X100262D01*
X99606Y145144D01*
Y144488D01*
Y145144D01*
X98950Y145800D01*
X98294D01*
X97638Y145144D01*
Y143832D01*
X98294Y143176D01*
X101574Y149736D02*
X100918Y148424D01*
X99606Y147112D01*
X98294D01*
X97638Y147768D01*
Y149080D01*
X98294Y149736D01*
X98950D01*
X99606Y149080D01*
Y147112D01*
X82414Y192652D02*
X83070Y191996D01*
Y190684D01*
X82414Y190028D01*
X79791D01*
X79135Y190684D01*
Y191996D01*
X79791Y192652D01*
X82414Y193964D02*
X83070Y194620D01*
Y195931D01*
X82414Y196588D01*
X81758D01*
X81102Y195931D01*
Y195276D01*
Y195931D01*
X80446Y196588D01*
X79791D01*
X79135Y195931D01*
Y194620D01*
X79791Y193964D01*
X83070Y197899D02*
Y200523D01*
X82414D01*
X79791Y197899D01*
X79135D01*
M02*
