G04*
G04 #@! TF.GenerationSoftware,Altium Limited,Altium Designer,24.6.1 (21)*
G04*
G04 Layer_Color=16711935*
%FSLAX25Y25*%
%MOIN*%
G70*
G04*
G04 #@! TF.SameCoordinates,71A63A80-48C0-4A26-A8B6-F104E5BC9168*
G04*
G04*
G04 #@! TF.FilePolarity,Negative*
G04*
G01*
G75*
%ADD20R,0.02165X0.01378*%
%ADD27R,0.01378X0.02165*%
%ADD49C,0.09749*%
%ADD50R,0.05024X0.05024*%
%ADD51C,0.05024*%
%ADD52C,0.02072*%
%ADD53C,0.03647*%
%ADD54R,0.03647X0.03647*%
%ADD55R,0.06500X0.06500*%
%ADD56C,0.06500*%
%ADD57C,0.02269*%
%ADD73R,0.03347X0.05315*%
D20*
X61811Y199882D02*
D03*
Y203268D02*
D03*
X94488Y137284D02*
D03*
Y140669D02*
D03*
X89764Y156575D02*
D03*
Y159961D02*
D03*
X86221Y187520D02*
D03*
Y184134D02*
D03*
X131988Y177264D02*
D03*
Y180650D02*
D03*
X94488Y145158D02*
D03*
Y148543D02*
D03*
X137795Y180630D02*
D03*
Y177244D02*
D03*
X81496Y184134D02*
D03*
Y187520D02*
D03*
X60236Y151063D02*
D03*
Y154449D02*
D03*
Y143583D02*
D03*
Y146968D02*
D03*
X88976Y132559D02*
D03*
Y135945D02*
D03*
X84252D02*
D03*
Y132559D02*
D03*
Y143976D02*
D03*
Y147362D02*
D03*
X86614Y166142D02*
D03*
Y169527D02*
D03*
X84252Y159961D02*
D03*
Y156575D02*
D03*
X60630Y168386D02*
D03*
Y171772D02*
D03*
X83465Y176890D02*
D03*
Y173504D02*
D03*
X60236Y179016D02*
D03*
Y182402D02*
D03*
X162992Y192126D02*
D03*
Y188740D02*
D03*
X158169Y184626D02*
D03*
Y188012D02*
D03*
X160531Y172520D02*
D03*
Y175906D02*
D03*
X131890Y185315D02*
D03*
Y188701D02*
D03*
X137795Y185315D02*
D03*
Y188701D02*
D03*
X155020Y172520D02*
D03*
Y175906D02*
D03*
D27*
X89488Y203543D02*
D03*
X86102D02*
D03*
X89488Y208268D02*
D03*
X86102D02*
D03*
X154331Y202756D02*
D03*
X157717D02*
D03*
X139882D02*
D03*
X136496D02*
D03*
D49*
X228346Y214567D02*
D03*
X64961Y78740D02*
D03*
Y214567D02*
D03*
X228346Y78740D02*
D03*
D50*
X62992Y104232D02*
D03*
D51*
Y96358D02*
D03*
D52*
X99606Y73622D02*
D03*
X87795D02*
D03*
D53*
X226378Y198819D02*
D03*
Y193898D02*
D03*
Y188976D02*
D03*
Y184055D02*
D03*
Y179134D02*
D03*
Y174213D02*
D03*
Y169291D02*
D03*
Y141732D02*
D03*
Y136811D02*
D03*
Y131890D02*
D03*
Y126969D02*
D03*
Y122047D02*
D03*
Y117126D02*
D03*
Y112205D02*
D03*
D54*
Y164370D02*
D03*
Y107283D02*
D03*
D55*
X123425Y82598D02*
D03*
D56*
X133425D02*
D03*
X143425D02*
D03*
X153426D02*
D03*
X163426D02*
D03*
X173426D02*
D03*
X123425Y92599D02*
D03*
X133425D02*
D03*
X143425D02*
D03*
X153426D02*
D03*
X163426D02*
D03*
X173426D02*
D03*
D57*
X208268Y100122D02*
D03*
X83071Y129134D02*
D03*
X90146Y176580D02*
D03*
X86614Y172047D02*
D03*
X81314Y182209D02*
D03*
X86221Y179528D02*
D03*
X145941Y105512D02*
D03*
Y128469D02*
D03*
X150947Y113774D02*
D03*
X150942Y128469D02*
D03*
X120472Y128347D02*
D03*
X120866Y120079D02*
D03*
X187008Y126772D02*
D03*
X116142Y107480D02*
D03*
X119685Y221654D02*
D03*
X88583Y145669D02*
D03*
X171653Y158268D02*
D03*
X108268Y167323D02*
D03*
X178740Y158268D02*
D03*
X214567Y214567D02*
D03*
X96457Y116142D02*
D03*
X124016Y100394D02*
D03*
X74803Y214567D02*
D03*
X80709Y108268D02*
D03*
X66929Y122047D02*
D03*
X120079Y197638D02*
D03*
X124409Y152362D02*
D03*
X161024Y202756D02*
D03*
X142913Y196850D02*
D03*
X74016Y188976D02*
D03*
X115354Y152362D02*
D03*
X147638Y140157D02*
D03*
X142913D02*
D03*
X138279D02*
D03*
X133310Y140369D02*
D03*
X215748Y179921D02*
D03*
Y172835D02*
D03*
X172047Y106299D02*
D03*
X216142Y159843D02*
D03*
X205442Y173622D02*
D03*
X210410Y155073D02*
D03*
X84047Y138377D02*
D03*
X192126Y78347D02*
D03*
X137697Y191240D02*
D03*
X152362Y140031D02*
D03*
X167445Y139795D02*
D03*
Y127165D02*
D03*
X162205Y139370D02*
D03*
X172441Y124016D02*
D03*
X177953Y130315D02*
D03*
X160508Y179134D02*
D03*
Y196457D02*
D03*
X160936Y127165D02*
D03*
X160508Y186291D02*
D03*
Y182087D02*
D03*
X155910Y128347D02*
D03*
X140945Y128469D02*
D03*
X135976D02*
D03*
X135827Y103028D02*
D03*
X140941D02*
D03*
X130709D02*
D03*
X157480Y140157D02*
D03*
X181102Y123228D02*
D03*
X207926Y178871D02*
D03*
X206693Y181571D02*
D03*
X177165Y175197D02*
D03*
X88004Y162807D02*
D03*
X100394Y198031D02*
D03*
X119980Y189075D02*
D03*
X118898Y174409D02*
D03*
X108268Y152362D02*
D03*
X198425Y149213D02*
D03*
X203150D02*
D03*
X129739Y126983D02*
D03*
X160942Y114961D02*
D03*
X184898Y82425D02*
D03*
X165910Y114608D02*
D03*
X186516Y189961D02*
D03*
X188976Y185827D02*
D03*
X88976Y86614D02*
D03*
X120142Y179464D02*
D03*
X83465Y166264D02*
D03*
X89764Y152756D02*
D03*
X60222Y159828D02*
D03*
X154823Y223721D02*
D03*
X177165Y201575D02*
D03*
X161614Y216240D02*
D03*
X203346Y123799D02*
D03*
X198287Y123779D02*
D03*
X158465Y220866D02*
D03*
X132874Y202559D02*
D03*
X136221Y216535D02*
D03*
X63681Y178839D02*
D03*
X61417Y136221D02*
D03*
X64562Y196068D02*
D03*
X64961Y203150D02*
D03*
X64595Y175886D02*
D03*
X64603Y185529D02*
D03*
X63779Y182677D02*
D03*
X60630Y164567D02*
D03*
X84345Y141492D02*
D03*
X60236Y141339D02*
D03*
X155910Y114961D02*
D03*
X131890Y172835D02*
D03*
X107874Y182283D02*
D03*
X220472Y116535D02*
D03*
X215748Y112205D02*
D03*
X104331Y189764D02*
D03*
X107874Y176378D02*
D03*
X83268Y214272D02*
D03*
X83268Y203346D02*
D03*
X205512Y186539D02*
D03*
X194095Y177953D02*
D03*
X191339Y181890D02*
D03*
X158268Y191142D02*
D03*
X120079Y183268D02*
D03*
X120079Y193110D02*
D03*
X106299Y197638D02*
D03*
X106693Y186221D02*
D03*
X80315Y176772D02*
D03*
X211811Y194095D02*
D03*
X207087Y197638D02*
D03*
X177165Y205512D02*
D03*
X205876Y200787D02*
D03*
X205906Y203937D02*
D03*
X142913Y216535D02*
D03*
X148425Y216929D02*
D03*
X151969Y216142D02*
D03*
X72835Y166142D02*
D03*
X68898Y161417D02*
D03*
X72835D02*
D03*
X76772D02*
D03*
X72835Y156693D02*
D03*
X72441Y142520D02*
D03*
X68504Y137795D02*
D03*
X72441D02*
D03*
X76378D02*
D03*
X72441Y133071D02*
D03*
D73*
X158189Y196457D02*
D03*
X150472D02*
D03*
M02*
