G04*
G04 #@! TF.GenerationSoftware,Altium Limited,Altium Designer,24.6.1 (21)*
G04*
G04 Layer_Color=65535*
%FSLAX25Y25*%
%MOIN*%
G70*
G04*
G04 #@! TF.SameCoordinates,71A63A80-48C0-4A26-A8B6-F104E5BC9168*
G04*
G04*
G04 #@! TF.FilePolarity,Positive*
G04*
G01*
G75*
%ADD10C,0.00394*%
%ADD11C,0.02362*%
%ADD12C,0.00984*%
%ADD13C,0.00787*%
%ADD14C,0.00300*%
%ADD15C,0.00400*%
%ADD16C,0.00500*%
%ADD17C,0.00591*%
D10*
X70866Y104232D02*
G03*
X70473Y104232I-197J0D01*
G01*
D02*
G03*
X70866Y104232I197J0D01*
G01*
X203937Y170276D02*
G03*
X204331Y170276I197J0D01*
G01*
D02*
G03*
X203937Y170276I-197J0D01*
G01*
X117323D02*
G03*
X117717Y170276I197J0D01*
G01*
D02*
G03*
X117323Y170276I-197J0D01*
G01*
X165748Y137402D02*
G03*
X166142Y137402I197J0D01*
G01*
D02*
G03*
X165748Y137402I-197J0D01*
G01*
X63386Y169488D02*
G03*
X63386Y169488I-197J0D01*
G01*
X62992Y145866D02*
G03*
X62992Y145866I-197J0D01*
G01*
X82874Y69587D02*
X104528D01*
X170846Y112795D02*
Y130512D01*
X126004D02*
X170846D01*
X126004Y112795D02*
Y130512D01*
Y112795D02*
X170846D01*
D11*
X134646Y174016D02*
G03*
X134646Y174016I-1181J0D01*
G01*
D12*
X130709Y166043D02*
G03*
X130709Y166043I-492J0D01*
G01*
X67815Y186221D02*
G03*
X67815Y186221I-492J0D01*
G01*
D13*
X101575Y87008D02*
Y87795D01*
Y87008D01*
X160669Y158366D02*
G03*
X160669Y159153I0J394D01*
G01*
D02*
G03*
X160669Y158366I0J-394D01*
G01*
X167756Y156004D02*
G03*
X167756Y155217I0J-394D01*
G01*
D02*
G03*
X167756Y156004I0J394D01*
G01*
X153799Y158366D02*
G03*
X153799Y159153I0J394D01*
G01*
D02*
G03*
X153799Y158366I0J-394D01*
G01*
X160886Y156004D02*
G03*
X160886Y155217I0J-394D01*
G01*
D02*
G03*
X160886Y156004I0J394D01*
G01*
X72835Y205315D02*
X75197D01*
Y193898D02*
Y205315D01*
X72835Y193898D02*
X75197D01*
X72835D02*
Y205315D01*
X66732Y205512D02*
X71457D01*
X38386Y88681D02*
Y111909D01*
X68307D01*
Y88681D02*
Y111909D01*
X38386Y88681D02*
X68307D01*
X193366Y121063D02*
X194882D01*
X193366D02*
Y138779D01*
X194882D01*
X206693Y121063D02*
X208209D01*
Y138779D01*
X206693D02*
X208209D01*
X199016Y164173D02*
Y168504D01*
X182874Y164173D02*
X199016D01*
X182874D02*
Y168504D01*
Y209449D02*
Y213779D01*
X199016D01*
Y209449D02*
Y213779D01*
X165748Y170079D02*
Y206299D01*
X129528Y170079D02*
Y206299D01*
X165748D01*
X129528Y170079D02*
X165748D01*
X112402Y164173D02*
Y168504D01*
X96260Y164173D02*
X112402D01*
X96260D02*
Y168504D01*
Y209449D02*
Y213779D01*
X112402D01*
Y209449D02*
Y213779D01*
X106299Y109350D02*
Y113484D01*
X106496Y114862D02*
X117913D01*
Y116634D01*
X106496D02*
X117913D01*
X106496Y114862D02*
Y116634D01*
X106299Y126476D02*
Y130610D01*
X106496Y131988D02*
X117913D01*
Y133760D01*
X106496D02*
X117913D01*
X106496Y131988D02*
Y133760D01*
X64764Y168307D02*
Y169488D01*
Y153347D02*
Y154528D01*
X80905Y168307D02*
Y169488D01*
Y153347D02*
Y154528D01*
X64764Y169488D02*
X66142D01*
X79528D02*
X80905D01*
X64764Y153347D02*
X66142D01*
X79528D02*
X80905D01*
X64370Y144685D02*
Y145866D01*
Y129724D02*
Y130905D01*
X80512Y144685D02*
Y145866D01*
Y129724D02*
Y130905D01*
X64370Y145866D02*
X65748D01*
X79134D02*
X80512D01*
X64370Y129724D02*
X65748D01*
X79134D02*
X80512D01*
D14*
X200125Y103693D02*
Y109693D01*
X196725D02*
X200125D01*
X196725Y103693D02*
Y109693D01*
Y103693D02*
X200125D01*
X205637D02*
Y109693D01*
X202237D02*
X205637D01*
X202237Y103693D02*
Y109693D01*
Y103693D02*
X205637D01*
X176134Y106568D02*
Y109968D01*
X182134D01*
Y106568D02*
Y109968D01*
X176134Y106568D02*
X182134D01*
X185976D02*
Y109968D01*
X191976D01*
Y106568D02*
Y109968D01*
X185976Y106568D02*
X191976D01*
X185308Y119142D02*
X188708D01*
Y113142D02*
Y119142D01*
X185308Y113142D02*
X188708D01*
X185308D02*
Y119142D01*
X179402Y113142D02*
X182802D01*
X179402D02*
Y119142D01*
X182802D01*
Y113142D02*
Y119142D01*
X186071Y140032D02*
Y143432D01*
X180071Y140032D02*
X186071D01*
X180071D02*
Y143432D01*
X186071D01*
X180071Y134127D02*
Y137527D01*
X186071D01*
Y134127D02*
Y137527D01*
X180071Y134127D02*
X186071D01*
X97787Y150662D02*
X103787D01*
Y154062D01*
X97787D02*
X103787D01*
X97787Y150662D02*
Y154062D01*
X163905Y142276D02*
Y148276D01*
X160505D02*
X163905D01*
X160505Y142276D02*
Y148276D01*
Y142276D02*
X163905D01*
X103787Y145544D02*
Y148944D01*
X97787Y145544D02*
X103787D01*
X97787D02*
Y148944D01*
X103787D01*
X101306Y137945D02*
Y143945D01*
X97906D02*
X101306D01*
X97906Y137945D02*
Y143945D01*
Y137945D02*
X101306D01*
X132827Y149875D02*
X138827D01*
Y153275D01*
X132827D02*
X138827D01*
X132827Y149875D02*
Y153275D01*
X142276Y149875D02*
X148276D01*
Y153275D01*
X142276D02*
X148276D01*
X142276Y149875D02*
Y153275D01*
X161961Y149875D02*
X167961D01*
Y153275D01*
X161961D02*
X167961D01*
X161961Y149875D02*
Y153275D01*
X152118Y149875D02*
X158118D01*
Y153275D01*
X152118D02*
X158118D01*
X152118Y149875D02*
Y153275D01*
X135165Y142276D02*
Y148276D01*
X131765D02*
X135165D01*
X131765Y142276D02*
Y148276D01*
Y142276D02*
X135165D01*
X169023D02*
Y148276D01*
X165623D02*
X169023D01*
X165623Y142276D02*
Y148276D01*
Y142276D02*
X169023D01*
X149338D02*
Y148276D01*
X145938D02*
X149338D01*
X145938Y142276D02*
Y148276D01*
Y142276D02*
X149338D01*
X159180D02*
Y148276D01*
X155780D02*
X159180D01*
X155780Y142276D02*
Y148276D01*
Y142276D02*
X159180D01*
X154062D02*
Y148276D01*
X150662D02*
X154062D01*
X150662Y142276D02*
Y148276D01*
Y142276D02*
X154062D01*
X144613D02*
Y148276D01*
X141213D02*
X144613D01*
X141213Y142276D02*
Y148276D01*
Y142276D02*
X144613D01*
X139889D02*
Y148276D01*
X136489D02*
X139889D01*
X136489Y142276D02*
Y148276D01*
Y142276D02*
X139889D01*
D15*
X189232Y97907D02*
X194232D01*
X189232Y88707D02*
Y97907D01*
Y88707D02*
X194232D01*
Y97907D01*
X182539D02*
X187539D01*
X182539Y88707D02*
Y97907D01*
Y88707D02*
X187539D01*
Y97907D01*
X116925Y77598D02*
Y97598D01*
X179925D01*
Y77598D02*
Y97598D01*
X116925Y77598D02*
X179925D01*
X114826Y91497D02*
X112827D01*
X114826Y93497D01*
Y93996D01*
X114326Y94496D01*
X113326D01*
X112827Y93996D01*
X113327Y81497D02*
X114326D01*
X113826D01*
Y84496D01*
X113327Y83996D01*
D16*
X226378Y156496D02*
X228346Y152559D01*
X224410D02*
X226378Y156496D01*
X224410Y152559D02*
X228346D01*
X218307Y204724D02*
X230906D01*
X218307Y158465D02*
Y204724D01*
Y158465D02*
X230906D01*
Y204724D01*
X226378Y99409D02*
X228346Y95472D01*
X224410D02*
X226378Y99409D01*
X224410Y95472D02*
X228346D01*
X218307Y147638D02*
X230906D01*
X218307Y101378D02*
Y147638D01*
Y101378D02*
X230906D01*
Y147638D01*
D17*
X130512Y70472D02*
X131824D01*
X131168D01*
Y74408D01*
X130512Y73752D01*
X133792Y70472D02*
Y74408D01*
X135759D01*
X136415Y73752D01*
Y72440D01*
X135759Y71784D01*
X133792D01*
X142978Y70472D02*
X140354D01*
X142978Y73096D01*
Y73752D01*
X142322Y74408D01*
X141010D01*
X140354Y73752D01*
X144290Y70472D02*
Y74408D01*
X146258D01*
X146914Y73752D01*
Y72440D01*
X146258Y71784D01*
X144290D01*
X150197Y73752D02*
X150853Y74408D01*
X152165D01*
X152821Y73752D01*
Y73096D01*
X152165Y72440D01*
X151509D01*
X152165D01*
X152821Y71784D01*
Y71128D01*
X152165Y70472D01*
X150853D01*
X150197Y71128D01*
X154133Y70472D02*
Y74408D01*
X156100D01*
X156756Y73752D01*
Y72440D01*
X156100Y71784D01*
X154133D01*
X162007Y70472D02*
Y74408D01*
X160039Y72440D01*
X162663D01*
X163975Y70472D02*
Y74408D01*
X165943D01*
X166599Y73752D01*
Y72440D01*
X165943Y71784D01*
X163975D01*
X113779Y74408D02*
Y70472D01*
X115747D01*
X116403Y71128D01*
Y71784D01*
X115747Y72440D01*
X113779D01*
X115747D01*
X116403Y73096D01*
Y73752D01*
X115747Y74408D01*
X113779D01*
X117715D02*
X119027D01*
X118371D01*
Y70472D01*
X117715D01*
X119027D01*
X120995D02*
Y73096D01*
X122307Y74408D01*
X123619Y73096D01*
Y70472D01*
Y72440D01*
X120995D01*
X127555Y73752D02*
X126899Y74408D01*
X125587D01*
X124931Y73752D01*
Y73096D01*
X125587Y72440D01*
X126899D01*
X127555Y71784D01*
Y71128D01*
X126899Y70472D01*
X125587D01*
X124931Y71128D01*
X172506Y73752D02*
X171850Y74408D01*
X170538D01*
X169882Y73752D01*
Y71128D01*
X170538Y70472D01*
X171850D01*
X172506Y71128D01*
Y72440D01*
X171194D01*
X173818Y70472D02*
Y74408D01*
X176441Y70472D01*
Y74408D01*
X177753D02*
Y70472D01*
X179721D01*
X180377Y71128D01*
Y73752D01*
X179721Y74408D01*
X177753D01*
X205315Y75787D02*
Y79723D01*
X207283D01*
X207939Y79067D01*
Y77755D01*
X207283Y77099D01*
X205315D01*
X206627D02*
X207939Y75787D01*
X211219D02*
X209907D01*
X209251Y76443D01*
Y77755D01*
X209907Y78411D01*
X211219D01*
X211875Y77755D01*
Y77099D01*
X209251D01*
X213186Y78411D02*
X214498Y75787D01*
X215810Y78411D01*
X217122Y75787D02*
Y76443D01*
X217778D01*
Y75787D01*
X217122D01*
X220402D02*
X221714D01*
X221058D01*
Y79723D01*
X220402Y79067D01*
X186285Y72374D02*
X185629Y73030D01*
X184317D01*
X183661Y72374D01*
Y69750D01*
X184317Y69095D01*
X185629D01*
X186285Y69750D01*
X187597Y69095D02*
Y71718D01*
X188909Y73030D01*
X190221Y71718D01*
Y69095D01*
Y71062D01*
X187597D01*
X191533Y73030D02*
X194157D01*
X192845D01*
Y69095D01*
X197436Y73030D02*
X196125D01*
X195469Y72374D01*
Y69750D01*
X196125Y69095D01*
X197436D01*
X198092Y69750D01*
Y72374D01*
X197436Y73030D01*
X199404Y69095D02*
Y73030D01*
X202028Y69095D01*
Y73030D01*
X203340Y71062D02*
X205964D01*
X207276Y69095D02*
Y73030D01*
X208588Y71718D01*
X209900Y73030D01*
Y69095D01*
X211212Y71062D02*
X213835D01*
X215147Y73030D02*
X217771D01*
X216459D01*
Y69095D01*
X219083D02*
Y73030D01*
X221051D01*
X221707Y72374D01*
Y71062D01*
X221051Y70406D01*
X219083D01*
X220395D02*
X221707Y69095D01*
X223019D02*
Y71718D01*
X224331Y73030D01*
X225643Y71718D01*
Y69095D01*
Y71062D01*
X223019D01*
X226955Y73030D02*
Y69095D01*
X228922D01*
X229578Y69750D01*
Y72374D01*
X228922Y73030D01*
X226955D01*
X233663Y175787D02*
X237598D01*
Y177755D01*
X236943Y178411D01*
X236286D01*
X235631Y177755D01*
Y175787D01*
Y177755D01*
X234975Y178411D01*
X234319D01*
X233663Y177755D01*
Y175787D01*
Y181691D02*
Y180379D01*
X234319Y179723D01*
X236943D01*
X237598Y180379D01*
Y181691D01*
X236943Y182347D01*
X234319D01*
X233663Y181691D01*
Y185627D02*
Y184315D01*
X234319Y183659D01*
X236943D01*
X237598Y184315D01*
Y185627D01*
X236943Y186283D01*
X234319D01*
X233663Y185627D01*
Y187595D02*
Y190218D01*
Y188907D01*
X237598D01*
X233663Y114764D02*
X237598D01*
Y116732D01*
X236943Y117388D01*
X234319D01*
X233663Y116732D01*
Y114764D01*
Y121323D02*
Y118700D01*
X237598D01*
Y121323D01*
X235631Y118700D02*
Y120011D01*
X233663Y122635D02*
X237598D01*
Y124603D01*
X236943Y125259D01*
X236286D01*
X235631Y124603D01*
Y122635D01*
Y124603D01*
X234975Y125259D01*
X234319D01*
X233663Y124603D01*
Y122635D01*
Y126571D02*
X236943D01*
X237598Y127227D01*
Y128539D01*
X236943Y129195D01*
X233663D01*
X234319Y133131D02*
X233663Y132475D01*
Y131163D01*
X234319Y130507D01*
X236943D01*
X237598Y131163D01*
Y132475D01*
X236943Y133131D01*
X235631D01*
Y131819D01*
X84224Y218080D02*
X83568Y218736D01*
X82256D01*
X81600Y218080D01*
Y217424D01*
X82256Y216768D01*
X83568D01*
X84224Y216112D01*
Y215456D01*
X83568Y214800D01*
X82256D01*
X81600Y215456D01*
X85536Y218736D02*
Y214800D01*
X87504D01*
X88160Y215456D01*
Y216112D01*
X87504Y216768D01*
X85536D01*
X87504D01*
X88160Y217424D01*
Y218080D01*
X87504Y218736D01*
X85536D01*
X92095D02*
X89472D01*
Y216768D01*
X90783Y217424D01*
X91439D01*
X92095Y216768D01*
Y215456D01*
X91439Y214800D01*
X90127D01*
X89472Y215456D01*
X58138Y207873D02*
Y204594D01*
X58793Y203938D01*
X60105D01*
X60761Y204594D01*
Y207873D01*
X64697D02*
X62073D01*
Y205906D01*
X63385Y206561D01*
X64041D01*
X64697Y205906D01*
Y204594D01*
X64041Y203938D01*
X62729D01*
X62073Y204594D01*
X205905Y93440D02*
X201969D01*
Y95408D01*
X202625Y96064D01*
X203937D01*
X204593Y95408D01*
Y93440D01*
Y94752D02*
X205905Y96064D01*
X202625Y97376D02*
X201969Y98032D01*
Y99343D01*
X202625Y99999D01*
X203281D01*
X203937Y99343D01*
Y98687D01*
Y99343D01*
X204593Y99999D01*
X205249D01*
X205905Y99343D01*
Y98032D01*
X205249Y97376D01*
X205905Y101311D02*
Y102623D01*
Y101967D01*
X201969D01*
X202625Y101311D01*
X200393Y91997D02*
X196457D01*
Y93964D01*
X197113Y94620D01*
X198425D01*
X199081Y93964D01*
Y91997D01*
Y93308D02*
X200393Y94620D01*
X197113Y95932D02*
X196457Y96588D01*
Y97900D01*
X197113Y98556D01*
X197769D01*
X198425Y97900D01*
Y97244D01*
Y97900D01*
X199081Y98556D01*
X199737D01*
X200393Y97900D01*
Y96588D01*
X199737Y95932D01*
X197113Y99868D02*
X196457Y100524D01*
Y101836D01*
X197113Y102492D01*
X199737D01*
X200393Y101836D01*
Y100524D01*
X199737Y99868D01*
X197113D01*
X212598Y118635D02*
X211943Y119291D01*
X210631D01*
X209975Y118635D01*
Y117979D01*
X210631Y117323D01*
X211943D01*
X212598Y116667D01*
Y116011D01*
X211943Y115355D01*
X210631D01*
X209975Y116011D01*
X213910Y115355D02*
X215222D01*
X214566D01*
Y119291D01*
X213910Y118635D01*
X106037Y98818D02*
X104725D01*
X105381D01*
Y95539D01*
X104725Y94883D01*
X104069D01*
X103413Y95539D01*
X107349D02*
X108005Y94883D01*
X109317D01*
X109973Y95539D01*
Y98162D01*
X109317Y98818D01*
X108005D01*
X107349Y98162D01*
Y97506D01*
X108005Y96850D01*
X109973D01*
X145998Y103346D02*
X144686D01*
X145342D01*
Y100066D01*
X144686Y99410D01*
X144030D01*
X143374Y100066D01*
X149277Y99410D02*
Y103346D01*
X147310Y101378D01*
X149933D01*
X187007Y76970D02*
X183071D01*
Y78938D01*
X183727Y79594D01*
X185039D01*
X185695Y78938D01*
Y76970D01*
Y78282D02*
X187007Y79594D01*
Y80906D02*
Y82218D01*
Y81562D01*
X183071D01*
X183727Y80906D01*
X187007Y86154D02*
X183071D01*
X185039Y84186D01*
Y86809D01*
X172246Y100394D02*
Y104330D01*
X174214D01*
X174870Y103674D01*
Y102362D01*
X174214Y101706D01*
X172246D01*
X173558D02*
X174870Y100394D01*
X176181D02*
X177493D01*
X176837D01*
Y104330D01*
X176181Y103674D01*
X179461D02*
X180117Y104330D01*
X181429D01*
X182085Y103674D01*
Y103018D01*
X181429Y102362D01*
X180773D01*
X181429D01*
X182085Y101706D01*
Y101050D01*
X181429Y100394D01*
X180117D01*
X179461Y101050D01*
X188976Y120671D02*
X185040D01*
Y122639D01*
X185696Y123295D01*
X187008D01*
X187664Y122639D01*
Y120671D01*
Y121983D02*
X188976Y123295D01*
Y124607D02*
Y125918D01*
Y125263D01*
X185040D01*
X185696Y124607D01*
X188976Y130510D02*
Y127886D01*
X186352Y130510D01*
X185696D01*
X185040Y129854D01*
Y128542D01*
X185696Y127886D01*
X186681Y100394D02*
Y104330D01*
X188649D01*
X189305Y103674D01*
Y102362D01*
X188649Y101706D01*
X186681D01*
X187993D02*
X189305Y100394D01*
X190617D02*
X191929D01*
X191273D01*
Y104330D01*
X190617Y103674D01*
X193897Y100394D02*
X195209D01*
X194553D01*
Y104330D01*
X193897Y103674D01*
X177558Y113191D02*
X173623D01*
Y115158D01*
X174279Y115814D01*
X175591D01*
X176247Y115158D01*
Y113191D01*
Y114503D02*
X177558Y115814D01*
Y117126D02*
Y118438D01*
Y117782D01*
X173623D01*
X174279Y117126D01*
Y120406D02*
X173623Y121062D01*
Y122374D01*
X174279Y123030D01*
X176902D01*
X177558Y122374D01*
Y121062D01*
X176902Y120406D01*
X174279D01*
X193700Y80185D02*
X189764D01*
Y82153D01*
X190420Y82809D01*
X191732D01*
X192388Y82153D01*
Y80185D01*
Y81497D02*
X193700Y82809D01*
X190420Y84121D02*
X189764Y84777D01*
Y86088D01*
X190420Y86744D01*
X191076D01*
X191732Y86088D01*
X192388Y86744D01*
X193044D01*
X193700Y86088D01*
Y84777D01*
X193044Y84121D01*
X192388D01*
X191732Y84777D01*
X191076Y84121D01*
X190420D01*
X191732Y84777D02*
Y86088D01*
X180709Y147769D02*
X180053Y148425D01*
X178741D01*
X178085Y147769D01*
Y145145D01*
X178741Y144489D01*
X180053D01*
X180709Y145145D01*
X182021Y147769D02*
X182677Y148425D01*
X183989D01*
X184645Y147769D01*
Y147113D01*
X183989Y146457D01*
X183333D01*
X183989D01*
X184645Y145801D01*
Y145145D01*
X183989Y144489D01*
X182677D01*
X182021Y145145D01*
X185957Y144489D02*
X187269D01*
X186613D01*
Y148425D01*
X185957Y147769D01*
X170998Y137139D02*
X170342Y137795D01*
X169030D01*
X168374Y137139D01*
Y134515D01*
X169030Y133859D01*
X170342D01*
X170998Y134515D01*
X174934Y133859D02*
X172310D01*
X174934Y136483D01*
Y137139D01*
X174278Y137795D01*
X172966D01*
X172310Y137139D01*
X176246Y134515D02*
X176902Y133859D01*
X178214D01*
X178870Y134515D01*
Y137139D01*
X178214Y137795D01*
X176902D01*
X176246Y137139D01*
Y136483D01*
X176902Y135827D01*
X178870D01*
X215486Y156692D02*
X214174D01*
X214830D01*
Y153412D01*
X214174Y152757D01*
X213518D01*
X212862Y153412D01*
X216798Y156036D02*
X217454Y156692D01*
X218766D01*
X219422Y156036D01*
Y155380D01*
X218766Y154724D01*
X219422Y154069D01*
Y153412D01*
X218766Y152757D01*
X217454D01*
X216798Y153412D01*
Y154069D01*
X217454Y154724D01*
X216798Y155380D01*
Y156036D01*
X217454Y154724D02*
X218766D01*
X215880Y99212D02*
X214568D01*
X215224D01*
Y95932D01*
X214568Y95276D01*
X213912D01*
X213256Y95932D01*
X217191Y99212D02*
X219815D01*
Y98556D01*
X217191Y95932D01*
Y95276D01*
X75722Y115649D02*
X74410D01*
X75066D01*
Y112369D01*
X74410Y111713D01*
X73754D01*
X73098Y112369D01*
X77034Y114993D02*
X77690Y115649D01*
X79002D01*
X79658Y114993D01*
Y114337D01*
X79002Y113681D01*
X78346D01*
X79002D01*
X79658Y113025D01*
Y112369D01*
X79002Y111713D01*
X77690D01*
X77034Y112369D01*
X116273Y104462D02*
X115617Y105117D01*
X114305D01*
X113649Y104462D01*
Y103806D01*
X114305Y103150D01*
X115617D01*
X116273Y102494D01*
Y101838D01*
X115617Y101182D01*
X114305D01*
X113649Y101838D01*
X120209Y101182D02*
X117585D01*
X120209Y103806D01*
Y104462D01*
X119553Y105117D01*
X118241D01*
X117585Y104462D01*
X58531Y190944D02*
Y187664D01*
X59187Y187009D01*
X60499D01*
X61155Y187664D01*
Y190944D01*
X65091D02*
X63779Y190288D01*
X62467Y188976D01*
Y187664D01*
X63123Y187009D01*
X64435D01*
X65091Y187664D01*
Y188320D01*
X64435Y188976D01*
X62467D01*
X190289Y222440D02*
X188977D01*
X189633D01*
Y219161D01*
X188977Y218505D01*
X188321D01*
X187665Y219161D01*
X194225Y222440D02*
X192913Y221784D01*
X191601Y220472D01*
Y219161D01*
X192257Y218505D01*
X193569D01*
X194225Y219161D01*
Y219816D01*
X193569Y220472D01*
X191601D01*
X103675Y222440D02*
X102363D01*
X103019D01*
Y219161D01*
X102363Y218505D01*
X101707D01*
X101051Y219161D01*
X107610Y222440D02*
X104987D01*
Y220472D01*
X106299Y221128D01*
X106955D01*
X107610Y220472D01*
Y219161D01*
X106955Y218505D01*
X105643D01*
X104987Y219161D01*
X130447Y158398D02*
X129791Y159055D01*
X128479D01*
X127823Y158398D01*
Y155775D01*
X128479Y155119D01*
X129791D01*
X130447Y155775D01*
X131759Y158398D02*
X132415Y159055D01*
X133727D01*
X134383Y158398D01*
Y157743D01*
X133727Y157087D01*
X133071D01*
X133727D01*
X134383Y156431D01*
Y155775D01*
X133727Y155119D01*
X132415D01*
X131759Y155775D01*
X137663Y155119D02*
Y159055D01*
X135695Y157087D01*
X138319D01*
X172179Y152887D02*
X171523Y153543D01*
X170212D01*
X169555Y152887D01*
Y150263D01*
X170212Y149607D01*
X171523D01*
X172179Y150263D01*
X173491Y152887D02*
X174147Y153543D01*
X175459D01*
X176115Y152887D01*
Y152231D01*
X175459Y151575D01*
X174803D01*
X175459D01*
X176115Y150919D01*
Y150263D01*
X175459Y149607D01*
X174147D01*
X173491Y150263D01*
X177427Y152887D02*
X178083Y153543D01*
X179395D01*
X180051Y152887D01*
Y150263D01*
X179395Y149607D01*
X178083D01*
X177427Y150263D01*
Y152887D01*
X58138Y175196D02*
Y171916D01*
X58793Y171260D01*
X60105D01*
X60761Y171916D01*
Y175196D01*
X64697Y171260D02*
X62073D01*
X64697Y173884D01*
Y174540D01*
X64041Y175196D01*
X62729D01*
X62073Y174540D01*
X58138Y151574D02*
Y148294D01*
X58793Y147638D01*
X60105D01*
X60761Y148294D01*
Y151574D01*
X62073Y150918D02*
X62729Y151574D01*
X64041D01*
X64697Y150918D01*
Y150262D01*
X64041Y149606D01*
X63385D01*
X64041D01*
X64697Y148950D01*
Y148294D01*
X64041Y147638D01*
X62729D01*
X62073Y148294D01*
X107480Y132941D02*
X103544D01*
Y134909D01*
X104200Y135565D01*
X105512D01*
X106168Y134909D01*
Y132941D01*
Y134253D02*
X107480Y135565D01*
Y139501D02*
Y136877D01*
X104856Y139501D01*
X104200D01*
X103544Y138845D01*
Y137533D01*
X104200Y136877D01*
X106824Y140813D02*
X107480Y141469D01*
Y142781D01*
X106824Y143437D01*
X104200D01*
X103544Y142781D01*
Y141469D01*
X104200Y140813D01*
X104856D01*
X105512Y141469D01*
Y143437D01*
X97902Y155906D02*
Y159842D01*
X99870D01*
X100526Y159186D01*
Y157874D01*
X99870Y157218D01*
X97902D01*
X99214D02*
X100526Y155906D01*
X104462D02*
X101838D01*
X104462Y158530D01*
Y159186D01*
X103806Y159842D01*
X102494D01*
X101838Y159186D01*
X105773D02*
X106429Y159842D01*
X107741D01*
X108397Y159186D01*
Y158530D01*
X107741Y157874D01*
X108397Y157218D01*
Y156562D01*
X107741Y155906D01*
X106429D01*
X105773Y156562D01*
Y157218D01*
X106429Y157874D01*
X105773Y158530D01*
Y159186D01*
X106429Y157874D02*
X107741D01*
X129527Y140684D02*
X125591D01*
Y142652D01*
X126247Y143308D01*
X127559D01*
X128215Y142652D01*
Y140684D01*
Y141996D02*
X129527Y143308D01*
Y147243D02*
Y144620D01*
X126903Y147243D01*
X126247D01*
X125591Y146588D01*
Y145276D01*
X126247Y144620D01*
X129527Y148555D02*
Y149867D01*
Y149211D01*
X125591D01*
X126247Y148555D01*
X175196Y141996D02*
X171260D01*
Y143964D01*
X171916Y144620D01*
X173228D01*
X173884Y143964D01*
Y141996D01*
Y143308D02*
X175196Y144620D01*
X174540Y145931D02*
X175196Y146588D01*
Y147899D01*
X174540Y148555D01*
X171916D01*
X171260Y147899D01*
Y146588D01*
X171916Y145931D01*
X172572D01*
X173228Y146588D01*
Y148555D01*
X99738Y126641D02*
Y129265D01*
X99082Y129921D01*
X97770D01*
X97114Y129265D01*
Y126641D01*
X97770Y125985D01*
X99082D01*
X98426Y127297D02*
X99738Y125985D01*
X99082D02*
X99738Y126641D01*
X103674Y125985D02*
X101050D01*
X103674Y128609D01*
Y129265D01*
X103017Y129921D01*
X101706D01*
X101050Y129265D01*
X101378Y108531D02*
Y111154D01*
X100722Y111810D01*
X99410D01*
X98754Y111154D01*
Y108531D01*
X99410Y107875D01*
X100722D01*
X100066Y109187D02*
X101378Y107875D01*
X100722D02*
X101378Y108531D01*
X102690Y107875D02*
X104002D01*
X103346D01*
Y111810D01*
X102690Y111154D01*
X108006Y148556D02*
X107350Y149212D01*
X106038D01*
X105382Y148556D01*
Y145932D01*
X106038Y145276D01*
X107350D01*
X108006Y145932D01*
X111286Y145276D02*
Y149212D01*
X109318Y147244D01*
X111942D01*
X113254Y148556D02*
X113910Y149212D01*
X115222D01*
X115878Y148556D01*
Y147900D01*
X115222Y147244D01*
X115878Y146588D01*
Y145932D01*
X115222Y145276D01*
X113910D01*
X113254Y145932D01*
Y146588D01*
X113910Y147244D01*
X113254Y147900D01*
Y148556D01*
X113910Y147244D02*
X115222D01*
X122705Y218503D02*
Y215224D01*
X123360Y214568D01*
X124672D01*
X125328Y215224D01*
Y218503D01*
X128608Y214568D02*
Y218503D01*
X126640Y216535D01*
X129264D01*
M02*
