G04*
G04 #@! TF.GenerationSoftware,Altium Limited,Altium Designer,24.6.1 (21)*
G04*
G04 Layer_Color=65535*
%FSLAX25Y25*%
%MOIN*%
G70*
G04*
G04 #@! TF.SameCoordinates,31F84527-45D4-4773-AF7A-2B1276F50D28*
G04*
G04*
G04 #@! TF.FilePolarity,Positive*
G04*
G01*
G75*
%ADD10C,0.00394*%
%ADD11C,0.00984*%
%ADD12C,0.02362*%
%ADD13C,0.00500*%
%ADD14C,0.00787*%
%ADD15C,0.00300*%
%ADD16C,0.00400*%
%ADD17C,0.00591*%
D10*
X70473Y104232D02*
G03*
X70866Y104232I197J0D01*
G01*
D02*
G03*
X70473Y104232I-197J0D01*
G01*
X62992Y145866D02*
G03*
X62992Y145866I-197J0D01*
G01*
X63386Y169488D02*
G03*
X63386Y169488I-197J0D01*
G01*
X177953Y170276D02*
G03*
X177559Y170276I-197J0D01*
G01*
D02*
G03*
X177953Y170276I197J0D01*
G01*
X117323Y207677D02*
G03*
X117717Y207677I197J0D01*
G01*
D02*
G03*
X117323Y207677I-197J0D01*
G01*
X165748Y137402D02*
G03*
X166142Y137402I197J0D01*
G01*
D02*
G03*
X165748Y137402I-197J0D01*
G01*
X82874Y69587D02*
X104528D01*
X170846Y112795D02*
Y130512D01*
X126004D02*
X170846D01*
X126004Y112795D02*
Y130512D01*
Y112795D02*
X170846D01*
D11*
X67815Y186221D02*
G03*
X67815Y186221I-492J0D01*
G01*
X130709Y166043D02*
G03*
X130709Y166043I-492J0D01*
G01*
D12*
X134646Y174016D02*
G03*
X134646Y174016I-1181J0D01*
G01*
D13*
X224410Y152559D02*
X226378Y156496D01*
X228346Y152559D01*
X218307Y204724D02*
X230906D01*
X224410Y152559D02*
X228346D01*
X218307Y158465D02*
Y204724D01*
X230906Y158465D02*
Y204724D01*
X218307Y158465D02*
X230906D01*
X218307Y147638D02*
X230906D01*
X224410Y95472D02*
X228346D01*
X218307Y101378D02*
X230906D01*
X218307D02*
Y147638D01*
X224410Y95472D02*
X226378Y99409D01*
X228346Y95472D01*
X230906Y101378D02*
Y147638D01*
D14*
X79528Y169488D02*
X80905D01*
X64764D02*
X66142D01*
X79528Y153347D02*
X80905D01*
X64764D02*
X66142D01*
X80905D02*
Y154528D01*
X106496Y131988D02*
Y133760D01*
X117913D01*
X64764Y168307D02*
Y169488D01*
X80905Y168307D02*
Y169488D01*
X64764Y153347D02*
Y154528D01*
X117913Y131988D02*
Y133760D01*
X68307Y88681D02*
Y111909D01*
X54725D02*
X68307D01*
X54725Y88681D02*
X68307D01*
X72835Y193898D02*
Y205315D01*
Y193898D02*
X75197D01*
X66732Y205512D02*
X71457D01*
X193366Y121063D02*
Y138779D01*
Y121063D02*
X194882D01*
X75197Y193898D02*
Y205315D01*
X72835D02*
X75197D01*
X193366Y138779D02*
X194882D01*
X106496Y114862D02*
Y116634D01*
X117913D01*
X106496Y131988D02*
X117913D01*
X106299Y126476D02*
Y130610D01*
Y109350D02*
Y113484D01*
X117913Y114862D02*
Y116634D01*
X106496Y114862D02*
X117913D01*
X208209Y121063D02*
Y138779D01*
X206693Y121063D02*
X208209D01*
X206693Y138779D02*
X208209D01*
X79134Y145866D02*
X80512D01*
X64370D02*
X65748D01*
X79134Y129724D02*
X80512D01*
X64370D02*
X65748D01*
X64370D02*
Y130905D01*
Y144685D02*
Y145866D01*
X80512Y129724D02*
Y130905D01*
Y144685D02*
Y145866D01*
X182874Y209449D02*
Y213779D01*
X199016D01*
Y209449D02*
Y213779D01*
Y164173D02*
Y168504D01*
X182874Y164173D02*
X199016D01*
X182874D02*
Y168504D01*
X112402Y164173D02*
Y168504D01*
X96260Y164173D02*
X112402D01*
X96260D02*
Y168504D01*
Y209449D02*
Y213779D01*
X112402D01*
Y209449D02*
Y213779D01*
X165748Y170079D02*
Y206299D01*
X129528Y170079D02*
Y206299D01*
X165748D01*
X129528Y170079D02*
X165748D01*
X87008Y85827D02*
Y90550D01*
X89369D01*
X90157Y89763D01*
Y88188D01*
X89369Y87401D01*
X87008D01*
X91731Y90550D02*
Y85827D01*
X93305Y87401D01*
X94879Y85827D01*
Y90550D01*
X96454Y85827D02*
Y90550D01*
X98815D01*
X99602Y89763D01*
Y88188D01*
X98815Y87401D01*
X96454D01*
X98028D02*
X99602Y85827D01*
D15*
X160505Y142276D02*
X163905D01*
X160505D02*
Y148276D01*
X163905D01*
Y142276D02*
Y148276D01*
X165623Y142276D02*
X169023D01*
X165623D02*
Y148276D01*
X145938D02*
X149338D01*
Y142276D02*
Y148276D01*
X131765Y142276D02*
X135165D01*
X131765D02*
Y148276D01*
X165623D02*
X169023D01*
Y142276D02*
Y148276D01*
X145938Y142276D02*
Y148276D01*
X154062Y142276D02*
Y148276D01*
X155780Y142276D02*
X159180D01*
X150662D02*
Y148276D01*
X154062D01*
X159180Y142276D02*
Y148276D01*
X145938Y142276D02*
X149338D01*
X155780D02*
Y148276D01*
X159180D01*
X131765D02*
X135165D01*
X148276Y149875D02*
Y153275D01*
X142276Y149875D02*
X148276D01*
X142276D02*
Y153275D01*
X148276D01*
X138827Y149875D02*
Y153275D01*
X132827Y149875D02*
X138827D01*
X132827D02*
Y153275D01*
X138827D01*
X152118Y149875D02*
X158118D01*
X135165Y142276D02*
Y148276D01*
X152118Y153275D02*
X158118D01*
Y149875D02*
Y153275D01*
X152118Y149875D02*
Y153275D01*
X200125Y103693D02*
Y109693D01*
X196725D02*
X200125D01*
X202237Y103693D02*
X205637D01*
X202237D02*
Y109693D01*
X196725Y103693D02*
X200125D01*
X196725D02*
Y109693D01*
X202237D02*
X205637D01*
Y103693D02*
Y109693D01*
X97787Y145544D02*
X103787D01*
Y148944D01*
X97787D02*
X103787D01*
X97787Y145544D02*
Y148944D01*
X161961Y153275D02*
X167961D01*
X161961Y149875D02*
Y153275D01*
Y149875D02*
X167961D01*
Y153275D01*
X97787Y150662D02*
X103787D01*
X97906Y137945D02*
Y143945D01*
X101306D01*
X97906Y137945D02*
X101306D01*
X97787Y154062D02*
X103787D01*
Y150662D02*
Y154062D01*
X101306Y137945D02*
Y143945D01*
X97787Y150662D02*
Y154062D01*
X180071Y143432D02*
X186071D01*
X180071Y140032D02*
Y143432D01*
Y137527D02*
X186071D01*
X180071Y134127D02*
Y137527D01*
X182802Y113142D02*
Y119142D01*
X179402D02*
X182802D01*
X180071Y140032D02*
X186071D01*
Y143432D01*
Y134127D02*
Y137527D01*
X180071Y134127D02*
X186071D01*
X179402Y113142D02*
Y119142D01*
X176134Y109968D02*
X182134D01*
X176134Y106568D02*
Y109968D01*
Y106568D02*
X182134D01*
Y109968D01*
X185976Y106568D02*
Y109968D01*
X185308Y113142D02*
X188708D01*
Y119142D01*
X179402Y113142D02*
X182802D01*
X185308D02*
Y119142D01*
X191976Y106568D02*
Y109968D01*
X185976D02*
X191976D01*
X185308Y119142D02*
X188708D01*
X185976Y106568D02*
X191976D01*
X139889Y142276D02*
Y148276D01*
X141213Y142276D02*
X144613D01*
X136489D02*
Y148276D01*
X139889D01*
X144613Y142276D02*
Y148276D01*
X150662Y142276D02*
X154062D01*
X141213D02*
Y148276D01*
X144613D01*
X136489Y142276D02*
X139889D01*
D16*
X189232Y88707D02*
Y97907D01*
X194232D01*
X189232Y88707D02*
X194232D01*
X187539D02*
Y97907D01*
X182539D02*
X187539D01*
X194232Y88707D02*
Y97907D01*
X182539Y88707D02*
X187539D01*
X182539D02*
Y97907D01*
X179925Y77598D02*
Y97598D01*
X116925D02*
X179925D01*
X116925Y77598D02*
X179925D01*
X116925D02*
Y97598D01*
X113327Y81497D02*
X114326D01*
X113826D01*
Y84496D01*
X113327Y83996D01*
D17*
X120143Y139697D02*
X119488Y140353D01*
X118176D01*
X117520Y139697D01*
Y139041D01*
X118176Y138385D01*
X119488D01*
X120143Y137729D01*
Y137073D01*
X119488Y136417D01*
X118176D01*
X117520Y137073D01*
X124079Y139697D02*
X123423Y140353D01*
X122111D01*
X121455Y139697D01*
Y137073D01*
X122111Y136417D01*
X123423D01*
X124079Y137073D01*
X125391Y140353D02*
Y136417D01*
Y137729D01*
X128015Y140353D01*
X126047Y138385D01*
X128015Y136417D01*
X120933Y111482D02*
X120277Y110826D01*
Y109514D01*
X120933Y108858D01*
X123557D01*
X124213Y109514D01*
Y110826D01*
X123557Y111482D01*
X122245D01*
Y110170D01*
X124213Y112794D02*
X120277D01*
Y114762D01*
X120933Y115418D01*
X122245D01*
X122901Y114762D01*
Y112794D01*
X120277Y116730D02*
Y118042D01*
Y117386D01*
X124213D01*
Y116730D01*
Y118042D01*
X120277Y121977D02*
Y120666D01*
X120933Y120010D01*
X123557D01*
X124213Y120666D01*
Y121977D01*
X123557Y122633D01*
X120933D01*
X120277Y121977D01*
X120933Y130505D02*
X120277Y129849D01*
Y128537D01*
X120933Y127881D01*
X121589D01*
X122245Y128537D01*
Y129849D01*
X122901Y130505D01*
X123557D01*
X124213Y129849D01*
Y128537D01*
X123557Y127881D01*
X120277Y131817D02*
X124213D01*
X122901Y133129D01*
X124213Y134441D01*
X120277D01*
X154527Y105051D02*
X155183Y105707D01*
X156495D01*
X157151Y105051D01*
Y104395D01*
X156495Y103740D01*
X155840D01*
X156495D01*
X157151Y103084D01*
Y102428D01*
X156495Y101772D01*
X155183D01*
X154527Y102428D01*
X165157Y101772D02*
X166469D01*
X165813D01*
Y105707D01*
X165157Y105051D01*
X143504Y101772D02*
X144816D01*
X144160D01*
Y105707D01*
X143504Y105051D01*
X146784Y101772D02*
X148096D01*
X147440D01*
Y105707D01*
X146784Y105051D01*
X126575Y101772D02*
X127887D01*
X127231D01*
Y105707D01*
X126575Y105051D01*
X131822Y101772D02*
Y105707D01*
X129855Y103740D01*
X132478D01*
X191142Y120669D02*
X187206D01*
Y122637D01*
X187862Y123293D01*
X189174D01*
X189830Y122637D01*
Y120669D01*
X187206Y124605D02*
X191142D01*
X189830Y125917D01*
X191142Y127229D01*
X187206D01*
Y128541D02*
X191142D01*
Y130509D01*
X190486Y131165D01*
X187862D01*
X187206Y130509D01*
Y128541D01*
X191142Y132476D02*
X187206D01*
X191142Y135100D01*
X187206D01*
Y136412D02*
X191142D01*
Y138380D01*
X190486Y139036D01*
X189830D01*
X189174Y138380D01*
Y136412D01*
Y138380D01*
X188518Y139036D01*
X187862D01*
X187206Y138380D01*
Y136412D01*
X213976Y121850D02*
X210041D01*
Y123818D01*
X210697Y124474D01*
X212009D01*
X212665Y123818D01*
Y121850D01*
Y123162D02*
X213976Y124474D01*
X210697Y128410D02*
X210041Y127754D01*
Y126442D01*
X210697Y125786D01*
X211353D01*
X212009Y126442D01*
Y127754D01*
X212665Y128410D01*
X213320D01*
X213976Y127754D01*
Y126442D01*
X213320Y125786D01*
X210041Y129722D02*
Y132346D01*
Y131034D01*
X213976D01*
X210041Y133658D02*
X213976D01*
Y135626D01*
X213320Y136281D01*
X212665D01*
X212009Y135626D01*
Y133658D01*
Y135626D01*
X211353Y136281D01*
X210697D01*
X210041Y135626D01*
Y133658D01*
X71457Y208071D02*
X72769D01*
X72113D01*
Y212007D01*
X71457Y211351D01*
X74736Y212007D02*
Y209383D01*
X76048Y208071D01*
X77360Y209383D01*
Y212007D01*
X78672Y208071D02*
X79984D01*
X79328D01*
Y212007D01*
X78672Y211351D01*
X72899Y221390D02*
X72243Y222046D01*
X70932D01*
X70276Y221390D01*
Y218766D01*
X70932Y218110D01*
X72243D01*
X72899Y218766D01*
Y220078D01*
X71588D01*
X74211Y218110D02*
Y222046D01*
X76835Y218110D01*
Y222046D01*
X78147D02*
Y218110D01*
X80115D01*
X80771Y218766D01*
Y221390D01*
X80115Y222046D01*
X78147D01*
X215419Y220799D02*
X214763Y221455D01*
X213451D01*
X212795Y220799D01*
Y218176D01*
X213451Y217520D01*
X214763D01*
X215419Y218176D01*
Y219488D01*
X214107D01*
X216731Y217520D02*
Y221455D01*
X219355Y217520D01*
Y221455D01*
X220667D02*
Y217520D01*
X222635D01*
X223291Y218176D01*
Y220799D01*
X222635Y221455D01*
X220667D01*
X233728Y85891D02*
X233072Y85236D01*
Y83924D01*
X233728Y83268D01*
X236352D01*
X237008Y83924D01*
Y85236D01*
X236352Y85891D01*
X235040D01*
Y84580D01*
X237008Y87204D02*
X233072D01*
X237008Y89827D01*
X233072D01*
Y91139D02*
X237008D01*
Y93107D01*
X236352Y93763D01*
X233728D01*
X233072Y93107D01*
Y91139D01*
X72311Y77230D02*
X71655Y76574D01*
Y75262D01*
X72311Y74606D01*
X74935D01*
X75590Y75262D01*
Y76574D01*
X74935Y77230D01*
X73623D01*
Y75918D01*
X75590Y78542D02*
X71655D01*
X75590Y81166D01*
X71655D01*
Y82478D02*
X75590D01*
Y84446D01*
X74935Y85102D01*
X72311D01*
X71655Y84446D01*
Y82478D01*
X73425Y96260D02*
X76049D01*
X73425Y105446D02*
X76049D01*
X74737Y106758D02*
Y104134D01*
X235630Y164107D02*
X238254D01*
X236942Y165419D02*
Y162795D01*
X235630Y199016D02*
X238254D01*
X198096Y149933D02*
X197440Y150589D01*
X196128D01*
X195472Y149933D01*
Y147310D01*
X196128Y146653D01*
X197440D01*
X198096Y147310D01*
Y148621D01*
X196784D01*
X199408Y146653D02*
Y150589D01*
X202032Y146653D01*
Y150589D01*
X203344D02*
Y146653D01*
X205312D01*
X205968Y147310D01*
Y149933D01*
X205312Y150589D01*
X203344D01*
X189041Y72374D02*
X188385Y73030D01*
X187073D01*
X186417Y72374D01*
Y69750D01*
X187073Y69095D01*
X188385D01*
X189041Y69750D01*
X190353Y69095D02*
Y71718D01*
X191665Y73030D01*
X192977Y71718D01*
Y69095D01*
Y71062D01*
X190353D01*
X194289Y73030D02*
X196913D01*
X195601D01*
Y69095D01*
X200192Y73030D02*
X198881D01*
X198224Y72374D01*
Y69750D01*
X198881Y69095D01*
X200192D01*
X200848Y69750D01*
Y72374D01*
X200192Y73030D01*
X202160Y69095D02*
Y73030D01*
X204784Y69095D01*
Y73030D01*
X206096Y71062D02*
X208720D01*
X210032Y69095D02*
Y73030D01*
X211344Y71718D01*
X212656Y73030D01*
Y69095D01*
X213967Y71062D02*
X216591D01*
X217903Y73030D02*
X220527D01*
X219215D01*
Y69095D01*
X221839D02*
Y73030D01*
X223807D01*
X224463Y72374D01*
Y71062D01*
X223807Y70406D01*
X221839D01*
X223151D02*
X224463Y69095D01*
X225775D02*
Y71718D01*
X227087Y73030D01*
X228398Y71718D01*
Y69095D01*
Y71062D01*
X225775D01*
X229710Y73030D02*
Y69095D01*
X231678D01*
X232334Y69750D01*
Y72374D01*
X231678Y73030D01*
X229710D01*
X130512Y70472D02*
X131824D01*
X131168D01*
Y74408D01*
X130512Y73752D01*
X133792Y70472D02*
Y74408D01*
X135759D01*
X136415Y73752D01*
Y72440D01*
X135759Y71784D01*
X133792D01*
X142978Y70472D02*
X140354D01*
X142978Y73096D01*
Y73752D01*
X142322Y74408D01*
X141010D01*
X140354Y73752D01*
X144290Y70472D02*
Y74408D01*
X146258D01*
X146914Y73752D01*
Y72440D01*
X146258Y71784D01*
X144290D01*
X150197Y73752D02*
X150853Y74408D01*
X152165D01*
X152821Y73752D01*
Y73096D01*
X152165Y72440D01*
X151509D01*
X152165D01*
X152821Y71784D01*
Y71128D01*
X152165Y70472D01*
X150853D01*
X150197Y71128D01*
X154133Y70472D02*
Y74408D01*
X156100D01*
X156756Y73752D01*
Y72440D01*
X156100Y71784D01*
X154133D01*
X162007Y70472D02*
Y74408D01*
X160039Y72440D01*
X162663D01*
X163975Y70472D02*
Y74408D01*
X165943D01*
X166599Y73752D01*
Y72440D01*
X165943Y71784D01*
X163975D01*
X113779Y74408D02*
Y70472D01*
X115747D01*
X116403Y71128D01*
Y71784D01*
X115747Y72440D01*
X113779D01*
X115747D01*
X116403Y73096D01*
Y73752D01*
X115747Y74408D01*
X113779D01*
X117715D02*
X119027D01*
X118371D01*
Y70472D01*
X117715D01*
X119027D01*
X120995D02*
Y73096D01*
X122307Y74408D01*
X123619Y73096D01*
Y70472D01*
Y72440D01*
X120995D01*
X127555Y73752D02*
X126899Y74408D01*
X125587D01*
X124931Y73752D01*
Y73096D01*
X125587Y72440D01*
X126899D01*
X127555Y71784D01*
Y71128D01*
X126899Y70472D01*
X125587D01*
X124931Y71128D01*
X172506Y73752D02*
X171850Y74408D01*
X170538D01*
X169882Y73752D01*
Y71128D01*
X170538Y70472D01*
X171850D01*
X172506Y71128D01*
Y72440D01*
X171194D01*
X173818Y70472D02*
Y74408D01*
X176441Y70472D01*
Y74408D01*
X177753D02*
Y70472D01*
X179721D01*
X180377Y71128D01*
Y73752D01*
X179721Y74408D01*
X177753D01*
X201378Y75787D02*
Y79723D01*
X203346D01*
X204002Y79067D01*
Y77755D01*
X203346Y77099D01*
X201378D01*
X202690D02*
X204002Y75787D01*
X207282D02*
X205970D01*
X205314Y76443D01*
Y77755D01*
X205970Y78411D01*
X207282D01*
X207938Y77755D01*
Y77099D01*
X205314D01*
X209249Y78411D02*
X210561Y75787D01*
X211873Y78411D01*
X213185Y75787D02*
Y76443D01*
X213841D01*
Y75787D01*
X213185D01*
X216465D02*
X217777D01*
X217121D01*
Y79723D01*
X216465Y79067D01*
X233663Y175787D02*
X237598D01*
Y177755D01*
X236943Y178411D01*
X236286D01*
X235631Y177755D01*
Y175787D01*
Y177755D01*
X234975Y178411D01*
X234319D01*
X233663Y177755D01*
Y175787D01*
Y181691D02*
Y180379D01*
X234319Y179723D01*
X236943D01*
X237598Y180379D01*
Y181691D01*
X236943Y182347D01*
X234319D01*
X233663Y181691D01*
Y185627D02*
Y184315D01*
X234319Y183659D01*
X236943D01*
X237598Y184315D01*
Y185627D01*
X236943Y186283D01*
X234319D01*
X233663Y185627D01*
Y187595D02*
Y190218D01*
Y188907D01*
X237598D01*
X233663Y114764D02*
X237598D01*
Y116732D01*
X236943Y117388D01*
X234319D01*
X233663Y116732D01*
Y114764D01*
Y121323D02*
Y118700D01*
X237598D01*
Y121323D01*
X235631Y118700D02*
Y120011D01*
X233663Y122635D02*
X237598D01*
Y124603D01*
X236943Y125259D01*
X236286D01*
X235631Y124603D01*
Y122635D01*
Y124603D01*
X234975Y125259D01*
X234319D01*
X233663Y124603D01*
Y122635D01*
Y126571D02*
X236943D01*
X237598Y127227D01*
Y128539D01*
X236943Y129195D01*
X233663D01*
X234319Y133131D02*
X233663Y132475D01*
Y131163D01*
X234319Y130507D01*
X236943D01*
X237598Y131163D01*
Y132475D01*
X236943Y133131D01*
X235631D01*
Y131819D01*
X109974Y148556D02*
X109318Y149212D01*
X108006D01*
X107350Y148556D01*
Y145932D01*
X108006Y145276D01*
X109318D01*
X109974Y145932D01*
X113910Y149212D02*
X111286D01*
Y147244D01*
X112598Y147900D01*
X113254D01*
X113910Y147244D01*
Y145932D01*
X113254Y145276D01*
X111942D01*
X111286Y145932D01*
X100526Y155906D02*
Y159842D01*
X102494D01*
X103150Y159186D01*
Y157874D01*
X102494Y157218D01*
X100526D01*
X101838D02*
X103150Y155906D01*
X104462D02*
X105773D01*
X105117D01*
Y159842D01*
X104462Y159186D01*
X96456Y133958D02*
X92520D01*
Y135926D01*
X93176Y136582D01*
X94488D01*
X95144Y135926D01*
Y133958D01*
Y135270D02*
X96456Y136582D01*
Y137894D02*
Y139206D01*
Y138550D01*
X92520D01*
X93176Y137894D01*
Y141174D02*
X92520Y141830D01*
Y143142D01*
X93176Y143798D01*
X95800D01*
X96456Y143142D01*
Y141830D01*
X95800Y141174D01*
X93176D01*
X124016Y158400D02*
X127296D01*
X127952Y159056D01*
Y160368D01*
X127296Y161024D01*
X124016D01*
X127952Y162336D02*
Y163647D01*
Y162991D01*
X124016D01*
X124672Y162336D01*
X86976Y212796D02*
X86320Y212140D01*
Y210828D01*
X86976Y210172D01*
X87631D01*
X88287Y210828D01*
Y212140D01*
X88943Y212796D01*
X89599D01*
X90255Y212140D01*
Y210828D01*
X89599Y210172D01*
X86320Y214108D02*
X90255D01*
Y216076D01*
X89599Y216732D01*
X88943D01*
X88287Y216076D01*
Y214108D01*
Y216076D01*
X87631Y216732D01*
X86976D01*
X86320Y216076D01*
Y214108D01*
X90255Y218044D02*
Y219356D01*
Y218700D01*
X86320D01*
X86976Y218044D01*
X58138Y207873D02*
Y204594D01*
X58793Y203938D01*
X60105D01*
X60761Y204594D01*
Y207873D01*
X64697Y203938D02*
X62073D01*
X64697Y206561D01*
Y207217D01*
X64041Y207873D01*
X62729D01*
X62073Y207217D01*
X205905Y92324D02*
X201969D01*
Y94292D01*
X202625Y94948D01*
X203937D01*
X204593Y94292D01*
Y92324D01*
Y93636D02*
X205905Y94948D01*
Y96260D02*
Y97572D01*
Y96916D01*
X201969D01*
X202625Y96260D01*
X201969Y102164D02*
X202625Y100852D01*
X203937Y99540D01*
X205249D01*
X205905Y100196D01*
Y101508D01*
X205249Y102164D01*
X204593D01*
X203937Y101508D01*
Y99540D01*
X200393Y92324D02*
X196457D01*
Y94292D01*
X197113Y94948D01*
X198425D01*
X199081Y94292D01*
Y92324D01*
Y93636D02*
X200393Y94948D01*
Y96260D02*
Y97572D01*
Y96916D01*
X196457D01*
X197113Y96260D01*
X196457Y102164D02*
Y99540D01*
X198425D01*
X197769Y100852D01*
Y101508D01*
X198425Y102164D01*
X199737D01*
X200393Y101508D01*
Y100196D01*
X199737Y99540D01*
X207874Y116272D02*
X207218Y116929D01*
X205906D01*
X205250Y116272D01*
Y115617D01*
X205906Y114961D01*
X207218D01*
X207874Y114305D01*
Y113649D01*
X207218Y112993D01*
X205906D01*
X205250Y113649D01*
X209186Y112993D02*
X210498D01*
X209842D01*
Y116929D01*
X209186Y116272D01*
X68635Y72834D02*
X67323D01*
X67979D01*
Y69554D01*
X67323Y68898D01*
X66667D01*
X66012Y69554D01*
X69947Y72834D02*
X72571D01*
Y72178D01*
X69947Y69554D01*
Y68898D01*
X111549Y94881D02*
X110237D01*
X110893D01*
Y91602D01*
X110237Y90946D01*
X109581D01*
X108925Y91602D01*
X115484Y94881D02*
X114173Y94225D01*
X112861Y92913D01*
Y91602D01*
X113517Y90946D01*
X114829D01*
X115484Y91602D01*
Y92257D01*
X114829Y92913D01*
X112861D01*
X187007Y76970D02*
X183071D01*
Y78938D01*
X183727Y79594D01*
X185039D01*
X185695Y78938D01*
Y76970D01*
Y78282D02*
X187007Y79594D01*
Y80906D02*
Y82218D01*
Y81562D01*
X183071D01*
X183727Y80906D01*
X183071Y84186D02*
Y86809D01*
X183727D01*
X186351Y84186D01*
X187007D01*
X171852Y101575D02*
Y105511D01*
X173820D01*
X174476Y104855D01*
Y103543D01*
X173820Y102887D01*
X171852D01*
X173164D02*
X174476Y101575D01*
X175788D02*
X177100D01*
X176444D01*
Y105511D01*
X175788Y104855D01*
X179068D02*
X179724Y105511D01*
X181035D01*
X181691Y104855D01*
Y104199D01*
X181035Y103543D01*
X180379D01*
X181035D01*
X181691Y102887D01*
Y102231D01*
X181035Y101575D01*
X179724D01*
X179068Y102231D01*
X186025Y101575D02*
Y105511D01*
X187993D01*
X188649Y104855D01*
Y103543D01*
X187993Y102887D01*
X186025D01*
X187337D02*
X188649Y101575D01*
X189961D02*
X191273D01*
X190617D01*
Y105511D01*
X189961Y104855D01*
X195209Y101575D02*
Y105511D01*
X193241Y103543D01*
X195865D01*
X177558Y113847D02*
X173623D01*
Y115814D01*
X174279Y116470D01*
X175591D01*
X176247Y115814D01*
Y113847D01*
Y115158D02*
X177558Y116470D01*
Y117782D02*
Y119094D01*
Y118438D01*
X173623D01*
X174279Y117782D01*
X177558Y121062D02*
Y122374D01*
Y121718D01*
X173623D01*
X174279Y121062D01*
X193700Y76970D02*
X189764D01*
Y78938D01*
X190420Y79594D01*
X191732D01*
X192388Y78938D01*
Y76970D01*
Y78282D02*
X193700Y79594D01*
Y80906D02*
Y82218D01*
Y81562D01*
X189764D01*
X190420Y80906D01*
Y84186D02*
X189764Y84842D01*
Y86154D01*
X190420Y86809D01*
X191076D01*
X191732Y86154D01*
X192388Y86809D01*
X193044D01*
X193700Y86154D01*
Y84842D01*
X193044Y84186D01*
X192388D01*
X191732Y84842D01*
X191076Y84186D01*
X190420D01*
X191732Y84842D02*
Y86154D01*
X182021Y147769D02*
X181365Y148425D01*
X180053D01*
X179397Y147769D01*
Y145145D01*
X180053Y144489D01*
X181365D01*
X182021Y145145D01*
X185957Y148425D02*
X184645Y147769D01*
X183333Y146457D01*
Y145145D01*
X183989Y144489D01*
X185301D01*
X185957Y145145D01*
Y145801D01*
X185301Y146457D01*
X183333D01*
X182021Y132414D02*
X181365Y133070D01*
X180053D01*
X179397Y132414D01*
Y129790D01*
X180053Y129135D01*
X181365D01*
X182021Y129790D01*
X183333Y133070D02*
X185957D01*
Y132414D01*
X183333Y129790D01*
Y129135D01*
X215486Y156692D02*
X214174D01*
X214830D01*
Y153412D01*
X214174Y152757D01*
X213518D01*
X212862Y153412D01*
X216798Y156036D02*
X217454Y156692D01*
X218766D01*
X219422Y156036D01*
Y155380D01*
X218766Y154724D01*
X218110D01*
X218766D01*
X219422Y154069D01*
Y153412D01*
X218766Y152757D01*
X217454D01*
X216798Y153412D01*
X215880Y99212D02*
X214568D01*
X215224D01*
Y95932D01*
X214568Y95276D01*
X213912D01*
X213256Y95932D01*
X219159Y95276D02*
Y99212D01*
X217191Y97244D01*
X219815D01*
X75722Y115649D02*
X74410D01*
X75066D01*
Y112369D01*
X74410Y111713D01*
X73754D01*
X73098Y112369D01*
X79658Y115649D02*
X77034D01*
Y113681D01*
X78346Y114337D01*
X79002D01*
X79658Y113681D01*
Y112369D01*
X79002Y111713D01*
X77690D01*
X77034Y112369D01*
X116667Y104855D02*
X116011Y105511D01*
X114699D01*
X114043Y104855D01*
Y104199D01*
X114699Y103543D01*
X116011D01*
X116667Y102887D01*
Y102231D01*
X116011Y101575D01*
X114699D01*
X114043Y102231D01*
X120603Y101575D02*
X117979D01*
X120603Y104199D01*
Y104855D01*
X119947Y105511D01*
X118635D01*
X117979Y104855D01*
X58531Y190944D02*
Y187664D01*
X59187Y187009D01*
X60499D01*
X61155Y187664D01*
Y190944D01*
X62467Y190288D02*
X63123Y190944D01*
X64435D01*
X65091Y190288D01*
Y189632D01*
X64435Y188976D01*
X63779D01*
X64435D01*
X65091Y188320D01*
Y187664D01*
X64435Y187009D01*
X63123D01*
X62467Y187664D01*
X189895Y220078D02*
X188583D01*
X189239D01*
Y216798D01*
X188583Y216142D01*
X187927D01*
X187271Y216798D01*
X193831Y216142D02*
X191207D01*
X193831Y218766D01*
Y219422D01*
X193175Y220078D01*
X191863D01*
X191207Y219422D01*
X104528Y220078D02*
X103216D01*
X103872D01*
Y216798D01*
X103216Y216142D01*
X102560D01*
X101904Y216798D01*
X105840Y216142D02*
X107151D01*
X106495D01*
Y220078D01*
X105840Y219422D01*
X135827Y158398D02*
X135171Y159055D01*
X133859D01*
X133203Y158398D01*
Y155775D01*
X133859Y155119D01*
X135171D01*
X135827Y155775D01*
X137139Y155119D02*
X138451D01*
X137795D01*
Y159055D01*
X137139Y158398D01*
X144226D02*
X143570Y159055D01*
X142258D01*
X141602Y158398D01*
Y155775D01*
X142258Y155119D01*
X143570D01*
X144226Y155775D01*
X148162Y155119D02*
X145538D01*
X148162Y157743D01*
Y158398D01*
X147506Y159055D01*
X146194D01*
X145538Y158398D01*
X154462D02*
X153806Y159055D01*
X152494D01*
X151838Y158398D01*
Y155775D01*
X152494Y155119D01*
X153806D01*
X154462Y155775D01*
X155774Y158398D02*
X156430Y159055D01*
X157742D01*
X158398Y158398D01*
Y157743D01*
X157742Y157087D01*
X157086D01*
X157742D01*
X158398Y156431D01*
Y155775D01*
X157742Y155119D01*
X156430D01*
X155774Y155775D01*
X164305Y158398D02*
X163649Y159055D01*
X162337D01*
X161681Y158398D01*
Y155775D01*
X162337Y155119D01*
X163649D01*
X164305Y155775D01*
X167585Y155119D02*
Y159055D01*
X165617Y157087D01*
X168240D01*
X58138Y175196D02*
Y171916D01*
X58793Y171260D01*
X60105D01*
X60761Y171916D01*
Y175196D01*
X64041Y171260D02*
Y175196D01*
X62073Y173228D01*
X64697D01*
X58138Y151574D02*
Y148294D01*
X58793Y147638D01*
X60105D01*
X60761Y148294D01*
Y151574D01*
X64697D02*
X62073D01*
Y149606D01*
X63385Y150262D01*
X64041D01*
X64697Y149606D01*
Y148294D01*
X64041Y147638D01*
X62729D01*
X62073Y148294D01*
X129527Y141996D02*
X125591D01*
Y143964D01*
X126247Y144620D01*
X127559D01*
X128215Y143964D01*
Y141996D01*
Y143308D02*
X129527Y144620D01*
Y148555D02*
Y145931D01*
X126903Y148555D01*
X126247D01*
X125591Y147899D01*
Y146588D01*
X126247Y145931D01*
X175196Y141996D02*
X171260D01*
Y143964D01*
X171916Y144620D01*
X173228D01*
X173884Y143964D01*
Y141996D01*
Y143308D02*
X175196Y144620D01*
X174540Y145931D02*
X175196Y146588D01*
Y147899D01*
X174540Y148555D01*
X171916D01*
X171260Y147899D01*
Y146588D01*
X171916Y145931D01*
X172572D01*
X173228Y146588D01*
Y148555D01*
X100394Y126641D02*
Y129265D01*
X99738Y129921D01*
X98426D01*
X97770Y129265D01*
Y126641D01*
X98426Y125985D01*
X99738D01*
X99082Y127297D02*
X100394Y125985D01*
X99738D02*
X100394Y126641D01*
X101706Y125985D02*
X103017D01*
X102362D01*
Y129921D01*
X101706Y129265D01*
X100722Y108531D02*
Y111154D01*
X100066Y111810D01*
X98754D01*
X98098Y111154D01*
Y108531D01*
X98754Y107875D01*
X100066D01*
X99410Y109187D02*
X100722Y107875D01*
X100066D02*
X100722Y108531D01*
X104658Y107875D02*
X102034D01*
X104658Y110498D01*
Y111154D01*
X104002Y111810D01*
X102690D01*
X102034Y111154D01*
M02*
