G04*
G04 #@! TF.GenerationSoftware,Altium Limited,Altium Designer,24.6.1 (21)*
G04*
G04 Layer_Physical_Order=1*
G04 Layer_Color=255*
%FSLAX25Y25*%
%MOIN*%
G70*
G04*
G04 #@! TF.SameCoordinates,71A63A80-48C0-4A26-A8B6-F104E5BC9168*
G04*
G04*
G04 #@! TF.FilePolarity,Positive*
G04*
G01*
G75*
%ADD19R,0.04724X0.02362*%
%ADD20R,0.02165X0.01378*%
%ADD21R,0.02992X0.04921*%
%ADD22R,0.04724X0.01181*%
G04:AMPARAMS|DCode=23|XSize=11.81mil|YSize=49.21mil|CornerRadius=1.95mil|HoleSize=0mil|Usage=FLASHONLY|Rotation=90.000|XOffset=0mil|YOffset=0mil|HoleType=Round|Shape=RoundedRectangle|*
%AMROUNDEDRECTD23*
21,1,0.01181,0.04532,0,0,90.0*
21,1,0.00791,0.04921,0,0,90.0*
1,1,0.00390,0.02266,0.00396*
1,1,0.00390,0.02266,-0.00396*
1,1,0.00390,-0.02266,-0.00396*
1,1,0.00390,-0.02266,0.00396*
%
%ADD23ROUNDEDRECTD23*%
G04:AMPARAMS|DCode=24|XSize=11.81mil|YSize=49.21mil|CornerRadius=1.95mil|HoleSize=0mil|Usage=FLASHONLY|Rotation=180.000|XOffset=0mil|YOffset=0mil|HoleType=Round|Shape=RoundedRectangle|*
%AMROUNDEDRECTD24*
21,1,0.01181,0.04532,0,0,180.0*
21,1,0.00791,0.04921,0,0,180.0*
1,1,0.00390,-0.00396,0.02266*
1,1,0.00390,0.00396,0.02266*
1,1,0.00390,0.00396,-0.02266*
1,1,0.00390,-0.00396,-0.02266*
%
%ADD24ROUNDEDRECTD24*%
%ADD25R,0.03543X0.04724*%
%ADD26R,0.03150X0.03543*%
%ADD27R,0.01378X0.02165*%
%ADD28R,0.02362X0.04134*%
%ADD29R,0.03937X0.06693*%
%ADD30R,0.02756X0.01181*%
%ADD31R,0.03543X0.02165*%
G04:AMPARAMS|DCode=32|XSize=11.81mil|YSize=23.62mil|CornerRadius=1.95mil|HoleSize=0mil|Usage=FLASHONLY|Rotation=90.000|XOffset=0mil|YOffset=0mil|HoleType=Round|Shape=RoundedRectangle|*
%AMROUNDEDRECTD32*
21,1,0.01181,0.01972,0,0,90.0*
21,1,0.00791,0.02362,0,0,90.0*
1,1,0.00390,0.00986,0.00396*
1,1,0.00390,0.00986,-0.00396*
1,1,0.00390,-0.00986,-0.00396*
1,1,0.00390,-0.00986,0.00396*
%
%ADD32ROUNDEDRECTD32*%
%ADD33R,0.00906X0.01181*%
%ADD55R,0.06500X0.06500*%
%ADD56C,0.06500*%
%ADD58C,0.00600*%
%ADD59C,0.00787*%
G04:AMPARAMS|DCode=60|XSize=118.11mil|YSize=102.36mil|CornerRadius=2.05mil|HoleSize=0mil|Usage=FLASHONLY|Rotation=90.000|XOffset=0mil|YOffset=0mil|HoleType=Round|Shape=RoundedRectangle|*
%AMROUNDEDRECTD60*
21,1,0.11811,0.09827,0,0,90.0*
21,1,0.11402,0.10236,0,0,90.0*
1,1,0.00409,0.04913,0.05701*
1,1,0.00409,0.04913,-0.05701*
1,1,0.00409,-0.04913,-0.05701*
1,1,0.00409,-0.04913,0.05701*
%
%ADD60ROUNDEDRECTD60*%
%ADD61C,0.01000*%
%ADD62C,0.01500*%
%ADD63C,0.00750*%
%ADD64C,0.02000*%
%ADD65C,0.00800*%
%ADD66C,0.09449*%
%ADD67R,0.04724X0.04724*%
%ADD68C,0.04724*%
%ADD69C,0.01772*%
%ADD70C,0.03347*%
%ADD71R,0.03347X0.03347*%
%ADD72C,0.01968*%
G36*
X84969Y209392D02*
X85258Y209095D01*
X85106Y208629D01*
X84938Y208375D01*
X84648Y208085D01*
X84418Y207875D01*
X84028Y207645D01*
X83658Y207535D01*
X82788Y207555D01*
X82508Y207655D01*
X81968Y207985D01*
X81648Y208315D01*
X81421Y208676D01*
X81298Y209075D01*
X81368Y209275D01*
X81575Y209392D01*
X84969Y209392D01*
D02*
G37*
G36*
X81567Y210197D02*
X81278Y210495D01*
X81429Y210961D01*
X81598Y211215D01*
X81888Y211505D01*
X82118Y211715D01*
X82508Y211945D01*
X82878Y212055D01*
X83748Y212035D01*
X84028Y211935D01*
X84568Y211605D01*
X84888Y211275D01*
X85114Y210913D01*
X85238Y210515D01*
X85168Y210315D01*
X84961Y210197D01*
X81567Y210197D01*
D02*
G37*
D19*
X69095Y203346D02*
D03*
Y199606D02*
D03*
Y195866D02*
D03*
X78937D02*
D03*
Y203346D02*
D03*
D20*
X198425Y105000D02*
D03*
Y108386D02*
D03*
X203937Y105000D02*
D03*
Y108386D02*
D03*
X187008Y114449D02*
D03*
Y117835D02*
D03*
X181102D02*
D03*
Y114449D02*
D03*
X162205Y143583D02*
D03*
Y146968D02*
D03*
X99606Y139252D02*
D03*
Y142638D02*
D03*
X133465Y143583D02*
D03*
Y146968D02*
D03*
X167323Y143583D02*
D03*
Y146968D02*
D03*
X147638Y143583D02*
D03*
Y146968D02*
D03*
X157480Y143583D02*
D03*
Y146968D02*
D03*
X152362Y143583D02*
D03*
Y146968D02*
D03*
X142913Y143583D02*
D03*
Y146968D02*
D03*
X138189Y143583D02*
D03*
Y146968D02*
D03*
D21*
X198287Y117815D02*
D03*
X203287D02*
D03*
X198287Y142028D02*
D03*
X203287D02*
D03*
X130925Y109547D02*
D03*
Y133760D02*
D03*
X135925Y109547D02*
D03*
Y133760D02*
D03*
X140925Y109547D02*
D03*
Y133760D02*
D03*
X145925Y109547D02*
D03*
Y133760D02*
D03*
X150925Y109547D02*
D03*
Y133760D02*
D03*
X155925Y109547D02*
D03*
Y133760D02*
D03*
X160925Y109547D02*
D03*
Y133760D02*
D03*
X165925Y109547D02*
D03*
Y133760D02*
D03*
D22*
X181890Y207677D02*
D03*
X200000D02*
D03*
X181890Y205709D02*
D03*
X200000D02*
D03*
X181890Y203740D02*
D03*
X200000D02*
D03*
X181890Y201772D02*
D03*
X200000D02*
D03*
X181890Y199803D02*
D03*
X200000D02*
D03*
X181890Y197835D02*
D03*
X200000D02*
D03*
X181890Y195866D02*
D03*
X200000D02*
D03*
X181890Y193898D02*
D03*
X200000D02*
D03*
X181890Y191929D02*
D03*
X200000D02*
D03*
X181890Y189961D02*
D03*
X200000D02*
D03*
X181890Y187992D02*
D03*
X200000D02*
D03*
X181890Y186024D02*
D03*
X200000D02*
D03*
X181890Y184055D02*
D03*
X200000D02*
D03*
X181890Y182087D02*
D03*
X200000D02*
D03*
X181890Y180118D02*
D03*
X200000D02*
D03*
X181890Y178150D02*
D03*
X200000D02*
D03*
X181890Y176181D02*
D03*
X200000D02*
D03*
X181890Y174213D02*
D03*
X200000D02*
D03*
X181890Y172244D02*
D03*
X200000D02*
D03*
X181890Y170276D02*
D03*
X200000D02*
D03*
X95276Y207677D02*
D03*
X113386D02*
D03*
X95276Y205709D02*
D03*
X113386D02*
D03*
X95276Y203740D02*
D03*
X113386D02*
D03*
X95276Y201772D02*
D03*
X113386D02*
D03*
X95276Y199803D02*
D03*
X113386D02*
D03*
X95276Y197835D02*
D03*
X113386D02*
D03*
X95276Y195866D02*
D03*
X113386D02*
D03*
X95276Y193898D02*
D03*
X113386D02*
D03*
X95276Y191929D02*
D03*
X113386D02*
D03*
X95276Y189961D02*
D03*
X113386D02*
D03*
X95276Y187992D02*
D03*
X113386D02*
D03*
X95276Y186024D02*
D03*
X113386D02*
D03*
X95276Y184055D02*
D03*
X113386D02*
D03*
X95276Y182087D02*
D03*
X113386D02*
D03*
X95276Y180118D02*
D03*
X113386D02*
D03*
X95276Y178150D02*
D03*
X113386D02*
D03*
X95276Y176181D02*
D03*
X113386D02*
D03*
X95276Y174213D02*
D03*
X113386D02*
D03*
X95276Y172244D02*
D03*
X113386D02*
D03*
X95276Y170276D02*
D03*
X113386D02*
D03*
D23*
X125492Y173425D02*
D03*
Y175394D02*
D03*
Y177362D02*
D03*
Y179331D02*
D03*
Y181299D02*
D03*
Y183268D02*
D03*
Y185236D02*
D03*
Y187205D02*
D03*
Y189173D02*
D03*
Y191142D02*
D03*
Y193110D02*
D03*
Y195079D02*
D03*
Y197047D02*
D03*
Y199016D02*
D03*
Y200984D02*
D03*
Y202953D02*
D03*
X169783D02*
D03*
Y200984D02*
D03*
Y199016D02*
D03*
Y197047D02*
D03*
Y195079D02*
D03*
Y193110D02*
D03*
Y191142D02*
D03*
Y189173D02*
D03*
Y187205D02*
D03*
Y185236D02*
D03*
Y183268D02*
D03*
Y181299D02*
D03*
Y179331D02*
D03*
Y177362D02*
D03*
Y175394D02*
D03*
Y173425D02*
D03*
D24*
X132874Y210335D02*
D03*
X134843D02*
D03*
X136811D02*
D03*
X138779D02*
D03*
X140748D02*
D03*
X142717D02*
D03*
X144685D02*
D03*
X146653D02*
D03*
X148622D02*
D03*
X150591D02*
D03*
X152559D02*
D03*
X154528D02*
D03*
X156496D02*
D03*
X158465D02*
D03*
X160433D02*
D03*
X162402D02*
D03*
Y166043D02*
D03*
X160433D02*
D03*
X158465D02*
D03*
X156496D02*
D03*
X154528D02*
D03*
X152559D02*
D03*
X150591D02*
D03*
X148622D02*
D03*
X146653D02*
D03*
X144685D02*
D03*
X142717D02*
D03*
X140748D02*
D03*
X138779D02*
D03*
X136811D02*
D03*
X134843D02*
D03*
X132874D02*
D03*
D25*
X96653Y82087D02*
D03*
X84842D02*
D03*
X102559D02*
D03*
D26*
X78740Y69291D02*
D03*
X108661D02*
D03*
Y77953D02*
D03*
X78740D02*
D03*
D27*
X180827Y108268D02*
D03*
X177441D02*
D03*
X190669D02*
D03*
X187284D02*
D03*
X181378Y141732D02*
D03*
X184764D02*
D03*
Y135827D02*
D03*
X181378D02*
D03*
X99094Y152362D02*
D03*
X102480D02*
D03*
X99094Y147244D02*
D03*
X102480D02*
D03*
X134134Y151575D02*
D03*
X137520D02*
D03*
X143583D02*
D03*
X146968D02*
D03*
X163268D02*
D03*
X166654D02*
D03*
X153425D02*
D03*
X156811D02*
D03*
D28*
X112205Y120079D02*
D03*
X115945Y111417D02*
D03*
X108465D02*
D03*
X112205Y137205D02*
D03*
X115945Y128543D02*
D03*
X108465D02*
D03*
D29*
X72835Y180709D02*
D03*
D30*
X76968Y183661D02*
D03*
Y181693D02*
D03*
Y179724D02*
D03*
Y177756D02*
D03*
X68701D02*
D03*
Y179724D02*
D03*
Y181693D02*
D03*
Y183661D02*
D03*
D31*
X191732Y96181D02*
D03*
Y90433D02*
D03*
X185039Y96181D02*
D03*
Y90433D02*
D03*
D32*
X65354Y166142D02*
D03*
Y162992D02*
D03*
Y159843D02*
D03*
Y156693D02*
D03*
X80315Y166142D02*
D03*
Y162992D02*
D03*
Y159843D02*
D03*
Y156693D02*
D03*
X64961Y142520D02*
D03*
Y139370D02*
D03*
Y136221D02*
D03*
Y133071D02*
D03*
X79921Y142520D02*
D03*
Y139370D02*
D03*
Y136221D02*
D03*
Y133071D02*
D03*
D33*
X163465Y158760D02*
D03*
X164961D02*
D03*
Y155610D02*
D03*
X163465D02*
D03*
X156595Y158760D02*
D03*
X158091D02*
D03*
Y155610D02*
D03*
X156595D02*
D03*
D55*
X123425Y82598D02*
D03*
D56*
X133425D02*
D03*
X143425D02*
D03*
X153426D02*
D03*
X163426D02*
D03*
X173426D02*
D03*
X123425Y92599D02*
D03*
X133425D02*
D03*
X143425D02*
D03*
X153426D02*
D03*
X163426D02*
D03*
X173426D02*
D03*
D58*
X84963Y210497D02*
G03*
X81573Y210497I-1695J-435D01*
G01*
Y209092D02*
G03*
X84963Y209092I1695J435D01*
G01*
D59*
X83268Y208465D02*
D03*
Y211125D02*
D03*
D60*
X72835Y161417D02*
D03*
X72441Y137795D02*
D03*
D61*
X95276Y207677D02*
X95366Y207768D01*
X99213D01*
X95276Y205709D02*
X99213D01*
X113386Y184055D02*
X113476Y184146D01*
X116461D01*
X109055Y179134D02*
X109949Y180028D01*
X113295D01*
X113386Y180118D01*
Y178150D02*
X113476Y178240D01*
X116823D02*
X118898Y176165D01*
X113476Y178240D02*
X116823D01*
X118898Y174409D02*
Y176165D01*
X89961Y195866D02*
X95276D01*
X89961Y199803D02*
X95276D01*
X91024Y175359D02*
X92170Y174213D01*
X90146Y176318D02*
Y176580D01*
Y176318D02*
X91024Y175440D01*
Y175359D02*
Y175440D01*
X93504Y176181D02*
X95276D01*
X93375Y176310D02*
X93504Y176181D01*
X90330Y176310D02*
X93375D01*
X85773Y179713D02*
X86012D01*
X85761Y179724D02*
X85773Y179713D01*
X77059Y181783D02*
X80627D01*
X86012Y179713D02*
X86024Y179724D01*
X80627Y181783D02*
X81052Y182209D01*
X76968Y179724D02*
X85761D01*
X81052Y182209D02*
X81314D01*
X92170Y174213D02*
X95276D01*
X116142Y128347D02*
X120472D01*
X115945Y128543D02*
X116142Y128347D01*
X157602Y123622D02*
X160936Y126956D01*
X109843Y123622D02*
X157602D01*
X108585Y124880D02*
X109843Y123622D01*
X108465Y128543D02*
X108585Y128423D01*
Y124880D02*
Y128423D01*
X105997Y133071D02*
X114961D01*
X105118Y125219D02*
X109402Y120935D01*
X105118Y132192D02*
X105997Y133071D01*
X105118Y125219D02*
Y132192D01*
X187008Y117835D02*
Y126772D01*
X108880Y108049D02*
X111933Y104996D01*
X119563D01*
X116043Y107579D02*
Y111319D01*
X119563Y104996D02*
X132677Y118110D01*
X115945Y111417D02*
X116043Y111319D01*
Y107579D02*
X116142Y107480D01*
X161024Y202756D02*
X164764Y199016D01*
X169783D01*
X135343Y137311D02*
X138189Y140157D01*
X132873Y137311D02*
X135343D01*
X112205Y137205D02*
X112886Y137886D01*
Y139490D02*
X113765Y140369D01*
X133310D01*
X112886Y137886D02*
Y139490D01*
X158268Y118110D02*
X167323Y127165D01*
X132677Y118110D02*
X158268D01*
X205045Y174089D02*
X205442Y173692D01*
X200000Y174213D02*
X200091Y174122D01*
X201862D02*
X201895Y174089D01*
X200091Y174122D02*
X201862D01*
X201895Y174089D02*
X205045D01*
X205442Y173622D02*
Y173692D01*
X203043Y176091D02*
X205045Y174089D01*
X83784Y138377D02*
X84047D01*
X79947Y139345D02*
X82817D01*
X83784Y138377D01*
X79921Y139370D02*
X79947Y139345D01*
X198425Y105000D02*
X203937D01*
X125541Y191191D02*
X137648D01*
X137697Y191240D01*
X125492Y191142D02*
X125541Y191191D01*
X163977Y137311D02*
X169506D01*
X163087Y136886D02*
X163552D01*
X163977Y137311D01*
X160925Y134724D02*
X163087Y136886D01*
X160925Y133760D02*
Y134724D01*
X181189Y135244D02*
X181378Y135433D01*
Y135827D01*
X178945Y135244D02*
X181189D01*
X177953Y134252D02*
X178945Y135244D01*
X177953Y130315D02*
Y134252D01*
X175469Y135429D02*
X181378Y141339D01*
X175469Y121083D02*
Y135429D01*
Y121083D02*
X177441Y119111D01*
Y103091D02*
Y108268D01*
Y119111D01*
X164492Y195079D02*
X169783D01*
X164492Y187205D02*
X169783D01*
X160693Y196271D02*
X163300D01*
X163764Y186476D02*
X164492Y187205D01*
X160693Y186476D02*
X163764D01*
X160508Y186291D02*
X160693Y186476D01*
X160770Y179134D02*
X162542Y177362D01*
X160508Y179134D02*
X160770D01*
X160508Y196457D02*
X160693Y196271D01*
X160936Y126956D02*
Y127165D01*
X160508Y182087D02*
X163648D01*
X163300Y196271D02*
X164492Y195079D01*
X162542Y177362D02*
X169783D01*
X163648Y182087D02*
X164435Y181299D01*
X165121Y183262D02*
X169777D01*
X163648Y182087D02*
X163833Y182272D01*
X164132D01*
X165121Y183262D01*
X177471Y145276D02*
X183465D01*
X169506Y137311D02*
X177471Y145276D01*
X165008Y158760D02*
Y160189D01*
X181378Y141339D02*
Y141732D01*
X181102Y117835D02*
Y123228D01*
X184575Y141921D02*
Y144165D01*
Y141921D02*
X184764Y141732D01*
X183465Y145276D02*
X184575Y144165D01*
X200091Y176091D02*
X203043D01*
X200000Y176181D02*
X200091Y176091D01*
X200000Y178150D02*
X206943D01*
X207664Y178871D01*
X207926D01*
X200000Y182087D02*
X205915D01*
X206431Y181571D01*
X206693D01*
X177427Y175197D02*
X178321Y176091D01*
X181799D02*
X181890Y176181D01*
X178321Y176091D02*
X181799D01*
X177165Y175197D02*
X177427D01*
X178321Y174303D01*
X181799D02*
X181890Y174213D01*
X178321Y174303D02*
X181799D01*
X80405Y162902D02*
X87909D01*
X88004Y162807D01*
X80315Y162992D02*
X80405Y162902D01*
X95276Y197835D02*
X95366Y197925D01*
X100287D02*
X100394Y198031D01*
X95366Y197925D02*
X100287D01*
X119980Y189075D02*
X120029Y189124D01*
X125443D01*
X102480Y152362D02*
X102480Y152362D01*
X108268D01*
X108465Y111417D02*
X108880Y111002D01*
Y108049D02*
Y111002D01*
X114961Y133071D02*
X119201Y137311D01*
X132873D01*
X132873Y137311D01*
X111524Y120935D02*
X112205Y120254D01*
Y120079D02*
Y120254D01*
X109402Y120935D02*
X111524D01*
X180827Y108268D02*
X187284D01*
X184764Y135433D02*
X190669Y129528D01*
Y108268D02*
Y129528D01*
X184764Y135433D02*
Y135827D01*
X188870Y185933D02*
X188976Y185827D01*
X181980Y185933D02*
X188870D01*
X181890Y189961D02*
X186516D01*
X142913Y146968D02*
Y149213D01*
X143394Y149693D01*
Y151386D02*
X143583Y151575D01*
X143394Y149693D02*
Y151386D01*
X147638Y146968D02*
Y148819D01*
X147158Y149299D02*
X147638Y148819D01*
X147158Y149299D02*
Y151386D01*
X146968Y151575D02*
X147158Y151386D01*
X157480Y146968D02*
Y149213D01*
X157000Y149693D02*
X157480Y149213D01*
X156811Y151575D02*
X157000Y151386D01*
Y149693D02*
Y151386D01*
X152362Y146968D02*
Y148425D01*
X152362Y146968D02*
X152362Y146968D01*
Y148425D02*
X153236Y149299D01*
Y151386D01*
X153425Y151575D01*
X137520D02*
X137709Y151764D01*
Y153527D01*
X138890Y154709D01*
X142223D01*
X154528Y161614D02*
Y166043D01*
X147158Y154244D02*
X154528Y161614D01*
X146968Y151575D02*
X147158Y151764D01*
Y154244D01*
X148531Y163267D02*
Y165953D01*
X152469D02*
X152559Y166043D01*
X152469Y162705D02*
Y165953D01*
X141564Y156299D02*
X148531Y163267D01*
X150500Y162986D02*
Y165953D01*
X143701Y153937D02*
X152469Y162705D01*
X142223Y154709D02*
X150500Y162986D01*
X143701Y151693D02*
Y153937D01*
X136221Y156299D02*
X141564D01*
X143583Y151575D02*
X143701Y151693D01*
X134323Y154402D02*
X136221Y156299D01*
X137520Y151181D02*
Y151711D01*
X148531Y165953D02*
X148622Y166043D01*
X134323Y151764D02*
Y154402D01*
X134134Y151575D02*
X134323Y151764D01*
X150500Y165953D02*
X150591Y166043D01*
X138189Y146968D02*
Y150512D01*
X137520Y151181D02*
X138189Y150512D01*
X133465Y146968D02*
Y150512D01*
X134134Y151181D01*
Y151575D01*
X102480Y147244D02*
X107389D01*
X108268Y148123D02*
Y152362D01*
X107389Y147244D02*
X108268Y148123D01*
X120142Y179464D02*
X120276Y179331D01*
X80315Y166142D02*
X80376Y166203D01*
X83403D02*
X83465Y166264D01*
X80376Y166203D02*
X83403D01*
X60222Y159828D02*
X60236Y159843D01*
X65354D01*
X154724Y218636D02*
Y223622D01*
X154823Y223721D01*
X154724Y218636D02*
X156496Y216864D01*
Y210335D02*
Y216864D01*
X177165Y201575D02*
X177272Y201681D01*
X181799D01*
X160433Y214914D02*
X161614Y216095D01*
X160433Y210335D02*
Y214914D01*
X161614Y216095D02*
Y216240D01*
X203287Y123740D02*
X203346Y123799D01*
X203287Y117815D02*
Y123740D01*
X198287Y117815D02*
Y123779D01*
X158465Y210335D02*
Y220866D01*
X131037Y200984D02*
X132612Y202559D01*
X125492Y200984D02*
X131037D01*
X132612Y202559D02*
X132874D01*
X134843Y215158D02*
X136221Y216535D01*
X64829Y179724D02*
X68701D01*
X63681Y178839D02*
X63943D01*
X64829Y179724D01*
X61417Y136221D02*
X64961D01*
X61417Y136221D02*
X61417Y136221D01*
X64562Y196068D02*
X64764Y195866D01*
X69095D01*
X64961Y203150D02*
X68898D01*
X69095Y203346D01*
X64595Y175886D02*
Y176012D01*
X66248Y177665D01*
X68610D01*
X68701Y177756D01*
X64567Y185493D02*
X64603Y185529D01*
X64567Y185403D02*
Y185493D01*
Y185403D02*
X66218Y183752D01*
X68610D01*
X68701Y183661D01*
X65026Y181693D02*
X68701D01*
X64042Y182677D02*
X65026Y181693D01*
X63779Y182677D02*
X64042D01*
X60630Y164567D02*
X62205Y166142D01*
X65354D01*
X60236Y141339D02*
X61417Y142520D01*
X64961D01*
X129421Y175303D02*
X131890Y172835D01*
X125583Y175303D02*
X129421D01*
X125492Y175394D02*
X125583Y175303D01*
X113295Y182177D02*
X113386Y182087D01*
X107980Y182177D02*
X113295D01*
X107874Y182283D02*
X107980Y182177D01*
X104331Y189764D02*
X104528Y189961D01*
X113386D01*
X108071Y176181D02*
X113386D01*
X108071D02*
X109949Y174303D01*
X107874Y176378D02*
X108071Y176181D01*
X203287Y111673D02*
X203937Y111024D01*
Y108386D02*
Y111024D01*
X203287Y111673D02*
Y117815D01*
X198287D02*
X198356Y117746D01*
Y108455D02*
Y117746D01*
Y108455D02*
X198425Y108386D01*
X181102Y114449D02*
X187008D01*
X180827Y114260D02*
X181016Y114449D01*
X181102D01*
X180827Y108268D02*
Y114260D01*
X190858Y107685D02*
X190944D01*
X190669Y107874D02*
Y108268D01*
X190944Y107685D02*
X192134Y106495D01*
Y96583D02*
Y106495D01*
X190669Y107874D02*
X190858Y107685D01*
X191732Y96181D02*
X192134Y96583D01*
X184350Y96181D02*
X185039D01*
X177441Y103091D02*
X184350Y96181D01*
X89961Y203740D02*
Y210236D01*
X86111Y214086D02*
X89961Y210236D01*
X83453Y214086D02*
X86111D01*
X83268Y214272D02*
X83453Y214086D01*
X83268Y211125D02*
Y214272D01*
Y203346D02*
Y208465D01*
Y203346D02*
X83268Y203346D01*
X78937D02*
X83268D01*
X95276Y201772D02*
X113386D01*
X91929D02*
X95276D01*
X204734Y186024D02*
X205250Y186539D01*
X205512D01*
X200000Y186024D02*
X204734D01*
X193988Y178059D02*
X194095Y177953D01*
X181890Y178150D02*
X181980Y178059D01*
X193988D01*
X181980Y181996D02*
X191232D01*
X191339Y181890D01*
X181890Y182087D02*
X181980Y181996D01*
X181890Y186024D02*
X181980Y185933D01*
X158268Y191142D02*
X169783D01*
X169783Y191142D01*
X125443Y189124D02*
X125492Y189173D01*
X120079Y183268D02*
X125492D01*
X120079Y193110D02*
X125492D01*
X113295Y197744D02*
X113386Y197835D01*
X106405Y197744D02*
X113295D01*
X106299Y197638D02*
X106405Y197744D01*
X113295Y186114D02*
X113386Y186024D01*
X106799Y186114D02*
X113295D01*
X106693Y186221D02*
X106799Y186114D01*
X109949Y174303D02*
X113295D01*
X113386Y174213D01*
X76968Y181693D02*
X77059Y181783D01*
X79421Y177665D02*
X80315Y176772D01*
X77059Y177665D02*
X79421D01*
X76968Y177756D02*
X77059Y177665D01*
X200000Y193898D02*
X200091Y193988D01*
X211705D01*
X211811Y194095D01*
X200091Y197744D02*
X206980D01*
X200000Y197835D02*
X200091Y197744D01*
X206980D02*
X207087Y197638D01*
X169777Y183262D02*
X169783Y183268D01*
X164435Y181299D02*
X169783D01*
X132874Y202559D02*
Y210335D01*
X120276Y179331D02*
X125492D01*
X177165Y205512D02*
X177272D01*
X178922Y203862D02*
X179996D01*
X180118Y203740D01*
X181890D01*
X177272Y205512D02*
X178922Y203862D01*
X181799Y201681D02*
X181890Y201772D01*
X205542Y200787D02*
X205876D01*
X204648Y201681D02*
X205542Y200787D01*
X200091Y201681D02*
X204648D01*
X200000Y201772D02*
X200091Y201681D01*
X205709Y203740D02*
X205906Y203937D01*
X200000Y203740D02*
X205709D01*
X89961D02*
X91929Y201772D01*
X89961Y203740D02*
X95276D01*
X113386D01*
X84107Y141339D02*
X84252D01*
X79921Y142520D02*
X82926D01*
X84107Y141339D01*
X134843Y210335D02*
Y215158D01*
X142717Y216339D02*
X142913Y216535D01*
X142717Y210335D02*
Y216339D01*
X148425Y216929D02*
X148622Y216732D01*
Y210335D02*
Y216732D01*
X150591Y214764D02*
X151969Y216142D01*
X150591Y210335D02*
Y214764D01*
X166465Y151764D02*
X166654Y151575D01*
X166465Y151764D02*
Y154106D01*
X165008Y155563D02*
X166465Y154106D01*
X165008Y155563D02*
Y158760D01*
X162492Y162705D02*
X165008Y160189D01*
X162402Y166043D02*
X162492Y165953D01*
Y162705D02*
Y165953D01*
X163268Y155610D02*
Y156150D01*
X160433Y161791D02*
X163386Y158839D01*
X163268Y151575D02*
Y155610D01*
X160433Y161791D02*
Y166043D01*
X163386Y156268D02*
Y158839D01*
X163268Y156150D02*
X163386Y156268D01*
D62*
X145933Y128476D02*
X145941Y128469D01*
X145925Y109547D02*
X145933Y109539D01*
Y105520D02*
X145941Y105512D01*
X145933Y128476D02*
Y133752D01*
Y105520D02*
Y109539D01*
X145925Y133760D02*
X145933Y133752D01*
X150925Y109547D02*
X150936Y109558D01*
Y113763D02*
X150947Y113774D01*
X150936Y109558D02*
Y113763D01*
X92913Y104135D02*
X121458Y75590D01*
X89764Y152756D02*
X92913Y149606D01*
Y104135D02*
Y149606D01*
X147638Y140157D02*
Y143583D01*
X142913Y140157D02*
Y143583D01*
X138234Y140202D02*
Y143538D01*
Y140202D02*
X138279Y140157D01*
X138189Y143583D02*
X138234Y143538D01*
X133310Y143522D02*
X133371Y143583D01*
X133465D01*
X133310Y140369D02*
Y143522D01*
X86781Y100227D02*
Y139510D01*
Y100227D02*
X96653Y90354D01*
X84472Y141492D02*
X84853Y141111D01*
X85179D01*
X86781Y139510D01*
X84345Y141492D02*
X84472D01*
X96653Y82087D02*
Y90354D01*
X193237Y75590D02*
X198425Y80779D01*
Y105000D01*
X121458Y75590D02*
X193237D01*
X192126Y78347D02*
Y90100D01*
X152362Y140031D02*
Y143583D01*
X167384Y139856D02*
X167445Y139795D01*
X167384Y139856D02*
Y143522D01*
X167323Y143583D02*
X167384Y143522D01*
X165925Y128690D02*
X167445Y127170D01*
Y127165D02*
Y127170D01*
X162205Y139370D02*
Y143522D01*
X165925Y128690D02*
Y133760D01*
X160931Y127171D02*
X160936Y127165D01*
X160931Y127171D02*
Y133754D01*
X160925Y133760D02*
X160931Y133754D01*
X140935Y128478D02*
Y133750D01*
X150934Y128477D02*
Y133751D01*
X155918Y128354D02*
Y133753D01*
X135951Y128494D02*
X135976Y128469D01*
X155910Y128347D02*
X155918Y128354D01*
X135951Y128494D02*
Y133734D01*
X150934Y128477D02*
X150942Y128469D01*
X140935Y128478D02*
X140945Y128469D01*
X135925Y133760D02*
X135951Y133734D01*
X140933Y103035D02*
Y109539D01*
X135827Y103028D02*
X135876Y103077D01*
Y109498D01*
X140933Y103035D02*
X140941Y103028D01*
X130709D02*
Y103154D01*
X130925Y103371D02*
Y109547D01*
X130709Y103154D02*
X130925Y103371D01*
X157480Y140157D02*
Y143583D01*
X155918Y133753D02*
X155925Y133760D01*
X198356Y142096D02*
Y149144D01*
X198425Y149213D01*
X203150D02*
X203219Y149144D01*
Y142096D02*
X203287Y142028D01*
X203219Y142096D02*
Y149144D01*
X198287Y142028D02*
X198356Y142096D01*
X129739Y127110D02*
X130925Y128296D01*
X129739Y126983D02*
Y127110D01*
X135876Y109498D02*
X135925Y109547D01*
X150925Y133760D02*
X150934Y133751D01*
X191793Y90433D02*
X192126Y90100D01*
X191732Y90433D02*
X191793D01*
X184898Y82425D02*
X184969Y82496D01*
Y90362D02*
X185039Y90433D01*
X184969Y82496D02*
Y90362D01*
X160313Y110159D02*
X160934Y110780D01*
X165918Y109555D02*
X165925Y109547D01*
X160934Y114952D02*
X160942Y114961D01*
X160934Y110780D02*
Y114952D01*
X165910Y114608D02*
X165918Y114601D01*
Y109555D02*
Y114601D01*
X99094Y146972D02*
Y147244D01*
Y152362D01*
X99606Y142638D02*
Y146461D01*
X99094Y146972D02*
X99606Y146461D01*
X140925Y109547D02*
X140933Y109539D01*
X155345Y110128D02*
X155918Y110701D01*
Y114953D01*
X155910Y114961D02*
X155918Y114953D01*
X155345Y110128D02*
X155925Y109547D01*
X130925Y128296D02*
Y133760D01*
X140925D02*
X140935Y133750D01*
X119291Y160236D02*
X131890Y172835D01*
X106687Y160236D02*
X119291D01*
X160313Y110159D02*
X160925Y109547D01*
X100451Y153990D02*
Y154000D01*
X99094Y152362D02*
Y152634D01*
X100451Y153990D01*
Y154000D02*
X106687Y160236D01*
X99878Y139252D02*
X99939Y139191D01*
X99606Y139252D02*
X99878D01*
X99939Y138919D02*
Y139191D01*
Y138919D02*
X100000Y138858D01*
Y106024D02*
Y138858D01*
Y106024D02*
X123425Y82598D01*
X167323Y146968D02*
Y150634D01*
X166654Y151303D02*
X167323Y150634D01*
X166654Y151303D02*
Y151575D01*
X162476Y146968D02*
X162537Y147029D01*
Y150573D01*
X163268Y151303D02*
Y151575D01*
X162205Y146968D02*
X162476D01*
X162537Y150573D02*
X163268Y151303D01*
D63*
X157019Y153626D02*
X158013Y154620D01*
X156811Y151575D02*
X157019Y151783D01*
Y153626D01*
X158091Y160846D02*
X158465Y161221D01*
X158091Y158760D02*
Y160846D01*
X158465Y161221D02*
Y166043D01*
X158091Y155610D02*
Y158760D01*
X153425Y151969D02*
X156415Y154959D01*
Y155161D01*
X158013Y155533D02*
X158091Y155610D01*
X158013Y154620D02*
Y155533D01*
X156545Y158809D02*
Y165994D01*
Y158809D02*
X156595Y158760D01*
X156496Y166043D02*
X156545Y165994D01*
X156595Y155610D02*
Y158760D01*
X153425Y151575D02*
Y151969D01*
D64*
X63715Y103509D02*
X68065D01*
X62992Y104232D02*
X63715Y103509D01*
X68065D02*
X84842Y86731D01*
X84900Y86674D01*
X84842Y82087D02*
Y86731D01*
X84900Y86674D02*
X88916D01*
D65*
X83268Y208465D02*
Y211125D01*
D66*
X228346Y214567D02*
D03*
X64961Y78740D02*
D03*
Y214567D02*
D03*
X228346Y78740D02*
D03*
D67*
X62992Y104232D02*
D03*
D68*
Y96358D02*
D03*
D69*
X99606Y73622D02*
D03*
X87795D02*
D03*
D70*
X226378Y198819D02*
D03*
Y193898D02*
D03*
Y188976D02*
D03*
Y184055D02*
D03*
Y179134D02*
D03*
Y174213D02*
D03*
Y169291D02*
D03*
Y141732D02*
D03*
Y136811D02*
D03*
Y131890D02*
D03*
Y126969D02*
D03*
Y122047D02*
D03*
Y117126D02*
D03*
Y112205D02*
D03*
D71*
Y164370D02*
D03*
Y107283D02*
D03*
D72*
X208268Y100122D02*
D03*
X83071Y129134D02*
D03*
X90146Y176580D02*
D03*
X86614Y172047D02*
D03*
X81314Y182209D02*
D03*
X86221Y179528D02*
D03*
X145941Y105512D02*
D03*
Y128469D02*
D03*
X150947Y113774D02*
D03*
X150942Y128469D02*
D03*
X120472Y128347D02*
D03*
X120866Y120079D02*
D03*
X187008Y126772D02*
D03*
X116142Y107480D02*
D03*
X119685Y221654D02*
D03*
X88583Y145669D02*
D03*
X171653Y158268D02*
D03*
X108268Y167323D02*
D03*
X178740Y158268D02*
D03*
X214567Y214567D02*
D03*
X96457Y116142D02*
D03*
X124016Y100394D02*
D03*
X74803Y214567D02*
D03*
X80709Y108268D02*
D03*
X66929Y122047D02*
D03*
X120079Y197638D02*
D03*
X124409Y152362D02*
D03*
X161024Y202756D02*
D03*
X142913Y196850D02*
D03*
X74016Y188976D02*
D03*
X115354Y152362D02*
D03*
X147638Y140157D02*
D03*
X142913D02*
D03*
X138279D02*
D03*
X133310Y140369D02*
D03*
X215748Y179921D02*
D03*
Y172835D02*
D03*
X172047Y106299D02*
D03*
X216142Y159843D02*
D03*
X205442Y173622D02*
D03*
X210410Y155073D02*
D03*
X84047Y138377D02*
D03*
X192126Y78347D02*
D03*
X137697Y191240D02*
D03*
X152362Y140031D02*
D03*
X167445Y139795D02*
D03*
Y127165D02*
D03*
X162205Y139370D02*
D03*
X172441Y124016D02*
D03*
X177953Y130315D02*
D03*
X160508Y179134D02*
D03*
Y196457D02*
D03*
X160936Y127165D02*
D03*
X160508Y186291D02*
D03*
Y182087D02*
D03*
X155910Y128347D02*
D03*
X140945Y128469D02*
D03*
X135976D02*
D03*
X135827Y103028D02*
D03*
X140941D02*
D03*
X130709D02*
D03*
X157480Y140157D02*
D03*
X181102Y123228D02*
D03*
X207926Y178871D02*
D03*
X206693Y181571D02*
D03*
X177165Y175197D02*
D03*
X88004Y162807D02*
D03*
X100394Y198031D02*
D03*
X119980Y189075D02*
D03*
X118898Y174409D02*
D03*
X108268Y152362D02*
D03*
X198425Y149213D02*
D03*
X203150D02*
D03*
X129739Y126983D02*
D03*
X160942Y114961D02*
D03*
X184898Y82425D02*
D03*
X165910Y114608D02*
D03*
X186516Y189961D02*
D03*
X188976Y185827D02*
D03*
X88976Y86614D02*
D03*
X120142Y179464D02*
D03*
X83465Y166264D02*
D03*
X89764Y152756D02*
D03*
X60222Y159828D02*
D03*
X154823Y223721D02*
D03*
X177165Y201575D02*
D03*
X161614Y216240D02*
D03*
X203346Y123799D02*
D03*
X198287Y123779D02*
D03*
X158465Y220866D02*
D03*
X132874Y202559D02*
D03*
X136221Y216535D02*
D03*
X63681Y178839D02*
D03*
X61417Y136221D02*
D03*
X64562Y196068D02*
D03*
X64961Y203150D02*
D03*
X64595Y175886D02*
D03*
X64603Y185529D02*
D03*
X63779Y182677D02*
D03*
X60630Y164567D02*
D03*
X84345Y141492D02*
D03*
X60236Y141339D02*
D03*
X155910Y114961D02*
D03*
X131890Y172835D02*
D03*
X107874Y182283D02*
D03*
X220472Y116535D02*
D03*
X215748Y112205D02*
D03*
X104331Y189764D02*
D03*
X107874Y176378D02*
D03*
X83268Y214272D02*
D03*
X83268Y203346D02*
D03*
X205512Y186539D02*
D03*
X194095Y177953D02*
D03*
X191339Y181890D02*
D03*
X158268Y191142D02*
D03*
X120079Y183268D02*
D03*
X120079Y193110D02*
D03*
X106299Y197638D02*
D03*
X106693Y186221D02*
D03*
X80315Y176772D02*
D03*
X211811Y194095D02*
D03*
X207087Y197638D02*
D03*
X177165Y205512D02*
D03*
X205876Y200787D02*
D03*
X205906Y203937D02*
D03*
X142913Y216535D02*
D03*
X148425Y216929D02*
D03*
X151969Y216142D02*
D03*
X72835Y166142D02*
D03*
X68898Y161417D02*
D03*
X72835D02*
D03*
X76772D02*
D03*
X72835Y156693D02*
D03*
X72441Y142520D02*
D03*
X68504Y137795D02*
D03*
X72441D02*
D03*
X76378D02*
D03*
X72441Y133071D02*
D03*
M02*
