G04*
G04 #@! TF.GenerationSoftware,Altium Limited,Altium Designer,24.6.1 (21)*
G04*
G04 Layer_Color=32896*
%FSLAX25Y25*%
%MOIN*%
G70*
G04*
G04 #@! TF.SameCoordinates,31F84527-45D4-4773-AF7A-2B1276F50D28*
G04*
G04*
G04 #@! TF.FilePolarity,Positive*
G04*
G01*
G75*
%ADD14C,0.00787*%
%ADD15C,0.00300*%
%ADD16C,0.00400*%
%ADD17C,0.00591*%
%ADD72R,0.46654X0.16634*%
G36*
X175711Y122071D02*
X175247D01*
Y122603D01*
X175711D01*
Y122071D01*
D02*
G37*
G36*
X147849Y122071D02*
X147385D01*
Y122603D01*
X147849D01*
Y122071D01*
D02*
G37*
G36*
X167210Y118825D02*
X166779D01*
Y119169D01*
X166724Y119098D01*
X166667Y119035D01*
X166607Y118981D01*
X166544Y118934D01*
X166481Y118896D01*
X166418Y118863D01*
X166356Y118836D01*
X166296Y118817D01*
X166241Y118798D01*
X166189Y118787D01*
X166140Y118779D01*
X166099Y118770D01*
X166066Y118768D01*
X166042Y118765D01*
X166020D01*
X165930Y118770D01*
X165845Y118781D01*
X165763Y118800D01*
X165684Y118825D01*
X165610Y118855D01*
X165542Y118885D01*
X165479Y118921D01*
X165422Y118956D01*
X165370Y118991D01*
X165324Y119027D01*
X165283Y119060D01*
X165250Y119087D01*
X165223Y119112D01*
X165203Y119131D01*
X165190Y119142D01*
X165187Y119147D01*
X165124Y119223D01*
X165072Y119305D01*
X165026Y119390D01*
X164985Y119480D01*
X164952Y119570D01*
X164922Y119660D01*
X164901Y119748D01*
X164881Y119835D01*
X164868Y119917D01*
X164857Y119991D01*
X164849Y120059D01*
X164843Y120119D01*
X164840Y120143D01*
Y120165D01*
X164838Y120187D01*
Y120204D01*
Y120217D01*
Y120225D01*
Y120231D01*
Y120234D01*
X164840Y120343D01*
X164851Y120447D01*
X164857Y120496D01*
X164865Y120539D01*
X164873Y120583D01*
X164879Y120624D01*
X164887Y120659D01*
X164895Y120692D01*
X164903Y120722D01*
X164909Y120744D01*
X164914Y120766D01*
X164920Y120780D01*
X164922Y120788D01*
Y120791D01*
X164955Y120883D01*
X164993Y120968D01*
X165029Y121044D01*
X165048Y121077D01*
X165067Y121110D01*
X165083Y121137D01*
X165100Y121162D01*
X165113Y121184D01*
X165124Y121200D01*
X165135Y121214D01*
X165143Y121225D01*
X165146Y121230D01*
X165149Y121233D01*
X165206Y121298D01*
X165269Y121356D01*
X165329Y121405D01*
X165389Y121446D01*
X165441Y121478D01*
X165463Y121489D01*
X165482Y121500D01*
X165498Y121509D01*
X165509Y121514D01*
X165517Y121519D01*
X165520D01*
X165605Y121555D01*
X165689Y121580D01*
X165771Y121599D01*
X165845Y121609D01*
X165878Y121615D01*
X165905Y121618D01*
X165932Y121620D01*
X165954D01*
X165973Y121623D01*
X165998D01*
X166083Y121620D01*
X166162Y121607D01*
X166235Y121588D01*
X166306Y121566D01*
X166375Y121536D01*
X166435Y121506D01*
X166492Y121473D01*
X166544Y121438D01*
X166588Y121402D01*
X166629Y121369D01*
X166664Y121339D01*
X166694Y121309D01*
X166716Y121287D01*
X166732Y121268D01*
X166743Y121257D01*
X166746Y121252D01*
Y122603D01*
X167210D01*
Y118825D01*
D02*
G37*
G36*
X132015Y118825D02*
X131583D01*
Y119169D01*
X131529Y119098D01*
X131472Y119035D01*
X131412Y118981D01*
X131349Y118934D01*
X131286Y118896D01*
X131223Y118863D01*
X131160Y118836D01*
X131100Y118817D01*
X131046Y118798D01*
X130994Y118787D01*
X130945Y118779D01*
X130904Y118770D01*
X130871Y118768D01*
X130846Y118765D01*
X130825D01*
X130735Y118770D01*
X130650Y118781D01*
X130568Y118800D01*
X130489Y118825D01*
X130415Y118855D01*
X130347Y118885D01*
X130284Y118921D01*
X130227Y118956D01*
X130175Y118991D01*
X130128Y119027D01*
X130087Y119060D01*
X130055Y119087D01*
X130027Y119112D01*
X130008Y119131D01*
X129995Y119142D01*
X129992Y119147D01*
X129929Y119223D01*
X129877Y119305D01*
X129831Y119390D01*
X129790Y119480D01*
X129757Y119570D01*
X129727Y119660D01*
X129705Y119748D01*
X129686Y119835D01*
X129673Y119917D01*
X129662Y119991D01*
X129653Y120059D01*
X129648Y120119D01*
X129645Y120143D01*
Y120165D01*
X129642Y120187D01*
Y120204D01*
Y120217D01*
Y120225D01*
Y120231D01*
Y120234D01*
X129645Y120343D01*
X129656Y120447D01*
X129662Y120496D01*
X129670Y120539D01*
X129678Y120583D01*
X129683Y120624D01*
X129692Y120659D01*
X129700Y120692D01*
X129708Y120722D01*
X129713Y120744D01*
X129719Y120766D01*
X129724Y120780D01*
X129727Y120788D01*
Y120791D01*
X129760Y120883D01*
X129798Y120968D01*
X129834Y121044D01*
X129853Y121077D01*
X129872Y121110D01*
X129888Y121137D01*
X129905Y121162D01*
X129918Y121184D01*
X129929Y121200D01*
X129940Y121214D01*
X129948Y121225D01*
X129951Y121230D01*
X129954Y121233D01*
X130011Y121298D01*
X130074Y121356D01*
X130134Y121405D01*
X130194Y121446D01*
X130246Y121478D01*
X130268Y121489D01*
X130287Y121500D01*
X130303Y121509D01*
X130314Y121514D01*
X130322Y121519D01*
X130325D01*
X130410Y121555D01*
X130494Y121580D01*
X130576Y121599D01*
X130650Y121609D01*
X130683Y121615D01*
X130710Y121618D01*
X130737Y121620D01*
X130759D01*
X130778Y121623D01*
X130803D01*
X130887Y121620D01*
X130967Y121607D01*
X131040Y121588D01*
X131111Y121566D01*
X131179Y121536D01*
X131240Y121506D01*
X131297Y121473D01*
X131349Y121438D01*
X131392Y121402D01*
X131433Y121369D01*
X131469Y121339D01*
X131499Y121309D01*
X131521Y121287D01*
X131537Y121268D01*
X131548Y121257D01*
X131551Y121252D01*
Y122603D01*
X132015D01*
Y118825D01*
D02*
G37*
G36*
X107371Y118825D02*
X106940D01*
Y119169D01*
X106885Y119098D01*
X106828Y119035D01*
X106768Y118981D01*
X106705Y118934D01*
X106642Y118896D01*
X106579Y118863D01*
X106517Y118836D01*
X106457Y118817D01*
X106402Y118798D01*
X106350Y118787D01*
X106301Y118779D01*
X106260Y118770D01*
X106227Y118768D01*
X106203Y118765D01*
X106181D01*
X106091Y118770D01*
X106006Y118781D01*
X105924Y118800D01*
X105845Y118825D01*
X105771Y118855D01*
X105703Y118885D01*
X105640Y118921D01*
X105583Y118956D01*
X105531Y118991D01*
X105485Y119027D01*
X105444Y119060D01*
X105411Y119087D01*
X105384Y119112D01*
X105365Y119131D01*
X105351Y119142D01*
X105348Y119147D01*
X105285Y119223D01*
X105234Y119305D01*
X105187Y119390D01*
X105146Y119480D01*
X105113Y119570D01*
X105083Y119660D01*
X105062Y119748D01*
X105043Y119835D01*
X105029Y119917D01*
X105018Y119991D01*
X105010Y120059D01*
X105004Y120119D01*
X105001Y120143D01*
Y120165D01*
X104999Y120187D01*
Y120203D01*
Y120217D01*
Y120225D01*
Y120231D01*
Y120234D01*
X105001Y120343D01*
X105012Y120447D01*
X105018Y120496D01*
X105026Y120539D01*
X105034Y120583D01*
X105040Y120624D01*
X105048Y120659D01*
X105056Y120692D01*
X105064Y120722D01*
X105070Y120744D01*
X105075Y120766D01*
X105081Y120780D01*
X105083Y120788D01*
Y120791D01*
X105116Y120883D01*
X105154Y120968D01*
X105190Y121044D01*
X105209Y121077D01*
X105228Y121110D01*
X105245Y121137D01*
X105261Y121162D01*
X105274Y121184D01*
X105285Y121200D01*
X105296Y121214D01*
X105305Y121225D01*
X105307Y121230D01*
X105310Y121233D01*
X105367Y121298D01*
X105430Y121356D01*
X105490Y121405D01*
X105550Y121446D01*
X105602Y121478D01*
X105624Y121489D01*
X105643Y121500D01*
X105659Y121509D01*
X105670Y121514D01*
X105679Y121519D01*
X105681D01*
X105766Y121555D01*
X105851Y121580D01*
X105932Y121599D01*
X106006Y121609D01*
X106039Y121615D01*
X106066Y121618D01*
X106094Y121620D01*
X106115D01*
X106134Y121623D01*
X106159D01*
X106244Y121620D01*
X106323Y121607D01*
X106397Y121588D01*
X106467Y121566D01*
X106536Y121536D01*
X106596Y121506D01*
X106653Y121473D01*
X106705Y121438D01*
X106749Y121402D01*
X106790Y121369D01*
X106825Y121339D01*
X106855Y121309D01*
X106877Y121287D01*
X106893Y121268D01*
X106904Y121257D01*
X106907Y121252D01*
Y122603D01*
X107371D01*
Y118825D01*
D02*
G37*
G36*
X194488Y118825D02*
X194024D01*
Y120321D01*
Y120381D01*
X194021Y120436D01*
X194016Y120487D01*
X194013Y120537D01*
X194005Y120580D01*
X194000Y120621D01*
X193994Y120659D01*
X193986Y120695D01*
X193978Y120725D01*
X193972Y120752D01*
X193964Y120774D01*
X193959Y120793D01*
X193956Y120807D01*
X193950Y120818D01*
X193948Y120823D01*
Y120826D01*
X193915Y120891D01*
X193874Y120949D01*
X193833Y120998D01*
X193789Y121039D01*
X193751Y121072D01*
X193721Y121096D01*
X193707Y121105D01*
X193699Y121110D01*
X193694Y121115D01*
X193691D01*
X193623Y121151D01*
X193552Y121178D01*
X193486Y121197D01*
X193426Y121211D01*
X193399Y121216D01*
X193377Y121219D01*
X193355Y121222D01*
X193336D01*
X193320Y121225D01*
X193301D01*
X193252Y121222D01*
X193202Y121216D01*
X193159Y121211D01*
X193118Y121200D01*
X193079Y121186D01*
X193044Y121173D01*
X193014Y121159D01*
X192984Y121145D01*
X192959Y121129D01*
X192938Y121115D01*
X192918Y121102D01*
X192902Y121088D01*
X192891Y121077D01*
X192883Y121072D01*
X192877Y121066D01*
X192875Y121063D01*
X192848Y121031D01*
X192823Y120995D01*
X192804Y120957D01*
X192787Y120919D01*
X192760Y120834D01*
X192741Y120752D01*
X192736Y120714D01*
X192730Y120676D01*
X192727Y120643D01*
X192725Y120616D01*
X192722Y120591D01*
Y120575D01*
Y120561D01*
Y120559D01*
Y118825D01*
X192258D01*
Y120559D01*
Y120632D01*
X192263Y120700D01*
X192266Y120763D01*
X192274Y120823D01*
X192280Y120878D01*
X192288Y120930D01*
X192299Y120973D01*
X192307Y121014D01*
X192315Y121050D01*
X192326Y121083D01*
X192334Y121110D01*
X192340Y121132D01*
X192348Y121148D01*
X192351Y121159D01*
X192356Y121167D01*
Y121170D01*
X192375Y121208D01*
X192397Y121246D01*
X192446Y121312D01*
X192501Y121369D01*
X192553Y121416D01*
X192602Y121454D01*
X192624Y121468D01*
X192640Y121481D01*
X192656Y121489D01*
X192667Y121498D01*
X192675Y121503D01*
X192678D01*
X192722Y121525D01*
X192766Y121544D01*
X192856Y121571D01*
X192943Y121593D01*
X193025Y121609D01*
X193063Y121612D01*
X193099Y121618D01*
X193129Y121620D01*
X193153D01*
X193175Y121623D01*
X193205D01*
X193295Y121618D01*
X193383Y121607D01*
X193464Y121588D01*
X193541Y121563D01*
X193615Y121536D01*
X193680Y121503D01*
X193743Y121470D01*
X193800Y121435D01*
X193849Y121399D01*
X193896Y121367D01*
X193934Y121334D01*
X193967Y121307D01*
X193991Y121282D01*
X194010Y121263D01*
X194021Y121252D01*
X194024Y121246D01*
Y122603D01*
X194488D01*
Y118825D01*
D02*
G37*
G36*
X173077D02*
X172613D01*
Y120321D01*
Y120381D01*
X172610Y120436D01*
X172605Y120487D01*
X172602Y120537D01*
X172594Y120580D01*
X172588Y120621D01*
X172583Y120659D01*
X172574Y120695D01*
X172566Y120725D01*
X172561Y120752D01*
X172553Y120774D01*
X172547Y120793D01*
X172545Y120807D01*
X172539Y120818D01*
X172536Y120823D01*
Y120826D01*
X172503Y120891D01*
X172463Y120949D01*
X172422Y120998D01*
X172378Y121039D01*
X172340Y121072D01*
X172310Y121096D01*
X172296Y121105D01*
X172288Y121110D01*
X172282Y121115D01*
X172280D01*
X172211Y121151D01*
X172140Y121178D01*
X172075Y121197D01*
X172015Y121211D01*
X171987Y121216D01*
X171966Y121219D01*
X171944Y121222D01*
X171925D01*
X171908Y121225D01*
X171889D01*
X171840Y121222D01*
X171791Y121216D01*
X171747Y121211D01*
X171706Y121200D01*
X171668Y121186D01*
X171633Y121173D01*
X171603Y121159D01*
X171573Y121145D01*
X171548Y121129D01*
X171526Y121115D01*
X171507Y121102D01*
X171491Y121088D01*
X171480Y121077D01*
X171472Y121072D01*
X171466Y121066D01*
X171463Y121063D01*
X171436Y121031D01*
X171412Y120995D01*
X171392Y120957D01*
X171376Y120919D01*
X171349Y120834D01*
X171330Y120752D01*
X171324Y120714D01*
X171319Y120676D01*
X171316Y120643D01*
X171313Y120616D01*
X171310Y120591D01*
Y120575D01*
Y120561D01*
Y120559D01*
Y118825D01*
X170846D01*
Y120559D01*
Y120632D01*
X170852Y120700D01*
X170855Y120763D01*
X170863Y120823D01*
X170868Y120878D01*
X170876Y120930D01*
X170887Y120973D01*
X170896Y121014D01*
X170904Y121050D01*
X170915Y121083D01*
X170923Y121110D01*
X170928Y121132D01*
X170937Y121148D01*
X170939Y121159D01*
X170945Y121167D01*
Y121170D01*
X170964Y121208D01*
X170986Y121246D01*
X171035Y121312D01*
X171089Y121369D01*
X171141Y121416D01*
X171190Y121454D01*
X171212Y121468D01*
X171229Y121481D01*
X171245Y121489D01*
X171256Y121498D01*
X171264Y121503D01*
X171267D01*
X171310Y121525D01*
X171354Y121544D01*
X171444Y121571D01*
X171532Y121593D01*
X171614Y121609D01*
X171652Y121612D01*
X171687Y121618D01*
X171717Y121620D01*
X171742D01*
X171764Y121623D01*
X171794D01*
X171884Y121618D01*
X171971Y121607D01*
X172053Y121588D01*
X172129Y121563D01*
X172203Y121536D01*
X172269Y121503D01*
X172332Y121470D01*
X172389Y121435D01*
X172438Y121399D01*
X172484Y121367D01*
X172523Y121334D01*
X172555Y121307D01*
X172580Y121282D01*
X172599Y121263D01*
X172610Y121252D01*
X172613Y121246D01*
Y122603D01*
X173077D01*
Y118825D01*
D02*
G37*
G36*
X177710Y121620D02*
X177775Y121615D01*
X177835Y121607D01*
X177895Y121596D01*
X177950Y121580D01*
X178002Y121566D01*
X178051Y121549D01*
X178094Y121533D01*
X178136Y121514D01*
X178171Y121498D01*
X178201Y121484D01*
X178226Y121470D01*
X178247Y121457D01*
X178261Y121449D01*
X178272Y121443D01*
X178275Y121440D01*
X178324Y121405D01*
X178370Y121367D01*
X178414Y121326D01*
X178452Y121285D01*
X178490Y121241D01*
X178523Y121200D01*
X178553Y121159D01*
X178583Y121118D01*
X178608Y121080D01*
X178627Y121044D01*
X178646Y121012D01*
X178660Y120984D01*
X178673Y120963D01*
X178682Y120943D01*
X178684Y120932D01*
X178687Y120930D01*
X178711Y120867D01*
X178733Y120804D01*
X178753Y120741D01*
X178766Y120679D01*
X178793Y120556D01*
X178802Y120498D01*
X178810Y120444D01*
X178815Y120395D01*
X178818Y120348D01*
X178821Y120307D01*
X178823Y120272D01*
X178826Y120245D01*
Y120223D01*
Y120212D01*
Y120206D01*
X178823Y120103D01*
X178813Y120001D01*
X178799Y119906D01*
X178777Y119816D01*
X178755Y119729D01*
X178728Y119649D01*
X178701Y119573D01*
X178671Y119507D01*
X178643Y119445D01*
X178616Y119390D01*
X178589Y119344D01*
X178567Y119305D01*
X178545Y119273D01*
X178531Y119251D01*
X178520Y119237D01*
X178518Y119232D01*
X178458Y119161D01*
X178392Y119098D01*
X178321Y119043D01*
X178250Y118997D01*
X178179Y118956D01*
X178105Y118923D01*
X178034Y118899D01*
X177966Y118877D01*
X177901Y118860D01*
X177838Y118847D01*
X177783Y118839D01*
X177737Y118830D01*
X177699Y118828D01*
X177669Y118825D01*
X177644D01*
X177562Y118830D01*
X177480Y118841D01*
X177407Y118858D01*
X177336Y118882D01*
X177267Y118907D01*
X177205Y118937D01*
X177147Y118970D01*
X177095Y119005D01*
X177049Y119038D01*
X177008Y119071D01*
X176972Y119101D01*
X176943Y119128D01*
X176918Y119150D01*
X176901Y119166D01*
X176891Y119180D01*
X176888Y119183D01*
Y119101D01*
Y119027D01*
X176891Y118961D01*
Y118901D01*
X176893Y118847D01*
X176896Y118798D01*
X176899Y118754D01*
X176904Y118719D01*
X176907Y118686D01*
X176910Y118658D01*
X176912Y118637D01*
X176915Y118620D01*
X176918Y118606D01*
Y118598D01*
X176921Y118593D01*
Y118590D01*
X176948Y118508D01*
X176983Y118437D01*
X177024Y118377D01*
X177063Y118325D01*
X177082Y118304D01*
X177101Y118284D01*
X177114Y118268D01*
X177131Y118257D01*
X177142Y118246D01*
X177150Y118238D01*
X177155Y118235D01*
X177158Y118233D01*
X177194Y118211D01*
X177229Y118189D01*
X177308Y118156D01*
X177393Y118134D01*
X177472Y118118D01*
X177510Y118112D01*
X177543Y118110D01*
X177576Y118104D01*
X177603D01*
X177625Y118102D01*
X177655D01*
X177710Y118104D01*
X177761Y118107D01*
X177811Y118112D01*
X177854Y118123D01*
X177898Y118131D01*
X177936Y118142D01*
X177972Y118156D01*
X178004Y118167D01*
X178032Y118181D01*
X178056Y118192D01*
X178078Y118202D01*
X178094Y118213D01*
X178108Y118222D01*
X178119Y118227D01*
X178125Y118230D01*
X178127Y118233D01*
X178171Y118273D01*
X178207Y118320D01*
X178234Y118369D01*
X178253Y118418D01*
X178267Y118462D01*
X178272Y118481D01*
X178277Y118500D01*
X178280Y118514D01*
Y118525D01*
X178283Y118530D01*
Y118533D01*
X178733Y118601D01*
X178731Y118522D01*
X178725Y118446D01*
X178711Y118375D01*
X178692Y118312D01*
X178671Y118252D01*
X178646Y118197D01*
X178621Y118148D01*
X178591Y118104D01*
X178564Y118066D01*
X178540Y118031D01*
X178512Y118003D01*
X178490Y117979D01*
X178471Y117962D01*
X178458Y117949D01*
X178447Y117940D01*
X178444Y117938D01*
X178384Y117900D01*
X178324Y117864D01*
X178258Y117834D01*
X178193Y117809D01*
X178127Y117788D01*
X178059Y117771D01*
X177996Y117755D01*
X177934Y117744D01*
X177876Y117736D01*
X177822Y117727D01*
X177775Y117725D01*
X177734Y117719D01*
X177699D01*
X177674Y117717D01*
X177652D01*
X177576Y117719D01*
X177505Y117722D01*
X177434Y117730D01*
X177371Y117741D01*
X177308Y117752D01*
X177251Y117766D01*
X177199Y117779D01*
X177150Y117796D01*
X177109Y117809D01*
X177071Y117823D01*
X177035Y117837D01*
X177008Y117848D01*
X176986Y117859D01*
X176972Y117867D01*
X176962Y117869D01*
X176959Y117872D01*
X176907Y117902D01*
X176861Y117935D01*
X176817Y117970D01*
X176776Y118003D01*
X176738Y118039D01*
X176705Y118074D01*
X176675Y118110D01*
X176648Y118142D01*
X176623Y118173D01*
X176604Y118202D01*
X176585Y118230D01*
X176571Y118252D01*
X176560Y118271D01*
X176552Y118284D01*
X176549Y118293D01*
X176547Y118295D01*
X176525Y118350D01*
X176503Y118410D01*
X176487Y118478D01*
X176470Y118549D01*
X176459Y118623D01*
X176448Y118697D01*
X176440Y118773D01*
X176432Y118844D01*
X176426Y118915D01*
X176421Y118981D01*
X176418Y119041D01*
Y119093D01*
X176416Y119136D01*
Y119152D01*
Y119169D01*
Y119180D01*
Y119188D01*
Y119193D01*
Y119196D01*
Y121563D01*
X176844D01*
Y121233D01*
X176904Y121301D01*
X176970Y121361D01*
X177035Y121413D01*
X177101Y121459D01*
X177169Y121498D01*
X177235Y121528D01*
X177300Y121555D01*
X177363Y121574D01*
X177420Y121590D01*
X177475Y121601D01*
X177521Y121612D01*
X177562Y121618D01*
X177598Y121620D01*
X177622Y121623D01*
X177644D01*
X177710Y121620D01*
D02*
G37*
G36*
X156085Y121618D02*
X156178Y121604D01*
X156222Y121596D01*
X156263Y121585D01*
X156298Y121574D01*
X156334Y121563D01*
X156364Y121549D01*
X156394Y121538D01*
X156418Y121528D01*
X156437Y121519D01*
X156454Y121511D01*
X156465Y121506D01*
X156473Y121503D01*
X156476Y121500D01*
X156552Y121451D01*
X156618Y121397D01*
X156678Y121345D01*
X156727Y121293D01*
X156765Y121246D01*
X156781Y121227D01*
X156792Y121208D01*
X156803Y121195D01*
X156811Y121184D01*
X156814Y121178D01*
X156817Y121175D01*
Y121563D01*
X157232D01*
Y118825D01*
X156768D01*
Y120245D01*
Y120313D01*
X156765Y120376D01*
X156760Y120436D01*
X156757Y120490D01*
X156751Y120542D01*
X156743Y120589D01*
X156738Y120632D01*
X156730Y120670D01*
X156724Y120703D01*
X156719Y120733D01*
X156710Y120758D01*
X156705Y120780D01*
X156700Y120793D01*
X156697Y120807D01*
X156694Y120812D01*
Y120815D01*
X156661Y120886D01*
X156623Y120946D01*
X156585Y120998D01*
X156544Y121042D01*
X156508Y121074D01*
X156478Y121099D01*
X156467Y121107D01*
X156459Y121113D01*
X156454Y121118D01*
X156451D01*
X156388Y121154D01*
X156325Y121178D01*
X156263Y121197D01*
X156208Y121208D01*
X156162Y121216D01*
X156140Y121219D01*
X156123D01*
X156110Y121222D01*
X156091D01*
X156044Y121219D01*
X156001Y121216D01*
X155960Y121208D01*
X155924Y121197D01*
X155889Y121186D01*
X155859Y121173D01*
X155831Y121159D01*
X155807Y121145D01*
X155788Y121129D01*
X155769Y121115D01*
X155752Y121102D01*
X155741Y121091D01*
X155730Y121080D01*
X155725Y121072D01*
X155719Y121069D01*
Y121066D01*
X155700Y121036D01*
X155681Y121001D01*
X155654Y120927D01*
X155632Y120851D01*
X155619Y120777D01*
X155613Y120741D01*
X155610Y120709D01*
X155607Y120679D01*
Y120654D01*
X155605Y120632D01*
Y120616D01*
Y120605D01*
Y120602D01*
Y118825D01*
X155141D01*
Y120414D01*
X155138Y120490D01*
X155132Y120561D01*
X155124Y120627D01*
X155111Y120689D01*
X155097Y120744D01*
X155081Y120793D01*
X155061Y120840D01*
X155045Y120881D01*
X155026Y120916D01*
X155010Y120946D01*
X154993Y120971D01*
X154980Y120993D01*
X154966Y121009D01*
X154958Y121020D01*
X154952Y121025D01*
X154950Y121028D01*
X154911Y121063D01*
X154873Y121091D01*
X154835Y121118D01*
X154794Y121140D01*
X154753Y121159D01*
X154715Y121175D01*
X154677Y121186D01*
X154638Y121197D01*
X154606Y121205D01*
X154573Y121211D01*
X154543Y121216D01*
X154518Y121219D01*
X154499Y121222D01*
X154472D01*
X154414Y121219D01*
X154360Y121211D01*
X154314Y121197D01*
X154273Y121184D01*
X154240Y121170D01*
X154215Y121156D01*
X154199Y121148D01*
X154193Y121145D01*
X154152Y121115D01*
X154117Y121083D01*
X154090Y121050D01*
X154065Y121020D01*
X154049Y120993D01*
X154038Y120968D01*
X154032Y120954D01*
X154030Y120952D01*
Y120949D01*
X154021Y120924D01*
X154013Y120897D01*
X154002Y120834D01*
X153994Y120769D01*
X153989Y120703D01*
X153986Y120643D01*
X153983Y120616D01*
Y120594D01*
Y120575D01*
Y120561D01*
Y120550D01*
Y120547D01*
Y118825D01*
X153519D01*
Y120703D01*
X153522Y120788D01*
X153527Y120867D01*
X153538Y120941D01*
X153555Y121009D01*
X153571Y121072D01*
X153590Y121129D01*
X153609Y121178D01*
X153628Y121225D01*
X153650Y121265D01*
X153669Y121301D01*
X153688Y121331D01*
X153705Y121353D01*
X153718Y121372D01*
X153729Y121386D01*
X153737Y121394D01*
X153740Y121397D01*
X153784Y121438D01*
X153830Y121470D01*
X153879Y121503D01*
X153929Y121528D01*
X153983Y121549D01*
X154035Y121569D01*
X154084Y121582D01*
X154133Y121596D01*
X154183Y121604D01*
X154226Y121612D01*
X154264Y121615D01*
X154297Y121620D01*
X154327D01*
X154346Y121623D01*
X154414D01*
X154461Y121618D01*
X154551Y121601D01*
X154638Y121580D01*
X154718Y121549D01*
X154794Y121511D01*
X154862Y121470D01*
X154928Y121427D01*
X154985Y121383D01*
X155037Y121339D01*
X155083Y121296D01*
X155122Y121255D01*
X155154Y121219D01*
X155182Y121186D01*
X155198Y121165D01*
X155212Y121148D01*
X155214Y121145D01*
Y121143D01*
X155250Y121222D01*
X155291Y121293D01*
X155334Y121353D01*
X155381Y121405D01*
X155422Y121443D01*
X155441Y121459D01*
X155455Y121473D01*
X155468Y121481D01*
X155479Y121489D01*
X155485Y121492D01*
X155487Y121495D01*
X155526Y121517D01*
X155564Y121538D01*
X155649Y121569D01*
X155730Y121593D01*
X155809Y121607D01*
X155845Y121612D01*
X155880Y121618D01*
X155911Y121620D01*
X155935D01*
X155957Y121623D01*
X156036D01*
X156085Y121618D01*
D02*
G37*
G36*
X182916Y121036D02*
X182389D01*
Y121563D01*
X182916D01*
Y121036D01*
D02*
G37*
G36*
X133918Y121618D02*
X133978Y121615D01*
X134035Y121607D01*
X134090Y121601D01*
X134142Y121593D01*
X134191Y121582D01*
X134234Y121574D01*
X134273Y121566D01*
X134308Y121555D01*
X134338Y121547D01*
X134365Y121541D01*
X134385Y121533D01*
X134401Y121530D01*
X134409Y121525D01*
X134412D01*
X134461Y121506D01*
X134507Y121487D01*
X134548Y121465D01*
X134589Y121440D01*
X134625Y121418D01*
X134658Y121397D01*
X134690Y121372D01*
X134718Y121350D01*
X134742Y121331D01*
X134761Y121312D01*
X134780Y121293D01*
X134794Y121279D01*
X134808Y121265D01*
X134816Y121257D01*
X134819Y121252D01*
X134821Y121249D01*
X134871Y121178D01*
X134911Y121099D01*
X134947Y121023D01*
X134974Y120946D01*
X134988Y120913D01*
X134996Y120881D01*
X135004Y120853D01*
X135012Y120829D01*
X135018Y120807D01*
X135021Y120793D01*
X135023Y120782D01*
Y120780D01*
X134570Y120717D01*
X134556Y120769D01*
X134540Y120818D01*
X134521Y120861D01*
X134502Y120902D01*
X134485Y120938D01*
X134466Y120971D01*
X134447Y121001D01*
X134428Y121028D01*
X134409Y121050D01*
X134393Y121069D01*
X134379Y121085D01*
X134365Y121099D01*
X134354Y121107D01*
X134346Y121115D01*
X134344Y121121D01*
X134341D01*
X134311Y121143D01*
X134275Y121159D01*
X134199Y121189D01*
X134120Y121211D01*
X134040Y121225D01*
X134005Y121227D01*
X133970Y121233D01*
X133940Y121236D01*
X133912D01*
X133888Y121238D01*
X133858D01*
X133795Y121236D01*
X133735Y121233D01*
X133680Y121225D01*
X133628Y121214D01*
X133579Y121203D01*
X133538Y121189D01*
X133497Y121173D01*
X133462Y121159D01*
X133432Y121145D01*
X133404Y121129D01*
X133383Y121115D01*
X133363Y121105D01*
X133350Y121093D01*
X133339Y121088D01*
X133334Y121083D01*
X133331Y121080D01*
X133306Y121055D01*
X133287Y121031D01*
X133268Y121001D01*
X133254Y120971D01*
X133230Y120902D01*
X133213Y120837D01*
X133205Y120777D01*
X133200Y120750D01*
Y120728D01*
X133197Y120709D01*
Y120695D01*
Y120684D01*
Y120681D01*
Y120668D01*
Y120651D01*
Y120610D01*
X133200Y120591D01*
Y120578D01*
Y120567D01*
Y120561D01*
X133254Y120545D01*
X133312Y120528D01*
X133374Y120512D01*
X133443Y120496D01*
X133579Y120468D01*
X133647Y120457D01*
X133713Y120447D01*
X133776Y120436D01*
X133836Y120427D01*
X133888Y120419D01*
X133934Y120411D01*
X133972Y120408D01*
X134002Y120403D01*
X134013D01*
X134021Y120400D01*
X134027D01*
X134076Y120395D01*
X134122Y120389D01*
X134166Y120381D01*
X134207Y120376D01*
X134245Y120370D01*
X134278Y120365D01*
X134308Y120359D01*
X134335Y120354D01*
X134360Y120348D01*
X134382Y120345D01*
X134398Y120340D01*
X134415Y120337D01*
X134425Y120335D01*
X134434D01*
X134436Y120332D01*
X134439D01*
X134507Y120310D01*
X134570Y120285D01*
X134627Y120261D01*
X134677Y120236D01*
X134718Y120214D01*
X134734Y120204D01*
X134748Y120195D01*
X134758Y120190D01*
X134767Y120184D01*
X134772Y120179D01*
X134775D01*
X134827Y120138D01*
X134873Y120094D01*
X134914Y120051D01*
X134950Y120007D01*
X134977Y119969D01*
X134996Y119939D01*
X135004Y119928D01*
X135007Y119920D01*
X135012Y119914D01*
Y119911D01*
X135042Y119849D01*
X135064Y119786D01*
X135081Y119723D01*
X135092Y119668D01*
X135097Y119619D01*
X135100Y119597D01*
Y119581D01*
X135102Y119565D01*
Y119554D01*
Y119548D01*
Y119546D01*
X135100Y119483D01*
X135092Y119423D01*
X135081Y119368D01*
X135064Y119314D01*
X135048Y119264D01*
X135026Y119218D01*
X135004Y119174D01*
X134982Y119136D01*
X134960Y119101D01*
X134939Y119071D01*
X134917Y119046D01*
X134900Y119024D01*
X134884Y119005D01*
X134873Y118994D01*
X134865Y118986D01*
X134862Y118983D01*
X134813Y118945D01*
X134764Y118912D01*
X134707Y118882D01*
X134652Y118858D01*
X134595Y118836D01*
X134535Y118819D01*
X134480Y118803D01*
X134425Y118792D01*
X134374Y118784D01*
X134325Y118776D01*
X134281Y118770D01*
X134243Y118768D01*
X134213D01*
X134188Y118765D01*
X134169D01*
X134068Y118768D01*
X133975Y118779D01*
X133888Y118792D01*
X133847Y118800D01*
X133811Y118808D01*
X133778Y118817D01*
X133748Y118825D01*
X133721Y118833D01*
X133699Y118839D01*
X133683Y118844D01*
X133669Y118850D01*
X133661Y118852D01*
X133658D01*
X133615Y118871D01*
X133568Y118890D01*
X133481Y118940D01*
X133396Y118991D01*
X133358Y119016D01*
X133320Y119041D01*
X133287Y119065D01*
X133257Y119090D01*
X133230Y119109D01*
X133205Y119128D01*
X133186Y119142D01*
X133172Y119152D01*
X133164Y119161D01*
X133161Y119163D01*
X133150Y119093D01*
X133140Y119030D01*
X133123Y118972D01*
X133107Y118921D01*
X133090Y118882D01*
X133085Y118863D01*
X133077Y118850D01*
X133074Y118839D01*
X133069Y118830D01*
X133066Y118828D01*
Y118825D01*
X132583D01*
X132613Y118885D01*
X132640Y118942D01*
X132659Y118997D01*
X132676Y119046D01*
X132689Y119090D01*
X132692Y119109D01*
X132697Y119123D01*
X132700Y119136D01*
Y119144D01*
X132703Y119150D01*
Y119152D01*
X132706Y119169D01*
X132708Y119191D01*
X132711Y119237D01*
X132717Y119292D01*
X132719Y119352D01*
X132722Y119420D01*
X132725Y119488D01*
X132727Y119627D01*
Y119693D01*
Y119759D01*
X132730Y119816D01*
Y119868D01*
Y119911D01*
Y119928D01*
Y119944D01*
Y119955D01*
Y119963D01*
Y119969D01*
Y119972D01*
Y120589D01*
Y120643D01*
Y120695D01*
X132733Y120741D01*
Y120785D01*
X132736Y120823D01*
X132738Y120859D01*
X132741Y120889D01*
Y120916D01*
X132744Y120941D01*
X132747Y120960D01*
X132749Y120979D01*
X132752Y120993D01*
Y121001D01*
X132755Y121009D01*
Y121014D01*
X132774Y121083D01*
X132796Y121145D01*
X132817Y121197D01*
X132842Y121244D01*
X132864Y121282D01*
X132883Y121309D01*
X132888Y121317D01*
X132894Y121326D01*
X132899Y121328D01*
Y121331D01*
X132943Y121378D01*
X132992Y121416D01*
X133047Y121451D01*
X133099Y121481D01*
X133148Y121506D01*
X133167Y121517D01*
X133186Y121525D01*
X133200Y121530D01*
X133211Y121536D01*
X133219Y121538D01*
X133221D01*
X133263Y121552D01*
X133309Y121566D01*
X133402Y121588D01*
X133497Y121601D01*
X133587Y121612D01*
X133628Y121615D01*
X133667Y121618D01*
X133702Y121620D01*
X133732Y121623D01*
X133789D01*
X133918Y121618D01*
D02*
G37*
G36*
X123942D02*
X124002Y121615D01*
X124060Y121607D01*
X124114Y121601D01*
X124166Y121593D01*
X124215Y121582D01*
X124259Y121574D01*
X124297Y121566D01*
X124333Y121555D01*
X124363Y121547D01*
X124390Y121541D01*
X124409Y121533D01*
X124425Y121530D01*
X124434Y121525D01*
X124436D01*
X124486Y121506D01*
X124532Y121487D01*
X124573Y121465D01*
X124614Y121440D01*
X124649Y121418D01*
X124682Y121397D01*
X124715Y121372D01*
X124742Y121350D01*
X124767Y121331D01*
X124786Y121312D01*
X124805Y121293D01*
X124819Y121279D01*
X124832Y121265D01*
X124840Y121257D01*
X124843Y121252D01*
X124846Y121249D01*
X124895Y121178D01*
X124936Y121099D01*
X124971Y121023D01*
X124999Y120946D01*
X125012Y120913D01*
X125021Y120881D01*
X125029Y120853D01*
X125037Y120829D01*
X125042Y120807D01*
X125045Y120793D01*
X125048Y120782D01*
Y120780D01*
X124595Y120717D01*
X124581Y120769D01*
X124565Y120818D01*
X124546Y120861D01*
X124527Y120902D01*
X124510Y120938D01*
X124491Y120971D01*
X124472Y121001D01*
X124453Y121028D01*
X124434Y121050D01*
X124417Y121069D01*
X124404Y121085D01*
X124390Y121099D01*
X124379Y121107D01*
X124371Y121115D01*
X124368Y121121D01*
X124365D01*
X124335Y121143D01*
X124300Y121159D01*
X124223Y121189D01*
X124144Y121211D01*
X124065Y121225D01*
X124030Y121227D01*
X123994Y121233D01*
X123964Y121236D01*
X123937D01*
X123912Y121238D01*
X123882D01*
X123819Y121236D01*
X123759Y121233D01*
X123705Y121225D01*
X123653Y121214D01*
X123604Y121203D01*
X123563Y121189D01*
X123522Y121173D01*
X123486Y121159D01*
X123456Y121145D01*
X123429Y121129D01*
X123407Y121115D01*
X123388Y121105D01*
X123374Y121093D01*
X123363Y121088D01*
X123358Y121083D01*
X123355Y121080D01*
X123331Y121055D01*
X123312Y121031D01*
X123293Y121001D01*
X123279Y120971D01*
X123254Y120902D01*
X123238Y120837D01*
X123230Y120777D01*
X123224Y120750D01*
Y120728D01*
X123222Y120709D01*
Y120695D01*
Y120684D01*
Y120681D01*
Y120668D01*
Y120651D01*
Y120610D01*
X123224Y120591D01*
Y120578D01*
Y120567D01*
Y120561D01*
X123279Y120545D01*
X123336Y120528D01*
X123399Y120512D01*
X123467Y120496D01*
X123604Y120468D01*
X123672Y120457D01*
X123738Y120447D01*
X123800Y120436D01*
X123860Y120427D01*
X123912Y120419D01*
X123959Y120411D01*
X123997Y120408D01*
X124027Y120403D01*
X124038D01*
X124046Y120400D01*
X124051D01*
X124101Y120395D01*
X124147Y120389D01*
X124191Y120381D01*
X124232Y120376D01*
X124270Y120370D01*
X124303Y120365D01*
X124333Y120359D01*
X124360Y120354D01*
X124384Y120348D01*
X124406Y120345D01*
X124423Y120340D01*
X124439Y120337D01*
X124450Y120335D01*
X124458D01*
X124461Y120332D01*
X124464D01*
X124532Y120310D01*
X124595Y120285D01*
X124652Y120261D01*
X124701Y120236D01*
X124742Y120214D01*
X124759Y120204D01*
X124772Y120195D01*
X124783Y120190D01*
X124791Y120184D01*
X124797Y120179D01*
X124800D01*
X124851Y120138D01*
X124898Y120094D01*
X124939Y120051D01*
X124974Y120007D01*
X125002Y119969D01*
X125021Y119939D01*
X125029Y119928D01*
X125031Y119920D01*
X125037Y119914D01*
Y119911D01*
X125067Y119849D01*
X125089Y119786D01*
X125105Y119723D01*
X125116Y119668D01*
X125122Y119619D01*
X125124Y119597D01*
Y119581D01*
X125127Y119565D01*
Y119554D01*
Y119548D01*
Y119546D01*
X125124Y119483D01*
X125116Y119423D01*
X125105Y119368D01*
X125089Y119314D01*
X125073Y119264D01*
X125051Y119218D01*
X125029Y119174D01*
X125007Y119136D01*
X124985Y119101D01*
X124963Y119071D01*
X124941Y119046D01*
X124925Y119024D01*
X124909Y119005D01*
X124898Y118994D01*
X124890Y118986D01*
X124887Y118983D01*
X124838Y118945D01*
X124789Y118912D01*
X124731Y118882D01*
X124677Y118858D01*
X124619Y118836D01*
X124559Y118819D01*
X124505Y118803D01*
X124450Y118792D01*
X124398Y118784D01*
X124349Y118776D01*
X124305Y118770D01*
X124267Y118768D01*
X124237D01*
X124213Y118765D01*
X124193D01*
X124092Y118768D01*
X124000Y118779D01*
X123912Y118792D01*
X123871Y118800D01*
X123836Y118808D01*
X123803Y118817D01*
X123773Y118825D01*
X123746Y118833D01*
X123724Y118839D01*
X123707Y118844D01*
X123694Y118850D01*
X123686Y118852D01*
X123683D01*
X123639Y118871D01*
X123593Y118890D01*
X123505Y118940D01*
X123421Y118991D01*
X123383Y119016D01*
X123344Y119041D01*
X123312Y119065D01*
X123282Y119090D01*
X123254Y119109D01*
X123230Y119128D01*
X123211Y119142D01*
X123197Y119152D01*
X123189Y119161D01*
X123186Y119163D01*
X123175Y119093D01*
X123164Y119030D01*
X123148Y118972D01*
X123131Y118921D01*
X123115Y118882D01*
X123110Y118863D01*
X123101Y118850D01*
X123099Y118839D01*
X123093Y118830D01*
X123091Y118828D01*
Y118825D01*
X122607D01*
X122637Y118885D01*
X122665Y118942D01*
X122684Y118997D01*
X122700Y119046D01*
X122714Y119090D01*
X122716Y119109D01*
X122722Y119123D01*
X122725Y119136D01*
Y119144D01*
X122727Y119150D01*
Y119152D01*
X122730Y119169D01*
X122733Y119191D01*
X122736Y119237D01*
X122741Y119292D01*
X122744Y119352D01*
X122747Y119420D01*
X122749Y119488D01*
X122752Y119627D01*
Y119693D01*
Y119759D01*
X122755Y119816D01*
Y119868D01*
Y119911D01*
Y119928D01*
Y119944D01*
Y119955D01*
Y119963D01*
Y119969D01*
Y119972D01*
Y120589D01*
Y120643D01*
Y120695D01*
X122757Y120741D01*
Y120785D01*
X122760Y120823D01*
X122763Y120859D01*
X122766Y120889D01*
Y120916D01*
X122768Y120941D01*
X122771Y120960D01*
X122774Y120979D01*
X122776Y120993D01*
Y121001D01*
X122779Y121009D01*
Y121014D01*
X122798Y121083D01*
X122820Y121145D01*
X122842Y121197D01*
X122867Y121244D01*
X122889Y121282D01*
X122908Y121309D01*
X122913Y121317D01*
X122918Y121326D01*
X122924Y121328D01*
Y121331D01*
X122968Y121378D01*
X123017Y121416D01*
X123071Y121451D01*
X123123Y121481D01*
X123172Y121506D01*
X123191Y121517D01*
X123211Y121525D01*
X123224Y121530D01*
X123235Y121536D01*
X123243Y121538D01*
X123246D01*
X123287Y121552D01*
X123334Y121566D01*
X123426Y121588D01*
X123522Y121601D01*
X123612Y121612D01*
X123653Y121615D01*
X123691Y121618D01*
X123727Y121620D01*
X123757Y121623D01*
X123814D01*
X123942Y121618D01*
D02*
G37*
G36*
X114884Y119958D02*
X113454D01*
Y120425D01*
X114884D01*
Y119958D01*
D02*
G37*
G36*
X191466Y122240D02*
Y121563D01*
X191810D01*
Y121203D01*
X191466D01*
Y119625D01*
Y119551D01*
X191463Y119480D01*
X191461Y119420D01*
X191458Y119363D01*
X191452Y119314D01*
X191450Y119267D01*
X191444Y119229D01*
X191439Y119193D01*
X191433Y119163D01*
X191428Y119139D01*
X191425Y119120D01*
X191420Y119103D01*
X191417Y119090D01*
X191414Y119081D01*
X191411Y119079D01*
Y119076D01*
X191387Y119030D01*
X191357Y118989D01*
X191324Y118953D01*
X191291Y118923D01*
X191261Y118901D01*
X191237Y118882D01*
X191220Y118871D01*
X191218Y118869D01*
X191215D01*
X191158Y118841D01*
X191095Y118822D01*
X191029Y118808D01*
X190966Y118800D01*
X190912Y118795D01*
X190887Y118792D01*
X190866Y118789D01*
X190824D01*
X190764Y118792D01*
X190704Y118795D01*
X190644Y118803D01*
X190590Y118811D01*
X190543Y118817D01*
X190522Y118822D01*
X190505Y118825D01*
X190491Y118828D01*
X190480D01*
X190475Y118830D01*
X190472D01*
X190541Y119240D01*
X190584Y119234D01*
X190625Y119232D01*
X190661Y119226D01*
X190688D01*
X190713Y119223D01*
X190743D01*
X190778Y119226D01*
X190811Y119229D01*
X190838Y119234D01*
X190860Y119240D01*
X190879Y119245D01*
X190890Y119251D01*
X190898Y119256D01*
X190901D01*
X190920Y119270D01*
X190937Y119284D01*
X190961Y119314D01*
X190969Y119327D01*
X190975Y119338D01*
X190980Y119344D01*
Y119346D01*
X190983Y119360D01*
X190988Y119374D01*
X190994Y119409D01*
X190997Y119453D01*
X190999Y119494D01*
X191002Y119535D01*
Y119568D01*
Y119581D01*
Y119592D01*
Y119597D01*
Y119600D01*
Y121203D01*
X190541D01*
Y121563D01*
X191002D01*
Y122519D01*
X191466Y122240D01*
D02*
G37*
G36*
X190000D02*
Y121563D01*
X190344D01*
Y121203D01*
X190000D01*
Y119625D01*
Y119551D01*
X189997Y119480D01*
X189995Y119420D01*
X189992Y119363D01*
X189986Y119314D01*
X189984Y119267D01*
X189978Y119229D01*
X189973Y119193D01*
X189967Y119163D01*
X189962Y119139D01*
X189959Y119120D01*
X189954Y119103D01*
X189951Y119090D01*
X189948Y119081D01*
X189945Y119079D01*
Y119076D01*
X189921Y119030D01*
X189891Y118989D01*
X189858Y118953D01*
X189825Y118923D01*
X189795Y118901D01*
X189771Y118882D01*
X189754Y118871D01*
X189752Y118869D01*
X189749D01*
X189692Y118841D01*
X189629Y118822D01*
X189563Y118808D01*
X189500Y118800D01*
X189446Y118795D01*
X189421Y118792D01*
X189400Y118789D01*
X189358D01*
X189298Y118792D01*
X189238Y118795D01*
X189178Y118803D01*
X189124Y118811D01*
X189077Y118817D01*
X189056Y118822D01*
X189039Y118825D01*
X189025Y118828D01*
X189014D01*
X189009Y118830D01*
X189006D01*
X189075Y119240D01*
X189118Y119234D01*
X189159Y119232D01*
X189195Y119226D01*
X189222D01*
X189247Y119223D01*
X189277D01*
X189312Y119226D01*
X189345Y119229D01*
X189372Y119234D01*
X189394Y119240D01*
X189413Y119245D01*
X189424Y119251D01*
X189432Y119256D01*
X189435D01*
X189454Y119270D01*
X189471Y119284D01*
X189495Y119314D01*
X189503Y119327D01*
X189509Y119338D01*
X189514Y119344D01*
Y119346D01*
X189517Y119360D01*
X189522Y119374D01*
X189528Y119409D01*
X189531Y119453D01*
X189533Y119494D01*
X189536Y119535D01*
Y119568D01*
Y119581D01*
Y119592D01*
Y119597D01*
Y119600D01*
Y121203D01*
X189075D01*
Y121563D01*
X189536D01*
Y122519D01*
X190000Y122240D01*
D02*
G37*
G36*
X174455D02*
Y121563D01*
X174799D01*
Y121203D01*
X174455D01*
Y119625D01*
Y119551D01*
X174453Y119480D01*
X174450Y119420D01*
X174447Y119363D01*
X174442Y119314D01*
X174439Y119267D01*
X174434Y119229D01*
X174428Y119193D01*
X174423Y119163D01*
X174417Y119139D01*
X174415Y119120D01*
X174409Y119103D01*
X174406Y119090D01*
X174404Y119081D01*
X174401Y119079D01*
Y119076D01*
X174376Y119030D01*
X174346Y118989D01*
X174313Y118953D01*
X174281Y118923D01*
X174251Y118901D01*
X174226Y118882D01*
X174210Y118871D01*
X174207Y118869D01*
X174204D01*
X174147Y118841D01*
X174084Y118822D01*
X174019Y118808D01*
X173956Y118800D01*
X173901Y118795D01*
X173877Y118792D01*
X173855Y118789D01*
X173814D01*
X173754Y118792D01*
X173694Y118795D01*
X173634Y118803D01*
X173579Y118811D01*
X173533Y118817D01*
X173511Y118822D01*
X173495Y118825D01*
X173481Y118828D01*
X173470D01*
X173465Y118830D01*
X173462D01*
X173530Y119240D01*
X173574Y119234D01*
X173615Y119232D01*
X173650Y119226D01*
X173677D01*
X173702Y119223D01*
X173732D01*
X173767Y119226D01*
X173800Y119229D01*
X173828Y119234D01*
X173849Y119240D01*
X173869Y119245D01*
X173879Y119251D01*
X173888Y119256D01*
X173890D01*
X173909Y119270D01*
X173926Y119284D01*
X173950Y119314D01*
X173959Y119327D01*
X173964Y119338D01*
X173969Y119344D01*
Y119346D01*
X173972Y119360D01*
X173978Y119374D01*
X173983Y119409D01*
X173986Y119453D01*
X173989Y119494D01*
X173991Y119535D01*
Y119568D01*
Y119581D01*
Y119592D01*
Y119597D01*
Y119600D01*
Y121203D01*
X173530D01*
Y121563D01*
X173991D01*
Y122519D01*
X174455Y122240D01*
D02*
G37*
G36*
X143953Y122240D02*
Y121563D01*
X144297D01*
Y121203D01*
X143953D01*
Y119625D01*
Y119551D01*
X143950Y119480D01*
X143948Y119420D01*
X143945Y119363D01*
X143939Y119314D01*
X143937Y119267D01*
X143931Y119229D01*
X143926Y119193D01*
X143920Y119163D01*
X143915Y119139D01*
X143912Y119120D01*
X143907Y119103D01*
X143904Y119090D01*
X143901Y119081D01*
X143899Y119079D01*
Y119076D01*
X143874Y119030D01*
X143844Y118989D01*
X143811Y118953D01*
X143778Y118923D01*
X143748Y118901D01*
X143724Y118882D01*
X143708Y118871D01*
X143705Y118869D01*
X143702D01*
X143645Y118841D01*
X143582Y118822D01*
X143516Y118808D01*
X143454Y118800D01*
X143399Y118795D01*
X143374Y118792D01*
X143353Y118789D01*
X143312D01*
X143252Y118792D01*
X143192Y118795D01*
X143131Y118803D01*
X143077Y118811D01*
X143030Y118817D01*
X143009Y118822D01*
X142992Y118825D01*
X142979Y118828D01*
X142968D01*
X142962Y118830D01*
X142959D01*
X143028Y119240D01*
X143071Y119234D01*
X143112Y119232D01*
X143148Y119226D01*
X143175D01*
X143200Y119223D01*
X143230D01*
X143265Y119226D01*
X143298Y119229D01*
X143325Y119234D01*
X143347Y119240D01*
X143366Y119245D01*
X143377Y119251D01*
X143385Y119256D01*
X143388D01*
X143407Y119270D01*
X143423Y119283D01*
X143448Y119314D01*
X143456Y119327D01*
X143462Y119338D01*
X143467Y119344D01*
Y119346D01*
X143470Y119360D01*
X143475Y119374D01*
X143481Y119409D01*
X143484Y119453D01*
X143486Y119494D01*
X143489Y119535D01*
Y119568D01*
Y119581D01*
Y119592D01*
Y119597D01*
Y119600D01*
Y121203D01*
X143028D01*
Y121563D01*
X143489D01*
Y122519D01*
X143953Y122240D01*
D02*
G37*
G36*
X121949D02*
Y121563D01*
X122293D01*
Y121203D01*
X121949D01*
Y119625D01*
Y119551D01*
X121947Y119480D01*
X121944Y119420D01*
X121941Y119363D01*
X121936Y119314D01*
X121933Y119267D01*
X121927Y119229D01*
X121922Y119193D01*
X121917Y119163D01*
X121911Y119139D01*
X121908Y119120D01*
X121903Y119103D01*
X121900Y119090D01*
X121897Y119081D01*
X121895Y119079D01*
Y119076D01*
X121870Y119030D01*
X121840Y118989D01*
X121807Y118953D01*
X121775Y118923D01*
X121745Y118901D01*
X121720Y118882D01*
X121704Y118871D01*
X121701Y118869D01*
X121698D01*
X121641Y118841D01*
X121578Y118822D01*
X121513Y118808D01*
X121450Y118800D01*
X121395Y118795D01*
X121371Y118792D01*
X121349Y118789D01*
X121308D01*
X121248Y118792D01*
X121188Y118795D01*
X121128Y118803D01*
X121073Y118811D01*
X121027Y118817D01*
X121005Y118822D01*
X120988Y118825D01*
X120975Y118828D01*
X120964D01*
X120958Y118830D01*
X120956D01*
X121024Y119240D01*
X121068Y119234D01*
X121108Y119232D01*
X121144Y119226D01*
X121171D01*
X121196Y119223D01*
X121226D01*
X121261Y119226D01*
X121294Y119229D01*
X121321Y119234D01*
X121343Y119240D01*
X121362Y119245D01*
X121373Y119251D01*
X121381Y119256D01*
X121384D01*
X121403Y119270D01*
X121420Y119283D01*
X121444Y119314D01*
X121452Y119327D01*
X121458Y119338D01*
X121463Y119344D01*
Y119346D01*
X121466Y119360D01*
X121472Y119374D01*
X121477Y119409D01*
X121480Y119453D01*
X121483Y119494D01*
X121485Y119535D01*
Y119568D01*
Y119581D01*
Y119592D01*
Y119597D01*
Y119600D01*
Y121203D01*
X121024D01*
Y121563D01*
X121485D01*
Y122519D01*
X121949Y122240D01*
D02*
G37*
G36*
X170150Y119865D02*
Y119810D01*
Y119761D01*
X170148Y119715D01*
X170145Y119674D01*
Y119636D01*
X170142Y119600D01*
X170139Y119568D01*
X170137Y119540D01*
X170134Y119513D01*
X170131Y119494D01*
X170128Y119475D01*
Y119461D01*
X170126Y119447D01*
X170123Y119439D01*
Y119436D01*
Y119434D01*
X170104Y119360D01*
X170085Y119295D01*
X170060Y119234D01*
X170036Y119183D01*
X170014Y119142D01*
X170006Y119125D01*
X169997Y119112D01*
X169989Y119101D01*
X169986Y119093D01*
X169981Y119090D01*
Y119087D01*
X169937Y119038D01*
X169891Y118991D01*
X169839Y118953D01*
X169787Y118918D01*
X169741Y118890D01*
X169722Y118879D01*
X169705Y118871D01*
X169689Y118866D01*
X169678Y118860D01*
X169673Y118855D01*
X169670D01*
X169591Y118825D01*
X169511Y118803D01*
X169435Y118787D01*
X169364Y118776D01*
X169334Y118773D01*
X169304Y118770D01*
X169279Y118768D01*
X169257D01*
X169241Y118765D01*
X169217D01*
X169116Y118770D01*
X169023Y118784D01*
X168933Y118808D01*
X168848Y118836D01*
X168772Y118871D01*
X168701Y118912D01*
X168635Y118953D01*
X168578Y118997D01*
X168523Y119038D01*
X168480Y119081D01*
X168438Y119120D01*
X168406Y119155D01*
X168381Y119183D01*
X168362Y119207D01*
X168351Y119221D01*
X168348Y119226D01*
Y118825D01*
X167933D01*
Y121563D01*
X168398D01*
Y120094D01*
Y120032D01*
X168400Y119972D01*
X168406Y119914D01*
X168409Y119862D01*
X168414Y119816D01*
X168422Y119772D01*
X168428Y119731D01*
X168436Y119696D01*
X168444Y119663D01*
X168449Y119636D01*
X168455Y119614D01*
X168463Y119595D01*
X168466Y119578D01*
X168471Y119568D01*
X168474Y119562D01*
Y119559D01*
X168507Y119494D01*
X168548Y119436D01*
X168589Y119387D01*
X168632Y119346D01*
X168671Y119314D01*
X168703Y119289D01*
X168717Y119281D01*
X168725Y119275D01*
X168731Y119270D01*
X168733D01*
X168802Y119234D01*
X168873Y119207D01*
X168938Y119191D01*
X168998Y119177D01*
X169023Y119172D01*
X169047Y119169D01*
X169069Y119166D01*
X169088D01*
X169105Y119163D01*
X169124D01*
X169197Y119169D01*
X169266Y119180D01*
X169326Y119196D01*
X169375Y119215D01*
X169419Y119234D01*
X169435Y119243D01*
X169449Y119251D01*
X169459Y119259D01*
X169468Y119262D01*
X169471Y119267D01*
X169473D01*
X169522Y119308D01*
X169563Y119354D01*
X169593Y119404D01*
X169618Y119450D01*
X169637Y119491D01*
X169645Y119507D01*
X169651Y119524D01*
X169653Y119537D01*
X169656Y119546D01*
X169659Y119551D01*
Y119554D01*
X169664Y119581D01*
X169667Y119611D01*
X169673Y119647D01*
X169675Y119682D01*
X169681Y119764D01*
X169683Y119846D01*
Y119884D01*
Y119922D01*
X169686Y119955D01*
Y119985D01*
Y120007D01*
Y120026D01*
Y120040D01*
Y120043D01*
Y121563D01*
X170150D01*
Y119865D01*
D02*
G37*
G36*
X161766Y121620D02*
X161829Y121615D01*
X161892Y121607D01*
X161952Y121599D01*
X162009Y121585D01*
X162061Y121571D01*
X162113Y121555D01*
X162160Y121541D01*
X162200Y121525D01*
X162239Y121509D01*
X162274Y121495D01*
X162302Y121484D01*
X162323Y121473D01*
X162340Y121465D01*
X162351Y121459D01*
X162353Y121457D01*
X162408Y121424D01*
X162460Y121388D01*
X162506Y121347D01*
X162550Y121309D01*
X162591Y121268D01*
X162626Y121225D01*
X162659Y121184D01*
X162689Y121145D01*
X162716Y121107D01*
X162738Y121072D01*
X162757Y121039D01*
X162774Y121012D01*
X162785Y120990D01*
X162793Y120971D01*
X162798Y120960D01*
X162801Y120957D01*
X162826Y120894D01*
X162847Y120829D01*
X162869Y120763D01*
X162886Y120695D01*
X162910Y120567D01*
X162921Y120504D01*
X162927Y120444D01*
X162935Y120389D01*
X162938Y120340D01*
X162940Y120294D01*
X162943Y120255D01*
X162946Y120225D01*
Y120201D01*
Y120187D01*
Y120182D01*
X162943Y120056D01*
X162932Y119939D01*
X162913Y119829D01*
X162891Y119729D01*
X162867Y119636D01*
X162837Y119548D01*
X162806Y119469D01*
X162774Y119398D01*
X162744Y119338D01*
X162714Y119283D01*
X162684Y119237D01*
X162656Y119199D01*
X162637Y119169D01*
X162618Y119147D01*
X162607Y119136D01*
X162604Y119131D01*
X162539Y119065D01*
X162468Y119010D01*
X162394Y118961D01*
X162321Y118921D01*
X162244Y118885D01*
X162171Y118855D01*
X162097Y118830D01*
X162026Y118811D01*
X161960Y118795D01*
X161898Y118784D01*
X161843Y118776D01*
X161796Y118770D01*
X161758Y118768D01*
X161728Y118765D01*
X161704D01*
X161622Y118768D01*
X161543Y118776D01*
X161466Y118789D01*
X161395Y118806D01*
X161330Y118828D01*
X161267Y118850D01*
X161209Y118871D01*
X161158Y118899D01*
X161109Y118923D01*
X161067Y118945D01*
X161032Y118970D01*
X161002Y118989D01*
X160977Y119005D01*
X160961Y119019D01*
X160950Y119027D01*
X160947Y119030D01*
X160893Y119081D01*
X160841Y119136D01*
X160797Y119196D01*
X160756Y119256D01*
X160721Y119319D01*
X160691Y119379D01*
X160663Y119439D01*
X160639Y119497D01*
X160620Y119554D01*
X160603Y119603D01*
X160590Y119649D01*
X160579Y119688D01*
X160571Y119720D01*
X160565Y119745D01*
X160563Y119761D01*
Y119767D01*
X161018Y119829D01*
X161029Y119767D01*
X161043Y119707D01*
X161057Y119652D01*
X161076Y119603D01*
X161095Y119554D01*
X161114Y119513D01*
X161133Y119475D01*
X161152Y119442D01*
X161171Y119412D01*
X161190Y119385D01*
X161207Y119363D01*
X161220Y119346D01*
X161234Y119333D01*
X161242Y119322D01*
X161248Y119316D01*
X161250Y119314D01*
X161286Y119283D01*
X161321Y119259D01*
X161360Y119237D01*
X161398Y119218D01*
X161436Y119202D01*
X161474Y119188D01*
X161548Y119169D01*
X161581Y119161D01*
X161611Y119155D01*
X161638Y119152D01*
X161660Y119150D01*
X161679Y119147D01*
X161706D01*
X161769Y119150D01*
X161829Y119158D01*
X161884Y119169D01*
X161936Y119185D01*
X161985Y119204D01*
X162031Y119226D01*
X162072Y119248D01*
X162110Y119273D01*
X162143Y119295D01*
X162173Y119316D01*
X162198Y119338D01*
X162220Y119357D01*
X162236Y119374D01*
X162247Y119385D01*
X162255Y119393D01*
X162258Y119395D01*
X162296Y119445D01*
X162326Y119502D01*
X162356Y119562D01*
X162378Y119625D01*
X162400Y119690D01*
X162416Y119759D01*
X162430Y119824D01*
X162441Y119890D01*
X162452Y119950D01*
X162457Y120007D01*
X162463Y120059D01*
X162465Y120105D01*
Y120143D01*
X162468Y120171D01*
Y120182D01*
Y120190D01*
Y120193D01*
Y120195D01*
X162465Y120294D01*
X162460Y120387D01*
X162449Y120471D01*
X162433Y120547D01*
X162416Y120621D01*
X162400Y120687D01*
X162378Y120744D01*
X162359Y120796D01*
X162340Y120842D01*
X162318Y120881D01*
X162302Y120916D01*
X162282Y120943D01*
X162269Y120963D01*
X162258Y120979D01*
X162252Y120987D01*
X162250Y120990D01*
X162206Y121034D01*
X162162Y121072D01*
X162116Y121107D01*
X162069Y121134D01*
X162020Y121159D01*
X161974Y121181D01*
X161927Y121197D01*
X161884Y121211D01*
X161843Y121219D01*
X161805Y121227D01*
X161769Y121233D01*
X161739Y121238D01*
X161714D01*
X161698Y121241D01*
X161682D01*
X161638Y121238D01*
X161597Y121236D01*
X161521Y121219D01*
X161455Y121197D01*
X161398Y121173D01*
X161371Y121159D01*
X161349Y121145D01*
X161330Y121134D01*
X161316Y121124D01*
X161302Y121115D01*
X161294Y121107D01*
X161289Y121105D01*
X161286Y121102D01*
X161256Y121074D01*
X161229Y121044D01*
X161182Y120979D01*
X161141Y120911D01*
X161109Y120842D01*
X161098Y120812D01*
X161087Y120782D01*
X161076Y120758D01*
X161070Y120733D01*
X161065Y120717D01*
X161059Y120700D01*
X161057Y120692D01*
Y120689D01*
X160606Y120758D01*
X160623Y120834D01*
X160644Y120902D01*
X160669Y120971D01*
X160699Y121031D01*
X160726Y121088D01*
X160759Y121140D01*
X160789Y121189D01*
X160819Y121233D01*
X160849Y121271D01*
X160876Y121304D01*
X160904Y121331D01*
X160926Y121356D01*
X160945Y121372D01*
X160958Y121386D01*
X160969Y121394D01*
X160972Y121397D01*
X161027Y121438D01*
X161084Y121470D01*
X161144Y121503D01*
X161204Y121528D01*
X161267Y121549D01*
X161327Y121569D01*
X161384Y121582D01*
X161442Y121596D01*
X161496Y121604D01*
X161545Y121612D01*
X161589Y121615D01*
X161627Y121620D01*
X161657D01*
X161682Y121623D01*
X161701D01*
X161766Y121620D01*
D02*
G37*
G36*
X141553Y121618D02*
X141652Y121607D01*
X141745Y121588D01*
X141835Y121563D01*
X141917Y121536D01*
X141990Y121503D01*
X142061Y121468D01*
X142124Y121432D01*
X142181Y121397D01*
X142230Y121361D01*
X142271Y121331D01*
X142307Y121301D01*
X142337Y121276D01*
X142356Y121257D01*
X142367Y121246D01*
X142373Y121241D01*
X142435Y121167D01*
X142490Y121085D01*
X142536Y121001D01*
X142577Y120913D01*
X142613Y120823D01*
X142640Y120733D01*
X142665Y120646D01*
X142684Y120564D01*
X142697Y120482D01*
X142708Y120408D01*
X142717Y120343D01*
X142722Y120285D01*
X142725Y120258D01*
Y120236D01*
Y120217D01*
X142727Y120201D01*
Y120187D01*
Y120179D01*
Y120174D01*
Y120171D01*
X142725Y120048D01*
X142711Y119933D01*
X142695Y119827D01*
X142673Y119726D01*
X142646Y119633D01*
X142615Y119548D01*
X142585Y119472D01*
X142553Y119401D01*
X142520Y119338D01*
X142487Y119286D01*
X142460Y119240D01*
X142432Y119202D01*
X142411Y119172D01*
X142392Y119150D01*
X142381Y119139D01*
X142378Y119133D01*
X142310Y119068D01*
X142236Y119010D01*
X142159Y118961D01*
X142080Y118921D01*
X142001Y118885D01*
X141922Y118855D01*
X141843Y118830D01*
X141769Y118811D01*
X141698Y118795D01*
X141633Y118784D01*
X141575Y118776D01*
X141524Y118770D01*
X141482Y118768D01*
X141466D01*
X141453Y118765D01*
X141425D01*
X141338Y118768D01*
X141253Y118776D01*
X141174Y118787D01*
X141100Y118800D01*
X141032Y118819D01*
X140966Y118839D01*
X140909Y118860D01*
X140855Y118882D01*
X140805Y118901D01*
X140764Y118923D01*
X140726Y118942D01*
X140696Y118961D01*
X140672Y118975D01*
X140655Y118986D01*
X140644Y118994D01*
X140642Y118997D01*
X140587Y119043D01*
X140535Y119093D01*
X140489Y119144D01*
X140448Y119196D01*
X140410Y119251D01*
X140374Y119305D01*
X140344Y119360D01*
X140317Y119409D01*
X140292Y119458D01*
X140273Y119505D01*
X140257Y119546D01*
X140243Y119581D01*
X140235Y119608D01*
X140227Y119630D01*
X140221Y119644D01*
Y119649D01*
X140699Y119712D01*
X140721Y119658D01*
X140743Y119608D01*
X140764Y119562D01*
X140789Y119518D01*
X140814Y119480D01*
X140835Y119445D01*
X140860Y119415D01*
X140882Y119385D01*
X140904Y119360D01*
X140923Y119338D01*
X140939Y119322D01*
X140956Y119305D01*
X140969Y119295D01*
X140978Y119286D01*
X140983Y119283D01*
X140986Y119281D01*
X141021Y119256D01*
X141057Y119237D01*
X141092Y119218D01*
X141130Y119204D01*
X141204Y119180D01*
X141272Y119163D01*
X141302Y119158D01*
X141332Y119155D01*
X141357Y119152D01*
X141379Y119150D01*
X141398Y119147D01*
X141422D01*
X141485Y119150D01*
X141545Y119158D01*
X141603Y119169D01*
X141657Y119185D01*
X141709Y119202D01*
X141755Y119223D01*
X141799Y119243D01*
X141837Y119267D01*
X141873Y119289D01*
X141906Y119311D01*
X141933Y119330D01*
X141955Y119346D01*
X141971Y119363D01*
X141985Y119374D01*
X141993Y119382D01*
X141996Y119385D01*
X142037Y119431D01*
X142072Y119483D01*
X142105Y119537D01*
X142132Y119595D01*
X142157Y119652D01*
X142176Y119709D01*
X142195Y119764D01*
X142209Y119821D01*
X142220Y119873D01*
X142230Y119920D01*
X142236Y119963D01*
X142242Y120001D01*
X142247Y120032D01*
Y120056D01*
X142250Y120070D01*
Y120075D01*
X140208D01*
Y120105D01*
X140205Y120130D01*
Y120149D01*
Y120168D01*
Y120182D01*
Y120190D01*
Y120195D01*
Y120198D01*
X140208Y120321D01*
X140218Y120438D01*
X140238Y120547D01*
X140260Y120649D01*
X140287Y120741D01*
X140314Y120829D01*
X140347Y120908D01*
X140380Y120979D01*
X140412Y121042D01*
X140442Y121096D01*
X140472Y121143D01*
X140500Y121181D01*
X140522Y121211D01*
X140538Y121233D01*
X140552Y121244D01*
X140554Y121249D01*
X140623Y121315D01*
X140693Y121372D01*
X140764Y121424D01*
X140841Y121465D01*
X140915Y121503D01*
X140991Y121533D01*
X141062Y121558D01*
X141133Y121577D01*
X141199Y121593D01*
X141259Y121604D01*
X141311Y121612D01*
X141360Y121618D01*
X141398Y121620D01*
X141425Y121623D01*
X141450D01*
X141553Y121618D01*
D02*
G37*
G36*
X126571Y121620D02*
X126634Y121615D01*
X126697Y121607D01*
X126757Y121599D01*
X126814Y121585D01*
X126866Y121571D01*
X126918Y121555D01*
X126964Y121541D01*
X127005Y121525D01*
X127043Y121509D01*
X127079Y121495D01*
X127106Y121484D01*
X127128Y121473D01*
X127145Y121465D01*
X127155Y121459D01*
X127158Y121457D01*
X127213Y121424D01*
X127265Y121388D01*
X127311Y121347D01*
X127355Y121309D01*
X127396Y121268D01*
X127431Y121225D01*
X127464Y121184D01*
X127494Y121145D01*
X127521Y121107D01*
X127543Y121072D01*
X127562Y121039D01*
X127579Y121012D01*
X127589Y120990D01*
X127598Y120971D01*
X127603Y120960D01*
X127606Y120957D01*
X127630Y120894D01*
X127652Y120829D01*
X127674Y120763D01*
X127691Y120695D01*
X127715Y120567D01*
X127726Y120504D01*
X127732Y120444D01*
X127740Y120389D01*
X127742Y120340D01*
X127745Y120294D01*
X127748Y120255D01*
X127751Y120225D01*
Y120201D01*
Y120187D01*
Y120182D01*
X127748Y120056D01*
X127737Y119939D01*
X127718Y119829D01*
X127696Y119729D01*
X127671Y119636D01*
X127641Y119548D01*
X127611Y119469D01*
X127579Y119398D01*
X127549Y119338D01*
X127519Y119283D01*
X127489Y119237D01*
X127461Y119199D01*
X127442Y119169D01*
X127423Y119147D01*
X127412Y119136D01*
X127409Y119131D01*
X127344Y119065D01*
X127273Y119010D01*
X127199Y118961D01*
X127125Y118921D01*
X127049Y118885D01*
X126975Y118855D01*
X126902Y118830D01*
X126831Y118811D01*
X126765Y118795D01*
X126702Y118784D01*
X126648Y118776D01*
X126601Y118770D01*
X126563Y118768D01*
X126533Y118765D01*
X126508D01*
X126427Y118768D01*
X126347Y118776D01*
X126271Y118789D01*
X126200Y118806D01*
X126134Y118828D01*
X126072Y118850D01*
X126014Y118871D01*
X125962Y118899D01*
X125913Y118923D01*
X125872Y118945D01*
X125837Y118970D01*
X125807Y118989D01*
X125782Y119005D01*
X125766Y119019D01*
X125755Y119027D01*
X125752Y119030D01*
X125698Y119081D01*
X125646Y119136D01*
X125602Y119196D01*
X125561Y119256D01*
X125526Y119319D01*
X125496Y119379D01*
X125468Y119439D01*
X125444Y119497D01*
X125425Y119554D01*
X125408Y119603D01*
X125395Y119649D01*
X125384Y119688D01*
X125375Y119720D01*
X125370Y119745D01*
X125367Y119761D01*
Y119767D01*
X125823Y119829D01*
X125834Y119767D01*
X125848Y119707D01*
X125861Y119652D01*
X125881Y119603D01*
X125900Y119554D01*
X125919Y119513D01*
X125938Y119475D01*
X125957Y119442D01*
X125976Y119412D01*
X125995Y119385D01*
X126012Y119363D01*
X126025Y119346D01*
X126039Y119333D01*
X126047Y119322D01*
X126052Y119316D01*
X126055Y119314D01*
X126091Y119283D01*
X126126Y119259D01*
X126164Y119237D01*
X126203Y119218D01*
X126241Y119202D01*
X126279Y119188D01*
X126353Y119169D01*
X126386Y119161D01*
X126416Y119155D01*
X126443Y119152D01*
X126465Y119150D01*
X126484Y119147D01*
X126511D01*
X126574Y119150D01*
X126634Y119158D01*
X126689Y119169D01*
X126741Y119185D01*
X126790Y119204D01*
X126836Y119226D01*
X126877Y119248D01*
X126915Y119273D01*
X126948Y119295D01*
X126978Y119316D01*
X127003Y119338D01*
X127024Y119357D01*
X127041Y119374D01*
X127052Y119385D01*
X127060Y119393D01*
X127063Y119395D01*
X127101Y119445D01*
X127131Y119502D01*
X127161Y119562D01*
X127183Y119625D01*
X127205Y119690D01*
X127221Y119759D01*
X127235Y119824D01*
X127246Y119890D01*
X127257Y119950D01*
X127262Y120007D01*
X127267Y120059D01*
X127270Y120105D01*
Y120143D01*
X127273Y120171D01*
Y120182D01*
Y120190D01*
Y120193D01*
Y120195D01*
X127270Y120294D01*
X127265Y120387D01*
X127254Y120471D01*
X127237Y120547D01*
X127221Y120621D01*
X127205Y120687D01*
X127183Y120744D01*
X127164Y120796D01*
X127145Y120842D01*
X127123Y120881D01*
X127106Y120916D01*
X127087Y120943D01*
X127074Y120963D01*
X127063Y120979D01*
X127057Y120987D01*
X127055Y120990D01*
X127011Y121034D01*
X126967Y121072D01*
X126921Y121107D01*
X126874Y121134D01*
X126825Y121159D01*
X126779Y121181D01*
X126732Y121197D01*
X126689Y121211D01*
X126648Y121219D01*
X126610Y121227D01*
X126574Y121233D01*
X126544Y121238D01*
X126519D01*
X126503Y121241D01*
X126487D01*
X126443Y121238D01*
X126402Y121236D01*
X126326Y121219D01*
X126260Y121197D01*
X126203Y121173D01*
X126175Y121159D01*
X126154Y121145D01*
X126134Y121134D01*
X126121Y121124D01*
X126107Y121115D01*
X126099Y121107D01*
X126093Y121105D01*
X126091Y121102D01*
X126061Y121074D01*
X126033Y121044D01*
X125987Y120979D01*
X125946Y120911D01*
X125913Y120842D01*
X125902Y120812D01*
X125891Y120782D01*
X125881Y120758D01*
X125875Y120733D01*
X125870Y120717D01*
X125864Y120700D01*
X125861Y120692D01*
Y120689D01*
X125411Y120758D01*
X125427Y120834D01*
X125449Y120902D01*
X125474Y120971D01*
X125504Y121031D01*
X125531Y121088D01*
X125564Y121140D01*
X125594Y121189D01*
X125624Y121233D01*
X125654Y121271D01*
X125681Y121304D01*
X125709Y121331D01*
X125730Y121356D01*
X125750Y121372D01*
X125763Y121386D01*
X125774Y121394D01*
X125777Y121397D01*
X125831Y121438D01*
X125889Y121470D01*
X125949Y121503D01*
X126009Y121528D01*
X126072Y121549D01*
X126132Y121569D01*
X126189Y121582D01*
X126246Y121596D01*
X126301Y121604D01*
X126350Y121612D01*
X126394Y121615D01*
X126432Y121620D01*
X126462D01*
X126487Y121623D01*
X126506D01*
X126571Y121620D01*
D02*
G37*
G36*
X108968D02*
X109031Y121615D01*
X109094Y121607D01*
X109154Y121599D01*
X109211Y121585D01*
X109263Y121571D01*
X109315Y121555D01*
X109361Y121541D01*
X109402Y121525D01*
X109441Y121509D01*
X109476Y121495D01*
X109503Y121484D01*
X109525Y121473D01*
X109541Y121465D01*
X109552Y121459D01*
X109555Y121457D01*
X109610Y121424D01*
X109662Y121388D01*
X109708Y121347D01*
X109752Y121309D01*
X109793Y121268D01*
X109828Y121225D01*
X109861Y121184D01*
X109891Y121145D01*
X109918Y121107D01*
X109940Y121072D01*
X109959Y121039D01*
X109976Y121012D01*
X109986Y120990D01*
X109995Y120971D01*
X110000Y120960D01*
X110003Y120957D01*
X110027Y120894D01*
X110049Y120829D01*
X110071Y120763D01*
X110088Y120695D01*
X110112Y120567D01*
X110123Y120504D01*
X110128Y120444D01*
X110137Y120389D01*
X110139Y120340D01*
X110142Y120294D01*
X110145Y120255D01*
X110148Y120225D01*
Y120201D01*
Y120187D01*
Y120182D01*
X110145Y120056D01*
X110134Y119939D01*
X110115Y119829D01*
X110093Y119729D01*
X110068Y119636D01*
X110038Y119548D01*
X110008Y119469D01*
X109976Y119398D01*
X109946Y119338D01*
X109915Y119283D01*
X109886Y119237D01*
X109858Y119199D01*
X109839Y119169D01*
X109820Y119147D01*
X109809Y119136D01*
X109806Y119131D01*
X109741Y119065D01*
X109670Y119010D01*
X109596Y118961D01*
X109522Y118921D01*
X109446Y118885D01*
X109372Y118855D01*
X109299Y118830D01*
X109228Y118811D01*
X109162Y118795D01*
X109099Y118784D01*
X109045Y118776D01*
X108998Y118770D01*
X108960Y118768D01*
X108930Y118765D01*
X108905D01*
X108824Y118768D01*
X108744Y118776D01*
X108668Y118789D01*
X108597Y118806D01*
X108531Y118828D01*
X108469Y118850D01*
X108411Y118871D01*
X108359Y118899D01*
X108310Y118923D01*
X108269Y118945D01*
X108234Y118970D01*
X108204Y118989D01*
X108179Y119005D01*
X108163Y119019D01*
X108152Y119027D01*
X108149Y119030D01*
X108095Y119081D01*
X108043Y119136D01*
X107999Y119196D01*
X107958Y119256D01*
X107923Y119319D01*
X107893Y119379D01*
X107865Y119439D01*
X107841Y119497D01*
X107822Y119554D01*
X107805Y119603D01*
X107792Y119649D01*
X107781Y119688D01*
X107773Y119720D01*
X107767Y119745D01*
X107764Y119761D01*
Y119767D01*
X108220Y119829D01*
X108231Y119767D01*
X108245Y119707D01*
X108258Y119652D01*
X108277Y119603D01*
X108297Y119554D01*
X108316Y119513D01*
X108335Y119475D01*
X108354Y119442D01*
X108373Y119412D01*
X108392Y119385D01*
X108409Y119363D01*
X108422Y119346D01*
X108436Y119333D01*
X108444Y119322D01*
X108449Y119316D01*
X108452Y119314D01*
X108488Y119283D01*
X108523Y119259D01*
X108561Y119237D01*
X108600Y119218D01*
X108638Y119202D01*
X108676Y119188D01*
X108750Y119169D01*
X108783Y119161D01*
X108813Y119155D01*
X108840Y119152D01*
X108862Y119150D01*
X108881Y119147D01*
X108908D01*
X108971Y119150D01*
X109031Y119158D01*
X109086Y119169D01*
X109137Y119185D01*
X109187Y119204D01*
X109233Y119226D01*
X109274Y119248D01*
X109312Y119273D01*
X109345Y119295D01*
X109375Y119316D01*
X109399Y119338D01*
X109421Y119357D01*
X109438Y119374D01*
X109449Y119385D01*
X109457Y119393D01*
X109460Y119395D01*
X109498Y119445D01*
X109528Y119502D01*
X109558Y119562D01*
X109580Y119625D01*
X109602Y119690D01*
X109618Y119759D01*
X109632Y119824D01*
X109643Y119890D01*
X109653Y119950D01*
X109659Y120007D01*
X109664Y120059D01*
X109667Y120105D01*
Y120143D01*
X109670Y120171D01*
Y120182D01*
Y120190D01*
Y120193D01*
Y120195D01*
X109667Y120294D01*
X109662Y120387D01*
X109651Y120471D01*
X109634Y120547D01*
X109618Y120621D01*
X109602Y120687D01*
X109580Y120744D01*
X109561Y120796D01*
X109541Y120842D01*
X109520Y120881D01*
X109503Y120916D01*
X109484Y120943D01*
X109470Y120963D01*
X109460Y120979D01*
X109454Y120987D01*
X109451Y120990D01*
X109408Y121034D01*
X109364Y121072D01*
X109318Y121107D01*
X109271Y121134D01*
X109222Y121159D01*
X109176Y121181D01*
X109129Y121197D01*
X109086Y121211D01*
X109045Y121219D01*
X109006Y121227D01*
X108971Y121233D01*
X108941Y121238D01*
X108916D01*
X108900Y121241D01*
X108884D01*
X108840Y121238D01*
X108799Y121236D01*
X108722Y121219D01*
X108657Y121197D01*
X108600Y121173D01*
X108572Y121159D01*
X108551Y121145D01*
X108531Y121134D01*
X108518Y121124D01*
X108504Y121115D01*
X108496Y121107D01*
X108491Y121104D01*
X108488Y121102D01*
X108458Y121074D01*
X108430Y121044D01*
X108384Y120979D01*
X108343Y120911D01*
X108310Y120842D01*
X108299Y120812D01*
X108288Y120782D01*
X108277Y120758D01*
X108272Y120733D01*
X108267Y120717D01*
X108261Y120700D01*
X108258Y120692D01*
Y120689D01*
X107808Y120758D01*
X107824Y120834D01*
X107846Y120902D01*
X107871Y120971D01*
X107901Y121031D01*
X107928Y121088D01*
X107961Y121140D01*
X107991Y121189D01*
X108021Y121233D01*
X108051Y121271D01*
X108078Y121304D01*
X108106Y121331D01*
X108127Y121356D01*
X108147Y121372D01*
X108160Y121386D01*
X108171Y121394D01*
X108174Y121397D01*
X108228Y121438D01*
X108286Y121470D01*
X108346Y121503D01*
X108406Y121528D01*
X108469Y121549D01*
X108529Y121569D01*
X108586Y121582D01*
X108643Y121596D01*
X108698Y121604D01*
X108747Y121612D01*
X108791Y121615D01*
X108829Y121620D01*
X108859D01*
X108884Y121623D01*
X108903D01*
X108968Y121620D01*
D02*
G37*
G36*
X182916Y118825D02*
X182389D01*
Y119352D01*
X182916D01*
Y118825D01*
D02*
G37*
G36*
X175711D02*
X175247D01*
Y121563D01*
X175711D01*
Y118825D01*
D02*
G37*
G36*
X164139Y118825D02*
X163612D01*
Y119352D01*
X164139D01*
Y118825D01*
D02*
G37*
G36*
X151311D02*
X150811D01*
Y120362D01*
X149771D01*
X149700Y120365D01*
X149632Y120370D01*
X149566Y120376D01*
X149503Y120384D01*
X149443Y120392D01*
X149331Y120414D01*
X149233Y120438D01*
X149140Y120468D01*
X149061Y120498D01*
X148990Y120528D01*
X148927Y120559D01*
X148875Y120589D01*
X148832Y120618D01*
X148796Y120643D01*
X148769Y120665D01*
X148750Y120681D01*
X148739Y120692D01*
X148736Y120695D01*
X148681Y120758D01*
X148635Y120826D01*
X148594Y120894D01*
X148559Y120963D01*
X148529Y121031D01*
X148504Y121099D01*
X148482Y121165D01*
X148466Y121227D01*
X148452Y121285D01*
X148444Y121339D01*
X148436Y121386D01*
X148433Y121429D01*
X148430Y121462D01*
X148428Y121487D01*
Y121503D01*
Y121509D01*
X148433Y121612D01*
X148447Y121708D01*
X148455Y121754D01*
X148463Y121795D01*
X148474Y121836D01*
X148485Y121872D01*
X148496Y121904D01*
X148507Y121934D01*
X148515Y121962D01*
X148523Y121984D01*
X148531Y122000D01*
X148537Y122014D01*
X148540Y122022D01*
X148542Y122025D01*
X148589Y122106D01*
X148638Y122180D01*
X148690Y122243D01*
X148714Y122270D01*
X148736Y122295D01*
X148758Y122317D01*
X148780Y122336D01*
X148799Y122352D01*
X148815Y122363D01*
X148826Y122374D01*
X148837Y122382D01*
X148843Y122385D01*
X148845Y122388D01*
X148919Y122434D01*
X148998Y122469D01*
X149075Y122502D01*
X149148Y122527D01*
X149184Y122535D01*
X149214Y122543D01*
X149241Y122551D01*
X149266Y122557D01*
X149285Y122559D01*
X149299Y122562D01*
X149309Y122565D01*
X149312D01*
X149350Y122571D01*
X149394Y122579D01*
X149487Y122587D01*
X149582Y122595D01*
X149675Y122598D01*
X149719Y122600D01*
X149757D01*
X149795Y122603D01*
X151311D01*
Y118825D01*
D02*
G37*
G36*
X147849D02*
X147385D01*
Y121563D01*
X147849D01*
Y118825D01*
D02*
G37*
G36*
X138695Y121620D02*
X138750Y121609D01*
X138799Y121593D01*
X138845Y121577D01*
X138881Y121558D01*
X138908Y121544D01*
X138919Y121536D01*
X138927Y121533D01*
X138930Y121528D01*
X138933D01*
X138957Y121509D01*
X138985Y121484D01*
X139009Y121457D01*
X139034Y121429D01*
X139083Y121364D01*
X139129Y121301D01*
X139167Y121241D01*
X139184Y121214D01*
X139198Y121189D01*
X139208Y121170D01*
X139217Y121156D01*
X139222Y121145D01*
X139225Y121143D01*
Y121563D01*
X139643D01*
Y118825D01*
X139178D01*
Y120255D01*
X139176Y120365D01*
X139167Y120466D01*
X139159Y120512D01*
X139154Y120556D01*
X139148Y120597D01*
X139140Y120638D01*
X139132Y120670D01*
X139127Y120703D01*
X139118Y120730D01*
X139113Y120752D01*
X139110Y120771D01*
X139105Y120785D01*
X139102Y120793D01*
Y120796D01*
X139080Y120853D01*
X139053Y120905D01*
X139025Y120949D01*
X138996Y120984D01*
X138971Y121012D01*
X138949Y121034D01*
X138935Y121044D01*
X138930Y121050D01*
X138883Y121080D01*
X138837Y121105D01*
X138791Y121121D01*
X138750Y121132D01*
X138714Y121137D01*
X138684Y121143D01*
X138660D01*
X138597Y121137D01*
X138534Y121126D01*
X138477Y121113D01*
X138428Y121093D01*
X138384Y121074D01*
X138365Y121066D01*
X138351Y121061D01*
X138338Y121053D01*
X138329Y121050D01*
X138324Y121044D01*
X138321D01*
X138157Y121473D01*
X138204Y121500D01*
X138248Y121522D01*
X138291Y121544D01*
X138335Y121560D01*
X138414Y121588D01*
X138452Y121596D01*
X138488Y121604D01*
X138521Y121609D01*
X138548Y121615D01*
X138572Y121618D01*
X138594Y121620D01*
X138610Y121623D01*
X138635D01*
X138695Y121620D01*
D02*
G37*
G36*
X137841Y118825D02*
X135482D01*
Y119270D01*
X137341D01*
Y122603D01*
X137841D01*
Y118825D01*
D02*
G37*
G36*
X116451Y121618D02*
X116549Y121604D01*
X116639Y121582D01*
X116724Y121552D01*
X116803Y121519D01*
X116874Y121481D01*
X116940Y121440D01*
X116997Y121399D01*
X117049Y121356D01*
X117093Y121315D01*
X117131Y121276D01*
X117164Y121244D01*
X117185Y121214D01*
X117205Y121192D01*
X117216Y121178D01*
X117218Y121173D01*
Y121563D01*
X117636D01*
Y118825D01*
X117172D01*
Y120318D01*
X117169Y120414D01*
X117164Y120501D01*
X117153Y120580D01*
X117139Y120651D01*
X117123Y120717D01*
X117104Y120777D01*
X117085Y120829D01*
X117065Y120872D01*
X117046Y120913D01*
X117027Y120946D01*
X117008Y120973D01*
X116992Y120995D01*
X116978Y121012D01*
X116967Y121025D01*
X116962Y121031D01*
X116959Y121034D01*
X116918Y121066D01*
X116874Y121096D01*
X116831Y121121D01*
X116787Y121143D01*
X116743Y121162D01*
X116702Y121175D01*
X116661Y121189D01*
X116620Y121197D01*
X116585Y121205D01*
X116552Y121211D01*
X116522Y121216D01*
X116495Y121219D01*
X116476Y121222D01*
X116446D01*
X116377Y121219D01*
X116317Y121208D01*
X116263Y121195D01*
X116214Y121181D01*
X116175Y121165D01*
X116148Y121151D01*
X116137Y121145D01*
X116129Y121140D01*
X116126Y121137D01*
X116123D01*
X116074Y121105D01*
X116033Y121066D01*
X116001Y121028D01*
X115973Y120993D01*
X115954Y120960D01*
X115941Y120935D01*
X115935Y120924D01*
X115932Y120916D01*
X115930Y120913D01*
Y120911D01*
X115919Y120883D01*
X115911Y120853D01*
X115897Y120785D01*
X115889Y120717D01*
X115881Y120646D01*
Y120616D01*
X115878Y120586D01*
Y120559D01*
X115875Y120534D01*
Y120515D01*
Y120501D01*
Y120490D01*
Y120487D01*
Y118825D01*
X115411D01*
Y120507D01*
Y120564D01*
Y120618D01*
X115414Y120668D01*
X115417Y120714D01*
Y120755D01*
X115419Y120791D01*
X115422Y120823D01*
X115425Y120853D01*
X115427Y120878D01*
X115430Y120900D01*
X115433Y120919D01*
Y120932D01*
X115436Y120943D01*
X115438Y120952D01*
Y120954D01*
Y120957D01*
X115457Y121028D01*
X115479Y121093D01*
X115501Y121154D01*
X115526Y121203D01*
X115548Y121244D01*
X115558Y121260D01*
X115567Y121274D01*
X115572Y121285D01*
X115577Y121293D01*
X115583Y121296D01*
Y121298D01*
X115627Y121350D01*
X115676Y121397D01*
X115728Y121438D01*
X115777Y121470D01*
X115823Y121498D01*
X115842Y121509D01*
X115859Y121517D01*
X115875Y121525D01*
X115886Y121530D01*
X115892Y121533D01*
X115894D01*
X115973Y121563D01*
X116053Y121585D01*
X116129Y121601D01*
X116197Y121612D01*
X116230Y121615D01*
X116257Y121618D01*
X116285Y121620D01*
X116306Y121623D01*
X116347D01*
X116451Y121618D01*
D02*
G37*
G36*
X184868Y121620D02*
X184941Y121615D01*
X185010Y121604D01*
X185070Y121596D01*
X185094Y121590D01*
X185119Y121585D01*
X185141Y121580D01*
X185157Y121574D01*
X185171Y121571D01*
X185182Y121569D01*
X185187Y121566D01*
X185190D01*
X185255Y121544D01*
X185315Y121522D01*
X185364Y121500D01*
X185406Y121478D01*
X185441Y121459D01*
X185466Y121446D01*
X185479Y121435D01*
X185485Y121432D01*
X185537Y121391D01*
X185580Y121347D01*
X185621Y121304D01*
X185654Y121263D01*
X185679Y121227D01*
X185698Y121200D01*
X185706Y121189D01*
X185711Y121181D01*
X185714Y121176D01*
Y121173D01*
X185741Y121113D01*
X185760Y121055D01*
X185777Y120998D01*
X185785Y120946D01*
X185790Y120900D01*
X185793Y120881D01*
Y120864D01*
X185796Y120853D01*
Y120842D01*
Y120837D01*
Y120834D01*
X185790Y120761D01*
X185780Y120692D01*
X185763Y120629D01*
X185744Y120575D01*
X185736Y120550D01*
X185728Y120528D01*
X185719Y120509D01*
X185711Y120496D01*
X185703Y120482D01*
X185700Y120474D01*
X185695Y120468D01*
Y120466D01*
X185654Y120406D01*
X185605Y120354D01*
X185556Y120310D01*
X185509Y120274D01*
X185466Y120245D01*
X185446Y120234D01*
X185430Y120223D01*
X185416Y120217D01*
X185406Y120212D01*
X185400Y120206D01*
X185397D01*
X185356Y120190D01*
X185310Y120171D01*
X185258Y120152D01*
X185204Y120133D01*
X185086Y120094D01*
X184969Y120059D01*
X184911Y120043D01*
X184860Y120029D01*
X184813Y120015D01*
X184769Y120004D01*
X184737Y119996D01*
X184709Y119988D01*
X184693Y119985D01*
X184690Y119982D01*
X184687D01*
X184619Y119966D01*
X184556Y119950D01*
X184502Y119933D01*
X184453Y119920D01*
X184409Y119906D01*
X184368Y119892D01*
X184335Y119881D01*
X184305Y119870D01*
X184283Y119860D01*
X184262Y119851D01*
X184245Y119843D01*
X184232Y119838D01*
X184223Y119832D01*
X184218Y119830D01*
X184213Y119827D01*
X184188Y119810D01*
X184166Y119791D01*
X184147Y119770D01*
X184131Y119750D01*
X184106Y119709D01*
X184090Y119671D01*
X184081Y119636D01*
X184076Y119606D01*
X184073Y119597D01*
Y119589D01*
Y119584D01*
Y119581D01*
X184076Y119548D01*
X184079Y119518D01*
X184087Y119488D01*
X184098Y119461D01*
X184122Y119406D01*
X184150Y119363D01*
X184180Y119327D01*
X184204Y119300D01*
X184215Y119289D01*
X184223Y119281D01*
X184226Y119278D01*
X184229Y119275D01*
X184259Y119254D01*
X184294Y119234D01*
X184368Y119202D01*
X184447Y119180D01*
X184524Y119163D01*
X184562Y119158D01*
X184595Y119155D01*
X184625Y119150D01*
X184652D01*
X184674Y119147D01*
X184704D01*
X184761Y119150D01*
X184816Y119152D01*
X184868Y119161D01*
X184917Y119169D01*
X184960Y119180D01*
X185001Y119193D01*
X185040Y119207D01*
X185072Y119221D01*
X185102Y119232D01*
X185127Y119245D01*
X185149Y119259D01*
X185168Y119270D01*
X185182Y119278D01*
X185193Y119286D01*
X185198Y119289D01*
X185201Y119292D01*
X185231Y119322D01*
X185261Y119352D01*
X185285Y119385D01*
X185307Y119420D01*
X185345Y119491D01*
X185373Y119559D01*
X185384Y119589D01*
X185392Y119619D01*
X185400Y119647D01*
X185406Y119668D01*
X185408Y119688D01*
X185411Y119704D01*
X185414Y119712D01*
Y119715D01*
X185872Y119644D01*
X185856Y119565D01*
X185834Y119491D01*
X185812Y119420D01*
X185785Y119357D01*
X185755Y119297D01*
X185728Y119243D01*
X185695Y119196D01*
X185665Y119152D01*
X185637Y119112D01*
X185610Y119079D01*
X185583Y119052D01*
X185561Y119027D01*
X185545Y119011D01*
X185528Y118997D01*
X185520Y118989D01*
X185517Y118986D01*
X185463Y118948D01*
X185403Y118912D01*
X185337Y118882D01*
X185272Y118858D01*
X185204Y118836D01*
X185135Y118819D01*
X185070Y118803D01*
X185004Y118792D01*
X184941Y118784D01*
X184884Y118776D01*
X184835Y118773D01*
X184789Y118768D01*
X184753D01*
X184726Y118765D01*
X184701D01*
X184584Y118770D01*
X184475Y118781D01*
X184425Y118792D01*
X184376Y118800D01*
X184333Y118811D01*
X184292Y118822D01*
X184256Y118830D01*
X184223Y118841D01*
X184193Y118852D01*
X184169Y118860D01*
X184150Y118866D01*
X184136Y118871D01*
X184128Y118877D01*
X184125D01*
X184079Y118899D01*
X184035Y118923D01*
X183994Y118948D01*
X183956Y118972D01*
X183920Y119000D01*
X183888Y119027D01*
X183858Y119052D01*
X183833Y119076D01*
X183808Y119101D01*
X183789Y119123D01*
X183770Y119142D01*
X183757Y119161D01*
X183746Y119174D01*
X183737Y119185D01*
X183735Y119191D01*
X183732Y119193D01*
X183707Y119232D01*
X183686Y119270D01*
X183669Y119311D01*
X183653Y119349D01*
X183628Y119423D01*
X183612Y119488D01*
X183606Y119518D01*
X183604Y119546D01*
X183598Y119570D01*
Y119592D01*
X183596Y119608D01*
Y119619D01*
Y119627D01*
Y119630D01*
X183601Y119715D01*
X183612Y119791D01*
X183631Y119857D01*
X183642Y119887D01*
X183650Y119914D01*
X183661Y119939D01*
X183672Y119961D01*
X183680Y119980D01*
X183691Y119996D01*
X183696Y120007D01*
X183702Y120015D01*
X183707Y120021D01*
Y120023D01*
X183754Y120081D01*
X183803Y120130D01*
X183852Y120171D01*
X183901Y120206D01*
X183945Y120234D01*
X183964Y120245D01*
X183980Y120253D01*
X183994Y120261D01*
X184005Y120266D01*
X184010Y120269D01*
X184013D01*
X184054Y120285D01*
X184098Y120302D01*
X184150Y120321D01*
X184202Y120337D01*
X184316Y120376D01*
X184431Y120408D01*
X184483Y120425D01*
X184535Y120438D01*
X184581Y120452D01*
X184622Y120463D01*
X184655Y120471D01*
X184679Y120479D01*
X184696Y120482D01*
X184698Y120485D01*
X184701D01*
X184761Y120501D01*
X184818Y120518D01*
X184868Y120531D01*
X184911Y120542D01*
X184950Y120553D01*
X184982Y120564D01*
X185012Y120572D01*
X185037Y120578D01*
X185056Y120586D01*
X185072Y120589D01*
X185086Y120594D01*
X185097Y120597D01*
X185105Y120599D01*
X185111Y120602D01*
X185113D01*
X185157Y120621D01*
X185193Y120643D01*
X185225Y120662D01*
X185250Y120681D01*
X185269Y120700D01*
X185283Y120714D01*
X185291Y120722D01*
X185294Y120725D01*
X185313Y120752D01*
X185326Y120782D01*
X185335Y120810D01*
X185340Y120834D01*
X185345Y120856D01*
X185348Y120872D01*
Y120886D01*
Y120889D01*
X185345Y120913D01*
X185343Y120941D01*
X185326Y120987D01*
X185304Y121028D01*
X185280Y121063D01*
X185255Y121094D01*
X185233Y121115D01*
X185217Y121129D01*
X185214Y121134D01*
X185212D01*
X185184Y121154D01*
X185152Y121170D01*
X185119Y121184D01*
X185083Y121197D01*
X185007Y121216D01*
X184931Y121227D01*
X184895Y121233D01*
X184862Y121236D01*
X184832Y121238D01*
X184805D01*
X184783Y121241D01*
X184704D01*
X184658Y121236D01*
X184614Y121230D01*
X184573Y121222D01*
X184537Y121214D01*
X184502Y121203D01*
X184472Y121192D01*
X184442Y121181D01*
X184417Y121170D01*
X184395Y121159D01*
X184379Y121148D01*
X184363Y121140D01*
X184352Y121132D01*
X184341Y121126D01*
X184338Y121124D01*
X184335Y121121D01*
X184308Y121099D01*
X184283Y121074D01*
X184242Y121020D01*
X184213Y120965D01*
X184188Y120913D01*
X184171Y120867D01*
X184163Y120845D01*
X184161Y120829D01*
X184155Y120812D01*
Y120801D01*
X184152Y120796D01*
Y120793D01*
X183699Y120856D01*
X183718Y120952D01*
X183732Y120993D01*
X183746Y121034D01*
X183757Y121072D01*
X183770Y121107D01*
X183784Y121137D01*
X183798Y121167D01*
X183811Y121192D01*
X183822Y121216D01*
X183833Y121236D01*
X183844Y121249D01*
X183852Y121263D01*
X183858Y121271D01*
X183860Y121276D01*
X183863Y121279D01*
X183885Y121309D01*
X183912Y121336D01*
X183967Y121386D01*
X184027Y121429D01*
X184084Y121465D01*
X184139Y121492D01*
X184161Y121503D01*
X184180Y121514D01*
X184196Y121522D01*
X184210Y121525D01*
X184218Y121530D01*
X184221D01*
X184313Y121560D01*
X184412Y121585D01*
X184507Y121601D01*
X184554Y121607D01*
X184595Y121612D01*
X184636Y121615D01*
X184674Y121618D01*
X184707Y121620D01*
X184734Y121623D01*
X184789D01*
X184868Y121620D01*
D02*
G37*
G36*
X159151Y121620D02*
X159241Y121609D01*
X159326Y121596D01*
X159405Y121577D01*
X159481Y121552D01*
X159552Y121528D01*
X159618Y121498D01*
X159678Y121470D01*
X159733Y121443D01*
X159779Y121413D01*
X159820Y121388D01*
X159855Y121367D01*
X159883Y121345D01*
X159902Y121331D01*
X159913Y121320D01*
X159918Y121317D01*
X159992Y121244D01*
X160057Y121165D01*
X160112Y121077D01*
X160161Y120987D01*
X160202Y120894D01*
X160235Y120801D01*
X160265Y120709D01*
X160287Y120618D01*
X160303Y120531D01*
X160317Y120452D01*
X160325Y120381D01*
X160330Y120348D01*
X160333Y120318D01*
Y120291D01*
X160336Y120266D01*
Y120245D01*
X160339Y120225D01*
Y120212D01*
Y120201D01*
Y120195D01*
Y120193D01*
X160336Y120067D01*
X160322Y119947D01*
X160306Y119838D01*
X160284Y119734D01*
X160257Y119638D01*
X160227Y119551D01*
X160194Y119472D01*
X160161Y119401D01*
X160128Y119338D01*
X160098Y119283D01*
X160068Y119237D01*
X160041Y119199D01*
X160019Y119169D01*
X160003Y119147D01*
X159989Y119136D01*
X159986Y119131D01*
X159918Y119065D01*
X159845Y119010D01*
X159768Y118961D01*
X159692Y118921D01*
X159615Y118885D01*
X159536Y118855D01*
X159462Y118830D01*
X159389Y118811D01*
X159320Y118795D01*
X159257Y118784D01*
X159203Y118776D01*
X159154Y118770D01*
X159113Y118768D01*
X159097D01*
X159083Y118765D01*
X159058D01*
X158990Y118768D01*
X158927Y118773D01*
X158864Y118781D01*
X158802Y118792D01*
X158744Y118803D01*
X158690Y118817D01*
X158641Y118833D01*
X158591Y118850D01*
X158551Y118863D01*
X158512Y118879D01*
X158479Y118893D01*
X158449Y118907D01*
X158428Y118915D01*
X158411Y118923D01*
X158400Y118929D01*
X158398Y118931D01*
X158343Y118964D01*
X158291Y119000D01*
X158242Y119038D01*
X158198Y119076D01*
X158157Y119114D01*
X158119Y119152D01*
X158084Y119191D01*
X158054Y119229D01*
X158026Y119264D01*
X158002Y119297D01*
X157983Y119325D01*
X157966Y119352D01*
X157953Y119371D01*
X157944Y119387D01*
X157939Y119398D01*
X157936Y119401D01*
X157909Y119461D01*
X157882Y119524D01*
X157862Y119589D01*
X157843Y119658D01*
X157827Y119729D01*
X157813Y119797D01*
X157802Y119865D01*
X157794Y119931D01*
X157789Y119991D01*
X157783Y120048D01*
X157781Y120100D01*
X157778Y120143D01*
X157775Y120179D01*
Y120209D01*
Y120217D01*
Y120225D01*
Y120228D01*
Y120231D01*
X157778Y120351D01*
X157791Y120463D01*
X157808Y120567D01*
X157833Y120665D01*
X157860Y120758D01*
X157890Y120840D01*
X157923Y120916D01*
X157955Y120987D01*
X157988Y121047D01*
X158021Y121102D01*
X158051Y121145D01*
X158078Y121184D01*
X158103Y121214D01*
X158119Y121236D01*
X158130Y121246D01*
X158135Y121252D01*
X158204Y121317D01*
X158277Y121375D01*
X158354Y121424D01*
X158430Y121468D01*
X158507Y121503D01*
X158583Y121533D01*
X158660Y121558D01*
X158731Y121577D01*
X158799Y121593D01*
X158862Y121604D01*
X158916Y121612D01*
X158965Y121618D01*
X159004Y121620D01*
X159020Y121623D01*
X159058D01*
X159151Y121620D01*
D02*
G37*
G36*
X145861D02*
X145935Y121615D01*
X146003Y121604D01*
X146063Y121596D01*
X146088Y121590D01*
X146113Y121585D01*
X146134Y121580D01*
X146151Y121574D01*
X146165Y121571D01*
X146175Y121569D01*
X146181Y121566D01*
X146184D01*
X146249Y121544D01*
X146309Y121522D01*
X146358Y121500D01*
X146399Y121478D01*
X146435Y121459D01*
X146459Y121446D01*
X146473Y121435D01*
X146478Y121432D01*
X146530Y121391D01*
X146574Y121347D01*
X146615Y121304D01*
X146648Y121263D01*
X146672Y121227D01*
X146691Y121200D01*
X146700Y121189D01*
X146705Y121181D01*
X146708Y121175D01*
Y121173D01*
X146735Y121113D01*
X146754Y121055D01*
X146771Y120998D01*
X146779Y120946D01*
X146784Y120900D01*
X146787Y120881D01*
Y120864D01*
X146790Y120853D01*
Y120842D01*
Y120837D01*
Y120834D01*
X146784Y120761D01*
X146773Y120692D01*
X146757Y120629D01*
X146738Y120575D01*
X146730Y120550D01*
X146721Y120528D01*
X146713Y120509D01*
X146705Y120496D01*
X146697Y120482D01*
X146694Y120474D01*
X146689Y120468D01*
Y120466D01*
X146648Y120406D01*
X146598Y120354D01*
X146549Y120310D01*
X146503Y120274D01*
X146459Y120245D01*
X146440Y120234D01*
X146424Y120223D01*
X146410Y120217D01*
X146399Y120212D01*
X146394Y120206D01*
X146391D01*
X146350Y120190D01*
X146304Y120171D01*
X146252Y120152D01*
X146197Y120133D01*
X146080Y120094D01*
X145962Y120059D01*
X145905Y120043D01*
X145853Y120029D01*
X145807Y120015D01*
X145763Y120004D01*
X145730Y119996D01*
X145703Y119988D01*
X145687Y119985D01*
X145684Y119982D01*
X145681D01*
X145613Y119966D01*
X145550Y119950D01*
X145496Y119933D01*
X145447Y119920D01*
X145403Y119906D01*
X145362Y119892D01*
X145329Y119881D01*
X145299Y119870D01*
X145277Y119860D01*
X145255Y119851D01*
X145239Y119843D01*
X145225Y119838D01*
X145217Y119832D01*
X145212Y119829D01*
X145206Y119827D01*
X145182Y119810D01*
X145160Y119791D01*
X145141Y119770D01*
X145124Y119750D01*
X145100Y119709D01*
X145083Y119671D01*
X145075Y119636D01*
X145070Y119606D01*
X145067Y119597D01*
Y119589D01*
Y119584D01*
Y119581D01*
X145070Y119548D01*
X145072Y119518D01*
X145081Y119488D01*
X145092Y119461D01*
X145116Y119406D01*
X145143Y119363D01*
X145174Y119327D01*
X145198Y119300D01*
X145209Y119289D01*
X145217Y119281D01*
X145220Y119278D01*
X145223Y119275D01*
X145253Y119254D01*
X145288Y119234D01*
X145362Y119202D01*
X145441Y119180D01*
X145518Y119163D01*
X145556Y119158D01*
X145588Y119155D01*
X145618Y119150D01*
X145646D01*
X145668Y119147D01*
X145698D01*
X145755Y119150D01*
X145810Y119152D01*
X145861Y119161D01*
X145911Y119169D01*
X145954Y119180D01*
X145995Y119193D01*
X146033Y119207D01*
X146066Y119221D01*
X146096Y119232D01*
X146121Y119245D01*
X146143Y119259D01*
X146162Y119270D01*
X146175Y119278D01*
X146186Y119286D01*
X146192Y119289D01*
X146195Y119292D01*
X146224Y119322D01*
X146255Y119352D01*
X146279Y119385D01*
X146301Y119420D01*
X146339Y119491D01*
X146367Y119559D01*
X146377Y119589D01*
X146386Y119619D01*
X146394Y119647D01*
X146399Y119668D01*
X146402Y119688D01*
X146405Y119704D01*
X146407Y119712D01*
Y119715D01*
X146866Y119644D01*
X146850Y119565D01*
X146828Y119491D01*
X146806Y119420D01*
X146779Y119357D01*
X146749Y119297D01*
X146721Y119243D01*
X146689Y119196D01*
X146659Y119152D01*
X146631Y119112D01*
X146604Y119079D01*
X146577Y119052D01*
X146555Y119027D01*
X146538Y119010D01*
X146522Y118997D01*
X146514Y118989D01*
X146511Y118986D01*
X146457Y118948D01*
X146397Y118912D01*
X146331Y118882D01*
X146265Y118858D01*
X146197Y118836D01*
X146129Y118819D01*
X146063Y118803D01*
X145998Y118792D01*
X145935Y118784D01*
X145878Y118776D01*
X145829Y118773D01*
X145782Y118768D01*
X145747D01*
X145720Y118765D01*
X145695D01*
X145578Y118770D01*
X145468Y118781D01*
X145419Y118792D01*
X145370Y118800D01*
X145326Y118811D01*
X145285Y118822D01*
X145250Y118830D01*
X145217Y118841D01*
X145187Y118852D01*
X145163Y118860D01*
X145143Y118866D01*
X145130Y118871D01*
X145122Y118877D01*
X145119D01*
X145072Y118899D01*
X145029Y118923D01*
X144988Y118948D01*
X144950Y118972D01*
X144914Y119000D01*
X144881Y119027D01*
X144851Y119052D01*
X144827Y119076D01*
X144802Y119101D01*
X144783Y119123D01*
X144764Y119142D01*
X144750Y119161D01*
X144739Y119174D01*
X144731Y119185D01*
X144729Y119191D01*
X144726Y119193D01*
X144701Y119232D01*
X144679Y119270D01*
X144663Y119311D01*
X144647Y119349D01*
X144622Y119423D01*
X144606Y119488D01*
X144600Y119518D01*
X144597Y119546D01*
X144592Y119570D01*
Y119592D01*
X144589Y119608D01*
Y119619D01*
Y119627D01*
Y119630D01*
X144595Y119715D01*
X144606Y119791D01*
X144625Y119857D01*
X144636Y119887D01*
X144644Y119914D01*
X144655Y119939D01*
X144666Y119961D01*
X144674Y119980D01*
X144685Y119996D01*
X144690Y120007D01*
X144696Y120015D01*
X144701Y120021D01*
Y120023D01*
X144748Y120081D01*
X144797Y120130D01*
X144846Y120171D01*
X144895Y120206D01*
X144939Y120234D01*
X144958Y120245D01*
X144974Y120253D01*
X144988Y120261D01*
X144999Y120266D01*
X145004Y120269D01*
X145007D01*
X145048Y120285D01*
X145092Y120302D01*
X145143Y120321D01*
X145195Y120337D01*
X145310Y120376D01*
X145425Y120408D01*
X145476Y120425D01*
X145528Y120438D01*
X145575Y120452D01*
X145616Y120463D01*
X145649Y120471D01*
X145673Y120479D01*
X145689Y120482D01*
X145692Y120485D01*
X145695D01*
X145755Y120501D01*
X145812Y120518D01*
X145861Y120531D01*
X145905Y120542D01*
X145943Y120553D01*
X145976Y120564D01*
X146006Y120572D01*
X146031Y120578D01*
X146050Y120586D01*
X146066Y120589D01*
X146080Y120594D01*
X146091Y120597D01*
X146099Y120599D01*
X146104Y120602D01*
X146107D01*
X146151Y120621D01*
X146186Y120643D01*
X146219Y120662D01*
X146244Y120681D01*
X146263Y120700D01*
X146276Y120714D01*
X146285Y120722D01*
X146287Y120725D01*
X146306Y120752D01*
X146320Y120782D01*
X146328Y120810D01*
X146334Y120834D01*
X146339Y120856D01*
X146342Y120872D01*
Y120886D01*
Y120889D01*
X146339Y120913D01*
X146336Y120941D01*
X146320Y120987D01*
X146298Y121028D01*
X146274Y121063D01*
X146249Y121093D01*
X146227Y121115D01*
X146211Y121129D01*
X146208Y121134D01*
X146205D01*
X146178Y121154D01*
X146145Y121170D01*
X146113Y121184D01*
X146077Y121197D01*
X146001Y121216D01*
X145924Y121227D01*
X145889Y121233D01*
X145856Y121236D01*
X145826Y121238D01*
X145799D01*
X145777Y121241D01*
X145698D01*
X145651Y121236D01*
X145607Y121230D01*
X145567Y121222D01*
X145531Y121214D01*
X145496Y121203D01*
X145466Y121192D01*
X145436Y121181D01*
X145411Y121170D01*
X145389Y121159D01*
X145373Y121148D01*
X145356Y121140D01*
X145345Y121132D01*
X145334Y121126D01*
X145332Y121124D01*
X145329Y121121D01*
X145302Y121099D01*
X145277Y121074D01*
X145236Y121020D01*
X145206Y120965D01*
X145182Y120913D01*
X145165Y120867D01*
X145157Y120845D01*
X145154Y120829D01*
X145149Y120812D01*
Y120801D01*
X145146Y120796D01*
Y120793D01*
X144693Y120856D01*
X144712Y120952D01*
X144726Y120993D01*
X144739Y121034D01*
X144750Y121072D01*
X144764Y121107D01*
X144778Y121137D01*
X144791Y121167D01*
X144805Y121192D01*
X144816Y121216D01*
X144827Y121236D01*
X144838Y121249D01*
X144846Y121263D01*
X144851Y121271D01*
X144854Y121276D01*
X144857Y121279D01*
X144879Y121309D01*
X144906Y121336D01*
X144960Y121386D01*
X145021Y121429D01*
X145078Y121465D01*
X145133Y121492D01*
X145154Y121503D01*
X145174Y121514D01*
X145190Y121522D01*
X145203Y121525D01*
X145212Y121530D01*
X145214D01*
X145307Y121560D01*
X145405Y121585D01*
X145501Y121601D01*
X145547Y121607D01*
X145588Y121612D01*
X145629Y121615D01*
X145668Y121618D01*
X145700Y121620D01*
X145728Y121623D01*
X145782D01*
X145861Y121620D01*
D02*
G37*
G36*
X119555D02*
X119645Y121609D01*
X119730Y121596D01*
X119809Y121577D01*
X119886Y121552D01*
X119957Y121528D01*
X120022Y121498D01*
X120082Y121470D01*
X120137Y121443D01*
X120183Y121413D01*
X120224Y121388D01*
X120259Y121367D01*
X120287Y121345D01*
X120306Y121331D01*
X120317Y121320D01*
X120322Y121317D01*
X120396Y121244D01*
X120461Y121165D01*
X120516Y121077D01*
X120565Y120987D01*
X120606Y120894D01*
X120639Y120801D01*
X120669Y120709D01*
X120691Y120618D01*
X120707Y120531D01*
X120721Y120452D01*
X120729Y120381D01*
X120735Y120348D01*
X120737Y120318D01*
Y120291D01*
X120740Y120266D01*
Y120245D01*
X120743Y120225D01*
Y120212D01*
Y120201D01*
Y120195D01*
Y120193D01*
X120740Y120067D01*
X120726Y119947D01*
X120710Y119838D01*
X120688Y119734D01*
X120661Y119638D01*
X120631Y119551D01*
X120598Y119472D01*
X120565Y119401D01*
X120533Y119338D01*
X120502Y119283D01*
X120472Y119237D01*
X120445Y119199D01*
X120423Y119169D01*
X120407Y119147D01*
X120393Y119136D01*
X120390Y119131D01*
X120322Y119065D01*
X120249Y119010D01*
X120172Y118961D01*
X120096Y118921D01*
X120019Y118885D01*
X119940Y118855D01*
X119866Y118830D01*
X119793Y118811D01*
X119724Y118795D01*
X119662Y118784D01*
X119607Y118776D01*
X119558Y118770D01*
X119517Y118768D01*
X119501D01*
X119487Y118765D01*
X119462D01*
X119394Y118768D01*
X119331Y118773D01*
X119269Y118781D01*
X119206Y118792D01*
X119148Y118803D01*
X119094Y118817D01*
X119045Y118833D01*
X118995Y118850D01*
X118955Y118863D01*
X118916Y118879D01*
X118884Y118893D01*
X118853Y118907D01*
X118832Y118915D01*
X118815Y118923D01*
X118804Y118929D01*
X118802Y118931D01*
X118747Y118964D01*
X118695Y119000D01*
X118646Y119038D01*
X118602Y119076D01*
X118561Y119114D01*
X118523Y119152D01*
X118488Y119191D01*
X118458Y119229D01*
X118430Y119264D01*
X118406Y119297D01*
X118387Y119325D01*
X118370Y119352D01*
X118357Y119371D01*
X118349Y119387D01*
X118343Y119398D01*
X118340Y119401D01*
X118313Y119461D01*
X118286Y119524D01*
X118267Y119589D01*
X118247Y119658D01*
X118231Y119729D01*
X118218Y119797D01*
X118207Y119865D01*
X118198Y119931D01*
X118193Y119991D01*
X118187Y120048D01*
X118185Y120100D01*
X118182Y120143D01*
X118179Y120179D01*
Y120209D01*
Y120217D01*
Y120225D01*
Y120228D01*
Y120231D01*
X118182Y120351D01*
X118196Y120463D01*
X118212Y120567D01*
X118237Y120665D01*
X118264Y120758D01*
X118294Y120840D01*
X118327Y120916D01*
X118359Y120987D01*
X118392Y121047D01*
X118425Y121102D01*
X118455Y121145D01*
X118482Y121184D01*
X118507Y121214D01*
X118523Y121236D01*
X118534Y121246D01*
X118540Y121252D01*
X118608Y121317D01*
X118682Y121375D01*
X118758Y121424D01*
X118834Y121468D01*
X118911Y121503D01*
X118987Y121533D01*
X119064Y121558D01*
X119135Y121577D01*
X119203Y121593D01*
X119266Y121604D01*
X119320Y121612D01*
X119369Y121618D01*
X119408Y121620D01*
X119424Y121623D01*
X119462D01*
X119555Y121620D01*
D02*
G37*
G36*
X181928Y118759D02*
X181556D01*
X180461Y122666D01*
X180833D01*
X181928Y118759D01*
D02*
G37*
G36*
X180461D02*
X180090D01*
X178995Y122666D01*
X179367D01*
X180461Y118759D01*
D02*
G37*
G36*
X153183Y118759D02*
X152812D01*
X151717Y122666D01*
X152089D01*
X153183Y118759D01*
D02*
G37*
G36*
X129424D02*
X129053D01*
X127958Y122666D01*
X128329D01*
X129424Y118759D01*
D02*
G37*
G36*
X187502Y121618D02*
X187590Y121607D01*
X187630Y121599D01*
X187669Y121590D01*
X187704Y121580D01*
X187734Y121571D01*
X187764Y121560D01*
X187789Y121549D01*
X187811Y121541D01*
X187830Y121533D01*
X187843Y121528D01*
X187854Y121522D01*
X187860Y121517D01*
X187863D01*
X187931Y121473D01*
X187994Y121424D01*
X188051Y121372D01*
X188100Y121323D01*
X188141Y121276D01*
X188157Y121257D01*
X188171Y121241D01*
X188185Y121225D01*
X188193Y121214D01*
X188196Y121208D01*
X188198Y121205D01*
Y121563D01*
X188621D01*
Y117777D01*
X188157D01*
Y119109D01*
X188111Y119054D01*
X188062Y119008D01*
X188010Y118964D01*
X187963Y118929D01*
X187920Y118899D01*
X187903Y118888D01*
X187887Y118879D01*
X187873Y118871D01*
X187865Y118866D01*
X187860Y118860D01*
X187857D01*
X187786Y118828D01*
X187712Y118806D01*
X187644Y118789D01*
X187579Y118776D01*
X187548Y118773D01*
X187521Y118770D01*
X187499Y118768D01*
X187478D01*
X187461Y118765D01*
X187439D01*
X187379Y118768D01*
X187322Y118773D01*
X187265Y118781D01*
X187210Y118792D01*
X187158Y118806D01*
X187109Y118822D01*
X187063Y118836D01*
X187019Y118855D01*
X186978Y118871D01*
X186943Y118885D01*
X186912Y118901D01*
X186885Y118915D01*
X186863Y118926D01*
X186850Y118934D01*
X186839Y118940D01*
X186836Y118942D01*
X186784Y118978D01*
X186735Y119016D01*
X186689Y119057D01*
X186648Y119098D01*
X186607Y119142D01*
X186571Y119185D01*
X186538Y119226D01*
X186511Y119267D01*
X186484Y119305D01*
X186462Y119344D01*
X186443Y119374D01*
X186426Y119404D01*
X186416Y119425D01*
X186407Y119445D01*
X186402Y119456D01*
X186399Y119458D01*
X186372Y119521D01*
X186347Y119587D01*
X186328Y119652D01*
X186312Y119718D01*
X186284Y119846D01*
X186274Y119906D01*
X186265Y119963D01*
X186260Y120015D01*
X186255Y120064D01*
X186252Y120108D01*
X186249Y120143D01*
X186246Y120174D01*
Y120195D01*
Y120209D01*
Y120214D01*
X186249Y120288D01*
X186252Y120356D01*
X186260Y120425D01*
X186268Y120490D01*
X186279Y120553D01*
X186290Y120613D01*
X186301Y120668D01*
X186315Y120720D01*
X186328Y120766D01*
X186339Y120810D01*
X186350Y120845D01*
X186361Y120875D01*
X186369Y120900D01*
X186377Y120919D01*
X186380Y120930D01*
X186383Y120932D01*
X186410Y120993D01*
X186440Y121047D01*
X186470Y121102D01*
X186503Y121151D01*
X186538Y121195D01*
X186571Y121238D01*
X186604Y121276D01*
X186637Y121309D01*
X186670Y121339D01*
X186697Y121367D01*
X186721Y121388D01*
X186746Y121407D01*
X186765Y121421D01*
X186779Y121432D01*
X186787Y121438D01*
X186790Y121440D01*
X186841Y121473D01*
X186893Y121500D01*
X186945Y121525D01*
X187000Y121547D01*
X187052Y121563D01*
X187103Y121580D01*
X187153Y121590D01*
X187199Y121601D01*
X187243Y121607D01*
X187281Y121612D01*
X187317Y121618D01*
X187346Y121620D01*
X187374Y121623D01*
X187407D01*
X187502Y121618D01*
D02*
G37*
G36*
X111824Y121618D02*
X111911Y121607D01*
X111952Y121599D01*
X111990Y121590D01*
X112026Y121580D01*
X112056Y121571D01*
X112086Y121560D01*
X112110Y121549D01*
X112132Y121541D01*
X112151Y121533D01*
X112165Y121528D01*
X112176Y121522D01*
X112181Y121517D01*
X112184D01*
X112252Y121473D01*
X112315Y121424D01*
X112373Y121372D01*
X112422Y121323D01*
X112463Y121276D01*
X112479Y121257D01*
X112493Y121241D01*
X112506Y121225D01*
X112514Y121214D01*
X112517Y121208D01*
X112520Y121205D01*
Y121563D01*
X112943D01*
Y117777D01*
X112479D01*
Y119109D01*
X112433Y119054D01*
X112383Y119008D01*
X112332Y118964D01*
X112285Y118929D01*
X112241Y118899D01*
X112225Y118888D01*
X112209Y118879D01*
X112195Y118871D01*
X112187Y118866D01*
X112181Y118860D01*
X112179D01*
X112108Y118828D01*
X112034Y118806D01*
X111966Y118789D01*
X111900Y118776D01*
X111870Y118773D01*
X111843Y118770D01*
X111821Y118768D01*
X111799D01*
X111783Y118765D01*
X111761D01*
X111701Y118768D01*
X111644Y118773D01*
X111586Y118781D01*
X111532Y118792D01*
X111480Y118806D01*
X111431Y118822D01*
X111384Y118836D01*
X111341Y118855D01*
X111300Y118871D01*
X111264Y118885D01*
X111234Y118901D01*
X111207Y118915D01*
X111185Y118926D01*
X111171Y118934D01*
X111160Y118940D01*
X111158Y118942D01*
X111106Y118978D01*
X111057Y119016D01*
X111010Y119057D01*
X110969Y119098D01*
X110928Y119142D01*
X110893Y119185D01*
X110860Y119226D01*
X110833Y119267D01*
X110805Y119305D01*
X110784Y119344D01*
X110765Y119374D01*
X110748Y119404D01*
X110737Y119425D01*
X110729Y119445D01*
X110724Y119456D01*
X110721Y119458D01*
X110694Y119521D01*
X110669Y119587D01*
X110650Y119652D01*
X110634Y119718D01*
X110606Y119846D01*
X110595Y119906D01*
X110587Y119963D01*
X110582Y120015D01*
X110576Y120064D01*
X110573Y120108D01*
X110571Y120143D01*
X110568Y120174D01*
Y120195D01*
Y120209D01*
Y120214D01*
X110571Y120288D01*
X110573Y120356D01*
X110582Y120425D01*
X110590Y120490D01*
X110601Y120553D01*
X110612Y120613D01*
X110623Y120668D01*
X110636Y120720D01*
X110650Y120766D01*
X110661Y120810D01*
X110672Y120845D01*
X110683Y120875D01*
X110691Y120900D01*
X110699Y120919D01*
X110702Y120930D01*
X110705Y120932D01*
X110732Y120993D01*
X110762Y121047D01*
X110792Y121102D01*
X110825Y121151D01*
X110860Y121195D01*
X110893Y121238D01*
X110926Y121276D01*
X110958Y121309D01*
X110991Y121339D01*
X111018Y121367D01*
X111043Y121388D01*
X111068Y121407D01*
X111087Y121421D01*
X111100Y121432D01*
X111109Y121438D01*
X111111Y121440D01*
X111163Y121473D01*
X111215Y121500D01*
X111267Y121525D01*
X111321Y121547D01*
X111373Y121563D01*
X111425Y121580D01*
X111474Y121590D01*
X111521Y121601D01*
X111564Y121607D01*
X111603Y121612D01*
X111638Y121618D01*
X111668Y121620D01*
X111696Y121623D01*
X111728D01*
X111824Y121618D01*
D02*
G37*
%LPC*%
G36*
X166055Y121241D02*
X166042D01*
X165987Y121238D01*
X165932Y121230D01*
X165883Y121216D01*
X165834Y121200D01*
X165790Y121181D01*
X165747Y121159D01*
X165708Y121137D01*
X165673Y121113D01*
X165640Y121088D01*
X165610Y121066D01*
X165586Y121044D01*
X165567Y121025D01*
X165550Y121009D01*
X165539Y120995D01*
X165531Y120987D01*
X165528Y120984D01*
X165490Y120932D01*
X165457Y120878D01*
X165430Y120818D01*
X165405Y120755D01*
X165384Y120689D01*
X165367Y120624D01*
X165354Y120559D01*
X165343Y120496D01*
X165334Y120436D01*
X165326Y120378D01*
X165321Y120326D01*
X165318Y120283D01*
X165315Y120247D01*
Y120220D01*
Y120209D01*
Y120201D01*
Y120198D01*
Y120195D01*
X165318Y120100D01*
X165324Y120012D01*
X165334Y119931D01*
X165351Y119851D01*
X165367Y119783D01*
X165386Y119718D01*
X165405Y119660D01*
X165425Y119606D01*
X165446Y119559D01*
X165466Y119521D01*
X165485Y119486D01*
X165501Y119458D01*
X165515Y119436D01*
X165526Y119423D01*
X165534Y119412D01*
X165536Y119409D01*
X165577Y119363D01*
X165621Y119322D01*
X165668Y119289D01*
X165711Y119259D01*
X165755Y119232D01*
X165799Y119210D01*
X165842Y119193D01*
X165881Y119180D01*
X165919Y119169D01*
X165954Y119161D01*
X165984Y119155D01*
X166009Y119152D01*
X166031Y119150D01*
X166047Y119147D01*
X166061D01*
X166129Y119150D01*
X166194Y119163D01*
X166254Y119180D01*
X166312Y119202D01*
X166364Y119229D01*
X166413Y119259D01*
X166456Y119292D01*
X166498Y119325D01*
X166533Y119357D01*
X166563Y119390D01*
X166590Y119420D01*
X166612Y119447D01*
X166631Y119469D01*
X166642Y119486D01*
X166650Y119499D01*
X166653Y119502D01*
X166675Y119546D01*
X166697Y119597D01*
X166713Y119649D01*
X166729Y119707D01*
X166751Y119824D01*
X166768Y119941D01*
X166773Y119996D01*
X166776Y120048D01*
X166781Y120094D01*
Y120135D01*
X166784Y120168D01*
Y120193D01*
Y120209D01*
Y120214D01*
X166781Y120305D01*
X166776Y120389D01*
X166765Y120468D01*
X166749Y120542D01*
X166732Y120610D01*
X166716Y120673D01*
X166694Y120730D01*
X166675Y120782D01*
X166656Y120826D01*
X166634Y120867D01*
X166618Y120900D01*
X166598Y120927D01*
X166585Y120949D01*
X166574Y120965D01*
X166569Y120973D01*
X166566Y120976D01*
X166522Y121023D01*
X166478Y121063D01*
X166435Y121099D01*
X166391Y121129D01*
X166347Y121156D01*
X166304Y121176D01*
X166260Y121195D01*
X166222Y121208D01*
X166183Y121219D01*
X166148Y121227D01*
X166118Y121233D01*
X166094Y121238D01*
X166072D01*
X166055Y121241D01*
D02*
G37*
G36*
X130860Y121241D02*
X130846D01*
X130792Y121238D01*
X130737Y121230D01*
X130688Y121216D01*
X130639Y121200D01*
X130595Y121181D01*
X130552Y121159D01*
X130513Y121137D01*
X130478Y121113D01*
X130445Y121088D01*
X130415Y121066D01*
X130391Y121044D01*
X130371Y121025D01*
X130355Y121009D01*
X130344Y120995D01*
X130336Y120987D01*
X130333Y120984D01*
X130295Y120932D01*
X130262Y120878D01*
X130235Y120818D01*
X130210Y120755D01*
X130189Y120689D01*
X130172Y120624D01*
X130158Y120559D01*
X130148Y120496D01*
X130139Y120436D01*
X130131Y120378D01*
X130126Y120326D01*
X130123Y120283D01*
X130120Y120247D01*
Y120220D01*
Y120209D01*
Y120201D01*
Y120198D01*
Y120195D01*
X130123Y120100D01*
X130128Y120012D01*
X130139Y119931D01*
X130156Y119851D01*
X130172Y119783D01*
X130191Y119718D01*
X130210Y119660D01*
X130229Y119606D01*
X130251Y119559D01*
X130270Y119521D01*
X130289Y119486D01*
X130306Y119458D01*
X130319Y119436D01*
X130331Y119423D01*
X130339Y119412D01*
X130341Y119409D01*
X130382Y119363D01*
X130426Y119322D01*
X130472Y119289D01*
X130516Y119259D01*
X130560Y119232D01*
X130604Y119210D01*
X130647Y119193D01*
X130685Y119180D01*
X130724Y119169D01*
X130759Y119161D01*
X130789Y119155D01*
X130814Y119152D01*
X130835Y119150D01*
X130852Y119147D01*
X130866D01*
X130934Y119150D01*
X130999Y119163D01*
X131059Y119180D01*
X131117Y119202D01*
X131169Y119229D01*
X131218Y119259D01*
X131261Y119292D01*
X131302Y119325D01*
X131338Y119357D01*
X131368Y119390D01*
X131395Y119420D01*
X131417Y119447D01*
X131436Y119469D01*
X131447Y119486D01*
X131455Y119499D01*
X131458Y119502D01*
X131480Y119546D01*
X131502Y119597D01*
X131518Y119649D01*
X131534Y119707D01*
X131556Y119824D01*
X131573Y119941D01*
X131578Y119996D01*
X131581Y120048D01*
X131586Y120094D01*
Y120135D01*
X131589Y120168D01*
Y120193D01*
Y120209D01*
Y120214D01*
X131586Y120305D01*
X131581Y120389D01*
X131570Y120468D01*
X131553Y120542D01*
X131537Y120610D01*
X131521Y120673D01*
X131499Y120730D01*
X131480Y120782D01*
X131461Y120826D01*
X131439Y120867D01*
X131422Y120900D01*
X131403Y120927D01*
X131390Y120949D01*
X131379Y120965D01*
X131373Y120973D01*
X131371Y120976D01*
X131327Y121023D01*
X131283Y121063D01*
X131240Y121099D01*
X131196Y121129D01*
X131152Y121156D01*
X131108Y121175D01*
X131065Y121195D01*
X131027Y121208D01*
X130988Y121219D01*
X130953Y121227D01*
X130923Y121233D01*
X130898Y121238D01*
X130877D01*
X130860Y121241D01*
D02*
G37*
G36*
X106216Y121241D02*
X106203D01*
X106148Y121238D01*
X106094Y121230D01*
X106044Y121216D01*
X105995Y121200D01*
X105952Y121181D01*
X105908Y121159D01*
X105870Y121137D01*
X105834Y121113D01*
X105801Y121088D01*
X105771Y121066D01*
X105747Y121044D01*
X105728Y121025D01*
X105711Y121009D01*
X105700Y120995D01*
X105692Y120987D01*
X105690Y120984D01*
X105651Y120932D01*
X105619Y120878D01*
X105591Y120818D01*
X105567Y120755D01*
X105545Y120689D01*
X105528Y120624D01*
X105515Y120558D01*
X105504Y120496D01*
X105496Y120436D01*
X105488Y120378D01*
X105482Y120326D01*
X105479Y120283D01*
X105476Y120247D01*
Y120220D01*
Y120209D01*
Y120201D01*
Y120198D01*
Y120195D01*
X105479Y120100D01*
X105485Y120012D01*
X105496Y119931D01*
X105512Y119851D01*
X105528Y119783D01*
X105547Y119718D01*
X105567Y119660D01*
X105586Y119606D01*
X105608Y119559D01*
X105627Y119521D01*
X105646Y119486D01*
X105662Y119458D01*
X105676Y119436D01*
X105687Y119423D01*
X105695Y119412D01*
X105698Y119409D01*
X105739Y119363D01*
X105782Y119322D01*
X105829Y119289D01*
X105872Y119259D01*
X105916Y119232D01*
X105960Y119210D01*
X106003Y119193D01*
X106042Y119180D01*
X106080Y119169D01*
X106115Y119161D01*
X106145Y119155D01*
X106170Y119152D01*
X106192Y119150D01*
X106208Y119147D01*
X106222D01*
X106290Y119150D01*
X106356Y119163D01*
X106416Y119180D01*
X106473Y119202D01*
X106525Y119229D01*
X106574Y119259D01*
X106618Y119292D01*
X106659Y119325D01*
X106694Y119357D01*
X106724Y119390D01*
X106751Y119420D01*
X106773Y119447D01*
X106792Y119469D01*
X106803Y119486D01*
X106811Y119499D01*
X106814Y119502D01*
X106836Y119546D01*
X106858Y119597D01*
X106874Y119649D01*
X106891Y119707D01*
X106913Y119824D01*
X106929Y119941D01*
X106934Y119996D01*
X106937Y120048D01*
X106943Y120094D01*
Y120135D01*
X106945Y120168D01*
Y120193D01*
Y120209D01*
Y120214D01*
X106943Y120305D01*
X106937Y120389D01*
X106926Y120468D01*
X106910Y120542D01*
X106893Y120610D01*
X106877Y120673D01*
X106855Y120730D01*
X106836Y120782D01*
X106817Y120826D01*
X106795Y120867D01*
X106779Y120900D01*
X106760Y120927D01*
X106746Y120949D01*
X106735Y120965D01*
X106730Y120973D01*
X106727Y120976D01*
X106683Y121023D01*
X106640Y121063D01*
X106596Y121099D01*
X106552Y121129D01*
X106509Y121156D01*
X106465Y121175D01*
X106421Y121195D01*
X106383Y121208D01*
X106345Y121219D01*
X106309Y121227D01*
X106279Y121233D01*
X106255Y121238D01*
X106233D01*
X106216Y121241D01*
D02*
G37*
G36*
X177622Y121238D02*
X177609D01*
X177551Y121236D01*
X177497Y121227D01*
X177442Y121214D01*
X177393Y121197D01*
X177347Y121178D01*
X177300Y121156D01*
X177259Y121134D01*
X177224Y121110D01*
X177191Y121085D01*
X177161Y121063D01*
X177134Y121042D01*
X177112Y121023D01*
X177095Y121006D01*
X177084Y120993D01*
X177076Y120984D01*
X177074Y120982D01*
X177035Y120932D01*
X177000Y120875D01*
X176970Y120818D01*
X176945Y120758D01*
X176923Y120695D01*
X176904Y120632D01*
X176891Y120569D01*
X176877Y120509D01*
X176869Y120452D01*
X176861Y120397D01*
X176855Y120351D01*
X176852Y120307D01*
Y120274D01*
X176850Y120247D01*
Y120231D01*
Y120228D01*
Y120225D01*
X176852Y120130D01*
X176858Y120043D01*
X176869Y119961D01*
X176882Y119884D01*
X176899Y119816D01*
X176918Y119750D01*
X176937Y119696D01*
X176956Y119644D01*
X176978Y119600D01*
X176997Y119562D01*
X177016Y119529D01*
X177033Y119502D01*
X177046Y119483D01*
X177057Y119466D01*
X177063Y119458D01*
X177065Y119456D01*
X177106Y119412D01*
X177150Y119374D01*
X177194Y119341D01*
X177240Y119314D01*
X177284Y119289D01*
X177330Y119270D01*
X177371Y119254D01*
X177415Y119240D01*
X177453Y119232D01*
X177489Y119223D01*
X177518Y119218D01*
X177546Y119213D01*
X177570D01*
X177587Y119210D01*
X177600D01*
X177661Y119213D01*
X177715Y119221D01*
X177770Y119232D01*
X177819Y119248D01*
X177868Y119267D01*
X177912Y119289D01*
X177953Y119311D01*
X177988Y119333D01*
X178021Y119354D01*
X178051Y119379D01*
X178075Y119398D01*
X178097Y119417D01*
X178114Y119434D01*
X178125Y119445D01*
X178133Y119453D01*
X178136Y119456D01*
X178174Y119505D01*
X178207Y119562D01*
X178234Y119619D01*
X178258Y119682D01*
X178280Y119748D01*
X178297Y119813D01*
X178310Y119879D01*
X178321Y119941D01*
X178329Y120001D01*
X178338Y120059D01*
X178343Y120111D01*
X178346Y120154D01*
Y120190D01*
X178348Y120217D01*
Y120228D01*
Y120236D01*
Y120239D01*
Y120242D01*
X178346Y120332D01*
X178340Y120416D01*
X178329Y120493D01*
X178316Y120567D01*
X178299Y120635D01*
X178280Y120695D01*
X178261Y120750D01*
X178239Y120799D01*
X178220Y120842D01*
X178201Y120881D01*
X178182Y120913D01*
X178165Y120941D01*
X178152Y120960D01*
X178141Y120976D01*
X178136Y120984D01*
X178133Y120987D01*
X178092Y121031D01*
X178048Y121069D01*
X178004Y121105D01*
X177961Y121132D01*
X177914Y121156D01*
X177873Y121178D01*
X177830Y121195D01*
X177789Y121208D01*
X177753Y121216D01*
X177718Y121225D01*
X177688Y121230D01*
X177661Y121236D01*
X177639D01*
X177622Y121238D01*
D02*
G37*
G36*
X133202Y120198D02*
X133200D01*
Y120026D01*
Y119972D01*
X133202Y119920D01*
X133208Y119870D01*
X133211Y119824D01*
X133216Y119783D01*
X133224Y119745D01*
X133230Y119712D01*
X133238Y119682D01*
X133246Y119655D01*
X133252Y119630D01*
X133257Y119611D01*
X133265Y119595D01*
X133268Y119581D01*
X133273Y119573D01*
X133276Y119568D01*
Y119565D01*
X133317Y119491D01*
X133366Y119428D01*
X133415Y119374D01*
X133465Y119327D01*
X133511Y119292D01*
X133530Y119275D01*
X133549Y119264D01*
X133563Y119254D01*
X133574Y119248D01*
X133579Y119245D01*
X133582Y119243D01*
X133661Y119204D01*
X133743Y119177D01*
X133825Y119155D01*
X133899Y119142D01*
X133931Y119139D01*
X133964Y119133D01*
X133991Y119131D01*
X134013D01*
X134032Y119128D01*
X134060D01*
X134109Y119131D01*
X134155Y119133D01*
X134199Y119139D01*
X134237Y119147D01*
X134275Y119155D01*
X134308Y119166D01*
X134338Y119177D01*
X134365Y119191D01*
X134390Y119202D01*
X134412Y119213D01*
X134428Y119223D01*
X134442Y119232D01*
X134456Y119240D01*
X134464Y119245D01*
X134466Y119251D01*
X134469D01*
X134494Y119275D01*
X134516Y119300D01*
X134535Y119325D01*
X134548Y119352D01*
X134576Y119404D01*
X134592Y119450D01*
X134600Y119494D01*
X134603Y119513D01*
X134606Y119529D01*
X134608Y119540D01*
Y119551D01*
Y119556D01*
Y119559D01*
X134606Y119603D01*
X134598Y119644D01*
X134589Y119682D01*
X134576Y119715D01*
X134565Y119739D01*
X134556Y119761D01*
X134548Y119772D01*
X134546Y119778D01*
X134518Y119813D01*
X134488Y119843D01*
X134458Y119870D01*
X134428Y119890D01*
X134404Y119906D01*
X134382Y119920D01*
X134368Y119925D01*
X134363Y119928D01*
X134338Y119939D01*
X134311Y119947D01*
X134251Y119963D01*
X134183Y119980D01*
X134117Y119993D01*
X134054Y120004D01*
X134030Y120010D01*
X134005Y120012D01*
X133986Y120018D01*
X133972D01*
X133961Y120021D01*
X133959D01*
X133866Y120034D01*
X133781Y120051D01*
X133702Y120064D01*
X133626Y120081D01*
X133560Y120094D01*
X133497Y120108D01*
X133440Y120124D01*
X133391Y120138D01*
X133344Y120149D01*
X133306Y120163D01*
X133273Y120171D01*
X133246Y120182D01*
X133227Y120187D01*
X133211Y120193D01*
X133202Y120198D01*
D02*
G37*
G36*
X123227D02*
X123224D01*
Y120026D01*
Y119972D01*
X123227Y119920D01*
X123232Y119870D01*
X123235Y119824D01*
X123241Y119783D01*
X123249Y119745D01*
X123254Y119712D01*
X123263Y119682D01*
X123271Y119655D01*
X123276Y119630D01*
X123282Y119611D01*
X123290Y119595D01*
X123293Y119581D01*
X123298Y119573D01*
X123301Y119568D01*
Y119565D01*
X123342Y119491D01*
X123391Y119428D01*
X123440Y119374D01*
X123489Y119327D01*
X123536Y119292D01*
X123555Y119275D01*
X123574Y119264D01*
X123587Y119254D01*
X123598Y119248D01*
X123604Y119245D01*
X123607Y119243D01*
X123686Y119204D01*
X123767Y119177D01*
X123849Y119155D01*
X123923Y119142D01*
X123956Y119139D01*
X123989Y119133D01*
X124016Y119131D01*
X124038D01*
X124057Y119128D01*
X124084D01*
X124133Y119131D01*
X124180Y119133D01*
X124223Y119139D01*
X124262Y119147D01*
X124300Y119155D01*
X124333Y119166D01*
X124363Y119177D01*
X124390Y119191D01*
X124415Y119202D01*
X124436Y119213D01*
X124453Y119223D01*
X124466Y119232D01*
X124480Y119240D01*
X124488Y119245D01*
X124491Y119251D01*
X124494D01*
X124518Y119275D01*
X124540Y119300D01*
X124559Y119325D01*
X124573Y119352D01*
X124600Y119404D01*
X124617Y119450D01*
X124625Y119494D01*
X124627Y119513D01*
X124630Y119529D01*
X124633Y119540D01*
Y119551D01*
Y119556D01*
Y119559D01*
X124630Y119603D01*
X124622Y119644D01*
X124614Y119682D01*
X124600Y119715D01*
X124589Y119739D01*
X124581Y119761D01*
X124573Y119772D01*
X124570Y119778D01*
X124543Y119813D01*
X124513Y119843D01*
X124483Y119870D01*
X124453Y119890D01*
X124428Y119906D01*
X124406Y119920D01*
X124393Y119925D01*
X124387Y119928D01*
X124363Y119939D01*
X124335Y119947D01*
X124275Y119963D01*
X124207Y119980D01*
X124142Y119993D01*
X124079Y120004D01*
X124054Y120010D01*
X124030Y120012D01*
X124011Y120018D01*
X123997D01*
X123986Y120021D01*
X123983D01*
X123890Y120034D01*
X123806Y120051D01*
X123727Y120064D01*
X123650Y120081D01*
X123585Y120094D01*
X123522Y120108D01*
X123465Y120124D01*
X123415Y120138D01*
X123369Y120149D01*
X123331Y120163D01*
X123298Y120171D01*
X123271Y120182D01*
X123252Y120187D01*
X123235Y120193D01*
X123227Y120198D01*
D02*
G37*
G36*
X141477Y121241D02*
X141447D01*
X141382Y121238D01*
X141321Y121230D01*
X141261Y121216D01*
X141207Y121200D01*
X141155Y121178D01*
X141109Y121156D01*
X141065Y121132D01*
X141027Y121107D01*
X140991Y121083D01*
X140958Y121058D01*
X140934Y121036D01*
X140912Y121014D01*
X140893Y120998D01*
X140882Y120984D01*
X140874Y120976D01*
X140871Y120973D01*
X140846Y120941D01*
X140822Y120902D01*
X140781Y120820D01*
X140751Y120736D01*
X140729Y120651D01*
X140718Y120613D01*
X140713Y120575D01*
X140705Y120542D01*
X140702Y120515D01*
X140696Y120490D01*
Y120474D01*
X140693Y120460D01*
Y120457D01*
X142225D01*
X142220Y120523D01*
X142209Y120583D01*
X142195Y120643D01*
X142179Y120695D01*
X142159Y120747D01*
X142140Y120793D01*
X142119Y120837D01*
X142097Y120875D01*
X142075Y120908D01*
X142056Y120938D01*
X142037Y120965D01*
X142020Y120987D01*
X142004Y121003D01*
X141993Y121014D01*
X141988Y121023D01*
X141985Y121025D01*
X141944Y121063D01*
X141900Y121096D01*
X141854Y121126D01*
X141807Y121151D01*
X141764Y121170D01*
X141717Y121189D01*
X141676Y121203D01*
X141633Y121214D01*
X141594Y121222D01*
X141559Y121230D01*
X141529Y121236D01*
X141499Y121238D01*
X141477Y121241D01*
D02*
G37*
G36*
X150811Y122158D02*
X149784D01*
X149730Y122155D01*
X149678D01*
X149632Y122153D01*
X149588Y122150D01*
X149550Y122147D01*
X149517Y122145D01*
X149487Y122142D01*
X149460Y122136D01*
X149438Y122134D01*
X149419Y122131D01*
X149405Y122128D01*
X149394Y122125D01*
X149386D01*
X149383Y122123D01*
X149380D01*
X149309Y122098D01*
X149247Y122065D01*
X149195Y122027D01*
X149148Y121992D01*
X149113Y121956D01*
X149086Y121926D01*
X149077Y121915D01*
X149069Y121907D01*
X149064Y121902D01*
Y121899D01*
X149042Y121866D01*
X149023Y121833D01*
X148995Y121765D01*
X148974Y121697D01*
X148957Y121634D01*
X148954Y121607D01*
X148949Y121580D01*
X148946Y121555D01*
Y121536D01*
X148944Y121517D01*
Y121506D01*
Y121498D01*
Y121495D01*
X148946Y121435D01*
X148952Y121380D01*
X148963Y121326D01*
X148976Y121276D01*
X148990Y121233D01*
X149009Y121189D01*
X149025Y121154D01*
X149045Y121118D01*
X149064Y121088D01*
X149083Y121061D01*
X149102Y121039D01*
X149116Y121020D01*
X149129Y121006D01*
X149140Y120995D01*
X149146Y120990D01*
X149148Y120987D01*
X149189Y120954D01*
X149236Y120927D01*
X149288Y120902D01*
X149342Y120883D01*
X149399Y120864D01*
X149457Y120851D01*
X149569Y120829D01*
X149623Y120823D01*
X149672Y120818D01*
X149719Y120812D01*
X149757Y120810D01*
X149790Y120807D01*
X150811D01*
Y122158D01*
D02*
G37*
G36*
X159075Y121238D02*
X159058D01*
X158995Y121236D01*
X158935Y121227D01*
X158878Y121214D01*
X158824Y121197D01*
X158772Y121178D01*
X158725Y121156D01*
X158681Y121132D01*
X158643Y121107D01*
X158608Y121083D01*
X158575Y121058D01*
X158548Y121036D01*
X158526Y121017D01*
X158510Y121001D01*
X158496Y120987D01*
X158488Y120979D01*
X158485Y120976D01*
X158444Y120924D01*
X158408Y120867D01*
X158379Y120807D01*
X158351Y120747D01*
X158329Y120681D01*
X158310Y120618D01*
X158294Y120556D01*
X158283Y120496D01*
X158272Y120436D01*
X158264Y120384D01*
X158261Y120335D01*
X158256Y120291D01*
Y120258D01*
X158253Y120231D01*
Y120214D01*
Y120212D01*
Y120209D01*
X158256Y120111D01*
X158264Y120021D01*
X158275Y119936D01*
X158288Y119857D01*
X158305Y119786D01*
X158327Y119720D01*
X158346Y119660D01*
X158368Y119608D01*
X158389Y119562D01*
X158408Y119521D01*
X158428Y119486D01*
X158447Y119458D01*
X158460Y119436D01*
X158471Y119423D01*
X158479Y119412D01*
X158482Y119409D01*
X158526Y119363D01*
X158572Y119322D01*
X158622Y119289D01*
X158668Y119259D01*
X158717Y119232D01*
X158766Y119210D01*
X158813Y119193D01*
X158856Y119180D01*
X158897Y119169D01*
X158935Y119161D01*
X158971Y119155D01*
X159001Y119152D01*
X159026Y119150D01*
X159042Y119147D01*
X159058D01*
X159121Y119150D01*
X159181Y119158D01*
X159241Y119172D01*
X159296Y119188D01*
X159345Y119207D01*
X159394Y119229D01*
X159438Y119254D01*
X159476Y119278D01*
X159511Y119300D01*
X159544Y119325D01*
X159572Y119346D01*
X159593Y119366D01*
X159610Y119382D01*
X159623Y119395D01*
X159632Y119404D01*
X159634Y119406D01*
X159675Y119458D01*
X159708Y119516D01*
X159738Y119576D01*
X159765Y119641D01*
X159787Y119704D01*
X159806Y119770D01*
X159820Y119835D01*
X159834Y119898D01*
X159842Y119958D01*
X159850Y120012D01*
X159853Y120064D01*
X159858Y120108D01*
Y120143D01*
X159861Y120171D01*
Y120179D01*
Y120187D01*
Y120190D01*
Y120193D01*
X159858Y120288D01*
X159850Y120376D01*
X159839Y120460D01*
X159825Y120537D01*
X159809Y120608D01*
X159790Y120670D01*
X159768Y120728D01*
X159746Y120782D01*
X159727Y120826D01*
X159705Y120867D01*
X159686Y120900D01*
X159670Y120927D01*
X159656Y120949D01*
X159645Y120965D01*
X159637Y120973D01*
X159634Y120976D01*
X159591Y121023D01*
X159544Y121063D01*
X159495Y121099D01*
X159449Y121129D01*
X159399Y121154D01*
X159350Y121175D01*
X159304Y121192D01*
X159260Y121205D01*
X159219Y121216D01*
X159181Y121225D01*
X159146Y121230D01*
X159116Y121236D01*
X159091D01*
X159075Y121238D01*
D02*
G37*
G36*
X119479D02*
X119462D01*
X119399Y121236D01*
X119340Y121227D01*
X119282Y121214D01*
X119228Y121197D01*
X119176Y121178D01*
X119129Y121156D01*
X119086Y121132D01*
X119047Y121107D01*
X119012Y121083D01*
X118979Y121058D01*
X118952Y121036D01*
X118930Y121017D01*
X118914Y121001D01*
X118900Y120987D01*
X118892Y120979D01*
X118889Y120976D01*
X118848Y120924D01*
X118813Y120867D01*
X118783Y120807D01*
X118755Y120747D01*
X118733Y120681D01*
X118714Y120618D01*
X118698Y120556D01*
X118687Y120496D01*
X118676Y120436D01*
X118668Y120384D01*
X118665Y120335D01*
X118660Y120291D01*
Y120258D01*
X118657Y120231D01*
Y120214D01*
Y120212D01*
Y120209D01*
X118660Y120111D01*
X118668Y120021D01*
X118679Y119936D01*
X118693Y119857D01*
X118709Y119786D01*
X118731Y119720D01*
X118750Y119660D01*
X118772Y119608D01*
X118793Y119562D01*
X118813Y119521D01*
X118832Y119486D01*
X118851Y119458D01*
X118865Y119436D01*
X118875Y119423D01*
X118884Y119412D01*
X118886Y119409D01*
X118930Y119363D01*
X118976Y119322D01*
X119026Y119289D01*
X119072Y119259D01*
X119121Y119232D01*
X119170Y119210D01*
X119217Y119193D01*
X119260Y119180D01*
X119301Y119169D01*
X119340Y119161D01*
X119375Y119155D01*
X119405Y119152D01*
X119430Y119150D01*
X119446Y119147D01*
X119462D01*
X119525Y119150D01*
X119585Y119158D01*
X119645Y119172D01*
X119700Y119188D01*
X119749Y119207D01*
X119798Y119229D01*
X119842Y119254D01*
X119880Y119278D01*
X119915Y119300D01*
X119948Y119325D01*
X119976Y119346D01*
X119997Y119366D01*
X120014Y119382D01*
X120027Y119395D01*
X120036Y119404D01*
X120038Y119406D01*
X120079Y119458D01*
X120112Y119516D01*
X120142Y119576D01*
X120169Y119641D01*
X120191Y119704D01*
X120210Y119770D01*
X120224Y119835D01*
X120238Y119898D01*
X120246Y119958D01*
X120254Y120012D01*
X120257Y120064D01*
X120262Y120108D01*
Y120143D01*
X120265Y120171D01*
Y120179D01*
Y120187D01*
Y120190D01*
Y120193D01*
X120262Y120288D01*
X120254Y120376D01*
X120243Y120460D01*
X120229Y120537D01*
X120213Y120608D01*
X120194Y120670D01*
X120172Y120728D01*
X120150Y120782D01*
X120131Y120826D01*
X120109Y120867D01*
X120090Y120900D01*
X120074Y120927D01*
X120060Y120949D01*
X120049Y120965D01*
X120041Y120973D01*
X120038Y120976D01*
X119995Y121023D01*
X119948Y121063D01*
X119899Y121099D01*
X119853Y121129D01*
X119804Y121154D01*
X119754Y121175D01*
X119708Y121192D01*
X119664Y121205D01*
X119623Y121216D01*
X119585Y121225D01*
X119550Y121230D01*
X119520Y121236D01*
X119495D01*
X119479Y121238D01*
D02*
G37*
G36*
X187467Y121260D02*
X187453D01*
X187398Y121257D01*
X187346Y121249D01*
X187295Y121236D01*
X187248Y121219D01*
X187202Y121200D01*
X187161Y121178D01*
X187120Y121154D01*
X187084Y121129D01*
X187052Y121105D01*
X187024Y121080D01*
X187000Y121058D01*
X186978Y121039D01*
X186962Y121023D01*
X186951Y121009D01*
X186943Y121001D01*
X186940Y120998D01*
X186901Y120946D01*
X186869Y120889D01*
X186839Y120829D01*
X186814Y120766D01*
X186795Y120703D01*
X186776Y120638D01*
X186762Y120572D01*
X186751Y120509D01*
X186743Y120452D01*
X186735Y120395D01*
X186730Y120345D01*
X186727Y120302D01*
X186724Y120266D01*
Y120239D01*
Y120231D01*
Y120223D01*
Y120220D01*
Y120217D01*
X186727Y120119D01*
X186732Y120026D01*
X186743Y119939D01*
X186760Y119860D01*
X186776Y119786D01*
X186795Y119720D01*
X186814Y119660D01*
X186833Y119606D01*
X186855Y119559D01*
X186874Y119518D01*
X186893Y119483D01*
X186910Y119456D01*
X186923Y119434D01*
X186934Y119420D01*
X186943Y119409D01*
X186945Y119406D01*
X186986Y119360D01*
X187030Y119322D01*
X187074Y119286D01*
X187120Y119256D01*
X187164Y119232D01*
X187207Y119210D01*
X187251Y119193D01*
X187289Y119180D01*
X187327Y119169D01*
X187363Y119161D01*
X187393Y119155D01*
X187420Y119152D01*
X187442Y119150D01*
X187458Y119147D01*
X187472D01*
X187527Y119150D01*
X187581Y119158D01*
X187633Y119172D01*
X187680Y119185D01*
X187726Y119204D01*
X187770Y119226D01*
X187808Y119248D01*
X187843Y119273D01*
X187876Y119297D01*
X187903Y119319D01*
X187928Y119341D01*
X187950Y119360D01*
X187966Y119376D01*
X187977Y119387D01*
X187985Y119395D01*
X187988Y119398D01*
X188026Y119447D01*
X188059Y119505D01*
X188086Y119565D01*
X188111Y119627D01*
X188133Y119690D01*
X188149Y119756D01*
X188163Y119821D01*
X188174Y119884D01*
X188182Y119941D01*
X188190Y119999D01*
X188196Y120048D01*
X188198Y120092D01*
Y120130D01*
X188201Y120157D01*
Y120165D01*
Y120174D01*
Y120176D01*
Y120179D01*
X188198Y120274D01*
X188190Y120365D01*
X188179Y120449D01*
X188165Y120526D01*
X188149Y120599D01*
X188130Y120665D01*
X188108Y120725D01*
X188086Y120777D01*
X188067Y120826D01*
X188045Y120867D01*
X188026Y120902D01*
X188010Y120930D01*
X187996Y120952D01*
X187985Y120968D01*
X187977Y120979D01*
X187974Y120982D01*
X187931Y121031D01*
X187887Y121074D01*
X187843Y121110D01*
X187797Y121143D01*
X187753Y121170D01*
X187710Y121192D01*
X187669Y121211D01*
X187628Y121225D01*
X187592Y121236D01*
X187559Y121246D01*
X187529Y121252D01*
X187502Y121255D01*
X187480Y121257D01*
X187467Y121260D01*
D02*
G37*
G36*
X111788Y121260D02*
X111775D01*
X111720Y121257D01*
X111668Y121249D01*
X111616Y121236D01*
X111570Y121219D01*
X111523Y121200D01*
X111483Y121178D01*
X111442Y121154D01*
X111406Y121129D01*
X111373Y121105D01*
X111346Y121080D01*
X111321Y121058D01*
X111300Y121039D01*
X111283Y121023D01*
X111272Y121009D01*
X111264Y121001D01*
X111261Y120998D01*
X111223Y120946D01*
X111190Y120889D01*
X111160Y120829D01*
X111136Y120766D01*
X111117Y120703D01*
X111098Y120638D01*
X111084Y120572D01*
X111073Y120509D01*
X111065Y120452D01*
X111057Y120395D01*
X111051Y120345D01*
X111048Y120302D01*
X111046Y120266D01*
Y120239D01*
Y120231D01*
Y120223D01*
Y120220D01*
Y120217D01*
X111048Y120119D01*
X111054Y120026D01*
X111065Y119939D01*
X111081Y119860D01*
X111098Y119786D01*
X111117Y119720D01*
X111136Y119660D01*
X111155Y119606D01*
X111177Y119559D01*
X111196Y119518D01*
X111215Y119483D01*
X111231Y119456D01*
X111245Y119434D01*
X111256Y119420D01*
X111264Y119409D01*
X111267Y119406D01*
X111308Y119360D01*
X111352Y119322D01*
X111395Y119286D01*
X111442Y119256D01*
X111485Y119232D01*
X111529Y119210D01*
X111573Y119193D01*
X111611Y119180D01*
X111649Y119169D01*
X111685Y119161D01*
X111715Y119155D01*
X111742Y119152D01*
X111764Y119150D01*
X111780Y119147D01*
X111794D01*
X111848Y119150D01*
X111903Y119158D01*
X111955Y119172D01*
X112001Y119185D01*
X112048Y119204D01*
X112091Y119226D01*
X112129Y119248D01*
X112165Y119273D01*
X112198Y119297D01*
X112225Y119319D01*
X112250Y119341D01*
X112271Y119360D01*
X112288Y119376D01*
X112299Y119387D01*
X112307Y119395D01*
X112310Y119398D01*
X112348Y119447D01*
X112381Y119505D01*
X112408Y119565D01*
X112433Y119627D01*
X112454Y119690D01*
X112471Y119756D01*
X112484Y119821D01*
X112495Y119884D01*
X112504Y119941D01*
X112512Y119999D01*
X112517Y120048D01*
X112520Y120092D01*
Y120130D01*
X112523Y120157D01*
Y120165D01*
Y120174D01*
Y120176D01*
Y120179D01*
X112520Y120274D01*
X112512Y120365D01*
X112501Y120449D01*
X112487Y120526D01*
X112471Y120599D01*
X112452Y120665D01*
X112430Y120725D01*
X112408Y120777D01*
X112389Y120826D01*
X112367Y120867D01*
X112348Y120902D01*
X112332Y120930D01*
X112318Y120952D01*
X112307Y120968D01*
X112299Y120979D01*
X112296Y120982D01*
X112252Y121031D01*
X112209Y121074D01*
X112165Y121110D01*
X112119Y121143D01*
X112075Y121170D01*
X112031Y121192D01*
X111990Y121211D01*
X111949Y121225D01*
X111914Y121236D01*
X111881Y121246D01*
X111851Y121252D01*
X111824Y121255D01*
X111802Y121257D01*
X111788Y121260D01*
D02*
G37*
%LPD*%
D14*
X152362Y161221D02*
X158937D01*
X152362Y156201D02*
X157087D01*
X152362Y158071D02*
X157087D01*
X162598Y161221D02*
X169173D01*
X162598Y156201D02*
X167323D01*
X150512Y153051D02*
X157087D01*
X162598Y158071D02*
X167323D01*
X160748Y153051D02*
X167323D01*
X178740Y126772D02*
Y131494D01*
X176379D01*
X175592Y130707D01*
Y129133D01*
X176379Y128346D01*
X178740D01*
X177166D02*
X175592Y126772D01*
X171656D02*
X173230D01*
X174017Y127559D01*
Y129133D01*
X173230Y129920D01*
X171656D01*
X170869Y129133D01*
Y128346D01*
X174017D01*
X169294Y129920D02*
X167720Y126772D01*
X166146Y129920D01*
X164571Y126772D02*
Y127559D01*
X163784D01*
Y126772D01*
X164571D01*
X160636D02*
X159062D01*
X159849D01*
Y131494D01*
X160636Y130707D01*
X175592Y138188D02*
X176379Y138975D01*
X177953D01*
X178740Y138188D01*
Y135039D01*
X177953Y134252D01*
X176379D01*
X175592Y135039D01*
X174017Y134252D02*
Y137401D01*
X172443Y138975D01*
X170869Y137401D01*
Y134252D01*
Y136613D01*
X174017D01*
X169294Y138975D02*
X166146D01*
X167720D01*
Y134252D01*
X162210Y138975D02*
X163784D01*
X164571Y138188D01*
Y135039D01*
X163784Y134252D01*
X162210D01*
X161423Y135039D01*
Y138188D01*
X162210Y138975D01*
X159849Y134252D02*
Y138975D01*
X156700Y134252D01*
Y138975D01*
X155126Y136613D02*
X151977D01*
X150403Y134252D02*
Y138975D01*
X148829Y137401D01*
X147254Y138975D01*
Y134252D01*
X145680Y136613D02*
X142531D01*
X140957Y138975D02*
X137809D01*
X139383D01*
Y134252D01*
X136234D02*
Y138975D01*
X133873D01*
X133086Y138188D01*
Y136613D01*
X133873Y135826D01*
X136234D01*
X134660D02*
X133086Y134252D01*
X131511D02*
Y137401D01*
X129937Y138975D01*
X128363Y137401D01*
Y134252D01*
Y136613D01*
X131511D01*
X126788Y138975D02*
Y134252D01*
X124427D01*
X123640Y135039D01*
Y138188D01*
X124427Y138975D01*
X126788D01*
X217324Y211416D02*
X218111Y212203D01*
X219685D01*
X220472Y211416D01*
Y210629D01*
X219685Y209842D01*
X218111D01*
X217324Y209055D01*
Y208267D01*
X218111Y207480D01*
X219685D01*
X220472Y208267D01*
X215750Y207480D02*
Y212203D01*
X212601Y207480D01*
Y212203D01*
X211027Y210629D02*
X210240D01*
Y209842D01*
X211027D01*
Y210629D01*
Y208267D02*
X210240D01*
Y207480D01*
X211027D01*
Y208267D01*
D15*
X207118Y185952D02*
X213118D01*
Y182552D02*
Y185952D01*
X207118Y182552D02*
Y185952D01*
Y182552D02*
X213118D01*
X87920Y183732D02*
Y189732D01*
X91464Y155268D02*
Y161268D01*
X84521Y183732D02*
Y189732D01*
Y183732D02*
X87920D01*
X88064Y161268D02*
X91464D01*
X92788Y135976D02*
X96188D01*
X88064Y155268D02*
X91464D01*
X88064D02*
Y161268D01*
X84521Y189732D02*
X87920D01*
X79796D02*
X83196D01*
X79796Y183732D02*
Y189732D01*
Y183732D02*
X83196D01*
Y189732D01*
X92788Y143850D02*
Y149850D01*
X96188D01*
Y143850D02*
Y149850D01*
X92788Y143850D02*
X96188D01*
Y135976D02*
Y141976D01*
X63511Y198575D02*
Y204575D01*
X60111D02*
X63511D01*
X84795Y201843D02*
X89623D01*
X60111Y198575D02*
X63511D01*
X156469Y183319D02*
X159869D01*
X156469D02*
Y189319D01*
X60111Y198575D02*
Y204575D01*
X159869Y183319D02*
Y189319D01*
X84795Y201843D02*
Y205243D01*
X90795Y206568D02*
Y209968D01*
X84795D02*
X90795D01*
X92788Y141976D02*
X96188D01*
X92788Y135976D02*
Y141976D01*
X90795Y201994D02*
Y205243D01*
X84795D02*
X90795D01*
X84795Y206568D02*
Y209968D01*
Y206568D02*
X90795D01*
X58536Y155756D02*
X61936D01*
X82552Y155268D02*
X85952D01*
X84914Y164835D02*
X88314D01*
X82552Y161268D02*
X85952D01*
Y155268D02*
Y161268D01*
X84914Y164835D02*
Y170835D01*
X82552Y142669D02*
X85952D01*
X88314Y164835D02*
Y170835D01*
X87037D02*
X88314D01*
X84914D02*
X86191D01*
X82552Y155268D02*
Y161268D01*
X58536Y183709D02*
X61936D01*
X58536Y177709D02*
Y183709D01*
Y177709D02*
X61936D01*
Y183709D01*
X81765Y172197D02*
X85165D01*
Y178197D01*
X81765D02*
X85165D01*
X81765Y172197D02*
Y178197D01*
X85952Y142669D02*
Y148669D01*
X61936Y142276D02*
Y148276D01*
X58536D02*
X61936D01*
X87276Y137252D02*
X90676D01*
X61115Y142276D02*
X61936D01*
X58536D02*
X59358D01*
X58536Y149756D02*
X61936D01*
X58536D02*
Y155756D01*
Y142276D02*
Y148276D01*
X61936Y149756D02*
Y155756D01*
X87276Y131252D02*
Y137252D01*
X82552Y131252D02*
Y137252D01*
X84273D02*
X85952D01*
X82552D02*
X84134D01*
X82552Y148669D02*
X85952D01*
X82552Y142669D02*
Y148669D01*
X90676Y131252D02*
Y137252D01*
X87276Y131252D02*
X90676D01*
X85952D02*
Y137252D01*
X82552Y131252D02*
X85952D01*
X156469Y189319D02*
X159869D01*
X133688Y175957D02*
Y181957D01*
X130288Y175957D02*
X133688D01*
X136095Y175937D02*
X139495D01*
Y181937D01*
X130288Y175957D02*
Y181957D01*
X133688D01*
X136095Y175937D02*
Y181937D01*
X159024Y201056D02*
Y204456D01*
X153024Y201056D02*
Y204456D01*
X159024D01*
X161292Y193433D02*
X164692D01*
Y187433D02*
Y193433D01*
X161292Y187433D02*
Y193433D01*
X153024Y201056D02*
X159024D01*
X136095Y184008D02*
Y190008D01*
X138058D02*
X139495D01*
X136095D02*
X137335D01*
X139495Y184008D02*
Y190008D01*
X136095Y184008D02*
X139495D01*
X130190D02*
Y190008D01*
X133590D01*
Y184008D02*
Y190008D01*
X130190Y184008D02*
X133590D01*
X161292Y187433D02*
X164692D01*
X158832Y177213D02*
X162232D01*
X156720Y171213D02*
Y177213D01*
X158832Y171213D02*
X162232D01*
X158832D02*
Y177213D01*
X153320D02*
X156720D01*
X136095Y181937D02*
X139495D01*
X153320Y171213D02*
X156720D01*
X153320D02*
Y177213D01*
X162232Y171213D02*
Y177213D01*
X58930Y173079D02*
X62330D01*
X58930Y167079D02*
Y173079D01*
Y167079D02*
X62330D01*
Y173079D01*
X135189Y201056D02*
X141189D01*
X135189D02*
Y204456D01*
X141189D01*
Y201056D02*
Y204456D01*
D16*
X152831Y193457D02*
X155831D01*
X152831Y199457D02*
X155831D01*
D17*
X148752Y161810D02*
X146128D01*
Y161154D01*
X148752Y158531D01*
Y157875D01*
X146128D01*
X144817Y161154D02*
X144160Y161810D01*
X142849D01*
X142193Y161154D01*
Y160498D01*
X142849Y159843D01*
X143505D01*
X142849D01*
X142193Y159187D01*
Y158531D01*
X142849Y157875D01*
X144160D01*
X144817Y158531D01*
X213023Y187304D02*
Y191240D01*
X211055D01*
X210399Y190584D01*
Y189272D01*
X211055Y188616D01*
X213023D01*
X211711D02*
X210399Y187304D01*
X206464D02*
X209087D01*
X206464Y189928D01*
Y190584D01*
X207120Y191240D01*
X208432D01*
X209087Y190584D01*
X205152Y191240D02*
X202528D01*
Y190584D01*
X205152Y187960D01*
Y187304D01*
X132808Y166996D02*
X133464Y166340D01*
Y165028D01*
X132808Y164372D01*
X130184D01*
X129528Y165028D01*
Y166340D01*
X130184Y166996D01*
X129528Y168307D02*
Y169619D01*
Y168963D01*
X133464D01*
X132808Y168307D01*
X130184Y171587D02*
X129528Y172243D01*
Y173555D01*
X130184Y174211D01*
X132808D01*
X133464Y173555D01*
Y172243D01*
X132808Y171587D01*
X132152D01*
X131496Y172243D01*
Y174211D01*
X139501Y166667D02*
X140157Y166012D01*
Y164700D01*
X139501Y164044D01*
X136877D01*
X136221Y164700D01*
Y166012D01*
X136877Y166667D01*
X136221Y170603D02*
Y167979D01*
X138845Y170603D01*
X139501D01*
X140157Y169947D01*
Y168635D01*
X139501Y167979D01*
Y171915D02*
X140157Y172571D01*
Y173883D01*
X139501Y174539D01*
X136877D01*
X136221Y173883D01*
Y172571D01*
X136877Y171915D01*
X139501D01*
X151312Y171293D02*
X151968Y170638D01*
Y169326D01*
X151312Y168670D01*
X148688D01*
X148032Y169326D01*
Y170638D01*
X148688Y171293D01*
X148032Y175229D02*
Y172605D01*
X150656Y175229D01*
X151312D01*
X151968Y174573D01*
Y173261D01*
X151312Y172605D01*
Y176541D02*
X151968Y177197D01*
Y178509D01*
X151312Y179165D01*
X150656D01*
X150000Y178509D01*
Y177853D01*
Y178509D01*
X149344Y179165D01*
X148688D01*
X148032Y178509D01*
Y177197D01*
X148688Y176541D01*
X167355Y171392D02*
X168011Y170736D01*
Y169424D01*
X167355Y168768D01*
X164731D01*
X164075Y169424D01*
Y170736D01*
X164731Y171392D01*
X164075Y175328D02*
Y172704D01*
X166699Y175328D01*
X167355D01*
X168011Y174672D01*
Y173360D01*
X167355Y172704D01*
X164075Y179263D02*
Y176640D01*
X166699Y179263D01*
X167355D01*
X168011Y178607D01*
Y177295D01*
X167355Y176640D01*
X139829Y209186D02*
X140485Y209842D01*
X141797D01*
X142453Y209186D01*
Y206562D01*
X141797Y205906D01*
X140485D01*
X139829Y206562D01*
X138517Y205906D02*
X137205D01*
X137861D01*
Y209842D01*
X138517Y209186D01*
X135237Y205906D02*
X133925D01*
X134581D01*
Y209842D01*
X135237Y209186D01*
X67060Y167455D02*
X67716Y166799D01*
Y165487D01*
X67060Y164831D01*
X64436D01*
X63780Y165487D01*
Y166799D01*
X64436Y167455D01*
X63780Y171391D02*
Y168767D01*
X66404Y171391D01*
X67060D01*
X67716Y170735D01*
Y169423D01*
X67060Y168767D01*
X63780Y174670D02*
X67716D01*
X65748Y172703D01*
Y175326D01*
X169422Y185499D02*
X170078Y184844D01*
Y183531D01*
X169422Y182876D01*
X166798D01*
X166142Y183531D01*
Y184844D01*
X166798Y185499D01*
X166142Y186811D02*
Y188123D01*
Y187467D01*
X170078D01*
X169422Y186811D01*
Y190091D02*
X170078Y190747D01*
Y192059D01*
X169422Y192715D01*
X168766D01*
X168110Y192059D01*
Y191403D01*
Y192059D01*
X167454Y192715D01*
X166798D01*
X166142Y192059D01*
Y190747D01*
X166798Y190091D01*
X169225Y198556D02*
X169881Y199212D01*
X171193D01*
X171849Y198556D01*
Y195932D01*
X171193Y195276D01*
X169881D01*
X169225Y195932D01*
X167913Y195276D02*
X166601D01*
X167257D01*
Y199212D01*
X167913Y198556D01*
X162010Y195276D02*
X164633D01*
X162010Y197900D01*
Y198556D01*
X162665Y199212D01*
X163977D01*
X164633Y198556D01*
X149264Y204068D02*
X149920Y204724D01*
X151232D01*
X151888Y204068D01*
Y201444D01*
X151232Y200788D01*
X149920D01*
X149264Y201444D01*
X147952Y200788D02*
X146641D01*
X147297D01*
Y204724D01*
X147952Y204068D01*
X144673D02*
X144017Y204724D01*
X142705D01*
X142049Y204068D01*
Y201444D01*
X142705Y200788D01*
X144017D01*
X144673Y201444D01*
Y204068D01*
X133202Y194554D02*
X133858Y193899D01*
Y192587D01*
X133202Y191931D01*
X130578D01*
X129922Y192587D01*
Y193899D01*
X130578Y194554D01*
X129922Y195867D02*
Y197178D01*
Y196522D01*
X133858D01*
X133202Y195867D01*
X133858Y201770D02*
Y199146D01*
X131890D01*
X132546Y200458D01*
Y201114D01*
X131890Y201770D01*
X130578D01*
X129922Y201114D01*
Y199802D01*
X130578Y199146D01*
X144619Y184712D02*
X145275Y184056D01*
Y182744D01*
X144619Y182088D01*
X141995D01*
X141339Y182744D01*
Y184056D01*
X141995Y184712D01*
X141339Y186024D02*
Y187336D01*
Y186680D01*
X145275D01*
X144619Y186024D01*
X141339Y191272D02*
X145275D01*
X143307Y189304D01*
Y191928D01*
X154462Y183925D02*
X155117Y183269D01*
Y181957D01*
X154462Y181301D01*
X151838D01*
X151182Y181957D01*
Y183269D01*
X151838Y183925D01*
X151182Y185237D02*
Y186548D01*
Y185892D01*
X155117D01*
X154462Y185237D01*
X155117Y188516D02*
Y191140D01*
X154462D01*
X151838Y188516D01*
X151182D01*
X89371Y181760D02*
X93306D01*
Y183728D01*
X92651Y184384D01*
X91339D01*
X90683Y183728D01*
Y181760D01*
Y183072D02*
X89371Y184384D01*
Y188320D02*
Y185696D01*
X91995Y188320D01*
X92651D01*
X93306Y187664D01*
Y186352D01*
X92651Y185696D01*
Y189632D02*
X93306Y190288D01*
Y191600D01*
X92651Y192255D01*
X90027D01*
X89371Y191600D01*
Y190288D01*
X90027Y189632D01*
X92651D01*
X102558Y206694D02*
Y210629D01*
X100590D01*
X99934Y209973D01*
Y208661D01*
X100590Y208005D01*
X102558D01*
X101246D02*
X99934Y206694D01*
X98622D02*
X97310D01*
X97966D01*
Y210629D01*
X98622Y209973D01*
X95342Y207349D02*
X94686Y206694D01*
X93374D01*
X92718Y207349D01*
Y209973D01*
X93374Y210629D01*
X94686D01*
X95342Y209973D01*
Y209317D01*
X94686Y208661D01*
X92718D01*
X98294Y204855D02*
X98950Y205511D01*
X100262D01*
X100918Y204855D01*
Y202231D01*
X100262Y201575D01*
X98950D01*
X98294Y202231D01*
X96982Y204855D02*
X96326Y205511D01*
X95014D01*
X94358Y204855D01*
Y204199D01*
X95014Y203543D01*
X94358Y202887D01*
Y202231D01*
X95014Y201575D01*
X96326D01*
X96982Y202231D01*
Y202887D01*
X96326Y203543D01*
X96982Y204199D01*
Y204855D01*
X96326Y203543D02*
X95014D01*
X67847Y200919D02*
X68503Y200263D01*
Y198951D01*
X67847Y198295D01*
X65223D01*
X64568Y198951D01*
Y200263D01*
X65223Y200919D01*
Y202231D02*
X64568Y202887D01*
Y204199D01*
X65223Y204855D01*
X67847D01*
X68503Y204199D01*
Y202887D01*
X67847Y202231D01*
X67191D01*
X66535Y202887D01*
Y204855D01*
X93438Y167455D02*
X94094Y166799D01*
Y165487D01*
X93438Y164831D01*
X90814D01*
X90158Y165487D01*
Y166799D01*
X90814Y167455D01*
X90158Y171391D02*
Y168767D01*
X92782Y171391D01*
X93438D01*
X94094Y170735D01*
Y169423D01*
X93438Y168767D01*
X94094Y175326D02*
Y172703D01*
X92126D01*
X92782Y174014D01*
Y174670D01*
X92126Y175326D01*
X90814D01*
X90158Y174670D01*
Y173359D01*
X90814Y172703D01*
X80446Y140683D02*
X81102Y140027D01*
Y138715D01*
X80446Y138059D01*
X77822D01*
X77166Y138715D01*
Y140027D01*
X77822Y140683D01*
X77166Y144619D02*
Y141995D01*
X79790Y144619D01*
X80446D01*
X81102Y143963D01*
Y142651D01*
X80446Y141995D01*
X81102Y145931D02*
Y148555D01*
X80446D01*
X77822Y145931D01*
X77166D01*
X177329Y161810D02*
X174705D01*
Y161154D01*
X177329Y158531D01*
Y157875D01*
X174705D01*
X173393D02*
X172081D01*
X172737D01*
Y161810D01*
X173393Y161154D01*
X177492Y156495D02*
X174869D01*
Y155840D01*
X177492Y153216D01*
Y152560D01*
X174869D01*
X170933D02*
X173557D01*
X170933Y155183D01*
Y155840D01*
X171589Y156495D01*
X172901D01*
X173557Y155840D01*
X148752Y156594D02*
X146128D01*
Y155938D01*
X148752Y153314D01*
Y152658D01*
X146128D01*
X142849D02*
Y156594D01*
X144817Y154626D01*
X142193D01*
X92520Y124280D02*
X96456D01*
Y126248D01*
X95800Y126904D01*
X94488D01*
X93832Y126248D01*
Y124280D01*
Y125592D02*
X92520Y126904D01*
Y130840D02*
Y128216D01*
X95144Y130840D01*
X95800D01*
X96456Y130183D01*
Y128872D01*
X95800Y128216D01*
X92520Y134119D02*
X96456D01*
X94488Y132151D01*
Y134775D01*
X77166Y151051D02*
X81102D01*
Y153019D01*
X80446Y153675D01*
X79134D01*
X78478Y153019D01*
Y151051D01*
Y152364D02*
X77166Y153675D01*
Y157611D02*
Y154987D01*
X79790Y157611D01*
X80446D01*
X81102Y156955D01*
Y155643D01*
X80446Y154987D01*
X77166Y161547D02*
Y158923D01*
X79790Y161547D01*
X80446D01*
X81102Y160891D01*
Y159579D01*
X80446Y158923D01*
X63780Y148296D02*
X67716D01*
Y150264D01*
X67060Y150919D01*
X65748D01*
X65092Y150264D01*
Y148296D01*
Y149608D02*
X63780Y150919D01*
Y154855D02*
Y152231D01*
X66404Y154855D01*
X67060D01*
X67716Y154199D01*
Y152887D01*
X67060Y152231D01*
Y156167D02*
X67716Y156823D01*
Y158135D01*
X67060Y158791D01*
X66404D01*
X65748Y158135D01*
Y157479D01*
Y158135D01*
X65092Y158791D01*
X64436D01*
X63780Y158135D01*
Y156823D01*
X64436Y156167D01*
X81890Y119162D02*
X85826D01*
Y121130D01*
X85170Y121786D01*
X83858D01*
X83202Y121130D01*
Y119162D01*
Y120474D02*
X81890Y121786D01*
Y125721D02*
Y123098D01*
X84514Y125721D01*
X85170D01*
X85826Y125065D01*
Y123753D01*
X85170Y123098D01*
X85826Y129657D02*
X85170Y128345D01*
X83858Y127033D01*
X82546D01*
X81890Y127689D01*
Y129001D01*
X82546Y129657D01*
X83202D01*
X83858Y129001D01*
Y127033D01*
X92914Y153282D02*
X96850D01*
Y155250D01*
X96194Y155906D01*
X94882D01*
X94226Y155250D01*
Y153282D01*
Y154594D02*
X92914Y155906D01*
Y159842D02*
Y157218D01*
X95538Y159842D01*
X96194D01*
X96850Y159186D01*
Y157874D01*
X96194Y157218D01*
X92914Y161154D02*
Y162466D01*
Y161810D01*
X96850D01*
X96194Y161154D01*
X87402Y119162D02*
X91338D01*
Y121130D01*
X90682Y121786D01*
X89370D01*
X88714Y121130D01*
Y119162D01*
Y120474D02*
X87402Y121786D01*
Y125721D02*
Y123098D01*
X90026Y125721D01*
X90682D01*
X91338Y125065D01*
Y123753D01*
X90682Y123098D01*
X91338Y129657D02*
Y127033D01*
X89370D01*
X90026Y128345D01*
Y129001D01*
X89370Y129657D01*
X88058D01*
X87402Y129001D01*
Y127689D01*
X88058Y127033D01*
X61548Y133203D02*
X62204Y132547D01*
Y131235D01*
X61548Y130579D01*
X58924D01*
X58268Y131235D01*
Y132547D01*
X58924Y133203D01*
X58268Y137139D02*
Y134515D01*
X60892Y137139D01*
X61548D01*
X62204Y136483D01*
Y135171D01*
X61548Y134515D01*
Y138451D02*
X62204Y139107D01*
Y140419D01*
X61548Y141074D01*
X60892D01*
X60236Y140419D01*
X59580Y141074D01*
X58924D01*
X58268Y140419D01*
Y139107D01*
X58924Y138451D01*
X59580D01*
X60236Y139107D01*
X60892Y138451D01*
X61548D01*
X60236Y139107D02*
Y140419D01*
X79658Y170867D02*
X80314Y170211D01*
Y168899D01*
X79658Y168243D01*
X77035D01*
X76379Y168899D01*
Y170211D01*
X77035Y170867D01*
X76379Y174802D02*
Y172179D01*
X79002Y174802D01*
X79658D01*
X80314Y174147D01*
Y172835D01*
X79658Y172179D01*
X76379Y176114D02*
Y177426D01*
Y176770D01*
X80314D01*
X79658Y176114D01*
X61548Y188255D02*
X62204Y187599D01*
Y186287D01*
X61548Y185632D01*
X58924D01*
X58268Y186287D01*
Y187599D01*
X58924Y188255D01*
X58268Y189567D02*
Y190879D01*
Y190223D01*
X62204D01*
X61548Y189567D01*
Y192847D02*
X62204Y193503D01*
Y194815D01*
X61548Y195471D01*
X60892D01*
X60236Y194815D01*
X59580Y195471D01*
X58924D01*
X58268Y194815D01*
Y193503D01*
X58924Y192847D01*
X59580D01*
X60236Y193503D01*
X60892Y192847D01*
X61548D01*
X60236Y193503D02*
Y194815D01*
X100918Y141864D02*
X101574Y141208D01*
Y139897D01*
X100918Y139241D01*
X98294D01*
X97638Y139897D01*
Y141208D01*
X98294Y141864D01*
X97638Y145800D02*
Y143176D01*
X100262Y145800D01*
X100918D01*
X101574Y145144D01*
Y143832D01*
X100918Y143176D01*
X101574Y149736D02*
X100918Y148424D01*
X99606Y147112D01*
X98294D01*
X97638Y147768D01*
Y149080D01*
X98294Y149736D01*
X98950D01*
X99606Y149080D01*
Y147112D01*
X77690Y184318D02*
X78346Y183662D01*
Y182351D01*
X77690Y181694D01*
X75066D01*
X74410Y182351D01*
Y183662D01*
X75066Y184318D01*
X74410Y185630D02*
Y186942D01*
Y186286D01*
X78346D01*
X77690Y185630D01*
X78346Y191534D02*
X77690Y190222D01*
X76378Y188910D01*
X75066D01*
X74410Y189566D01*
Y190878D01*
X75066Y191534D01*
X75722D01*
X76378Y190878D01*
Y188910D01*
D72*
X185531Y215010D02*
D03*
M02*
