G04*
G04 #@! TF.GenerationSoftware,Altium Limited,Altium Designer,24.6.1 (21)*
G04*
G04 Layer_Color=32896*
%FSLAX25Y25*%
%MOIN*%
G70*
G04*
G04 #@! TF.SameCoordinates,CAB3BB80-2EE2-4CCF-A860-A3FE24C101F3*
G04*
G04*
G04 #@! TF.FilePolarity,Positive*
G04*
G01*
G75*
%ADD14C,0.00300*%
%ADD15C,0.00400*%
%ADD17C,0.00591*%
%ADD61C,0.01000*%
D14*
X207118Y185952D02*
X213118D01*
Y182552D02*
Y185952D01*
X207118Y182552D02*
X213118D01*
X207118D02*
Y185952D01*
X130288Y181957D02*
X133688D01*
X130288Y175957D02*
Y181957D01*
Y175957D02*
X133688D01*
Y181957D01*
X139495Y175937D02*
Y181937D01*
X136095Y175937D02*
X139495D01*
X136095D02*
Y181937D01*
X139495D01*
X153320Y177213D02*
X156720D01*
X153320Y171213D02*
Y177213D01*
Y171213D02*
X156720D01*
Y177213D01*
X158832D02*
X162232D01*
X158832Y171213D02*
Y177213D01*
Y171213D02*
X162232D01*
Y177213D01*
X135189Y201056D02*
Y204456D01*
Y201056D02*
X141189D01*
Y204456D01*
X135189D02*
X141189D01*
X58930Y167079D02*
Y173079D01*
X62330D01*
Y167079D02*
Y173079D01*
X58930Y167079D02*
X62330D01*
X161292Y187433D02*
X164692D01*
Y193433D01*
X161292D02*
X164692D01*
X161292Y187433D02*
Y193433D01*
X159024Y201056D02*
Y204456D01*
X153024D02*
X159024D01*
X153024Y201056D02*
Y204456D01*
Y201056D02*
X159024D01*
X130190Y190008D02*
X133590D01*
X130190Y184008D02*
Y190008D01*
Y184008D02*
X133590D01*
Y190008D01*
X136095D02*
X139495D01*
X136095Y184008D02*
Y190008D01*
Y184008D02*
X139495D01*
Y190008D01*
X156469Y189319D02*
X159869D01*
X156469Y183319D02*
Y189319D01*
Y183319D02*
X159869D01*
Y189319D01*
X60111Y198575D02*
Y204575D01*
X63511D01*
Y198575D02*
Y204575D01*
X60111Y198575D02*
X63511D01*
X84795Y201843D02*
X90795D01*
X84795D02*
Y205243D01*
X90795D01*
Y201843D02*
Y205243D01*
X84795Y206568D02*
X90795D01*
X84795D02*
Y209968D01*
X90795D01*
Y206568D02*
Y209968D01*
X92788Y135976D02*
Y141976D01*
X96188D01*
Y135976D02*
Y141976D01*
X92788Y135976D02*
X96188D01*
X88064Y161268D02*
X91464D01*
X88064Y155268D02*
Y161268D01*
Y155268D02*
X91464D01*
Y161268D01*
X87920Y183732D02*
Y189732D01*
X84521Y183732D02*
X87920D01*
X84521D02*
Y189732D01*
X87920D01*
X92788Y149850D02*
X96188D01*
X92788Y143850D02*
Y149850D01*
Y143850D02*
X96188D01*
Y149850D01*
X79796Y183732D02*
Y189732D01*
X83196D01*
Y183732D02*
Y189732D01*
X79796Y183732D02*
X83196D01*
X58536Y155756D02*
X61936D01*
X58536Y149756D02*
Y155756D01*
Y149756D02*
X61936D01*
Y155756D01*
X58536Y142276D02*
Y148276D01*
X61936D01*
Y142276D02*
Y148276D01*
X58536Y142276D02*
X61936D01*
X87276Y137252D02*
X90676D01*
X87276Y131252D02*
Y137252D01*
Y131252D02*
X90676D01*
Y137252D01*
X82552Y131252D02*
X85952D01*
Y137252D01*
X82552D02*
X85952D01*
X82552Y131252D02*
Y137252D01*
Y142669D02*
Y148669D01*
X85952D01*
Y142669D02*
Y148669D01*
X82552Y142669D02*
X85952D01*
X84914Y164835D02*
Y170835D01*
X88314D01*
Y164835D02*
Y170835D01*
X84914Y164835D02*
X88314D01*
X82552Y155268D02*
X85952D01*
Y161268D01*
X82552D02*
X85952D01*
X82552Y155268D02*
Y161268D01*
X85165Y172197D02*
Y178197D01*
X81765Y172197D02*
X85165D01*
X81765D02*
Y178197D01*
X85165D01*
X58536Y177709D02*
Y183709D01*
X61936D01*
Y177709D02*
Y183709D01*
X58536Y177709D02*
X61936D01*
D15*
X152831Y199457D02*
X155831D01*
X152831Y193457D02*
X155831D01*
D17*
X132808Y166996D02*
X133464Y166340D01*
Y165028D01*
X132808Y164372D01*
X130184D01*
X129528Y165028D01*
Y166340D01*
X130184Y166996D01*
X129528Y168307D02*
Y169619D01*
Y168963D01*
X133464D01*
X132808Y168307D01*
X130184Y171587D02*
X129528Y172243D01*
Y173555D01*
X130184Y174211D01*
X132808D01*
X133464Y173555D01*
Y172243D01*
X132808Y171587D01*
X132152D01*
X131496Y172243D01*
Y174211D01*
X139501Y166667D02*
X140157Y166012D01*
Y164700D01*
X139501Y164044D01*
X136877D01*
X136221Y164700D01*
Y166012D01*
X136877Y166667D01*
X136221Y170603D02*
Y167979D01*
X138845Y170603D01*
X139501D01*
X140157Y169947D01*
Y168635D01*
X139501Y167979D01*
Y171915D02*
X140157Y172571D01*
Y173883D01*
X139501Y174539D01*
X136877D01*
X136221Y173883D01*
Y172571D01*
X136877Y171915D01*
X139501D01*
X155643Y161943D02*
X156299Y161287D01*
Y159975D01*
X155643Y159319D01*
X153019D01*
X152363Y159975D01*
Y161287D01*
X153019Y161943D01*
X152363Y165879D02*
Y163255D01*
X154987Y165879D01*
X155643D01*
X156299Y165223D01*
Y163911D01*
X155643Y163255D01*
Y167191D02*
X156299Y167847D01*
Y169159D01*
X155643Y169815D01*
X154987D01*
X154331Y169159D01*
Y168503D01*
Y169159D01*
X153675Y169815D01*
X153019D01*
X152363Y169159D01*
Y167847D01*
X153019Y167191D01*
X162336Y161549D02*
X162991Y160893D01*
Y159581D01*
X162336Y158926D01*
X159712D01*
X159056Y159581D01*
Y160893D01*
X159712Y161549D01*
X159056Y165485D02*
Y162861D01*
X161680Y165485D01*
X162336D01*
X162991Y164829D01*
Y163517D01*
X162336Y162861D01*
X159056Y169421D02*
Y166797D01*
X161680Y169421D01*
X162336D01*
X162991Y168765D01*
Y167453D01*
X162336Y166797D01*
X139829Y209186D02*
X140485Y209842D01*
X141797D01*
X142453Y209186D01*
Y206562D01*
X141797Y205906D01*
X140485D01*
X139829Y206562D01*
X138517Y205906D02*
X137205D01*
X137861D01*
Y209842D01*
X138517Y209186D01*
X135237Y205906D02*
X133925D01*
X134581D01*
Y209842D01*
X135237Y209186D01*
X67060Y167455D02*
X67716Y166799D01*
Y165487D01*
X67060Y164831D01*
X64436D01*
X63780Y165487D01*
Y166799D01*
X64436Y167455D01*
X63780Y171391D02*
Y168767D01*
X66404Y171391D01*
X67060D01*
X67716Y170735D01*
Y169423D01*
X67060Y168767D01*
X63780Y174670D02*
X67716D01*
X65748Y172703D01*
Y175326D01*
X169422Y185499D02*
X170078Y184844D01*
Y183531D01*
X169422Y182876D01*
X166798D01*
X166142Y183531D01*
Y184844D01*
X166798Y185499D01*
X166142Y186811D02*
Y188123D01*
Y187467D01*
X170078D01*
X169422Y186811D01*
Y190091D02*
X170078Y190747D01*
Y192059D01*
X169422Y192715D01*
X168766D01*
X168110Y192059D01*
Y191403D01*
Y192059D01*
X167454Y192715D01*
X166798D01*
X166142Y192059D01*
Y190747D01*
X166798Y190091D01*
X169225Y198556D02*
X169881Y199212D01*
X171193D01*
X171849Y198556D01*
Y195932D01*
X171193Y195276D01*
X169881D01*
X169225Y195932D01*
X167913Y195276D02*
X166601D01*
X167257D01*
Y199212D01*
X167913Y198556D01*
X162010Y195276D02*
X164633D01*
X162010Y197900D01*
Y198556D01*
X162665Y199212D01*
X163977D01*
X164633Y198556D01*
X149264Y204068D02*
X149920Y204724D01*
X151232D01*
X151888Y204068D01*
Y201444D01*
X151232Y200788D01*
X149920D01*
X149264Y201444D01*
X147952Y200788D02*
X146641D01*
X147297D01*
Y204724D01*
X147952Y204068D01*
X144673D02*
X144017Y204724D01*
X142705D01*
X142049Y204068D01*
Y201444D01*
X142705Y200788D01*
X144017D01*
X144673Y201444D01*
Y204068D01*
X133202Y194554D02*
X133858Y193899D01*
Y192587D01*
X133202Y191931D01*
X130578D01*
X129922Y192587D01*
Y193899D01*
X130578Y194554D01*
X129922Y195867D02*
Y197178D01*
Y196522D01*
X133858D01*
X133202Y195867D01*
X133858Y201770D02*
Y199146D01*
X131890D01*
X132546Y200458D01*
Y201114D01*
X131890Y201770D01*
X130578D01*
X129922Y201114D01*
Y199802D01*
X130578Y199146D01*
X144619Y184712D02*
X145275Y184056D01*
Y182744D01*
X144619Y182088D01*
X141995D01*
X141339Y182744D01*
Y184056D01*
X141995Y184712D01*
X141339Y186024D02*
Y187336D01*
Y186680D01*
X145275D01*
X144619Y186024D01*
X141339Y191272D02*
X145275D01*
X143307Y189304D01*
Y191928D01*
X154462Y183925D02*
X155117Y183269D01*
Y181957D01*
X154462Y181301D01*
X151838D01*
X151182Y181957D01*
Y183269D01*
X151838Y183925D01*
X151182Y185237D02*
Y186548D01*
Y185892D01*
X155117D01*
X154462Y185237D01*
X155117Y188516D02*
Y191140D01*
X154462D01*
X151838Y188516D01*
X151182D01*
X89371Y181760D02*
X93306D01*
Y183728D01*
X92651Y184384D01*
X91339D01*
X90683Y183728D01*
Y181760D01*
Y183072D02*
X89371Y184384D01*
Y188320D02*
Y185696D01*
X91995Y188320D01*
X92651D01*
X93306Y187664D01*
Y186352D01*
X92651Y185696D01*
Y189632D02*
X93306Y190288D01*
Y191600D01*
X92651Y192255D01*
X90027D01*
X89371Y191600D01*
Y190288D01*
X90027Y189632D01*
X92651D01*
X102558Y206694D02*
Y210629D01*
X100590D01*
X99934Y209973D01*
Y208661D01*
X100590Y208005D01*
X102558D01*
X101246D02*
X99934Y206694D01*
X98622D02*
X97310D01*
X97966D01*
Y210629D01*
X98622Y209973D01*
X95342Y207349D02*
X94686Y206694D01*
X93374D01*
X92718Y207349D01*
Y209973D01*
X93374Y210629D01*
X94686D01*
X95342Y209973D01*
Y209317D01*
X94686Y208661D01*
X92718D01*
X98294Y204855D02*
X98950Y205511D01*
X100262D01*
X100918Y204855D01*
Y202231D01*
X100262Y201575D01*
X98950D01*
X98294Y202231D01*
X96982Y204855D02*
X96326Y205511D01*
X95014D01*
X94358Y204855D01*
Y204199D01*
X95014Y203543D01*
X94358Y202887D01*
Y202231D01*
X95014Y201575D01*
X96326D01*
X96982Y202231D01*
Y202887D01*
X96326Y203543D01*
X96982Y204199D01*
Y204855D01*
X96326Y203543D02*
X95014D01*
X67847Y200919D02*
X68503Y200263D01*
Y198951D01*
X67847Y198295D01*
X65223D01*
X64568Y198951D01*
Y200263D01*
X65223Y200919D01*
Y202231D02*
X64568Y202887D01*
Y204199D01*
X65223Y204855D01*
X67847D01*
X68503Y204199D01*
Y202887D01*
X67847Y202231D01*
X67191D01*
X66535Y202887D01*
Y204855D01*
X93438Y167455D02*
X94094Y166799D01*
Y165487D01*
X93438Y164831D01*
X90814D01*
X90158Y165487D01*
Y166799D01*
X90814Y167455D01*
X90158Y171391D02*
Y168767D01*
X92782Y171391D01*
X93438D01*
X94094Y170735D01*
Y169423D01*
X93438Y168767D01*
X94094Y175326D02*
Y172703D01*
X92126D01*
X92782Y174014D01*
Y174670D01*
X92126Y175326D01*
X90814D01*
X90158Y174670D01*
Y173359D01*
X90814Y172703D01*
X80446Y140683D02*
X81102Y140027D01*
Y138715D01*
X80446Y138059D01*
X77822D01*
X77166Y138715D01*
Y140027D01*
X77822Y140683D01*
X77166Y144619D02*
Y141995D01*
X79790Y144619D01*
X80446D01*
X81102Y143963D01*
Y142651D01*
X80446Y141995D01*
X81102Y145931D02*
Y148555D01*
X80446D01*
X77822Y145931D01*
X77166D01*
X92520Y124280D02*
X96456D01*
Y126248D01*
X95800Y126904D01*
X94488D01*
X93832Y126248D01*
Y124280D01*
Y125592D02*
X92520Y126904D01*
Y130840D02*
Y128216D01*
X95144Y130840D01*
X95800D01*
X96456Y130183D01*
Y128872D01*
X95800Y128216D01*
X92520Y134119D02*
X96456D01*
X94488Y132151D01*
Y134775D01*
X77166Y151051D02*
X81102D01*
Y153019D01*
X80446Y153675D01*
X79134D01*
X78478Y153019D01*
Y151051D01*
Y152364D02*
X77166Y153675D01*
Y157611D02*
Y154987D01*
X79790Y157611D01*
X80446D01*
X81102Y156955D01*
Y155643D01*
X80446Y154987D01*
X77166Y161547D02*
Y158923D01*
X79790Y161547D01*
X80446D01*
X81102Y160891D01*
Y159579D01*
X80446Y158923D01*
X63780Y148296D02*
X67716D01*
Y150264D01*
X67060Y150919D01*
X65748D01*
X65092Y150264D01*
Y148296D01*
Y149608D02*
X63780Y150919D01*
Y154855D02*
Y152231D01*
X66404Y154855D01*
X67060D01*
X67716Y154199D01*
Y152887D01*
X67060Y152231D01*
Y156167D02*
X67716Y156823D01*
Y158135D01*
X67060Y158791D01*
X66404D01*
X65748Y158135D01*
Y157479D01*
Y158135D01*
X65092Y158791D01*
X64436D01*
X63780Y158135D01*
Y156823D01*
X64436Y156167D01*
X81890Y119162D02*
X85826D01*
Y121130D01*
X85170Y121786D01*
X83858D01*
X83202Y121130D01*
Y119162D01*
Y120474D02*
X81890Y121786D01*
Y125721D02*
Y123098D01*
X84514Y125721D01*
X85170D01*
X85826Y125065D01*
Y123753D01*
X85170Y123098D01*
X85826Y129657D02*
X85170Y128345D01*
X83858Y127033D01*
X82546D01*
X81890Y127689D01*
Y129001D01*
X82546Y129657D01*
X83202D01*
X83858Y129001D01*
Y127033D01*
X92914Y153282D02*
X96850D01*
Y155250D01*
X96194Y155906D01*
X94882D01*
X94226Y155250D01*
Y153282D01*
Y154594D02*
X92914Y155906D01*
Y159842D02*
Y157218D01*
X95538Y159842D01*
X96194D01*
X96850Y159186D01*
Y157874D01*
X96194Y157218D01*
X92914Y161154D02*
Y162466D01*
Y161810D01*
X96850D01*
X96194Y161154D01*
X87402Y119162D02*
X91338D01*
Y121130D01*
X90682Y121786D01*
X89370D01*
X88714Y121130D01*
Y119162D01*
Y120474D02*
X87402Y121786D01*
Y125721D02*
Y123098D01*
X90026Y125721D01*
X90682D01*
X91338Y125065D01*
Y123753D01*
X90682Y123098D01*
X91338Y129657D02*
Y127033D01*
X89370D01*
X90026Y128345D01*
Y129001D01*
X89370Y129657D01*
X88058D01*
X87402Y129001D01*
Y127689D01*
X88058Y127033D01*
X61548Y133203D02*
X62204Y132547D01*
Y131235D01*
X61548Y130579D01*
X58924D01*
X58268Y131235D01*
Y132547D01*
X58924Y133203D01*
X58268Y137139D02*
Y134515D01*
X60892Y137139D01*
X61548D01*
X62204Y136483D01*
Y135171D01*
X61548Y134515D01*
Y138451D02*
X62204Y139107D01*
Y140419D01*
X61548Y141074D01*
X60892D01*
X60236Y140419D01*
X59580Y141074D01*
X58924D01*
X58268Y140419D01*
Y139107D01*
X58924Y138451D01*
X59580D01*
X60236Y139107D01*
X60892Y138451D01*
X61548D01*
X60236Y139107D02*
Y140419D01*
X79658Y170867D02*
X80314Y170211D01*
Y168899D01*
X79658Y168243D01*
X77035D01*
X76379Y168899D01*
Y170211D01*
X77035Y170867D01*
X76379Y174802D02*
Y172179D01*
X79002Y174802D01*
X79658D01*
X80314Y174147D01*
Y172835D01*
X79658Y172179D01*
X76379Y176114D02*
Y177426D01*
Y176770D01*
X80314D01*
X79658Y176114D01*
X61548Y188255D02*
X62204Y187599D01*
Y186287D01*
X61548Y185632D01*
X58924D01*
X58268Y186287D01*
Y187599D01*
X58924Y188255D01*
X58268Y189567D02*
Y190879D01*
Y190223D01*
X62204D01*
X61548Y189567D01*
Y192847D02*
X62204Y193503D01*
Y194815D01*
X61548Y195471D01*
X60892D01*
X60236Y194815D01*
X59580Y195471D01*
X58924D01*
X58268Y194815D01*
Y193503D01*
X58924Y192847D01*
X59580D01*
X60236Y193503D01*
X60892Y192847D01*
X61548D01*
X60236Y193503D02*
Y194815D01*
X100918Y141864D02*
X101574Y141208D01*
Y139897D01*
X100918Y139241D01*
X98294D01*
X97638Y139897D01*
Y141208D01*
X98294Y141864D01*
X97638Y145800D02*
Y143176D01*
X100262Y145800D01*
X100918D01*
X101574Y145144D01*
Y143832D01*
X100918Y143176D01*
X101574Y149736D02*
X100918Y148424D01*
X99606Y147112D01*
X98294D01*
X97638Y147768D01*
Y149080D01*
X98294Y149736D01*
X98950D01*
X99606Y149080D01*
Y147112D01*
X77690Y184318D02*
X78346Y183662D01*
Y182351D01*
X77690Y181694D01*
X75066D01*
X74410Y182351D01*
Y183662D01*
X75066Y184318D01*
X74410Y185630D02*
Y186942D01*
Y186286D01*
X78346D01*
X77690Y185630D01*
X78346Y191534D02*
X77690Y190222D01*
X76378Y188910D01*
X75066D01*
X74410Y189566D01*
Y190878D01*
X75066Y191534D01*
X75722D01*
X76378Y190878D01*
Y188910D01*
D61*
X223800Y189300D02*
Y195298D01*
X220801D01*
X219801Y194298D01*
Y192299D01*
X220801Y191299D01*
X223800D01*
X221801D02*
X219801Y189300D01*
X213803D02*
X217802D01*
X213803Y193299D01*
Y194298D01*
X214803Y195298D01*
X216802D01*
X217802Y194298D01*
X211804Y195298D02*
X207805D01*
Y194298D01*
X211804Y190300D01*
Y189300D01*
M02*
