G04*
G04 #@! TF.GenerationSoftware,Altium Limited,Altium Designer,24.6.1 (21)*
G04*
G04 Layer_Physical_Order=3*
G04 Layer_Color=6736896*
%FSLAX25Y25*%
%MOIN*%
G70*
G04*
G04 #@! TF.SameCoordinates,31F84527-45D4-4773-AF7A-2B1276F50D28*
G04*
G04*
G04 #@! TF.FilePolarity,Positive*
G04*
G01*
G75*
%ADD53R,0.06500X0.06500*%
%ADD54C,0.06500*%
%ADD58C,0.01000*%
%ADD59C,0.01500*%
%ADD62R,0.03347X0.03347*%
%ADD63C,0.03347*%
%ADD64C,0.09449*%
%ADD65R,0.04724X0.04724*%
%ADD66C,0.04724*%
%ADD67C,0.01772*%
%ADD68C,0.01968*%
G36*
X232835Y224842D02*
X234407Y224191D01*
X235822Y223245D01*
X237025Y222042D01*
X237970Y220627D01*
X238621Y219055D01*
X238953Y217386D01*
Y216535D01*
X238953Y76772D01*
X238953Y75921D01*
X238621Y74252D01*
X237970Y72680D01*
X237025Y71265D01*
X235822Y70062D01*
X234407Y69116D01*
X232835Y68465D01*
X231166Y68133D01*
X62141D01*
X60472Y68465D01*
X58900Y69116D01*
X57486Y70062D01*
X56282Y71265D01*
X55337Y72680D01*
X54686Y74252D01*
X54354Y75921D01*
Y76772D01*
X54354Y216535D01*
Y217386D01*
X54686Y219055D01*
X55337Y220627D01*
X56282Y222042D01*
X57486Y223245D01*
X58900Y224191D01*
X60472Y224842D01*
X62141Y225174D01*
X62992Y225174D01*
X152817D01*
X153070Y224674D01*
X152839Y224115D01*
Y223326D01*
X153141Y222597D01*
X153699Y222038D01*
X154428Y221736D01*
X155218D01*
X155947Y222038D01*
X156505Y222597D01*
X156807Y223326D01*
Y224115D01*
X156576Y224674D01*
X156829Y225174D01*
X231166D01*
X232835Y224842D01*
D02*
G37*
%LPC*%
G36*
X158859Y222850D02*
X158070D01*
X157341Y222548D01*
X156782Y221990D01*
X156480Y221261D01*
Y220472D01*
X156782Y219742D01*
X157341Y219184D01*
X158070Y218882D01*
X158859D01*
X159589Y219184D01*
X160147Y219742D01*
X160449Y220472D01*
Y221261D01*
X160147Y221990D01*
X159589Y222548D01*
X158859Y222850D01*
D02*
G37*
G36*
X136615Y218520D02*
X135826D01*
X135097Y218218D01*
X134538Y217659D01*
X134236Y216930D01*
Y216141D01*
X134179Y216056D01*
X84145D01*
X83662Y216256D01*
X82873D01*
X82144Y215954D01*
X81586Y215396D01*
X81283Y214666D01*
Y213877D01*
X81586Y213148D01*
X82144Y212590D01*
X82873Y212287D01*
X83662D01*
X84145Y212487D01*
X133878D01*
X138176Y208190D01*
X137969Y207690D01*
X119972D01*
X119489Y207890D01*
X118700D01*
X118217Y207690D01*
X95472D01*
X94790Y207554D01*
X94211Y207167D01*
X89713Y202670D01*
X89230Y202470D01*
X88672Y201911D01*
X88383Y201212D01*
X86632Y199462D01*
X86245Y198883D01*
X86109Y198200D01*
Y182125D01*
X85694Y181848D01*
X85554Y181905D01*
X84765D01*
X84035Y181603D01*
X83810Y181378D01*
X83386Y181661D01*
X83480Y181889D01*
Y182678D01*
X83178Y183407D01*
X82620Y183966D01*
X81891Y184268D01*
X81101D01*
X80372Y183966D01*
X79814Y183407D01*
X79512Y182678D01*
Y181889D01*
X79814Y181159D01*
X80372Y180601D01*
X81101Y180299D01*
X81891D01*
X82620Y180601D01*
X82846Y180827D01*
X83270Y180544D01*
X83175Y180316D01*
Y179527D01*
X83477Y178797D01*
X84035Y178239D01*
X84473Y178058D01*
X84597Y177475D01*
X78856Y171734D01*
X78470Y171155D01*
X78334Y170472D01*
Y159302D01*
X62155Y143123D01*
X61114D01*
X60631Y143323D01*
X59842D01*
X59112Y143021D01*
X58554Y142463D01*
X58252Y141733D01*
Y140944D01*
X58554Y140215D01*
X59112Y139656D01*
X59842Y139354D01*
X60631D01*
X61114Y139554D01*
X62894D01*
X63577Y139690D01*
X64155Y140077D01*
X81380Y157301D01*
X81380Y157301D01*
X81767Y157880D01*
X81902Y158563D01*
Y162670D01*
X82402Y162859D01*
X83070Y162583D01*
X83859D01*
X84589Y162885D01*
X85147Y163443D01*
X85449Y164172D01*
Y164962D01*
X85147Y165691D01*
X84589Y166249D01*
X83859Y166551D01*
X83070D01*
X82402Y166275D01*
X81902Y166464D01*
Y169733D01*
X88548Y176379D01*
X88900Y176706D01*
X88900Y176706D01*
Y176706D01*
X89263Y176419D01*
X88961Y175690D01*
Y174901D01*
X89263Y174171D01*
X89821Y173613D01*
X90550Y173311D01*
X91340D01*
X91501Y173378D01*
X91917Y173100D01*
Y157432D01*
X89123Y154638D01*
X88640Y154438D01*
X88082Y153880D01*
X87779Y153151D01*
Y152361D01*
X88082Y151632D01*
X88640Y151074D01*
X89369Y150772D01*
X90158D01*
X90888Y151074D01*
X91446Y151632D01*
X91646Y152115D01*
X94962Y155431D01*
X94963Y155431D01*
X95349Y156010D01*
X95485Y156693D01*
Y197686D01*
X98574Y200775D01*
X116311D01*
X116559Y200275D01*
X116323Y199706D01*
Y198916D01*
X116625Y198187D01*
X117183Y197629D01*
X117912Y197327D01*
X118702D01*
X119431Y197629D01*
X119584Y197782D01*
X134718D01*
X174726Y157773D01*
Y155732D01*
X174843Y155147D01*
X175174Y154651D01*
X203542Y126283D01*
X203335Y125783D01*
X202952D01*
X202222Y125481D01*
X201664Y124923D01*
X201362Y124194D01*
Y123405D01*
X201664Y122675D01*
X202222Y122117D01*
X202952Y121815D01*
X203741D01*
X204470Y122117D01*
X205029Y122675D01*
X205307Y123348D01*
X205411Y123436D01*
X205831Y123600D01*
X205966Y123509D01*
Y116944D01*
X206082Y116359D01*
X206414Y115863D01*
X216075Y106202D01*
X216571Y105870D01*
X217156Y105754D01*
X223705D01*
Y104610D01*
X223227Y104557D01*
X186031D01*
X185963Y104625D01*
X185467Y104956D01*
X184882Y105073D01*
X142222D01*
X142069Y105226D01*
X141340Y105528D01*
X140550D01*
X139821Y105226D01*
X139263Y104667D01*
X138961Y103938D01*
Y103149D01*
X139263Y102419D01*
X139821Y101861D01*
X140550Y101559D01*
X141340D01*
X142069Y101861D01*
X142222Y102014D01*
X144266D01*
X144509Y101514D01*
X144271Y100938D01*
Y100149D01*
X144470Y99667D01*
X144172Y99167D01*
X138667D01*
X137860Y99974D01*
Y100190D01*
X137558Y100919D01*
X137000Y101478D01*
X136271Y101780D01*
X135481D01*
X134752Y101478D01*
X134194Y100919D01*
X133892Y100190D01*
Y99401D01*
X133459Y99140D01*
X133235Y99121D01*
X132700Y99655D01*
X132843Y99999D01*
Y100788D01*
X132540Y101518D01*
X131982Y102076D01*
X131253Y102378D01*
X130464D01*
X129734Y102076D01*
X129176Y101518D01*
X128874Y100788D01*
Y99999D01*
X129176Y99270D01*
X129627Y98819D01*
X129689Y98505D01*
X130021Y98009D01*
X131295Y96735D01*
X131230Y96239D01*
X130816Y96000D01*
X130024Y95209D01*
X129465Y94240D01*
X129175Y93159D01*
Y92040D01*
X129465Y90959D01*
X130024Y89990D01*
X130816Y89199D01*
X131785Y88639D01*
X132866Y88349D01*
X133985D01*
X135066Y88639D01*
X136035Y89199D01*
X136700Y89864D01*
X137172Y89885D01*
X137317Y89840D01*
X137344Y89801D01*
X140376Y86768D01*
X140734Y86529D01*
X140796Y86128D01*
X140796Y86083D01*
X140767Y85951D01*
X140024Y85208D01*
X139465Y84239D01*
X139175Y83158D01*
Y82039D01*
X139465Y80958D01*
X140024Y79989D01*
X140816Y79198D01*
X141785Y78638D01*
X142866Y78348D01*
X143985D01*
X145066Y78638D01*
X146035Y79198D01*
X146826Y79989D01*
X147386Y80958D01*
X147675Y82039D01*
Y83158D01*
X147386Y84239D01*
X146826Y85208D01*
X146214Y85820D01*
X146421Y86320D01*
X150430D01*
X150637Y85820D01*
X150025Y85208D01*
X149466Y84239D01*
X149176Y83158D01*
Y82039D01*
X149466Y80958D01*
X150025Y79989D01*
X150817Y79198D01*
X151786Y78638D01*
X152867Y78348D01*
X153986D01*
X155067Y78638D01*
X156036Y79198D01*
X156827Y79989D01*
X157387Y80958D01*
X157676Y82039D01*
Y83158D01*
X157387Y84239D01*
X156827Y85208D01*
X156215Y85820D01*
X156422Y86320D01*
X160430D01*
X160637Y85820D01*
X160025Y85208D01*
X159466Y84239D01*
X159176Y83158D01*
Y82039D01*
X159466Y80958D01*
X160025Y79989D01*
X160817Y79198D01*
X161786Y78638D01*
X162867Y78348D01*
X163986D01*
X165067Y78638D01*
X166036Y79198D01*
X166827Y79989D01*
X167387Y80958D01*
X167676Y82039D01*
Y83158D01*
X167387Y84239D01*
X166827Y85208D01*
X166215Y85820D01*
X166422Y86320D01*
X170430D01*
X170637Y85820D01*
X170025Y85208D01*
X169466Y84239D01*
X169294Y83598D01*
X177558D01*
X177387Y84239D01*
X176827Y85208D01*
X176215Y85820D01*
X176422Y86320D01*
X220133D01*
X220718Y86436D01*
X221214Y86768D01*
X237302Y102856D01*
X237633Y103352D01*
X237750Y103937D01*
Y122047D01*
X237633Y122633D01*
X237302Y123129D01*
X229018Y131413D01*
X229051Y131538D01*
Y132242D01*
X228869Y132922D01*
X228517Y133531D01*
X228019Y134029D01*
X227895Y134100D01*
Y134600D01*
X228019Y134672D01*
X228517Y135170D01*
X228869Y135779D01*
X229051Y136459D01*
Y137163D01*
X228869Y137843D01*
X228517Y138452D01*
X228019Y138950D01*
X227895Y139022D01*
Y139522D01*
X228019Y139593D01*
X228517Y140091D01*
X228869Y140700D01*
X229051Y141380D01*
Y142084D01*
X228869Y142764D01*
X228517Y143374D01*
X228019Y143871D01*
X227410Y144223D01*
X226730Y144405D01*
X226026D01*
X225346Y144223D01*
X224736Y143871D01*
X224239Y143374D01*
X223887Y142764D01*
X223705Y142084D01*
Y141380D01*
X223887Y140700D01*
X224239Y140091D01*
X224736Y139593D01*
X224860Y139522D01*
Y139022D01*
X224736Y138950D01*
X224239Y138452D01*
X223887Y137843D01*
X223762Y137376D01*
X223234Y137196D01*
X220427Y140004D01*
Y181496D01*
X220311Y182081D01*
X219979Y182578D01*
X212967Y189589D01*
X212471Y189921D01*
X211886Y190037D01*
X197675D01*
X197397Y190453D01*
X197457Y190597D01*
Y191387D01*
X197257Y191868D01*
X197556Y192368D01*
X224174D01*
X224239Y192256D01*
X224736Y191759D01*
X224860Y191687D01*
Y191187D01*
X224736Y191115D01*
X224239Y190618D01*
X223887Y190008D01*
X223705Y189328D01*
Y188624D01*
X223887Y187945D01*
X224239Y187335D01*
X224736Y186837D01*
X224860Y186766D01*
Y186266D01*
X224736Y186194D01*
X224239Y185696D01*
X223887Y185087D01*
X223705Y184407D01*
Y183703D01*
X223887Y183023D01*
X224239Y182414D01*
X224736Y181916D01*
X224860Y181844D01*
Y181344D01*
X224736Y181273D01*
X224239Y180775D01*
X223887Y180166D01*
X223705Y179486D01*
Y178782D01*
X223887Y178102D01*
X224239Y177492D01*
X224736Y176995D01*
X224860Y176923D01*
Y176423D01*
X224736Y176352D01*
X224239Y175854D01*
X223887Y175244D01*
X223705Y174565D01*
Y173861D01*
X223887Y173181D01*
X224239Y172571D01*
X224736Y172073D01*
X224860Y172002D01*
Y171502D01*
X224736Y171431D01*
X224239Y170933D01*
X223887Y170323D01*
X223705Y169643D01*
Y168939D01*
X223887Y168260D01*
X224239Y167650D01*
X224345Y167543D01*
X224138Y167043D01*
X223705D01*
Y161697D01*
X229051D01*
Y167043D01*
X228618D01*
X228410Y167543D01*
X228517Y167650D01*
X228869Y168260D01*
X229051Y168939D01*
Y169643D01*
X228869Y170323D01*
X228517Y170933D01*
X228019Y171431D01*
X227895Y171502D01*
Y172002D01*
X228019Y172073D01*
X228517Y172571D01*
X228869Y173181D01*
X229051Y173861D01*
Y174565D01*
X228869Y175244D01*
X228517Y175854D01*
X228019Y176352D01*
X227895Y176423D01*
Y176923D01*
X228019Y176995D01*
X228517Y177492D01*
X228869Y178102D01*
X229051Y178782D01*
Y179486D01*
X228869Y180166D01*
X228517Y180775D01*
X228019Y181273D01*
X227895Y181344D01*
Y181844D01*
X228019Y181916D01*
X228517Y182414D01*
X228869Y183023D01*
X229051Y183703D01*
Y184407D01*
X228869Y185087D01*
X228517Y185696D01*
X228019Y186194D01*
X227895Y186266D01*
Y186766D01*
X228019Y186837D01*
X228517Y187335D01*
X228869Y187945D01*
X229051Y188624D01*
Y189328D01*
X228869Y190008D01*
X228517Y190618D01*
X228019Y191115D01*
X227895Y191187D01*
Y191687D01*
X228019Y191759D01*
X228517Y192256D01*
X228869Y192866D01*
X229051Y193546D01*
Y194250D01*
X228869Y194930D01*
X228517Y195539D01*
X228019Y196037D01*
X227895Y196108D01*
Y196608D01*
X228019Y196680D01*
X228517Y197178D01*
X228869Y197787D01*
X228877Y197819D01*
X226378D01*
X223878D01*
X223887Y197787D01*
X224239Y197178D01*
X224736Y196680D01*
X224860Y196608D01*
Y196108D01*
X224736Y196037D01*
X224239Y195539D01*
X224174Y195427D01*
X188285D01*
X188132Y195580D01*
X188044Y195616D01*
Y196116D01*
X188132Y196152D01*
X188690Y196711D01*
X188992Y197440D01*
Y198229D01*
X188690Y198959D01*
X188132Y199517D01*
X187403Y199819D01*
X186613D01*
X185884Y199517D01*
X185326Y198959D01*
X185024Y198229D01*
Y197440D01*
X185326Y196711D01*
X185884Y196152D01*
X185972Y196116D01*
Y195616D01*
X185884Y195580D01*
X185326Y195022D01*
X185024Y194292D01*
Y193503D01*
X185326Y192774D01*
X185884Y192216D01*
X186613Y191913D01*
X187403D01*
X188132Y192216D01*
X188285Y192368D01*
X193389D01*
X193688Y191868D01*
X193488Y191387D01*
Y190597D01*
X193548Y190453D01*
X193270Y190037D01*
X188705D01*
X188119Y189921D01*
X187623Y189589D01*
X186042Y188008D01*
X185826D01*
X185097Y187706D01*
X184538Y187148D01*
X184236Y186418D01*
Y185629D01*
X184538Y184900D01*
X185097Y184342D01*
X185282Y184265D01*
X185330Y184047D01*
X185327Y183704D01*
X184834Y183211D01*
X184531Y182481D01*
Y181692D01*
X184834Y180963D01*
X185392Y180404D01*
X185528Y180348D01*
X185564Y180038D01*
X185553Y179796D01*
X185030Y179274D01*
X184728Y178544D01*
Y177755D01*
X185030Y177026D01*
X185589Y176468D01*
X186318Y176165D01*
X186534D01*
X187370Y175329D01*
X187179Y174867D01*
X180145D01*
X178958Y176055D01*
X178848Y176321D01*
X178289Y176879D01*
X178023Y176989D01*
X161002Y194010D01*
X161146Y194573D01*
X161632Y194774D01*
X162190Y195333D01*
X162492Y196062D01*
Y196851D01*
X162190Y197581D01*
X161632Y198139D01*
X160903Y198441D01*
X160113D01*
X159384Y198139D01*
X158826Y197581D01*
X158624Y197095D01*
X158062Y196951D01*
X148192Y206820D01*
X148399Y207320D01*
X171456D01*
X175480Y203296D01*
X175680Y202813D01*
X176238Y202255D01*
X176968Y201953D01*
X177757D01*
X178486Y202255D01*
X179044Y202813D01*
X179347Y203542D01*
Y204332D01*
X179044Y205061D01*
X178486Y205619D01*
X178003Y205819D01*
X173457Y210366D01*
X172878Y210753D01*
X172195Y210889D01*
X140524D01*
X137107Y214305D01*
X137205Y214795D01*
X137345Y214853D01*
X137903Y215411D01*
X138205Y216141D01*
Y216930D01*
X137903Y217659D01*
X137345Y218218D01*
X136615Y218520D01*
D02*
G37*
G36*
X229346Y220225D02*
Y215567D01*
X234005D01*
X233681Y216776D01*
X232927Y218082D01*
X231861Y219148D01*
X230556Y219901D01*
X229346Y220225D01*
D02*
G37*
G36*
X227346D02*
X226137Y219901D01*
X224832Y219148D01*
X223766Y218082D01*
X223012Y216776D01*
X222688Y215567D01*
X227346D01*
Y220225D01*
D02*
G37*
G36*
X65961D02*
Y215567D01*
X70619D01*
X70295Y216776D01*
X69541Y218082D01*
X68476Y219148D01*
X67170Y219901D01*
X65961Y220225D01*
D02*
G37*
G36*
X63961D02*
X62751Y219901D01*
X61446Y219148D01*
X60380Y218082D01*
X59626Y216776D01*
X59302Y215567D01*
X63961D01*
Y220225D01*
D02*
G37*
G36*
X143308Y218520D02*
X142519D01*
X141789Y218218D01*
X141231Y217659D01*
X140929Y216930D01*
Y216141D01*
X141231Y215411D01*
X141789Y214853D01*
X142519Y214551D01*
X143308D01*
X144037Y214853D01*
X144596Y215411D01*
X144898Y216141D01*
Y216930D01*
X144596Y217659D01*
X144037Y218218D01*
X143308Y218520D01*
D02*
G37*
G36*
X162009Y218224D02*
X161220D01*
X160490Y217922D01*
X159932Y217364D01*
X159630Y216635D01*
Y215845D01*
X159932Y215116D01*
X160490Y214558D01*
X161220Y214256D01*
X162009D01*
X162738Y214558D01*
X163296Y215116D01*
X163598Y215845D01*
Y216635D01*
X163296Y217364D01*
X162738Y217922D01*
X162009Y218224D01*
D02*
G37*
G36*
X148820Y218913D02*
X148030D01*
X147301Y218611D01*
X146743Y218053D01*
X146441Y217324D01*
Y216534D01*
X146743Y215805D01*
X147301Y215247D01*
X148030Y214945D01*
X148820D01*
X149549Y215247D01*
X149685Y215383D01*
X150175Y215285D01*
X150286Y215018D01*
X150845Y214460D01*
X151574Y214158D01*
X152363D01*
X153093Y214460D01*
X153651Y215018D01*
X153953Y215747D01*
Y216536D01*
X153651Y217266D01*
X153093Y217824D01*
X152363Y218126D01*
X151574D01*
X150845Y217824D01*
X150709Y217688D01*
X150218Y217786D01*
X150107Y218053D01*
X149549Y218611D01*
X148820Y218913D01*
D02*
G37*
G36*
X234005Y213567D02*
X229346D01*
Y208909D01*
X230556Y209233D01*
X231861Y209986D01*
X232927Y211052D01*
X233681Y212357D01*
X234005Y213567D01*
D02*
G37*
G36*
X227346D02*
X222688D01*
X223012Y212357D01*
X223766Y211052D01*
X224832Y209986D01*
X226137Y209233D01*
X227346Y208909D01*
Y213567D01*
D02*
G37*
G36*
X70619D02*
X65961D01*
Y208909D01*
X67170Y209233D01*
X68476Y209986D01*
X69541Y211052D01*
X70295Y212357D01*
X70619Y213567D01*
D02*
G37*
G36*
X63961D02*
X59302D01*
X59626Y212357D01*
X60380Y211052D01*
X61446Y209986D01*
X62751Y209233D01*
X63961Y208909D01*
Y213567D01*
D02*
G37*
G36*
X206103Y205724D02*
X205314D01*
X204585Y205422D01*
X204027Y204864D01*
X203724Y204135D01*
Y203345D01*
X204027Y202616D01*
X204585Y202058D01*
X205314Y201756D01*
X206103D01*
X206833Y202058D01*
X207391Y202616D01*
X207693Y203345D01*
Y204135D01*
X207391Y204864D01*
X206833Y205422D01*
X206103Y205724D01*
D02*
G37*
G36*
X83662Y205331D02*
X82873D01*
X82144Y205029D01*
X81586Y204470D01*
X81283Y203741D01*
Y202952D01*
X81586Y202222D01*
X82144Y201664D01*
X82873Y201362D01*
X83662D01*
X84392Y201664D01*
X84950Y202222D01*
X85252Y202952D01*
Y203741D01*
X84950Y204470D01*
X84392Y205029D01*
X83662Y205331D01*
D02*
G37*
G36*
X65355Y205134D02*
X64566D01*
X63837Y204832D01*
X63279Y204274D01*
X62976Y203544D01*
Y202755D01*
X63279Y202026D01*
X63837Y201467D01*
X64566Y201165D01*
X65355D01*
X66085Y201467D01*
X66643Y202026D01*
X66945Y202755D01*
Y203544D01*
X66643Y204274D01*
X66085Y204832D01*
X65355Y205134D01*
D02*
G37*
G36*
X161418Y204740D02*
X160629D01*
X159900Y204438D01*
X159342Y203880D01*
X159039Y203151D01*
Y202361D01*
X159342Y201632D01*
X159900Y201074D01*
X160629Y200772D01*
X161418D01*
X162148Y201074D01*
X162706Y201632D01*
X163008Y202361D01*
Y203151D01*
X162706Y203880D01*
X162148Y204438D01*
X161418Y204740D01*
D02*
G37*
G36*
X227378Y201319D02*
Y199819D01*
X228877D01*
X228869Y199851D01*
X228517Y200460D01*
X228019Y200958D01*
X227410Y201310D01*
X227378Y201319D01*
D02*
G37*
G36*
X225378D02*
X225346Y201310D01*
X224736Y200958D01*
X224239Y200460D01*
X223887Y199851D01*
X223878Y199819D01*
X225378D01*
Y201319D01*
D02*
G37*
G36*
X64956Y198052D02*
X64167D01*
X63438Y197750D01*
X62880Y197192D01*
X62577Y196463D01*
Y195674D01*
X62880Y194944D01*
X63438Y194386D01*
X64167Y194084D01*
X64956D01*
X65686Y194386D01*
X66244Y194944D01*
X66546Y195674D01*
Y196463D01*
X66244Y197192D01*
X65686Y197750D01*
X64956Y198052D01*
D02*
G37*
G36*
X108170Y195291D02*
X107381D01*
X106652Y194989D01*
X106093Y194431D01*
X105791Y193702D01*
Y192912D01*
X106093Y192183D01*
X106018Y191894D01*
X105493Y191617D01*
X105414Y191650D01*
X104625D01*
X103896Y191348D01*
X103338Y190789D01*
X103035Y190060D01*
Y189271D01*
X103237Y188785D01*
X102855Y188402D01*
X102066D01*
X101337Y188100D01*
X100778Y187541D01*
X100476Y186812D01*
Y186023D01*
X100778Y185293D01*
X101120Y184951D01*
Y181502D01*
X100705Y181224D01*
X100560Y181284D01*
X99771D01*
X99041Y180982D01*
X98483Y180423D01*
X98181Y179694D01*
Y178905D01*
X98483Y178175D01*
X99041Y177617D01*
X99771Y177315D01*
X100560D01*
X100705Y177375D01*
X101120Y177097D01*
Y173886D01*
X100705Y173608D01*
X100395Y173736D01*
X99605D01*
X98876Y173434D01*
X98318Y172876D01*
X98016Y172147D01*
Y171357D01*
X98318Y170628D01*
X98471Y170475D01*
Y152176D01*
X97737Y151443D01*
X97406Y150946D01*
X97290Y150361D01*
Y130413D01*
X97406Y129828D01*
X97737Y129332D01*
X114377Y112693D01*
X114873Y112361D01*
X115458Y112245D01*
X149670D01*
X149823Y112092D01*
X150552Y111790D01*
X151342D01*
X152071Y112092D01*
X152629Y112650D01*
X152931Y113380D01*
Y114169D01*
X152756Y114591D01*
X153046Y115134D01*
X153277Y115169D01*
X153959Y114487D01*
X154228Y113837D01*
X154787Y113278D01*
X155516Y112976D01*
X156305D01*
X157034Y113278D01*
X157593Y113837D01*
X157895Y114566D01*
Y115138D01*
X158395Y115345D01*
X158958Y114782D01*
Y114566D01*
X159260Y113837D01*
X159818Y113278D01*
X160547Y112976D01*
X161337D01*
X162066Y113278D01*
X162624Y113837D01*
X162926Y114566D01*
Y114722D01*
X163426Y114929D01*
X163926Y114429D01*
Y114213D01*
X164228Y113484D01*
X164787Y112926D01*
X165516Y112624D01*
X166305D01*
X167034Y112926D01*
X167593Y113484D01*
X167895Y114213D01*
Y115003D01*
X167593Y115732D01*
X167034Y116290D01*
X166305Y116592D01*
X166089D01*
X159992Y122690D01*
X160183Y123152D01*
X170651D01*
X170759Y122892D01*
X171317Y122334D01*
X172046Y122031D01*
X172836D01*
X173565Y122334D01*
X174123Y122892D01*
X174425Y123621D01*
Y124410D01*
X174123Y125140D01*
X173565Y125698D01*
X172836Y126000D01*
X172502D01*
X172361Y126094D01*
X171776Y126210D01*
X169647D01*
X169369Y126626D01*
X169429Y126771D01*
Y127560D01*
X169127Y128289D01*
X168569Y128848D01*
X167840Y129150D01*
X167050D01*
X166321Y128848D01*
X165763Y128289D01*
X165461Y127560D01*
Y126771D01*
X165521Y126626D01*
X165243Y126210D01*
X163138D01*
X162861Y126626D01*
X162920Y126771D01*
Y127560D01*
X162618Y128289D01*
X162060Y128848D01*
X161331Y129150D01*
X160542D01*
X159812Y128848D01*
X159254Y128289D01*
X158952Y127560D01*
Y126771D01*
X159012Y126626D01*
X158734Y126210D01*
X157234D01*
X157109Y126495D01*
X157081Y126710D01*
X157593Y127223D01*
X157895Y127952D01*
Y128741D01*
X157593Y129471D01*
X157034Y130029D01*
X156305Y130331D01*
X155516D01*
X154787Y130029D01*
X154228Y129471D01*
X154168Y129326D01*
X153678Y129228D01*
X153542Y129365D01*
X153046Y129696D01*
X152461Y129813D01*
X152404D01*
X152066Y130151D01*
X151337Y130453D01*
X150547D01*
X149818Y130151D01*
X149260Y129593D01*
X148958Y128863D01*
Y128074D01*
X149260Y127345D01*
X149818Y126786D01*
X150547Y126484D01*
X151337D01*
X151874Y126707D01*
X154247Y124334D01*
X154056Y123872D01*
X129767D01*
X129066Y124574D01*
X129340Y124992D01*
X129347Y124999D01*
X130134D01*
X130863Y125301D01*
X131422Y125859D01*
X131724Y126589D01*
Y127378D01*
X131422Y128108D01*
X130863Y128666D01*
X130134Y128968D01*
X129345D01*
X128615Y128666D01*
X128057Y128108D01*
X127755Y127378D01*
Y126591D01*
X127748Y126584D01*
X127330Y126310D01*
X108199Y145441D01*
Y152506D01*
X108699Y152677D01*
X109136Y152240D01*
X109865Y151938D01*
X110654D01*
X111384Y152240D01*
X111942Y152798D01*
X112244Y153527D01*
Y154317D01*
X111942Y155046D01*
X111384Y155604D01*
X110654Y155906D01*
X109865D01*
X109136Y155604D01*
X108699Y155167D01*
X108199Y155338D01*
Y172740D01*
X108614Y173018D01*
X108857Y172917D01*
X109647D01*
X110376Y173219D01*
X110934Y173778D01*
X111236Y174507D01*
Y175296D01*
X110934Y176026D01*
X110376Y176584D01*
X109647Y176886D01*
X108857D01*
X108614Y176785D01*
X108199Y177063D01*
Y185163D01*
X108857Y185822D01*
X109189Y186318D01*
X109305Y186903D01*
Y192030D01*
X109458Y192183D01*
X109760Y192912D01*
Y193702D01*
X109458Y194431D01*
X108900Y194989D01*
X108170Y195291D01*
D02*
G37*
G36*
X138092Y193224D02*
X137302D01*
X136573Y192922D01*
X136015Y192364D01*
X135713Y191635D01*
Y190846D01*
X136015Y190116D01*
X136573Y189558D01*
X137302Y189256D01*
X138092D01*
X138821Y189558D01*
X139379Y190116D01*
X139681Y190846D01*
Y191635D01*
X139379Y192364D01*
X138821Y192922D01*
X138092Y193224D01*
D02*
G37*
G36*
X120473Y195095D02*
X119684D01*
X118955Y194792D01*
X118397Y194234D01*
X118095Y193505D01*
Y192716D01*
X118397Y191986D01*
X118955Y191428D01*
X119062Y191384D01*
Y190842D01*
X118856Y190757D01*
X118298Y190199D01*
X117996Y189470D01*
Y188680D01*
X118298Y187951D01*
X118856Y187393D01*
X119586Y187091D01*
X120375D01*
X121104Y187393D01*
X121662Y187951D01*
X121965Y188680D01*
Y189470D01*
X121662Y190199D01*
X121104Y190757D01*
X120997Y190802D01*
Y191343D01*
X121203Y191428D01*
X121761Y191986D01*
X122063Y192716D01*
Y193505D01*
X121761Y194234D01*
X121203Y194792D01*
X120473Y195095D01*
D02*
G37*
G36*
X120473Y185252D02*
X119684D01*
X118955Y184950D01*
X118397Y184392D01*
X118095Y183662D01*
Y182873D01*
X118397Y182144D01*
X118955Y181586D01*
X119110Y181521D01*
X119164Y181364D01*
X119178Y180952D01*
X118716Y180490D01*
X118413Y179760D01*
Y178971D01*
X118716Y178242D01*
X119274Y177683D01*
X120003Y177381D01*
X120792D01*
X121522Y177683D01*
X122080Y178242D01*
X122382Y178971D01*
Y179760D01*
X122080Y180490D01*
X121522Y181048D01*
X121366Y181112D01*
X121312Y181269D01*
X121299Y181681D01*
X121761Y182144D01*
X122063Y182873D01*
Y183662D01*
X121761Y184392D01*
X121203Y184950D01*
X120473Y185252D01*
D02*
G37*
G36*
X80710Y178756D02*
X79920D01*
X79191Y178454D01*
X78633Y177896D01*
X78331Y177166D01*
Y176377D01*
X78633Y175648D01*
X79191Y175090D01*
X79920Y174787D01*
X80710D01*
X81439Y175090D01*
X81997Y175648D01*
X82299Y176377D01*
Y177166D01*
X81997Y177896D01*
X81439Y178454D01*
X80710Y178756D01*
D02*
G37*
G36*
X64568Y188205D02*
X63779D01*
X63049Y187903D01*
X62491Y187345D01*
X62189Y186615D01*
Y185826D01*
X62491Y185097D01*
X62678Y184910D01*
X62656Y184359D01*
X62615Y184319D01*
X62097Y183801D01*
X61795Y183072D01*
Y182282D01*
X62097Y181553D01*
X62579Y181071D01*
X62575Y180528D01*
X62557Y180521D01*
X61999Y179963D01*
X61697Y179233D01*
Y178444D01*
X61999Y177715D01*
X62418Y177295D01*
X62539Y177083D01*
X62440Y176664D01*
X62097Y176321D01*
X61795Y175592D01*
Y174802D01*
X62097Y174073D01*
X62656Y173515D01*
X63385Y173213D01*
X64174D01*
X64903Y173515D01*
X65462Y174073D01*
X65764Y174802D01*
Y175592D01*
X65462Y176321D01*
X65042Y176740D01*
X64921Y176953D01*
X65020Y177372D01*
X65363Y177715D01*
X65665Y178444D01*
Y179233D01*
X65363Y179963D01*
X64881Y180445D01*
X64885Y180988D01*
X64903Y180995D01*
X65462Y181553D01*
X65764Y182282D01*
Y183072D01*
X65462Y183801D01*
X65275Y183988D01*
X65297Y184538D01*
X65338Y184579D01*
X65855Y185097D01*
X66158Y185826D01*
Y186615D01*
X65855Y187345D01*
X65297Y187903D01*
X64568Y188205D01*
D02*
G37*
G36*
X132284Y174819D02*
X131495D01*
X130766Y174517D01*
X130208Y173959D01*
X129905Y173229D01*
Y172440D01*
X130208Y171711D01*
X130766Y171152D01*
X131495Y170850D01*
X132284D01*
X133014Y171152D01*
X133572Y171711D01*
X133874Y172440D01*
Y173229D01*
X133572Y173959D01*
X133014Y174517D01*
X132284Y174819D01*
D02*
G37*
G36*
X61025Y166551D02*
X60235D01*
X59506Y166249D01*
X58948Y165691D01*
X58646Y164962D01*
Y164172D01*
X58948Y163443D01*
X59506Y162885D01*
X60235Y162583D01*
X61025D01*
X61754Y162885D01*
X62312Y163443D01*
X62614Y164172D01*
Y164962D01*
X62312Y165691D01*
X61754Y166249D01*
X61025Y166551D01*
D02*
G37*
G36*
X88398Y164791D02*
X87609D01*
X86880Y164489D01*
X86322Y163931D01*
X86019Y163201D01*
Y162412D01*
X86322Y161683D01*
X86880Y161125D01*
X87609Y160823D01*
X88398D01*
X89128Y161125D01*
X89686Y161683D01*
X89988Y162412D01*
Y163201D01*
X89686Y163931D01*
X89128Y164489D01*
X88398Y164791D01*
D02*
G37*
G36*
X60616Y161812D02*
X59827D01*
X59098Y161510D01*
X58539Y160952D01*
X58237Y160223D01*
Y159433D01*
X58539Y158704D01*
X59098Y158146D01*
X59827Y157844D01*
X60616D01*
X61346Y158146D01*
X61904Y158704D01*
X62206Y159433D01*
Y160223D01*
X61904Y160952D01*
X61346Y161510D01*
X60616Y161812D01*
D02*
G37*
G36*
X162403Y156610D02*
X161613D01*
X160884Y156308D01*
X160326Y155750D01*
X160113Y155237D01*
X159572D01*
X159359Y155750D01*
X158801Y156308D01*
X158072Y156610D01*
X157282D01*
X156553Y156308D01*
X155995Y155750D01*
X155693Y155021D01*
Y154231D01*
X155995Y153502D01*
X156553Y152944D01*
X157282Y152642D01*
X158072D01*
X158801Y152944D01*
X159359Y153502D01*
X159572Y154015D01*
X160113D01*
X160326Y153502D01*
X160884Y152944D01*
X161613Y152642D01*
X162403D01*
X163132Y152944D01*
X163690Y153502D01*
X163992Y154231D01*
Y155021D01*
X163690Y155750D01*
X163132Y156308D01*
X162403Y156610D01*
D02*
G37*
G36*
X168308D02*
X167519D01*
X166789Y156308D01*
X166231Y155750D01*
X165929Y155021D01*
Y154231D01*
X166231Y153502D01*
X166789Y152944D01*
X167519Y152642D01*
X168308D01*
X169037Y152944D01*
X169596Y153502D01*
X169898Y154231D01*
Y155021D01*
X169596Y155750D01*
X169037Y156308D01*
X168308Y156610D01*
D02*
G37*
G36*
X152166D02*
X151377D01*
X150648Y156308D01*
X150090Y155750D01*
X149787Y155021D01*
Y154231D01*
X150090Y153502D01*
X150648Y152944D01*
X151377Y152642D01*
X152166D01*
X152896Y152944D01*
X153454Y153502D01*
X153756Y154231D01*
Y155021D01*
X153454Y155750D01*
X152896Y156308D01*
X152166Y156610D01*
D02*
G37*
G36*
X89174Y143224D02*
X88385D01*
X87656Y142922D01*
X87097Y142364D01*
X86795Y141635D01*
Y140846D01*
X87097Y140116D01*
X87656Y139558D01*
X88385Y139256D01*
X89174D01*
X89903Y139558D01*
X90462Y140116D01*
X90764Y140846D01*
Y141635D01*
X90462Y142364D01*
X89903Y142922D01*
X89174Y143224D01*
D02*
G37*
G36*
X133705Y142353D02*
X132915D01*
X132186Y142051D01*
X131628Y141493D01*
X131326Y140764D01*
Y139974D01*
X131628Y139245D01*
X132186Y138687D01*
X132915Y138385D01*
X133705D01*
X134434Y138687D01*
X134992Y139245D01*
X135294Y139974D01*
Y140764D01*
X134992Y141493D01*
X134434Y142051D01*
X133705Y142353D01*
D02*
G37*
G36*
X143308Y142142D02*
X142519D01*
X141789Y141840D01*
X141231Y141281D01*
X140929Y140552D01*
Y139763D01*
X141231Y139033D01*
X141789Y138475D01*
X142519Y138173D01*
X143308D01*
X144037Y138475D01*
X144596Y139033D01*
X144898Y139763D01*
Y140552D01*
X144596Y141281D01*
X144037Y141840D01*
X143308Y142142D01*
D02*
G37*
G36*
X138673D02*
X137884D01*
X137155Y141840D01*
X136597Y141281D01*
X136294Y140552D01*
Y139763D01*
X136597Y139033D01*
X137155Y138475D01*
X137884Y138173D01*
X138673D01*
X139403Y138475D01*
X139961Y139033D01*
X140263Y139763D01*
Y140552D01*
X139961Y141281D01*
X139403Y141840D01*
X138673Y142142D01*
D02*
G37*
G36*
X167840Y141902D02*
X167050D01*
X166321Y141600D01*
X165763Y141041D01*
X165461Y140312D01*
Y139523D01*
X165763Y138793D01*
X166321Y138235D01*
X167050Y137933D01*
X167840D01*
X168569Y138235D01*
X169127Y138793D01*
X169429Y139523D01*
Y140312D01*
X169127Y141041D01*
X168569Y141600D01*
X167840Y141902D01*
D02*
G37*
G36*
X162722Y141881D02*
X161932D01*
X161203Y141579D01*
X160645Y141021D01*
X160343Y140291D01*
Y139502D01*
X160645Y138773D01*
X161203Y138214D01*
X161932Y137912D01*
X162722D01*
X163451Y138214D01*
X164009Y138773D01*
X164311Y139502D01*
Y140291D01*
X164009Y141021D01*
X163451Y141579D01*
X162722Y141881D01*
D02*
G37*
G36*
X157753Y141748D02*
X156964D01*
X156234Y141446D01*
X155676Y140888D01*
X155374Y140158D01*
Y139369D01*
X155676Y138640D01*
X156234Y138082D01*
X156964Y137779D01*
X157753D01*
X158482Y138082D01*
X159040Y138640D01*
X159343Y139369D01*
Y140158D01*
X159040Y140888D01*
X158482Y141446D01*
X157753Y141748D01*
D02*
G37*
G36*
X148032Y142142D02*
X147243D01*
X146514Y141840D01*
X145956Y141281D01*
X145653Y140552D01*
Y139763D01*
X145956Y139033D01*
X146514Y138475D01*
X147243Y138173D01*
X148032D01*
X148707Y138452D01*
X148781Y138468D01*
X149277Y138283D01*
X149468Y137821D01*
X150026Y137263D01*
X150755Y136961D01*
X151545D01*
X152274Y137263D01*
X152832Y137821D01*
X153134Y138551D01*
Y139340D01*
X152832Y140069D01*
X152274Y140628D01*
X151545Y140930D01*
X150755D01*
X150081Y140650D01*
X150007Y140635D01*
X149511Y140820D01*
X149320Y141281D01*
X148762Y141840D01*
X148032Y142142D01*
D02*
G37*
G36*
X84598Y140519D02*
X83809D01*
X83080Y140217D01*
X82521Y139658D01*
X82219Y138929D01*
Y138140D01*
X82521Y137410D01*
X83080Y136852D01*
X83809Y136550D01*
X84598D01*
X85328Y136852D01*
X85886Y137410D01*
X86188Y138140D01*
Y138929D01*
X85886Y139658D01*
X85328Y140217D01*
X84598Y140519D01*
D02*
G37*
G36*
X61812Y138205D02*
X61023D01*
X60293Y137903D01*
X59735Y137345D01*
X59433Y136615D01*
Y135826D01*
X59735Y135097D01*
X60293Y134538D01*
X61023Y134236D01*
X61812D01*
X62541Y134538D01*
X63099Y135097D01*
X63402Y135826D01*
Y136615D01*
X63099Y137345D01*
X62541Y137903D01*
X61812Y138205D01*
D02*
G37*
G36*
X178348Y132299D02*
X177558D01*
X176829Y131997D01*
X176271Y131439D01*
X175969Y130710D01*
Y129920D01*
X176271Y129191D01*
X176829Y128633D01*
X177558Y128331D01*
X178348D01*
X179077Y128633D01*
X179635Y129191D01*
X179937Y129920D01*
Y130710D01*
X179635Y131439D01*
X179077Y131997D01*
X178348Y132299D01*
D02*
G37*
G36*
X146336Y130453D02*
X145546D01*
X144817Y130151D01*
X144259Y129593D01*
X143957Y128863D01*
Y128074D01*
X144259Y127345D01*
X144817Y126786D01*
X145546Y126484D01*
X146336D01*
X147065Y126786D01*
X147623Y127345D01*
X147925Y128074D01*
Y128863D01*
X147623Y129593D01*
X147065Y130151D01*
X146336Y130453D01*
D02*
G37*
G36*
X141340D02*
X140550D01*
X139821Y130151D01*
X139263Y129593D01*
X138961Y128863D01*
Y128074D01*
X139263Y127345D01*
X139821Y126786D01*
X140550Y126484D01*
X141340D01*
X142069Y126786D01*
X142627Y127345D01*
X142929Y128074D01*
Y128863D01*
X142627Y129593D01*
X142069Y130151D01*
X141340Y130453D01*
D02*
G37*
G36*
X136371D02*
X135582D01*
X134852Y130151D01*
X134294Y129593D01*
X133992Y128863D01*
Y128074D01*
X134294Y127345D01*
X134852Y126786D01*
X135582Y126484D01*
X136371D01*
X137100Y126786D01*
X137659Y127345D01*
X137961Y128074D01*
Y128863D01*
X137659Y129593D01*
X137100Y130151D01*
X136371Y130453D01*
D02*
G37*
G36*
X198682Y125764D02*
X197893D01*
X197163Y125462D01*
X196605Y124904D01*
X196303Y124174D01*
Y123385D01*
X196605Y122655D01*
X197163Y122097D01*
X197893Y121795D01*
X198682D01*
X199411Y122097D01*
X199970Y122655D01*
X200272Y123385D01*
Y124174D01*
X199970Y124904D01*
X199411Y125462D01*
X198682Y125764D01*
D02*
G37*
G36*
X181497Y125213D02*
X180708D01*
X179978Y124910D01*
X179420Y124352D01*
X179118Y123623D01*
Y122834D01*
X179420Y122104D01*
X179978Y121546D01*
X180708Y121244D01*
X181497D01*
X182226Y121546D01*
X182784Y122104D01*
X183087Y122834D01*
Y123623D01*
X182784Y124352D01*
X182226Y124910D01*
X181497Y125213D01*
D02*
G37*
G36*
X66354Y107595D02*
X59630D01*
Y100870D01*
X66354D01*
Y107595D01*
D02*
G37*
G36*
X63992Y99571D02*
Y97358D01*
X66205D01*
X66125Y97656D01*
X65683Y98423D01*
X65057Y99049D01*
X64290Y99491D01*
X63992Y99571D01*
D02*
G37*
G36*
X61992Y99571D02*
X61694Y99491D01*
X60928Y99049D01*
X60302Y98423D01*
X59859Y97656D01*
X59779Y97358D01*
X61992D01*
Y99571D01*
D02*
G37*
G36*
X124425Y96731D02*
Y93599D01*
X127557D01*
X127386Y94240D01*
X126826Y95209D01*
X126035Y96000D01*
X125066Y96560D01*
X124425Y96731D01*
D02*
G37*
G36*
X122425D02*
X121785Y96560D01*
X120816Y96000D01*
X120024Y95209D01*
X119465Y94240D01*
X119293Y93599D01*
X122425D01*
Y96731D01*
D02*
G37*
G36*
X66205Y95358D02*
X63992D01*
Y93145D01*
X64290Y93225D01*
X65057Y93668D01*
X65683Y94294D01*
X66125Y95060D01*
X66205Y95358D01*
D02*
G37*
G36*
X61992D02*
X59779D01*
X59859Y95060D01*
X60302Y94294D01*
X60928Y93668D01*
X61694Y93225D01*
X61992Y93145D01*
Y95358D01*
D02*
G37*
G36*
X127557Y91599D02*
X124425D01*
Y88468D01*
X125066Y88639D01*
X126035Y89199D01*
X126826Y89990D01*
X127386Y90959D01*
X127557Y91599D01*
D02*
G37*
G36*
X122425D02*
X119293D01*
X119465Y90959D01*
X120024Y89990D01*
X120816Y89199D01*
X121785Y88639D01*
X122425Y88468D01*
Y91599D01*
D02*
G37*
G36*
X89371Y88598D02*
X88582D01*
X87852Y88296D01*
X87294Y87738D01*
X86992Y87009D01*
Y86220D01*
X87294Y85490D01*
X87852Y84932D01*
X88582Y84630D01*
X89371D01*
X90100Y84932D01*
X90658Y85490D01*
X90961Y86220D01*
Y87009D01*
X90658Y87738D01*
X90100Y88296D01*
X89371Y88598D01*
D02*
G37*
G36*
X185292Y84409D02*
X184503D01*
X183774Y84107D01*
X183216Y83549D01*
X182913Y82820D01*
Y82030D01*
X183216Y81301D01*
X183774Y80743D01*
X184503Y80441D01*
X185292D01*
X186022Y80743D01*
X186580Y81301D01*
X186882Y82030D01*
Y82820D01*
X186580Y83549D01*
X186022Y84107D01*
X185292Y84409D01*
D02*
G37*
G36*
X229346Y84399D02*
Y79740D01*
X234005D01*
X233681Y80950D01*
X232927Y82255D01*
X231861Y83321D01*
X230556Y84074D01*
X229346Y84399D01*
D02*
G37*
G36*
X227346D02*
X226137Y84074D01*
X224832Y83321D01*
X223766Y82255D01*
X223012Y80950D01*
X222688Y79740D01*
X227346D01*
Y84399D01*
D02*
G37*
G36*
X65961D02*
Y79740D01*
X70619D01*
X70295Y80950D01*
X69541Y82255D01*
X68476Y83321D01*
X67170Y84074D01*
X65961Y84399D01*
D02*
G37*
G36*
X63961D02*
X62751Y84074D01*
X61446Y83321D01*
X60380Y82255D01*
X59626Y80950D01*
X59302Y79740D01*
X63961D01*
Y84399D01*
D02*
G37*
G36*
X177558Y81598D02*
X174426D01*
Y78466D01*
X175067Y78638D01*
X176036Y79198D01*
X176827Y79989D01*
X177387Y80958D01*
X177558Y81598D01*
D02*
G37*
G36*
X172426D02*
X169294D01*
X169466Y80958D01*
X170025Y79989D01*
X170817Y79198D01*
X171786Y78638D01*
X172426Y78466D01*
Y81598D01*
D02*
G37*
G36*
X133985Y86848D02*
X132866D01*
X131785Y86559D01*
X130816Y85999D01*
X130024Y85208D01*
X129465Y84239D01*
X129175Y83158D01*
Y82039D01*
X129465Y80958D01*
X130024Y79989D01*
X130816Y79198D01*
X131785Y78638D01*
X132866Y78348D01*
X133985D01*
X135066Y78638D01*
X136035Y79198D01*
X136826Y79989D01*
X137386Y80958D01*
X137675Y82039D01*
Y83158D01*
X137386Y84239D01*
X136826Y85208D01*
X136035Y85999D01*
X135066Y86559D01*
X133985Y86848D01*
D02*
G37*
G36*
X127675D02*
X119175D01*
Y78348D01*
X127675D01*
Y86848D01*
D02*
G37*
G36*
X192521Y80331D02*
X191731D01*
X191002Y80029D01*
X190444Y79470D01*
X190142Y78741D01*
Y77952D01*
X190444Y77223D01*
X191002Y76664D01*
X191731Y76362D01*
X192521D01*
X193250Y76664D01*
X193808Y77223D01*
X194110Y77952D01*
Y78741D01*
X193808Y79470D01*
X193250Y80029D01*
X192521Y80331D01*
D02*
G37*
G36*
X234005Y77740D02*
X229346D01*
Y73082D01*
X230556Y73406D01*
X231861Y74159D01*
X232927Y75225D01*
X233681Y76531D01*
X234005Y77740D01*
D02*
G37*
G36*
X227346D02*
X222688D01*
X223012Y76531D01*
X223766Y75225D01*
X224832Y74159D01*
X226137Y73406D01*
X227346Y73082D01*
Y77740D01*
D02*
G37*
G36*
X70619D02*
X65961D01*
Y73082D01*
X67170Y73406D01*
X68476Y74159D01*
X69541Y75225D01*
X70295Y76531D01*
X70619Y77740D01*
D02*
G37*
G36*
X63961D02*
X59302D01*
X59626Y76531D01*
X60380Y75225D01*
X61446Y74159D01*
X62751Y73406D01*
X63961Y73082D01*
Y77740D01*
D02*
G37*
G36*
X99943Y76181D02*
X99269D01*
X98619Y76007D01*
X98035Y75670D01*
X97559Y75193D01*
X97222Y74610D01*
X97047Y73959D01*
Y73285D01*
X97222Y72634D01*
X97559Y72051D01*
X98035Y71574D01*
X98619Y71237D01*
X99269Y71063D01*
X99943D01*
X100594Y71237D01*
X101178Y71574D01*
X101654Y72051D01*
X101991Y72634D01*
X102165Y73285D01*
Y73959D01*
X101991Y74610D01*
X101654Y75193D01*
X101178Y75670D01*
X100594Y76007D01*
X99943Y76181D01*
D02*
G37*
G36*
X88132D02*
X87458D01*
X86808Y76007D01*
X86224Y75670D01*
X85747Y75193D01*
X85411Y74610D01*
X85236Y73959D01*
Y73285D01*
X85411Y72634D01*
X85747Y72051D01*
X86224Y71574D01*
X86808Y71237D01*
X87458Y71063D01*
X88132D01*
X88783Y71237D01*
X89367Y71574D01*
X89843Y72051D01*
X90180Y72634D01*
X90354Y73285D01*
Y73959D01*
X90180Y74610D01*
X89843Y75193D01*
X89367Y75670D01*
X88783Y76007D01*
X88132Y76181D01*
D02*
G37*
%LPD*%
G36*
X156975Y192990D02*
X156858Y192401D01*
X156623Y192304D01*
X156065Y191745D01*
X155763Y191016D01*
Y190227D01*
X156065Y189497D01*
X156623Y188939D01*
X157353Y188637D01*
X158142D01*
X158871Y188939D01*
X159430Y189497D01*
X159527Y189732D01*
X160116Y189849D01*
X162145Y187821D01*
X161862Y187397D01*
X161812Y187417D01*
X161023D01*
X160293Y187115D01*
X159735Y186557D01*
X159433Y185828D01*
Y185038D01*
X159735Y184309D01*
X159650Y183879D01*
X159384Y183769D01*
X158826Y183211D01*
X158524Y182481D01*
Y181692D01*
X158814Y180992D01*
X158337Y180794D01*
X157779Y180236D01*
X157638Y179895D01*
X157048Y179778D01*
X136433Y200393D01*
X135937Y200724D01*
X135352Y200840D01*
X134669D01*
X134461Y201340D01*
X134556Y201435D01*
X134858Y202164D01*
Y202954D01*
X134582Y203621D01*
X134771Y204121D01*
X145844D01*
X156975Y192990D01*
D02*
G37*
G36*
X211365Y178204D02*
Y140452D01*
X211481Y139867D01*
X211813Y139371D01*
X223738Y127445D01*
X223705Y127320D01*
Y126617D01*
X223887Y125937D01*
X224239Y125327D01*
X224736Y124829D01*
X224860Y124758D01*
Y124258D01*
X224736Y124186D01*
X224388Y123838D01*
X209455Y138771D01*
Y174739D01*
X209339Y175324D01*
X209007Y175820D01*
X208129Y176699D01*
X207632Y177031D01*
X207047Y177147D01*
X206787D01*
X206501Y177647D01*
X206709Y178149D01*
Y178938D01*
X206407Y179667D01*
X205848Y180226D01*
X205119Y180528D01*
X204330D01*
X203600Y180226D01*
X203042Y179667D01*
X202740Y178938D01*
Y178149D01*
X202948Y177647D01*
X202661Y177147D01*
X189878D01*
X188697Y178328D01*
Y178544D01*
X188395Y179274D01*
X187837Y179832D01*
X187700Y179888D01*
X187664Y180198D01*
X187675Y180440D01*
X188198Y180963D01*
X188500Y181692D01*
Y181908D01*
X188602Y182010D01*
X192254D01*
X192567Y181510D01*
X192377Y181053D01*
Y180263D01*
X192679Y179534D01*
X193238Y178976D01*
X193967Y178674D01*
X194756D01*
X195486Y178976D01*
X196044Y179534D01*
X196346Y180263D01*
Y181053D01*
X196156Y181510D01*
X196469Y182010D01*
X207559D01*
X211365Y178204D01*
D02*
G37*
G36*
X217368Y180863D02*
Y139370D01*
X217485Y138785D01*
X217592Y138625D01*
X217203Y138306D01*
X214424Y141086D01*
Y178838D01*
X214307Y179423D01*
X213976Y179919D01*
X209274Y184621D01*
X208778Y184952D01*
X208193Y185069D01*
X197576D01*
X197298Y185485D01*
X197358Y185629D01*
Y186418D01*
X197298Y186563D01*
X197576Y186978D01*
X211252D01*
X217368Y180863D01*
D02*
G37*
G36*
X175194Y174772D02*
X175483Y174073D01*
X176041Y173515D01*
X176741Y173225D01*
X178145Y171821D01*
X178145Y171821D01*
X178724Y171434D01*
X179406Y171298D01*
X179406Y171298D01*
X204564D01*
X205047Y171098D01*
X205836D01*
X205981Y171158D01*
X206397Y170880D01*
Y138137D01*
X206513Y137552D01*
X206844Y137056D01*
X222934Y120966D01*
X223430Y120634D01*
X224016Y120518D01*
X224174D01*
X224239Y120406D01*
X224736Y119908D01*
X224860Y119837D01*
Y119337D01*
X224736Y119265D01*
X224239Y118767D01*
X223887Y118158D01*
X223862Y118065D01*
X221749D01*
X221596Y118218D01*
X220867Y118520D01*
X220078D01*
X219349Y118218D01*
X218790Y117659D01*
X218488Y116930D01*
Y116141D01*
X218790Y115411D01*
X219349Y114853D01*
X220078Y114551D01*
X220867D01*
X221596Y114853D01*
X221749Y115006D01*
X224717D01*
X224736Y114987D01*
X224860Y114915D01*
Y114415D01*
X224736Y114344D01*
X224239Y113846D01*
X224174Y113734D01*
X217025D01*
X216872Y113887D01*
X216143Y114189D01*
X215353D01*
X214624Y113887D01*
X214066Y113329D01*
X214006Y113184D01*
X213516Y113087D01*
X209025Y117578D01*
Y124493D01*
X208908Y125078D01*
X208577Y125574D01*
X177785Y156366D01*
Y158407D01*
X177669Y158992D01*
X177337Y159488D01*
X160127Y176699D01*
X160244Y177289D01*
X160585Y177430D01*
X161143Y177988D01*
X161445Y178718D01*
Y179507D01*
X161155Y180207D01*
X161632Y180404D01*
X162190Y180963D01*
X162492Y181692D01*
Y182481D01*
X162190Y183211D01*
X162276Y183641D01*
X162541Y183751D01*
X163100Y184309D01*
X163402Y185038D01*
Y185828D01*
X163381Y185878D01*
X163805Y186161D01*
X175194Y174772D01*
D02*
G37*
G36*
X184316Y101946D02*
X184813Y101615D01*
X185398Y101498D01*
X227028D01*
X227220Y101036D01*
X225351Y99167D01*
X148338D01*
X148040Y99667D01*
X148239Y100149D01*
Y100938D01*
X148001Y101514D01*
X148244Y102014D01*
X184249D01*
X184316Y101946D01*
D02*
G37*
G36*
X225729Y95608D02*
X219499Y89379D01*
X176869D01*
X176678Y89841D01*
X176827Y89990D01*
X177387Y90959D01*
X177558Y91599D01*
X173426D01*
Y93599D01*
X177558D01*
X177387Y94240D01*
X176827Y95209D01*
X176428Y95608D01*
X176635Y96108D01*
X225522D01*
X225729Y95608D01*
D02*
G37*
G36*
X127819Y121494D02*
X127612Y120994D01*
X123501D01*
X106549Y137946D01*
Y142111D01*
X107011Y142303D01*
X127819Y121494D01*
D02*
G37*
G36*
X121284Y118885D02*
X121093Y118423D01*
X118878D01*
X104179Y133122D01*
Y135337D01*
X104641Y135528D01*
X121284Y118885D01*
D02*
G37*
D53*
X123425Y82598D02*
D03*
D54*
X133425D02*
D03*
X143425D02*
D03*
X153426D02*
D03*
X163426D02*
D03*
X173426D02*
D03*
X123425Y92599D02*
D03*
X133425D02*
D03*
X143425D02*
D03*
X153426D02*
D03*
X163426D02*
D03*
X173426D02*
D03*
D58*
X107776Y186903D02*
Y193307D01*
X106669Y144807D02*
Y185797D01*
X107776Y186903D01*
X102650Y132488D02*
Y185521D01*
X98819Y150361D02*
X100000Y151542D01*
Y171752D01*
X98819Y130413D02*
Y150361D01*
X102650Y132488D02*
X118244Y116894D01*
X102461Y186417D02*
X102646Y186232D01*
Y185525D02*
Y186232D01*
Y185525D02*
X102650Y185521D01*
X135352Y199311D02*
X176256Y158407D01*
X118307Y199311D02*
X135352D01*
X207047Y175618D02*
X207926Y174739D01*
X189245Y175618D02*
X207047D01*
X186713Y178150D02*
X189245Y175618D01*
X156063Y124681D02*
X171776D01*
X172441Y124016D01*
X188705Y188508D02*
X211886D01*
X218898Y181496D01*
X186516Y182087D02*
X187969Y183539D01*
X208193D01*
X105020Y137312D02*
Y189665D01*
X106669Y144807D02*
X129134Y122343D01*
X105020Y137312D02*
X122867Y119465D01*
X98819Y130413D02*
X115458Y113774D01*
X118244Y116894D02*
X153716D01*
X122867Y119465D02*
X156438D01*
X115458Y113774D02*
X150947D01*
X187008Y193898D02*
X226378D01*
X129134Y122343D02*
X158176D01*
X165910Y114608D01*
X140945Y103543D02*
X184882D01*
X153716Y116894D02*
X155648Y114961D01*
X155910D01*
X156438Y119465D02*
X160942Y114961D01*
X176256Y155732D02*
Y158407D01*
Y155732D02*
X207495Y124493D01*
Y116944D02*
Y124493D01*
Y116944D02*
X217156Y107283D01*
X226378D01*
X207926Y138137D02*
X224016Y122047D01*
X207926Y138137D02*
Y174739D01*
X151127Y128283D02*
X152461D01*
X156063Y124681D01*
X150942Y128469D02*
X151127Y128283D01*
X208193Y183539D02*
X212894Y178838D01*
X186221Y186024D02*
X188705Y188508D01*
X184882Y103543D02*
X185398Y103028D01*
X135876Y99796D02*
X138034Y97638D01*
X131102Y99090D02*
Y99888D01*
X130858Y100132D02*
Y100394D01*
Y100132D02*
X131102Y99888D01*
Y99090D02*
X132843Y97349D01*
X185398Y103028D02*
X228354D01*
X225984Y97638D02*
X233071Y104724D01*
X138425Y90882D02*
Y94317D01*
X138034Y97638D02*
X225984D01*
X132843Y97349D02*
X135393D01*
X138425Y94317D01*
X228354Y103028D02*
X230315Y104989D01*
X212894Y140452D02*
X226378Y126969D01*
X212894Y140452D02*
Y178838D01*
X224016Y122047D02*
X226378D01*
X230315Y118110D01*
X141458Y87849D02*
X220133D01*
X236221Y103937D01*
X138425Y90882D02*
X141458Y87849D01*
X230315Y104989D02*
Y118110D01*
X233071Y104724D02*
Y120276D01*
X226378Y131890D02*
X236221Y122047D01*
Y103937D02*
Y122047D01*
X218898Y139370D02*
Y181496D01*
Y139370D02*
X226378Y131890D01*
Y126969D02*
X233071Y120276D01*
X220472Y116535D02*
X225787D01*
X226378Y117126D01*
X215748Y112205D02*
X226378D01*
D59*
X93701Y156693D02*
Y198425D01*
X89764Y152756D02*
X93701Y156693D01*
Y198425D02*
X97835Y202559D01*
X80118Y158563D02*
Y170472D01*
X87894Y178248D01*
Y198200D01*
X97835Y202559D02*
X132874D01*
X179406Y173083D02*
X205442D01*
X177292Y175197D02*
X179406Y173083D01*
X95472Y205906D02*
X146583D01*
X87894Y198200D02*
X90354Y200661D01*
Y200787D01*
X95472Y205906D01*
X146583D02*
X177292Y175197D01*
X134617Y214272D02*
X139785Y209104D01*
X172195D01*
X177362Y203937D01*
X60236Y141339D02*
X62894D01*
X80118Y158563D01*
X83268Y214272D02*
X134617D01*
D62*
X226378Y164370D02*
D03*
Y107283D02*
D03*
D63*
Y169291D02*
D03*
Y174213D02*
D03*
Y179134D02*
D03*
Y184055D02*
D03*
Y188976D02*
D03*
Y193898D02*
D03*
Y198819D02*
D03*
Y141732D02*
D03*
Y136811D02*
D03*
Y131890D02*
D03*
Y126969D02*
D03*
Y122047D02*
D03*
Y117126D02*
D03*
Y112205D02*
D03*
D64*
X228346Y214567D02*
D03*
X64961Y78740D02*
D03*
Y214567D02*
D03*
X228346Y78740D02*
D03*
D65*
X62992Y104232D02*
D03*
D66*
Y96358D02*
D03*
D67*
X99606Y73622D02*
D03*
X87795D02*
D03*
D68*
X106693Y197835D02*
D03*
X100689D02*
D03*
X90945Y175295D02*
D03*
X86614Y172047D02*
D03*
X109252Y174902D02*
D03*
X99508Y184768D02*
D03*
X109153D02*
D03*
X100165Y179299D02*
D03*
X120398Y179366D02*
D03*
X100000Y171752D02*
D03*
X118307Y199311D02*
D03*
X132874Y202559D02*
D03*
X190354Y168996D02*
D03*
X194362Y180658D02*
D03*
X215748Y172835D02*
D03*
X205442Y173083D02*
D03*
X146255Y100543D02*
D03*
X145941Y128469D02*
D03*
X172047Y106299D02*
D03*
X172441Y124016D02*
D03*
X124409Y152362D02*
D03*
X137697Y191240D02*
D03*
X119441Y119378D02*
D03*
X177165Y195866D02*
D03*
Y191929D02*
D03*
X205413Y196382D02*
D03*
X192126Y200319D02*
D03*
X206719Y191110D02*
D03*
X204724Y178543D02*
D03*
X194095Y207579D02*
D03*
X177165Y199311D02*
D03*
X90354Y200787D02*
D03*
X85159Y179921D02*
D03*
X119095Y205906D02*
D03*
X129739Y126983D02*
D03*
X119441Y128347D02*
D03*
X110260Y153922D02*
D03*
X115354Y152362D02*
D03*
X140945Y103543D02*
D03*
X102461Y186417D02*
D03*
X105020Y189665D02*
D03*
X107776Y193307D02*
D03*
X150947Y113774D02*
D03*
X116142Y107480D02*
D03*
X203346Y123799D02*
D03*
X187008Y126772D02*
D03*
X117323Y167520D02*
D03*
X157747Y190621D02*
D03*
X142913Y196850D02*
D03*
X120079Y193110D02*
D03*
X83268Y203346D02*
D03*
X160508Y196457D02*
D03*
X161024Y202756D02*
D03*
X159461Y179112D02*
D03*
X161417Y185433D02*
D03*
X160508Y182087D02*
D03*
X131890Y172835D02*
D03*
X120079Y183268D02*
D03*
X187008Y193898D02*
D03*
Y197835D02*
D03*
X186713Y178150D02*
D03*
X195374Y186024D02*
D03*
X195472Y190992D02*
D03*
X186516Y182087D02*
D03*
X186221Y186024D02*
D03*
X167445Y139917D02*
D03*
X162327Y139897D02*
D03*
X189075Y207677D02*
D03*
X151150Y138945D02*
D03*
X61417Y136221D02*
D03*
X161614Y216240D02*
D03*
X89764Y152756D02*
D03*
X205709Y203740D02*
D03*
X177362Y203937D02*
D03*
X172882Y158268D02*
D03*
X167913Y154626D02*
D03*
X162008D02*
D03*
X157677D02*
D03*
X151772D02*
D03*
X83465Y164567D02*
D03*
X135876Y99796D02*
D03*
X130858Y100394D02*
D03*
X84204Y138534D02*
D03*
X88779Y141240D02*
D03*
X63681Y178839D02*
D03*
X63779Y182677D02*
D03*
X60222Y159828D02*
D03*
X88004Y162807D02*
D03*
X81496Y182283D02*
D03*
X64173Y186221D02*
D03*
X63779Y175197D02*
D03*
X157358Y139764D02*
D03*
X208268Y100122D02*
D03*
X83071Y129134D02*
D03*
X150942Y128469D02*
D03*
X119685Y221654D02*
D03*
X88583Y145669D02*
D03*
X178740Y158268D02*
D03*
X214567Y214567D02*
D03*
X96457Y116142D02*
D03*
X124016Y100394D02*
D03*
X74803Y214567D02*
D03*
X80709Y108268D02*
D03*
X66929Y122047D02*
D03*
X74016Y188976D02*
D03*
X147638Y140157D02*
D03*
X142913D02*
D03*
X138279D02*
D03*
X133310Y140369D02*
D03*
X215748Y179921D02*
D03*
X216142Y159843D02*
D03*
X210410Y155073D02*
D03*
X192126Y78347D02*
D03*
X167445Y127165D02*
D03*
X177953Y130315D02*
D03*
X160936Y127165D02*
D03*
X155910Y128347D02*
D03*
X140945Y128469D02*
D03*
X135976D02*
D03*
X181102Y123228D02*
D03*
X177165Y175197D02*
D03*
X119980Y189075D02*
D03*
X198425Y149213D02*
D03*
X203150D02*
D03*
X160942Y114961D02*
D03*
X184898Y82425D02*
D03*
X165910Y114608D02*
D03*
X88976Y86614D02*
D03*
X154823Y223721D02*
D03*
X198287Y123779D02*
D03*
X158465Y220866D02*
D03*
X136221Y216535D02*
D03*
X64562Y196068D02*
D03*
X64961Y203150D02*
D03*
X60630Y164567D02*
D03*
X60236Y141339D02*
D03*
X155910Y114961D02*
D03*
X220472Y116535D02*
D03*
X215748Y112205D02*
D03*
X83268Y214272D02*
D03*
X80315Y176772D02*
D03*
X142913Y216535D02*
D03*
X148425Y216929D02*
D03*
X151969Y216142D02*
D03*
X72835Y166142D02*
D03*
X68898Y161417D02*
D03*
X72835D02*
D03*
X76772D02*
D03*
X72835Y156693D02*
D03*
X72441Y142520D02*
D03*
X68504Y137795D02*
D03*
X72441D02*
D03*
X76378D02*
D03*
X72441Y133071D02*
D03*
M02*
