G04*
G04 #@! TF.GenerationSoftware,Altium Limited,Altium Designer,24.6.1 (21)*
G04*
G04 Layer_Color=128*
%FSLAX25Y25*%
%MOIN*%
G70*
G04*
G04 #@! TF.SameCoordinates,3DD0ABC2-3CA6-46D2-8A5F-DA2E5A85CC7D*
G04*
G04*
G04 #@! TF.FilePolarity,Positive*
G04*
G01*
G75*
%ADD19R,0.01378X0.02165*%
%ADD20R,0.02165X0.01378*%
%ADD72R,0.03347X0.05315*%
D19*
X208425Y184252D02*
D03*
X211811D02*
D03*
X136496Y202756D02*
D03*
X139882D02*
D03*
X154331D02*
D03*
X157717D02*
D03*
X86102Y208268D02*
D03*
Y203543D02*
D03*
X89488D02*
D03*
Y208268D02*
D03*
D20*
X131988Y180650D02*
D03*
Y177264D02*
D03*
X137795Y180630D02*
D03*
Y177244D02*
D03*
X155020Y175906D02*
D03*
Y172520D02*
D03*
X160531Y175906D02*
D03*
Y172520D02*
D03*
X60630Y168386D02*
D03*
Y171772D02*
D03*
X162992Y192126D02*
D03*
X131890Y185315D02*
D03*
X137795D02*
D03*
X158169Y184626D02*
D03*
X162992Y188740D02*
D03*
X131890Y188701D02*
D03*
X137795D02*
D03*
X158169Y188012D02*
D03*
X94488Y145158D02*
D03*
Y140669D02*
D03*
X60236Y179016D02*
D03*
Y182402D02*
D03*
Y146968D02*
D03*
Y151063D02*
D03*
X84252Y159961D02*
D03*
X89764D02*
D03*
X84252Y135945D02*
D03*
X88976D02*
D03*
X61811Y199882D02*
D03*
Y203268D02*
D03*
X94488Y137284D02*
D03*
X89764Y156575D02*
D03*
X86221Y188425D02*
D03*
Y185039D02*
D03*
X94488Y148543D02*
D03*
X81496Y185039D02*
D03*
Y188425D02*
D03*
X60236Y154449D02*
D03*
Y143583D02*
D03*
X88976Y132559D02*
D03*
X84252D02*
D03*
Y143976D02*
D03*
Y147362D02*
D03*
X86614Y166142D02*
D03*
Y169527D02*
D03*
X84252Y156575D02*
D03*
X83465Y176890D02*
D03*
Y173504D02*
D03*
D72*
X150472Y196457D02*
D03*
X158189D02*
D03*
M02*
