G04*
G04 #@! TF.GenerationSoftware,Altium Limited,Altium Designer,24.6.1 (21)*
G04*
G04 Layer_Color=16711935*
%FSLAX25Y25*%
%MOIN*%
G70*
G04*
G04 #@! TF.SameCoordinates,3DD0ABC2-3CA6-46D2-8A5F-DA2E5A85CC7D*
G04*
G04*
G04 #@! TF.FilePolarity,Negative*
G04*
G01*
G75*
%ADD19R,0.01378X0.02165*%
%ADD20R,0.02165X0.01378*%
%ADD49C,0.09749*%
%ADD50R,0.05024X0.05024*%
%ADD51C,0.05024*%
%ADD52C,0.02072*%
%ADD53C,0.03647*%
%ADD54R,0.03647X0.03647*%
%ADD55R,0.06500X0.06500*%
%ADD56C,0.06500*%
%ADD72R,0.03347X0.05315*%
D19*
X208425Y184252D02*
D03*
X211811D02*
D03*
X136496Y202756D02*
D03*
X139882D02*
D03*
X154331D02*
D03*
X157717D02*
D03*
X86102Y208268D02*
D03*
Y203543D02*
D03*
X89488D02*
D03*
Y208268D02*
D03*
D20*
X131988Y180650D02*
D03*
Y177264D02*
D03*
X137795Y180630D02*
D03*
Y177244D02*
D03*
X155020Y175906D02*
D03*
Y172520D02*
D03*
X160531Y175906D02*
D03*
Y172520D02*
D03*
X60630Y168386D02*
D03*
Y171772D02*
D03*
X162992Y192126D02*
D03*
X131890Y185315D02*
D03*
X137795D02*
D03*
X158169Y184626D02*
D03*
X162992Y188740D02*
D03*
X131890Y188701D02*
D03*
X137795D02*
D03*
X158169Y188012D02*
D03*
X94488Y145158D02*
D03*
Y140669D02*
D03*
X60236Y179016D02*
D03*
Y182402D02*
D03*
Y146968D02*
D03*
Y151063D02*
D03*
X84252Y159961D02*
D03*
X89764D02*
D03*
X84252Y135945D02*
D03*
X88976D02*
D03*
X61811Y199882D02*
D03*
Y203268D02*
D03*
X94488Y137284D02*
D03*
X89764Y156575D02*
D03*
X86221Y188425D02*
D03*
Y185039D02*
D03*
X94488Y148543D02*
D03*
X81496Y185039D02*
D03*
Y188425D02*
D03*
X60236Y154449D02*
D03*
Y143583D02*
D03*
X88976Y132559D02*
D03*
X84252D02*
D03*
Y143976D02*
D03*
Y147362D02*
D03*
X86614Y166142D02*
D03*
Y169527D02*
D03*
X84252Y156575D02*
D03*
X83465Y176890D02*
D03*
Y173504D02*
D03*
D49*
X228346Y214567D02*
D03*
X64961Y78740D02*
D03*
Y214567D02*
D03*
X228346Y78740D02*
D03*
D50*
X62992Y104232D02*
D03*
D51*
Y96358D02*
D03*
D52*
X99606Y73622D02*
D03*
X87795D02*
D03*
D53*
X226378Y198819D02*
D03*
Y193898D02*
D03*
Y188976D02*
D03*
Y184055D02*
D03*
Y179134D02*
D03*
Y174213D02*
D03*
Y169291D02*
D03*
Y141732D02*
D03*
Y136811D02*
D03*
Y131890D02*
D03*
Y126969D02*
D03*
Y122047D02*
D03*
Y117126D02*
D03*
Y112205D02*
D03*
D54*
Y164370D02*
D03*
Y107283D02*
D03*
D55*
X123425Y82598D02*
D03*
D56*
X133425D02*
D03*
X143425D02*
D03*
X153426D02*
D03*
X163426D02*
D03*
X173426D02*
D03*
X123425Y92599D02*
D03*
X133425D02*
D03*
X143425D02*
D03*
X153426D02*
D03*
X163426D02*
D03*
X173426D02*
D03*
D72*
X150472Y196457D02*
D03*
X158189D02*
D03*
M02*
