G04*
G04 #@! TF.GenerationSoftware,Altium Limited,Altium Designer,24.6.1 (21)*
G04*
G04 Layer_Color=2752767*
%FSLAX25Y25*%
%MOIN*%
G70*
G04*
G04 #@! TF.SameCoordinates,31F84527-45D4-4773-AF7A-2B1276F50D28*
G04*
G04*
G04 #@! TF.FilePolarity,Positive*
G04*
G01*
G75*
%ADD13C,0.00500*%
%ADD73C,0.00667*%
D13*
X226346Y212567D02*
X227346D01*
X228346Y213567D01*
X229346Y212567D01*
X230346D01*
Y213567D01*
X229346Y214567D01*
X230346Y215567D01*
Y216567D01*
X229346D01*
X228346Y215567D01*
X227346Y216567D01*
X226346D01*
Y215567D01*
X227346Y214567D01*
X226346Y213567D01*
Y212567D01*
X62961Y76740D02*
X63961D01*
X64961Y77740D01*
X65961Y76740D01*
X66961D01*
Y77740D01*
X65961Y78740D01*
X66961Y79740D01*
Y80740D01*
X65961D01*
X64961Y79740D01*
X63961Y80740D01*
X62961D01*
Y79740D01*
X63961Y78740D01*
X62961Y77740D01*
Y76740D01*
Y212567D02*
X63961D01*
X64961Y213567D01*
X65961Y212567D01*
X66961D01*
Y213567D01*
X65961Y214567D01*
X66961Y215567D01*
Y216567D01*
X65961D01*
X64961Y215567D01*
X63961Y216567D01*
X62961D01*
Y215567D01*
X63961Y214567D01*
X62961Y213567D01*
Y212567D01*
X226346Y76740D02*
X227346D01*
X228346Y77740D01*
X229346Y76740D01*
X230346D01*
Y77740D01*
X229346Y78740D01*
X230346Y79740D01*
Y80740D01*
X229346D01*
X228346Y79740D01*
X227346Y80740D01*
X226346D01*
Y79740D01*
X227346Y78740D01*
X226346Y77740D01*
Y76740D01*
X60992Y102232D02*
Y106232D01*
X64992D01*
Y102232D01*
X60992D01*
Y94358D02*
Y98358D01*
X64992D01*
Y94358D01*
X60992D01*
X98606Y72622D02*
Y71622D01*
X100606D01*
Y72622D01*
X101606D01*
Y74622D01*
X100606D01*
Y75622D01*
X98606D01*
Y74622D01*
X97606D01*
Y72622D01*
X98606D01*
X86795D02*
Y71622D01*
X88795D01*
Y72622D01*
X89795D01*
Y74622D01*
X88795D01*
Y75622D01*
X86795D01*
Y74622D01*
X85795D01*
Y72622D01*
X86795D01*
X123425Y80598D02*
X124425Y81598D01*
X125425D01*
X124425Y82598D01*
X125425Y83598D01*
X124425D01*
X123425Y84598D01*
X122425Y83598D01*
X121425D01*
X122425Y82598D01*
X121425Y81598D01*
X122425D01*
X123425Y80598D01*
X133425D02*
X134425Y81598D01*
X135425D01*
X134425Y82598D01*
X135425Y83598D01*
X134425D01*
X133425Y84598D01*
X132425Y83598D01*
X131425D01*
X132425Y82598D01*
X131425Y81598D01*
X132425D01*
X133425Y80598D01*
X143425D02*
X144425Y81598D01*
X145425D01*
X144425Y82598D01*
X145425Y83598D01*
X144425D01*
X143425Y84598D01*
X142425Y83598D01*
X141425D01*
X142425Y82598D01*
X141425Y81598D01*
X142425D01*
X143425Y80598D01*
X153426D02*
X154426Y81598D01*
X155426D01*
X154426Y82598D01*
X155426Y83598D01*
X154426D01*
X153426Y84598D01*
X152426Y83598D01*
X151426D01*
X152426Y82598D01*
X151426Y81598D01*
X152426D01*
X153426Y80598D01*
X163426D02*
X164426Y81598D01*
X165426D01*
X164426Y82598D01*
X165426Y83598D01*
X164426D01*
X163426Y84598D01*
X162426Y83598D01*
X161426D01*
X162426Y82598D01*
X161426Y81598D01*
X162426D01*
X163426Y80598D01*
X173426D02*
X174426Y81598D01*
X175426D01*
X174426Y82598D01*
X175426Y83598D01*
X174426D01*
X173426Y84598D01*
X172426Y83598D01*
X171426D01*
X172426Y82598D01*
X171426Y81598D01*
X172426D01*
X173426Y80598D01*
X123425Y90599D02*
X124425Y91599D01*
X125425D01*
X124425Y92599D01*
X125425Y93599D01*
X124425D01*
X123425Y94599D01*
X122425Y93599D01*
X121425D01*
X122425Y92599D01*
X121425Y91599D01*
X122425D01*
X123425Y90599D01*
X133425D02*
X134425Y91599D01*
X135425D01*
X134425Y92599D01*
X135425Y93599D01*
X134425D01*
X133425Y94599D01*
X132425Y93599D01*
X131425D01*
X132425Y92599D01*
X131425Y91599D01*
X132425D01*
X133425Y90599D01*
X143425D02*
X144425Y91599D01*
X145425D01*
X144425Y92599D01*
X145425Y93599D01*
X144425D01*
X143425Y94599D01*
X142425Y93599D01*
X141425D01*
X142425Y92599D01*
X141425Y91599D01*
X142425D01*
X143425Y90599D01*
X153426D02*
X154426Y91599D01*
X155426D01*
X154426Y92599D01*
X155426Y93599D01*
X154426D01*
X153426Y94599D01*
X152426Y93599D01*
X151426D01*
X152426Y92599D01*
X151426Y91599D01*
X152426D01*
X153426Y90599D01*
X163426D02*
X164426Y91599D01*
X165426D01*
X164426Y92599D01*
X165426Y93599D01*
X164426D01*
X163426Y94599D01*
X162426Y93599D01*
X161426D01*
X162426Y92599D01*
X161426Y91599D01*
X162426D01*
X163426Y90599D01*
X173426D02*
X174426Y91599D01*
X175426D01*
X174426Y92599D01*
X175426Y93599D01*
X174426D01*
X173426Y94599D01*
X172426Y93599D01*
X171426D01*
X172426Y92599D01*
X171426Y91599D01*
X172426D01*
X173426Y90599D01*
X104693Y195835D02*
X105693Y197835D01*
X104693Y199835D01*
X106693Y198835D01*
X108693Y199835D01*
X107693Y197835D01*
X108693Y195835D01*
X106693Y196835D01*
X104693Y195835D01*
X98689D02*
X99689Y197835D01*
X98689Y199835D01*
X100689Y198835D01*
X102689Y199835D01*
X101689Y197835D01*
X102689Y195835D01*
X100689Y196835D01*
X98689Y195835D01*
X88945Y173295D02*
X89945Y175295D01*
X88945Y177295D01*
X90945Y176295D01*
X92945Y177295D01*
X91945Y175295D01*
X92945Y173295D01*
X90945Y174295D01*
X88945Y173295D01*
X84614Y170047D02*
X85614Y172047D01*
X84614Y174047D01*
X86614Y173047D01*
X88614Y174047D01*
X87614Y172047D01*
X88614Y170047D01*
X86614Y171047D01*
X84614Y170047D01*
X107252Y172902D02*
X108252Y174902D01*
X107252Y176902D01*
X109252Y175902D01*
X111252Y176902D01*
X110252Y174902D01*
X111252Y172902D01*
X109252Y173902D01*
X107252Y172902D01*
X97508Y182768D02*
X98508Y184768D01*
X97508Y186768D01*
X99508Y185768D01*
X101508Y186768D01*
X100508Y184768D01*
X101508Y182768D01*
X99508Y183768D01*
X97508Y182768D01*
X107153D02*
X108153Y184768D01*
X107153Y186768D01*
X109153Y185768D01*
X111153Y186768D01*
X110153Y184768D01*
X111153Y182768D01*
X109153Y183768D01*
X107153Y182768D01*
X98166Y177299D02*
X99165Y179299D01*
X98166Y181299D01*
X100165Y180299D01*
X102165Y181299D01*
X101165Y179299D01*
X102165Y177299D01*
X100165Y178299D01*
X98166Y177299D01*
X118398Y177366D02*
X119398Y179366D01*
X118398Y181366D01*
X120398Y180366D01*
X122398Y181366D01*
X121398Y179366D01*
X122398Y177366D01*
X120398Y178366D01*
X118398Y177366D01*
X98000Y169752D02*
X99000Y171752D01*
X98000Y173752D01*
X100000Y172752D01*
X102000Y173752D01*
X101000Y171752D01*
X102000Y169752D01*
X100000Y170752D01*
X98000Y169752D01*
X116307Y197311D02*
X117307Y199311D01*
X116307Y201311D01*
X118307Y200311D01*
X120307Y201311D01*
X119307Y199311D01*
X120307Y197311D01*
X118307Y198311D01*
X116307Y197311D01*
X130874Y200559D02*
X131874Y202559D01*
X130874Y204559D01*
X132874Y203559D01*
X134874Y204559D01*
X133874Y202559D01*
X134874Y200559D01*
X132874Y201559D01*
X130874Y200559D01*
X188354Y166996D02*
X189354Y168996D01*
X188354Y170996D01*
X190354Y169996D01*
X192354Y170996D01*
X191354Y168996D01*
X192354Y166996D01*
X190354Y167996D01*
X188354Y166996D01*
X192362Y178658D02*
X193362Y180658D01*
X192362Y182658D01*
X194362Y181658D01*
X196362Y182658D01*
X195362Y180658D01*
X196362Y178658D01*
X194362Y179658D01*
X192362Y178658D01*
X213748Y170835D02*
X214748Y172835D01*
X213748Y174835D01*
X215748Y173835D01*
X217748Y174835D01*
X216748Y172835D01*
X217748Y170835D01*
X215748Y171835D01*
X213748Y170835D01*
X203442Y171083D02*
X204442Y173083D01*
X203442Y175083D01*
X205442Y174083D01*
X207442Y175083D01*
X206442Y173083D01*
X207442Y171083D01*
X205442Y172083D01*
X203442Y171083D01*
X144255Y98543D02*
X145255Y100543D01*
X144255Y102543D01*
X146255Y101543D01*
X148255Y102543D01*
X147255Y100543D01*
X148255Y98543D01*
X146255Y99543D01*
X144255Y98543D01*
X143941Y126469D02*
X144941Y128469D01*
X143941Y130468D01*
X145941Y129469D01*
X147941Y130468D01*
X146941Y128469D01*
X147941Y126469D01*
X145941Y127469D01*
X143941Y126469D01*
X170047Y104299D02*
X171047Y106299D01*
X170047Y108299D01*
X172047Y107299D01*
X174047Y108299D01*
X173047Y106299D01*
X174047Y104299D01*
X172047Y105299D01*
X170047Y104299D01*
X170441Y122016D02*
X171441Y124016D01*
X170441Y126016D01*
X172441Y125016D01*
X174441Y126016D01*
X173441Y124016D01*
X174441Y122016D01*
X172441Y123016D01*
X170441Y122016D01*
X122409Y150362D02*
X123409Y152362D01*
X122409Y154362D01*
X124409Y153362D01*
X126409Y154362D01*
X125409Y152362D01*
X126409Y150362D01*
X124409Y151362D01*
X122409Y150362D01*
X135697Y189240D02*
X136697Y191240D01*
X135697Y193240D01*
X137697Y192240D01*
X139697Y193240D01*
X138697Y191240D01*
X139697Y189240D01*
X137697Y190240D01*
X135697Y189240D01*
X117441Y117378D02*
X118441Y119378D01*
X117441Y121378D01*
X119441Y120378D01*
X121441Y121378D01*
X120441Y119378D01*
X121441Y117378D01*
X119441Y118378D01*
X117441Y117378D01*
X175165Y193866D02*
X176165Y195866D01*
X175165Y197866D01*
X177165Y196866D01*
X179165Y197866D01*
X178165Y195866D01*
X179165Y193866D01*
X177165Y194866D01*
X175165Y193866D01*
Y189929D02*
X176165Y191929D01*
X175165Y193929D01*
X177165Y192929D01*
X179165Y193929D01*
X178165Y191929D01*
X179165Y189929D01*
X177165Y190929D01*
X175165Y189929D01*
X203413Y194382D02*
X204413Y196382D01*
X203413Y198382D01*
X205413Y197382D01*
X207413Y198382D01*
X206413Y196382D01*
X207413Y194382D01*
X205413Y195382D01*
X203413Y194382D01*
X190126Y198319D02*
X191126Y200319D01*
X190126Y202319D01*
X192126Y201319D01*
X194126Y202319D01*
X193126Y200319D01*
X194126Y198319D01*
X192126Y199319D01*
X190126Y198319D01*
X204719Y189110D02*
X205719Y191110D01*
X204719Y193110D01*
X206719Y192110D01*
X208719Y193110D01*
X207719Y191110D01*
X208719Y189110D01*
X206719Y190110D01*
X204719Y189110D01*
X202724Y176543D02*
X203724Y178543D01*
X202724Y180543D01*
X204724Y179543D01*
X206724Y180543D01*
X205724Y178543D01*
X206724Y176543D01*
X204724Y177543D01*
X202724Y176543D01*
X192095Y205579D02*
X193095Y207579D01*
X192095Y209579D01*
X194095Y208579D01*
X196095Y209579D01*
X195095Y207579D01*
X196095Y205579D01*
X194095Y206579D01*
X192095Y205579D01*
X175165Y197311D02*
X176165Y199311D01*
X175165Y201311D01*
X177165Y200311D01*
X179165Y201311D01*
X178165Y199311D01*
X179165Y197311D01*
X177165Y198311D01*
X175165Y197311D01*
X88354Y198787D02*
X89354Y200787D01*
X88354Y202787D01*
X90354Y201787D01*
X92354Y202787D01*
X91354Y200787D01*
X92354Y198787D01*
X90354Y199787D01*
X88354Y198787D01*
X83160Y177921D02*
X84159Y179921D01*
X83160Y181921D01*
X85159Y180921D01*
X87160Y181921D01*
X86159Y179921D01*
X87160Y177921D01*
X85159Y178921D01*
X83160Y177921D01*
X117095Y203906D02*
X118095Y205906D01*
X117095Y207906D01*
X119095Y206906D01*
X121095Y207906D01*
X120095Y205906D01*
X121095Y203906D01*
X119095Y204906D01*
X117095Y203906D01*
X127739Y124984D02*
X128739Y126983D01*
X127739Y128983D01*
X129739Y127983D01*
X131739Y128983D01*
X130739Y126983D01*
X131739Y124984D01*
X129739Y125984D01*
X127739Y124984D01*
X117441Y126347D02*
X118441Y128347D01*
X117441Y130347D01*
X119441Y129347D01*
X121441Y130347D01*
X120441Y128347D01*
X121441Y126347D01*
X119441Y127347D01*
X117441Y126347D01*
X108260Y151922D02*
X109260Y153922D01*
X108260Y155922D01*
X110260Y154922D01*
X112260Y155922D01*
X111260Y153922D01*
X112260Y151922D01*
X110260Y152922D01*
X108260Y151922D01*
X113354Y150362D02*
X114354Y152362D01*
X113354Y154362D01*
X115354Y153362D01*
X117354Y154362D01*
X116354Y152362D01*
X117354Y150362D01*
X115354Y151362D01*
X113354Y150362D01*
X138945Y101543D02*
X139945Y103543D01*
X138945Y105543D01*
X140945Y104543D01*
X142945Y105543D01*
X141945Y103543D01*
X142945Y101543D01*
X140945Y102543D01*
X138945Y101543D01*
X100461Y184417D02*
X101461Y186417D01*
X100461Y188417D01*
X102461Y187417D01*
X104461Y188417D01*
X103461Y186417D01*
X104461Y184417D01*
X102461Y185417D01*
X100461Y184417D01*
X103020Y187665D02*
X104020Y189665D01*
X103020Y191665D01*
X105020Y190665D01*
X107020Y191665D01*
X106020Y189665D01*
X107020Y187665D01*
X105020Y188665D01*
X103020Y187665D01*
X105776Y191307D02*
X106776Y193307D01*
X105776Y195307D01*
X107776Y194307D01*
X109776Y195307D01*
X108776Y193307D01*
X109776Y191307D01*
X107776Y192307D01*
X105776Y191307D01*
X148947Y111774D02*
X149947Y113774D01*
X148947Y115774D01*
X150947Y114774D01*
X152947Y115774D01*
X151947Y113774D01*
X152947Y111774D01*
X150947Y112774D01*
X148947Y111774D01*
X114142Y105480D02*
X115142Y107480D01*
X114142Y109480D01*
X116142Y108480D01*
X118142Y109480D01*
X117142Y107480D01*
X118142Y105480D01*
X116142Y106480D01*
X114142Y105480D01*
X201346Y121799D02*
X202346Y123799D01*
X201346Y125799D01*
X203346Y124799D01*
X205346Y125799D01*
X204346Y123799D01*
X205346Y121799D01*
X203346Y122799D01*
X201346Y121799D01*
X185008Y124772D02*
X186008Y126772D01*
X185008Y128772D01*
X187008Y127772D01*
X189008Y128772D01*
X188008Y126772D01*
X189008Y124772D01*
X187008Y125772D01*
X185008Y124772D01*
X115323Y165520D02*
X116323Y167520D01*
X115323Y169520D01*
X117323Y168520D01*
X119323Y169520D01*
X118323Y167520D01*
X119323Y165520D01*
X117323Y166520D01*
X115323Y165520D01*
X155747Y188621D02*
X156747Y190621D01*
X155747Y192621D01*
X157747Y191621D01*
X159747Y192621D01*
X158747Y190621D01*
X159747Y188621D01*
X157747Y189621D01*
X155747Y188621D01*
X140913Y194850D02*
X141913Y196850D01*
X140913Y198850D01*
X142913Y197850D01*
X144913Y198850D01*
X143913Y196850D01*
X144913Y194850D01*
X142913Y195850D01*
X140913Y194850D01*
X118079Y191110D02*
X119079Y193110D01*
X118079Y195110D01*
X120079Y194110D01*
X122079Y195110D01*
X121079Y193110D01*
X122079Y191110D01*
X120079Y192110D01*
X118079Y191110D01*
X81268Y201346D02*
X82268Y203346D01*
X81268Y205346D01*
X83268Y204346D01*
X85268Y205346D01*
X84268Y203346D01*
X85268Y201346D01*
X83268Y202346D01*
X81268Y201346D01*
X158508Y194457D02*
X159508Y196457D01*
X158508Y198457D01*
X160508Y197457D01*
X162508Y198457D01*
X161508Y196457D01*
X162508Y194457D01*
X160508Y195457D01*
X158508Y194457D01*
X159024Y200756D02*
X160024Y202756D01*
X159024Y204756D01*
X161024Y203756D01*
X163024Y204756D01*
X162024Y202756D01*
X163024Y200756D01*
X161024Y201756D01*
X159024Y200756D01*
X157461Y177112D02*
X158461Y179112D01*
X157461Y181112D01*
X159461Y180112D01*
X161461Y181112D01*
X160461Y179112D01*
X161461Y177112D01*
X159461Y178112D01*
X157461Y177112D01*
X159417Y183433D02*
X160417Y185433D01*
X159417Y187433D01*
X161417Y186433D01*
X163417Y187433D01*
X162417Y185433D01*
X163417Y183433D01*
X161417Y184433D01*
X159417Y183433D01*
X158508Y180087D02*
X159508Y182087D01*
X158508Y184087D01*
X160508Y183087D01*
X162508Y184087D01*
X161508Y182087D01*
X162508Y180087D01*
X160508Y181087D01*
X158508Y180087D01*
X129890Y170835D02*
X130890Y172835D01*
X129890Y174835D01*
X131890Y173835D01*
X133890Y174835D01*
X132890Y172835D01*
X133890Y170835D01*
X131890Y171835D01*
X129890Y170835D01*
X118079Y181268D02*
X119079Y183268D01*
X118079Y185268D01*
X120079Y184268D01*
X122079Y185268D01*
X121079Y183268D01*
X122079Y181268D01*
X120079Y182268D01*
X118079Y181268D01*
X185008Y191898D02*
X186008Y193898D01*
X185008Y195898D01*
X187008Y194898D01*
X189008Y195898D01*
X188008Y193898D01*
X189008Y191898D01*
X187008Y192898D01*
X185008Y191898D01*
Y195835D02*
X186008Y197835D01*
X185008Y199835D01*
X187008Y198835D01*
X189008Y199835D01*
X188008Y197835D01*
X189008Y195835D01*
X187008Y196835D01*
X185008Y195835D01*
X184713Y176150D02*
X185713Y178150D01*
X184713Y180150D01*
X186713Y179150D01*
X188713Y180150D01*
X187713Y178150D01*
X188713Y176150D01*
X186713Y177150D01*
X184713Y176150D01*
X193374Y184024D02*
X194374Y186024D01*
X193374Y188024D01*
X195374Y187024D01*
X197374Y188024D01*
X196374Y186024D01*
X197374Y184024D01*
X195374Y185024D01*
X193374Y184024D01*
X193472Y188992D02*
X194472Y190992D01*
X193472Y192992D01*
X195472Y191992D01*
X197472Y192992D01*
X196472Y190992D01*
X197472Y188992D01*
X195472Y189992D01*
X193472Y188992D01*
X184516Y180087D02*
X185516Y182087D01*
X184516Y184087D01*
X186516Y183087D01*
X188516Y184087D01*
X187516Y182087D01*
X188516Y180087D01*
X186516Y181087D01*
X184516Y180087D01*
X184221Y184024D02*
X185221Y186024D01*
X184221Y188024D01*
X186221Y187024D01*
X188221Y188024D01*
X187221Y186024D01*
X188221Y184024D01*
X186221Y185024D01*
X184221Y184024D01*
X165445Y137917D02*
X166445Y139917D01*
X165445Y141917D01*
X167445Y140917D01*
X169445Y141917D01*
X168445Y139917D01*
X169445Y137917D01*
X167445Y138917D01*
X165445Y137917D01*
X160327Y137897D02*
X161327Y139897D01*
X160327Y141897D01*
X162327Y140897D01*
X164327Y141897D01*
X163327Y139897D01*
X164327Y137897D01*
X162327Y138897D01*
X160327Y137897D01*
X187075Y205677D02*
X188075Y207677D01*
X187075Y209677D01*
X189075Y208677D01*
X191075Y209677D01*
X190075Y207677D01*
X191075Y205677D01*
X189075Y206677D01*
X187075Y205677D01*
X149150Y136945D02*
X150150Y138945D01*
X149150Y140945D01*
X151150Y139945D01*
X153150Y140945D01*
X152150Y138945D01*
X153150Y136945D01*
X151150Y137945D01*
X149150Y136945D01*
X59417Y134221D02*
X60417Y136221D01*
X59417Y138221D01*
X61417Y137221D01*
X63417Y138221D01*
X62417Y136221D01*
X63417Y134221D01*
X61417Y135221D01*
X59417Y134221D01*
X159614Y214240D02*
X160614Y216240D01*
X159614Y218240D01*
X161614Y217240D01*
X163614Y218240D01*
X162614Y216240D01*
X163614Y214240D01*
X161614Y215240D01*
X159614Y214240D01*
X87764Y150756D02*
X88764Y152756D01*
X87764Y154756D01*
X89764Y153756D01*
X91764Y154756D01*
X90764Y152756D01*
X91764Y150756D01*
X89764Y151756D01*
X87764Y150756D01*
X203709Y201740D02*
X204709Y203740D01*
X203709Y205740D01*
X205709Y204740D01*
X207709Y205740D01*
X206709Y203740D01*
X207709Y201740D01*
X205709Y202740D01*
X203709Y201740D01*
X175362Y201937D02*
X176362Y203937D01*
X175362Y205937D01*
X177362Y204937D01*
X179362Y205937D01*
X178362Y203937D01*
X179362Y201937D01*
X177362Y202937D01*
X175362Y201937D01*
X170882Y156268D02*
X171882Y158268D01*
X170882Y160268D01*
X172882Y159268D01*
X174882Y160268D01*
X173882Y158268D01*
X174882Y156268D01*
X172882Y157268D01*
X170882Y156268D01*
X165913Y152626D02*
X166913Y154626D01*
X165913Y156626D01*
X167913Y155626D01*
X169913Y156626D01*
X168913Y154626D01*
X169913Y152626D01*
X167913Y153626D01*
X165913Y152626D01*
X160008D02*
X161008Y154626D01*
X160008Y156626D01*
X162008Y155626D01*
X164008Y156626D01*
X163008Y154626D01*
X164008Y152626D01*
X162008Y153626D01*
X160008Y152626D01*
X155677D02*
X156677Y154626D01*
X155677Y156626D01*
X157677Y155626D01*
X159677Y156626D01*
X158677Y154626D01*
X159677Y152626D01*
X157677Y153626D01*
X155677Y152626D01*
X149772D02*
X150772Y154626D01*
X149772Y156626D01*
X151772Y155626D01*
X153772Y156626D01*
X152772Y154626D01*
X153772Y152626D01*
X151772Y153626D01*
X149772Y152626D01*
X81465Y162567D02*
X82465Y164567D01*
X81465Y166567D01*
X83465Y165567D01*
X85465Y166567D01*
X84465Y164567D01*
X85465Y162567D01*
X83465Y163567D01*
X81465Y162567D01*
X133876Y97796D02*
X134876Y99796D01*
X133876Y101796D01*
X135876Y100796D01*
X137876Y101796D01*
X136876Y99796D01*
X137876Y97796D01*
X135876Y98796D01*
X133876Y97796D01*
X128858Y98394D02*
X129858Y100394D01*
X128858Y102394D01*
X130858Y101394D01*
X132858Y102394D01*
X131858Y100394D01*
X132858Y98394D01*
X130858Y99394D01*
X128858Y98394D01*
X82204Y136534D02*
X83204Y138534D01*
X82204Y140534D01*
X84204Y139534D01*
X86204Y140534D01*
X85204Y138534D01*
X86204Y136534D01*
X84204Y137534D01*
X82204Y136534D01*
X86779Y139240D02*
X87779Y141240D01*
X86779Y143240D01*
X88779Y142240D01*
X90780Y143240D01*
X89780Y141240D01*
X90780Y139240D01*
X88779Y140240D01*
X86779Y139240D01*
X61681Y176839D02*
X62681Y178839D01*
X61681Y180839D01*
X63681Y179839D01*
X65681Y180839D01*
X64681Y178839D01*
X65681Y176839D01*
X63681Y177839D01*
X61681Y176839D01*
X61779Y180677D02*
X62779Y182677D01*
X61779Y184677D01*
X63779Y183677D01*
X65780Y184677D01*
X64780Y182677D01*
X65780Y180677D01*
X63779Y181677D01*
X61779Y180677D01*
X58222Y157828D02*
X59222Y159828D01*
X58222Y161828D01*
X60222Y160828D01*
X62222Y161828D01*
X61222Y159828D01*
X62222Y157828D01*
X60222Y158828D01*
X58222Y157828D01*
X86004Y160807D02*
X87004Y162807D01*
X86004Y164807D01*
X88004Y163807D01*
X90004Y164807D01*
X89004Y162807D01*
X90004Y160807D01*
X88004Y161807D01*
X86004Y160807D01*
X79496Y180283D02*
X80496Y182283D01*
X79496Y184283D01*
X81496Y183283D01*
X83496Y184283D01*
X82496Y182283D01*
X83496Y180283D01*
X81496Y181283D01*
X79496Y180283D01*
X62173Y184221D02*
X63173Y186221D01*
X62173Y188221D01*
X64173Y187221D01*
X66173Y188221D01*
X65173Y186221D01*
X66173Y184221D01*
X64173Y185221D01*
X62173Y184221D01*
X61779Y173197D02*
X62779Y175197D01*
X61779Y177197D01*
X63779Y176197D01*
X65780Y177197D01*
X64780Y175197D01*
X65780Y173197D01*
X63779Y174197D01*
X61779Y173197D01*
X155358Y137764D02*
X156358Y139764D01*
X155358Y141764D01*
X157358Y140764D01*
X159358Y141764D01*
X158358Y139764D01*
X159358Y137764D01*
X157358Y138764D01*
X155358Y137764D01*
X206268Y98122D02*
X207268Y100122D01*
X206268Y102122D01*
X208268Y101122D01*
X210268Y102122D01*
X209268Y100122D01*
X210268Y98122D01*
X208268Y99122D01*
X206268Y98122D01*
X81071Y127134D02*
X82071Y129134D01*
X81071Y131134D01*
X83071Y130134D01*
X85071Y131134D01*
X84071Y129134D01*
X85071Y127134D01*
X83071Y128134D01*
X81071Y127134D01*
X148942Y126469D02*
X149942Y128469D01*
X148942Y130468D01*
X150942Y129469D01*
X152942Y130468D01*
X151942Y128469D01*
X152942Y126469D01*
X150942Y127469D01*
X148942Y126469D01*
X117685Y219654D02*
X118685Y221654D01*
X117685Y223654D01*
X119685Y222654D01*
X121685Y223654D01*
X120685Y221654D01*
X121685Y219654D01*
X119685Y220654D01*
X117685Y219654D01*
X86583Y143669D02*
X87583Y145669D01*
X86583Y147669D01*
X88583Y146669D01*
X90583Y147669D01*
X89583Y145669D01*
X90583Y143669D01*
X88583Y144669D01*
X86583Y143669D01*
X176740Y156268D02*
X177740Y158268D01*
X176740Y160268D01*
X178740Y159268D01*
X180740Y160268D01*
X179740Y158268D01*
X180740Y156268D01*
X178740Y157268D01*
X176740Y156268D01*
X212567Y212567D02*
X213567Y214567D01*
X212567Y216567D01*
X214567Y215567D01*
X216567Y216567D01*
X215567Y214567D01*
X216567Y212567D01*
X214567Y213567D01*
X212567Y212567D01*
X94457Y114142D02*
X95457Y116142D01*
X94457Y118142D01*
X96457Y117142D01*
X98457Y118142D01*
X97457Y116142D01*
X98457Y114142D01*
X96457Y115142D01*
X94457Y114142D01*
X122016Y98394D02*
X123016Y100394D01*
X122016Y102394D01*
X124016Y101394D01*
X126016Y102394D01*
X125016Y100394D01*
X126016Y98394D01*
X124016Y99394D01*
X122016Y98394D01*
X72803Y212567D02*
X73803Y214567D01*
X72803Y216567D01*
X74803Y215567D01*
X76803Y216567D01*
X75803Y214567D01*
X76803Y212567D01*
X74803Y213567D01*
X72803Y212567D01*
X78709Y106268D02*
X79709Y108268D01*
X78709Y110268D01*
X80709Y109268D01*
X82709Y110268D01*
X81709Y108268D01*
X82709Y106268D01*
X80709Y107268D01*
X78709Y106268D01*
X64929Y120047D02*
X65929Y122047D01*
X64929Y124047D01*
X66929Y123047D01*
X68929Y124047D01*
X67929Y122047D01*
X68929Y120047D01*
X66929Y121047D01*
X64929Y120047D01*
X72016Y186976D02*
X73016Y188976D01*
X72016Y190976D01*
X74016Y189976D01*
X76016Y190976D01*
X75016Y188976D01*
X76016Y186976D01*
X74016Y187976D01*
X72016Y186976D01*
X145638Y138157D02*
X146638Y140157D01*
X145638Y142157D01*
X147638Y141157D01*
X149638Y142157D01*
X148638Y140157D01*
X149638Y138157D01*
X147638Y139157D01*
X145638Y138157D01*
X140913D02*
X141913Y140157D01*
X140913Y142157D01*
X142913Y141157D01*
X144913Y142157D01*
X143913Y140157D01*
X144913Y138157D01*
X142913Y139157D01*
X140913Y138157D01*
X136279D02*
X137279Y140157D01*
X136279Y142157D01*
X138279Y141157D01*
X140279Y142157D01*
X139279Y140157D01*
X140279Y138157D01*
X138279Y139157D01*
X136279Y138157D01*
X131310Y138369D02*
X132310Y140369D01*
X131310Y142369D01*
X133310Y141369D01*
X135310Y142369D01*
X134310Y140369D01*
X135310Y138369D01*
X133310Y139369D01*
X131310Y138369D01*
X213748Y177921D02*
X214748Y179921D01*
X213748Y181921D01*
X215748Y180921D01*
X217748Y181921D01*
X216748Y179921D01*
X217748Y177921D01*
X215748Y178921D01*
X213748Y177921D01*
X214142Y157843D02*
X215142Y159843D01*
X214142Y161843D01*
X216142Y160843D01*
X218142Y161843D01*
X217142Y159843D01*
X218142Y157843D01*
X216142Y158843D01*
X214142Y157843D01*
X208410Y153073D02*
X209410Y155073D01*
X208410Y157073D01*
X210410Y156073D01*
X212410Y157073D01*
X211410Y155073D01*
X212410Y153073D01*
X210410Y154073D01*
X208410Y153073D01*
X190126Y76346D02*
X191126Y78347D01*
X190126Y80347D01*
X192126Y79347D01*
X194126Y80347D01*
X193126Y78347D01*
X194126Y76346D01*
X192126Y77346D01*
X190126Y76346D01*
X165445Y125165D02*
X166445Y127165D01*
X165445Y129165D01*
X167445Y128165D01*
X169445Y129165D01*
X168445Y127165D01*
X169445Y125165D01*
X167445Y126165D01*
X165445Y125165D01*
X175953Y128315D02*
X176953Y130315D01*
X175953Y132315D01*
X177953Y131315D01*
X179953Y132315D01*
X178953Y130315D01*
X179953Y128315D01*
X177953Y129315D01*
X175953Y128315D01*
X158936Y125165D02*
X159936Y127165D01*
X158936Y129165D01*
X160936Y128165D01*
X162936Y129165D01*
X161936Y127165D01*
X162936Y125165D01*
X160936Y126165D01*
X158936Y125165D01*
X153910Y126347D02*
X154910Y128347D01*
X153910Y130347D01*
X155910Y129347D01*
X157910Y130347D01*
X156910Y128347D01*
X157910Y126347D01*
X155910Y127347D01*
X153910Y126347D01*
X138945Y126469D02*
X139945Y128469D01*
X138945Y130468D01*
X140945Y129469D01*
X142945Y130468D01*
X141945Y128469D01*
X142945Y126469D01*
X140945Y127469D01*
X138945Y126469D01*
X133976D02*
X134976Y128469D01*
X133976Y130468D01*
X135976Y129469D01*
X137976Y130468D01*
X136976Y128469D01*
X137976Y126469D01*
X135976Y127469D01*
X133976Y126469D01*
X179102Y121228D02*
X180102Y123228D01*
X179102Y125228D01*
X181102Y124228D01*
X183102Y125228D01*
X182102Y123228D01*
X183102Y121228D01*
X181102Y122228D01*
X179102Y121228D01*
X175165Y173197D02*
X176165Y175197D01*
X175165Y177197D01*
X177165Y176197D01*
X179165Y177197D01*
X178165Y175197D01*
X179165Y173197D01*
X177165Y174197D01*
X175165Y173197D01*
X117980Y187075D02*
X118980Y189075D01*
X117980Y191075D01*
X119980Y190075D01*
X121980Y191075D01*
X120980Y189075D01*
X121980Y187075D01*
X119980Y188075D01*
X117980Y187075D01*
X196425Y147213D02*
X197425Y149213D01*
X196425Y151213D01*
X198425Y150213D01*
X200425Y151213D01*
X199425Y149213D01*
X200425Y147213D01*
X198425Y148213D01*
X196425Y147213D01*
X201150D02*
X202150Y149213D01*
X201150Y151213D01*
X203150Y150213D01*
X205150Y151213D01*
X204150Y149213D01*
X205150Y147213D01*
X203150Y148213D01*
X201150Y147213D01*
X158942Y112961D02*
X159942Y114961D01*
X158942Y116961D01*
X160942Y115961D01*
X162942Y116961D01*
X161942Y114961D01*
X162942Y112961D01*
X160942Y113961D01*
X158942Y112961D01*
X182898Y80425D02*
X183898Y82425D01*
X182898Y84425D01*
X184898Y83425D01*
X186898Y84425D01*
X185898Y82425D01*
X186898Y80425D01*
X184898Y81425D01*
X182898Y80425D01*
X163910Y112608D02*
X164910Y114608D01*
X163910Y116608D01*
X165910Y115608D01*
X167910Y116608D01*
X166910Y114608D01*
X167910Y112608D01*
X165910Y113608D01*
X163910Y112608D01*
X86976Y84614D02*
X87976Y86614D01*
X86976Y88614D01*
X88976Y87614D01*
X90976Y88614D01*
X89976Y86614D01*
X90976Y84614D01*
X88976Y85614D01*
X86976Y84614D01*
X152823Y221721D02*
X153823Y223721D01*
X152823Y225721D01*
X154823Y224721D01*
X156823Y225721D01*
X155823Y223721D01*
X156823Y221721D01*
X154823Y222721D01*
X152823Y221721D01*
X196287Y121780D02*
X197287Y123779D01*
X196287Y125779D01*
X198287Y124779D01*
X200287Y125779D01*
X199287Y123779D01*
X200287Y121780D01*
X198287Y122780D01*
X196287Y121780D01*
X156465Y218866D02*
X157465Y220866D01*
X156465Y222866D01*
X158465Y221866D01*
X160465Y222866D01*
X159465Y220866D01*
X160465Y218866D01*
X158465Y219866D01*
X156465Y218866D01*
X134221Y214535D02*
X135221Y216535D01*
X134221Y218535D01*
X136221Y217535D01*
X138221Y218535D01*
X137221Y216535D01*
X138221Y214535D01*
X136221Y215535D01*
X134221Y214535D01*
X62562Y194068D02*
X63562Y196068D01*
X62562Y198068D01*
X64562Y197068D01*
X66562Y198068D01*
X65562Y196068D01*
X66562Y194068D01*
X64562Y195068D01*
X62562Y194068D01*
X62961Y201150D02*
X63961Y203150D01*
X62961Y205150D01*
X64961Y204150D01*
X66961Y205150D01*
X65961Y203150D01*
X66961Y201150D01*
X64961Y202150D01*
X62961Y201150D01*
X58630Y162567D02*
X59630Y164567D01*
X58630Y166567D01*
X60630Y165567D01*
X62630Y166567D01*
X61630Y164567D01*
X62630Y162567D01*
X60630Y163567D01*
X58630Y162567D01*
X58236Y139339D02*
X59236Y141339D01*
X58236Y143339D01*
X60236Y142339D01*
X62236Y143339D01*
X61236Y141339D01*
X62236Y139339D01*
X60236Y140339D01*
X58236Y139339D01*
X153910Y112961D02*
X154910Y114961D01*
X153910Y116961D01*
X155910Y115961D01*
X157910Y116961D01*
X156910Y114961D01*
X157910Y112961D01*
X155910Y113961D01*
X153910Y112961D01*
X218472Y114535D02*
X219472Y116535D01*
X218472Y118535D01*
X220472Y117535D01*
X222472Y118535D01*
X221472Y116535D01*
X222472Y114535D01*
X220472Y115535D01*
X218472Y114535D01*
X213748Y110205D02*
X214748Y112205D01*
X213748Y114205D01*
X215748Y113205D01*
X217748Y114205D01*
X216748Y112205D01*
X217748Y110205D01*
X215748Y111205D01*
X213748Y110205D01*
X81268Y212272D02*
X82268Y214272D01*
X81268Y216272D01*
X83268Y215272D01*
X85268Y216272D01*
X84268Y214272D01*
X85268Y212272D01*
X83268Y213272D01*
X81268Y212272D01*
X78315Y174772D02*
X79315Y176772D01*
X78315Y178772D01*
X80315Y177772D01*
X82315Y178772D01*
X81315Y176772D01*
X82315Y174772D01*
X80315Y175772D01*
X78315Y174772D01*
X140913Y214535D02*
X141913Y216535D01*
X140913Y218535D01*
X142913Y217535D01*
X144913Y218535D01*
X143913Y216535D01*
X144913Y214535D01*
X142913Y215535D01*
X140913Y214535D01*
X146425Y214929D02*
X147425Y216929D01*
X146425Y218929D01*
X148425Y217929D01*
X150425Y218929D01*
X149425Y216929D01*
X150425Y214929D01*
X148425Y215929D01*
X146425Y214929D01*
X149969Y214142D02*
X150969Y216142D01*
X149969Y218142D01*
X151969Y217142D01*
X153969Y218142D01*
X152969Y216142D01*
X153969Y214142D01*
X151969Y215142D01*
X149969Y214142D01*
X72835Y164142D02*
X70835Y168142D01*
X74835D01*
X72835Y164142D01*
X68898Y159417D02*
X66898Y163417D01*
X70898D01*
X68898Y159417D01*
X72835D02*
X70835Y163417D01*
X74835D01*
X72835Y159417D01*
X76772D02*
X74772Y163417D01*
X78772D01*
X76772Y159417D01*
X72835Y154693D02*
X70835Y158693D01*
X74835D01*
X72835Y154693D01*
X72441Y140520D02*
X70441Y144520D01*
X74441D01*
X72441Y140520D01*
X68504Y135795D02*
X66504Y139795D01*
X70504D01*
X68504Y135795D01*
X72441D02*
X70441Y139795D01*
X74441D01*
X72441Y135795D01*
X76378D02*
X74378Y139795D01*
X78378D01*
X76378Y135795D01*
X72441Y131071D02*
X70441Y135071D01*
X74441D01*
X72441Y131071D01*
D73*
X228378Y164370D02*
G03*
X228378Y164370I-2000J0D01*
G01*
Y169291D02*
G03*
X228378Y169291I-2000J0D01*
G01*
Y174213D02*
G03*
X228378Y174213I-2000J0D01*
G01*
Y179134D02*
G03*
X228378Y179134I-2000J0D01*
G01*
Y184055D02*
G03*
X228378Y184055I-2000J0D01*
G01*
Y188976D02*
G03*
X228378Y188976I-2000J0D01*
G01*
Y193898D02*
G03*
X228378Y193898I-2000J0D01*
G01*
Y198819D02*
G03*
X228378Y198819I-2000J0D01*
G01*
Y141732D02*
G03*
X228378Y141732I-2000J0D01*
G01*
Y136811D02*
G03*
X228378Y136811I-2000J0D01*
G01*
Y131890D02*
G03*
X228378Y131890I-2000J0D01*
G01*
Y126969D02*
G03*
X228378Y126969I-2000J0D01*
G01*
Y122047D02*
G03*
X228378Y122047I-2000J0D01*
G01*
Y117126D02*
G03*
X228378Y117126I-2000J0D01*
G01*
Y112205D02*
G03*
X228378Y112205I-2000J0D01*
G01*
Y107283D02*
G03*
X228378Y107283I-2000J0D01*
G01*
M02*
