M48
;Layer_Color=9474304
;FILE_FORMAT=2:4
INCH,TZ
;TYPE=PLATED
T01F00S00C0.0079
T02F00S00C0.0118
T03F00S00C0.0236
%
T01
X4567Y3041
X5000
X5433
X5866
X6299
X6732
X7165
X7598
X8031
Y3474
X7598
X7165
X6732
X6299
X5866
X5433
X5000
X4567
Y3907
Y4341
X5000
Y3907
X5433
Y4341
X5866
Y3907
X6299
Y4341
X6732
Y3907
X7165
Y4341
X7598
Y3907
X8031
Y4341
Y4774
X7598
X7165
X6732
X6299
X5866
X5433
X5000
X4567
Y5207
X5000
X5433
X5866
X6299
X6732
X7165
X7598
X8031
Y5640
X7598
X7165
X6732
X6299
X5866
X5433
X5000
X4567
Y6073
X5000
X5433
X5866
X6299
X6732
X7165
X7598
X8031
Y6506
X7598
X7165
X6732
X6299
X5866
X5433
X5000
X4567
T02
X1181Y1260
X1772
X2291Y2304
X3126Y2352
X3110Y1831
X3327Y1526
X3593Y1270
X4055Y1260
X4469Y1171
X4785Y936
X5128Y974
X5433Y886
X5709Y1112
X6083Y984
X6042Y1302
X6378Y791
X6709Y978
X7047Y669
X7470Y679
X7460Y1004
X8149Y932
X8553Y876
X8976Y945
X9350Y1112
X9685Y1378
X10000Y1535
X10374Y1152
X10408Y2945
Y3415
X10410Y3949
X10778Y4086
X10880Y3715
X10983Y4402
X10965Y4783
X10906Y5236
X10483Y5381
X10500Y4492
X9486Y4129
X9142Y4152
X9162Y3786
X9173Y3465
X9213Y3150
X8967Y2844
X9084Y2058
X9370Y2344
X9684Y2478
X8716Y1380
X7913Y669
X4875Y1607
X3848Y2009
X3504Y3248
X3445Y3661
X3031Y3348
X2256Y3624
X2224Y3957
X2213Y4297
X2180Y4648
X1595Y5158
X1693Y5482
X1837Y5768
X2311Y5650
X3150Y5482
X3100Y5138
X3474Y5089
X3238Y4813
X3199Y5906
X3577Y5861
X3465Y6191
X3258Y6693
X3228Y7087
Y8780
X1102
X1496Y7165
X787Y6526
X807Y6181
X896Y5020
X915Y4429
X906Y4035
X915Y3356
X659Y2697
X1732Y3553
X1716Y3911
X4488Y7559
X5089
X5852Y7667
X7559Y7598
X8150
X9173Y8445
X9961Y7795
X11339
X11811
X11782Y4754
X11759Y4217
X9075Y4773
X9154Y5404
X9163Y5856
X9537Y5807
X9419Y6201
X9478Y6663
X9173Y6506
T03
X1457Y866
X10945Y945
X8622Y8622
M30
